<svg width="414" height="418" viewBox="0 0 414 418" fill="none" xmlns="http://www.w3.org/2000/svg">
<path d="M92.6913 1.59326H321.55C372.561 1.59326 413.231 42.9533 413.231 93.2746V324.891C413.231 375.901 371.871 416.572 321.55 416.572H92.6913C41.6807 416.572 1.01001 375.212 1.01001 324.891V93.2746C1.01001 42.2639 42.37 1.59326 92.6913 1.59326Z" stroke="#39424E" stroke-width="1.5" stroke-miterlimit="10"/>
<path d="M56.5891 237.962H67.3041V217.136H82.8862V206.459H67.3041V196.347H82.8862V185.67H56.5891V237.962Z" fill="#4C5664"/>
<path d="M87.791 185.67V238H98.4683V217.136H108.58V237.962H119.257V216.834H114.05V211.929H119.257V190.839V185.67H114.05H87.791ZM108.58 206.459H98.4683V196.347H108.58V206.459Z" fill="#4C5664"/>
<path d="M124.199 237.962H150.459V227.247H134.877V217.136H150.459V206.459H134.877V196.347H150.459V185.67H124.199V237.962Z" fill="#4C5664"/>
<path d="M155.364 237.962H181.661V227.247H166.041V217.136H181.661V206.459H166.041V196.347H181.661V185.67H155.364V237.962Z" fill="#4C5664"/>
<path d="M212.825 185.67H186.528V238H212.825V232.756H218.032V190.877H212.825V185.67ZM207.354 227.247H197.243V196.347H207.354V227.247Z" fill="#4C5664"/>
<path d="M228.143 185.67V185.821H223.238V190.839H222.936V232.718V237.962H228.143H249.233V237.811H254.44V232.756V190.877V185.67H249.233H228.143ZM243.725 227.247H233.614V196.347H243.725V227.247Z" fill="#4C5664"/>
<path d="M259.345 185.67V237.962H270.023V196.347H280.134V237.962H290.811V196.347H300.923V237.962H311.6V185.67H259.345Z" fill="#4C5664"/>
<path d="M327.181 237.962H316.504V185.67H342.801V196.347H327.181V206.459H342.801V217.136H327.181V237.962Z" fill="#4C5664"/>
<path d="M358.384 185.67H347.707V238H358.384V185.67Z" fill="#4C5664"/>
</svg>
