<svg width="250" height="224" viewBox="0 0 250 224" fill="none" xmlns="http://www.w3.org/2000/svg">
<path d="M7.5 208.786V216.286H15H235H242.5V208.786V15V7.5H235H15H7.5V15V208.786ZM75.0478 130.398V136.959H74.332V137.049H68.3967V130.398H75.0478ZM89.332 152.049H90.0478V151.959H102.767H103.483H124.776H146.696H159.326V152.049H160.757V158.61H146.696H124.776H103.483H102.767H89.332V152.049ZM180.977 137.049H175.757V136.959H174.326V130.398H180.977V137.049ZM124.687 110.178H139.196V116.829H124.687H110.267V110.178H124.687ZM66.2495 66.2495H80.7584H95.2674V72.9006H80.7584H66.2495V66.2495ZM183.929 72.9006H169.421H154.912V66.2495H169.421H183.929V72.9006Z" stroke="#4C5664" stroke-width="15"/>
</svg>
