<svg width="15" height="15" viewBox="0 0 15 15" fill="none" xmlns="http://www.w3.org/2000/svg">
<path fill-rule="evenodd" clip-rule="evenodd" d="M7.47095 6C8.2666 6 9.02966 5.68393 9.59227 5.12132C10.1549 4.55871 10.4709 3.79565 10.4709 3C10.4709 2.20435 10.1549 1.44129 9.59227 0.87868C9.02966 0.316071 8.2666 0 7.47095 0C6.6753 0 5.91224 0.316071 5.34963 0.87868C4.78702 1.44129 4.47095 2.20435 4.47095 3C4.47095 3.79565 4.78702 4.55871 5.34963 5.12132C5.91224 5.68393 6.6753 6 7.47095 6ZM0.470947 15C0.470947 14.0807 0.652008 13.1705 1.00379 12.3212C1.35557 11.4719 1.87119 10.7003 2.5212 10.0503C3.17121 9.40024 3.94288 8.88463 4.79216 8.53284C5.64144 8.18106 6.55169 8 7.47095 8C8.3902 8 9.30045 8.18106 10.1497 8.53284C10.999 8.88463 11.7707 9.40024 12.4207 10.0503C13.0707 10.7003 13.5863 11.4719 13.9381 12.3212C14.2899 13.1705 14.4709 14.0807 14.4709 15H0.470947Z" fill="#FCC945"/>
</svg>
