<svg width="21" height="26" viewBox="0 0 21 26" fill="none" xmlns="http://www.w3.org/2000/svg">
<path fill-rule="evenodd" clip-rule="evenodd" d="M3.88311 0.693402C3.06718 -0.122532 1.74429 -0.122532 0.928356 0.693402C0.112423 1.50934 0.112423 2.83222 0.928356 3.64816L6.24182 8.96162L0.928356 14.2751C0.112423 15.091 0.112423 16.4139 0.928356 17.2298C1.74429 18.0458 3.06718 18.0458 3.88311 17.2298L10.674 10.439C11.4899 9.62306 11.4899 8.30017 10.674 7.48424L3.88311 0.693402ZM16.7497 8.81729C17.5657 8.00136 18.8886 8.00136 19.7045 8.81729C20.5204 9.63322 20.5204 10.9561 19.7045 11.772L14.391 17.0855L19.7045 22.399C20.5204 23.2149 20.5204 24.5378 19.7045 25.3537C18.8886 26.1697 17.5657 26.1697 16.7497 25.3537L9.9589 18.5629C9.14297 17.747 9.14297 16.4241 9.9589 15.6081L16.7497 8.81729Z" fill="currentColor"/>
</svg>
