<svg width="23" height="33" viewBox="0 0 23 33" fill="none" xmlns="http://www.w3.org/2000/svg">
<g clip-path="url(#clip0_2458_121)">
<path fill-rule="evenodd" clip-rule="evenodd" d="M3.88311 7.6934C3.06718 6.87747 1.74429 6.87747 0.928356 7.6934C0.112423 8.50934 0.112423 9.83222 0.928356 10.6482L6.24182 15.9616L0.928356 21.2751C0.112423 22.091 0.112423 23.4139 0.928356 24.2298C1.74429 25.0458 3.06718 25.0458 3.88311 24.2298L10.674 17.439C11.4899 16.6231 11.4899 15.3002 10.674 14.4842L3.88311 7.6934ZM16.7497 15.8173C17.5657 15.0014 18.8886 15.0014 19.7045 15.8173C20.5204 16.6332 20.5204 17.9561 19.7045 18.772L14.391 24.0855L19.7045 29.399C20.5204 30.2149 20.5204 31.5378 19.7045 32.3537C18.8886 33.1697 17.5657 33.1697 16.7497 32.3537L9.9589 25.5629C9.14297 24.747 9.14297 23.4241 9.9589 22.6081L16.7497 15.8173Z" fill="currentColor"/>
</g>
<path d="M16.0001 13C19.3137 13 22 10.3137 22 7.00001C22 3.68629 19.3137 1 16.0001 1C12.6863 1 10 3.68629 10 7.00001C10 10.3137 12.6863 13 16.0001 13Z" fill="#FCC945" stroke="#161B3D" stroke-width="2"/>
<defs>
<clipPath id="clip0_2458_121">
<rect width="21" height="26" fill="white" transform="translate(0 7)"/>
</clipPath>
</defs>
</svg>
