<svg width="152" height="70" viewBox="0 0 152 70" fill="none" xmlns="http://www.w3.org/2000/svg">
<rect x="82.9547" y="0.519043" width="68.8624" height="68.8616" rx="17" fill="#4A518E"/>
<rect x="0.489349" y="0.519043" width="68.8624" height="68.8616" rx="17" fill="#474DFF"/>
<path d="M118.281 33.3011C118.281 39.5964 116.475 45.471 113.353 50.4328M107.196 46.7813L107.292 46.6202C109.803 42.632 111.13 38.0136 111.121 33.3011C111.121 31.4022 111.875 29.5811 113.218 28.2384C114.561 26.8956 116.382 26.1413 118.281 26.1413C120.18 26.1413 122.001 26.8956 123.344 28.2384C124.686 29.5811 125.441 31.4022 125.441 33.3011C125.441 35.1215 125.315 36.915 125.077 38.671M121.286 50.9214C122.391 48.7171 123.285 46.4133 123.957 44.0408M130.828 46.0671C131.983 42.011 132.6 37.7277 132.6 33.3011C132.601 30.7872 131.94 28.3175 130.683 26.1402C129.427 23.9629 127.619 22.1547 125.442 20.8975C123.265 19.6404 120.795 18.9784 118.282 18.9783C115.768 18.9781 113.298 19.6398 111.121 20.8967M102.171 41.1125C103.317 38.7515 103.961 36.1006 103.961 33.3011C103.961 30.6932 104.659 28.2481 105.876 26.1413" stroke="#29D391" stroke-width="3" stroke-linecap="round" stroke-linejoin="round"/>
<rect x="67.3517" y="23.9812" width="15.5119" height="15.5119" transform="rotate(45 67.3517 23.9812)" fill="#474DFF"/>
<path d="M41.3773 23.301C42.7911 21.8875 45.0928 21.8875 46.5066 23.301C47.9204 24.7145 47.9204 27.0158 46.5066 28.4294C45.6876 29.2482 44.567 29.6188 43.429 29.455C43.3773 29.4464 43.317 29.4464 43.2652 29.455C42.929 29.4119 42.5756 29.455 42.2394 29.6102C41.7653 29.8256 41.4291 30.2221 41.2653 30.6789C41.1015 31.1271 41.1101 31.6356 41.3256 32.0925C42.5411 34.7213 41.9808 37.8672 39.9291 39.9186C37.8774 41.9699 34.7309 42.5302 32.1016 41.3149C31.6274 41.0994 31.1188 41.0908 30.6619 41.2631C30.2137 41.4269 29.8344 41.7631 29.6188 42.2285C29.4809 42.5302 29.4292 42.8404 29.4464 43.1507C29.4378 43.2111 29.4378 43.2714 29.4464 43.3317C29.6361 44.4867 29.2568 45.6675 28.4292 46.4949C27.0154 47.9085 24.7137 47.9085 23.2999 46.4949C22.6103 45.8054 22.2396 44.9004 22.2396 43.9264C22.2396 42.9611 22.6189 42.0475 23.2999 41.358C24.1189 40.5391 25.2396 40.1685 26.3775 40.3323C26.3947 40.3323 26.412 40.3323 26.4378 40.3323C26.5585 40.3581 26.6792 40.3754 26.8085 40.3754C27.0758 40.3754 27.343 40.3237 27.593 40.203C28.0585 39.9875 28.3861 39.6083 28.5585 39.1687C28.7309 38.7119 28.7309 38.1948 28.5068 37.7207C27.2913 35.0919 27.8516 31.9459 29.9033 29.8946C31.955 27.8433 35.1015 27.283 37.7308 28.4983C38.1963 28.7138 38.7136 28.7224 39.1618 28.5586C39.6101 28.3949 39.998 28.0587 40.2136 27.5933C40.3773 27.2313 40.4205 26.8434 40.3601 26.4728V26.4642C40.1705 25.3093 40.5498 24.1284 41.3773 23.301ZM37.7912 37.781C39.3601 36.2124 39.3601 33.6698 37.7912 32.1011C36.2222 30.5324 33.6791 30.5324 32.1102 32.1011C30.5412 33.6698 30.5412 36.2124 32.1102 37.781C33.6791 39.3497 36.2222 39.3497 37.7912 37.781ZM34.9205 10.6741C48.3255 10.6741 59.1961 21.5427 59.1961 34.9454C59.1961 48.348 48.3342 59.2253 34.9205 59.2253C21.5069 59.2253 10.6449 48.3566 10.6449 34.9454C10.6449 21.5341 21.5155 10.6741 34.9205 10.6741ZM47.86 29.7825C50.0066 27.6364 50.0066 24.1629 47.86 22.0168C45.7135 19.8706 42.2394 19.8706 40.0929 22.0168C39.2998 22.8097 38.7998 23.7923 38.5929 24.818C34.705 23.3527 30.2395 24.2836 27.2654 27.2572C24.2913 30.2307 23.3603 34.6954 24.8344 38.5912C23.7999 38.7981 22.8172 39.298 22.0155 40.0996C19.8689 42.2457 19.8689 45.7192 22.0155 47.8654C24.162 50.0115 27.6361 50.0115 29.7826 47.8654C30.5843 47.0638 31.093 46.064 31.2912 45.0297C32.4981 45.4779 33.7567 45.702 35.0067 45.702C37.7912 45.702 40.5411 44.6246 42.5842 42.5819C45.5411 39.6255 46.4807 35.1867 45.0411 31.2995C46.0669 31.084 47.0583 30.5841 47.86 29.7825Z" fill="white"/>
</svg>
