<svg width="18" height="18" viewBox="0 0 18 18" fill="none" xmlns="http://www.w3.org/2000/svg">
<path d="M9 0C7.21997 0 5.47991 0.527841 3.99987 1.51677C2.51983 2.50571 1.36628 3.91131 0.685088 5.55585C0.00389951 7.20038 -0.17433 9.00998 0.172937 10.7558C0.520204 12.5016 1.37737 14.1053 2.63604 15.364C3.89472 16.6226 5.49836 17.4798 7.24419 17.8271C8.99002 18.1743 10.7996 17.9961 12.4442 17.3149C14.0887 16.6337 15.4943 15.4802 16.4832 14.0001C17.4722 12.5201 18 10.78 18 9C18 6.61305 17.0518 4.32387 15.364 2.63604C13.6761 0.948211 11.387 0 9 0V0ZM7.75 5.25C7.75 4.91848 7.8817 4.60054 8.11612 4.36612C8.35054 4.1317 8.66848 4 9 4C9.33152 4 9.64947 4.1317 9.88389 4.36612C10.1183 4.60054 10.25 4.91848 10.25 5.25V7.75C10.25 8.08152 10.1183 8.39946 9.88389 8.63388C9.64947 8.8683 9.33152 9 9 9C8.66848 9 8.35054 8.8683 8.11612 8.63388C7.8817 8.39946 7.75 8.08152 7.75 7.75V5.25ZM9 14C8.70333 14 8.41332 13.912 8.16665 13.7472C7.91998 13.5824 7.72772 13.3481 7.61418 13.074C7.50065 12.7999 7.47095 12.4983 7.52883 12.2074C7.5867 11.9164 7.72957 11.6491 7.93934 11.4393C8.14912 11.2296 8.4164 11.0867 8.70737 11.0288C8.99834 10.9709 9.29994 11.0006 9.57403 11.1142C9.84812 11.2277 10.0824 11.42 10.2472 11.6666C10.412 11.9133 10.5 12.2033 10.5 12.5C10.5 12.8978 10.342 13.2794 10.0607 13.5607C9.77936 13.842 9.39783 14 9 14V14Z" fill="#FCC945"/>
</svg>
