<svg width="82" height="83" viewBox="0 0 82 83" fill="none" xmlns="http://www.w3.org/2000/svg">
<path d="M0 41.3401C0 18.8497 18.2321 0.617615 40.7225 0.617615V0.617615C63.2129 0.617615 81.4449 18.8497 81.4449 41.3401V41.3401C81.4449 63.8305 63.2129 82.0625 40.7225 82.0625H0V41.3401Z" fill="#474DFF"/>
<path d="M40.7225 24.7587C38.4349 24.7587 36.4076 26.1501 35.563 28.1938C30.8064 30.1738 27.4166 34.8211 27.4166 40.314V44.5177C26.3213 45.4771 25.613 46.8862 25.613 48.491V49.5043C25.613 52.079 27.7201 54.0397 30.1589 54.0397H34.1122C35.5316 56.1888 37.9801 57.5864 40.7225 57.5864C43.4648 57.5864 45.9133 56.1888 47.3327 54.0397H51.286C53.7249 54.0397 55.8319 52.079 55.8319 49.5043V48.491C55.8319 46.8862 55.1236 45.4771 54.0284 44.5177V40.314C54.0284 34.8211 50.6385 30.1738 45.8819 28.1938C45.0373 26.1501 43.01 24.7587 40.7225 24.7587Z" stroke="white" stroke-width="5"/>
</svg>
