<svg width="82" height="82" viewBox="0 0 82 82" fill="none" xmlns="http://www.w3.org/2000/svg">
<path d="M0.324829 21.4451C0.324829 9.8471 9.72685 0.445068 21.3248 0.445068H60.7697C72.3677 0.445068 81.7698 9.84709 81.7698 21.4451V60.89C81.7698 72.488 72.3677 81.89 60.7698 81.89H21.3248C9.72686 81.89 0.324829 72.488 0.324829 60.89V21.4451Z" fill="#474DFF"/>
<path fill-rule="evenodd" clip-rule="evenodd" d="M29.0024 19.1226C23.4796 19.1226 19.0024 23.5998 19.0024 29.1226V53.2124C19.0024 58.7353 23.4796 63.2124 29.0024 63.2124H53.0922C58.6151 63.2124 63.0922 58.7353 63.0922 53.2124V29.1226C63.0922 23.5998 58.6151 19.1226 53.0922 19.1226H29.0024ZM41.0472 58.5296C50.6361 58.5296 58.4094 50.7563 58.4094 41.1675C58.4094 31.5786 50.6361 23.8053 41.0472 23.8053C31.4584 23.8053 23.6851 31.5786 23.6851 41.1675C23.6851 50.7563 31.4584 58.5296 41.0472 58.5296Z" fill="white"/>
</svg>
