<?xml version="1.0" encoding="UTF-8"?>
<!DOCTYPE svg PUBLIC "-//W3C//DTD SVG 1.1//EN" "http://www.w3.org/Graphics/SVG/1.1/DTD/svg11.dtd">
<!-- Creator: CorelDRAW 2018 (64-Bit) -->
<svg xmlns="http://www.w3.org/2000/svg" xml:space="preserve" width="70px" height="50px" version="1.1" style="shape-rendering:geometricPrecision; text-rendering:geometricPrecision; image-rendering:optimizeQuality; fill-rule:evenodd; clip-rule:evenodd"
viewBox="0 0 5.89 4.21"
 xmlns:xlink="http://www.w3.org/1999/xlink">
 <defs>
  <style type="text/css">
   <![CDATA[
    .fil0 {fill:none}
    .fil5 {fill:#FEFEFE}
    .fil3 {fill:#020106}
    .fil2 {fill:#D83742;fill-rule:nonzero}
    .fil1 {fill:#242323;fill-rule:nonzero}
    .fil4 {fill:#020106;fill-rule:nonzero}
   ]]>
  </style>
 </defs>
 <g id="图层_x0020_1">
  <metadata id="CorelCorpID_0Corel-Layer"/>
  <rect class="fil0" width="5.89" height="4.21"/>
  <g id="_1355031120">
   <path class="fil1" d="M3.5 2.06c-0.01,0 -0.01,-0.01 -0.01,-0.02 0,-0.01 0,-0.02 0.01,-0.02 0.02,0 0.04,-0.02 0.04,-0.04 0,-0.01 0.01,-0.01 0.02,-0.01 0.01,0 0.02,0 0.02,0.01 0,0.04 -0.04,0.08 -0.08,0.08z"/>
   <path class="fil1" d="M2.4 2.14l-0.04 0 0 0.06 0.04 0c0.02,0 0.03,-0.01 0.03,-0.03 0,-0.02 -0.01,-0.03 -0.03,-0.03zm0 -0.08l-0.04 0 0 0.05 0.04 0c0.02,0 0.03,-0.01 0.03,-0.03 0,-0.01 -0.01,-0.02 -0.03,-0.02zm0.01 0.18l-0.1 0 0 -0.22 0.09 0c0.05,0 0.07,0.02 0.07,0.06 0,0.02 -0.01,0.04 -0.04,0.05 0.03,0 0.05,0.02 0.05,0.05 0,0.03 -0.03,0.06 -0.07,0.06z"/>
   <path class="fil1" d="M2.84 2.14l-0.04 0 0 0.06 0.04 0c0.02,0 0.04,-0.01 0.04,-0.03 0,-0.02 -0.02,-0.03 -0.04,-0.03zm0 -0.08l-0.04 0 0 0.05 0.04 0c0.02,0 0.03,-0.01 0.03,-0.03 0,-0.01 -0.01,-0.02 -0.03,-0.02zm0.01 0.18l-0.1 0 0 -0.22 0.09 0c0.05,0 0.07,0.02 0.07,0.06 0,0.02 -0.01,0.04 -0.03,0.05 0.02,0 0.04,0.02 0.04,0.05 0,0.03 -0.03,0.06 -0.07,0.06z"/>
   <path class="fil1" d="M3.05 2.02c0.05,0 0.09,0.02 0.11,0.07l-0.05 0c-0.02,-0.02 -0.03,-0.03 -0.06,-0.03 -0.03,0 -0.06,0.02 -0.06,0.07 0,0.04 0.03,0.07 0.06,0.07 0.03,0 0.04,-0.01 0.06,-0.03l0.05 0c-0.02,0.04 -0.06,0.07 -0.11,0.07 -0.06,0 -0.11,-0.05 -0.11,-0.11 0,-0.07 0.05,-0.11 0.11,-0.11z"/>
   <path class="fil1" d="M3.28 2.07l-0.03 0.09 0.06 0 -0.03 -0.09zm0.05 0.13l-0.09 0 -0.02 0.04 -0.04 0 0.08 -0.22 0.05 0 0.08 0.22 -0.05 0 -0.01 -0.04z"/>
   <polygon class="fil1" points="3.4,2.02 3.51,2.02 3.51,2.06 3.5,2.06 3.5,2.24 3.46,2.24 3.46,2.06 3.4,2.06 "/>
   <path class="fil2" d="M2.61 2.2c-0.02,0 -0.04,-0.01 -0.05,-0.02l-0.03 0.03c0.02,0.02 0.05,0.03 0.08,0.03 0.03,0 0.06,-0.01 0.08,-0.03l-0.03 -0.03c-0.01,0.01 -0.03,0.02 -0.05,0.02z"/>
   <path class="fil2" d="M2.71 2.07l0 -0.06 -0.05 0.02c-0.01,-0.01 -0.03,-0.01 -0.05,-0.01 -0.02,0 -0.03,0 -0.05,0.01l-0.05 -0.02 0.01 0.06 0 0c-0.01,0.02 -0.02,0.04 -0.02,0.06 0,0 0,0.01 0,0.02l0.05 -0.01c0,-0.01 0,-0.01 0,-0.01 0,-0.05 0.02,-0.07 0.06,-0.07 0.04,0 0.07,0.02 0.07,0.07 0,0 0,0 0,0.01l0.04 0.01c0,-0.01 0,-0.02 0,-0.02 0,-0.02 0,-0.04 -0.01,-0.06z"/>
   <path class="fil2" d="M2.67 2.15l0.04 0.02c0.01,0 0.01,-0.01 0.01,-0.02l-0.04 0c0,0 0,0 -0.01,0z"/>
   <path class="fil2" d="M2.67 2.17l0.03 0.03c0,-0.01 0.01,-0.01 0.01,-0.02l-0.04 -0.02c0,0.01 0,0.01 0,0.01z"/>
   <path class="fil2" d="M2.55 2.15l-0.05 0c0,0.01 0.01,0.02 0.01,0.02l0.04 -0.02c0,0 0,0 0,0z"/>
   <path class="fil2" d="M2.55 2.16l-0.04 0.02c0.01,0.01 0.01,0.01 0.02,0.02l0.03 -0.03c-0.01,0 -0.01,0 -0.01,-0.01z"/>
  </g>
  <path class="fil3" d="M1.4 3.55c0.51,-0.02 1.03,-0.04 1.54,-0.04 0.52,0 1.03,0.02 1.55,0.04l-0.01 0.09 -3.07 0 -0.01 -0.09z"/>
  <path class="fil4" d="M1.45 0.52l2.99 0c0.02,0 0.04,0.01 0.05,0.02l0.01 0c0.01,0.02 0.02,0.03 0.02,0.05l0 2.91c-0.01,0.05 -0.01,0.09 -0.01,0.13l-3.13 0c0,-0.04 -0.01,-0.08 -0.01,-0.13l0 -2.91c0,-0.02 0.01,-0.03 0.02,-0.05l0 0c0.02,-0.01 0.03,-0.02 0.06,-0.02zm2.98 0.08l-2.97 0 0 2.9 0 0.05 2.97 0 0 -0.05 0 -2.9z"/>
  <path class="fil3" d="M1.41 3.58c0.51,-0.02 1.02,-0.04 1.53,-0.04 0.51,0 1.02,0.02 1.53,0.04l0 0.09 -3.05 0 -0.01 -0.09z"/>
  <polygon class="fil3" points="1.46,3.66 4.43,3.66 4.43,3.69 1.46,3.69 "/>
  <polygon class="fil5" points="2.92,3.51 2.97,3.51 2.97,3.67 2.92,3.67 "/>
  <g id="_1355031056">
   <polygon class="fil5" points="2.94,3.47 2.96,3.49 2.97,3.51 2.94,3.51 2.92,3.51 2.93,3.49 "/>
   <path class="fil4" d="M2.97 3.51l0 0 -0.03 -0.04 -0.02 0.04 0 0 0 0c0,-0.01 0.02,-0.03 0.02,-0.04 0.01,0.01 0.02,0.03 0.03,0.04l0 0z"/>
  </g>
 </g>
</svg>
