<?xml version="1.0" encoding="UTF-8"?>
<!DOCTYPE svg PUBLIC "-//W3C//DTD SVG 1.1//EN" "http://www.w3.org/Graphics/SVG/1.1/DTD/svg11.dtd">
<!-- Creator: CorelDRAW 2018 (64-Bit) -->
<svg xmlns="http://www.w3.org/2000/svg" xml:space="preserve" width="140px" height="100px" version="1.1" style="shape-rendering:geometricPrecision; text-rendering:geometricPrecision; image-rendering:optimizeQuality; fill-rule:evenodd; clip-rule:evenodd"
viewBox="0 0 18.94 13.53"
 xmlns:xlink="http://www.w3.org/1999/xlink">
 <defs>
  <style type="text/css">
   <![CDATA[
    .fil0 {fill:none}
    .fil5 {fill:#FEFEFE}
    .fil3 {fill:#020106}
    .fil2 {fill:#D83742;fill-rule:nonzero}
    .fil1 {fill:#242323;fill-rule:nonzero}
    .fil4 {fill:#020106;fill-rule:nonzero}
   ]]>
  </style>
 </defs>
 <g id="图层_x0020_1">
  <metadata id="CorelCorpID_0Corel-Layer"/>
  <rect class="fil0" width="18.94" height="13.53"/>
  <g id="_10290210304">
   <g>
    <path class="fil1" d="M10.44 6.68c-0.01,0 -0.03,-0.01 -0.03,-0.03 0,-0.01 0.02,-0.03 0.03,-0.03 0.04,0 0.06,-0.03 0.06,-0.06 0,-0.02 0.02,-0.03 0.04,-0.03 0.01,0 0.03,0.01 0.03,0.03 0,0.07 -0.06,0.12 -0.13,0.12z"/>
    <path class="fil1" d="M8.53 6.84l-0.08 0 0 0.1 0.08 0c0.04,0 0.06,-0.02 0.06,-0.05 0,-0.04 -0.03,-0.05 -0.06,-0.05zm-0.01 -0.16l-0.07 0 0 0.1 0.07 0c0.04,0 0.06,-0.02 0.06,-0.05 0,-0.03 -0.02,-0.05 -0.06,-0.05zm0.02 0.32l-0.16 0 0 -0.38 0.15 0c0.08,0 0.13,0.04 0.13,0.1 0,0.05 -0.03,0.07 -0.07,0.09 0.04,0 0.07,0.04 0.07,0.09 0,0.06 -0.04,0.1 -0.12,0.1z"/>
    <path class="fil1" d="M9.29 6.84l-0.07 0 0 0.1 0.08 0c0.03,0 0.05,-0.02 0.05,-0.05 0,-0.04 -0.02,-0.05 -0.06,-0.05zm0 -0.16l-0.07 0 0 0.1 0.07 0c0.03,0 0.05,-0.02 0.05,-0.05 0,-0.03 -0.02,-0.05 -0.05,-0.05zm0.02 0.32l-0.16 0 0 -0.38 0.15 0c0.08,0 0.12,0.04 0.12,0.1 0,0.05 -0.03,0.07 -0.06,0.09 0.04,0 0.07,0.04 0.07,0.09 0,0.06 -0.05,0.1 -0.12,0.1z"/>
    <path class="fil1" d="M9.66 6.62c0.08,0 0.15,0.04 0.18,0.12l-0.09 0c-0.02,-0.04 -0.05,-0.05 -0.09,-0.05 -0.06,0 -0.11,0.04 -0.11,0.12 0,0.08 0.05,0.12 0.11,0.12 0.04,0 0.07,-0.01 0.09,-0.05l0.09 0c-0.03,0.08 -0.1,0.12 -0.18,0.12 -0.11,0 -0.19,-0.08 -0.19,-0.19 0,-0.11 0.08,-0.19 0.19,-0.19z"/>
    <path class="fil1" d="M10.06 6.71l-0.06 0.16 0.11 0 -0.05 -0.16zm0.07 0.22l-0.15 0 -0.02 0.07 -0.08 0 0.13 -0.38 0.09 0 0.14 0.38 -0.08 0 -0.03 -0.07z"/>
    <polygon class="fil1" points="10.27,6.62 10.44,6.62 10.44,6.68 10.44,6.68 10.44,7 10.37,7 10.37,6.68 10.27,6.68 "/>
    <path class="fil2" d="M8.9 6.93c-0.04,0 -0.07,-0.01 -0.09,-0.04l-0.05 0.06c0.03,0.03 0.08,0.05 0.14,0.05 0.05,0 0.1,-0.02 0.14,-0.05l-0.05 -0.06c-0.02,0.03 -0.06,0.04 -0.09,0.04z"/>
    <path class="fil2" d="M9.06 6.71l0.01 -0.11 -0.09 0.04c-0.02,-0.01 -0.05,-0.02 -0.08,-0.02 -0.03,0 -0.06,0 -0.09,0.02l-0.09 -0.04 0.01 0.11 0 0c-0.01,0.03 -0.02,0.06 -0.02,0.1 0,0.01 0,0.02 0,0.03l0.07 -0.01c0,-0.01 0,-0.01 0,-0.02 0,-0.08 0.05,-0.12 0.12,-0.12 0.07,0 0.11,0.04 0.11,0.12 0,0.01 0,0.01 0,0.02l0.08 0.01c0,-0.01 0,-0.02 0,-0.03 0,-0.04 -0.01,-0.07 -0.03,-0.1z"/>
    <path class="fil2" d="M9.01 6.86l0.07 0.03c0,-0.01 0,-0.02 0,-0.04l-0.07 -0.01c0,0.01 0,0.01 0,0.02z"/>
    <path class="fil2" d="M8.99 6.88l0.06 0.05c0,-0.01 0.01,-0.02 0.02,-0.03l-0.07 -0.03c0,0 0,0.01 -0.01,0.01z"/>
    <path class="fil2" d="M8.79 6.84l-0.08 0.01c0,0.02 0.01,0.03 0.01,0.04l0.07 -0.03c0,-0.01 0,-0.01 0,-0.02z"/>
    <path class="fil2" d="M8.79 6.87l-0.06 0.03c0,0.01 0.01,0.02 0.02,0.03l0.05 -0.05c0,0 0,-0.01 -0.01,-0.01z"/>
   </g>
   <path class="fil3" d="M4.68 11.26c1.59,-0.06 3.19,-0.12 4.79,-0.12 1.6,0 3.2,0.06 4.8,0.12l-0.02 0.27 -9.55 0 -0.02 -0.27z"/>
   <path class="fil4" d="M4.82 1.85l9.31 0c0.06,0 0.12,0.03 0.16,0.07l0 0c0.04,0.04 0.07,0.1 0.07,0.16l0 9.04c-0.01,0.13 -0.02,0.27 -0.03,0.4l-9.71 0c-0.01,-0.13 -0.03,-0.27 -0.03,-0.4l0 -9.04c0,-0.06 0.02,-0.12 0.06,-0.16l0 0c0.05,-0.04 0.1,-0.07 0.17,-0.07zm9.28 0.26l-9.25 0 0 9.01 0.01 0.14 9.23 0 0.01 -0.14 0 -9.01z"/>
   <path class="fil3" d="M4.72 11.36c1.58,-0.07 3.17,-0.12 4.75,-0.12 1.59,0 3.17,0.05 4.76,0.12l-0.02 0.27 -9.47 0 -0.02 -0.27z"/>
   <polygon class="fil3" points="4.86,11.61 14.08,11.61 14.08,11.68 4.86,11.68 "/>
   <polygon class="fil5" points="9.39,11.14 9.55,11.14 9.55,11.63 9.39,11.63 "/>
   <g>
    <polygon class="fil5" points="9.47,11.01 9.51,11.08 9.55,11.14 9.47,11.14 9.39,11.14 9.43,11.08 "/>
    <path class="fil4" d="M9.56 11.15l-0.01 0 -0.08 -0.13 -0.08 0.13 0 0 0 0c0.02,-0.05 0.05,-0.1 0.08,-0.14 0.03,0.04 0.06,0.09 0.09,0.14l0 0z"/>
   </g>
  </g>
 </g>
</svg>
