<svg width="93" height="94" viewBox="0 0 93 94" fill="none" xmlns="http://www.w3.org/2000/svg">
<path fill-rule="evenodd" clip-rule="evenodd" d="M13.4319 13.0507H79.5681C80.1204 13.0507 80.5681 13.4984 80.5681 14.0507V79.7108L47.8771 77.5728V81.4071H45.123V77.5728L12.4319 79.7108V14.0507C12.4319 13.4984 12.8796 13.0507 13.4319 13.0507ZM10.4319 14.0507C10.4319 12.3938 11.775 11.0507 13.4319 11.0507H79.5681C81.225 11.0507 82.5681 12.3938 82.5681 14.0507V80.1869C82.5681 81.8437 81.225 83.1869 79.5681 83.1869H13.4319C11.775 83.1869 10.4319 81.8437 10.4319 80.1869V14.0507Z" fill="currentColor"/>
<g opacity="0.4">
<path d="M59.6325 46.2204C59.4964 46.2204 59.2242 46.0843 59.2242 45.8121C59.2242 45.6761 59.4964 45.4039 59.6325 45.4039C60.1769 45.4039 60.449 44.9956 60.449 44.5873C60.449 44.3152 60.7212 44.1791 60.9934 44.1791C61.1295 44.1791 61.4017 44.3152 61.4017 44.5873C61.4017 45.54 60.5851 46.2204 59.6325 46.2204V46.2204Z" fill="currentColor"/>
<path d="M33.6395 48.3976H32.5508V49.7585H33.6395C34.1838 49.7585 34.456 49.4863 34.456 49.078C34.456 48.5337 34.0477 48.3976 33.6395 48.3976ZM33.5034 46.2202H32.5508V47.5811H33.5034C34.0478 47.5811 34.3199 47.3089 34.3199 46.9006C34.3199 46.4923 34.0478 46.2202 33.5034 46.2202ZM33.7756 50.575H31.5981V45.4036H33.6395C34.7282 45.4036 35.4086 45.948 35.4086 46.7645C35.4086 47.445 35.0004 47.7171 34.456 47.9893C35.0004 47.9893 35.4086 48.5337 35.4086 49.2141C35.4086 50.0307 34.8643 50.575 33.7756 50.575V50.575Z" fill="currentColor"/>
<path d="M43.9823 48.3976H43.0297V49.7585H44.1184C44.5266 49.7585 44.7988 49.4863 44.7988 49.078C44.7988 48.5337 44.5266 48.3976 43.9823 48.3976ZM43.9823 46.2202H43.0297V47.5811H43.9823C44.3906 47.5811 44.6627 47.3089 44.6627 46.9006C44.6627 46.4923 44.3906 46.2202 43.9823 46.2202ZM44.2545 50.575H42.077V45.4036H44.1184C45.2071 45.4036 45.7514 45.948 45.7514 46.7645C45.7514 47.445 45.3432 47.7171 44.9349 47.9893C45.4793 47.9893 45.8875 48.5337 45.8875 49.2141C45.8875 50.0307 45.2071 50.575 44.2545 50.575V50.575Z" fill="currentColor"/>
<path d="M49.0176 45.4036C50.1063 45.4036 51.0589 45.948 51.4672 47.0367H50.2424C49.9702 46.4923 49.5619 46.3563 49.0176 46.3563C48.201 46.3563 47.5206 46.9006 47.5206 47.9893C47.5206 49.078 48.201 49.6224 49.0176 49.6224C49.5619 49.6224 49.9702 49.4863 50.2424 48.942H51.4672C51.0589 50.0307 50.1063 50.575 49.0176 50.575C47.5206 50.575 46.4319 49.4863 46.4319 47.9893C46.4319 46.4923 47.5206 45.4036 49.0176 45.4036Z" fill="currentColor"/>
<path d="M54.4612 46.6284L53.6447 48.8059H55.1416L54.4612 46.6284V46.6284ZM55.4138 49.6224H53.3725L53.1003 50.575H52.0116L53.7808 45.4036H55.0056L56.9108 50.575H55.8221L55.4138 49.6224V49.6224Z" fill="currentColor"/>
<path d="M57.3191 45.4036H59.6326V46.2202V50.575H58.68V46.2202H57.3191V45.4036Z" fill="currentColor"/>
<path d="M38.6749 49.6227C38.1305 49.6227 37.7223 49.4866 37.4501 49.0783L36.7697 49.8948C37.1779 50.3031 37.8584 50.5753 38.6749 50.5753C39.3553 50.5753 40.0358 50.3031 40.5802 49.8948L39.8997 49.0783C39.6275 49.4866 39.0832 49.6227 38.6749 49.6227Z" fill="currentColor"/>
<path d="M40.8522 46.6291L40.9883 45.1321L39.7635 45.6765C39.4913 45.5404 39.0831 45.4043 38.6748 45.4043C38.2665 45.4043 37.8583 45.4043 37.45 45.6765L36.2252 45.1321L36.3613 46.6291C36.2252 47.0374 36.0891 47.4457 36.0891 47.99C36.0891 48.1261 36.0891 48.2622 36.0891 48.3983L37.0417 48.2622C37.0417 48.1261 37.0417 48.1261 37.0417 47.99C37.0417 46.9013 37.7222 46.3569 38.6748 46.3569C39.6274 46.3569 40.1718 46.9013 40.1718 47.99C40.1718 48.1261 40.1718 48.1261 40.1718 48.2622L41.2605 48.3983C41.2605 48.2622 41.2605 48.1261 41.2605 47.99C41.2605 47.4457 41.1244 47.0374 40.8522 46.6291Z" fill="currentColor"/>
<path d="M40.1718 48.6699L41.1244 49.0781C41.1244 48.9421 41.1244 48.806 41.1244 48.5338L40.1718 48.3977C40.1718 48.5338 40.1718 48.5338 40.1718 48.6699Z" fill="currentColor"/>
<path d="M39.8995 48.942L40.7161 49.6224C40.7161 49.4864 40.8522 49.3503 40.9883 49.2142L40.0356 48.8059C40.0356 48.8059 40.0356 48.942 39.8995 48.942V48.942Z" fill="currentColor"/>
<path d="M37.1778 48.3977L36.0891 48.5338C36.0891 48.806 36.2252 48.9421 36.2252 49.0781L37.1778 48.6699C37.1778 48.5338 37.1778 48.5338 37.1778 48.3977Z" fill="currentColor"/>
<path d="M37.1779 48.8059L36.3613 49.2142C36.3613 49.3503 36.4974 49.4864 36.6335 49.6224L37.314 48.942C37.314 48.942 37.314 48.8059 37.1779 48.8059V48.8059Z" fill="currentColor"/>
</g>
</svg>
