<svg width="101" height="89" viewBox="0 0 101 89" fill="none" xmlns="http://www.w3.org/2000/svg">
<path d="M11.9064 88.4871C3.39767 88.4871 -1.88941 79.2406 2.42634 71.9077L40.9728 6.41286C45.2265 -0.814633 55.6791 -0.814618 59.9328 6.41288L98.4792 71.9077C102.795 79.2407 97.5079 88.4871 88.9992 88.4871H11.9064ZM50.4528 77.4928C52.6403 77.4928 54.5011 76.7257 56.0352 75.1916C57.5977 73.6291 58.3789 71.7541 58.3789 69.5666C58.3789 67.3791 57.5977 65.5183 56.0352 63.9842C54.5011 62.4217 52.6403 61.6405 50.4528 61.6405C48.2653 61.6405 46.3903 62.4217 44.8278 63.9842C43.2937 65.5183 42.5266 67.3791 42.5266 69.5666C42.5266 71.7541 43.2937 73.6291 44.8278 75.1916C46.3903 76.7257 48.2653 77.4928 50.4528 77.4928ZM45.2539 52.0098H55.6516L56.4187 23.0325H44.4869L45.2539 52.0098Z" fill="currentColor"/>
</svg>
