<svg width="88" height="110" viewBox="0 0 88 110" fill="none" xmlns="http://www.w3.org/2000/svg">
<path opacity="0.2" d="M55.9429 14.1467C58.1124 12.8907 60.788 12.8907 62.9574 14.1467L84.4575 26.5941C86.6192 27.8456 87.9502 30.1542 87.9502 32.6521V57.5803C87.9502 60.0782 86.6192 62.3868 84.4574 63.6383L62.9574 76.0857C60.788 77.3417 58.1124 77.3417 55.9429 76.0857L34.4429 63.6383C32.2812 62.3868 30.9502 60.0782 30.9502 57.5803V32.6521C30.9502 30.1542 32.2812 27.8456 34.4429 26.5941L55.9429 14.1467Z" fill="currentColor"/>
<path d="M57.3704 32.3822C58.6479 31.6046 60.2525 31.6046 61.53 32.3822L69.03 36.9474C70.2224 37.6732 70.9502 38.9682 70.9502 40.3642V49.8682C70.9502 51.2642 70.2224 52.5592 69.03 53.285L61.53 57.8503C60.2525 58.6279 58.6479 58.6279 57.3704 57.8503L49.8704 53.285C48.678 52.5592 47.9502 51.2642 47.9502 49.8682V40.3642C47.9502 38.9682 48.678 37.6732 49.8704 36.9474L57.3704 32.3822Z" fill="currentColor"/>
<path opacity="0.4" fill-rule="evenodd" clip-rule="evenodd" d="M9.83012 0.535898C11.0677 -0.178633 12.5925 -0.178633 13.8301 0.535898L21.6602 5.05662C22.8978 5.77115 23.6602 7.09166 23.6602 8.52072V17.5622C23.6602 18.121 23.5437 18.6631 23.3277 19.159L26.2294 21.0698L24.9228 23.054L21.8789 21.0495L22.0757 20.7506C21.9441 20.8503 21.8054 20.9424 21.6602 21.0263L13.8301 25.547C12.5925 26.2615 11.0677 26.2615 9.83012 25.547L2 21.0263C0.762395 20.3117 0 18.9912 0 17.5622V8.52072C0 7.09166 0.762396 5.77115 2 5.05662L9.83012 0.535898ZM21.7086 83.6852C22.9462 82.9707 24.471 82.9707 25.7086 83.6852L30.5826 86.4992L29.9499 86.0483L31.9956 83.1777L33.9303 84.5564L31.9735 87.3023L33.5387 88.2059C34.7763 88.9205 35.5387 90.241 35.5387 91.67V100.711C35.5387 102.141 34.7763 103.461 33.5387 104.176L25.7086 108.696C24.471 109.411 22.9462 109.411 21.7086 108.696L13.8785 104.176C12.6409 103.461 11.8785 102.141 11.8785 100.711V91.67C11.8785 90.241 12.6409 88.9205 13.8785 88.2059L21.7086 83.6852ZM27.9666 25.0585L31.0105 27.0629L32.3171 25.0788L29.2732 23.0743L27.9666 25.0585ZM34.0543 29.0674L37.0982 31.0719L38.4048 29.0878L35.3609 27.0833L34.0543 29.0674ZM40.142 33.0764L43.1859 35.0809L44.4925 33.0968L41.4486 31.0923L40.142 33.0764ZM46.2298 37.0854L49.2736 39.0899L50.5802 37.1058L47.5364 35.1013L46.2298 37.0854ZM52.3175 41.0944L55.3613 43.0989L56.6679 41.1148L53.6241 39.1103L52.3175 41.0944ZM58.4052 45.1034L58.8979 45.4278L58.5902 45.8595L60.5249 47.2382L62.263 44.7993L59.7118 43.1193L58.4052 45.1034ZM56.5445 48.7301L54.4987 51.6008L56.4334 52.9795L58.4792 50.1089L56.5445 48.7301ZM52.453 54.4714L50.4073 57.342L52.342 58.7208L54.3877 55.8501L52.453 54.4714ZM48.3615 60.2127L46.3158 63.0833L48.2505 64.462L50.2962 61.5914L48.3615 60.2127ZM44.2701 65.9539L42.2243 68.8246L44.159 70.2033L46.2047 67.3327L44.2701 65.9539ZM40.1786 71.6952L38.1329 74.5658L40.0675 75.9445L42.1133 73.0739L40.1786 71.6952ZM36.0871 77.4364L34.0414 80.3071L35.9761 81.6858L38.0218 78.8152L36.0871 77.4364Z" fill="currentColor" fill-opacity="0.3"/>
</svg>
