<svg width="38" height="33" viewBox="0 0 38 33" fill="none" xmlns="http://www.w3.org/2000/svg">
<path d="M12.2288 12.7296C15.9415 10.5862 21.9611 10.5862 25.6738 12.7296L34.7437 17.9657C38.4565 20.109 38.4565 23.5841 34.7437 25.7275L25.6738 30.9636C21.9611 33.1069 15.9415 33.1069 12.2288 30.9636L3.15883 25.7275C-0.55392 23.5841 -0.553918 20.109 3.15883 17.9657L12.2288 12.7296Z" fill="#D4D7F5"/>
<path d="M12.2288 2.00523C15.9415 -0.138138 21.9611 -0.138136 25.6738 2.00523L34.7437 7.24131C38.4565 9.38467 38.4565 12.8598 34.7437 15.0031L25.6738 20.2392C21.9611 22.3826 15.9415 22.3826 12.2288 20.2392L3.15883 15.0031C-0.55392 12.8598 -0.553918 9.38467 3.15883 7.2413L12.2288 2.00523Z" fill="currentColor"/>
</svg>
