<svg width="37" height="22" viewBox="0 0 37 22" fill="none" xmlns="http://www.w3.org/2000/svg">
<path fill-rule="evenodd" clip-rule="evenodd" d="M1.58409 12.7805C0.738571 11.6254 0.738571 10.0617 1.58409 8.90659C5.4972 3.5609 11.8188 0.0892334 18.9512 0.0892334C26.0836 0.0892334 32.4052 3.5609 36.3183 8.90659C37.1638 10.0617 37.1638 11.6254 36.3183 12.7805C32.4052 18.1262 26.0836 21.5979 18.9512 21.5979C11.8188 21.5979 5.4972 18.1262 1.58409 12.7805ZM26.4621 10.8436C26.4621 14.9917 23.0995 18.3543 18.9514 18.3543C14.8033 18.3543 11.4406 14.9917 11.4406 10.8436C11.4406 6.69551 14.8033 3.33282 18.9514 3.33282C23.0995 3.33282 26.4621 6.69551 26.4621 10.8436ZM18.9512 14.5064C20.9742 14.5064 22.6141 12.8665 22.6141 10.8436C22.6141 8.8206 20.9742 7.18066 18.9512 7.18066C16.9283 7.18066 15.2883 8.8206 15.2883 10.8436C15.2883 12.8665 16.9283 14.5064 18.9512 14.5064Z" fill="currentColor"/>
</svg>
