<svg width="73" height="108" viewBox="0 0 73 108" fill="none" xmlns="http://www.w3.org/2000/svg">
<path opacity="0.2" d="M33.5321 27.9778C35.6816 26.7519 38.3184 26.7519 40.4679 27.9778L65.4679 42.2356C67.6518 43.4811 69 45.8021 69 48.3162V76.6838C69 79.1979 67.6518 81.5189 65.4679 82.7644L40.4678 97.0222C38.3184 98.2481 35.6816 98.2481 33.5321 97.0222L8.53214 82.7644C6.34824 81.5189 5 79.1979 5 76.6838V48.3162C5 45.8021 6.34824 43.4811 8.53214 42.2356L33.5321 27.9778Z" fill="currentColor"/>
<path d="M35.0061 51.1465C36.2406 50.4367 37.7594 50.4367 38.9939 51.1465L44.9939 54.5965C46.2349 55.3101 47 56.6325 47 58.0641V64.9359C47 66.3675 46.2349 67.6899 44.9939 68.4035L38.9939 71.8535C37.7594 72.5634 36.2406 72.5633 35.0061 71.8535L29.0061 68.4035C27.7651 67.6899 27 66.3675 27 64.9359V58.0641C27 56.6325 27.7651 55.3101 29.0061 54.5965L35.0061 51.1465Z" fill="currentColor"/>
<path d="M52.4903 32.2758C52.1858 32.1045 51.8142 32.1045 51.5097 32.2758L48.5097 33.9633C48.1949 34.1404 48 34.4736 48 34.8348V38.1652C48 38.5264 48.1949 38.8596 48.5097 39.0367L51.5097 40.7242C51.8142 40.8955 52.1858 40.8955 52.4903 40.7242L55.4903 39.0367C55.8051 38.8596 56 38.5264 56 38.1652V34.8348C56 34.4736 55.8051 34.1404 55.4903 33.9633L52.4903 32.2758Z" fill="currentColor"/>
<path opacity="0.4" d="M10.4903 16.2758C10.1858 16.1045 9.81415 16.1045 9.50974 16.2758L6.50974 17.9633C6.19486 18.1404 6 18.4736 6 18.8348V22.1652C6 22.5264 6.19486 22.8596 6.50974 23.0367L9.50974 24.7242C9.81415 24.8955 10.1858 24.8955 10.4903 24.7242L13.4903 23.0367C13.8051 22.8596 14 22.5264 14 22.1652V18.8348C14 18.4736 13.8051 18.1404 13.4903 17.9633L10.4903 16.2758Z" fill="currentColor"/>
<path d="M58.4903 89.2758C58.1858 89.1045 57.8142 89.1045 57.5097 89.2758L54.5097 90.9633C54.1949 91.1404 54 91.4736 54 91.8348V95.1652C54 95.5264 54.1949 95.8596 54.5097 96.0367L57.5097 97.7242C57.8142 97.8955 58.1858 97.8955 58.4903 97.7242L61.4903 96.0367C61.8051 95.8596 62 95.5264 62 95.1652V91.8348C62 91.4736 61.8051 91.1404 61.4903 90.9633L58.4903 89.2758Z" fill="currentColor"/>
<path opacity="0.79" d="M4.49026 55.2758C4.18585 55.1045 3.81415 55.1045 3.50974 55.2758L0.509739 56.9633C0.194862 57.1404 0 57.4736 0 57.8348V61.1652C0 61.5264 0.194861 61.8596 0.509738 62.0367L3.50974 63.7242C3.81415 63.8955 4.18585 63.8955 4.49026 63.7242L7.49026 62.0367C7.80514 61.8596 8 61.5264 8 61.1652V57.8348C8 57.4736 7.80514 57.1404 7.49026 56.9633L4.49026 55.2758Z" fill="currentColor"/>
<path opacity="0.4" d="M14.4903 99.2758C14.1858 99.1045 13.8142 99.1045 13.5097 99.2758L10.5097 100.963C10.1949 101.14 10 101.474 10 101.835V105.165C10 105.526 10.1949 105.86 10.5097 106.037L13.5097 107.724C13.8142 107.895 14.1858 107.895 14.4903 107.724L17.4903 106.037C17.8051 105.86 18 105.526 18 105.165V101.835C18 101.474 17.8051 101.14 17.4903 100.963L14.4903 99.2758Z" fill="currentColor"/>
<path opacity="0.6" d="M69.4903 64.2758C69.1858 64.1045 68.8142 64.1045 68.5097 64.2758L65.5097 65.9633C65.1949 66.1404 65 66.4736 65 66.8348V70.1652C65 70.5264 65.1949 70.8596 65.5097 71.0367L68.5097 72.7242C68.8142 72.8955 69.1858 72.8955 69.4903 72.7242L72.4903 71.0367C72.8051 70.8596 73 70.5264 73 70.1652V66.8348C73 66.4736 72.8051 66.1404 72.4903 65.9633L69.4903 64.2758Z" fill="currentColor"/>
<path opacity="0.6" d="M65.4903 0.275772C65.1858 0.104539 64.8142 0.104539 64.5097 0.275772L61.5097 1.96327C61.1949 2.14039 61 2.47357 61 2.83485V6.16515C61 6.52643 61.1949 6.85961 61.5097 7.03673L64.5097 8.72423C64.8142 8.89546 65.1858 8.89546 65.4903 8.72423L68.4903 7.03673C68.8051 6.85961 69 6.52643 69 6.16515V2.83485C69 2.47357 68.8051 2.14039 68.4903 1.96327L65.4903 0.275772Z" fill="currentColor"/>
</svg>
