<svg width="28" height="34" viewBox="0 0 28 34" fill="none" xmlns="http://www.w3.org/2000/svg">
<path fill-rule="evenodd" clip-rule="evenodd" d="M8.84109 1.55974C9.84017 0.560666 11.1952 -0.000610352 12.6081 -0.000610352H15.9355C17.3484 -0.000610352 18.7035 0.560666 19.7025 1.55974C20.2121 2.06933 20.6078 2.67153 20.8732 3.32677H22.5903C24.0032 3.32677 25.3582 3.88805 26.3573 4.88713C27.3564 5.8862 27.9177 7.24124 27.9177 8.65415V28.6184C27.9177 30.0314 27.3564 31.3864 26.3573 32.3855C25.3582 33.3845 24.0032 33.9458 22.5903 33.9458H5.95336C4.54045 33.9458 3.18541 33.3846 2.18633 32.3855C1.18725 31.3864 0.625977 30.0314 0.625977 28.6184V8.65415C0.625977 7.24124 1.18725 5.8862 2.18633 4.88713L3.60054 6.30134L2.18633 4.88713C3.18541 3.88805 4.54045 3.32677 5.95336 3.32677H7.67041C7.93582 2.67153 8.33151 2.06933 8.84109 1.55974ZM20.6771 18.3869C21.4582 17.6058 21.4582 16.3395 20.6771 15.5584C19.8961 14.7774 18.6297 14.7774 17.8487 15.5584L12.6081 20.799L10.695 18.8858C9.91393 18.1048 8.6476 18.1048 7.86655 18.8858C7.0855 19.6669 7.0855 20.9332 7.86655 21.7143L11.1939 25.0416C11.975 25.8227 13.2413 25.8227 14.0224 25.0416L20.6771 18.3869ZM9.88159 5.32672C9.88159 6.10296 10.19 6.84741 10.7388 7.3963C11.2877 7.94518 12.0322 8.25354 12.8084 8.25354H15.7352C16.5115 8.25354 17.2559 7.94518 17.8048 7.3963C18.3537 6.84741 18.6621 6.10296 18.6621 5.32672C18.6621 4.55048 18.3537 3.80603 17.8048 3.25715C17.2559 2.70826 16.5115 2.3999 15.7352 2.3999H12.8084C12.0322 2.3999 11.2877 2.70826 10.7388 3.25715C10.19 3.80603 9.88159 4.55048 9.88159 5.32672Z" fill="currentColor"/>
</svg>
