<svg width="28" height="30" viewBox="0 0 28 30" fill="none" xmlns="http://www.w3.org/2000/svg">
<path fill-rule="evenodd" clip-rule="evenodd" d="M14.0754 0.958496C15.34 0.958496 16.3652 1.98365 16.3652 3.24824V15.2955C16.3652 16.56 15.34 17.5852 14.0754 17.5852C12.8108 17.5852 11.7857 16.56 11.7857 15.2955L11.7857 3.24824C11.7857 1.98365 12.8108 0.958496 14.0754 0.958496ZM7.32643 5.43273C8.22063 6.32693 8.22063 7.77672 7.32643 8.67092C3.66774 12.3296 3.66774 18.2615 7.32643 21.9202C10.9851 25.5789 16.917 25.5789 20.5757 21.9202C24.2344 18.2615 24.2344 12.3296 20.5757 8.67092C19.6815 7.77672 19.6815 6.32693 20.5757 5.43273C21.4699 4.53853 22.9197 4.53853 23.8139 5.43273C29.261 10.8798 29.261 19.7113 23.8139 25.1584C18.3668 30.6054 9.53533 30.6055 4.08824 25.1584C-1.35884 19.7113 -1.35884 10.8798 4.08824 5.43273C4.98244 4.53853 6.43223 4.53853 7.32643 5.43273Z" fill="currentColor"/>
</svg>
