<svg width="29" height="29" viewBox="0 0 29 29" fill="none" xmlns="http://www.w3.org/2000/svg">
<path d="M28.49 2.63947C28.5881 2.34412 28.6022 2.02729 28.5305 1.72442C28.4589 1.42154 28.3044 1.14458 28.0843 0.92451C27.8642 0.704436 27.5873 0.549933 27.2844 0.478282C26.9815 0.406632 26.6647 0.42066 26.3693 0.518798L1.46208 8.82122C1.15317 8.92408 0.880886 9.11463 0.678429 9.36961C0.475973 9.62459 0.352099 9.93298 0.32192 10.2572C0.29174 10.5813 0.356561 10.9073 0.508471 11.1953C0.660382 11.4832 0.892817 11.7208 1.17742 11.8789L8.8026 16.1143C9.12135 16.2913 9.48908 16.3596 9.85011 16.3088C10.2111 16.2581 10.5458 16.0911 10.8035 15.8332L16.225 10.4117C16.5395 10.0972 16.9662 9.92044 17.411 9.92044C17.8559 9.92044 18.2825 10.0972 18.5971 10.4117C18.9116 10.7263 19.0884 11.1529 19.0884 11.5978C19.0884 12.0426 18.9116 12.4693 18.5971 12.7838L13.1756 18.2053C12.9177 18.463 12.7507 18.7977 12.7 19.1587C12.6493 19.5197 12.7175 19.8875 12.8945 20.2062L17.1311 27.8302C17.289 28.1149 17.5264 28.3474 17.8142 28.4995C18.102 28.6516 18.4279 28.7166 18.752 28.6867C19.0762 28.6568 19.3846 28.5332 19.6398 28.331C19.8949 28.1288 20.0856 27.8567 20.1888 27.5479L28.4912 2.64066L28.49 2.63947Z" fill="currentColor"/>
</svg>
