<svg width="34" height="33" viewBox="0 0 34 33" fill="none" xmlns="http://www.w3.org/2000/svg">
<path fill-rule="evenodd" clip-rule="evenodd" d="M12.0685 0.925021C11.7303 1.26328 11.5402 1.72206 11.5402 2.20043V4.00413H7.93283C6.97608 4.00413 6.05853 4.3842 5.38201 5.06072C4.70549 5.73724 4.32542 6.65479 4.32542 7.61154V11.2189H2.52172C2.04335 11.2189 1.58457 11.409 1.24631 11.7472C0.90805 12.0855 0.718018 12.5443 0.718018 13.0226C0.718018 13.501 0.90805 13.9598 1.24631 14.2981C1.58457 14.6363 2.04335 14.8263 2.52172 14.8263H4.32542V18.4338H2.52172C2.04335 18.4338 1.58457 18.6238 1.24631 18.962C0.90805 19.3003 0.718018 19.7591 0.718018 20.2375C0.718018 20.7158 0.90805 21.1746 1.24631 21.5129C1.58457 21.8511 2.04335 22.0412 2.52172 22.0412H4.32542V25.6486C4.32542 26.6053 4.70549 27.5229 5.38201 28.1994C6.05853 28.8759 6.97608 29.256 7.93283 29.256H11.5402V31.0597C11.5402 31.538 11.7303 31.9968 12.0685 32.3351C12.4068 32.6733 12.8656 32.8634 13.3439 32.8634C13.8223 32.8634 14.2811 32.6733 14.6193 32.3351C14.9576 31.9968 15.1476 31.538 15.1476 31.0597V29.256H18.755V31.0597C18.755 31.538 18.9451 31.9968 19.2833 32.3351C19.6216 32.6733 20.0804 32.8634 20.5587 32.8634C21.0371 32.8634 21.4959 32.6733 21.8342 32.3351C22.1724 31.9968 22.3624 31.538 22.3624 31.0597V29.256H25.9698C26.9266 29.256 27.8441 28.8759 28.5207 28.1994C29.1972 27.5229 29.5773 26.6053 29.5773 25.6486V22.0412H31.381C31.8593 22.0412 32.3181 21.8511 32.6564 21.5129C32.9946 21.1746 33.1847 20.7158 33.1847 20.2375C33.1847 19.7591 32.9946 19.3003 32.6564 18.962C32.3181 18.6238 31.8593 18.4338 31.381 18.4338H29.5773V14.8263H31.381C31.8593 14.8263 32.3181 14.6363 32.6564 14.2981C32.9946 13.9598 33.1847 13.501 33.1847 13.0226C33.1847 12.5443 32.9946 12.0855 32.6564 11.7472C32.3181 11.409 31.8593 11.2189 31.381 11.2189H29.5773V7.61154C29.5773 6.65479 29.1972 5.73724 28.5207 5.06072C27.8441 4.3842 26.9266 4.00413 25.9698 4.00413H22.3624V2.20043C22.3624 1.72206 22.1724 1.26328 21.8342 0.925021C21.4959 0.586761 21.0371 0.396729 20.5587 0.396729C20.0804 0.396729 19.6216 0.586761 19.2833 0.925021C18.9451 1.26328 18.755 1.72206 18.755 2.20043V4.00413H15.1476V2.20043C15.1476 1.72206 14.9576 1.26328 14.6193 0.925021C14.2811 0.586761 13.8223 0.396729 13.3439 0.396729C12.8656 0.396729 12.4068 0.586761 12.0685 0.925021ZM8.93283 7.61154C8.38054 7.61154 7.93283 8.05925 7.93283 8.61154V24.6486C7.93283 25.2008 8.38054 25.6486 8.93283 25.6486H24.9698C25.5221 25.6486 25.9698 25.2008 25.9698 24.6486V8.61154C25.9698 8.05925 25.5221 7.61154 24.9698 7.61154H8.93283ZM20.3625 11.2189C21.4671 11.2189 22.3625 12.1144 22.3625 13.2189V20.0411C22.3625 21.1457 21.4671 22.0411 20.3625 22.0411H13.5403C12.4358 22.0411 11.5403 21.1457 11.5403 20.0411V13.2189C11.5403 12.1144 12.4358 11.2189 13.5403 11.2189H20.3625Z" fill="currentColor"/>
</svg>
