<svg width="17" height="17" viewBox="0 0 17 17" fill="none" xmlns="http://www.w3.org/2000/svg">
<path fill-rule="evenodd" clip-rule="evenodd" d="M8.5 17C10.7543 17 12.9163 16.1045 14.5104 14.5104C16.1045 12.9163 17 10.7543 17 8.5C17 6.24566 16.1045 4.08365 14.5104 2.48959C12.9163 0.895533 10.7543 0 8.5 0C6.24566 0 4.08365 0.895533 2.48959 2.48959C0.895533 4.08365 0 6.24566 0 8.5C0 10.7543 0.895533 12.9163 2.48959 14.5104C4.08365 16.1045 6.24566 17 8.5 17ZM12.4387 7.12619C12.6322 6.9258 12.7393 6.65741 12.7369 6.37882C12.7345 6.10024 12.6227 5.83375 12.4257 5.63675C12.2287 5.43976 11.9623 5.32802 11.6837 5.3256C11.4051 5.32318 11.1367 5.43027 10.9363 5.62381L7.4375 9.12263L6.06369 7.74881C5.8633 7.55527 5.59491 7.44818 5.31632 7.4506C5.03774 7.45302 4.77125 7.56476 4.57425 7.76176C4.37726 7.95875 4.26552 8.22524 4.2631 8.50382C4.26067 8.78241 4.36777 9.0508 4.56131 9.25119L6.68631 11.3762C6.88556 11.5754 7.15576 11.6873 7.4375 11.6873C7.71924 11.6873 7.98944 11.5754 8.18869 11.3762L12.4387 7.12619Z" fill="currentColor"/>
</svg>
