<svg width="9" height="7" viewBox="0 0 9 7" fill="none" xmlns="http://www.w3.org/2000/svg">
<path fill-rule="evenodd" clip-rule="evenodd" d="M8.68323 1.98129C8.88879 1.7608 9.00253 1.46548 8.99996 1.15894C8.99739 0.85241 8.87871 0.559184 8.66948 0.342423C8.46025 0.125662 8.17722 0.0027079 7.88134 4.41948e-05C7.58546 -0.00261951 7.30041 0.11522 7.08758 0.328182L3.37153 4.17804L1.91243 2.66639C1.69959 2.45343 1.41454 2.33559 1.11866 2.33825C0.822781 2.34091 0.539748 2.46387 0.330521 2.68063C0.121294 2.89739 0.00261378 3.19062 4.26589e-05 3.49715C-0.00252846 3.80369 0.111215 4.099 0.316774 4.3195L2.57371 6.6577C2.78533 6.87688 3.0723 7 3.37153 7C3.67076 7 3.95774 6.87688 4.16936 6.6577L8.68323 1.98129Z" fill="currentColor"/>
</svg>
