<svg width="26" height="26" viewBox="0 0 26 26" fill="none" xmlns="http://www.w3.org/2000/svg">
<path fill-rule="evenodd" clip-rule="evenodd" d="M12.829 25.6275C16.1827 25.6275 19.399 24.2953 21.7704 21.9239C24.1418 19.5525 25.4741 16.3361 25.4741 12.9825C25.4741 9.62878 24.1418 6.41246 21.7704 4.04105C19.399 1.66965 16.1827 0.337402 12.829 0.337402C9.47534 0.337402 6.25902 1.66965 3.88761 4.04105C1.5162 6.41246 0.18396 9.62878 0.18396 12.9825C0.18396 16.3361 1.5162 19.5525 3.88761 21.9239C6.25902 24.2953 9.47534 25.6275 12.829 25.6275ZM18.6884 10.9387C18.9763 10.6406 19.1357 10.2413 19.1321 9.82688C19.1285 9.41245 18.9622 9.016 18.6692 8.72294C18.3761 8.42988 17.9797 8.26365 17.5652 8.26005C17.1508 8.25644 16.7515 8.41576 16.4534 8.70369L11.2484 13.9087L9.20463 11.865C8.90652 11.577 8.50725 11.4177 8.09281 11.4213C7.67837 11.4249 7.28193 11.5911 6.98887 11.8842C6.69581 12.1773 6.52957 12.5737 6.52597 12.9881C6.52237 13.4026 6.68169 13.8019 6.96961 14.1L10.1309 17.2612C10.4273 17.5576 10.8293 17.724 11.2484 17.724C11.6675 17.724 12.0695 17.5576 12.3659 17.2612L18.6884 10.9387Z" fill="currentColor"/>
</svg>
