<svg width="30" height="33" viewBox="0 0 30 33" fill="none" xmlns="http://www.w3.org/2000/svg">
<path fill-rule="evenodd" clip-rule="evenodd" d="M16.9512 1.2953C15.7136 0.580767 14.1888 0.580767 12.9512 1.2953L2.62598 7.25659C1.38837 7.97112 0.625977 9.29163 0.625977 10.7207V22.6433C0.625977 24.0723 1.38837 25.3929 2.62598 26.1074L12.9512 32.0687C14.1888 32.7832 15.7136 32.7832 16.9512 32.0687L27.2765 26.1074C28.5141 25.3929 29.2765 24.0723 29.2765 22.6433V10.7207C29.2765 9.29163 28.5141 7.97112 27.2765 7.25659L16.9512 1.2953ZM21.3566 14.7688C22.1376 13.9878 22.1376 12.7214 21.3566 11.9404C20.5755 11.1594 19.3092 11.1594 18.5281 11.9404L13.2876 17.181L11.3744 15.2678C10.5934 14.4867 9.32704 14.4867 8.54599 15.2678C7.76494 16.0488 7.76494 17.3152 8.54599 18.0962L11.8734 21.4236C12.6544 22.2046 13.9208 22.2046 14.7018 21.4236L21.3566 14.7688Z" fill="currentColor"/>
</svg>
