<svg width="116" height="92" viewBox="0 0 116 92" fill="none" xmlns="http://www.w3.org/2000/svg">
<path d="M21.9593 38.536C23.1969 37.8215 24.7217 37.8215 25.9593 38.536L31.9186 41.9766C33.1562 42.6912 33.9186 44.0117 33.9186 45.4407V52.3219C33.9186 53.751 33.1562 55.0715 31.9186 55.786L25.9593 59.2266C24.7217 59.9412 23.1969 59.9412 21.9593 59.2266L16 55.786C14.7624 55.0715 14 53.751 14 52.3219V45.4407C14 44.0117 14.7624 42.6912 16 41.9766L21.9593 38.536Z" fill="currentColor"/>
<path opacity="0.2" d="M20.5202 23.375C22.6757 22.14 25.3243 22.14 27.4798 23.375L44.4798 33.1146C46.657 34.3619 48 36.6792 48 39.1884V58.5743C48 61.0835 46.657 63.4008 44.4798 64.6481L27.4798 74.3877C25.3243 75.6226 22.6757 75.6226 20.5202 74.3877L3.52021 64.6481C1.34302 63.4008 0 61.0835 0 58.5743V39.1884C0 36.6792 1.34302 34.3619 3.52022 33.1146L20.5202 23.375Z" fill="currentColor"/>
<path opacity="0.4" fill-rule="evenodd" clip-rule="evenodd" d="M62.9593 0.535898C64.1969 -0.178633 65.7217 -0.178633 66.9593 0.535898L72.9186 3.9765C74.1562 4.69103 74.9186 6.01154 74.9186 7.4406V14.3218C74.9186 14.9033 74.7923 15.4669 74.5592 15.979L77.0814 17.64L75.9814 19.3103L73.4189 17.6228L73.699 17.1976C73.4668 17.4221 73.2054 17.6203 72.9186 17.7859L66.9593 21.2265C65.7217 21.941 64.1969 21.941 62.9593 21.2265L57 17.7859C55.7624 17.0714 55 15.7509 55 14.3218V7.4406C55 6.01154 55.7624 4.69103 57 3.9765L62.9593 0.535898ZM107.959 27.5359C106.722 26.8214 105.197 26.8214 103.959 27.5359L98 30.9765C97.7937 31.0956 97.6006 31.2316 97.422 31.3821L97.5814 31.14L95.0189 29.4525L93.9189 31.1228L96.3783 32.7424C96.1331 33.2653 96 33.8435 96 34.4406V41.3218C96 42.7509 96.7624 44.0714 98 44.7859L103.959 48.2265C105.197 48.941 106.722 48.941 107.959 48.2265L113.919 44.7859C115.156 44.0714 115.919 42.7509 115.919 41.3218V34.4406C115.919 33.0115 115.156 31.691 113.919 30.9765L107.959 27.5359ZM76.9593 70.5359C75.7217 69.8214 74.1969 69.8214 72.9593 70.5359L67 73.9765C65.7624 74.691 65 76.0115 65 77.4406V84.3218C65 85.7509 65.7624 87.0714 67 87.7859L72.9593 91.2265C74.1969 91.941 75.7217 91.941 76.9593 91.2265L82.9186 87.7859C84.1562 87.0714 84.9186 85.7509 84.9186 84.3218V77.4406C84.9186 76.0115 84.1562 74.691 82.9186 73.9765L81.9172 73.3983L83.5646 71.0868L81.9358 69.9261L80.2136 72.3427L80.7462 72.7223L76.9593 70.5359ZM78.5439 20.9978L81.1064 22.6853L82.2064 21.015L79.6439 19.3275L78.5439 20.9978ZM83.6689 24.3728L86.2314 26.0603L87.3314 24.39L84.7689 22.7025L83.6689 24.3728ZM88.7939 27.7478L91.3564 29.4353L92.4564 27.765L89.8939 26.0775L88.7939 27.7478ZM99.158 45.7594L97.4358 48.1761L99.0646 49.3368L100.787 46.9201L99.158 45.7594ZM95.7136 50.5927L93.9914 53.0094L95.6201 54.1701L97.3423 51.7534L95.7136 50.5927ZM92.2692 55.4261L90.5469 57.8427L92.1757 59.0034L93.8979 56.5868L92.2692 55.4261ZM88.8247 60.2594L87.1025 62.6761L88.7312 63.8368L90.4534 61.4201L88.8247 60.2594ZM85.3803 65.0927L83.658 67.5094L85.2868 68.6701L87.009 66.2534L85.3803 65.0927Z" fill="currentColor"/>
<path d="M64.9998 11.3808C45.4962 3.12973 30.682 19.168 25.6221 34.3813" stroke="currentColor"/>
<circle cx="65" cy="11.3813" r="2" fill="currentColor"/>
</svg>
