<svg width="143" height="143" viewBox="0 0 143 143" fill="none" xmlns="http://www.w3.org/2000/svg">
<path opacity="0.2" d="M20.5202 53.9936C22.6757 52.7587 25.3243 52.7587 27.4798 53.9936L44.4798 63.7332C46.657 64.9806 48 67.2978 48 69.807V89.193C48 91.7022 46.657 94.0194 44.4798 95.2668L27.4798 105.006C25.3243 106.241 22.6757 106.241 20.5202 105.006L3.52021 95.2668C1.34302 94.0194 0 91.7022 0 89.193V69.807C0 67.2978 1.34302 64.9806 3.52022 63.7332L20.5202 53.9936Z" fill="currentColor"/>
<path opacity="0.2" d="M106.52 89.9936C108.676 88.7587 111.324 88.7587 113.48 89.9936L130.48 99.7332C132.657 100.981 134 103.298 134 105.807V125.193C134 127.702 132.657 130.019 130.48 131.267L113.48 141.006C111.324 142.241 108.676 142.241 106.52 141.006L89.5202 131.267C87.343 130.019 86 127.702 86 125.193V105.807C86 103.298 87.343 100.981 89.5202 99.7332L106.52 89.9936Z" fill="currentColor"/>
<path opacity="0.2" d="M115.52 1.99362C117.676 0.758697 120.324 0.758699 122.48 1.99363L139.48 11.7332C141.657 12.9806 143 15.2978 143 17.807V37.193C143 39.7022 141.657 42.0194 139.48 43.2668L122.48 53.0064C120.324 54.2413 117.676 54.2413 115.52 53.0064L98.5202 43.2668C96.343 42.0194 95 39.7022 95 37.193V17.807C95 15.2978 96.343 12.9806 98.5202 11.7332L115.52 1.99362Z" fill="currentColor"/>
<path d="M86.9593 57.1547C88.1969 56.4402 89.7217 56.4402 90.9593 57.1547L96.9186 60.5953C98.1562 61.3098 98.9186 62.6303 98.9186 64.0594V70.9406C98.9186 72.3697 98.1562 73.6902 96.9186 74.4047L90.9593 77.8453C89.7217 78.5598 88.1969 78.5598 86.9593 77.8453L81 74.4047C79.7624 73.6902 79 72.3697 79 70.9406V64.0594C79 62.6303 79.7624 61.3098 81 60.5953L86.9593 57.1547Z" fill="currentColor"/>
<path opacity="0.2" d="M107.959 105.155C109.197 104.44 110.722 104.44 111.959 105.155L117.919 108.595C119.156 109.31 119.919 110.63 119.919 112.059V118.941C119.919 120.37 119.156 121.69 117.919 122.405L111.959 125.845C110.722 126.56 109.197 126.56 107.959 125.845L102 122.405C100.762 121.69 100 120.37 100 118.941V112.059C100 110.63 100.762 109.31 102 108.595L107.959 105.155Z" fill="currentColor"/>
<path opacity="0.2" d="M45.9593 29.1547C47.1969 28.4402 48.7217 28.4402 49.9593 29.1547L55.9186 32.5953C57.1562 33.3098 57.9186 34.6303 57.9186 36.0594V42.9406C57.9186 44.3697 57.1562 45.6902 55.9186 46.4047L49.9593 49.8453C48.7217 50.5598 47.1969 50.5598 45.9593 49.8453L40 46.4047C38.7624 45.6902 38 44.3697 38 42.9406V36.0594C38 34.6303 38.7624 33.3098 40 32.5953L45.9593 29.1547Z" fill="currentColor"/>
<path opacity="0.2" d="M116.959 17.1547C118.197 16.4402 119.722 16.4402 120.959 17.1547L126.919 20.5953C128.156 21.3098 128.919 22.6303 128.919 24.0594V30.9406C128.919 32.3697 128.156 33.6902 126.919 34.4047L120.959 37.8453C119.722 38.5598 118.197 38.5598 116.959 37.8453L111 34.4047C109.762 33.6902 109 32.3697 109 30.9406V24.0594C109 22.6303 109.762 21.3098 111 20.5953L116.959 17.1547Z" fill="currentColor"/>
<path opacity="0.2" d="M60.9593 119.155C62.1969 118.44 63.7217 118.44 64.9593 119.155L70.9186 122.595C72.1562 123.31 72.9186 124.63 72.9186 126.059V132.941C72.9186 134.37 72.1562 135.69 70.9186 136.405L64.9593 139.845C63.7217 140.56 62.1969 140.56 60.9593 139.845L55 136.405C53.7624 135.69 53 134.37 53 132.941V126.059C53 124.63 53.7624 123.31 55 122.595L60.9593 119.155Z" fill="currentColor"/>
<path opacity="0.2" d="M21.9593 69.1547C23.1969 68.4402 24.7217 68.4402 25.9593 69.1547L31.9186 72.5953C33.1562 73.3098 33.9186 74.6303 33.9186 76.0594V82.9406C33.9186 84.3697 33.1562 85.6902 31.9186 86.4047L25.9593 89.8453C24.7217 90.5598 23.1969 90.5598 21.9593 89.8453L16 86.4047C14.7624 85.6902 14 84.3697 14 82.9406V76.0594C14 74.6303 14.7624 73.3098 16 72.5953L21.9593 69.1547Z" fill="currentColor"/>
</svg>
