<svg width="53" height="53" viewBox="0 0 53 53" fill="none" xmlns="http://www.w3.org/2000/svg">
<rect x="0.741211" y="0.0402527" width="52.1519" height="52.1519" rx="12" fill="#232749"/>
<path d="M22.4838 15.0051H19.5949C18.8288 15.0051 18.094 15.3095 17.5522 15.8512C17.0104 16.393 16.7061 17.1278 16.7061 17.894V35.2273C16.7061 35.9935 17.0104 36.7283 17.5522 37.2701C18.094 37.8118 18.8288 38.1162 19.5949 38.1162H34.0394C34.8056 38.1162 35.5404 37.8118 36.0821 37.2701C36.6239 36.7283 36.9283 35.9935 36.9283 35.2273V17.894C36.9283 17.1278 36.6239 16.393 36.0821 15.8512C35.5404 15.3095 34.8056 15.0051 34.0394 15.0051H31.1505M22.4838 15.0051C22.4838 15.7713 22.7882 16.5061 23.33 17.0479C23.8717 17.5896 24.6065 17.894 25.3727 17.894H28.2616C29.0278 17.894 29.7626 17.5896 30.3044 17.0479C30.8461 16.5061 31.1505 15.7713 31.1505 15.0051M22.4838 15.0051C22.4838 14.2389 22.7882 13.5041 23.33 12.9623C23.8717 12.4206 24.6065 12.1162 25.3727 12.1162H28.2616C29.0278 12.1162 29.7626 12.4206 30.3044 12.9623C30.8461 13.5041 31.1505 14.2389 31.1505 15.0051M26.8172 25.1162H31.1505M26.8172 30.894H31.1505M22.4838 25.1162H22.4983M22.4838 30.894H22.4983" stroke="#474DFF" stroke-width="3" stroke-linecap="round" stroke-linejoin="round"/>
</svg>
