<?xml version="1.0" ?><!DOCTYPE svg  PUBLIC '-//W3C//DTD SVG 1.1//EN'  'http://www.w3.org/Graphics/SVG/1.1/DTD/svg11.dtd'><svg enable-background="new 0 0 26 26" id="Слой_1" version="1.1" viewBox="0 0 26 26" xml:space="preserve" xmlns="http://www.w3.org/2000/svg" xmlns:xlink="http://www.w3.org/1999/xlink"><path d="M14.0605469,13L24.7802734,2.2802734c0.2929688-0.2929688,0.2929688-0.7675781,0-1.0605469  s-0.7675781-0.2929688-1.0605469,0L13,11.9394531L2.2802734,1.2197266c-0.2929688-0.2929688-0.7675781-0.2929688-1.0605469,0  s-0.2929688,0.7675781,0,1.0605469L11.9394531,13L1.2197266,23.7197266c-0.2929688,0.2929688-0.2929688,0.7675781,0,1.0605469  C1.3662109,24.9267578,1.5576172,25,1.75,25s0.3837891-0.0732422,0.5302734-0.2197266L13,14.0605469l10.7197266,10.7197266  C23.8662109,24.9267578,24.0576172,25,24.25,25s0.3837891-0.0732422,0.5302734-0.2197266  c0.2929688-0.2929688,0.2929688-0.7675781,0-1.0605469L14.0605469,13z" fill="currentColor"/></svg>