<svg width="70" height="70" viewBox="0 0 70 70" fill="none" xmlns="http://www.w3.org/2000/svg">
<rect x="0.530273" y="0.572266" width="68.9388" height="68.9388" rx="12" fill="#232749"/>
<path d="M23.9507 49.85C21.753 49.8471 19.6399 49.002 18.0464 47.4885C16.4529 45.975 15.5001 43.9082 15.3841 41.7136C15.268 39.5189 15.9976 37.3633 17.4227 35.6902C18.8478 34.0171 20.8599 32.9539 23.0451 32.7193C22.4016 30.196 22.7869 27.5205 24.1162 25.2814C25.4454 23.0422 27.6097 21.4228 30.133 20.7793C32.6562 20.1359 35.3317 20.5212 37.5709 21.8504C39.8101 23.1797 41.4295 25.344 42.0729 27.8672C43.5736 27.6583 45.1012 27.7603 46.5607 28.167C48.0202 28.5738 49.3804 29.2764 50.5567 30.2314C51.733 31.1863 52.7003 32.373 53.3983 33.7178C54.0963 35.0626 54.5102 36.5365 54.6141 38.0481C54.7181 39.5597 54.5099 41.0764 54.0026 42.5041C53.4952 43.9317 52.6995 45.2397 51.665 46.3467C50.6305 47.4537 49.3793 48.3359 47.9892 48.9386C46.5991 49.5413 45.0999 49.8515 43.5847 49.85H23.9507Z" fill="#474DFF"/>
</svg>
