<svg width="21" height="21" viewBox="0 0 21 21" fill="none" xmlns="http://www.w3.org/2000/svg">
<path fill-rule="evenodd" clip-rule="evenodd" d="M12.1075 2.40442C11.6325 0.454387 8.85744 0.454387 8.38243 2.40442C8.31151 2.69744 8.17242 2.96958 7.97645 3.19869C7.78049 3.4278 7.53321 3.60741 7.25472 3.7229C6.97623 3.83839 6.67441 3.88649 6.37382 3.8633C6.07323 3.84011 5.78236 3.74628 5.52489 3.58944C3.80986 2.54442 1.84733 4.50695 2.89235 6.22198C3.56736 7.32949 2.9686 8.77452 1.70858 9.08077C-0.242703 9.55453 -0.242703 12.3308 1.70858 12.8033C2.00168 12.8743 2.27387 13.0136 2.50298 13.2097C2.73209 13.4058 2.91164 13.6532 3.02702 13.9319C3.1424 14.2105 3.19034 14.5125 3.16694 14.8131C3.14353 15.1138 3.04945 15.4047 2.89235 15.6621C1.84733 17.3771 3.80986 19.3397 5.52489 18.2947C5.78232 18.1376 6.07321 18.0435 6.37388 18.0201C6.67455 17.9967 6.9765 18.0446 7.25514 18.16C7.53378 18.2754 7.78123 18.4549 7.97734 18.684C8.17345 18.9131 8.31267 19.1853 8.38368 19.4784C8.85744 21.4297 11.6337 21.4297 12.1062 19.4784C12.1775 19.1855 12.3169 18.9135 12.513 18.6845C12.7092 18.4556 12.9566 18.2761 13.2351 18.1608C13.5137 18.0455 13.8155 17.9975 14.1161 18.0207C14.4167 18.044 14.7075 18.1378 14.965 18.2947C16.6801 19.3397 18.6426 17.3771 17.5976 15.6621C17.4408 15.4046 17.3469 15.1138 17.3236 14.8132C17.3004 14.5126 17.3484 14.2108 17.4637 13.9322C17.579 13.6537 17.7585 13.4062 17.9874 13.2101C18.2164 13.0139 18.4884 12.8746 18.7813 12.8033C20.7326 12.3296 20.7326 9.55328 18.7813 9.08077C18.4882 9.00976 18.2161 8.87054 17.9869 8.67443C17.7578 8.47831 17.5783 8.23087 17.4629 7.95223C17.3475 7.67359 17.2996 7.37164 17.323 7.07097C17.3464 6.7703 17.4405 6.47941 17.5976 6.22198C18.6426 4.50695 16.6801 2.54442 14.965 3.58944C14.7076 3.74654 14.4167 3.84062 14.116 3.86403C13.8154 3.88743 13.5134 3.83949 13.2348 3.72411C12.9561 3.60873 12.7087 3.42918 12.5126 3.20007C12.3165 2.97096 12.1772 2.69877 12.1062 2.40567L12.1075 2.40442ZM10.245 14.6921C11.2395 14.6921 12.1934 14.297 12.8967 13.5937C13.5999 12.8905 13.995 11.9366 13.995 10.9421C13.995 9.94747 13.5999 8.99363 12.8967 8.29036C12.1934 7.58709 11.2395 7.19199 10.245 7.19199C9.25038 7.19199 8.29654 7.58709 7.59327 8.29036C6.89 8.99363 6.4949 9.94747 6.4949 10.9421C6.4949 11.9366 6.89 12.8905 7.59327 13.5937C8.29654 14.297 9.25038 14.6921 10.245 14.6921Z" fill="currentColor"/>
</svg>
