<svg width="16" height="18" viewBox="0 0 16 18" fill="none" xmlns="http://www.w3.org/2000/svg">
<path d="M3.8824 11.7526C3.11474 11.7534 2.37375 11.471 1.8014 10.9594C1.22905 10.4478 0.865584 9.74306 0.78063 8.98012C0.695677 8.21717 0.895212 7.44971 1.34101 6.82476C1.78681 6.19981 2.44752 5.76131 3.19656 5.59328C2.97984 4.58252 3.17351 3.52707 3.73498 2.65911C4.29644 1.79115 5.17971 1.18178 6.19047 0.965055C7.20123 0.748331 8.25668 0.942006 9.12464 1.50347C9.9926 2.06494 10.602 2.94821 10.8187 3.95896H10.8966C11.863 3.95799 12.7953 4.31613 13.5124 4.96385C14.2296 5.61157 14.6805 6.50266 14.7776 7.46414C14.8747 8.42561 14.6111 9.38888 14.038 10.1669C13.4648 10.945 12.623 11.4823 11.676 11.6746M5.44111 14.0906L7.77919 16.4287M7.77919 16.4287L10.1173 14.0906M7.77919 16.4287V7.0764" stroke="#A667F6" stroke-width="1.5" stroke-linecap="round" stroke-linejoin="round"/>
</svg>
