<svg width="17" height="19" viewBox="0 0 17 19" fill="none" xmlns="http://www.w3.org/2000/svg">
<path d="M5.20124 3.02128H3.38981C2.90938 3.02128 2.44864 3.21212 2.10893 3.55183C1.76922 3.89154 1.57837 4.35229 1.57837 4.83271V15.7013C1.57837 16.1818 1.76922 16.6425 2.10893 16.9822C2.44864 17.3219 2.90938 17.5128 3.38981 17.5128H12.447C12.9274 17.5128 13.3882 17.3219 13.7279 16.9822C14.0676 16.6425 14.2584 16.1818 14.2584 15.7013V14.7956M5.20124 3.02128C5.20124 3.5017 5.39209 3.96245 5.7318 4.30216C6.07151 4.64187 6.53226 4.83271 7.01268 4.83271H8.82412C9.30454 4.83271 9.76529 4.64187 10.105 4.30216C10.4447 3.96245 10.6356 3.5017 10.6356 3.02128M5.20124 3.02128C5.20124 2.54085 5.39209 2.08011 5.7318 1.7404C6.07151 1.40069 6.53226 1.20984 7.01268 1.20984H8.82412C9.30454 1.20984 9.76529 1.40069 10.105 1.7404C10.4447 2.08011 10.6356 2.54085 10.6356 3.02128M10.6356 3.02128H12.447C12.9274 3.02128 13.3882 3.21212 13.7279 3.55183C14.0676 3.89154 14.2584 4.35229 14.2584 4.83271V7.54987M16.0699 11.1727H7.01268M7.01268 11.1727L9.72984 8.45559M7.01268 11.1727L9.72984 13.8899" stroke="#161B3D" stroke-width="1.5" stroke-linecap="round" stroke-linejoin="round"/>
</svg>
