<svg width="28" height="28" viewBox="0 0 28 28" fill="none" xmlns="http://www.w3.org/2000/svg">
<path fill-rule="evenodd" clip-rule="evenodd" d="M1.06563 1.67013C1.63039 1.10537 2.39637 0.788086 3.19507 0.788086H6.21801C7.0167 0.788086 7.78268 1.10537 8.34744 1.67013C8.9122 2.23489 9.22948 3.00086 9.22948 3.79956V6.8225C9.22948 7.62119 8.9122 8.38717 8.34744 8.95193C7.78268 9.51669 7.0167 9.83397 6.21801 9.83397H3.19507C2.39637 9.83397 1.63039 9.51669 1.06563 8.95193C0.500874 8.38717 0.183594 7.62119 0.183594 6.8225V3.79956C0.183594 3.00086 0.500874 2.23489 1.06563 1.67013ZM3.19507 3.78809C3.19202 3.78809 3.18911 3.78929 3.18695 3.79145C3.1848 3.7936 3.18359 3.79652 3.18359 3.79956V6.8225C3.18359 6.82554 3.1848 6.82846 3.18695 6.83061C3.18911 6.83276 3.19202 6.83397 3.19507 6.83397H6.21801C6.22105 6.83397 6.22397 6.83276 6.22612 6.83061C6.22827 6.82846 6.22948 6.82554 6.22948 6.8225V3.79956C6.22948 3.79652 6.22827 3.7936 6.22612 3.79145C6.22397 3.78929 6.22105 3.78809 6.21801 3.78809H3.19507ZM13.7754 0.788086C14.6038 0.788086 15.2754 1.45966 15.2754 2.28809V3.79956C15.2754 4.62798 14.6038 5.29956 13.7754 5.29956C12.9469 5.29956 12.2754 4.62798 12.2754 3.79956V2.28809C12.2754 1.45966 12.9469 0.788086 13.7754 0.788086ZM19.2033 1.67013C19.768 1.10537 20.534 0.788086 21.3327 0.788086H24.3557C25.1544 0.788086 25.9203 1.10537 26.4851 1.67013C27.0499 2.23489 27.3671 3.00087 27.3671 3.79956V6.8225C27.3671 7.62119 27.0499 8.38717 26.4851 8.95193C25.9203 9.51669 25.1544 9.83397 24.3557 9.83397H21.3327C20.534 9.83397 19.768 9.51669 19.2033 8.95193C18.6385 8.38717 18.3213 7.62119 18.3213 6.8225V3.79956C18.3213 3.00087 18.6385 2.23489 19.2033 1.67013ZM21.3327 3.78809C21.3297 3.78809 21.3268 3.7893 21.3246 3.79145C21.3225 3.7936 21.3213 3.79651 21.3213 3.79956V6.8225C21.3213 6.82555 21.3225 6.82846 21.3246 6.83061C21.3268 6.83276 21.3297 6.83397 21.3327 6.83397H24.3557C24.3587 6.83397 24.3616 6.83276 24.3638 6.83061C24.3659 6.82846 24.3671 6.82555 24.3671 6.8225V3.79956C24.3671 3.79651 24.3659 3.7936 24.3638 3.79145C24.3616 3.7893 24.3587 3.78809 24.3557 3.78809H21.3327ZM13.7754 8.34544C14.6038 8.34544 15.2754 9.01702 15.2754 9.84544V12.8799H19.8364C20.6648 12.8799 21.3364 13.5514 21.3364 14.3799C21.3364 15.2083 20.6648 15.8799 19.8364 15.8799H13.7754C12.9469 15.8799 12.2754 15.2083 12.2754 14.3799V9.84544C12.2754 9.01702 12.9469 8.34544 13.7754 8.34544ZM0.183594 14.3799C0.183594 13.5514 0.855167 12.8799 1.68359 12.8799H7.72948C8.55791 12.8799 9.22948 13.5514 9.22948 14.3799C9.22948 15.2083 8.55791 15.8799 7.72948 15.8799H1.68359C0.855167 15.8799 0.183594 15.2083 0.183594 14.3799ZM24.3671 14.3799C24.3671 13.5514 25.0387 12.8799 25.8671 12.8799H25.8823C26.7107 12.8799 27.3823 13.5514 27.3823 14.3799C27.3823 15.2083 26.7107 15.8799 25.8823 15.8799H25.8671C25.0387 15.8799 24.3671 15.2083 24.3671 14.3799ZM1.06563 19.8078C1.6304 19.243 2.39638 18.9257 3.19507 18.9257H6.21801C7.0167 18.9257 7.78268 19.243 8.34744 19.8078C8.9122 20.3725 9.22948 21.1385 9.22948 21.9372V24.9602C9.22948 25.7588 8.9122 26.5248 8.34744 27.0896C7.78268 27.6544 7.0167 27.9716 6.21801 27.9716H3.19507C2.39638 27.9716 1.6304 27.6544 1.06563 27.0896C0.500873 26.5248 0.183594 25.7588 0.183594 24.9602V21.9372C0.183594 21.1385 0.500873 20.3725 1.06563 19.8078ZM3.19507 21.9257C3.19202 21.9257 3.1891 21.927 3.18695 21.9291C3.1848 21.9313 3.18359 21.9342 3.18359 21.9372V24.9602C3.18359 24.9632 3.1848 24.9661 3.18695 24.9683C3.1891 24.9704 3.19202 24.9716 3.19507 24.9716H6.21801C6.22105 24.9716 6.22397 24.9704 6.22612 24.9683C6.22827 24.9661 6.22948 24.9632 6.22948 24.9602V21.9372C6.22948 21.9342 6.22827 21.9313 6.22612 21.9291C6.22397 21.927 6.22105 21.9257 6.21801 21.9257H3.19507ZM12.2754 20.4257C12.2754 19.5973 12.9469 18.9257 13.7754 18.9257H16.7983C17.6267 18.9257 18.2983 19.5973 18.2983 20.4257C18.2983 21.2542 17.6267 21.9257 16.7983 21.9257H15.2754V26.4716C15.2754 27.3001 14.6038 27.9716 13.7754 27.9716C12.9469 27.9716 12.2754 27.3001 12.2754 26.4716V20.4257ZM21.3442 20.4257C21.3442 19.5973 22.0158 18.9257 22.8442 18.9257H25.8671C26.6956 18.9257 27.3671 19.5973 27.3671 20.4257C27.3671 21.2542 26.6956 21.9257 25.8671 21.9257H22.8442C22.0158 21.9257 21.3442 21.2542 21.3442 20.4257ZM18.3213 26.4716C18.3213 25.6432 18.9928 24.9716 19.8213 24.9716H25.8671C26.6956 24.9716 27.3671 25.6432 27.3671 26.4716C27.3671 27.3001 26.6956 27.9716 25.8671 27.9716H19.8213C18.9928 27.9716 18.3213 27.3001 18.3213 26.4716Z" fill="#A3A3CA"/>
</svg>
