<svg width="10" height="12" viewBox="0 0 10 12" fill="none" xmlns="http://www.w3.org/2000/svg">
<path d="M0.811523 3.52124V8.52123C0.811523 9.62623 2.60252 10.5212 4.81152 10.5212C7.02052 10.5212 8.81152 9.62623 8.81152 8.52123V3.52124M0.811523 3.52124C0.811523 4.62624 2.60252 5.52124 4.81152 5.52124C7.02052 5.52124 8.81152 4.62624 8.81152 3.52124M0.811523 3.52124C0.811523 2.41624 2.60252 1.52124 4.81152 1.52124C7.02052 1.52124 8.81152 2.41624 8.81152 3.52124M8.81152 6.02124C8.81152 7.12624 7.02052 8.02123 4.81152 8.02123C2.60252 8.02123 0.811523 7.12624 0.811523 6.02124" stroke="#667394" stroke-width="1.5" stroke-linecap="round" stroke-linejoin="round"/>
</svg>
