<svg width="57" height="57" viewBox="0 0 57 57" fill="none" xmlns="http://www.w3.org/2000/svg">
<rect x="0.463013" y="0.931091" width="55.89" height="55.8894" rx="10" fill="#FF4949"/>
<path fill-rule="evenodd" clip-rule="evenodd" d="M36.9493 17.5732H19.8668C17.6576 17.5732 15.8668 19.364 15.8668 21.5732V56.8817H40.9493V21.5732C40.9493 19.364 39.1584 17.5732 36.9493 17.5732ZM19.8668 15.5732C16.5531 15.5732 13.8668 18.2595 13.8668 21.5732L13.8668 56.8817H42.9493V21.5732C42.9493 18.2595 40.263 15.5732 36.9493 15.5732H19.8668Z" fill="white"/>
<path d="M23.0208 16.8232H33.7952V17.7239C33.7952 18.8285 32.8998 19.7239 31.7952 19.7239H25.0208C23.9162 19.7239 23.0208 18.8285 23.0208 17.7239V16.8232Z" fill="white"/>
<path fill-rule="evenodd" clip-rule="evenodd" d="M23.408 35.2275V33.2275C23.408 31.9014 23.9348 30.6296 24.8725 29.6919C25.8102 28.7543 27.0819 28.2275 28.408 28.2275C29.7341 28.2275 31.0059 28.7543 31.9436 29.6919C32.8812 30.6296 33.408 31.9014 33.408 33.2275V35.2275C33.9385 35.2275 34.4472 35.4382 34.8222 35.8133C35.1973 36.1883 35.408 36.697 35.408 37.2275V42.2275C35.408 42.7579 35.1973 43.2666 34.8222 43.6417C34.4472 44.0168 33.9385 44.2275 33.408 44.2275H23.408C22.8776 44.2275 22.3689 44.0168 21.9938 43.6417C21.6187 43.2666 21.408 42.7579 21.408 42.2275V37.2275C21.408 36.697 21.6187 36.1883 21.9938 35.8133C22.3689 35.4382 22.8776 35.2275 23.408 35.2275ZM31.408 33.2275V35.2275H25.408V33.2275C25.408 32.4318 25.7241 31.6688 26.2867 31.1062C26.8493 30.5435 27.6124 30.2275 28.408 30.2275C29.2037 30.2275 29.9667 30.5435 30.5293 31.1062C31.0919 31.6688 31.408 32.4318 31.408 33.2275Z" fill="white"/>
</svg>
