<svg width="46" height="47" viewBox="0 0 46 47" fill="none" xmlns="http://www.w3.org/2000/svg">
<path d="M45.97 22.1087C45.97 9.95845 36.1203 0.108704 23.97 0.108704H22C9.84974 0.108704 -6.28052e-06 9.95844 -6.28052e-06 22.1087V24.0733C-6.28052e-06 36.2236 9.84973 46.0733 22 46.0733H45.97V22.1087Z" fill="#A667F6"/>
<path fill-rule="evenodd" clip-rule="evenodd" d="M23.1479 37.6425C31.2953 37.6425 37.9 31.0377 37.9 22.8904C37.9 14.743 31.2953 8.13824 23.1479 8.13824C15.0005 8.13824 8.39579 14.743 8.39579 22.8904C8.39579 31.0377 15.0005 37.6425 23.1479 37.6425ZM23.1478 31.2374C28.8491 31.2374 33.4709 26.6156 33.4709 20.9143C33.4709 15.213 28.8491 10.5913 23.1478 10.5913C17.4466 10.5913 12.8248 15.213 12.8248 20.9143C12.8248 26.6156 17.4466 31.2374 23.1478 31.2374Z" fill="white"/>
<path opacity="0.57" fill-rule="evenodd" clip-rule="evenodd" d="M23.1478 31.2373C28.8491 31.2373 33.4709 26.6155 33.4709 20.9143C33.4709 15.213 28.8491 10.5912 23.1478 10.5912C17.4466 10.5912 12.8248 15.213 12.8248 20.9143C12.8248 26.6155 17.4466 31.2373 23.1478 31.2373ZM23.1478 24.5598C27.0051 24.5598 30.1321 21.4328 30.1321 17.5755C30.1321 13.7182 27.0051 10.5913 23.1478 10.5913C19.2905 10.5913 16.1636 13.7182 16.1636 17.5755C16.1636 21.4328 19.2905 24.5598 23.1478 24.5598Z" fill="white"/>
</svg>
