<svg width="17" height="21" viewBox="0 0 17 21" fill="none" xmlns="http://www.w3.org/2000/svg">
<path d="M5.25537 3.07606H3.25537C2.72494 3.07606 2.21623 3.29479 1.84116 3.68413C1.46608 4.07347 1.25537 4.60152 1.25537 5.15213V17.6085C1.25537 18.1591 1.46608 18.6872 1.84116 19.0765C2.21623 19.4658 2.72494 19.6846 3.25537 19.6846H13.2554C13.7858 19.6846 14.2945 19.4658 14.6696 19.0765C15.0447 18.6872 15.2554 18.1591 15.2554 17.6085V5.15213C15.2554 4.60152 15.0447 4.07347 14.6696 3.68413C14.2945 3.29479 13.7858 3.07606 13.2554 3.07606H11.2554M5.25537 3.07606C5.25537 3.62667 5.46609 4.15472 5.84116 4.54406C6.21623 4.9334 6.72494 5.15213 7.25537 5.15213H9.25537C9.7858 5.15213 10.2945 4.9334 10.6696 4.54406C11.0447 4.15472 11.2554 3.62667 11.2554 3.07606M5.25537 3.07606C5.25537 2.52546 5.46609 1.9974 5.84116 1.60806C6.21623 1.21873 6.72494 1 7.25537 1H9.25537C9.7858 1 10.2945 1.21873 10.6696 1.60806C11.0447 1.9974 11.2554 2.52546 11.2554 3.07606M8.25537 10.3423H11.2554M8.25537 14.4944H11.2554M5.25537 10.3423H5.26537M5.25537 14.4944H5.26537" stroke="#474DFF" stroke-width="1.5" stroke-linecap="round" stroke-linejoin="round"/>
</svg>
