<svg width="21" height="15" viewBox="0 0 21 15" fill="none" xmlns="http://www.w3.org/2000/svg">
<path fill-rule="evenodd" clip-rule="evenodd" d="M4.81095 1.87166C5.20148 1.48114 5.20148 0.847975 4.81096 0.457448C4.42044 0.0669216 3.78728 0.0669178 3.39675 0.45744C2.46815 1.38603 1.73154 2.48842 1.22899 3.70169C0.726435 4.91495 0.467773 6.21532 0.467773 7.52855C0.467773 8.84178 0.726435 10.1421 1.22899 11.3554C1.73154 12.5687 2.46815 13.6711 3.39675 14.5997C3.78728 14.9902 4.42044 14.9902 4.81096 14.5997C5.20148 14.2091 5.20148 13.576 4.81095 13.1854C4.06808 12.4426 3.47879 11.5607 3.07675 10.59C2.6747 9.61943 2.46777 8.57913 2.46777 7.52855C2.46777 6.47797 2.6747 5.43767 3.07675 4.46706C3.47879 3.49645 4.06807 2.61453 4.81095 1.87166ZM17.539 0.45744C17.1484 0.0669178 16.5153 0.0669216 16.1247 0.457448C15.7342 0.847975 15.7342 1.48114 16.1247 1.87166C16.8676 2.61453 17.4569 3.49645 17.859 4.46706C18.261 5.43767 18.4679 6.47797 18.4679 7.52855C18.4679 8.57913 18.261 9.61943 17.859 10.59C17.4569 11.5607 16.8676 12.4426 16.1247 13.1854C15.7342 13.576 15.7342 14.2091 16.1247 14.5997C16.5153 14.9902 17.1484 14.9902 17.539 14.5997C18.4676 13.6711 19.2042 12.5687 19.7067 11.3554C20.2093 10.1421 20.4679 8.84178 20.4679 7.52855C20.4679 6.21532 20.2093 4.91495 19.7067 3.70169C19.2042 2.48842 18.4676 1.38603 17.539 0.45744ZM7.63906 4.70055C8.02953 4.30997 8.02943 3.6768 7.63885 3.28634C7.24827 2.89587 6.6151 2.89597 6.22464 3.28655C5.09981 4.41172 4.46792 5.93757 4.46792 7.52855C4.46792 9.11954 5.09981 10.6454 6.22464 11.7706C6.6151 12.1611 7.24827 12.1612 7.63885 11.7708C8.02943 11.3803 8.02953 10.7471 7.63906 10.3566C6.88918 9.60644 6.46792 8.58921 6.46792 7.52855C6.46792 6.46789 6.88918 5.45066 7.63906 4.70055ZM14.7111 3.28655C14.3206 2.89597 13.6874 2.89587 13.2969 3.28634C12.9063 3.6768 12.9062 4.30997 13.2966 4.70055C14.0465 5.45066 14.4678 6.46789 14.4678 7.52855C14.4678 8.58921 14.0465 9.60644 13.2966 10.3566C12.9062 10.7471 12.9063 11.3803 13.2969 11.7708C13.6874 12.1612 14.3206 12.1611 14.7111 11.7706C15.8359 10.6454 16.4678 9.11954 16.4678 7.52855C16.4678 5.93757 15.8359 4.41172 14.7111 3.28655ZM11.9449 7.52855C11.9449 7.9203 11.7892 8.296 11.5122 8.57301C11.2352 8.85001 10.8595 9.00563 10.4678 9.00563C10.076 9.00563 9.70032 8.85001 9.42332 8.57301C9.14631 8.296 8.99069 7.9203 8.99069 7.52855C8.99069 7.1368 9.14631 6.7611 9.42332 6.48409C9.70032 6.20709 10.076 6.05146 10.4678 6.05146C10.8595 6.05146 11.2352 6.20709 11.5122 6.48409C11.7892 6.7611 11.9449 7.1368 11.9449 7.52855Z" fill="currentColor"/>
</svg>
