<svg width="25" height="29" viewBox="0 0 25 29" fill="none" xmlns="http://www.w3.org/2000/svg">
<path d="M9.91428 12.2059C9.1 12.2059 8.45714 12.9142 8.45714 13.7784C8.45714 14.6425 9.11428 15.3509 9.91428 15.3509C10.7286 15.3509 11.3714 14.6425 11.3714 13.7784C11.3857 12.9142 10.7286 12.2059 9.91428 12.2059ZM15.1286 12.2059C14.3143 12.2059 13.6714 12.9142 13.6714 13.7784C13.6714 14.6425 14.3286 15.3509 15.1286 15.3509C15.9429 15.3509 16.5857 14.6425 16.5857 13.7784C16.5857 12.9142 15.9429 12.2059 15.1286 12.2059Z" fill="white"/>
<path d="M22.0714 0.320038H2.92857C1.31429 0.320038 0 1.62337 0 3.23837V22.3917C0 24.0067 1.31429 25.31 2.92857 25.31H19.1286L18.3714 22.6892L20.2 24.375L21.9286 25.9617L25 28.6534V3.23837C25 1.62337 23.6857 0.320038 22.0714 0.320038ZM16.5571 18.8217C16.5571 18.8217 16.0429 18.2125 15.6143 17.6742C17.4857 17.15 18.2 15.9884 18.2 15.9884C17.6143 16.3709 17.0571 16.64 16.5571 16.8242C15.8429 17.1217 15.1571 17.32 14.4857 17.4334C13.1143 17.6884 11.8571 17.6175 10.7857 17.4192C9.97143 17.2634 9.27143 17.0367 8.68571 16.81C8.35714 16.6825 8 16.5267 7.64286 16.3284C7.6 16.3 7.55714 16.2859 7.51429 16.2575C7.48571 16.2434 7.47143 16.2292 7.45714 16.215C7.2 16.0734 7.05714 15.9742 7.05714 15.9742C7.05714 15.9742 7.74286 17.1075 9.55714 17.6459C9.12857 18.1842 8.6 18.8217 8.6 18.8217C5.44286 18.7225 4.24286 16.6684 4.24286 16.6684C4.24286 12.1067 6.3 8.4092 6.3 8.4092C8.35714 6.8792 10.3143 6.9217 10.3143 6.9217L10.4571 7.0917C7.88571 7.82837 6.7 8.94754 6.7 8.94754C6.7 8.94754 7.01429 8.77754 7.54286 8.5367C9.07143 7.87087 10.2857 7.6867 10.7857 7.6442C10.8714 7.63004 10.9429 7.61587 11.0286 7.61587C11.9 7.50254 12.8857 7.47421 13.9143 7.58754C15.2714 7.74337 16.7286 8.14004 18.2143 8.94754C18.2143 8.94754 17.0857 7.88504 14.6571 7.14837L14.8571 6.9217C14.8571 6.9217 16.8143 6.8792 18.8714 8.4092C18.8714 8.4092 20.9286 12.1067 20.9286 16.6684C20.9286 16.6684 19.7143 18.7225 16.5571 18.8217Z" fill="white"/>
</svg>
