<svg width="11" height="12" viewBox="0 0 11 12" fill="none" xmlns="http://www.w3.org/2000/svg">
<path fill-rule="evenodd" clip-rule="evenodd" d="M8.83845 8.51854L8.80568 8.55101L6.03866 11.318C5.64813 11.7086 5.01497 11.7086 4.62444 11.318L1.85736 8.55095L1.82465 8.51854C-0.112163 6.58173 -0.112163 3.44154 1.82465 1.50473C3.76146 -0.432078 6.90164 -0.432078 8.83845 1.50473C10.7753 3.44154 10.7753 6.58173 8.83845 8.51854ZM3.29242 7.05089C4.4186 8.17707 6.2445 8.17707 7.37068 7.05089C8.49687 5.92471 8.49687 4.09881 7.37068 2.97262C6.2445 1.84644 4.4186 1.84644 3.29242 2.97262C2.16623 4.09881 2.16623 5.92471 3.29242 7.05089Z" fill="#1D91F8"/>
</svg>
