<svg width="319" height="50" viewBox="0 0 319 50" fill="none" xmlns="http://www.w3.org/2000/svg">
<path fill-rule="evenodd" clip-rule="evenodd" d="M81.0502 1.04318C78.6411 -0.347726 75.673 -0.347725 73.2639 1.04318L58.568 9.52785C56.1589 10.9187 54.6748 13.4892 54.6748 16.271V33.2404C54.6748 36.0222 56.1589 38.5927 58.568 39.9836L73.2639 48.4683C75.673 49.8592 78.6411 49.8592 81.0502 48.4683L95.7461 39.9836C98.1552 38.5927 99.6393 36.0222 99.6393 33.2404V16.271C99.6393 13.4892 98.1552 10.9187 95.7461 9.52785L81.0502 1.04318ZM26.3754 1.04366C23.9663 -0.347237 20.9982 -0.347237 18.5891 1.04367L3.89319 9.52833C1.48407 10.9192 0 13.4897 0 16.2715V33.2409C0 36.0227 1.48408 38.5932 3.89319 39.9841L18.5891 48.4687C20.9982 49.8596 23.9663 49.8596 26.3754 48.4687L41.0713 39.9841C43.4804 38.5932 44.9645 36.0227 44.9645 33.2409V16.2715C44.9645 13.4897 43.4804 10.9192 41.0713 9.52833L26.3754 1.04366ZM127.938 1.04318C130.347 -0.347725 133.315 -0.347726 135.724 1.04318L150.42 9.52785C152.829 10.9187 154.313 13.4892 154.313 16.271V33.2404C154.313 36.0222 152.829 38.5927 150.42 39.9836L135.724 48.4683C133.315 49.8592 130.347 49.8592 127.938 48.4683L113.242 39.9836C110.833 38.5927 109.349 36.0222 109.349 33.2404V16.271C109.349 13.4892 110.833 10.9187 113.242 9.52785L127.938 1.04318ZM190.398 1.04318C187.989 -0.347726 185.021 -0.347725 182.612 1.04318L167.916 9.52785C165.507 10.9187 164.022 13.4892 164.022 16.271V33.2404C164.022 36.0222 165.507 38.5927 167.916 39.9836L182.612 48.4683C185.021 49.8592 187.989 49.8592 190.398 48.4683L205.094 39.9836C207.503 38.5927 208.987 36.0222 208.987 33.2404V16.271C208.987 13.4892 207.503 10.9187 205.094 9.52785L190.398 1.04318ZM237.286 1.04318C239.695 -0.347725 242.664 -0.347726 245.073 1.04318L259.769 9.52785C262.178 10.9187 263.662 13.4892 263.662 16.271V33.2404C263.662 36.0222 262.178 38.5927 259.769 39.9836L245.073 48.4683C242.664 49.8592 239.695 49.8592 237.286 48.4683L222.59 39.9836C220.181 38.5927 218.697 36.0222 218.697 33.2404V16.271C218.697 13.4892 220.181 10.9187 222.59 9.52785L237.286 1.04318ZM299.747 1.04318C297.337 -0.347726 294.369 -0.347725 291.96 1.04318L277.264 9.52785C274.855 10.9187 273.371 13.4892 273.371 16.271V33.2404C273.371 36.0222 274.855 38.5927 277.264 39.9836L291.96 48.4683C294.369 49.8592 297.337 49.8592 299.747 48.4683L314.442 39.9836C316.852 38.5927 318.336 36.0222 318.336 33.2404V16.271C318.336 13.4892 316.852 10.9187 314.442 9.52785L299.747 1.04318Z" fill="url(#paint0_linear_6456_3897)"/>
<defs>
<linearGradient id="paint0_linear_6456_3897" x1="42.3319" y1="24.756" x2="276.436" y2="24.756" gradientUnits="userSpaceOnUse">
<stop stop-color="#FF6666"/>
<stop offset="0.098965" stop-color="#FF912B"/>
<stop offset="0.289051" stop-color="#FCC945"/>
<stop offset="0.575248" stop-color="#29D344"/>
<stop offset="1" stop-color="#14D5FF"/>
</linearGradient>
</defs>
</svg>
