<svg width="16" height="15" viewBox="0 0 16 15" fill="none" xmlns="http://www.w3.org/2000/svg">
<path fill-rule="evenodd" clip-rule="evenodd" d="M3.62591 0.72699C3.85842 0.72699 4.08141 0.819355 4.24582 0.983766C4.41023 1.14818 4.5026 1.37117 4.5026 1.60368V2.48036H5.37929C5.6118 2.48036 5.83479 2.57273 5.9992 2.73714C6.16361 2.90155 6.25597 3.12454 6.25597 3.35705C6.25597 3.58956 6.16361 3.81255 5.9992 3.97696C5.83479 4.14137 5.6118 4.23374 5.37929 4.23374H4.5026V5.11043C4.5026 5.34294 4.41023 5.56593 4.24582 5.73034C4.08141 5.89475 3.85842 5.98711 3.62591 5.98711C3.3934 5.98711 3.17041 5.89475 3.006 5.73034C2.84159 5.56593 2.74922 5.34294 2.74922 5.11043V4.23374H1.87254C1.64002 4.23374 1.41704 4.14137 1.25263 3.97696C1.08821 3.81255 0.99585 3.58956 0.99585 3.35705C0.99585 3.12454 1.08821 2.90155 1.25263 2.73714C1.41704 2.57273 1.64002 2.48036 1.87254 2.48036H2.74922V1.60368C2.74922 1.37117 2.84159 1.14818 3.006 0.983766C3.17041 0.819355 3.3934 0.72699 3.62591 0.72699ZM3.62591 9.49386C3.85842 9.49386 4.08141 9.58623 4.24582 9.75064C4.41023 9.91505 4.5026 10.138 4.5026 10.3706V11.2472H5.37929C5.6118 11.2472 5.83479 11.3396 5.9992 11.504C6.16361 11.6684 6.25597 11.8914 6.25597 12.1239C6.25597 12.3564 6.16361 12.5794 5.9992 12.7438C5.83479 12.9082 5.6118 13.0006 5.37929 13.0006H4.5026V13.8773C4.5026 14.1098 4.41023 14.3328 4.24582 14.4972C4.08141 14.6616 3.85842 14.754 3.62591 14.754C3.3934 14.754 3.17041 14.6616 3.006 14.4972C2.84159 14.3328 2.74922 14.1098 2.74922 13.8773V13.0006H1.87254C1.64002 13.0006 1.41704 12.9082 1.25263 12.7438C1.08821 12.5794 0.99585 12.3564 0.99585 12.1239C0.99585 11.8914 1.08821 11.6684 1.25263 11.504C1.41704 11.3396 1.64002 11.2472 1.87254 11.2472H2.74922V10.3706C2.74922 10.138 2.84159 9.91505 3.006 9.75064C3.17041 9.58623 3.3934 9.49386 3.62591 9.49386ZM9.76272 0.72699C9.9562 0.726927 10.1443 0.790868 10.2976 0.908847C10.4509 1.02683 10.5609 1.19222 10.6105 1.37925L11.6441 5.28576L14.5845 6.98128C14.7178 7.05823 14.8284 7.1689 14.9054 7.30216C14.9823 7.43543 15.0228 7.58661 15.0228 7.74049C15.0228 7.89437 14.9823 8.04554 14.9054 8.17881C14.8284 8.31208 14.7178 8.42275 14.5845 8.4997L11.6441 10.1961L10.6096 14.1017C10.56 14.2886 10.45 14.4538 10.2968 14.5716C10.1435 14.6895 9.95561 14.7534 9.76228 14.7534C9.56896 14.7534 9.38106 14.6895 9.22782 14.5716C9.07457 14.4538 8.96459 14.2886 8.91497 14.1017L7.88135 10.1952L4.94094 8.4997C4.80768 8.42275 4.69702 8.31208 4.62008 8.17881C4.54314 8.04554 4.50264 7.89437 4.50264 7.74049C4.50264 7.58661 4.54314 7.43543 4.62008 7.30216C4.69702 7.1689 4.80768 7.05823 4.94094 6.98128L7.88135 5.28489L8.91584 1.37925C8.96533 1.19236 9.07521 1.02708 9.22837 0.909114C9.38154 0.79115 9.5694 0.727121 9.76272 0.72699Z" fill="currentColor"/>
</svg>
