<svg width="80" height="127" viewBox="0 0 80 127" fill="none" xmlns="http://www.w3.org/2000/svg">
<rect x="1" y="1" width="19.3469" height="19.3469" rx="4" stroke="#29D391" stroke-width="2"/>
<rect x="28.4082" y="1" width="19.3469" height="19.3469" rx="4" stroke="#29D391" stroke-width="2"/>
<rect x="55.8164" y="1" width="19.3469" height="19.3469" rx="4" stroke="#29D391" stroke-width="2"/>
<rect x="1" y="28.4082" width="19.3469" height="19.3469" rx="4" stroke="#29D391" stroke-width="2"/>
<rect x="28.4082" y="28.4082" width="19.3469" height="19.3469" rx="4" stroke="#29D391" stroke-width="2"/>
<rect x="55.8164" y="28.4082" width="19.3469" height="19.3469" rx="4" stroke="#29D391" stroke-width="2"/>
<rect x="1" y="55.8164" width="19.3469" height="19.3469" rx="4" stroke="#29D391" stroke-width="2"/>
<rect x="28.4082" y="55.8164" width="19.3469" height="19.3469" rx="4" stroke="#29D391" stroke-width="2"/>
<rect x="55.8164" y="55.8164" width="19.3469" height="19.3469" rx="4" stroke="#29D391" stroke-width="2"/>
<path d="M33.2449 48.5613C33.2449 38.3215 41.5459 30.0205 51.7857 30.0205C62.0255 30.0205 70.3265 38.3215 70.3265 48.5613V125.143H33.2449V48.5613Z" fill="#33404E"/>
<path d="M38.2756 49.3671C38.2756 41.9057 44.3244 35.8569 51.7858 35.8569C59.2473 35.8569 65.296 41.9057 65.296 49.3671V124.143H38.2756V49.3671Z" fill="#33404E" stroke="#B377FF" stroke-width="2"/>
<path d="M44 50C44 45.5817 47.5817 42 52 42C56.4183 42 60 45.5817 60 50V63C60 66.3137 57.3137 69 54 69H50C46.6863 69 44 66.3137 44 63V50Z" stroke="#B377FF" stroke-width="2"/>
<rect x="21.9592" y="104.184" width="58.0408" height="22.5714" fill="#33404E"/>
</svg>
