<svg width="44" height="44" viewBox="0 0 44 44" fill="none" xmlns="http://www.w3.org/2000/svg">
<circle cx="21.5361" cy="21.9797" r="21.0898" fill="#555A82"/>
<path fill-rule="evenodd" clip-rule="evenodd" d="M21.5371 12.8132C15.6731 12.8132 10.7101 16.667 9.04181 21.9797C10.7101 27.2924 15.6731 31.1462 21.5371 31.1462C27.4011 31.1462 32.3641 27.2924 34.0324 21.9797C32.3641 16.667 27.4011 12.8132 21.5371 12.8132ZM25.2409 25.6835C26.2233 24.7012 26.7751 23.3689 26.7751 21.9797C26.7751 20.5905 26.2233 19.2582 25.2409 18.2759C24.2586 17.2935 22.9263 16.7417 21.5371 16.7417C20.1479 16.7417 18.8156 17.2935 17.8333 18.2759C16.8509 19.2582 16.2991 20.5905 16.2991 21.9797C16.2991 23.3689 16.8509 24.7012 17.8333 25.6835C18.8156 26.6659 20.1479 27.2177 21.5371 27.2177C22.9263 27.2177 24.2586 26.6659 25.2409 25.6835ZM23.3888 23.8317C22.8976 24.3228 22.2315 24.5988 21.5369 24.5988C20.8423 24.5988 20.1761 24.3228 19.6849 23.8317C19.1938 23.3405 18.9179 22.6743 18.9179 21.9797C18.9179 21.2851 19.1938 20.619 19.6849 20.1278C20.1761 19.6367 20.8423 19.3607 21.5369 19.3607C22.2315 19.3607 22.8976 19.6367 23.3888 20.1278C23.8799 20.619 24.1559 21.2851 24.1559 21.9797C24.1559 22.6743 23.8799 23.3405 23.3888 23.8317Z" fill="#1C1E3B"/>
</svg>
