<svg width="43" height="44" viewBox="0 0 43 44" fill="none" xmlns="http://www.w3.org/2000/svg">
<circle cx="21.5361" cy="21.9797" r="21.0898" fill="#FCC945"/>
<path fill-rule="evenodd" clip-rule="evenodd" d="M21.5371 12.8131C15.6731 12.8131 10.7101 16.667 9.04178 21.9796C10.7101 27.2923 15.6731 31.1462 21.5371 31.1462C27.401 31.1462 32.3641 27.2923 34.0324 21.9796C32.3641 16.667 27.401 12.8131 21.5371 12.8131ZM25.2409 25.6835C26.2232 24.7012 26.7751 23.3689 26.7751 21.9796C26.7751 20.5904 26.2232 19.2581 25.2409 18.2758C24.2586 17.2935 22.9263 16.7416 21.5371 16.7416C20.1479 16.7416 18.8156 17.2935 17.8332 18.2758C16.8509 19.2581 16.2991 20.5904 16.2991 21.9796C16.2991 23.3689 16.8509 24.7012 17.8332 25.6835C18.8156 26.6658 20.1479 27.2177 21.5371 27.2177C22.9263 27.2177 24.2586 26.6658 25.2409 25.6835ZM23.3888 23.8316C22.8976 24.3228 22.2314 24.5987 21.5368 24.5987C20.8422 24.5987 20.1761 24.3228 19.6849 23.8316C19.1938 23.3404 18.9178 22.6743 18.9178 21.9797C18.9178 21.2851 19.1938 20.6189 19.6849 20.1278C20.1761 19.6366 20.8422 19.3607 21.5368 19.3607C22.2314 19.3607 22.8976 19.6366 23.3888 20.1278C23.8799 20.6189 24.1558 21.2851 24.1558 21.9797C24.1558 22.6743 23.8799 23.3404 23.3888 23.8316Z" fill="white"/>
</svg>
