<svg width="26" height="26" viewBox="0 0 26 26" fill="none" xmlns="http://www.w3.org/2000/svg">
<path fill-rule="evenodd" clip-rule="evenodd" d="M12.8289 25.6276C16.1826 25.6276 19.3989 24.2953 21.7704 21.9239C24.1418 19.5525 25.474 16.3362 25.474 12.9825C25.474 9.62881 24.1418 6.41248 21.7704 4.04106C19.3989 1.66965 16.1826 0.337402 12.8289 0.337402C9.47524 0.337402 6.25892 1.66965 3.8875 4.04106C1.51609 6.41248 0.183838 9.62881 0.183838 12.9825C0.183838 16.3362 1.51609 19.5525 3.8875 21.9239C6.25892 24.2953 9.47524 25.6276 12.8289 25.6276ZM10.7852 8.70371C10.4871 8.41579 10.0878 8.25647 9.67335 8.26007C9.25891 8.26367 8.86247 8.4299 8.5694 8.72297C8.27634 9.01603 8.11011 9.41247 8.1065 9.82691C8.1029 10.2413 8.26222 10.6406 8.55015 10.9387L10.5939 12.9825L8.55015 15.0263C8.39918 15.1721 8.27876 15.3465 8.19593 15.5393C8.11309 15.7322 8.06948 15.9396 8.06766 16.1495C8.06583 16.3593 8.10583 16.5675 8.1853 16.7617C8.26478 16.956 8.38215 17.1325 8.53056 17.2809C8.67897 17.4293 8.85545 17.5466 9.0497 17.6261C9.24396 17.7056 9.45209 17.7456 9.66197 17.7438C9.87185 17.7419 10.0793 17.6983 10.2721 17.6155C10.4649 17.5327 10.6394 17.4122 10.7852 17.2613L12.8289 15.2175L14.8727 17.2613C15.1708 17.5492 15.5701 17.7085 15.9845 17.7049C16.399 17.7013 16.7954 17.5351 17.0885 17.242C17.3815 16.949 17.5478 16.5525 17.5514 16.1381C17.555 15.7236 17.3956 15.3244 17.1077 15.0263L15.064 12.9825L17.1077 10.9387C17.3956 10.6406 17.555 10.2413 17.5514 9.82691C17.5478 9.41247 17.3815 9.01603 17.0885 8.72297C16.7954 8.4299 16.399 8.26367 15.9845 8.26007C15.5701 8.25647 15.1708 8.41579 14.8727 8.70371L12.8289 10.7475L10.7852 8.70371Z" fill="#BC3838"/>
</svg>
