<svg width="26" height="24" viewBox="0 0 26 24" fill="none" xmlns="http://www.w3.org/2000/svg">
<path opacity="0.6" d="M9.3842 9.68533C11.3809 8.53263 14.6182 8.53262 16.6149 9.68533L24.2096 14.0697C26.2063 15.2224 26.2063 17.0913 24.2096 18.244L16.6149 22.6284C14.6182 23.7811 11.3809 23.7811 9.3842 22.6284L1.78953 18.244C-0.207183 17.0913 -0.207188 15.2224 1.78952 14.0697L9.3842 9.68533Z" fill="#A667F6"/>
<path opacity="0.8" d="M9.3842 1.37185C11.3809 0.21915 14.6182 0.219147 16.6149 1.37185L24.2096 5.75625C26.2063 6.90895 26.2063 8.77786 24.2096 9.93056L16.6149 14.315C14.6182 15.4677 11.3809 15.4677 9.3842 14.315L1.78953 9.93056C-0.207183 8.77786 -0.207188 6.90896 1.78952 5.75626L9.3842 1.37185Z" fill="#1D91F8"/>
</svg>
