<svg width="26" height="23" viewBox="0 0 26 23" fill="none" xmlns="http://www.w3.org/2000/svg">
<path opacity="0.6" d="M9.0922 9.178C11.0889 8.0253 14.3262 8.0253 16.3229 9.178L23.9176 13.5624C25.9143 14.7151 25.9143 16.584 23.9176 17.7367L16.323 22.1211C14.3262 23.2738 11.0889 23.2738 9.09221 22.1211L1.49754 17.7367C-0.499175 16.584 -0.499181 14.7151 1.49753 13.5624L9.0922 9.178Z" fill="#E86161"/>
<path opacity="0.8" d="M9.0922 0.864528C11.0889 -0.288174 14.3262 -0.288177 16.3229 0.864525L23.9176 5.24893C25.9143 6.40163 25.9143 8.27053 23.9176 9.42324L16.323 13.8076C14.3262 14.9603 11.0889 14.9603 9.09221 13.8076L1.49754 9.42324C-0.499175 8.27054 -0.499181 6.40163 1.49753 5.24893L9.0922 0.864528Z" fill="#14D5FF"/>
</svg>
