<svg width="26" height="24" viewBox="0 0 26 24" fill="none" xmlns="http://www.w3.org/2000/svg">
<path opacity="0.6" d="M9.57463 9.68533C11.5713 8.53263 14.8087 8.53262 16.8054 9.68533L24.4 14.0697C26.3967 15.2224 26.3968 17.0913 24.4 18.244L16.8054 22.6284C14.8087 23.7811 11.5713 23.7811 9.57463 22.6284L1.97996 18.244C-0.0167536 17.0913 -0.0167588 15.2224 1.97995 14.0697L9.57463 9.68533Z" fill="#E86161"/>
<path opacity="0.8" d="M9.57463 1.37185C11.5713 0.21915 14.8087 0.219147 16.8054 1.37185L24.4 5.75625C26.3968 6.90895 26.3968 8.77786 24.4 9.93056L16.8054 14.315C14.8087 15.4677 11.5713 15.4677 9.57463 14.315L1.97996 9.93056C-0.0167535 8.77786 -0.0167588 6.90896 1.97995 5.75626L9.57463 1.37185Z" fill="#29D344"/>
</svg>
