<svg width="26" height="24" viewBox="0 0 26 24" fill="none" xmlns="http://www.w3.org/2000/svg">
<path opacity="0.6" d="M9.28556 9.68533C11.2823 8.53263 14.5196 8.53262 16.5163 9.68533L24.111 14.0697C26.1077 15.2224 26.1077 17.0913 24.111 18.244L16.5163 22.6284C14.5196 23.7811 11.2823 23.7811 9.28557 22.6284L1.6909 18.244C-0.305816 17.0913 -0.305821 15.2224 1.69089 14.0697L9.28556 9.68533Z" fill="#CED1E4"/>
<path opacity="0.8" d="M9.28556 1.37185C11.2823 0.21915 14.5196 0.219147 16.5163 1.37185L24.111 5.75625C26.1077 6.90895 26.1077 8.77786 24.111 9.93056L16.5163 14.315C14.5196 15.4677 11.2823 15.4677 9.28557 14.315L1.6909 9.93056C-0.305816 8.77786 -0.305821 6.90896 1.69089 5.75626L9.28556 1.37185Z" fill="#FCC945"/>
</svg>
