<svg width="28" height="30" viewBox="0 0 28 30" fill="none" xmlns="http://www.w3.org/2000/svg">
<path d="M14.8153 13.8005C14.8153 19.0031 13.3228 23.8581 10.7429 27.9586M5.65425 24.9409L5.73413 24.8078C7.80883 21.5119 8.90602 17.695 8.89828 13.8005C8.89828 12.2312 9.52169 10.7262 10.6314 9.61654C11.741 8.50687 13.246 7.88347 14.8153 7.88347C16.3847 7.88347 17.8897 8.50687 18.9993 9.61654C20.109 10.7262 20.7324 12.2312 20.7324 13.8005C20.7324 15.3049 20.6289 16.7872 20.4321 18.2383M17.299 28.3624C18.2121 26.5407 18.9511 24.6368 19.5061 22.6761M25.185 24.3507C26.1391 20.9986 26.6495 17.4588 26.6495 13.8005C26.6499 11.723 26.1035 9.68192 25.065 7.88254C24.0265 6.08315 22.5327 4.58886 20.7336 3.54988C18.9345 2.51091 16.8936 1.96386 14.816 1.96375C12.7385 1.96363 10.6975 2.51044 8.89828 3.54922M1.50195 20.2561C2.44868 18.3049 2.98122 16.1141 2.98122 13.8005C2.98122 11.6452 3.55813 9.62457 4.56403 7.88347" stroke="currentColor" stroke-width="2.5" stroke-linecap="round" stroke-linejoin="round"/>
</svg>
