<svg width="21" height="21" viewBox="0 0 21 21" fill="none" xmlns="http://www.w3.org/2000/svg">
<path d="M7.25537 1V3.07607M13.2554 1V3.07607M7.25537 17.6085V19.6846M13.2554 17.6085V19.6846M3.25537 7.2282H1.25537M3.25537 13.4564H1.25537M19.2554 7.2282H17.2554M19.2554 13.4564H17.2554M5.25537 17.6085H15.2554C15.7858 17.6085 16.2945 17.3898 16.6696 17.0005C17.0447 16.6111 17.2554 16.0831 17.2554 15.5325V5.15213C17.2554 4.60153 17.0447 4.07347 16.6696 3.68413C16.2945 3.29479 15.7858 3.07607 15.2554 3.07607H5.25537C4.72494 3.07607 4.21623 3.29479 3.84116 3.68413C3.46608 4.07347 3.25537 4.60153 3.25537 5.15213V15.5325C3.25537 16.0831 3.46608 16.6111 3.84116 17.0005C4.21623 17.3898 4.72494 17.6085 5.25537 17.6085ZM7.25537 7.2282H13.2554V13.4564H7.25537V7.2282Z" stroke="#474DFF" stroke-width="1.5" stroke-linecap="round" stroke-linejoin="round"/>
</svg>
