<svg width="20" height="22" viewBox="0 0 20 22" fill="none" xmlns="http://www.w3.org/2000/svg">
<path fill-rule="evenodd" clip-rule="evenodd" d="M0.119263 5.03934C0.119263 3.95094 0.551629 2.90711 1.32124 2.1375C2.09086 1.36788 3.13468 0.935516 4.22308 0.935516H17.9025C18.1565 0.935516 18.4056 1.00626 18.6217 1.13982C18.8378 1.27338 19.0124 1.46447 19.126 1.6917C19.2396 1.91892 19.2877 2.17329 19.2649 2.42631C19.2421 2.67932 19.1493 2.92099 18.9968 3.12422L15.5086 7.77522L18.9968 12.4262C19.1493 12.6294 19.2421 12.8711 19.2649 13.1241C19.2877 13.3771 19.2396 13.6315 19.126 13.8587C19.0124 14.086 18.8378 14.2771 18.6217 14.4106C18.4056 14.5442 18.1565 14.6149 17.9025 14.6149H4.22308C3.86028 14.6149 3.51234 14.759 3.2558 15.0156C2.99927 15.2721 2.85514 15.6201 2.85514 15.9829V20.0867C2.85514 20.4495 2.71102 20.7974 2.45448 21.054C2.19794 21.3105 1.85 21.4546 1.4872 21.4546C1.1244 21.4546 0.776462 21.3105 0.519923 21.054C0.263385 20.7974 0.119263 20.4495 0.119263 20.0867V5.03934Z" fill="currentColor"/>
</svg>
