<svg width="21" height="21" viewBox="0 0 21 21" fill="none" xmlns="http://www.w3.org/2000/svg">
<path d="M19.6827 10.3726C19.6827 12.7595 18.7158 15.0487 16.9946 16.7365C15.2734 18.4243 12.939 19.3726 10.5049 19.3726M19.6827 10.3726C19.6827 7.98561 18.7158 5.69642 16.9946 4.0086C15.2734 2.32077 12.939 1.37256 10.5049 1.37256M19.6827 10.3726H1.32715M10.5049 19.3726C8.07083 19.3726 5.73642 18.4243 4.01526 16.7365C2.29409 15.0487 1.32715 12.7595 1.32715 10.3726M10.5049 19.3726C12.1947 19.3726 13.5642 15.3426 13.5642 10.3726C13.5642 5.40256 12.1947 1.37256 10.5049 1.37256M10.5049 19.3726C8.81519 19.3726 7.44567 15.3426 7.44567 10.3726C7.44567 5.40256 8.81519 1.37256 10.5049 1.37256M10.5049 1.37256C8.07083 1.37256 5.73642 2.32077 4.01526 4.0086C2.29409 5.69642 1.32715 7.98561 1.32715 10.3726" stroke="currentColor" stroke-width="2" stroke-linecap="round" stroke-linejoin="round"/>
</svg>
