<svg width="30" height="30" viewBox="0 0 30 30" fill="none" xmlns="http://www.w3.org/2000/svg">
<path fill-rule="evenodd" clip-rule="evenodd" d="M10.6202 3.82935C9.07759 4.40853 7.66022 5.31357 6.47261 6.50118C4.642 8.33179 3.48279 10.7083 3.15346 13.2481H8.85903C8.97438 10.0807 9.45207 7.19209 10.1939 4.96652C10.325 4.57313 10.4669 4.19259 10.6202 3.82935ZM14.7195 0.0852051C10.8307 0.0852051 7.10111 1.63004 4.35129 4.37986C1.60147 7.12968 0.0566406 10.8592 0.0566406 14.7481C0.0566406 18.6369 1.60147 22.3664 4.35129 25.1163C7.10111 27.8661 10.8307 29.4109 14.7195 29.4109C18.6083 29.4109 22.3379 27.8661 25.0877 25.1163C27.8375 22.3664 29.3824 18.6369 29.3824 14.7481C29.3824 10.8592 27.8375 7.12968 25.0877 4.37986C22.3379 1.63004 18.6083 0.0852051 14.7195 0.0852051ZM14.7195 3.08623C14.68 3.09543 14.4967 3.15852 14.1897 3.54814C13.8128 4.02641 13.4078 4.81142 13.0399 5.91513C12.4151 7.7899 11.9753 10.3461 11.8612 13.2481H17.5778C17.4637 10.3461 17.0239 7.7899 16.3991 5.91513C16.0312 4.81142 15.6262 4.02641 15.2493 3.54814C14.9423 3.15852 14.759 3.09543 14.7195 3.08623ZM20.58 13.2481C20.4646 10.0807 19.9869 7.19209 19.2451 4.96652C19.114 4.57313 18.9721 4.19259 18.8188 3.82935C20.3614 4.40853 21.7788 5.31357 22.9664 6.50118C24.797 8.33179 25.9562 10.7083 26.2855 13.2481H20.58ZM17.5778 16.2481H11.8612C11.9753 19.15 12.4151 21.7062 13.0399 23.581C13.4078 24.6847 13.8128 25.4697 14.1897 25.948C14.4967 26.3376 14.68 26.4007 14.7195 26.4099C14.759 26.4007 14.9423 26.3376 15.2493 25.948C15.6262 25.4697 16.0312 24.6847 16.3991 23.581C17.0239 21.7062 17.4637 19.15 17.5778 16.2481ZM10.6202 25.6668C10.4669 25.3035 10.325 24.923 10.1939 24.5296C9.45207 22.304 8.97438 19.4154 8.85903 16.2481H3.15346C3.48279 18.7878 4.642 21.1643 6.47261 22.9949C7.66022 24.1826 9.07759 25.0876 10.6202 25.6668ZM18.8188 25.6668C18.9721 25.3035 19.114 24.923 19.2451 24.5296C19.9869 22.304 20.4646 19.4154 20.58 16.2481H26.2855C25.9562 18.7878 24.797 21.1643 22.9664 22.9949C21.7788 24.1826 20.3614 25.0876 18.8188 25.6668Z" fill="#A3A3CA"/>
</svg>
