<svg width="16" height="10" viewBox="0 0 16 10" fill="none" xmlns="http://www.w3.org/2000/svg">
<path d="M4.35596 4.87071L5.00063 4.48744C4.86545 4.26006 4.62049 4.12071 4.35596 4.12071V4.87071ZM6.73738 8.87638L6.0927 9.25964C6.24769 9.52035 6.54445 9.66204 6.84463 9.61867C7.14481 9.57529 7.38932 9.35539 7.46418 9.06148L6.73738 8.87638ZM8.77365 0.880859L9.45372 0.564625C9.31999 0.277041 9.01983 0.104662 8.70404 0.134096C8.38826 0.163531 8.12512 0.388416 8.04685 0.69576L8.77365 0.880859ZM10.6289 4.87071L9.94887 5.18695C10.0719 5.45151 10.3372 5.62071 10.6289 5.62071V4.87071ZM14.2983 5.62071C14.7125 5.62071 15.0483 5.28492 15.0483 4.87071C15.0483 4.4565 14.7125 4.12071 14.2983 4.12071V5.62071ZM0.911987 5.62071H4.35596V4.12071H0.911987V5.62071ZM3.71128 5.25398L6.0927 9.25964L7.38205 8.49311L5.00063 4.48744L3.71128 5.25398ZM7.46418 9.06148L9.50045 1.06596L8.04685 0.69576L6.01058 8.69128L7.46418 9.06148ZM8.09358 1.19709L9.94887 5.18695L11.309 4.55448L9.45372 0.564625L8.09358 1.19709ZM10.6289 5.62071H14.2983V4.12071H10.6289V5.62071Z" fill="#A667F6"/>
</svg>
