<svg width="20" height="16" viewBox="0 0 20 16" fill="none" xmlns="http://www.w3.org/2000/svg">
<path fill-rule="evenodd" clip-rule="evenodd" d="M2.17736 2.1031C3.03361 1.24711 4.19477 0.76625 5.40549 0.76625C6.61622 0.76625 7.77738 1.24711 8.63362 2.1031L9.97145 3.43978L11.3093 2.1031C11.7305 1.667 12.2343 1.31916 12.7914 1.07986C13.3484 0.840565 13.9476 0.714608 14.5538 0.70934C15.1601 0.704072 15.7613 0.819598 16.3225 1.04918C16.8836 1.27876 17.3934 1.61779 17.8221 2.0465C18.2508 2.47521 18.5899 2.98501 18.8195 3.54615C19.049 4.10729 19.1646 4.70853 19.1593 5.3148C19.154 5.92106 19.0281 6.52021 18.7888 7.07727C18.5495 7.63433 18.2016 8.13816 17.7655 8.55936L10.6786 15.6473C10.2881 16.0379 9.65482 16.0379 9.26429 15.6473L2.17736 8.55936C1.32138 7.70311 0.840515 6.54196 0.840515 5.33123C0.840515 4.1205 1.32138 2.95934 2.17736 2.1031Z" fill="#E3E5F8"/>
</svg>
