<svg width="13" height="13" viewBox="0 0 13 13" fill="none" xmlns="http://www.w3.org/2000/svg">
<path d="M7.70857 3.86606C8.05177 3.52292 8.61053 3.52292 8.95373 3.86606C9.29694 4.2092 9.29694 4.76786 8.95373 5.111C8.75492 5.30978 8.48287 5.39975 8.20663 5.35999C8.19408 5.3579 8.17943 5.3579 8.16687 5.35999C8.08526 5.34953 7.99945 5.35999 7.91784 5.39765C7.80274 5.44996 7.72112 5.54621 7.68136 5.6571C7.6416 5.76591 7.64369 5.88935 7.69601 6.00025C7.99108 6.63841 7.85506 7.40212 7.35699 7.90009C6.85893 8.39807 6.09509 8.53407 5.45681 8.23905C5.34171 8.18675 5.21824 8.18465 5.10733 8.2265C4.9985 8.26625 4.90642 8.34786 4.85411 8.46084C4.82062 8.53407 4.80807 8.6094 4.81225 8.68472C4.81016 8.69937 4.81016 8.71402 4.81225 8.72866C4.85829 9.00904 4.76621 9.29569 4.56531 9.49655C4.22211 9.83969 3.66335 9.83969 3.32015 9.49655C3.15273 9.32916 3.06275 9.10947 3.06275 8.87303C3.06275 8.63869 3.15482 8.4169 3.32015 8.24952C3.51896 8.05074 3.79101 7.96077 4.06725 8.00053C4.07143 8.00053 4.07562 8.00053 4.0819 8.00053C4.11119 8.0068 4.14049 8.01099 4.17188 8.01099C4.23676 8.01099 4.30163 7.99844 4.36232 7.96914C4.47533 7.91683 4.55485 7.82477 4.5967 7.71806C4.63856 7.60717 4.63856 7.48163 4.58415 7.36655C4.28907 6.72838 4.4251 5.96468 4.92317 5.4667C5.42123 4.96872 6.18507 4.83272 6.82335 5.12774C6.93636 5.18005 7.06192 5.18214 7.17074 5.14239C7.27956 5.10263 7.37373 5.02103 7.42605 4.90805C7.46581 4.82017 7.47628 4.72601 7.46163 4.63604V4.63395C7.41559 4.35358 7.50767 4.06693 7.70857 3.86606ZM6.838 7.38119C7.21887 7.00039 7.21887 6.38315 6.838 6.00234C6.45712 5.62154 5.83977 5.62154 5.4589 6.00234C5.07803 6.38315 5.07803 7.00039 5.4589 7.38119C5.83977 7.762 6.45712 7.762 6.838 7.38119ZM6.14113 0.800781C9.39529 0.800781 12.0342 3.43922 12.0342 6.69281C12.0342 9.9464 9.39739 12.5869 6.14113 12.5869C2.88486 12.5869 0.248047 9.9485 0.248047 6.69281C0.248047 3.43713 2.88696 0.800781 6.14113 0.800781ZM9.28229 5.4395C9.80337 4.91851 9.80337 4.0753 9.28229 3.5543C8.7612 3.03331 7.91784 3.03331 7.39675 3.5543C7.20422 3.7468 7.08285 3.98532 7.03262 4.23431C6.08881 3.87862 5.00478 4.10459 4.2828 4.82645C3.56081 5.5483 3.3348 6.63214 3.69265 7.57787C3.44153 7.62809 3.20296 7.74945 3.00833 7.94403C2.48725 8.46503 2.48725 9.30824 3.00833 9.82923C3.52942 10.3502 4.37278 10.3502 4.89387 9.82923C5.08849 9.63465 5.21196 9.39193 5.26009 9.14085C5.55307 9.24965 5.85861 9.30406 6.16205 9.30406C6.838 9.30406 7.50557 9.04251 8.00155 8.54663C8.71935 7.82896 8.94745 6.7514 8.59797 5.80775C8.847 5.75545 9.08766 5.63409 9.28229 5.4395Z" fill="#A667F6"/>
</svg>
