<svg width="46" height="46" viewBox="0 0 46 46" fill="none" xmlns="http://www.w3.org/2000/svg">
<path d="M45.97 22C45.97 9.84974 36.1203 0 23.97 0H22C9.84974 0 -6.28052e-06 9.84974 -6.28052e-06 22V23.9646C-6.28052e-06 36.1149 9.84973 45.9646 22 45.9646H45.97V22Z" fill="#474DFF"/>
<path d="M26.9092 15.9027C27.7684 15.0436 29.1673 15.0436 30.0265 15.9027C30.8858 16.7618 30.8858 18.1604 30.0265 19.0195C29.5288 19.5171 28.8477 19.7424 28.1561 19.6428C28.1247 19.6376 28.088 19.6376 28.0566 19.6428C27.8522 19.6167 27.6374 19.6428 27.4331 19.7371C27.1449 19.8681 26.9406 20.1091 26.8411 20.3867C26.7415 20.6591 26.7468 20.9681 26.8777 21.2458C27.6165 22.8435 27.2759 24.7555 26.029 26.0022C24.782 27.2489 22.8697 27.5894 21.2717 26.8508C20.9836 26.7198 20.6745 26.7146 20.3968 26.8194C20.1243 26.9189 19.8938 27.1232 19.7628 27.4061C19.679 27.5894 19.6476 27.778 19.658 27.9666C19.6528 28.0032 19.6528 28.0399 19.658 28.0766C19.7733 28.7785 19.5428 29.4962 19.0398 29.999C18.1806 30.8581 16.7817 30.8581 15.9224 29.999C15.5033 29.58 15.278 29.0299 15.278 28.438C15.278 27.8513 15.5085 27.2961 15.9224 26.877C16.4202 26.3793 17.1013 26.1541 17.7929 26.2536C17.8033 26.2536 17.8138 26.2536 17.8295 26.2536C17.9029 26.2693 17.9762 26.2798 18.0548 26.2798C18.2172 26.2798 18.3797 26.2484 18.5316 26.175C18.8145 26.0441 19.0136 25.8136 19.1184 25.5464C19.2232 25.2688 19.2232 24.9545 19.087 24.6664C18.3482 23.0687 18.6888 21.1567 19.9357 19.91C21.1827 18.6633 23.095 18.3228 24.693 19.0614C24.9759 19.1923 25.2902 19.1976 25.5627 19.0981C25.8351 18.9985 26.0709 18.7942 26.2019 18.5114C26.3014 18.2914 26.3276 18.0556 26.2909 17.8304V17.8251C26.1757 17.1232 26.4062 16.4056 26.9092 15.9027ZM24.7296 24.7031C25.6832 23.7497 25.6832 22.2044 24.7296 21.251C23.7761 20.2976 22.2305 20.2976 21.277 21.251C20.3234 22.2044 20.3234 23.7497 21.277 24.7031C22.2305 25.6565 23.7761 25.6565 24.7296 24.7031ZM22.985 8.22852C31.132 8.22852 37.7387 14.8341 37.7387 22.9797C37.7387 31.1253 31.1373 37.736 22.985 37.736C14.8327 37.736 8.2312 31.1305 8.2312 22.9797C8.2312 14.8288 14.8379 8.22852 22.985 8.22852ZM30.8491 19.8419C32.1537 18.5376 32.1537 16.4265 30.8491 15.1222C29.5445 13.8178 27.4331 13.8178 26.1285 15.1222C25.6465 15.6041 25.3426 16.2013 25.2169 16.8246C22.854 15.9341 20.14 16.4998 18.3325 18.3071C16.525 20.1143 15.9591 22.8278 16.855 25.1955C16.2263 25.3212 15.629 25.625 15.1418 26.1122C13.8372 27.4165 13.8372 29.5276 15.1418 30.8319C16.4464 32.1363 18.5578 32.1363 19.8624 30.8319C20.3496 30.3448 20.6587 29.7371 20.7792 29.1085C21.5127 29.3809 22.2777 29.5171 23.0374 29.5171C24.7296 29.5171 26.401 28.8623 27.6427 27.6208C29.4397 25.8241 30.0108 23.1263 29.1359 20.7638C29.7593 20.6329 30.3619 20.3291 30.8491 19.8419Z" fill="white"/>
</svg>
