<svg width="21" height="20" viewBox="0 0 21 20" fill="none" xmlns="http://www.w3.org/2000/svg">
<path d="M12.8769 5.29623C13.4435 4.7297 14.366 4.7297 14.9327 5.29623C15.4993 5.86276 15.4993 6.78509 14.9327 7.35162C14.6044 7.67979 14.1553 7.82833 13.6992 7.7627C13.6785 7.75925 13.6543 7.75925 13.6336 7.7627C13.4988 7.74543 13.3572 7.7627 13.2224 7.82488C13.0324 7.91124 12.8976 8.07015 12.832 8.25323C12.7663 8.43286 12.7698 8.63667 12.8562 8.81976C13.3433 9.87336 13.1188 11.1342 12.2965 11.9564C11.4741 12.7785 10.2131 13.0031 9.15926 12.516C8.96923 12.4297 8.76539 12.4262 8.58227 12.4953C8.4026 12.5609 8.25058 12.6956 8.16421 12.8822C8.10893 13.0031 8.08819 13.1274 8.0951 13.2518C8.09165 13.276 8.09165 13.3002 8.0951 13.3244C8.17112 13.7872 8.01909 14.2605 7.68741 14.5921C7.12078 15.1587 6.19828 15.1587 5.63165 14.5921C5.35525 14.3158 5.20668 13.9531 5.20668 13.5627C5.20668 13.1758 5.3587 12.8096 5.63165 12.5333C5.95988 12.2051 6.40904 12.0566 6.86511 12.1222C6.87202 12.1222 6.87893 12.1222 6.88929 12.1222C6.93766 12.1326 6.98603 12.1395 7.03786 12.1395C7.14496 12.1395 7.25207 12.1188 7.35227 12.0704C7.53884 11.984 7.67013 11.832 7.73923 11.6559C7.80834 11.4728 7.80834 11.2655 7.7185 11.0755C7.23134 10.0219 7.45592 8.76103 8.27822 7.93888C9.10052 7.11672 10.3616 6.89218 11.4154 7.37926C11.602 7.46562 11.8093 7.46907 11.989 7.40344C12.1686 7.3378 12.3241 7.20308 12.4105 7.01654C12.4761 6.87145 12.4934 6.716 12.4692 6.56746V6.56401C12.3932 6.10111 12.5452 5.62786 12.8769 5.29623ZM11.4396 11.0997C12.0684 10.471 12.0684 9.45192 11.4396 8.82321C10.8108 8.19451 9.79154 8.19451 9.16272 8.82321C8.5339 9.45192 8.5339 10.471 9.16272 11.0997C9.79154 11.7284 10.8108 11.7284 11.4396 11.0997ZM10.2891 0.235474C15.6617 0.235474 20.0185 4.59152 20.0185 9.96318C20.0185 15.3348 15.6651 19.6943 10.2891 19.6943C4.913 19.6943 0.559631 15.3383 0.559631 9.96318C0.559631 4.58807 4.91646 0.235474 10.2891 0.235474ZM15.4751 7.89397C16.3354 7.03381 16.3354 5.64167 15.4751 4.78152C14.6148 3.92136 13.2224 3.92136 12.3621 4.78152C12.0442 5.09933 11.8438 5.49313 11.7609 5.90421C10.2027 5.31696 8.41297 5.69004 7.22098 6.88182C6.02898 8.0736 5.65584 9.863 6.24665 11.4244C5.83204 11.5073 5.43817 11.7077 5.11685 12.0289C4.25654 12.8891 4.25654 14.2812 5.11685 15.1414C5.97716 16.0015 7.36954 16.0015 8.22985 15.1414C8.55117 14.8201 8.75502 14.4194 8.83449 14.0049C9.31819 14.1845 9.82263 14.2743 10.3236 14.2743C11.4396 14.2743 12.5418 13.8425 13.3606 13.0238C14.5457 11.8389 14.9223 10.0599 14.3453 8.50195C14.7564 8.41559 15.1538 8.21523 15.4751 7.89397Z" fill="#474DFF"/>
</svg>
