<svg width="15" height="16" viewBox="0 0 15 16" fill="none" xmlns="http://www.w3.org/2000/svg">
<path d="M8.41078 1.05376C8.24186 0.884901 8.0128 0.790039 7.77395 0.790039C7.53511 0.790039 7.30605 0.884901 7.13713 1.05376L0.83195 7.35894C0.667873 7.52883 0.577083 7.75635 0.579136 7.99253C0.581188 8.2287 0.675918 8.45461 0.842922 8.62162C1.00993 8.78862 1.23584 8.88335 1.47201 8.88541C1.70819 8.88746 1.93571 8.79667 2.1056 8.63259L2.36951 8.36867V14.3009C2.36951 14.5398 2.46441 14.7689 2.63333 14.9379C2.80226 15.1068 3.03136 15.2017 3.27025 15.2017H5.07173C5.31063 15.2017 5.53973 15.1068 5.70865 14.9379C5.87757 14.7689 5.97247 14.5398 5.97247 14.3009V12.4995C5.97247 12.2606 6.06737 12.0315 6.23629 11.8625C6.40522 11.6936 6.63432 11.5987 6.87321 11.5987H8.67469C8.91359 11.5987 9.14269 11.6936 9.31161 11.8625C9.48054 12.0315 9.57543 12.2606 9.57543 12.4995V14.3009C9.57543 14.5398 9.67033 14.7689 9.83926 14.9379C10.0082 15.1068 10.2373 15.2017 10.4762 15.2017H12.2777C12.5165 15.2017 12.7457 15.1068 12.9146 14.9379C13.0835 14.7689 13.1784 14.5398 13.1784 14.3009V8.36867L13.4423 8.63259C13.6122 8.79667 13.8397 8.88746 14.0759 8.88541C14.3121 8.88335 14.538 8.78862 14.705 8.62162C14.872 8.45461 14.9667 8.2287 14.9688 7.99253C14.9708 7.75635 14.88 7.52883 14.716 7.35894L8.41078 1.05376Z" fill="currentColor"/>
</svg>
