<svg width="11" height="11" viewBox="0 0 11 11" fill="none" xmlns="http://www.w3.org/2000/svg">
<path fill-rule="evenodd" clip-rule="evenodd" d="M1.37135 0.463135C0.717508 0.463135 0.18746 0.993183 0.18746 1.64703C0.18746 2.30088 0.717508 2.83092 1.37135 2.83092C5.17564 2.83092 8.25929 5.91457 8.25929 9.71886C8.25929 10.3727 8.78934 10.9028 9.44319 10.9028C10.097 10.9028 10.6271 10.3727 10.6271 9.71886C10.6271 4.60688 6.48334 0.463135 1.37135 0.463135ZM1.37135 4.1886C0.717508 4.1886 0.18746 4.71864 0.18746 5.37249C0.18746 6.02634 0.717508 6.55639 1.37135 6.55639C2.2101 6.55639 3.01448 6.88957 3.60756 7.48265C4.20064 8.07573 4.53383 8.88012 4.53383 9.71886C4.53383 10.3727 5.06388 10.9028 5.71773 10.9028C6.37157 10.9028 6.90162 10.3727 6.90162 9.71886C6.90162 8.25214 6.31897 6.8455 5.28184 5.80837C4.24472 4.77125 2.83807 4.1886 1.37135 4.1886ZM1.48124 10.9137C2.20141 10.9137 2.78523 10.3299 2.78523 9.60973C2.78523 8.88956 2.20141 8.30574 1.48124 8.30574C0.761062 8.30574 0.177246 8.88956 0.177246 9.60973C0.177246 10.3299 0.761062 10.9137 1.48124 10.9137Z" fill="currentColor"/>
</svg>
