<svg width="20" height="19" viewBox="0 0 20 19" fill="none" xmlns="http://www.w3.org/2000/svg">
<path fill-rule="evenodd" clip-rule="evenodd" d="M10.2627 19C12.7823 19 15.1986 17.9991 16.9802 16.2175C18.7618 14.4359 19.7627 12.0196 19.7627 9.5C19.7627 6.98044 18.7618 4.56408 16.9802 2.78249C15.1986 1.00089 12.7823 0 10.2627 0C7.74314 0 5.32678 1.00089 3.54518 2.78249C1.76359 4.56408 0.762695 6.98044 0.762695 9.5C0.762695 12.0196 1.76359 14.4359 3.54518 16.2175C5.32678 17.9991 7.74314 19 10.2627 19ZM14.6648 7.96456C14.8811 7.7406 15.0008 7.44063 14.9981 7.12927C14.9954 6.81792 14.8705 6.52008 14.6503 6.2999C14.4301 6.07973 14.1323 5.95484 13.8209 5.95214C13.5096 5.94943 13.2096 6.06913 12.9856 6.28544L9.0752 10.1959L7.53976 8.66044C7.31579 8.44413 7.01583 8.32443 6.70447 8.32714C6.39311 8.32984 6.09527 8.45473 5.8751 8.6749C5.65493 8.89508 5.53004 9.19292 5.52733 9.50427C5.52463 9.81563 5.64432 10.1156 5.86063 10.3396L8.23563 12.7146C8.45832 12.9372 8.76031 13.0622 9.0752 13.0622C9.39008 13.0622 9.69207 12.9372 9.91476 12.7146L14.6648 7.96456Z" fill="white"/>
</svg>
