<svg width="47" height="47" viewBox="0 0 47 47" fill="none" xmlns="http://www.w3.org/2000/svg">
<path d="M46.1118 22.2065C46.1118 10.0563 36.262 0.206543 24.1118 0.206543H22.1418C9.99153 0.206543 0.141778 10.0563 0.141778 22.2065V24.1712C0.141778 36.3214 9.99152 46.1712 22.1418 46.1712H46.1118V22.2065Z" fill="#29D391"/>
<path fill-rule="evenodd" clip-rule="evenodd" d="M15.8305 10.3725C12.7058 10.3725 10.1728 12.9055 10.1728 16.0302V30.9485C10.1728 34.0731 12.7058 36.6062 15.8305 36.6062H30.7488C33.8734 36.6062 36.4065 34.0731 36.4065 30.9485V16.0302C36.4065 12.9055 33.8734 10.3725 30.7488 10.3725H15.8305ZM23.2897 13.059C17.5292 13.059 12.8594 17.7288 12.8594 23.4893C12.8594 29.2498 17.5292 33.9196 23.2897 33.9196C29.0502 33.9196 33.72 29.2498 33.72 23.4893C33.72 17.7288 29.0502 13.059 23.2897 13.059Z" fill="white"/>
</svg>
