<svg width="51" height="20" viewBox="0 0 51 20" fill="none" xmlns="http://www.w3.org/2000/svg">
<path fill-rule="evenodd" clip-rule="evenodd" d="M4.24861 0.226685C1.90217 0.226685 0 2.12886 0 4.4753V15.6782C0 18.0246 1.90217 19.9268 4.24861 19.9268H15.4515C17.7979 19.9268 19.7001 18.0246 19.7001 15.6782V11.1774H28.6428L25.8067 14.0136C25.3768 14.4435 25.3768 15.1404 25.8067 15.5702C26.2365 16.0001 26.9335 16.0001 27.3633 15.5702L32.0785 10.8551C32.5083 10.4252 32.5083 9.72831 32.0785 9.29846L27.3633 4.5833C26.9335 4.15344 26.2365 4.15344 25.8067 4.5833C25.3768 5.01315 25.3768 5.71008 25.8067 6.13993L28.6428 8.97604H19.7001V4.47529C19.7001 2.12885 17.7979 0.226685 15.4515 0.226685H4.24861ZM9.8501 2.24414C5.52428 2.24414 2.0175 5.75091 2.0175 10.0767C2.0175 14.4026 5.52428 17.9093 9.8501 17.9093C14.1759 17.9093 17.6827 14.4026 17.6827 10.0767C17.6827 5.75091 14.1759 2.24414 9.8501 2.24414ZM38.6945 7.72789C38.6945 5.38889 40.599 3.48357 42.9596 3.48357C45.3202 3.48357 47.2246 5.38889 47.2246 7.72789C47.2246 10.0527 45.3432 11.9491 43.0024 11.972L42.9586 11.9719L42.9159 11.972C40.5755 11.9487 38.6945 10.0525 38.6945 7.72789ZM38.5498 13.4626C36.8255 12.1426 35.7126 10.0663 35.7126 7.72789C35.7126 3.73188 38.9623 0.501644 42.9596 0.501644C46.9569 0.501644 50.2066 3.73188 50.2066 7.72789C50.2066 10.0668 49.0933 12.1433 47.3684 13.4634C49.0927 14.7835 50.2056 16.8597 50.2056 19.1981H47.2237C47.2237 16.8736 45.3427 14.9774 43.0023 14.954L42.9596 14.9541L42.9157 14.954C40.575 14.9769 38.6936 16.8733 38.6936 19.1981H35.7116C35.7116 16.8592 36.8249 14.7827 38.5498 13.4626Z" fill="white"/>
</svg>
