<svg width="14" height="14" viewBox="0 0 14 14" fill="none" xmlns="http://www.w3.org/2000/svg">
<path d="M7.39097 9.49833H6.74162V6.90093H6.09227M6.74162 4.30352H6.74812M12.5858 6.90093C12.5858 7.66839 12.4346 8.42834 12.1409 9.13739C11.8472 9.84644 11.4168 10.4907 10.8741 11.0334C10.3314 11.5761 9.68713 12.0065 8.97809 12.3002C8.26904 12.5939 7.50909 12.7451 6.74162 12.7451C5.97416 12.7451 5.21421 12.5939 4.50516 12.3002C3.79611 12.0065 3.15186 11.5761 2.60918 11.0334C2.0665 10.4907 1.63602 9.84644 1.34232 9.13739C1.04862 8.42834 0.897461 7.66839 0.897461 6.90093C0.897461 5.35096 1.51318 3.86447 2.60918 2.76848C3.70517 1.67249 5.19166 1.05676 6.74162 1.05676C8.29159 1.05676 9.77808 1.67249 10.8741 2.76848C11.9701 3.86447 12.5858 5.35096 12.5858 6.90093Z" stroke="currentColor" stroke-width="1.5" stroke-linecap="round" stroke-linejoin="round"/>
</svg>
