<svg width="24" height="25" viewBox="0 0 24 25" fill="none" xmlns="http://www.w3.org/2000/svg">
<path fill-rule="evenodd" clip-rule="evenodd" d="M23.5273 12.4251C23.5273 15.5358 22.2915 18.5191 20.0919 20.7187C17.8923 22.9183 14.909 24.154 11.7983 24.154C8.68759 24.154 5.70428 22.9183 3.50467 20.7187C1.30506 18.5191 0.0693359 15.5358 0.0693359 12.4251C0.0693359 9.31436 1.30506 6.33105 3.50467 4.13144C5.70428 1.93183 8.68759 0.696106 11.7983 0.696106C14.909 0.696106 17.8923 1.93183 20.0919 4.13144C22.2915 6.33105 23.5273 9.31436 23.5273 12.4251ZM13.2644 6.56059C13.2644 6.94943 13.11 7.32234 12.835 7.59729C12.5601 7.87224 12.1871 8.02671 11.7983 8.02671C11.4095 8.02671 11.0365 7.87224 10.7616 7.59729C10.4866 7.32234 10.3322 6.94943 10.3322 6.56059C10.3322 6.17175 10.4866 5.79884 10.7616 5.52388C11.0365 5.24893 11.4095 5.09447 11.7983 5.09447C12.1871 5.09447 12.5601 5.24893 12.835 5.52388C13.11 5.79884 13.2644 6.17175 13.2644 6.56059ZM10.3322 10.959C9.94334 10.959 9.57043 11.1134 9.29548 11.3884C9.02053 11.6633 8.86606 12.0362 8.86606 12.4251C8.86606 12.8139 9.02053 13.1868 9.29548 13.4618C9.57043 13.7367 9.94334 13.8912 10.3322 13.8912V18.2896C10.3322 18.6784 10.4866 19.0513 10.7616 19.3263C11.0365 19.6012 11.4095 19.7557 11.7983 19.7557H13.2644C13.6533 19.7557 14.0262 19.6012 14.3011 19.3263C14.5761 19.0513 14.7305 18.6784 14.7305 18.2896C14.7305 17.9007 14.5761 17.5278 14.3011 17.2528C14.0262 16.9779 13.6533 16.8234 13.2644 16.8234V12.4251C13.2644 12.0362 13.11 11.6633 12.835 11.3884C12.5601 11.1134 12.1871 10.959 11.7983 10.959H10.3322Z" fill="white"/>
</svg>
