<svg width="64" height="63" viewBox="0 0 64 63" fill="none" xmlns="http://www.w3.org/2000/svg">
<path fill-rule="evenodd" clip-rule="evenodd" d="M63.0791 31.4121C63.0791 39.6548 59.8047 47.5599 53.9762 53.3884C48.1478 59.2168 40.2427 62.4912 32 62.4912C23.7573 62.4912 15.8522 59.2168 10.0238 53.3884C4.19529 47.5599 0.920898 39.6548 0.920898 31.4121C0.920898 23.1694 4.19529 15.2643 10.0238 9.43587C15.8522 3.6074 23.7573 0.333008 32 0.333008C40.2427 0.333008 48.1478 3.6074 53.9762 9.43587C59.8047 15.2643 63.0791 23.1694 63.0791 31.4121ZM35.8849 46.9517C35.8849 47.982 35.4756 48.9701 34.747 49.6987C34.0185 50.4272 33.0303 50.8365 32 50.8365C30.9697 50.8365 29.9815 50.4272 29.253 49.6987C28.5244 48.9701 28.1151 47.982 28.1151 46.9517C28.1151 45.9213 28.5244 44.9332 29.253 44.2046C29.9815 43.4761 30.9697 43.0668 32 43.0668C33.0303 43.0668 34.0185 43.4761 34.747 44.2046C35.4756 44.9332 35.8849 45.9213 35.8849 46.9517ZM32 11.9877C30.9697 11.9877 29.9815 12.397 29.253 13.1255C28.5244 13.8541 28.1151 14.8422 28.1151 15.8726V31.4121C28.1151 32.4424 28.5244 33.4306 29.253 34.1591C29.9815 34.8877 30.9697 35.297 32 35.297C33.0303 35.297 34.0185 34.8877 34.747 34.1591C35.4756 33.4306 35.8849 32.4424 35.8849 31.4121V15.8726C35.8849 14.8422 35.4756 13.8541 34.747 13.1255C34.0185 12.397 33.0303 11.9877 32 11.9877Z" fill="#E43B70"/>
</svg>
