<svg width="5" height="20" viewBox="0 0 5 20" fill="none" xmlns="http://www.w3.org/2000/svg">
<path fill-rule="evenodd" clip-rule="evenodd" d="M2.08405 4.95397C0.972504 4.95397 0.0714191 4.05289 0.0714192 2.94134C0.0714192 1.8298 0.972504 0.928711 2.08405 0.928711C3.19559 0.928711 4.09668 1.8298 4.09668 2.94134C4.09668 4.05289 3.19559 4.95397 2.08405 4.95397ZM2.08405 12.0254C0.972504 12.0254 0.0714188 11.1243 0.0714188 10.0128C0.0714189 8.90125 0.972504 8.00017 2.08405 8.00017C3.19559 8.00017 4.09668 8.90125 4.09668 10.0128C4.09668 11.1243 3.19559 12.0254 2.08405 12.0254ZM0.0714185 17.0844C0.0714185 18.196 0.972504 19.097 2.08405 19.097C3.19559 19.097 4.09668 18.196 4.09668 17.0844C4.09668 15.9729 3.19559 15.0718 2.08405 15.0718C0.972504 15.0718 0.0714186 15.9729 0.0714185 17.0844Z" fill="currentColor"/>
</svg>
