<svg width="17" height="17" viewBox="0 0 17 17" fill="none" xmlns="http://www.w3.org/2000/svg">
<path d="M8.86611 0.912371C8.74161 0.859002 8.60757 0.831482 8.47211 0.831482C8.33666 0.831482 8.20261 0.859002 8.07811 0.912371L1.07811 3.91237C0.897724 3.98922 0.743906 4.1174 0.63579 4.28097C0.527674 4.44455 0.470032 4.6363 0.470032 4.83237C0.470032 5.02845 0.527674 5.2202 0.63579 5.38377C0.743906 5.54734 0.897724 5.67553 1.07811 5.75237L3.72211 6.88337C3.82025 6.77236 3.94186 6.68458 4.07811 6.62637L8.07811 4.91237C8.19916 4.85842 8.32971 4.82907 8.4622 4.82602C8.59469 4.82297 8.72646 4.84629 8.84985 4.89461C8.97325 4.94293 9.08581 5.0153 9.18099 5.10751C9.27618 5.19971 9.35208 5.30992 9.4043 5.43172C9.45652 5.55352 9.48401 5.68448 9.48517 5.817C9.48633 5.94951 9.46114 6.08094 9.41107 6.20363C9.36099 6.32633 9.28703 6.43785 9.19347 6.5317C9.09992 6.62556 8.98864 6.69989 8.86611 6.75037L6.13911 7.92037L8.07911 8.75137C8.20347 8.8046 8.33734 8.83205 8.47261 8.83205C8.60789 8.83205 8.74175 8.8046 8.86611 8.75137L15.8661 5.75137C16.0459 5.67424 16.1991 5.54606 16.3068 5.38271C16.4145 5.21936 16.4719 5.02801 16.4719 4.83237C16.4719 4.63673 16.4145 4.44538 16.3068 4.28203C16.1991 4.11868 16.0459 3.9905 15.8661 3.91337L8.86611 0.913372V0.912371ZM1.78211 8.22937L3.47211 8.95237V13.0544C3.12587 12.9756 2.77525 12.9175 2.42211 12.8804C2.19426 12.8564 1.98153 12.755 1.81953 12.593C1.65752 12.431 1.55606 12.2182 1.53211 11.9904C1.4006 10.7313 1.48515 9.45898 1.78211 8.22837V8.22937ZM7.77211 15.4054C7.09613 14.7421 6.31997 14.1893 5.47211 13.7674V9.81037L7.29011 10.5904C7.66361 10.7505 8.06574 10.833 8.47211 10.833C8.87848 10.833 9.28062 10.7505 9.65411 10.5904L15.1621 8.22937C15.4608 9.45972 15.5454 10.7323 15.4121 11.9914C15.3882 12.2192 15.2867 12.432 15.1247 12.594C14.9627 12.756 14.75 12.8574 14.5221 12.8814C12.5046 13.0934 10.6187 13.9832 9.17211 15.4054C8.98518 15.5886 8.73387 15.6912 8.47211 15.6912C8.21036 15.6912 7.95904 15.5886 7.77211 15.4054ZM4.47211 16.8324C4.73733 16.8324 4.99168 16.727 5.17922 16.5395C5.36676 16.3519 5.47211 16.0976 5.47211 15.8324V13.7674C4.83611 13.4514 4.16471 13.2124 3.47211 13.0554V15.8324C3.47211 16.0976 3.57747 16.3519 3.76501 16.5395C3.95254 16.727 4.2069 16.8324 4.47211 16.8324Z" fill="#29D391"/>
</svg>
