<svg width="14" height="13" viewBox="0 0 14 13" fill="none" xmlns="http://www.w3.org/2000/svg">
<path d="M5.24369 9.71075H8.13638M6.69034 1.04443V1.66346M10.6298 2.67618L10.1922 3.11383M12.2615 6.61564H11.6425M1.73816 6.61564H1.11914M3.18853 3.11383L2.75088 2.67618M4.50148 8.8045C4.0687 8.37161 3.774 7.82011 3.65464 7.21974C3.53528 6.61937 3.59662 5.99709 3.83091 5.43158C4.0652 4.86607 4.46191 4.38272 4.97088 4.04267C5.47985 3.70261 6.07822 3.5211 6.69034 3.5211C7.30247 3.5211 7.90084 3.70261 8.40981 4.04267C8.91878 4.38272 9.31549 4.86607 9.54978 5.43158C9.78406 5.99709 9.84541 6.61937 9.72605 7.21974C9.60669 7.82011 9.31199 8.37161 8.87921 8.8045L8.53998 9.14311C8.34605 9.33708 8.19222 9.56735 8.08728 9.82077C7.98235 10.0742 7.92835 10.3458 7.92839 10.6201V10.9488C7.92839 11.2771 7.79795 11.592 7.56577 11.8242C7.3336 12.0564 7.01869 12.1868 6.69034 12.1868C6.36199 12.1868 6.04709 12.0564 5.81491 11.8242C5.58274 11.592 5.4523 11.2771 5.4523 10.9488V10.6201C5.4523 10.0661 5.23193 9.53433 4.8407 9.14311L4.50148 8.8045Z" stroke="currentColor" stroke-width="1.5" stroke-linecap="round" stroke-linejoin="round"/>
</svg>
