<svg width="10" height="12" viewBox="0 0 10 12" fill="none" xmlns="http://www.w3.org/2000/svg">
<path fill-rule="evenodd" clip-rule="evenodd" d="M4.63975 0.865479C3.4556 0.865479 2.31995 1.33588 1.48262 2.1732C1.068 2.58779 0.739095 3.07999 0.514698 3.62169C0.290301 4.16339 0.174805 4.74399 0.174805 5.33033C0.174805 5.91667 0.290301 6.49727 0.514698 7.03898C0.739095 7.58068 1.068 8.07288 1.48262 8.48746L4.63975 11.6446L7.79688 8.48746C8.6342 7.65014 9.10461 6.51449 9.10461 5.33033C9.10461 4.14618 8.6342 3.01053 7.79688 2.1732C6.95956 1.33588 5.82391 0.865479 4.63975 0.865479ZM4.63966 7.65346C5.90401 7.65346 6.92897 6.6285 6.92897 5.36415C6.92897 4.09979 5.90401 3.07483 4.63966 3.07483C3.3753 3.07483 2.35034 4.09979 2.35034 5.36415C2.35034 6.6285 3.3753 7.65346 4.63966 7.65346Z" fill="#667394"/>
</svg>
