<svg width="53" height="53" viewBox="0 0 53 53" fill="none" xmlns="http://www.w3.org/2000/svg">
<rect x="0.455078" y="0.0274353" width="52.1519" height="52.1519" rx="12" fill="#232749"/>
<path fill-rule="evenodd" clip-rule="evenodd" d="M35.2963 15.0439C40.28 20.0288 40.28 28.1108 35.2963 33.0957L28.3548 40.0387C27.2047 41.189 25.3401 41.189 24.19 40.0387L17.2485 33.0957C12.2648 28.1108 12.2648 20.0288 17.2485 15.0439C22.2323 10.0591 30.3125 10.0591 35.2963 15.0439ZM26.2728 30.3949C29.9425 30.3949 32.9173 27.4201 32.9173 23.7504C32.9173 20.0808 29.9425 17.1059 26.2728 17.1059C22.6032 17.1059 19.6283 20.0808 19.6283 23.7504C19.6283 27.4201 22.6032 30.3949 26.2728 30.3949Z" fill="#474DFF"/>
</svg>
