<svg width="53" height="53" viewBox="0 0 53 53" fill="none" xmlns="http://www.w3.org/2000/svg">
<rect x="0.741211" y="0.0230713" width="52.1519" height="52.1519" rx="12" fill="#232749"/>
<path d="M26.8171 29.7425V32.1716M19.5301 37.0296H34.1042C34.7484 37.0296 35.3662 36.7737 35.8217 36.3181C36.2773 35.8626 36.5332 35.2448 36.5332 34.6006V27.3135C36.5332 26.6693 36.2773 26.0515 35.8217 25.596C35.3662 25.1404 34.7484 24.8845 34.1042 24.8845H19.5301C18.8859 24.8845 18.268 25.1404 17.8125 25.596C17.357 26.0515 17.1011 26.6693 17.1011 27.3135V34.6006C17.1011 35.2448 17.357 35.8626 17.8125 36.3181C18.268 36.7737 18.8859 37.0296 19.5301 37.0296ZM31.6752 24.8845V20.0265C31.6752 18.7381 31.1633 17.5024 30.2523 16.5913C29.3412 15.6803 28.1056 15.1685 26.8171 15.1685C25.5287 15.1685 24.293 15.6803 23.382 16.5913C22.4709 17.5024 21.9591 18.7381 21.9591 20.0265V24.8845H31.6752Z" stroke="#474DFF" stroke-width="3" stroke-linecap="round" stroke-linejoin="round"/>
</svg>
