<svg width="15" height="17" viewBox="0 0 15 17" fill="none" xmlns="http://www.w3.org/2000/svg">
<path fill-rule="evenodd" clip-rule="evenodd" d="M2.65021 7.47827V5.47827C2.65021 4.15219 3.17699 2.88042 4.11467 1.94274C5.05236 1.00506 6.32413 0.478271 7.65021 0.478271C8.97629 0.478271 10.2481 1.00506 11.1857 1.94274C12.1234 2.88042 12.6502 4.15219 12.6502 5.47827V7.47827C13.1806 7.47827 13.6893 7.68899 14.0644 8.06406C14.4395 8.43913 14.6502 8.94784 14.6502 9.47827V14.4783C14.6502 15.0087 14.4395 15.5174 14.0644 15.8925C13.6893 16.2676 13.1806 16.4783 12.6502 16.4783H2.65021C2.11977 16.4783 1.61107 16.2676 1.23599 15.8925C0.860921 15.5174 0.650208 15.0087 0.650208 14.4783V9.47827C0.650208 8.94784 0.860921 8.43913 1.23599 8.06406C1.61107 7.68899 2.11977 7.47827 2.65021 7.47827ZM10.6502 5.47827V7.47827H4.65021V5.47827C4.65021 4.68262 4.96628 3.91956 5.52889 3.35695C6.0915 2.79434 6.85456 2.47827 7.65021 2.47827C8.44586 2.47827 9.20892 2.79434 9.77153 3.35695C10.3341 3.91956 10.6502 4.68262 10.6502 5.47827Z" fill="#FF4949"/>
</svg>
