<svg width="82" height="82" viewBox="0 0 82 82" fill="none" xmlns="http://www.w3.org/2000/svg">
<path d="M0.324829 21.2451C0.324829 9.64711 9.72685 0.245071 21.3248 0.245071H60.7697C72.3677 0.245071 81.7698 9.64709 81.7698 21.2451V60.69C81.7698 72.288 72.3677 81.69 60.7698 81.69H21.3248C9.72686 81.69 0.324829 72.288 0.324829 60.69V21.2451Z" fill="#474DFF"/>
<path d="M41.0473 21.5372C38.1941 21.5372 35.4578 22.6706 33.4403 24.6881C31.4228 26.7056 30.2894 29.4419 30.2894 32.295V36.5982C29.1481 36.5982 28.0536 37.0515 27.2466 37.8585C26.4396 38.6655 25.9863 39.7601 25.9863 40.9013V51.6592C25.9863 52.8005 26.4396 53.895 27.2466 54.702C28.0536 55.509 29.1481 55.9623 30.2894 55.9623H51.8052C52.9464 55.9623 54.0409 55.509 54.8479 54.702C55.6549 53.895 56.1083 52.8005 56.1083 51.6592V40.9013C56.1083 39.7601 55.6549 38.6655 54.8479 37.8585C54.0409 37.0515 52.9464 36.5982 51.8052 36.5982H34.5926V32.295C34.592 30.7236 35.1648 29.206 36.2034 28.0267C37.242 26.8474 38.6751 26.0876 40.234 25.8896C41.7929 25.6916 43.3705 26.069 44.6709 26.9512C45.9713 27.8334 46.9053 29.1597 47.2976 30.6813C47.4403 31.234 47.7966 31.7074 48.2883 31.9973C48.5317 32.1408 48.8011 32.235 49.0809 32.2745C49.3608 32.3139 49.6457 32.2979 49.9193 32.2273C50.1929 32.1566 50.45 32.0328 50.6758 31.8628C50.9016 31.6928 51.0917 31.48 51.2352 31.2366C51.3788 30.9931 51.473 30.7238 51.5124 30.4439C51.5519 30.1641 51.5358 29.8792 51.4652 29.6056C50.8682 27.2964 49.5211 25.251 47.6354 23.7906C45.7497 22.3302 43.4324 21.5375 41.0473 21.5372Z" fill="white"/>
</svg>
