<svg width="202" height="226" viewBox="0 0 202 226" fill="none" xmlns="http://www.w3.org/2000/svg">
<path d="M13.4375 102.312C13.4375 80.48 31.1362 62.7812 52.9687 62.7812H179.469C201.301 62.7812 219 80.48 219 102.312V173.469C219 195.301 201.301 213 179.469 213H52.9688C31.1362 213 13.4375 195.301 13.4375 173.469V102.312Z" stroke="#3E4B5A" stroke-width="26"/>
<path d="M60.875 15.3437C60.875 -15.2218 85.6532 -40 116.219 -40C146.784 -40 171.562 -15.2218 171.562 15.3437V62.7812H60.875V15.3437Z" stroke="#3E4B5A" stroke-width="26"/>
<path d="M134.718 138.945C137.606 135.14 139.339 130.397 139.339 125.224C139.339 112.443 128.839 102.348 116.219 102.348C103.598 102.348 93.0988 112.443 93.0988 125.224C93.0988 130.397 94.8313 135.14 97.7196 138.945L92.1545 148.418C86.6796 157.737 93.6841 168.915 103.991 168.915H128.447C138.754 168.915 145.758 157.737 140.283 148.418L134.718 138.945Z" stroke="#3E4B5A" stroke-width="18"/>
</svg>
