<svg width="59" height="59" viewBox="0 0 59 59" fill="none" xmlns="http://www.w3.org/2000/svg">
<path d="M37.3398 15.3444C39.0575 13.6267 41.8541 13.6267 43.5718 15.3444C45.2895 17.0621 45.2895 19.8587 43.5718 21.5764C42.5768 22.5715 41.2152 23.0218 39.8326 22.8228C39.7697 22.8124 39.6964 22.8124 39.6336 22.8228C39.2251 22.7705 38.7957 22.8228 38.3872 23.0114C37.8111 23.2732 37.4026 23.755 37.2036 24.3101C37.0046 24.8548 37.0151 25.4727 37.2769 26.0279C38.7538 29.2224 38.073 33.0454 35.5802 35.5383C33.0873 38.0311 29.2643 38.7119 26.0698 37.235C25.4937 36.9732 24.8757 36.9627 24.3206 37.1722C23.776 37.3712 23.3151 37.7797 23.0533 38.3453C22.8857 38.7119 22.8228 39.0889 22.8438 39.466C22.8333 39.5393 22.8333 39.6126 22.8438 39.686C23.0742 41.0895 22.6133 42.5244 21.6078 43.5299C19.8901 45.2477 17.0936 45.2477 15.3758 43.5299C14.5379 42.692 14.0875 41.5922 14.0875 40.4087C14.0875 39.2356 14.5484 38.1253 15.3758 37.2874C16.3709 36.2924 17.7325 35.842 19.115 36.041C19.136 36.041 19.1569 36.041 19.1884 36.041C19.335 36.0724 19.4816 36.0934 19.6387 36.0934C19.9634 36.0934 20.2881 36.0305 20.5919 35.8839C21.1575 35.6221 21.5555 35.1612 21.765 34.627C21.9744 34.0719 21.9744 33.4435 21.7021 32.8674C20.2253 29.6728 20.9061 25.8498 23.3989 23.357C25.8917 20.8642 29.7147 20.1834 32.9093 21.6602C33.4749 21.9221 34.1033 21.9325 34.648 21.7335C35.1926 21.5345 35.6639 21.126 35.9258 20.5604C36.1248 20.1205 36.1772 19.6492 36.1039 19.1988V19.1884C35.8734 17.7848 36.3343 16.3499 37.3398 15.3444ZM32.9826 32.9407C34.8889 31.0344 34.8889 27.9446 32.9826 26.0383C31.0763 24.1321 27.9865 24.1321 26.0802 26.0383C24.174 27.9446 24.174 31.0344 26.0802 32.9407C27.9865 34.847 31.0763 34.847 32.9826 32.9407ZM29.4948 0C45.7818 0 58.9895 13.2077 58.9895 29.4948C58.9895 45.7818 45.7923 59 29.4948 59C13.1972 59 0 45.7923 0 29.4948C0 13.1972 13.2077 0 29.4948 0ZM45.2162 23.2208C47.8243 20.6128 47.8243 16.3918 45.2162 13.7838C42.6082 11.1758 38.3872 11.1758 35.7792 13.7838C34.8156 14.7474 34.2081 15.9414 33.9567 17.1878C29.2329 15.4072 23.8074 16.5384 20.1939 20.152C16.5803 23.7655 15.4491 29.191 17.2402 33.9253C15.9833 34.1766 14.7893 34.7841 13.8152 35.7582C11.2072 38.3662 11.2072 42.5873 13.8152 45.1953C16.4232 47.8033 20.6442 47.8033 23.2523 45.1953C24.2263 44.2212 24.8443 43.0062 25.0852 41.7493C26.5516 42.294 28.0808 42.5663 29.5995 42.5663C32.9826 42.5663 36.3238 41.2571 38.8061 38.7747C42.3987 35.1821 43.5404 29.788 41.7912 25.0643C43.0376 24.8024 44.2421 24.1949 45.2162 23.2208Z" fill="white"/>
</svg>
