<svg width="36" height="35" viewBox="0 0 36 35" fill="none" xmlns="http://www.w3.org/2000/svg">
<rect x="0.453369" width="35" height="35" rx="10" fill="#474DFF"/>
<path d="M21.0125 11.981C21.6824 11.3113 22.7729 11.3113 23.4427 11.981C24.1125 12.6507 24.1125 13.741 23.4427 14.4108C23.0547 14.7987 22.5237 14.9743 21.9846 14.8967C21.9601 14.8926 21.9315 14.8926 21.907 14.8967C21.7477 14.8763 21.5803 14.8967 21.421 14.9702C21.1963 15.0723 21.037 15.2601 20.9594 15.4766C20.8818 15.6889 20.8859 15.9299 20.988 16.1463C21.5639 17.3918 21.2984 18.8823 20.3264 19.8542C19.3543 20.8261 17.8635 21.0915 16.6178 20.5157C16.3932 20.4136 16.1522 20.4096 15.9357 20.4912C15.7233 20.5688 15.5436 20.7281 15.4415 20.9486C15.3762 21.0915 15.3517 21.2385 15.3598 21.3855C15.3557 21.4141 15.3557 21.4427 15.3598 21.4713C15.4497 22.0185 15.27 22.578 14.8779 22.97C14.208 23.6397 13.1175 23.6397 12.4477 22.97C12.121 22.6433 11.9453 22.2145 11.9453 21.7531C11.9453 21.2957 12.125 20.8628 12.4477 20.5362C12.8357 20.1482 13.3667 19.9726 13.9058 20.0502C13.914 20.0502 13.9221 20.0502 13.9344 20.0502C13.9916 20.0625 14.0488 20.0706 14.11 20.0706C14.2366 20.0706 14.3632 20.0461 14.4817 19.989C14.7022 19.8869 14.8574 19.7072 14.9391 19.4989C15.0208 19.2825 15.0208 19.0375 14.9146 18.8129C14.3387 17.5674 14.6042 16.0769 15.5763 15.105C16.5484 14.1331 18.0391 13.8676 19.2849 14.4434C19.5054 14.5455 19.7505 14.5496 19.9629 14.472C20.1752 14.3944 20.359 14.2352 20.4611 14.0146C20.5387 13.8431 20.5592 13.6594 20.5306 13.4838V13.4797C20.4407 12.9325 20.6204 12.373 21.0125 11.981ZM19.3134 18.8415C20.0568 18.0982 20.0568 16.8936 19.3134 16.1504C18.5701 15.4072 17.3652 15.4072 16.6219 16.1504C15.8785 16.8936 15.8785 18.0982 16.6219 18.8415C17.3652 19.5847 18.5701 19.5847 19.3134 18.8415ZM17.9534 5.99854C24.3045 5.99854 29.4548 11.148 29.4548 17.498C29.4548 23.848 24.3086 29.0015 17.9534 29.0015C11.5982 29.0015 6.4519 23.852 6.4519 17.498C6.4519 11.1439 11.6022 5.99854 17.9534 5.99854ZM24.0839 15.0519C25.1009 14.0351 25.1009 12.3894 24.0839 11.3726C23.0669 10.3557 21.421 10.3557 20.404 11.3726C20.0282 11.7482 19.7913 12.2138 19.6933 12.6997C17.8513 12.0055 15.7356 12.4465 14.3265 13.8554C12.9174 15.2642 12.4763 17.3795 13.1747 19.2253C12.6846 19.3233 12.219 19.5602 11.8391 19.94C10.8221 20.9568 10.8221 22.6025 11.8391 23.6193C12.8561 24.6361 14.5021 24.6361 15.5191 23.6193C15.899 23.2395 16.1399 22.7658 16.2339 22.2758C16.8057 22.4881 17.402 22.5943 17.9942 22.5943C19.3134 22.5943 20.6163 22.0838 21.5843 21.116C22.9853 19.7154 23.4305 17.6123 22.7484 15.7706C23.2344 15.6685 23.7041 15.4317 24.0839 15.0519Z" fill="white"/>
</svg>
