<svg width="19" height="20" viewBox="0 0 19 20" fill="none" xmlns="http://www.w3.org/2000/svg">
<path fill-rule="evenodd" clip-rule="evenodd" d="M9.35916 19.3611C14.4512 19.3611 18.5792 15.2332 18.5792 10.1411C18.5792 5.04908 14.4512 0.921143 9.35916 0.921143C4.2671 0.921143 0.13916 5.04908 0.13916 10.1411C0.13916 15.2332 4.2671 19.3611 9.35916 19.3611ZM5.86205 7.02505C5.86205 6.61176 5.52701 6.27672 5.11372 6.27672C4.70043 6.27672 4.36539 6.61176 4.36539 7.02505V13.2572C4.36539 13.6705 4.70043 14.0055 5.11372 14.0055C5.52701 14.0055 5.86205 13.6705 5.86205 13.2572V7.02505ZM14.353 7.02506C14.353 6.61177 14.0179 6.27673 13.6047 6.27673C13.1914 6.27673 12.8563 6.61177 12.8563 7.02506V13.2572C12.8563 13.6705 13.1914 14.0055 13.6047 14.0055C14.0179 14.0055 14.353 13.6705 14.353 13.2572V7.02506ZM11.4819 8.69517C11.8952 8.69517 12.2302 9.03021 12.2302 9.4435V13.2572C12.2302 13.6705 11.8952 14.0055 11.4819 14.0055C11.0686 14.0055 10.7336 13.6705 10.7336 13.2572V9.4435C10.7336 9.03021 11.0686 8.69517 11.4819 8.69517ZM7.98477 9.4435C7.98477 9.03021 7.64974 8.69517 7.23645 8.69517C6.82316 8.69517 6.48812 9.03021 6.48812 9.4435V13.2572C6.48812 13.6705 6.82316 14.0055 7.23645 14.0055C7.64974 14.0055 7.98478 13.6705 7.98478 13.2572L7.98477 9.4435ZM9.35918 10.9276C9.77247 10.9276 10.1075 11.2626 10.1075 11.6759V13.2572C10.1075 13.6705 9.77247 14.0055 9.35918 14.0055C8.94589 14.0055 8.61086 13.6705 8.61086 13.2572V11.6759C8.61086 11.2626 8.94589 10.9276 9.35918 10.9276Z" fill="#00BDF9"/>
</svg>
