<svg width="18" height="15" viewBox="0 0 18 15" fill="none" xmlns="http://www.w3.org/2000/svg">
<path fill-rule="evenodd" clip-rule="evenodd" d="M0.131958 1.47989C0.131958 1.15775 0.259927 0.848802 0.487714 0.621015C0.715501 0.393228 1.02445 0.265259 1.34659 0.265259H15.9221C16.2443 0.265259 16.5532 0.393228 16.781 0.621015C17.0088 0.848802 17.1367 1.15775 17.1367 1.47989C17.1367 1.80203 17.0088 2.11097 16.781 2.33876C16.5532 2.56654 16.2443 2.69451 15.9221 2.69451H1.34659C1.02445 2.69451 0.715501 2.56654 0.487714 2.33876C0.259927 2.11097 0.131958 1.80203 0.131958 1.47989ZM0.131958 7.55303C0.131958 7.23089 0.259927 6.92194 0.487714 6.69415C0.715501 6.46637 1.02445 6.3384 1.34659 6.3384H15.9221C16.2443 6.3384 16.5532 6.46637 16.781 6.69415C17.0088 6.92194 17.1367 7.23089 17.1367 7.55303C17.1367 7.87516 17.0088 8.18411 16.781 8.4119C16.5532 8.63968 16.2443 8.76765 15.9221 8.76765H1.34659C1.02445 8.76765 0.715501 8.63968 0.487714 8.4119C0.259927 8.18411 0.131958 7.87516 0.131958 7.55303ZM0.131958 13.6262C0.131958 13.304 0.259927 12.9951 0.487714 12.7673C0.715501 12.5395 1.02445 12.4115 1.34659 12.4115H15.9221C16.2443 12.4115 16.5532 12.5395 16.781 12.7673C17.0088 12.9951 17.1367 13.304 17.1367 13.6262C17.1367 13.9483 17.0088 14.2572 16.781 14.485C16.5532 14.7128 16.2443 14.8408 15.9221 14.8408H1.34659C1.02445 14.8408 0.715501 14.7128 0.487714 14.485C0.259927 14.2572 0.131958 13.9483 0.131958 13.6262Z" fill="#C2C5E4"/>
</svg>
