<svg width="15" height="16" viewBox="0 0 15 16" fill="none" xmlns="http://www.w3.org/2000/svg">
<path fill-rule="evenodd" clip-rule="evenodd" d="M0.397461 3.68018C0.397461 2.88453 0.713532 2.12146 1.27614 1.55886C1.83875 0.996246 2.60181 0.680176 3.39746 0.680176H13.3975C13.5832 0.680176 13.7652 0.73189 13.9232 0.829525C14.0812 0.92716 14.2088 1.06686 14.2919 1.23296C14.3749 1.39907 14.4101 1.58502 14.3934 1.76998C14.3767 1.95494 14.3089 2.13161 14.1975 2.28018L11.6475 5.68018L14.1975 9.08018C14.3089 9.22874 14.3767 9.40541 14.3934 9.59037C14.4101 9.77533 14.3749 9.96128 14.2919 10.1274C14.2088 10.2935 14.0812 10.4332 13.9232 10.5308C13.7652 10.6285 13.5832 10.6802 13.3975 10.6802H3.39746C3.13224 10.6802 2.87789 10.7855 2.69035 10.9731C2.50282 11.1606 2.39746 11.415 2.39746 11.6802V14.6802C2.39746 14.9454 2.2921 15.1997 2.10457 15.3873C1.91703 15.5748 1.66268 15.6802 1.39746 15.6802C1.13224 15.6802 0.87789 15.5748 0.690354 15.3873C0.502818 15.1997 0.397461 14.9454 0.397461 14.6802V3.68018Z" fill="currentColor"/>
</svg>
