<svg width="75" height="92" viewBox="0 0 75 92" fill="none" xmlns="http://www.w3.org/2000/svg">
<rect x="9.09082" y="6.36176" width="52.1554" height="79.548" rx="8" fill="white" stroke="#13162E" stroke-width="2"/>
<rect x="4.02643" y="0.907227" width="62.2841" height="90.0403" rx="11.5" stroke="#13162E"/>
<path d="M61.2462 24.4623H69.5463C71.4889 24.4623 73.0637 26.0372 73.0637 27.9798C73.0637 29.9225 71.4889 31.4973 69.5462 31.4973H61.2462V24.4623Z" fill="white" stroke="#13162E" stroke-width="2"/>
<path d="M61.2462 12.5669H73.0637V15.2547H61.2462V12.5669Z" fill="white" stroke="#13162E"/>
<path d="M61.2462 78.4084H73.0637V75.7207H61.2462V78.4084Z" fill="white" stroke="#13162E"/>
<path d="M66.303 15.2546H73.0638V17.9424H66.303V15.2546Z" fill="white" stroke="#13162E"/>
<path d="M66.303 75.7207H73.0638V73.0329H66.303V75.7207Z" fill="white" stroke="#13162E"/>
<path d="M9.09082 24.4623H4.55627C2.61361 24.4623 1.03877 26.0372 1.03877 27.9798C1.03877 29.9225 2.61361 31.4973 4.55627 31.4973H9.09082V24.4623Z" fill="white" stroke="#13162E" stroke-width="2"/>
<path d="M61.2462 58.79H69.5463C71.4889 58.79 73.0637 60.3648 73.0637 62.3075C73.0637 64.2501 71.4889 65.825 69.5462 65.825H61.2462V58.79Z" fill="white" stroke="#13162E" stroke-width="2"/>
<path d="M9.09082 58.79H4.55627C2.61361 58.79 1.03877 60.3648 1.03877 62.3075C1.03877 64.2501 2.61361 65.825 4.55627 65.825H9.09082V58.79Z" fill="white" stroke="#13162E" stroke-width="2"/>
<line x1="46.5585" y1="6.0082" x2="60.7043" y2="20.154" stroke="#13162E"/>
<line x1="34.7677" y1="6.76254" x2="60.7043" y2="32.6992" stroke="#13162E"/>
<line x1="21.5315" y1="6.65298" x2="60.7043" y2="45.8257" stroke="#13162E"/>
<line x1="10.4778" y1="10.0476" x2="60.7043" y2="60.274" stroke="#13162E"/>
<line x1="9.19566" y1="24.0395" x2="60.7043" y2="75.5481" stroke="#13162E"/>
<line x1="9.12638" y1="39.5161" x2="54.3989" y2="84.7886" stroke="#13162E"/>
<line x1="9.12638" y1="54.8227" x2="39.4729" y2="85.1693" stroke="#13162E"/>
<line x1="9.12638" y1="70.4558" x2="24.2937" y2="85.6231" stroke="#13162E"/>
<rect x="18.8069" y="68.0007" width="32.7231" height="5.61724" fill="white" stroke="#13162E"/>
</svg>
