<svg width="76" height="76" viewBox="0 0 76 76" fill="none" xmlns="http://www.w3.org/2000/svg">
<rect x="1.47498" y="1.50714" width="72.8794" height="72.8794" rx="13" stroke="#13162E" stroke-width="2"/>
<rect x="7.68701" y="7.71918" width="60.4553" height="60.4553" rx="9.5" stroke="#13162E"/>
<g opacity="0.1">
<path d="M21.017 32.49H17.8555V38.5856H17.7645L13.625 32.49H10.9411V44.1353H14.1026V38.0169H14.1708L18.3786 44.1353H21.017V32.49Z" fill="black"/>
<path d="M22.5125 44.1353H30.8825V41.5879H25.674V39.5863H30.4731V37.0389H25.674V35.0374H30.9052V32.49H22.5125V44.1353Z" fill="black"/>
<path d="M32.4732 44.1353H37.9547C40.485 44.1353 42.0487 42.7535 42.0487 40.8373C42.0487 39.194 40.8376 38.1193 39.3421 38.0624V37.9487C40.6897 37.6815 41.5938 36.6864 41.5938 35.4013C41.5938 33.6272 40.1837 32.49 37.5225 32.49H32.4732V44.1353ZM35.6347 41.6106V39.1542H37.1586C38.1196 39.1542 38.7053 39.6091 38.7053 40.4279C38.7053 41.2069 38.1764 41.6106 37.1131 41.6106H35.6347ZM35.6347 37.1981V34.9692H36.9767C37.7613 34.9692 38.3413 35.3672 38.3413 36.0836C38.3413 36.8001 37.7613 37.1981 36.9312 37.1981H35.6347Z" fill="black"/>
<path d="M43.1689 44.1353H46.3304V40.2914H47.4221L49.4692 44.1353H52.9036L50.5382 39.791C51.7778 39.194 52.517 38.0624 52.517 36.4476C52.517 33.9684 50.7827 32.49 48.1955 32.49H43.1689V44.1353ZM46.3304 37.835V35.0146H47.4449C48.5537 35.0146 49.219 35.4468 49.219 36.4476C49.219 37.4426 48.5537 37.835 47.4449 37.835H46.3304Z" fill="black"/>
<path d="M56.8896 44.1353L57.5606 41.9063H61.4044L62.0754 44.1353H65.4871L61.6433 32.49H57.3218L53.4779 44.1353H56.8896ZM58.2771 39.5408L59.437 35.697H59.528L60.688 39.5408H58.2771Z" fill="black"/>
</g>
</svg>
