<svg width="17" height="17" viewBox="0 0 17 17" fill="none" xmlns="http://www.w3.org/2000/svg">
<path fill-rule="evenodd" clip-rule="evenodd" d="M8.39746 16.4893C10.5192 16.4893 12.554 15.6464 14.0543 14.1461C15.5546 12.6458 16.3975 10.611 16.3975 8.48926C16.3975 6.36753 15.5546 4.33269 14.0543 2.8324C12.554 1.33211 10.5192 0.489258 8.39746 0.489258C6.27573 0.489258 4.2409 1.33211 2.74061 2.8324C1.24032 4.33269 0.397461 6.36753 0.397461 8.48926C0.397461 10.611 1.24032 12.6458 2.74061 14.1461C4.2409 15.6464 6.27573 16.4893 8.39746 16.4893ZM9.39746 4.48926C9.39746 4.22404 9.2921 3.96969 9.10457 3.78215C8.91703 3.59461 8.66268 3.48926 8.39746 3.48926C8.13224 3.48926 7.87789 3.59461 7.69035 3.78215C7.50282 3.96969 7.39746 4.22404 7.39746 4.48926V8.48926C7.39752 8.75445 7.50291 9.00877 7.69046 9.19626L10.5185 12.0253C10.6114 12.1182 10.7217 12.1919 10.8431 12.2422C10.9645 12.2924 11.0946 12.3183 11.226 12.3183C11.3574 12.3183 11.4875 12.2924 11.6089 12.2422C11.7303 12.1919 11.8406 12.1182 11.9335 12.0253C12.0264 11.9323 12.1001 11.822 12.1504 11.7007C12.2006 11.5793 12.2265 11.4492 12.2265 11.3178C12.2265 11.1864 12.2006 11.0563 12.1504 10.9349C12.1001 10.8135 12.0264 10.7032 11.9335 10.6103L9.39746 8.07526V4.48926Z" fill="currentColor"/>
</svg>
