<svg width="67" height="77" viewBox="0 0 67 77" fill="none" xmlns="http://www.w3.org/2000/svg">
<path fill-rule="evenodd" clip-rule="evenodd" d="M62.3586 1.69729C60.6753 0.0139902 57.9462 0.0139897 56.2629 1.69729L50.9806 6.9796C38.863 -0.125477 23.0308 1.52109 12.6349 11.9193C2.2408 22.3158 0.593399 38.1479 7.69271 50.2675L1.66457 56.2956C-0.0187247 57.9789 -0.0187251 60.7081 1.66457 62.3914C3.34787 64.0747 6.07703 64.0747 7.76033 62.3914L62.3586 7.79305C64.0419 6.10975 64.0419 3.38059 62.3586 1.69729ZM19.3434 38.6168L40.1192 17.8409C38.5079 17.3144 36.7872 17.0297 35 17.0297C25.905 17.0297 18.5322 24.4026 18.5322 33.4975C18.5322 35.2847 18.8169 37.0054 19.3434 38.6168ZM50.0503 26.8034L60.8302 16.0235C69.5818 28.3737 68.4266 45.5948 57.3647 56.6592L40.1609 73.8668C37.3105 76.7179 32.6891 76.7179 29.8387 73.8668L16.4143 60.4394L28.3059 48.5479C30.3511 49.4589 32.6164 49.9653 35 49.9653C44.0949 49.9653 51.4678 42.5924 51.4678 33.4975C51.4678 31.114 50.9614 28.8487 50.0503 26.8034Z" fill="currentColor"/>
</svg>
