<svg width="17" height="17" viewBox="0 0 17 17" fill="none" xmlns="http://www.w3.org/2000/svg">
<path fill-rule="evenodd" clip-rule="evenodd" d="M8.25488 16.4462C10.3766 16.4462 12.4114 15.6033 13.9117 14.103C15.412 12.6027 16.2549 10.5679 16.2549 8.44617C16.2549 6.32444 15.412 4.2896 13.9117 2.78931C12.4114 1.28902 10.3766 0.446167 8.25488 0.446167C6.13315 0.446167 4.09832 1.28902 2.59803 2.78931C1.09774 4.2896 0.254883 6.32444 0.254883 8.44617C0.254883 10.5679 1.09774 12.6027 2.59803 14.103C4.09832 15.6033 6.13315 16.4462 8.25488 16.4462ZM6.96188 5.73917C6.77328 5.55701 6.52068 5.45621 6.25848 5.45849C5.99629 5.46077 5.74547 5.56594 5.56006 5.75135C5.37466 5.93676 5.26949 6.18757 5.26721 6.44977C5.26493 6.71196 5.36573 6.96456 5.54788 7.15317L6.84088 8.44617L5.54788 9.73917C5.45237 9.83141 5.37619 9.94176 5.32378 10.0638C5.27137 10.1858 5.24379 10.317 5.24263 10.4498C5.24148 10.5825 5.26678 10.7142 5.31706 10.8371C5.36734 10.96 5.4416 11.0717 5.53549 11.1656C5.62938 11.2595 5.74103 11.3337 5.86393 11.384C5.98682 11.4343 6.11851 11.4596 6.25128 11.4584C6.38406 11.4573 6.51528 11.4297 6.63729 11.3773C6.75929 11.3249 6.86964 11.2487 6.96188 11.1532L8.25488 9.86017L9.54788 11.1532C9.73649 11.3353 9.98909 11.4361 10.2513 11.4338C10.5135 11.4316 10.7643 11.3264 10.9497 11.141C11.1351 10.9556 11.2403 10.7048 11.2426 10.4426C11.2448 10.1804 11.144 9.92777 10.9619 9.73917L9.66888 8.44617L10.9619 7.15317C11.144 6.96456 11.2448 6.71196 11.2426 6.44977C11.2403 6.18757 11.1351 5.93676 10.9497 5.75135C10.7643 5.56594 10.5135 5.46077 10.2513 5.45849C9.98909 5.45621 9.73649 5.55701 9.54788 5.73917L8.25488 7.03217L6.96188 5.73917Z" fill="#BEC3E6"/>
</svg>
