<svg width="19" height="17" viewBox="0 0 19 17" fill="none" xmlns="http://www.w3.org/2000/svg">
<path d="M3.05676 0.316906C2.86816 0.134748 2.61556 0.0339532 2.35336 0.0362317C2.09116 0.0385101 1.84035 0.143679 1.65494 0.329087C1.46953 0.514495 1.36437 0.765308 1.36209 1.0275C1.35981 1.2897 1.4606 1.5423 1.64276 1.73091L8.56376 8.65291C8.61376 8.71491 8.66876 8.77091 8.73176 8.81991L15.6418 15.7309C15.7346 15.8238 15.8448 15.8975 15.9662 15.9478C16.0875 15.9981 16.2176 16.0241 16.3489 16.0241C16.4803 16.0242 16.6103 15.9983 16.7317 15.9481C16.8531 15.8979 16.9634 15.8243 17.0563 15.7314C17.1492 15.6386 17.2229 15.5283 17.2732 15.407C17.3235 15.2857 17.3494 15.1556 17.3495 15.0243C17.3495 14.8929 17.3237 14.7628 17.2735 14.6415C17.2232 14.5201 17.1496 14.4098 17.0568 14.3169L16.3818 13.6419C17.7634 11.9121 18.4592 9.73378 18.3359 7.52334C18.2127 5.3129 17.2792 3.2254 15.7138 1.65991C15.6215 1.5644 15.5112 1.48821 15.3892 1.4358C15.2672 1.3834 15.1359 1.35581 15.0032 1.35466C14.8704 1.3535 14.7387 1.3788 14.6158 1.42908C14.4929 1.47936 14.3813 1.55362 14.2874 1.64751C14.1935 1.7414 14.1192 1.85306 14.0689 1.97595C14.0187 2.09885 13.9934 2.23053 13.9945 2.36331C13.9957 2.49609 14.0233 2.62731 14.0757 2.74931C14.1281 2.87131 14.2043 2.98166 14.2998 3.07391C15.4901 4.26436 16.2117 5.84382 16.3323 7.52295C16.453 9.20209 15.9647 10.8685 14.9568 12.2169L13.5218 10.7819C14.1572 9.82017 14.441 8.66846 14.3251 7.5216C14.2092 6.37473 13.7008 5.30308 12.8858 4.48791C12.698 4.30013 12.4433 4.19464 12.1778 4.19464C11.9122 4.19464 11.6575 4.30013 11.4698 4.48791C11.282 4.67568 11.1765 4.93035 11.1765 5.19591C11.1765 5.46146 11.282 5.71613 11.4698 5.90391C12.3938 6.82691 12.5898 8.20391 12.0568 9.31891L10.0648 7.32691C10.0588 7.32082 10.0528 7.31482 10.0468 7.30891L3.05676 0.317906V0.316906ZM2.58776 6.21091C2.65619 5.95457 2.61998 5.68156 2.48711 5.45192C2.35424 5.22228 2.13559 5.05483 1.87926 4.98641C1.62293 4.91798 1.34991 4.95418 1.12028 5.08705C0.890638 5.21992 0.723187 5.43857 0.654761 5.69491C-0.145239 8.69491 0.629761 12.0309 2.98576 14.3879C3.07867 14.4808 3.18896 14.5544 3.31033 14.6046C3.4317 14.6548 3.56177 14.6807 3.69312 14.6806C3.82446 14.6806 3.95452 14.6546 4.07585 14.6043C4.19718 14.554 4.30742 14.4803 4.40026 14.3874C4.49311 14.2945 4.56674 14.1842 4.61696 14.0628C4.66719 13.9415 4.69301 13.8114 4.69296 13.6801C4.69292 13.5487 4.667 13.4187 4.61669 13.2973C4.56639 13.176 4.49267 13.0658 4.39976 12.9729C3.53051 12.1042 2.90538 11.0219 2.58729 9.83481C2.2692 8.64776 2.26936 7.39787 2.58776 6.21091ZM6.74976 9.52391C6.68725 9.4044 6.6012 9.29878 6.49681 9.21339C6.39242 9.128 6.27183 9.06461 6.1423 9.02703C6.01277 8.98945 5.87698 8.97846 5.74309 8.99473C5.60921 9.01099 5.48 9.05417 5.36323 9.12166C5.24647 9.18916 5.14456 9.27957 5.06365 9.38747C4.98273 9.49537 4.92448 9.61852 4.89239 9.74952C4.8603 9.88052 4.85505 10.0166 4.87694 10.1497C4.89883 10.2828 4.94741 10.4101 5.01976 10.5239C5.23376 10.8949 5.49976 11.2439 5.81476 11.5589C6.00336 11.7411 6.25597 11.8419 6.51816 11.8396C6.78036 11.8373 7.03117 11.7321 7.21658 11.5467C7.40199 11.3613 7.50716 11.1105 7.50944 10.8483C7.51171 10.5861 7.41092 10.3335 7.22876 10.1449C7.03776 9.95391 6.87876 9.74491 6.75076 9.52291L6.74976 9.52391Z" fill="#C4C8E5"/>
</svg>
