<svg width="19" height="22" viewBox="0 0 19 22" fill="none" xmlns="http://www.w3.org/2000/svg">
<path d="M9.98169 0.737701C7.93567 0.737701 5.97345 1.55048 4.5267 2.99723C3.07995 4.44399 2.26717 6.4062 2.26717 8.45222V13.0629L1.35814 13.972C1.17838 14.1518 1.05597 14.3809 1.00638 14.6302C0.956792 14.8796 0.982254 15.1381 1.07955 15.373C1.17684 15.6079 1.3416 15.8087 1.55299 15.95C1.76438 16.0913 2.01291 16.1667 2.26717 16.1667H17.6962C17.9505 16.1667 18.199 16.0913 18.4104 15.95C18.6218 15.8087 18.7865 15.6079 18.8838 15.373C18.9811 15.1381 19.0066 14.8796 18.957 14.6302C18.9074 14.3809 18.785 14.1518 18.6052 13.972L17.6962 13.0629V8.45222C17.6962 6.4062 16.8834 4.44399 15.4367 2.99723C13.9899 1.55048 12.0277 0.737701 9.98169 0.737701ZM9.98169 21.3098C8.95868 21.3098 7.97757 20.9034 7.25419 20.18C6.53082 19.4566 6.12443 18.4755 6.12443 17.4525H13.839C13.839 18.4755 13.4326 19.4566 12.7092 20.18C11.9858 20.9034 11.0047 21.3098 9.98169 21.3098Z" fill="currentColor"/>
</svg>
