<svg width="24" height="26" viewBox="0 0 24 26" fill="none" xmlns="http://www.w3.org/2000/svg">
<path d="M9.28076 4.7377C7.23474 4.7377 5.27253 5.55048 3.82577 6.99723C2.37902 8.44399 1.56624 10.4062 1.56624 12.4522V17.0629L0.657213 17.972C0.477453 18.1518 0.355041 18.3809 0.305453 18.6302C0.255864 18.8796 0.281326 19.1381 0.378619 19.373C0.475912 19.6079 0.640668 19.8087 0.852058 19.95C1.06345 20.0913 1.31198 20.1667 1.56624 20.1667H16.9953C17.2495 20.1667 17.4981 20.0913 17.7095 19.95C17.9209 19.8087 18.0856 19.6079 18.1829 19.373C18.2802 19.1381 18.3057 18.8796 18.2561 18.6302C18.2065 18.3809 18.0841 18.1518 17.9043 17.972L16.9953 17.0629V12.4522C16.9953 10.4062 16.1825 8.44399 14.7358 6.99723C13.289 5.55048 11.3268 4.7377 9.28076 4.7377ZM9.28076 25.3098C8.25775 25.3098 7.27664 24.9034 6.55327 24.18C5.82989 23.4566 5.4235 22.4755 5.4235 21.4525H13.138C13.138 22.4755 12.7316 23.4566 12.0083 24.18C11.2849 24.9034 10.3038 25.3098 9.28076 25.3098Z" fill="currentColor"/>
<circle cx="17.3782" cy="6.17062" r="5.08916" fill="#29D391" stroke="#161B3D" stroke-width="2"/>
</svg>
