<svg width="15" height="19" viewBox="0 0 15 19" fill="none" xmlns="http://www.w3.org/2000/svg">
<path fill-rule="evenodd" clip-rule="evenodd" d="M9.09048 0.906673C9.29349 0.970515 9.47083 1.09745 9.59673 1.26903C9.72262 1.4406 9.7905 1.64787 9.79048 1.86067V6.86067H13.7905C13.9734 6.86059 14.1528 6.91068 14.3093 7.0055C14.4657 7.10031 14.5931 7.23621 14.6777 7.39842C14.7622 7.56062 14.8007 7.74291 14.7888 7.92544C14.777 8.10797 14.7153 8.28376 14.6105 8.43367L7.61048 18.4337C7.48866 18.6082 7.31431 18.7393 7.11282 18.8079C6.91133 18.8765 6.69321 18.8791 6.49018 18.8152C6.28715 18.7512 6.10982 18.6242 5.98398 18.4525C5.85813 18.2809 5.79035 18.0735 5.79048 17.8607V12.8607H1.79048C1.60757 12.8608 1.42813 12.8107 1.2717 12.7158C1.11527 12.621 0.987849 12.4851 0.903294 12.3229C0.818738 12.1607 0.780292 11.9784 0.792139 11.7959C0.803986 11.6134 0.865672 11.4376 0.970484 11.2877L7.97048 1.28767C8.09249 1.11346 8.26687 0.982686 8.46829 0.914349C8.6697 0.846013 8.88765 0.843674 9.09048 0.907673V0.906673Z" fill="currentColor"/>
</svg>
