<svg width="34" height="34" viewBox="0 0 34 34" fill="none" xmlns="http://www.w3.org/2000/svg">
<path fill-rule="evenodd" clip-rule="evenodd" d="M17 34C21.5087 34 25.8327 32.2089 29.0208 29.0208C32.2089 25.8327 34 21.5087 34 17C34 12.4913 32.2089 8.1673 29.0208 4.97918C25.8327 1.79107 21.5087 0 17 0C12.4913 0 8.1673 1.79107 4.97918 4.97918C1.79107 8.1673 0 12.4913 0 17C0 21.5087 1.79107 25.8327 4.97918 29.0208C8.1673 32.2089 12.4913 34 17 34ZM24.8774 14.2524C25.2645 13.8516 25.4786 13.3148 25.4738 12.7576C25.469 12.2005 25.2455 11.6675 24.8515 11.2735C24.4575 10.8795 23.9245 10.656 23.3674 10.6512C22.8102 10.6464 22.2734 10.8605 21.8726 11.2476L14.875 18.2453L12.1274 15.4976C11.7266 15.1105 11.1898 14.8964 10.6326 14.9012C10.0755 14.906 9.5425 15.1295 9.14851 15.5235C8.75452 15.9175 8.53103 16.4505 8.52619 17.0076C8.52135 17.5648 8.73554 18.1016 9.12263 18.5024L13.3726 22.7524C13.7711 23.1507 14.3115 23.3745 14.875 23.3745C15.4385 23.3745 15.9789 23.1507 16.3774 22.7524L24.8774 14.2524Z" fill="currentColor"/>
</svg>
