<svg width="17" height="17" viewBox="0 0 17 17" fill="none" xmlns="http://www.w3.org/2000/svg">
<path fill-rule="evenodd" clip-rule="evenodd" d="M8.40039 16.3217C10.5221 16.3217 12.557 15.4788 14.0572 13.9785C15.5575 12.4782 16.4004 10.4434 16.4004 8.32166C16.4004 6.19992 15.5575 4.16509 14.0572 2.6648C12.557 1.16451 10.5221 0.321655 8.40039 0.321655C6.27866 0.321655 4.24383 1.16451 2.74354 2.6648C1.24325 4.16509 0.400391 6.19992 0.400391 8.32166C0.400391 10.4434 1.24325 12.4782 2.74354 13.9785C4.24383 15.4788 6.27866 16.3217 8.40039 16.3217ZM5.40039 7.32166C5.13517 7.32166 4.88082 7.42701 4.69328 7.61455C4.50575 7.80208 4.40039 8.05644 4.40039 8.32166C4.40039 8.58687 4.50575 8.84123 4.69328 9.02876C4.88082 9.2163 5.13517 9.32166 5.40039 9.32166H11.4004C11.6656 9.32166 11.92 9.2163 12.1075 9.02876C12.295 8.84123 12.4004 8.58687 12.4004 8.32166C12.4004 8.05644 12.295 7.80208 12.1075 7.61455C11.92 7.42701 11.6656 7.32166 11.4004 7.32166H5.40039Z" fill="#FF9431"/>
</svg>
