<svg width="54" height="53" viewBox="0 0 54 53" fill="none" xmlns="http://www.w3.org/2000/svg">
<rect x="0.923828" y="0.246826" width="52.1519" height="52.1519" rx="12" fill="#232749"/>
<path d="M27 13.9617C24.9511 13.9617 22.986 14.7756 21.5372 16.2245C20.0883 17.6733 19.2744 19.6384 19.2744 21.6874V24.7776C18.4548 24.7776 17.6687 25.1032 17.0892 25.6828C16.5097 26.2623 16.1841 27.0483 16.1841 27.8679V35.5936C16.1841 36.4132 16.5097 37.1992 17.0892 37.7787C17.6687 38.3583 18.4548 38.6839 19.2744 38.6839H34.7257C35.5453 38.6839 36.3313 38.3583 36.9109 37.7787C37.4904 37.1992 37.816 36.4132 37.816 35.5936V27.8679C37.816 27.0483 37.4904 26.2623 36.9109 25.6828C36.3313 25.1032 35.5453 24.7776 34.7257 24.7776H22.3646V21.6874C22.3642 20.5589 22.7756 19.469 23.5214 18.6221C24.2673 17.7752 25.2965 17.2295 26.416 17.0873C27.5355 16.9451 28.6684 17.2162 29.6023 17.8497C30.5362 18.4833 31.2069 19.4357 31.4887 20.5285C31.5911 20.9254 31.847 21.2653 32.2001 21.4735C32.3749 21.5766 32.5684 21.6443 32.7693 21.6726C32.9703 21.7009 33.1749 21.6894 33.3714 21.6387C33.5679 21.588 33.7525 21.499 33.9147 21.3769C34.0768 21.2549 34.2133 21.1021 34.3164 20.9272C34.4195 20.7524 34.4872 20.559 34.5155 20.358C34.5438 20.157 34.5323 19.9525 34.4816 19.7559C34.0529 18.0976 33.0854 16.6287 31.7313 15.5799C30.3771 14.5312 28.7129 13.9619 27 13.9617Z" fill="#29D391"/>
</svg>
