<svg width="25" height="25" viewBox="0 0 25 25" fill="none" xmlns="http://www.w3.org/2000/svg">
<path d="M12.5041 2.02051V3.36904M20.5953 18.2029H23.2923M15.2012 18.2029H12.5041V23.597M12.5041 8.76317V12.8088H17.9117M17.8982 23.597H23.2923M1.71582 12.8088H7.10995M23.2923 12.8088H23.3058M3.06435 7.41464H5.76142C6.11907 7.41464 6.46208 7.27256 6.71498 7.01966C6.96788 6.76676 7.10995 6.42376 7.10995 6.06611V3.36904C7.10995 3.01139 6.96788 2.66838 6.71498 2.41548C6.46208 2.16259 6.11907 2.02051 5.76142 2.02051H3.06435C2.7067 2.02051 2.3637 2.16259 2.1108 2.41548C1.8579 2.66838 1.71582 3.01139 1.71582 3.36904V6.06611C1.71582 6.42376 1.8579 6.76676 2.1108 7.01966C2.3637 7.27256 2.7067 7.41464 3.06435 7.41464ZM19.2467 7.41464H21.9438C22.3015 7.41464 22.6445 7.27256 22.8974 7.01966C23.1503 6.76676 23.2923 6.42376 23.2923 6.06611V3.36904C23.2923 3.01139 23.1503 2.66838 22.8974 2.41548C22.6445 2.16259 22.3015 2.02051 21.9438 2.02051H19.2467C18.8891 2.02051 18.5461 2.16259 18.2932 2.41548C18.0403 2.66838 17.8982 3.01139 17.8982 3.36904V6.06611C17.8982 6.42376 18.0403 6.76676 18.2932 7.01966C18.5461 7.27256 18.8891 7.41464 19.2467 7.41464ZM3.06435 23.597H5.76142C6.11907 23.597 6.46208 23.455 6.71498 23.2021C6.96788 22.9492 7.10995 22.6062 7.10995 22.2485V19.5514C7.10995 19.1938 6.96788 18.8508 6.71498 18.5979C6.46208 18.345 6.11907 18.2029 5.76142 18.2029H3.06435C2.7067 18.2029 2.3637 18.345 2.1108 18.5979C1.8579 18.8508 1.71582 19.1938 1.71582 19.5514V22.2485C1.71582 22.6062 1.8579 22.9492 2.1108 23.2021C2.3637 23.455 2.7067 23.597 3.06435 23.597Z" stroke="currentColor" stroke-width="2.5" stroke-linecap="round" stroke-linejoin="round"/>
</svg>
