<svg width="25" height="26" viewBox="0 0 25 26" fill="none" xmlns="http://www.w3.org/2000/svg">
<path d="M10.8872 0.819824H1.15295C0.593549 0.819824 0.141602 1.27177 0.141602 1.83118V11.5654C0.141602 11.7045 0.255379 11.8183 0.394439 11.8183H10.8872C11.0263 11.8183 11.1401 11.7045 11.1401 11.5654V1.07266C11.1401 0.933602 11.0263 0.819824 10.8872 0.819824ZM9.11735 9.79557H2.1643V2.84253H9.11735V9.79557ZM4.75589 7.45682H6.52576C6.66482 7.45682 6.7786 7.34304 6.7786 7.20398V5.43412C6.7786 5.29506 6.66482 5.18128 6.52576 5.18128H4.75589C4.61683 5.18128 4.50306 5.29506 4.50306 5.43412V7.20398C4.50306 7.34304 4.61683 7.45682 4.75589 7.45682ZM10.8872 14.0938H0.394439C0.255379 14.0938 0.141602 14.2076 0.141602 14.3467V24.0809C0.141602 24.6403 0.593549 25.0923 1.15295 25.0923H10.8872C11.0263 25.0923 11.1401 24.9785 11.1401 24.8394V14.3467C11.1401 14.2076 11.0263 14.0938 10.8872 14.0938ZM9.11735 23.0696H2.1643V16.1165H9.11735V23.0696ZM4.75589 20.7308H6.52576C6.66482 20.7308 6.7786 20.617 6.7786 20.478V18.7081C6.7786 18.569 6.66482 18.4553 6.52576 18.4553H4.75589C4.61683 18.4553 4.50306 18.569 4.50306 18.7081V20.478C4.50306 20.617 4.61683 20.7308 4.75589 20.7308ZM23.4027 0.819824H13.6684C13.5294 0.819824 13.4156 0.933602 13.4156 1.07266V11.5654C13.4156 11.7045 13.5294 11.8183 13.6684 11.8183H24.1612C24.3003 11.8183 24.414 11.7045 24.414 11.5654V1.83118C24.414 1.27177 23.9621 0.819824 23.4027 0.819824ZM22.3913 9.79557H15.4383V2.84253H22.3913V9.79557ZM18.0299 7.45682H19.7997C19.9388 7.45682 20.0526 7.34304 20.0526 7.20398V5.43412C20.0526 5.29506 19.9388 5.18128 19.7997 5.18128H18.0299C17.8908 5.18128 17.777 5.29506 17.777 5.43412V7.20398C17.777 7.34304 17.8908 7.45682 18.0299 7.45682ZM24.1612 14.0938H22.6442C22.5051 14.0938 22.3913 14.2076 22.3913 14.3467V18.5817H19.9262V14.3467C19.9262 14.2076 19.8124 14.0938 19.6733 14.0938H13.6684C13.5294 14.0938 13.4156 14.2076 13.4156 14.3467V24.8394C13.4156 24.9785 13.5294 25.0923 13.6684 25.0923H15.1855C15.3245 25.0923 15.4383 24.9785 15.4383 24.8394V16.2342H17.9035V20.3516C17.9035 20.4906 18.0172 20.6044 18.1563 20.6044H24.1612C24.3003 20.6044 24.414 20.4906 24.414 20.3516V14.3467C24.414 14.2076 24.3003 14.0938 24.1612 14.0938ZM19.6733 23.0696H18.1563C18.0172 23.0696 17.9035 23.1833 17.9035 23.3224V24.8394C17.9035 24.9785 18.0172 25.0923 18.1563 25.0923H19.6733C19.8124 25.0923 19.9262 24.9785 19.9262 24.8394V23.3224C19.9262 23.1833 19.8124 23.0696 19.6733 23.0696ZM24.1612 23.0696H22.6442C22.5051 23.0696 22.3913 23.1833 22.3913 23.3224V24.8394C22.3913 24.9785 22.5051 25.0923 22.6442 25.0923H24.1612C24.3003 25.0923 24.414 24.9785 24.414 24.8394V23.3224C24.414 23.1833 24.3003 23.0696 24.1612 23.0696Z" fill="#474DFF"/>
</svg>
