<svg width="19" height="21" viewBox="0 0 19 21" fill="none" xmlns="http://www.w3.org/2000/svg">
<path d="M14.9124 15.1761L10.6694 19.5804C10.4838 19.7733 10.2635 19.9262 10.0209 20.0306C9.7784 20.1349 9.51842 20.1886 9.25587 20.1886C8.99333 20.1886 8.73335 20.1349 8.49082 20.0306C8.24828 19.9262 8.02793 19.7733 7.84237 19.5804L3.59837 15.1761C2.4796 14.0147 1.71771 12.535 1.40906 10.9242C1.10041 9.31331 1.25886 7.64363 1.86438 6.12625C2.46989 4.60887 3.49527 3.31195 4.81086 2.39949C6.12644 1.48702 7.67314 1 9.25537 1C10.8376 1 12.3843 1.48702 13.6999 2.39949C15.0155 3.31195 16.0409 4.60887 16.6464 6.12625C17.2519 7.64363 17.4103 9.31331 17.1017 10.9242C16.793 12.535 16.0312 14.0147 14.9124 15.1761Z" stroke="#474DFF" stroke-width="1.5" stroke-linecap="round" stroke-linejoin="round"/>
<path d="M11.3767 11.5059C11.9393 10.9219 12.2554 10.1299 12.2554 9.30394C12.2554 8.47803 11.9393 7.68595 11.3767 7.10195C10.8141 6.51794 10.051 6.18985 9.25537 6.18985C8.45973 6.18985 7.69666 6.51794 7.13405 7.10195C6.57145 7.68595 6.25537 8.47803 6.25537 9.30394C6.25537 10.1299 6.57145 10.9219 7.13405 11.5059C7.69666 12.0899 8.45973 12.418 9.25537 12.418C10.051 12.418 10.8141 12.0899 11.3767 11.5059Z" stroke="#474DFF" stroke-width="1.5" stroke-linecap="round" stroke-linejoin="round"/>
</svg>
