<svg width="16" height="17" viewBox="0 0 16 17" fill="none" xmlns="http://www.w3.org/2000/svg">
<path fill-rule="evenodd" clip-rule="evenodd" d="M16 8.03793C16 10.1597 15.1571 12.1945 13.6569 13.6948C12.1566 15.1951 10.1217 16.0379 8 16.0379C5.87827 16.0379 3.84344 15.1951 2.34315 13.6948C0.842855 12.1945 0 10.1597 0 8.03793C0 5.9162 0.842855 3.88137 2.34315 2.38108C3.84344 0.880788 5.87827 0.0379333 8 0.0379333C10.1217 0.0379333 12.1566 0.880788 13.6569 2.38108C15.1571 3.88137 16 5.9162 16 8.03793ZM8 5.03793C7.8243 5.03776 7.65165 5.08389 7.49945 5.17166C7.34724 5.25944 7.22085 5.38577 7.133 5.53793C7.06957 5.65581 6.98311 5.75975 6.87876 5.84359C6.77441 5.92744 6.65429 5.98948 6.52552 6.02603C6.39675 6.06259 6.26194 6.07293 6.12911 6.05642C5.99627 6.03991 5.86809 5.99691 5.75218 5.92994C5.63628 5.86298 5.53499 5.77343 5.45433 5.6666C5.37367 5.55977 5.31529 5.43783 5.28263 5.30802C5.24997 5.1782 5.24371 5.04315 5.26421 4.91087C5.28472 4.77859 5.33157 4.65177 5.402 4.53793C5.73222 3.96605 6.24191 3.51909 6.85203 3.2664C7.46214 3.0137 8.13859 2.96937 8.77647 3.14029C9.41434 3.31121 9.978 3.68783 10.38 4.21173C10.782 4.73564 11 5.37755 11 6.03793C11.0002 6.65855 10.8079 7.26396 10.4498 7.77079C10.0916 8.27761 9.58508 8.66092 9 8.86793V9.03793C9 9.30315 8.89464 9.5575 8.70711 9.74504C8.51957 9.93258 8.26522 10.0379 8 10.0379C7.73478 10.0379 7.48043 9.93258 7.29289 9.74504C7.10536 9.5575 7 9.30315 7 9.03793V8.03793C7 7.77272 7.10536 7.51836 7.29289 7.33083C7.48043 7.14329 7.73478 7.03793 8 7.03793C8.26522 7.03793 8.51957 6.93258 8.70711 6.74504C8.89464 6.5575 9 6.30315 9 6.03793C9 5.77272 8.89464 5.51836 8.70711 5.33083C8.51957 5.14329 8.26522 5.03793 8 5.03793ZM8 13.0379C8.26522 13.0379 8.51957 12.9326 8.70711 12.745C8.89464 12.5575 9 12.3032 9 12.0379C9 11.7727 8.89464 11.5184 8.70711 11.3308C8.51957 11.1433 8.26522 11.0379 8 11.0379C7.73478 11.0379 7.48043 11.1433 7.29289 11.3308C7.10536 11.5184 7 11.7727 7 12.0379C7 12.3032 7.10536 12.5575 7.29289 12.745C7.48043 12.9326 7.73478 13.0379 8 13.0379Z" fill="#474DFF"/>
</svg>
