<svg width="50" height="50" viewBox="0 0 50 50" fill="none" xmlns="http://www.w3.org/2000/svg">
<path fill-rule="evenodd" clip-rule="evenodd" d="M24.0655 0.404541V12.6872L21.7726 10.3943C21.3821 10.0037 20.7489 10.0037 20.3584 10.3943C19.9679 10.7848 19.9679 11.418 20.3584 11.8085L24.3584 15.8085C24.7489 16.199 25.3821 16.199 25.7726 15.8085L29.7726 11.8085C30.1632 11.418 30.1632 10.7848 29.7726 10.3943C29.3821 10.0037 28.7489 10.0037 28.3584 10.3943L26.0655 12.6872V0.404542C39.136 0.92914 49.5713 11.6911 49.5713 24.8903C49.5713 38.4245 38.5997 49.3961 25.0655 49.3961C11.5313 49.3961 0.559692 38.4245 0.559692 24.8903C0.559692 11.6911 10.995 0.929125 24.0655 0.404541ZM32.7614 35.3358C32.9737 35.1235 33.0929 34.8357 33.0929 34.5355V33.4695V29.2056V27.074C33.0929 26.7738 32.9737 26.4859 32.7614 26.2736C32.5492 26.0614 32.2613 25.9421 31.9611 25.9421H18.17C17.7791 25.9421 17.3957 25.8691 17.0381 25.7305V34.5355C17.0381 34.8357 17.1574 35.1235 17.3696 35.3358C17.5819 35.5481 17.8698 35.6673 18.17 35.6673H31.9611C32.2613 35.6673 32.5492 35.5481 32.7614 35.3358ZM34.1756 36.75C34.763 36.1627 35.0929 35.3661 35.0929 34.5355V27.074C35.0929 26.2434 34.763 25.4468 34.1756 24.8594C33.5883 24.2721 32.7917 23.9421 31.9611 23.9421H31.8951V22.8103C31.8951 21.9797 31.5652 21.1831 30.9779 20.5957C30.3905 20.0084 29.5939 19.6784 28.7633 19.6784H18.17C17.3393 19.6784 16.5428 20.0084 15.9554 20.5957C15.3681 21.1831 15.0381 21.9797 15.0381 22.8103V34.5355C15.0381 35.3661 15.3681 36.1627 15.9554 36.75C16.5428 37.3374 17.3393 37.6673 18.17 37.6673H31.9611C32.7917 37.6673 33.5883 37.3374 34.1756 36.75ZM18.17 23.9421H29.8951V22.8103C29.8951 22.5101 29.7759 22.2222 29.5636 22.0099C29.3514 21.7977 29.0635 21.6784 28.7633 21.6784H18.17C17.8698 21.6784 17.5819 21.7977 17.3696 22.0099C17.1574 22.2222 17.0381 22.5101 17.0381 22.8103C17.0381 23.1105 17.1574 23.3984 17.3696 23.6106C17.5819 23.8229 17.8698 23.9421 18.17 23.9421ZM29.7962 32.1828C30.4834 32.1828 31.0404 31.6257 31.0404 30.9385C31.0404 30.2513 30.4834 29.6943 29.7962 29.6943C29.109 29.6943 28.5519 30.2513 28.5519 30.9385C28.5519 31.6257 29.109 32.1828 29.7962 32.1828Z" fill="#29D391"/>
</svg>
