<svg width="26" height="26" viewBox="0 0 26 26" fill="none" xmlns="http://www.w3.org/2000/svg">
<path fill-rule="evenodd" clip-rule="evenodd" d="M6.5001 2.60001C6.84488 2.60001 7.17554 2.73697 7.41934 2.98077C7.66313 3.22456 7.8001 3.55522 7.8001 3.90001V5.20001H9.1001C9.44488 5.20001 9.77554 5.33697 10.0193 5.58077C10.2631 5.82456 10.4001 6.15522 10.4001 6.50001C10.4001 6.84479 10.2631 7.17545 10.0193 7.41924C9.77554 7.66304 9.44488 7.80001 9.1001 7.80001H7.8001V9.10001C7.8001 9.44479 7.66313 9.77545 7.41934 10.0192C7.17554 10.263 6.84488 10.4 6.5001 10.4C6.15532 10.4 5.82466 10.263 5.58086 10.0192C5.33706 9.77545 5.2001 9.44479 5.2001 9.10001V7.80001H3.9001C3.55532 7.80001 3.22466 7.66304 2.98086 7.41924C2.73706 7.17545 2.6001 6.84479 2.6001 6.50001C2.6001 6.15522 2.73706 5.82456 2.98086 5.58077C3.22466 5.33697 3.55532 5.20001 3.9001 5.20001H5.2001V3.90001C5.2001 3.55522 5.33706 3.22456 5.58086 2.98077C5.82466 2.73697 6.15532 2.60001 6.5001 2.60001ZM6.5001 15.6C6.84488 15.6 7.17554 15.737 7.41934 15.9808C7.66313 16.2246 7.8001 16.5552 7.8001 16.9V18.2H9.1001C9.44488 18.2 9.77554 18.337 10.0193 18.5808C10.2631 18.8246 10.4001 19.1552 10.4001 19.5C10.4001 19.8448 10.2631 20.1754 10.0193 20.4192C9.77554 20.663 9.44488 20.8 9.1001 20.8H7.8001V22.1C7.8001 22.4448 7.66313 22.7754 7.41934 23.0192C7.17554 23.263 6.84488 23.4 6.5001 23.4C6.15532 23.4 5.82466 23.263 5.58086 23.0192C5.33706 22.7754 5.2001 22.4448 5.2001 22.1V20.8H3.9001C3.55532 20.8 3.22466 20.663 2.98086 20.4192C2.73706 20.1754 2.6001 19.8448 2.6001 19.5C2.6001 19.1552 2.73706 18.8246 2.98086 18.5808C3.22466 18.337 3.55532 18.2 3.9001 18.2H5.2001V16.9C5.2001 16.5552 5.33706 16.2246 5.58086 15.9808C5.82466 15.737 6.15532 15.6 6.5001 15.6ZM15.6001 2.60001C15.887 2.59991 16.1659 2.69473 16.3932 2.86967C16.6206 3.04462 16.7838 3.28987 16.8572 3.56721L18.3899 9.36001L22.7501 11.8742C22.9477 11.9883 23.1118 12.1524 23.2259 12.35C23.34 12.5477 23.4 12.7718 23.4 13C23.4 13.2282 23.34 13.4524 23.2259 13.65C23.1118 13.8476 22.9477 14.0117 22.7501 14.1258L18.3899 16.6413L16.8559 22.4328C16.7823 22.7099 16.6192 22.9548 16.392 23.1296C16.1648 23.3044 15.8861 23.3991 15.5994 23.3991C15.3128 23.3991 15.0341 23.3044 14.8069 23.1296C14.5797 22.9548 14.4166 22.7099 14.343 22.4328L12.8103 16.64L8.4501 14.1258C8.25249 14.0117 8.08839 13.8476 7.97431 13.65C7.86022 13.4524 7.80016 13.2282 7.80016 13C7.80016 12.7718 7.86022 12.5477 7.97431 12.35C8.08839 12.1524 8.25249 11.9883 8.4501 11.8742L12.8103 9.35871L14.3443 3.56721C14.4177 3.29009 14.5806 3.04499 14.8077 2.87007C15.0349 2.69515 15.3134 2.6002 15.6001 2.60001Z" fill="white"/>
</svg>
