<svg width="320" height="79" viewBox="0 0 320 79" fill="none" xmlns="http://www.w3.org/2000/svg">
<path fill-rule="evenodd" clip-rule="evenodd" d="M82.0502 2.04318C79.6411 0.652274 76.673 0.652275 74.2639 2.04318L59.568 10.5278C57.1589 11.9187 55.6748 14.4892 55.6748 17.271V34.2404C55.6748 37.0222 57.1589 39.5927 59.568 40.9836L74.2639 49.4683C76.673 50.8592 79.6411 50.8592 82.0502 49.4683L96.7461 40.9836C99.1552 39.5927 100.639 37.0222 100.639 34.2404V17.271C100.639 14.4892 99.1552 11.9187 96.7461 10.5278L82.0502 2.04318ZM27.3754 2.04366C24.9663 0.652763 21.9982 0.652763 19.5891 2.04367L4.89319 10.5283C2.48407 11.9192 1 14.4897 1 17.2715V34.2409C1 37.0227 2.48408 39.5932 4.89319 40.9841L19.5891 49.4687C21.9982 50.8596 24.9663 50.8596 27.3754 49.4687L42.0713 40.9841C44.4804 39.5932 45.9645 37.0227 45.9645 34.2409V17.2715C45.9645 14.4897 44.4804 11.9192 42.0713 10.5283L27.3754 2.04366ZM128.938 2.04318C131.347 0.652275 134.315 0.652274 136.724 2.04318L151.42 10.5278C153.829 11.9187 155.313 14.4892 155.313 17.271V34.2404C155.313 37.0222 153.829 39.5927 151.42 40.9836L136.724 49.4683C134.315 50.8592 131.347 50.8592 128.938 49.4683L114.242 40.9836C111.833 39.5927 110.349 37.0222 110.349 34.2404V17.271C110.349 14.4892 111.833 11.9187 114.242 10.5278L128.938 2.04318ZM191.398 2.04318C188.989 0.652274 186.021 0.652275 183.612 2.04318L168.916 10.5278C166.507 11.9187 165.022 14.4892 165.022 17.271V34.2404C165.022 37.0222 166.507 39.5927 168.916 40.9836L183.612 49.4683C186.021 50.8592 188.989 50.8592 191.398 49.4683L206.094 40.9836C208.503 39.5927 209.987 37.0222 209.987 34.2404V17.271C209.987 14.4892 208.503 11.9187 206.094 10.5278L191.398 2.04318ZM238.286 2.04318C240.695 0.652275 243.664 0.652274 246.073 2.04318L260.769 10.5278C263.178 11.9187 264.662 14.4892 264.662 17.271V34.2404C264.662 37.0222 263.178 39.5927 260.769 40.9836L246.073 49.4683C243.664 50.8592 240.695 50.8592 238.286 49.4683L223.59 40.9836C221.181 39.5927 219.697 37.0222 219.697 34.2404V17.271C219.697 14.4892 221.181 11.9187 223.59 10.5278L238.286 2.04318ZM300.747 2.04318C298.337 0.652274 295.369 0.652275 292.96 2.04318L278.264 10.5278C275.855 11.9187 274.371 14.4892 274.371 17.271V34.2404C274.371 37.0222 275.855 39.5927 278.264 40.9836L292.96 49.4683C295.369 50.8592 298.337 50.8592 300.747 49.4683L315.442 40.9836C317.852 39.5927 319.336 37.0222 319.336 34.2404V17.271C319.336 14.4892 317.852 11.9187 315.442 10.5278L300.747 2.04318Z" fill="url(#paint0_linear)"/>
<path d="M17.3814 78.1932C20.0689 78.1932 21.6428 76 21.6428 72.1875C21.6428 68.4034 20.0462 66.2045 17.3814 66.2045C14.7109 66.2045 13.12 68.3977 13.1143 72.1875C13.1143 75.9943 14.6882 78.1875 17.3814 78.1932ZM17.3814 76.6761C15.8075 76.6761 14.8587 75.0966 14.8587 72.1875C14.8643 69.2898 15.8132 67.6932 17.3814 67.6932C18.9439 67.6932 19.8984 69.2898 19.8984 72.1875C19.8984 75.0966 18.9496 76.6761 17.3814 76.6761ZM24.3629 78.108C24.9822 78.108 25.4993 77.6023 25.4993 76.9716C25.4993 76.3523 24.9822 75.8409 24.3629 75.8409C23.7379 75.8409 23.2266 76.3523 23.2266 76.9716C23.2266 77.6023 23.7379 78.108 24.3629 78.108ZM30.7607 66.3636H29.0504L26.147 68.2614V69.9432L28.9311 68.125H28.9993V78H30.7607V66.3636Z" fill="black"/>
<path d="M91.3501 78.1932C94.0376 78.1932 95.6115 76 95.6115 72.1875C95.6115 68.4034 94.0149 66.2045 91.3501 66.2045C88.6797 66.2045 87.0888 68.3977 87.0831 72.1875C87.0831 75.9943 88.657 78.1875 91.3501 78.1932ZM91.3501 76.6761C89.7763 76.6761 88.8274 75.0966 88.8274 72.1875C88.8331 69.2898 89.782 67.6932 91.3501 67.6932C92.9126 67.6932 93.8672 69.2898 93.8672 72.1875C93.8672 75.0966 92.9183 76.6761 91.3501 76.6761ZM98.3317 78.108C98.951 78.108 99.468 77.6023 99.468 76.9716C99.468 76.3523 98.951 75.8409 98.3317 75.8409C97.7067 75.8409 97.1953 76.3523 97.1953 76.9716C97.1953 77.6023 97.7067 78.108 98.3317 78.108ZM105.366 78.1591C107.741 78.1591 109.485 76.7386 109.479 74.8068C109.485 73.3352 108.593 72.2784 107.048 72.0398V71.9489C108.263 71.6364 109.053 70.6818 109.048 69.375C109.053 67.6648 107.65 66.2045 105.411 66.2045C103.275 66.2045 101.559 67.4943 101.502 69.3864H103.201C103.241 68.3182 104.246 67.6705 105.388 67.6705C106.576 67.6705 107.354 68.392 107.349 69.4659C107.354 70.5909 106.451 71.3295 105.161 71.3295H104.178V72.7614H105.161C106.775 72.7614 107.707 73.5795 107.707 74.75C107.707 75.8807 106.724 76.6477 105.354 76.6477C104.093 76.6477 103.11 76 103.042 74.9659H101.258C101.332 76.8636 103.013 78.1591 105.366 78.1591ZM115.678 78.1591C118.053 78.1591 119.798 76.7386 119.792 74.8068C119.798 73.3352 118.906 72.2784 117.36 72.0398V71.9489C118.576 71.6364 119.366 70.6818 119.36 69.375C119.366 67.6648 117.962 66.2045 115.724 66.2045C113.587 66.2045 111.871 67.4943 111.815 69.3864H113.513C113.553 68.3182 114.559 67.6705 115.701 67.6705C116.888 67.6705 117.667 68.392 117.661 69.4659C117.667 70.5909 116.763 71.3295 115.474 71.3295H114.491V72.7614H115.474C117.087 72.7614 118.019 73.5795 118.019 74.75C118.019 75.8807 117.036 76.6477 115.667 76.6477C114.406 76.6477 113.423 76 113.354 74.9659H111.57C111.644 76.8636 113.326 78.1591 115.678 78.1591Z" fill="#00000D"/>
<path d="M201.506 78.1932C204.194 78.1932 205.768 76 205.768 72.1875C205.768 68.4034 204.171 66.2045 201.506 66.2045C198.836 66.2045 197.245 68.3977 197.239 72.1875C197.239 75.9943 198.813 78.1875 201.506 78.1932ZM201.506 76.6761C199.933 76.6761 198.984 75.0966 198.984 72.1875C198.989 69.2898 199.938 67.6932 201.506 67.6932C203.069 67.6932 204.023 69.2898 204.023 72.1875C204.023 75.0966 203.075 76.6761 201.506 76.6761ZM208.488 78.108C209.107 78.108 209.624 77.6023 209.624 76.9716C209.624 76.3523 209.107 75.8409 208.488 75.8409C207.863 75.8409 207.352 76.3523 207.352 76.9716C207.352 77.6023 207.863 78.108 208.488 78.108ZM215.502 78.1591C217.934 78.1818 219.548 76.4318 219.542 74.1989C219.548 71.9716 217.928 70.375 215.911 70.375C214.684 70.375 213.621 70.9659 213.025 71.9489H212.94C212.945 69.3068 213.945 67.7386 215.65 67.7386C216.769 67.7386 217.474 68.4205 217.712 69.3864H219.445C219.178 67.5455 217.729 66.2045 215.65 66.2045C212.945 66.2045 211.258 68.5284 211.258 72.5739C211.252 76.858 213.434 78.142 215.502 78.1591ZM215.496 76.6818C214.144 76.6818 213.156 75.5455 213.156 74.2386C213.161 72.9375 214.195 71.8011 215.536 71.8011C216.866 71.8011 217.843 72.875 217.837 74.2216C217.843 75.5966 216.826 76.6818 215.496 76.6818ZM225.674 78.1591C228.106 78.1818 229.719 76.4318 229.714 74.1989C229.719 71.9716 228.1 70.375 226.083 70.375C224.856 70.375 223.793 70.9659 223.197 71.9489H223.112C223.117 69.3068 224.117 67.7386 225.822 67.7386C226.941 67.7386 227.646 68.4205 227.884 69.3864H229.617C229.35 67.5455 227.901 66.2045 225.822 66.2045C223.117 66.2045 221.43 68.5284 221.43 72.5739C221.424 76.858 223.606 78.142 225.674 78.1591ZM225.668 76.6818C224.316 76.6818 223.327 75.5455 223.327 74.2386C223.333 72.9375 224.367 71.8011 225.708 71.8011C227.038 71.8011 228.015 72.875 228.009 74.2216C228.015 75.5966 226.998 76.6818 225.668 76.6818Z" fill="black"/>
<path d="M292.87 66.3636H291.16L288.256 68.2614V69.9432L291.04 68.125H291.109V78H292.87V66.3636ZM296.504 78.108C297.123 78.108 297.64 77.6023 297.64 76.9716C297.64 76.3523 297.123 75.8409 296.504 75.8409C295.879 75.8409 295.367 76.3523 295.367 76.9716C295.367 77.6023 295.879 78.108 296.504 78.108ZM303.506 78.1932C306.194 78.1932 307.768 76 307.768 72.1875C307.768 68.4034 306.171 66.2045 303.506 66.2045C300.836 66.2045 299.245 68.3977 299.239 72.1875C299.239 75.9943 300.813 78.1875 303.506 78.1932ZM303.506 76.6761C301.933 76.6761 300.984 75.0966 300.984 72.1875C300.989 69.2898 301.938 67.6932 303.506 67.6932C305.069 67.6932 306.023 69.2898 306.023 72.1875C306.023 75.0966 305.075 76.6761 303.506 76.6761Z" fill="black"/>
<defs>
<linearGradient id="paint0_linear" x1="43.3319" y1="25.756" x2="277.436" y2="25.756" gradientUnits="userSpaceOnUse">
<stop stop-color="#FF6666"/>
<stop offset="0.327338" stop-color="#FF912B"/>
<stop offset="0.672662" stop-color="#FCC945"/>
<stop offset="1" stop-color="#29D344"/>
</linearGradient>
</defs>
</svg>
