<svg width="17" height="17" viewBox="0 0 17 17" fill="none" xmlns="http://www.w3.org/2000/svg">
<path fill-rule="evenodd" clip-rule="evenodd" d="M16.0528 8.00198C16.0528 10.1237 15.21 12.1585 13.7097 13.6588C12.2094 15.1591 10.1746 16.002 8.05283 16.002C5.93109 16.002 3.89626 15.1591 2.39597 13.6588C0.895681 12.1585 0.0528259 10.1237 0.0528259 8.00198C0.0528259 5.88025 0.895681 3.84542 2.39597 2.34513C3.89626 0.844839 5.93109 0.00198364 8.05283 0.00198364C10.1746 0.00198364 12.2094 0.844839 13.7097 2.34513C15.21 3.84542 16.0528 5.88025 16.0528 8.00198ZM9.05283 4.00198C9.05283 4.2672 8.94747 4.52155 8.75993 4.70909C8.5724 4.89663 8.31804 5.00198 8.05283 5.00198C7.78761 5.00198 7.53326 4.89663 7.34572 4.70909C7.15818 4.52155 7.05283 4.2672 7.05283 4.00198C7.05283 3.73677 7.15818 3.48241 7.34572 3.29488C7.53326 3.10734 7.78761 3.00198 8.05283 3.00198C8.31804 3.00198 8.5724 3.10734 8.75993 3.29488C8.94747 3.48241 9.05283 3.73677 9.05283 4.00198ZM7.05283 7.00198C6.78761 7.00198 6.53326 7.10734 6.34572 7.29488C6.15818 7.48241 6.05283 7.73677 6.05283 8.00198C6.05283 8.2672 6.15818 8.52155 6.34572 8.70909C6.53326 8.89663 6.78761 9.00198 7.05283 9.00198V12.002C7.05283 12.2672 7.15818 12.5216 7.34572 12.7091C7.53326 12.8966 7.78761 13.002 8.05283 13.002H9.05283C9.31804 13.002 9.5724 12.8966 9.75993 12.7091C9.94747 12.5216 10.0528 12.2672 10.0528 12.002C10.0528 11.7368 9.94747 11.4824 9.75993 11.2949C9.5724 11.1073 9.31804 11.002 9.05283 11.002V8.00198C9.05283 7.73677 8.94747 7.48241 8.75993 7.29488C8.5724 7.10734 8.31804 7.00198 8.05283 7.00198H7.05283Z" fill="#FCC945"/>
</svg>
