<svg width="18" height="18" viewBox="0 0 18 18" fill="none" xmlns="http://www.w3.org/2000/svg">
<path d="M16.2513 16.3655L11.3384 11.4527M12.976 7.35862C12.976 8.11132 12.8278 8.85664 12.5397 9.55204C12.2517 10.2474 11.8295 10.8793 11.2973 11.4115C10.765 11.9438 10.1332 12.366 9.43778 12.654C8.74238 12.942 7.99706 13.0903 7.24437 13.0903C6.49167 13.0903 5.74635 12.942 5.05095 12.654C4.35555 12.366 3.7237 11.9438 3.19146 11.4115C2.65923 10.8793 2.23704 10.2474 1.94899 9.55204C1.66095 8.85664 1.5127 8.11132 1.5127 7.35862C1.5127 5.83849 2.11657 4.38062 3.19146 3.30572C4.26636 2.23082 5.72423 1.62695 7.24437 1.62695C8.7645 1.62695 10.2224 2.23082 11.2973 3.30572C12.3722 4.38062 12.976 5.83849 12.976 7.35862Z" stroke="currentColor" stroke-width="2" stroke-linecap="round" stroke-linejoin="round"/>
</svg>
