<svg width="24" height="23" viewBox="0 0 24 23" fill="none" xmlns="http://www.w3.org/2000/svg">
<path fill-rule="evenodd" clip-rule="evenodd" d="M3.78955 9.4352C3.78955 5.89246 6.6615 3.02051 10.2042 3.02051C13.747 3.02051 16.6189 5.89246 16.6189 9.4352C16.6189 12.9779 13.747 15.8499 10.2042 15.8499C6.6615 15.8499 3.78955 12.9779 3.78955 9.4352ZM10.2042 0.0205078C5.00465 0.0205078 0.789551 4.23561 0.789551 9.4352C0.789551 14.6348 5.00465 18.8499 10.2042 18.8499C12.3342 18.8499 14.299 18.1426 15.8765 16.95L21.7071 22.7806L23.8284 20.6593L17.9531 14.7839C19.0036 13.2648 19.6189 11.4219 19.6189 9.4352C19.6189 4.23561 15.4038 0.0205078 10.2042 0.0205078Z" fill="currentColor"/>
</svg>
