<svg width="187" height="95" viewBox="0 0 187 95" fill="none" xmlns="http://www.w3.org/2000/svg">
<rect x="110" y="1" width="76" height="89" rx="12" stroke="#51AEFF" stroke-width="2"/>
<path d="M171.478 89.5C171.225 92.3032 168.869 94.5 166 94.5H130C127.131 94.5 124.775 92.3032 124.522 89.5H171.478Z" stroke="#51AEFF"/>
<rect x="116.5" y="7.5" width="63" height="76" rx="7.5" stroke="#51AEFF"/>
<path fill-rule="evenodd" clip-rule="evenodd" d="M146.65 47L136.979 56.6708L138.393 58.085L148 48.4784V62H150V48.4784L159.607 58.085L161.021 56.6708L151.35 47L165 47V45L151.478 45L161.728 34.7504L160.314 33.3362L150 43.6499V29H148V43.6499L137.686 33.3362L136.272 34.7504L146.522 45L132 45V47L146.65 47Z" fill="#51AEFF"/>
<circle cx="149" cy="46" r="8" fill="#33404E" stroke="#51AEFF" stroke-width="2"/>
<rect x="106.5" y="21.5" width="17" height="6" rx="1.5" fill="#33404E" stroke="#51AEFF"/>
<rect x="106.5" y="64.5" width="17" height="6" rx="1.5" fill="#33404E" stroke="#51AEFF"/>
<path fill-rule="evenodd" clip-rule="evenodd" d="M75.181 72.2489L102 48.0002L75.181 23.7515V37.0002H41V60.0002H75.181V72.2489Z" fill="url(#paint0_linear)"/>
<path fill-rule="evenodd" clip-rule="evenodd" d="M56 11H1V84.9733L5.97329 80L11.605 85.6317L17.2366 80L22.8683 85.6317L28.5 80L34.1317 85.6317L39.7634 80L45.395 85.6317L51.0267 80L56 84.9733V11Z" fill="#33404E"/>
<path d="M1 11V10C0.447715 10 0 10.4477 0 11H1ZM56 11H57C57 10.4477 56.5523 10 56 10V11ZM1 84.9733H0C0 85.3778 0.243642 85.7424 0.617317 85.8972C0.990991 86.052 1.42111 85.9664 1.70711 85.6804L1 84.9733ZM5.97329 80L6.6804 79.2929C6.49287 79.1054 6.23851 79 5.97329 79C5.70808 79 5.45372 79.1054 5.26619 79.2929L5.97329 80ZM11.605 85.6317L10.8979 86.3388C11.2884 86.7293 11.9216 86.7293 12.3121 86.3388L11.605 85.6317ZM17.2366 80L17.9438 79.2929C17.5532 78.9024 16.9201 78.9024 16.5295 79.2929L17.2366 80ZM22.8683 85.6317L22.1612 86.3388C22.5517 86.7293 23.1849 86.7293 23.5754 86.3388L22.8683 85.6317ZM28.5 80L29.2071 79.2929C29.0196 79.1054 28.7652 79 28.5 79C28.2348 79 27.9804 79.1054 27.7929 79.2929L28.5 80ZM34.1317 85.6317L33.4246 86.3388C33.6121 86.5263 33.8665 86.6317 34.1317 86.6317C34.3969 86.6317 34.6512 86.5263 34.8388 86.3388L34.1317 85.6317ZM39.7634 80L40.4705 79.2929C40.0799 78.9024 39.4468 78.9024 39.0562 79.2929L39.7634 80ZM45.395 85.6317L44.6879 86.3388C45.0784 86.7293 45.7116 86.7293 46.1021 86.3388L45.395 85.6317ZM51.0267 80L51.7338 79.2929C51.5463 79.1054 51.2919 79 51.0267 79C50.7615 79 50.5071 79.1054 50.3196 79.2929L51.0267 80ZM56 84.9733L55.2929 85.6804C55.5789 85.9664 56.009 86.052 56.3827 85.8972C56.7564 85.7424 57 85.3778 57 84.9733H56ZM1 12H56V10H1V12ZM2 84.9733V11H0V84.9733H2ZM1.70711 85.6804L6.6804 80.7071L5.26619 79.2929L0.292893 84.2662L1.70711 85.6804ZM5.26619 80.7071L10.8979 86.3388L12.3121 84.9246L6.6804 79.2929L5.26619 80.7071ZM12.3121 86.3388L17.9438 80.7071L16.5295 79.2929L10.8979 84.9246L12.3121 86.3388ZM16.5295 80.7071L22.1612 86.3388L23.5754 84.9246L17.9438 79.2929L16.5295 80.7071ZM23.5754 86.3388L29.2071 80.7071L27.7929 79.2929L22.1612 84.9246L23.5754 86.3388ZM27.7929 80.7071L33.4246 86.3388L34.8388 84.9246L29.2071 79.2929L27.7929 80.7071ZM34.8388 86.3388L40.4705 80.7071L39.0562 79.2929L33.4246 84.9246L34.8388 86.3388ZM39.0562 80.7071L44.6879 86.3388L46.1021 84.9246L40.4705 79.2929L39.0562 80.7071ZM46.1021 86.3388L51.7338 80.7071L50.3196 79.2929L44.6879 84.9246L46.1021 86.3388ZM50.3196 80.7071L55.2929 85.6804L56.7071 84.2662L51.7338 79.2929L50.3196 80.7071ZM55 11V84.9733H57V11H55Z" fill="#29D391"/>
<line x1="11" y1="30" x2="22" y2="30" stroke="#29D391" stroke-width="2" stroke-linecap="round" stroke-linejoin="round"/>
<line x1="11" y1="37" x2="29" y2="37" stroke="#29D391" stroke-width="2" stroke-linecap="round" stroke-linejoin="round"/>
<line x1="35" y1="37" x2="44" y2="37" stroke="#29D391" stroke-width="2" stroke-linecap="round" stroke-linejoin="round"/>
<line x1="27" y1="30" x2="33" y2="30" stroke="#29D391" stroke-width="2" stroke-linecap="round" stroke-linejoin="round"/>
<line x1="11" y1="44" x2="22" y2="44" stroke="#29D391" stroke-width="2" stroke-linecap="round" stroke-linejoin="round"/>
<line x1="28" y1="44" x2="39" y2="44" stroke="#29D391" stroke-width="2" stroke-linecap="round" stroke-linejoin="round"/>
<line x1="11" y1="51" x2="16" y2="51" stroke="#29D391" stroke-width="2" stroke-linecap="round" stroke-linejoin="round"/>
<line x1="21" y1="51" x2="36" y2="51" stroke="#29D391" stroke-width="2" stroke-linecap="round" stroke-linejoin="round"/>
<line x1="11" y1="59" x2="26" y2="59" stroke="#29D391" stroke-width="2" stroke-linecap="round" stroke-linejoin="round"/>
<line x1="32" y1="59" x2="44" y2="59" stroke="#29D391" stroke-width="2" stroke-linecap="round" stroke-linejoin="round"/>
<defs>
<linearGradient id="paint0_linear" x1="54.6724" y1="48.0002" x2="102" y2="48.0002" gradientUnits="userSpaceOnUse">
<stop stop-color="#4F6175" stop-opacity="0.13"/>
<stop offset="1" stop-color="#4F6175"/>
</linearGradient>
</defs>
</svg>
