<svg width="19" height="16" viewBox="0 0 19 16" fill="none" xmlns="http://www.w3.org/2000/svg">
<path fill-rule="evenodd" clip-rule="evenodd" d="M6.07838 0.745402C7.44471 0.192694 8.92587 -0.0159935 10.3917 0.137676C11.8576 0.291345 13.2633 0.802667 14.4853 1.62672C15.7073 2.45077 16.7082 3.56232 17.4001 4.86371C18.092 6.16511 18.4537 7.61651 18.4534 9.0904C18.4534 9.35562 18.348 9.60997 18.1605 9.79751C17.9729 9.98505 17.7186 10.0904 17.4534 10.0904C17.1882 10.0904 16.9338 9.98505 16.7463 9.79751C16.5587 9.60997 16.4534 9.35562 16.4534 9.0904C16.4538 7.94392 16.1727 6.81488 15.6347 5.80249C15.0966 4.7901 14.3181 3.92537 13.3677 3.28427C12.4172 2.64318 11.3238 2.24536 10.1836 2.12576C9.04334 2.00617 7.89119 2.16847 6.82838 2.5984C6.70584 2.6525 6.57369 2.68144 6.43975 2.68349C6.30582 2.68553 6.17285 2.66066 6.04871 2.61032C5.92458 2.55999 5.81183 2.48524 5.71714 2.39049C5.62246 2.29575 5.54777 2.18295 5.49751 2.05879C5.44726 1.93462 5.42246 1.80163 5.42459 1.6677C5.42672 1.53377 5.45574 1.40163 5.50992 1.27913C5.56409 1.15663 5.64233 1.04626 5.73998 0.954577C5.83763 0.862892 5.95271 0.79176 6.07838 0.745402ZM4.11538 3.0494C4.31408 3.22489 4.43496 3.4721 4.45147 3.73669C4.46797 4.00127 4.37873 4.26158 4.20338 4.4604C3.07324 5.73766 2.45062 7.38494 2.45338 9.0904C2.45338 9.35562 2.34802 9.60997 2.16048 9.79751C1.97295 9.98505 1.71859 10.0904 1.45338 10.0904C1.18816 10.0904 0.933806 9.98505 0.74627 9.79751C0.558733 9.60997 0.453376 9.35562 0.453376 9.0904C0.450589 6.89777 1.251 4.78005 2.70338 3.1374C2.79028 3.03887 2.89576 2.95843 3.01377 2.90067C3.13178 2.84292 3.26001 2.80899 3.39114 2.80081C3.52227 2.79264 3.65373 2.81039 3.77799 2.85304C3.90226 2.8957 4.01691 2.96242 4.11538 3.0494ZM4.45326 9.09039C4.45326 7.76431 4.98004 6.49254 5.91772 5.55486C6.85541 4.61718 8.12718 4.09039 9.45326 4.09039C10.7793 4.09039 12.0511 4.61718 12.9888 5.55486C13.9265 6.49254 14.4533 7.76431 14.4533 9.09039C14.4533 9.35561 14.3479 9.60996 14.1604 9.7975C13.9728 9.98504 13.7185 10.0904 13.4533 10.0904C13.188 10.0904 12.9337 9.98504 12.7462 9.7975C12.5586 9.60996 12.4533 9.35561 12.4533 9.09039C12.4533 8.29474 12.1372 7.53168 11.5746 6.96907C11.012 6.40646 10.2489 6.09039 9.45326 6.09039C8.65761 6.09039 7.89455 6.40646 7.33194 6.96907C6.76933 7.53168 6.45326 8.29474 6.45326 9.09039C6.45326 10.7674 6.10826 12.3664 5.48526 13.8194C5.38063 14.0631 5.18346 14.2553 4.93714 14.3537C4.69081 14.452 4.41549 14.4485 4.17176 14.3439C3.92802 14.2393 3.73584 14.0421 3.63747 13.7958C3.53911 13.5494 3.54263 13.2741 3.64726 13.0304C4.18093 11.7855 4.45518 10.4449 4.45326 9.09039ZM13.3743 11.1024C13.504 11.123 13.6285 11.1689 13.7405 11.2376C13.8525 11.3063 13.9499 11.3964 14.027 11.5027C14.1042 11.609 14.1597 11.7295 14.1902 11.8573C14.2208 11.9851 14.2259 12.1176 14.2053 12.2474C14.0749 13.07 13.8928 13.8836 13.6603 14.6834C13.6261 14.8123 13.5665 14.933 13.485 15.0385C13.4035 15.144 13.3017 15.2321 13.1857 15.2977C13.0696 15.3633 12.9416 15.405 12.8092 15.4204C12.6768 15.4358 12.5426 15.4246 12.4146 15.3874C12.2866 15.3502 12.1673 15.2877 12.0637 15.2038C11.9602 15.1198 11.8745 15.016 11.8117 14.8984C11.7488 14.7808 11.7102 14.6518 11.6979 14.5191C11.6856 14.3864 11.7 14.2525 11.7403 14.1254C11.9473 13.4124 12.1113 12.6804 12.2303 11.9334C12.272 11.6717 12.416 11.4373 12.6305 11.2817C12.845 11.126 13.1125 11.0619 13.3743 11.1034V11.1024ZM10.1606 8.38329C9.97305 8.19575 9.7187 8.09039 9.45348 8.09039C9.18826 8.09039 8.93391 8.19575 8.74637 8.38329C8.55884 8.57082 8.45348 8.82518 8.45348 9.09039C8.45609 10.9863 8.07228 12.8628 7.32548 14.6054C7.27367 14.7261 7.24615 14.8558 7.24447 14.9871C7.24279 15.1184 7.26699 15.2488 7.3157 15.3708C7.3644 15.4927 7.43665 15.6039 7.52832 15.698C7.62 15.792 7.7293 15.8671 7.84998 15.9189C7.97066 15.9707 8.10037 15.9982 8.2317 15.9999C8.36302 16.0016 8.49339 15.9774 8.61536 15.9287C8.73733 15.88 8.84851 15.8077 8.94256 15.716C9.0366 15.6244 9.11167 15.5151 9.16348 15.3944C9.99348 13.4584 10.4535 11.3264 10.4535 9.09039C10.4535 8.82518 10.3481 8.57082 10.1606 8.38329Z" fill="#474DFF"/>
</svg>
