<svg width="60" height="59" viewBox="0 0 60 59" fill="none" xmlns="http://www.w3.org/2000/svg">
<path fill-rule="evenodd" clip-rule="evenodd" d="M30 0.00622559C13.8264 0.00622559 0.715088 13.1175 0.715088 29.2912C0.715088 45.4648 13.8264 58.5761 30 58.5761C46.1736 58.5761 59.2849 45.4648 59.2849 29.2912C59.2849 13.1175 46.1736 0.00622559 30 0.00622559ZM37.3651 19.4564C36.6924 18.7836 35.6071 18.789 34.9411 19.4684C34.2751 20.1478 34.2806 21.244 34.9533 21.9167L41.6959 28.6593L35.0208 35.4688C34.3548 36.1482 34.3603 37.2443 35.033 37.9171C35.7058 38.5898 36.791 38.5844 37.457 37.905L45.338 29.8653C46.004 29.1859 45.9986 28.0898 45.3258 27.4171L37.3651 19.4564ZM19.6641 26.3748C19.6641 24.472 21.2066 22.9295 23.1094 22.9295C25.0122 22.9295 26.5547 24.472 26.5547 26.3748C26.5547 28.2776 25.0122 29.8201 23.1094 29.8201H23.1072C21.2055 29.8189 19.6641 28.2769 19.6641 26.3748ZM30 26.3748C30 28.3026 29.2084 30.0454 27.9325 31.296C30.2195 32.8445 31.7226 35.4634 31.7226 38.4333H28.2774C28.2774 35.5792 25.9636 33.2654 23.1094 33.2654H23.107C20.254 33.2667 17.9415 35.5799 17.9415 38.4333H14.4962C14.4962 35.4634 15.9994 32.8445 18.2864 31.296C17.0105 30.0454 16.2189 28.3026 16.2189 26.3748C16.2189 22.5693 19.3039 19.4842 23.1094 19.4842C26.915 19.4842 30 22.5693 30 26.3748Z" fill="#51AEFF"/>
</svg>
