<svg width="50" height="50" viewBox="0 0 50 50" fill="none" xmlns="http://www.w3.org/2000/svg">
<path fill-rule="evenodd" clip-rule="evenodd" d="M24.8137 49.3962C38.3479 49.3962 49.3195 38.4245 49.3195 24.8903C49.3195 11.3561 38.3479 0.384521 24.8137 0.384521C11.2795 0.384521 0.307861 11.3561 0.307861 24.8903C0.307861 38.4245 11.2795 49.3962 24.8137 49.3962ZM22.9938 10.5156V23.9421H17.9181C17.6179 23.9421 17.33 23.8229 17.1178 23.6106C16.9055 23.3984 16.7863 23.1105 16.7863 22.8103C16.7863 22.5101 16.9055 22.2222 17.1178 22.01C17.33 21.7977 17.6179 21.6784 17.9181 21.6784H21.343V19.6784H17.9181C17.0875 19.6784 16.2909 20.0084 15.7036 20.5957C15.1162 21.1831 14.7863 21.9797 14.7863 22.8103V34.5355C14.7863 35.3661 15.1162 36.1627 15.7036 36.75C16.2909 37.3374 17.0875 37.6673 17.9181 37.6673H31.7092C32.5398 37.6673 33.3364 37.3374 33.9238 36.75C34.5111 36.1627 34.8411 35.3661 34.8411 34.5355V27.074C34.8411 26.2434 34.5111 25.4468 33.9238 24.8594C33.3364 24.2721 32.5398 23.9421 31.7092 23.9421H31.6433V22.8103C31.6433 21.9797 31.3133 21.1831 30.726 20.5957C30.1387 20.0084 29.3421 19.6784 28.5114 19.6784H26.7888V21.6784H28.5114C28.8116 21.6784 29.0995 21.7977 29.3118 22.01C29.524 22.2222 29.6433 22.5101 29.6433 22.8103V23.9421H24.9938V10.5156L27.2867 12.8085C27.6772 13.199 28.3104 13.199 28.7009 12.8085C29.0914 12.418 29.0914 11.7848 28.7009 11.3943L24.7009 7.39427C24.3104 7.00375 23.6772 7.00375 23.2867 7.39427L19.2867 11.3943C18.8961 11.7848 18.8961 12.418 19.2867 12.8085C19.6772 13.199 20.3104 13.199 20.7009 12.8085L22.9938 10.5156ZM32.8411 34.5355C32.8411 34.8357 32.7218 35.1235 32.5096 35.3358C32.2973 35.5481 32.0094 35.6673 31.7092 35.6673H17.9181C17.6179 35.6673 17.33 35.5481 17.1178 35.3358C16.9055 35.1235 16.7863 34.8357 16.7863 34.5355V25.7305C17.1438 25.8691 17.5272 25.9421 17.9181 25.9421H31.7092C32.0094 25.9421 32.2973 26.0614 32.5096 26.2737C32.7218 26.4859 32.8411 26.7738 32.8411 27.074V29.2056V33.4695V34.5355ZM29.5464 32.1828C30.2336 32.1828 30.7906 31.6257 30.7906 30.9385C30.7906 30.2513 30.2336 29.6943 29.5464 29.6943C28.8592 29.6943 28.3021 30.2513 28.3021 30.9385C28.3021 31.6257 28.8592 32.1828 29.5464 32.1828Z" fill="#474DFF"/>
</svg>
