<svg xmlns="http://www.w3.org/2000/svg" viewBox="0 0 439.55 305.98"><defs><style>.cls-1{fill:none;stroke-width:3px;}.cls-1,.cls-2{stroke:#000;stroke-linecap:round;stroke-linejoin:round;}.cls-3{fill:#fff;}</style></defs><title>SenseCAP M1产品线框图</title><g id="默认值"><rect class="cls-1" x="347.61" y="19.93" width="28.35" height="4.78"/></g><g id="Make2D::可见线::曲线"><path class="cls-1" d="M559,154.82v0c.23,0,.37-.24.43-.41a1.77,1.77,0,0,0,0-1.23c-.06-.16-.2-.4-.43-.4V152c.23,0,.37-.24.43-.4a1.77,1.77,0,0,0,0-1.23c-.06-.17-.2-.41-.43-.41v-.79c.23,0,.37-.24.43-.41a1.61,1.61,0,0,0,.11-.61,1.66,1.66,0,0,0-.11-.62c-.06-.16-.2-.4-.43-.4v-.8c.23,0,.37-.24.43-.4a1.77,1.77,0,0,0,0-1.23c-.06-.17-.2-.41-.43-.41v-.79c.23,0,.37-.24.43-.41a1.61,1.61,0,0,0,.11-.61,1.57,1.57,0,0,0-.11-.61c-.06-.17-.2-.41-.43-.41v-.8c.23,0,.37-.24.43-.4a1.77,1.77,0,0,0,0-1.23c-.06-.16-.2-.41-.43-.41v-.79a.42.42,0,0,0,.33-.21,1,1,0,0,0,.16-.37,2,2,0,0,0,0-.8h18.23a1.52,1.52,0,0,0,.11.6c.07.17.21.4.43.4v.8c-.22,0-.36.24-.43.4a1.77,1.77,0,0,0,0,1.23c.07.16.21.41.43.41V141c-.22,0-.36.24-.43.41a1.75,1.75,0,0,0,0,1.22c.07.17.21.41.43.41v.79c-.22,0-.36.25-.43.41a1.77,1.77,0,0,0,0,1.23c.07.16.21.41.43.41v.79c-.22,0-.36.24-.43.41a1.75,1.75,0,0,0,0,1.22c.07.17.21.41.43.41v.79c-.22,0-.36.25-.43.41a1.77,1.77,0,0,0,0,1.23c.07.16.21.41.43.41v.79c-.22,0-.36.24-.43.41a1.75,1.75,0,0,0,0,1.22c.07.17.21.41.43.41v.41" transform="translate(-206.88 -134.9)"/><path class="cls-1" d="M229.1,439.38H208.38V159.6H644.87s0,0,0,0V439.38H229.1Z" transform="translate(-206.88 -134.9)"/><rect class="cls-2" x="151.44" y="159.06" width="3.4" height="11.06"/><polygon points="255.93 156.2 255.93 173.1 267.06 173.1 267.06 170.16 259.23 170.16 259.23 166.05 265.9 166.05 265.9 163.11 259.23 163.11 259.23 159.14 267.06 159.14 267.06 156.2 255.93 156.2"/><rect class="cls-2" x="157.63" y="162.16" width="3.4" height="5.53"/><polygon points="210.66 156.2 210.66 173.1 221.79 173.1 221.79 170.16 213.96 170.16 213.96 166.05 220.63 166.05 220.63 163.11 213.96 163.11 213.96 159.14 221.79 159.14 221.79 156.2 210.66 156.2"/><rect class="cls-2" x="145.25" y="162.16" width="3.4" height="5.53"/><polygon points="291.99 170.11 292.99 173.1 296.43 173.1 290.26 156.2 287.67 156.2 281.52 173.1 284.97 173.1 285.99 170.11 291.99 170.11"/><polygon points="177.38 153.1 153.16 136.24 128.93 153.1 141.02 161.52 153.16 153.08 165.29 161.52 177.38 153.1"/><polygon points="177.42 176.05 165.29 167.6 153.16 176.05 141.02 167.6 128.89 176.05 153.16 192.94 177.42 176.05"/><polygon points="228.32 162.73 235.01 173.1 237.96 173.1 237.96 156.2 234.66 156.2 234.66 166.55 227.97 156.2 225.02 156.2 225.02 173.1 228.32 173.1 228.32 162.73"/><path d="M454.45,301.09a2.56,2.56,0,0,1,1.5.6,1.9,1.9,0,0,1,.52,1.42c0,1.35-1.05,2.09-3,2.09a5.54,5.54,0,0,1-4.09-1.43l-2.13,2.14c1.66,1.69,3.61,2.23,6.17,2.23,3.54,0,6.27-1.85,6.27-5.13a4.73,4.73,0,0,0-1.31-3.58,5.64,5.64,0,0,0-3.23-1.31l-2-.28a2.93,2.93,0,0,1-1.57-.67,1.65,1.65,0,0,1-.5-1.21c0-1.16.86-2.13,2.62-2.13a4.7,4.7,0,0,1,3.46,1.16l2.09-2.06a7.24,7.24,0,0,0-5.46-2c-3.66,0-5.89,2.11-5.89,5.12a4.51,4.51,0,0,0,1.21,3.33,5.82,5.82,0,0,0,3.28,1.4Z" transform="translate(-206.88 -134.9)"/><path d="M409.18,301.09a2.5,2.5,0,0,1,1.49.6,1.86,1.86,0,0,1,.53,1.42c0,1.35-1.05,2.09-3,2.09a5.53,5.53,0,0,1-4.08-1.43L402,305.91c1.67,1.69,3.61,2.23,6.18,2.23,3.53,0,6.26-1.85,6.26-5.13a4.73,4.73,0,0,0-1.3-3.58,5.67,5.67,0,0,0-3.23-1.31l-2-.28a2.93,2.93,0,0,1-1.57-.67,1.61,1.61,0,0,1-.5-1.21c0-1.16.86-2.13,2.61-2.13a4.71,4.71,0,0,1,3.47,1.16l2.09-2.06a7.26,7.26,0,0,0-5.46-2c-3.66,0-5.89,2.11-5.89,5.12a4.47,4.47,0,0,0,1.21,3.33,5.82,5.82,0,0,0,3.28,1.4Z" transform="translate(-206.88 -134.9)"/><path d="M485.34,304a3.17,3.17,0,0,1-2.52,1.19,2.68,2.68,0,0,1-2.09-.88c-.64-.71-.83-1.52-.83-4.77s.19-4.06.83-4.77a2.68,2.68,0,0,1,2.09-.88,3.17,3.17,0,0,1,2.52,1.19l2.18-2.19a6.15,6.15,0,0,0-4.7-1.94,6.23,6.23,0,0,0-4.56,1.85c-1.71,1.71-1.66,3.82-1.66,6.74s-.05,5,1.66,6.74a6.6,6.6,0,0,0,9.26-.09Z" transform="translate(-206.88 -134.9)"/><path d="M508.7,301.64H512a5.28,5.28,0,1,0,0-10.54H505.4V308h3.3Z" transform="translate(-206.88 -134.9)"/><path class="cls-3" d="M508.7,294h3.08a2.32,2.32,0,1,1,0,4.63H508.7Z" transform="translate(-206.88 -134.9)"/><polygon class="cls-3" points="286.91 167.33 289.05 161.18 291.12 167.33 286.91 167.33"/><polygon class="cls-3" points="134.89 153.1 153.16 140.39 171.42 153.1 165.29 157.37 155.1 150.28 153.16 148.93 151.21 150.28 141.02 157.37 134.89 153.1"/></g></svg>