<svg width="19" height="20" viewBox="0 0 19 20" fill="none" xmlns="http://www.w3.org/2000/svg">
<path d="M2.66863 8.19959C2.77307 7.82447 2.94016 7.42851 3.14902 7.01171C2.75218 6.46987 2.29268 5.92803 1.89584 5.32367C1.77052 5.15695 1.77052 4.96939 1.89584 4.78183C2.39711 4.05243 3.23257 3.30219 3.92182 2.71867C4.08891 2.55195 4.31866 2.55195 4.50664 2.69783L6.26109 3.98991C6.59527 3.82319 6.99212 3.67731 7.34718 3.53143L7.68137 1.32239C7.70225 1.09315 7.86934 0.947266 8.11998 0.947266H10.8352C11.0858 0.947266 11.2529 1.09315 11.2947 1.30155C11.4618 2.01011 11.5453 2.82287 11.6289 3.53143C12.0048 3.65647 12.3808 3.80235 12.715 4.01075L14.4068 2.71867C14.5112 2.63531 14.6574 2.57279 14.741 2.57279C15.1587 2.57279 16.7878 4.38587 17.1011 4.78183C17.2682 4.99023 17.2473 5.11527 17.0802 5.34451C16.6416 5.92803 16.203 6.46987 15.7853 7.03255C15.9733 7.42851 16.1195 7.74111 16.2448 8.15791L18.5423 8.49135C18.7303 8.53303 18.8765 8.76227 18.8765 8.97067V11.659C18.8765 11.8674 18.7303 12.055 18.5214 12.0967L16.3074 12.451C16.203 12.8261 16.015 13.222 15.8271 13.618C16.2239 14.1807 16.6625 14.7017 17.0802 15.306C17.2056 15.4936 17.1847 15.6812 17.0802 15.8479C16.5581 16.5773 15.7435 17.3275 15.0543 17.9319C14.8663 18.0986 14.6574 18.0986 14.4694 17.9736L12.715 16.6815C12.3599 16.8482 11.984 16.9941 11.6289 17.1191L11.2947 19.349C11.2738 19.5366 11.0858 19.7241 10.8352 19.7241H8.11998C7.86934 19.7241 7.74403 19.5782 7.68137 19.3698C7.49339 18.6613 7.40984 17.8485 7.3263 17.14C6.95034 17.0149 6.57439 16.8482 6.21932 16.6815L4.52752 17.9944C4.42309 18.0778 4.29777 18.0986 4.19334 18.0986C3.7965 18.0986 2.14648 16.2647 1.83318 15.8687C1.70786 15.702 1.72875 15.5353 1.87495 15.3269C2.31357 14.7225 2.75218 14.1807 3.16991 13.5763C2.98193 13.2429 2.83573 12.9094 2.68952 12.4926L0.454679 12.1592C0.245815 12.1384 0.0996094 11.9091 0.0996094 11.7424V8.99151C0.0996094 8.80395 0.245815 8.59555 0.454679 8.53303L2.66863 8.19959ZM9.49848 13.4513C11.2112 13.4513 12.6106 12.055 12.6106 10.3461C12.6106 8.59555 11.2112 7.19927 9.49848 7.19927C7.76491 7.19927 6.36552 8.59555 6.36552 10.3461C6.36552 12.055 7.76491 13.4513 9.49848 13.4513Z" fill="currentColor"/>
</svg>
