<svg width="21" height="21" viewBox="0 0 21 21" fill="none" xmlns="http://www.w3.org/2000/svg">
<path d="M6.99157 11.8547C7.19357 11.4507 7.30757 10.9947 7.30757 10.5127C7.30757 10.0307 7.19357 9.57469 6.99157 9.17069M6.99157 11.8547C6.68928 12.4591 6.19178 12.9437 5.57967 13.2301C4.96756 13.5164 4.2767 13.5877 3.61902 13.4324C2.96133 13.2771 2.37534 12.9043 1.95599 12.3744C1.53663 11.8444 1.30847 11.1885 1.30847 10.5127C1.30847 9.83691 1.53663 9.18093 1.95599 8.65102C2.37534 8.1211 2.96133 7.74829 3.61902 7.59299C4.2767 7.43768 4.96756 7.50898 5.57967 7.79533C6.19178 8.08167 6.68928 8.5663 6.99157 9.17069M6.99157 11.8547L13.6236 15.1707M6.99157 9.17069L13.6236 5.85469M13.6236 15.1707C13.2677 15.8825 13.2091 16.7066 13.4608 17.4616C13.7124 18.2166 14.2537 18.8408 14.9656 19.1967C15.6774 19.5526 16.5015 19.6112 17.2565 19.3595C18.0115 19.1078 18.6357 18.5665 18.9916 17.8547C19.3475 17.1428 19.4061 16.3188 19.1544 15.5638C18.9027 14.8087 18.3614 14.1846 17.6496 13.8287C17.2971 13.6525 16.9134 13.5474 16.5203 13.5194C16.1272 13.4915 15.7325 13.5413 15.3586 13.6659C14.6036 13.9175 13.9795 14.4588 13.6236 15.1707ZM13.6236 5.85469C13.7998 6.20709 14.0437 6.52133 14.3414 6.77946C14.6391 7.0376 14.9847 7.23458 15.3585 7.35915C15.7323 7.48372 16.127 7.53344 16.52 7.50548C16.913 7.47752 17.2967 7.37242 17.6491 7.19619C18.0015 7.01995 18.3157 6.77603 18.5739 6.47836C18.832 6.18068 19.029 5.83507 19.1535 5.46127C19.2781 5.08747 19.3278 4.69279 19.2999 4.29977C19.2719 3.90675 19.1668 3.52309 18.9906 3.17069C18.6347 2.45898 18.0106 1.91781 17.2557 1.66623C16.5007 1.41465 15.6768 1.47327 14.9651 1.82919C14.2534 2.18511 13.7122 2.80918 13.4606 3.5641C13.209 4.31903 13.2677 5.14298 13.6236 5.85469Z" stroke="white" stroke-width="1.5" stroke-linecap="round" stroke-linejoin="round"/>
</svg>
