<svg width="19" height="5" viewBox="0 0 19 5" fill="none" xmlns="http://www.w3.org/2000/svg">
<path fill-rule="evenodd" clip-rule="evenodd" d="M4.02526 2.01263C4.02526 3.12418 3.12418 4.02526 2.01263 4.02526C0.901085 4.02526 0 3.12418 0 2.01263C0 0.901085 0.901085 0 2.01263 0C3.12418 0 4.02526 0.901085 4.02526 2.01263ZM11.0967 2.01263C11.0967 3.12418 10.1956 4.02526 9.08409 4.02526C7.97254 4.02526 7.07146 3.12418 7.07146 2.01263C7.07146 0.901085 7.97254 0 9.08409 0C10.1956 0 11.0967 0.901085 11.0967 2.01263ZM16.1557 4.02526C17.2673 4.02526 18.1683 3.12418 18.1683 2.01263C18.1683 0.901085 17.2673 0 16.1557 0C15.0442 0 14.1431 0.901085 14.1431 2.01263C14.1431 3.12418 15.0442 4.02526 16.1557 4.02526Z" fill="currentColor"/>
</svg>
