<svg width="36" height="46" viewBox="0 0 36 46" fill="none" xmlns="http://www.w3.org/2000/svg">
<path d="M20 6.83754V14H32.0098C34.2135 14 36 15.789 36 17.9881V42.0119C36 44.2145 34.2148 46 32.0098 46H3.99018C1.78646 46 0 44.211 0 42.0119V17.9881C0 15.7855 1.78525 14 3.99018 14H16V6.83106L13.7411 9.08998C12.9672 9.86383 11.7122 9.86343 10.9257 9.07694C10.1446 8.29589 10.1493 7.02495 10.9127 6.26155L16.5956 0.578616C16.9804 0.193832 17.4841 0.00047404 17.9901 0L18.0054 0.00597072C18.5133 0.00705428 19.0184 0.199037 19.3979 0.578616L25.0809 6.26155C25.8547 7.0354 25.8543 8.29045 25.0678 9.07694C24.2868 9.85799 23.0158 9.85338 22.2524 9.08998L20 6.83754ZM16 18H4V42H32V18H20V26.003C20 27.1059 19.1123 28 18 28C16.8954 28 16 27.105 16 26.003V18ZM10 14V18H26V14H10ZM16 14H20V18H16V14Z" fill="white"/>
</svg>
