<svg width="32" height="32" viewBox="0 0 32 32" fill="none" xmlns="http://www.w3.org/2000/svg">
<path fill-rule="evenodd" clip-rule="evenodd" d="M22.9178 0.92527C24.3868 0.190612 26.0876 0.0696193 27.6458 0.588907C29.2041 1.10819 30.4922 2.22523 31.2269 3.69427C31.5906 4.42166 31.8076 5.21358 31.8653 6.02482C31.923 6.83605 31.8203 7.65071 31.5632 8.42227C31.3061 9.19384 30.8995 9.90721 30.3667 10.5216C29.8339 11.1361 29.1852 11.6396 28.4579 12.0033C27.7305 12.3671 26.9385 12.584 26.1273 12.6417C25.3161 12.6994 24.5014 12.5968 23.7298 12.3397C22.9583 12.0826 22.2449 11.676 21.6305 11.1432C21.3989 10.9424 21.1831 10.7251 20.9846 10.4934L12.964 14.5036C13.0603 14.9375 13.1111 15.3879 13.1111 15.8493C13.1111 16.3106 13.0603 16.7611 12.964 17.1949L20.9845 21.2052C21.7092 20.359 22.6554 19.7166 23.73 19.3584C24.5016 19.1012 25.3163 18.9984 26.1277 19.0561C26.939 19.1138 27.731 19.3307 28.4585 19.6944C29.9278 20.429 31.0451 21.7173 31.5645 23.2756C32.084 24.834 31.9631 26.5349 31.2285 28.0042C30.4938 29.4735 29.2056 30.5907 27.6472 31.1102C26.0889 31.6296 24.3879 31.5088 22.9187 30.7741C21.4494 30.0395 20.3322 28.7513 19.8127 27.1929C19.4545 26.1183 19.4008 24.9759 19.6428 23.8884L11.6226 19.8783C11.0536 20.5424 10.3465 21.083 9.54399 21.4584C8.2805 22.0494 6.85446 22.1966 5.49689 21.876C4.13931 21.5555 2.92974 20.7859 2.06412 19.6921C1.1985 18.5982 0.727539 17.2442 0.727539 15.8493C0.727539 14.4544 1.1985 13.1003 2.06412 12.0065C2.92974 10.9127 4.13931 10.1431 5.49689 9.82254C6.85446 9.50197 8.2805 9.64913 9.54399 10.2402C10.3465 10.6156 11.0536 11.1561 11.6226 11.8203L19.6428 7.81017C19.4007 6.72292 19.4544 5.58075 19.8124 4.50632C20.3317 2.94807 21.4488 1.65993 22.9178 0.92527ZM9.77521 17.2776C9.98973 16.8485 10.1111 16.3644 10.1111 15.8493C10.1111 15.3342 9.98973 14.85 9.77521 14.421C9.4535 13.7779 8.92412 13.2623 8.2728 12.9576C7.62141 12.6528 6.88623 12.577 6.18634 12.7422C5.48645 12.9075 4.86287 13.3042 4.4166 13.8682C3.97034 14.4321 3.72754 15.1301 3.72754 15.8493C3.72754 16.5684 3.97034 17.2665 4.4166 17.8304C4.86287 18.3943 5.48645 18.7911 6.18634 18.9563C6.88623 19.1216 7.62141 19.0457 8.2728 18.741C8.92412 18.4363 9.4535 17.9207 9.77521 17.2776ZM26.6973 3.43503C25.8939 3.16729 25.0171 3.22967 24.2596 3.60845C23.5022 3.98723 22.9263 4.65138 22.6586 5.45479C22.3908 6.2582 22.4532 7.13507 22.832 7.89249C23.0195 8.26752 23.2791 8.60194 23.5959 8.87666C23.9127 9.15137 24.2805 9.361 24.6783 9.49357C25.0761 9.62614 25.4962 9.67905 25.9144 9.6493C26.3327 9.61954 26.741 9.5077 27.116 9.32014C27.491 9.13259 27.8255 8.873 28.1002 8.55621C28.3749 8.23941 28.5845 7.87161 28.7171 7.4738C28.8497 7.07599 28.9026 6.65597 28.8728 6.23771C28.8431 5.81945 28.7312 5.41114 28.5437 5.03611C28.1649 4.27869 27.5007 3.70277 26.6973 3.43503ZM25.915 22.0486C25.4967 22.0188 25.0765 22.0718 24.6787 22.2044C23.8751 22.4723 23.2108 23.0484 22.832 23.806C22.4532 24.5636 22.3909 25.4407 22.6587 26.2442C22.9266 27.0478 23.5027 27.712 24.2603 28.0909C25.0179 28.4697 25.895 28.532 26.6986 28.2641C27.5021 27.9963 28.1664 27.4202 28.5452 26.6626C28.924 25.905 28.9863 25.0279 28.7185 24.2243C28.4506 23.4208 27.8745 22.7565 27.1169 22.3777C26.7418 22.1901 26.3334 22.0783 25.915 22.0486Z" fill="#A3A3CA"/>
</svg>
