<svg width="10" height="10" viewBox="0 0 10 10" fill="none" xmlns="http://www.w3.org/2000/svg">
<path fill-rule="evenodd" clip-rule="evenodd" d="M1.97668 0.680542C1.4244 0.680542 0.976685 1.12826 0.976685 1.68054C0.976685 2.23283 1.4244 2.68054 1.97668 2.68054C5.19005 2.68054 7.79471 5.28521 7.79471 8.49857C7.79471 9.05086 8.24243 9.49857 8.79471 9.49857C9.347 9.49857 9.79471 9.05086 9.79471 8.49857C9.79471 4.18064 6.29462 0.680542 1.97668 0.680542ZM1.97668 3.82732C1.4244 3.82732 0.976685 4.27504 0.976685 4.82732C0.976685 5.37961 1.4244 5.82732 1.97668 5.82732C2.68514 5.82732 3.36458 6.10876 3.86554 6.60971C4.3665 7.11067 4.64793 7.79011 4.64793 8.49857C4.64793 9.05086 5.09565 9.49857 5.64793 9.49857C6.20022 9.49857 6.64793 9.05086 6.64793 8.49857C6.64793 7.25968 6.15578 6.07153 5.27975 5.1955C4.40373 4.31947 3.21558 3.82732 1.97668 3.82732ZM2.06897 9.50781C2.67728 9.50781 3.17041 9.01468 3.17041 8.40637C3.17041 7.79806 2.67728 7.30493 2.06897 7.30493C1.46066 7.30493 0.967529 7.79806 0.967529 8.40637C0.967529 9.01468 1.46066 9.50781 2.06897 9.50781Z" fill="currentColor"/>
</svg>
