<svg width="40" height="40" viewBox="0 0 40 40" fill="none" xmlns="http://www.w3.org/2000/svg">
<path fill-rule="evenodd" clip-rule="evenodd" d="M39.9999 20C39.9999 31.0456 31.0456 39.9999 20 39.9999C8.95428 39.9999 0 31.0456 0 20C0 8.95428 8.95428 0 20 0C31.0456 0 39.9999 8.95428 39.9999 20ZM6.92965 15.1873C6.92965 18.2586 9.41945 20.7484 12.4907 20.7484H17.6758H22.3242L29.3866 20.7484L29.8825 20.7483C31.6431 20.7483 33.0704 19.3211 33.0704 17.5605C33.0704 15.7999 31.6431 14.3726 29.8825 14.3726C29.6711 14.3726 29.4646 14.3931 29.2648 14.4324C29.3448 13.9877 29.3866 13.5298 29.3866 13.062C29.3866 8.817 25.9453 5.37573 21.7002 5.37573C18.5239 5.37573 15.7975 7.30244 14.6261 10.0509C13.9686 9.77728 13.2473 9.6262 12.4907 9.6262C9.41945 9.6262 6.92965 12.116 6.92965 15.1873ZM23.8029 12.7825L18.6671 17.9183L15.5424 14.7936L16.8855 13.4505L18.6671 15.232L22.4597 11.4394L23.8029 12.7825ZM14.7622 28.2613C14.3524 27.8514 14.3524 27.1869 14.7622 26.7771L19.2579 22.2814C19.6677 21.8716 20.3322 21.8716 20.7421 22.2814L25.2377 26.7771C25.6476 27.1869 25.6476 27.8514 25.2377 28.2613C24.8279 28.6711 24.1634 28.6711 23.7536 28.2613L21.0495 25.5572V34.5721C21.0495 35.1517 20.5796 35.6216 20 35.6216C19.4204 35.6216 18.9505 35.1517 18.9505 34.5721V25.5571L16.2464 28.2613C15.8365 28.6711 15.172 28.6711 14.7622 28.2613Z" fill="white"/>
</svg>
