<svg width="28" height="19" viewBox="0 0 28 19" fill="none" xmlns="http://www.w3.org/2000/svg">
<path fill-rule="evenodd" clip-rule="evenodd" d="M6.57032 15.8005C3.44689 15.8005 0.914841 13.2414 0.914841 10.0846C0.914841 6.92785 3.44689 4.36879 6.57032 4.36879C7.33974 4.36879 8.07324 4.52407 8.74188 4.80531C9.93318 1.98034 12.7058 0 15.9361 0C20.2532 0 23.753 3.53705 23.753 7.90023C23.753 8.38094 23.7105 8.85167 23.6291 9.30871C23.8323 9.2684 24.0423 9.24723 24.2572 9.24723C26.0477 9.24723 27.4992 10.7143 27.4992 12.5239C27.4992 14.3335 26.0477 15.8005 24.2572 15.8005C24.0857 15.8005 23.9173 15.787 23.753 15.761V15.8005H16.5707L14.2071 18.1893L11.8434 15.8005H6.57032ZM12.8515 12.8917L18.0745 7.61296L16.7085 6.23243L12.8515 10.1306L11.0397 8.29949L9.67374 9.68002L12.8515 12.8917Z" fill="#A667F6"/>
</svg>
