<svg id="Layer_1" data-name="Layer 1" xmlns="http://www.w3.org/2000/svg" viewBox="0 0 74.9 74.9"><path d="M14.5,1.5H61.4a13,13,0,0,1,13,13V61.4a13,13,0,0,1-13,13H14.5a13,13,0,0,1-13-13V14.5A13,13,0,0,1,14.5,1.5Z" transform="translate(-0.5 -0.5)" fill="none" stroke="#000" stroke-width="2"/><path d="M17.2,7.7H58.7a9.56,9.56,0,0,1,9.5,9.5V58.7a9.56,9.56,0,0,1-9.5,9.5H17.2a9.56,9.56,0,0,1-9.5-9.5V17.2A9.5,9.5,0,0,1,17.2,7.7Z" transform="translate(-0.5 -0.5)" fill="none" stroke="#000"/><g style="isolation:isolate"><path d="M16,46.13a.31.31,0,0,1-.15-.25c0-.25.3-.68.89-1.28l.27-.29a.75.75,0,0,0,.17-.27,3.25,3.25,0,0,0,.16-.95.74.74,0,0,0-.07-.37c-.1-.15-.43-.26-1-.32a11.53,11.53,0,0,0-1.45,0,12,12,0,0,1-1.41-.07,2,2,0,0,1-.72-.27A1.48,1.48,0,0,1,12,40.75a1.35,1.35,0,0,1,0-.33,9.12,9.12,0,0,1,2-3.61,17.42,17.42,0,0,1,3.83-3.42A6.63,6.63,0,0,1,21,32.21a1.15,1.15,0,0,1,.55.12,1.42,1.42,0,0,1,.6.51,1.55,1.55,0,0,1,.18.73,3,3,0,0,1-.59,1.48,36.3,36.3,0,0,1-2.63,3.21c-.59.68-1.31,1.52-2.15,2.53-.09.11-.16.17-.2.17a.72.72,0,0,1-.32-.13.38.38,0,0,1-.16-.29,21.52,21.52,0,0,1,2-2.33c1.25-1.38,2.08-2.35,2.49-2.9a4.51,4.51,0,0,0,1.09-2.25s0-.07-.06-.07a1,1,0,0,0-.5-.09,3,3,0,0,0-.65.09,9.84,9.84,0,0,0-3.79,2.15c-.23.2-.52.48-.88.84a14.9,14.9,0,0,0-2.57,3.31,4.39,4.39,0,0,0-.7,2,1.12,1.12,0,0,0,0,.2c0,.1.09.17.22.22s.54,0,1.32.07q.88,0,1.32.06a2.83,2.83,0,0,1,1.92.68,1.64,1.64,0,0,1,.47.91l0,.13.44-.29a2.83,2.83,0,0,1,1-.52.37.37,0,0,1,.17,0,.26.26,0,0,1,.12.11.26.26,0,0,1,0,.1s0,0,0,0a6.86,6.86,0,0,0-1,.68,4,4,0,0,0-.94.81A3.89,3.89,0,0,1,17,45.82a1.08,1.08,0,0,1-.68.43A.47.47,0,0,1,16,46.13ZM13,39.8a13.87,13.87,0,0,1,2.1-3.09,15.42,15.42,0,0,1,2.86-2.57A8.69,8.69,0,0,1,20.16,33l.25-.11-.32.1a11.6,11.6,0,0,0-4.27,2.89A14.24,14.24,0,0,0,13,39.74a2.55,2.55,0,0,0-.13.3S12.89,40,13,39.8Zm3.68,6.13a2.6,2.6,0,0,0,.49-.53,1.92,1.92,0,0,0,.4-.67h0a2,2,0,0,0-.14.23,6,6,0,0,1-.79,1Zm2.79-8.23a2.44,2.44,0,0,0,.26-.3,3.21,3.21,0,0,0-.27.29l-.2.21-.08.1h0Zm.46-.52a1.83,1.83,0,0,0-.19.18h0Zm.16-.19c-.12.1-.17.15-.17.17A.72.72,0,0,0,20.07,37Zm.1-.1a.17.17,0,0,1,.06-.08.6.6,0,0,0-.13.11h0Zm.17-.22c-.05,0-.08.06-.08.07h0Zm.26-3.84h-.07s0,0,0,0S20.6,32.84,20.6,32.83Z" transform="translate(-0.5 -0.5)"/><path d="M21.78,47.7a.67.67,0,0,1-.22-.07,1.1,1.1,0,0,1-.6-1,2.59,2.59,0,0,1,.27-1.08,3.22,3.22,0,0,1,.41-.7,7.7,7.7,0,0,1,.67-.74,7.49,7.49,0,0,1,1.19-1l.24-.17s.08-.44.18-1.18a10.26,10.26,0,0,0,0-1.07c0-.68,0-1-.1-1a10.79,10.79,0,0,0-1.55,2.15c-.7,1-1.23,1.58-1.57,1.58a1,1,0,0,1-.75-.28,1,1,0,0,1-.27-.76A4.82,4.82,0,0,1,20,41c.14-.5.3-.76.47-.76a.51.51,0,0,1,.32.17c-.12.62-.19,1-.21,1.16a7.22,7.22,0,0,0-.06.92c0,.13,0,.2,0,.2l.13-.11A13.16,13.16,0,0,0,22,40.79a11,11,0,0,1,1-1.34.82.82,0,0,1,.58-.28,1,1,0,0,1,.65.3,1.57,1.57,0,0,1,.37.92c0,.07,0,.31,0,.75A12.38,12.38,0,0,1,24.28,44c-.57,2.46-1.33,3.7-2.28,3.7Zm.8-6.62c.46-.69.8-1.17,1-1.47l-.17.18a12.78,12.78,0,0,0-1,1.38,20.22,20.22,0,0,1-1.2,1.67A7.41,7.41,0,0,0,22.58,41.08Zm-.42,6.13a3.36,3.36,0,0,0,.44-.62,7.91,7.91,0,0,0,.54-1.31,12.24,12.24,0,0,0,.45-1.62,2,2,0,0,0,.05-.25s0,0,0,0a.77.77,0,0,0-.19.15c-.29.26-.48.44-.58.55A4.9,4.9,0,0,0,21.66,46a2.09,2.09,0,0,0-.11.56v.19a1.15,1.15,0,0,0,.13.48c.05.13.11.19.17.19S22,47.35,22.16,47.21Zm1.2-.92a5.47,5.47,0,0,0,.34-.81,15.41,15.41,0,0,0,.45-1.61c.11-.58.17-.9.17-.93v0l-.12.53a12.88,12.88,0,0,1-.8,2.72,1.16,1.16,0,0,0-.06.17Z" transform="translate(-0.5 -0.5)"/><path d="M25.89,43.48a.72.72,0,0,1-.36-.41,1.82,1.82,0,0,1,0-.45,3.69,3.69,0,0,1,0-.58A7.73,7.73,0,0,1,26,40.23c.08-.17.15-.26.22-.26h.07a.28.28,0,0,1,.21.12.34.34,0,0,1,.1.22c0,.13,0,.34-.07.65-.11.72-.17,1.26-.19,1.65.13-.14.27-.34.46-.59a7.27,7.27,0,0,1,.76-1,.49.49,0,0,1,.34-.15c.3,0,.47.25.53.76s.1.55.14.55A1.26,1.26,0,0,0,29,42a.94.94,0,0,0,.12-.09c.16-.13.34-.27.51-.43s.23-.19.31-.19.12.05.12.15-.24.42-.72.88a1.83,1.83,0,0,1-.36.29.47.47,0,0,1-.16,0,.75.75,0,0,1-.42-.14,1.09,1.09,0,0,1-.47-.89l0-.19a5.08,5.08,0,0,0-.8,1.26,5.91,5.91,0,0,1-.45.81.34.34,0,0,1-.29.13A.89.89,0,0,1,25.89,43.48Zm.85-.48a2.81,2.81,0,0,0,.24-.46l-.47.76a.28.28,0,0,0,0,.07v0h0A2.37,2.37,0,0,0,26.74,43Z" transform="translate(-0.5 -0.5)"/><path d="M29.82,43.51a1.32,1.32,0,0,1-.36-.41,1.09,1.09,0,0,1,0-.28,4.93,4.93,0,0,1,.06-.62,4.08,4.08,0,0,1,.31-1,2.13,2.13,0,0,1,.68-.93.42.42,0,0,1,.21-.06.46.46,0,0,1,.32.18,1.13,1.13,0,0,1,.27.84v.22a3.5,3.5,0,0,1-.05.41c0,.16-.07.24-.11.24l-.07,0a.28.28,0,0,1-.14-.12.34.34,0,0,1-.09-.25,3.65,3.65,0,0,1,0-.38,2.82,2.82,0,0,0,0-.48c0-.09,0-.14,0-.14s-.1.09-.22.27a3.7,3.7,0,0,0-.36.81A4.43,4.43,0,0,0,30,43.14c0,.06,0,.09,0,.09a1.47,1.47,0,0,0,.53-.17,9.61,9.61,0,0,0,1.9-1.44c.42-.36.65-.57.68-.6l.15-.11h.06a.31.31,0,0,1,.13.1.31.31,0,0,1,.05.17,4.69,4.69,0,0,1-.89,1c-.42.42-.76.73-1,.95a2.16,2.16,0,0,1-1.27.6A1,1,0,0,1,29.82,43.51Zm1.24-.14s0,0,.06,0h-.05l-.05,0h0Zm.16-.09a4.17,4.17,0,0,0,.74-.59l.25-.24c-.29.25-.55.47-.79.65l-.27.21Z" transform="translate(-0.5 -0.5)"/><path d="M34.4,43.59c-.27-.08-.41-.51-.41-1.28a5,5,0,0,0-.08-.83s0,0-.12,0a1.39,1.39,0,0,1-.32-.05,1.05,1.05,0,0,1-.76-.53,1,1,0,0,1-.05-.34A4.28,4.28,0,0,1,33,39.1a2.56,2.56,0,0,1,.7-1.05.7.7,0,0,1,.38-.11,1.12,1.12,0,0,1,.78.33.47.47,0,0,1,.17.37,3.89,3.89,0,0,1-.44,1.22c-.29.61-.55,1-.77,1-.05,0-.08,0-.08.06s.05,0,.15,0a1,1,0,0,1,.82.45,1.41,1.41,0,0,1,0,.37c0,.52,0,.84,0,1v.32h0c.08,0,.23-.13.46-.37A4.85,4.85,0,0,0,36,41.61c.06-.2.13-.29.2-.29a.16.16,0,0,1,.09,0s.05.06.05.09v0a3.2,3.2,0,0,1-.42,1.05,5.26,5.26,0,0,1-.78.92.75.75,0,0,1-.51.19A.67.67,0,0,1,34.4,43.59Zm-.85-3.19a4.84,4.84,0,0,1,.36-1.13,1.46,1.46,0,0,0,.15-.4h0a.85.85,0,0,0-.11.21,3.54,3.54,0,0,0-.48,1.48.6.6,0,0,0,0,.23Zm.81-.42a.39.39,0,0,0,0-.09,5.32,5.32,0,0,0,.3-.69,2.17,2.17,0,0,0,.13-.48s0-.07,0-.08a1.8,1.8,0,0,0-.07.22q-.2.6-.42,1.17S34.35,40,34.36,40Zm.25,3.09v-.84a1.75,1.75,0,0,0-.06-.67s0,0,0,.06v.05a13.76,13.76,0,0,0,.05,1.48s0,0,0,0Z" transform="translate(-0.5 -0.5)"/><path d="M36.38,43.35a1.2,1.2,0,0,1-.53-1A2.44,2.44,0,0,1,36.33,41a2,2,0,0,1,.63-.64h0a.19.19,0,0,1,.1,0,.13.13,0,0,1,.07,0l.14.07a1.36,1.36,0,0,1,.15.25,14,14,0,0,1,1.61.14.52.52,0,0,1,.46.32.24.24,0,0,1,0,.12,1.78,1.78,0,0,1-.57,0l-.82,0a4.06,4.06,0,0,0-.73.07,1.92,1.92,0,0,1,.48.79,1.29,1.29,0,0,1,0,.25.74.74,0,0,1-.07.31,1.34,1.34,0,0,1-.27.33,1.1,1.1,0,0,1-.77.41A.78.78,0,0,1,36.38,43.35Zm.47-.75a1.67,1.67,0,0,0,.3-.22,1.08,1.08,0,0,0,.18-.24.41.41,0,0,0,.09-.2s0,0-.08-.1l-.19-.19-.23-.23a4.57,4.57,0,0,0-.35.76,1.93,1.93,0,0,0-.12.53,0,0,0,0,0,0,0A.9.9,0,0,0,36.85,42.6Zm.3.6a1,1,0,0,0,.31-.23c.12-.12.19-.19.19-.22s-.07,0-.17.14l-.2.17a.94.94,0,0,1-.17.11l-.11.07s0,0,0,0Z" transform="translate(-0.5 -0.5)"/><path d="M46.19,45.49a.66.66,0,0,1-.23-.44c0-.17,0-.45.09-.84a3.35,3.35,0,0,0,.06-.55,1.71,1.71,0,0,0,0-.36,3.45,3.45,0,0,0-3.64-3c-.23,0-.62,0-1.14.06h-.37a1.23,1.23,0,0,1-1.13-.59.83.83,0,0,1-.12-.4c0-.25.29-.66.88-1.22a23.6,23.6,0,0,1,3.61-2.74,34.84,34.84,0,0,1,4.57-2.46,13.12,13.12,0,0,1,4.6-1.34,3.94,3.94,0,0,1,.56,0,.82.82,0,0,1,.48.3l.17.22a1.11,1.11,0,0,1,.17.68,3.53,3.53,0,0,1-.85,2,35.59,35.59,0,0,1-3.36,3.79c-.51.52-.77.79-.77.8h0l.09,0a6.59,6.59,0,0,1,1.91-.35,1.78,1.78,0,0,1,.44,0,1.52,1.52,0,0,1,.41.13,1.64,1.64,0,0,1,.34.29,2.07,2.07,0,0,1,.27.35,1,1,0,0,1,.13.35,2.27,2.27,0,0,1,0,.48,3,3,0,0,1,0,.48q-.41,1.52-3,3.14a5.47,5.47,0,0,1-2.35,1h-.12a.52.52,0,0,1-.22-.1.75.75,0,0,1-.29-.34.64.64,0,0,1-.07-.28c0-.07.07-.17.22-.32a3.09,3.09,0,0,1,.43-.37,7.84,7.84,0,0,1,1.47-.88,3.14,3.14,0,0,1,1.16-.33.55.55,0,0,1,.25.05v.06l0,0,.12-.08.2-.16a4.73,4.73,0,0,0,.78-.69,4.63,4.63,0,0,0,.61-.68,4,4,0,0,0,.29-.47,1.73,1.73,0,0,0,.14-.5l-.14-.1a1.67,1.67,0,0,0-.95-.24,8.35,8.35,0,0,0-2.81.73,2.83,2.83,0,0,1-.56.21.38.38,0,0,1-.29-.25,1.25,1.25,0,0,1-.14-.41.58.58,0,0,1,.14-.34c.41-.53,1.54-1.76,3.4-3.67.62-.64,1.1-1.16,1.46-1.57a7,7,0,0,0,1.3-2l-.06-.06c-.11-.12-.43-.18-.94-.18a6.26,6.26,0,0,0-1.71.28,26,26,0,0,0-6.1,2.76,18.8,18.8,0,0,0-4.7,3.74,2,2,0,0,0-.21.28h1.15a5.3,5.3,0,0,1,2.34.57,5.13,5.13,0,0,1,2.13,2.25l.15.25.24-1c.79-3.38,1.41-5.35,1.86-5.93.1-.15.18-.23.23-.23a.25.25,0,0,1,.11,0,.27.27,0,0,1,.1.11.2.2,0,0,1,0,.14s0,.07,0,.07a9,9,0,0,0-.66,1.91,60.88,60.88,0,0,0-1.36,6.23,5.36,5.36,0,0,0-.06.69,4,4,0,0,1-.06.72,1,1,0,0,1-.15.4h-.06A.57.57,0,0,1,46.19,45.49ZM40.46,39.3a9.13,9.13,0,0,1,1.11-1.19A25.93,25.93,0,0,1,45.93,35a27.67,27.67,0,0,1,5-2.27,9.46,9.46,0,0,1,2.42-.51l.42,0h-.24l-.18,0a7.49,7.49,0,0,0-2,.39A26,26,0,0,0,45.85,35a23.34,23.34,0,0,0-4.65,3.4,6.71,6.71,0,0,0-.75.84l-.06.13Zm9.08,5.22a10,10,0,0,0,2.77-2.06,12.44,12.44,0,0,1-1.79,1.4,13.35,13.35,0,0,1-1.9,1,3.53,3.53,0,0,1-.42.18l-.06,0h.07A5.82,5.82,0,0,0,49.54,44.52Zm-.78-4c.11,0,.23-.08.38-.15a9.84,9.84,0,0,1,2.34-.66l.35-.06h-.25a8,8,0,0,0-2.43.65,1.92,1.92,0,0,0-.57.27h0Zm.78,3.06a3.86,3.86,0,0,0,.66-.4h0a3.1,3.1,0,0,0-.53.24l-.41.23-.39.24a.71.71,0,0,0-.16.13A5.47,5.47,0,0,0,49.54,43.6Z" transform="translate(-0.5 -0.5)"/><path d="M54.71,43.52c0-.32.15-.49.46-.49a.68.68,0,0,1,.28.07.75.75,0,0,1,.35.53.54.54,0,0,1-.23.4.79.79,0,0,1-.54.25C54.81,44.28,54.71,44,54.71,43.52Z" transform="translate(-0.5 -0.5)"/><path d="M56.48,43.51a1.06,1.06,0,0,1-.31-.36,1.28,1.28,0,0,1-.08-.47,4.33,4.33,0,0,1,.22-1.2c.15-.48.3-.73.45-.73a.5.5,0,0,1,.2.09q.09.09.09.12a3.33,3.33,0,0,1-.07.46,10.92,10.92,0,0,0-.12,1.46c0,.12,0,.19,0,.19a2.65,2.65,0,0,0,.5-.28,7.89,7.89,0,0,0,1.23-1,7.49,7.49,0,0,0,.7-.72c.14-.19.27-.28.37-.28a.14.14,0,0,1,.14.09.35.35,0,0,1,0,.2c0,.25-.41.8-1.23,1.64-.65.65-1.15,1-1.5,1A1,1,0,0,1,56.48,43.51ZM56.55,40a.5.5,0,0,1-.15-.33v-.12a1.67,1.67,0,0,1,.35-.73c.19-.25.36-.38.52-.38a.38.38,0,0,1,.25.13c.07.08.1.13.1.18s0,.06,0,.06a.2.2,0,0,1-.11,0s0,0,0,0a0,0,0,0,0,0,0s0,0,0,0a.11.11,0,0,0,0,.08.72.72,0,0,1,.18.49.92.92,0,0,1-.21.58.63.63,0,0,1-.44.25A.59.59,0,0,1,56.55,40Zm.56-.7a.55.55,0,0,0,.06-.19s0,0,0,0L57,39.3c-.06.14-.09.21-.09.22h0S57,39.45,57.11,39.3Zm1,3.66A10,10,0,0,0,59.1,42a3.58,3.58,0,0,0,.37-.44l-.08.08c-.38.42-.7.76-1,1a3.71,3.71,0,0,0-.34.31Z" transform="translate(-0.5 -0.5)"/><path d="M59.75,45.47a5,5,0,0,1-.28-1.28c0-.27,0-.81,0-1.61a21.65,21.65,0,0,1,.41-4.46,1.68,1.68,0,0,0,.06-.31h0l-.29,0L59,38c-.21.07-.38.14-.52.2s-.42.21-.42.27v0s0,0,0,0a.21.21,0,0,1-.14-.07c-.07-.06-.11-.11-.11-.16a.23.23,0,0,1,0-.09c0-.17.29-.36.74-.57a6.76,6.76,0,0,1,1.2-.41l.35-.07a2.69,2.69,0,0,1,.15-.49,12.3,12.3,0,0,1,1.32-3h.05a.47.47,0,0,1,.35.17.05.05,0,0,1,0,0,.15.15,0,0,1,0,.07,2.25,2.25,0,0,1-.11.37A24.15,24.15,0,0,0,61,37.07a6.42,6.42,0,0,0,.77,0,9.57,9.57,0,0,1,1.12.07q.9.14.9.57c0,.07,0,.11,0,.11a.52.52,0,0,1-.18-.06,2,2,0,0,0-.57-.14c-.23,0-.56,0-1,0s-.79,0-1.14,0a24.32,24.32,0,0,0-.69,5.62,6.6,6.6,0,0,0,.31,2.49l.1.22a.14.14,0,0,1-.13.05A.78.78,0,0,1,59.75,45.47ZM60.58,38c0-.18.06-.29.06-.31h0a5.69,5.69,0,0,0-.18.79A26,26,0,0,0,60,41.81c0,.38,0,.68,0,.89,0,.54,0,.8,0,.79A26.89,26.89,0,0,1,60.58,38ZM60,44.12V44a.55.55,0,0,0,0,.12Zm0,.29h0v.06S60,44.45,60,44.41Zm.9-7.72c.18-.64.39-1.23.61-1.81a2.6,2.6,0,0,0,.14-.37A13.07,13.07,0,0,0,61,36.17c-.16.48-.24.78-.27.9a.06.06,0,0,0,0,0A1.81,1.81,0,0,0,60.93,36.69Zm.78-2.25s0,0,0,0a.06.06,0,0,0,0,0l-.06.08h0A0,0,0,0,0,61.71,34.44Z" transform="translate(-0.5 -0.5)"/></g></svg>