<svg width="17" height="16" viewBox="0 0 17 16" fill="none" xmlns="http://www.w3.org/2000/svg">
<path fill-rule="evenodd" clip-rule="evenodd" d="M1.79053 0.871338C1.52531 0.871338 1.27096 0.976695 1.08342 1.16423C0.895884 1.35177 0.790527 1.60612 0.790527 1.87134C0.790527 2.13655 0.895884 2.39091 1.08342 2.57844C1.27096 2.76598 1.52531 2.87134 1.79053 2.87134V10.8713C1.79053 11.4018 2.00124 11.9105 2.37631 12.2856C2.75139 12.6606 3.26009 12.8713 3.79053 12.8713H6.37653L5.08353 14.1643C4.98802 14.2566 4.91184 14.3669 4.85943 14.4889C4.80702 14.6109 4.77943 14.7422 4.77828 14.8749C4.77712 15.0077 4.80242 15.1394 4.85271 15.2623C4.90299 15.3852 4.97724 15.4968 5.07113 15.5907C5.16502 15.6846 5.27668 15.7589 5.39957 15.8092C5.52247 15.8594 5.65415 15.8847 5.78693 15.8836C5.91971 15.8824 6.05093 15.8548 6.17293 15.8024C6.29494 15.75 6.40528 15.6738 6.49753 15.5783L8.79053 13.2853L11.0835 15.5783C11.2721 15.7605 11.5247 15.8613 11.7869 15.859C12.0491 15.8567 12.2999 15.7516 12.4853 15.5662C12.6708 15.3807 12.7759 15.1299 12.7782 14.8677C12.7805 14.6055 12.6797 14.3529 12.4975 14.1643L11.2045 12.8713H13.7905C14.321 12.8713 14.8297 12.6606 15.2047 12.2856C15.5798 11.9105 15.7905 11.4018 15.7905 10.8713V2.87134C16.0557 2.87134 16.3101 2.76598 16.4976 2.57844C16.6852 2.39091 16.7905 2.13655 16.7905 1.87134C16.7905 1.60612 16.6852 1.35177 16.4976 1.16423C16.3101 0.976695 16.0557 0.871338 15.7905 0.871338H1.79053ZM13.4975 5.57834C13.6797 5.38974 13.7805 5.13713 13.7782 4.87494C13.7759 4.61274 13.6708 4.36193 13.4853 4.17652C13.2999 3.99111 13.0491 3.88594 12.7869 3.88366C12.5247 3.88139 12.2721 3.98218 12.0835 4.16434L8.79053 7.45734L7.49753 6.16434C7.31 5.97687 7.05569 5.87155 6.79053 5.87155C6.52536 5.87155 6.27106 5.97687 6.08353 6.16434L4.08353 8.16434C3.98802 8.25659 3.91183 8.36693 3.85943 8.48893C3.80702 8.61094 3.77943 8.74216 3.77828 8.87494C3.77712 9.00772 3.80242 9.1394 3.85271 9.26229C3.90299 9.38519 3.97724 9.49684 4.07113 9.59073C4.16502 9.68463 4.27668 9.75888 4.39957 9.80916C4.52247 9.85944 4.65415 9.88474 4.78693 9.88359C4.91971 9.88243 5.05093 9.85485 5.17293 9.80244C5.29494 9.75003 5.40528 9.67385 5.49753 9.57834L6.79053 8.28534L8.08353 9.57834C8.27106 9.76581 8.52536 9.87112 8.79053 9.87112C9.05569 9.87112 9.31 9.76581 9.49753 9.57834L13.4975 5.57834Z" fill="currentColor"/>
</svg>
