<svg width="16" height="19" viewBox="0 0 16 19" fill="none" xmlns="http://www.w3.org/2000/svg">
<path fill-rule="evenodd" clip-rule="evenodd" d="M1.38114 0.0830078C1.67868 0.0830078 1.96403 0.201204 2.17442 0.411594C2.38481 0.621984 2.503 0.907335 2.503 1.20487V3.56191C3.43644 2.60975 4.59688 1.91087 5.87504 1.53109C7.15319 1.15131 8.50698 1.10314 9.8089 1.39111C11.1108 1.67907 12.318 2.2937 13.3167 3.17711C14.3155 4.06051 15.0729 5.1836 15.5177 6.44061C15.5717 6.58057 15.5971 6.72993 15.5923 6.87986C15.5875 7.02979 15.5527 7.17724 15.49 7.31349C15.4272 7.44973 15.3378 7.57202 15.227 7.6731C15.1161 7.77418 14.9862 7.85201 14.8447 7.90198C14.7033 7.95195 14.5533 7.97305 14.4035 7.96403C14.2538 7.95501 14.1074 7.91605 13.973 7.84946C13.8386 7.78288 13.7189 7.69001 13.621 7.57635C13.5231 7.4627 13.449 7.33057 13.403 7.18777C13.0644 6.23061 12.4724 5.38327 11.6901 4.73602C10.9079 4.08878 9.96471 3.66589 8.96108 3.51241C7.95745 3.35894 6.93098 3.48063 5.99106 3.86452C5.05113 4.24841 4.23297 4.88012 3.62375 5.69233H6.99046C7.28799 5.69233 7.57335 5.81052 7.78374 6.02091C7.99413 6.2313 8.11232 6.51665 8.11232 6.81419C8.11232 7.11173 7.99413 7.39708 7.78374 7.60747C7.57335 7.81786 7.28799 7.93605 6.99046 7.93605H1.38114C1.0836 7.93605 0.798254 7.81786 0.587864 7.60747C0.377473 7.39708 0.259277 7.11173 0.259277 6.81419V1.20487C0.259277 0.907335 0.377473 0.621984 0.587864 0.411594C0.798254 0.201204 1.0836 0.0830078 1.38114 0.0830078ZM1.39012 10.2437C1.52904 10.1947 1.67628 10.1734 1.8234 10.1813C1.97053 10.1891 2.11468 10.2258 2.24761 10.2894C2.38054 10.3529 2.49965 10.442 2.59814 10.5516C2.69663 10.6612 2.77256 10.7891 2.82161 10.9281C3.16026 11.8852 3.75225 12.7326 4.5345 13.3798C5.31674 14.0271 6.25993 14.4499 7.26356 14.6034C8.26719 14.7569 9.29366 14.6352 10.2336 14.2513C11.1735 13.8674 11.9917 13.2357 12.6009 12.4235H9.23419C8.93665 12.4235 8.6513 12.3053 8.44091 12.0949C8.23052 11.8845 8.11232 11.5992 8.11232 11.3016C8.11232 11.0041 8.23052 10.7188 8.44091 10.5084C8.6513 10.298 8.93665 10.1798 9.23419 10.1798H14.8435C15.141 10.1798 15.4264 10.298 15.6368 10.5084C15.8472 10.7188 15.9654 11.0041 15.9654 11.3016V16.911C15.9654 17.2085 15.8472 17.4938 15.6368 17.7042C15.4264 17.9146 15.141 18.0328 14.8435 18.0328C14.546 18.0328 14.2606 17.9146 14.0502 17.7042C13.8398 17.4938 13.7216 17.2085 13.7216 16.911V14.5539C12.7882 15.5061 11.6278 16.205 10.3496 16.5847C9.07145 16.9645 7.71766 17.0127 6.41575 16.7247C5.11383 16.4368 3.90665 15.8221 2.9079 14.9387C1.90914 14.0553 1.1517 12.9322 0.706901 11.6752C0.657831 11.5363 0.636608 11.3891 0.644443 11.2419C0.652279 11.0948 0.68902 10.9507 0.752567 10.8177C0.816115 10.6848 0.905225 10.5657 1.01481 10.4672C1.12439 10.3687 1.2523 10.2928 1.39124 10.2437H1.39012Z" fill="#32C48D"/>
</svg>
