<svg width="102" height="41" viewBox="0 0 102 41" fill="none" xmlns="http://www.w3.org/2000/svg">
<path fill-rule="evenodd" clip-rule="evenodd" d="M9.24686 0.709587C4.52554 0.709587 0.698151 4.53699 0.698151 9.25831V31.7998C0.698151 36.5212 4.52555 40.3485 9.24687 40.3485H31.7884C36.5097 40.3485 40.3371 36.5211 40.3371 31.7998V22.7438H58.3309L52.6243 28.4505C51.7594 29.3154 51.7594 30.7177 52.6243 31.5826C53.4892 32.4475 54.8915 32.4475 55.7564 31.5826L65.2439 22.0951C66.1088 21.2302 66.1088 19.8279 65.2439 18.963L55.7564 9.47554C54.8915 8.61063 53.4892 8.61063 52.6243 9.47554C51.7594 10.3405 51.7594 11.7428 52.6243 12.6077L58.3309 18.3143H40.3371V9.2583C40.3371 4.53698 36.5097 0.709587 31.7884 0.709587H9.24686ZM20.5177 4.76894C11.8137 4.76894 4.75761 11.825 4.75761 20.5291C4.75761 29.2331 11.8137 36.2892 20.5177 36.2892C29.2218 36.2892 36.2779 29.2331 36.2779 20.5291C36.2779 11.825 29.2218 4.76894 20.5177 4.76894ZM78.5562 15.8029C78.5562 11.0965 82.3882 7.26283 87.138 7.26283C91.8878 7.26283 95.7198 11.0965 95.7198 15.8029C95.7198 20.4814 91.933 24.2976 87.2222 24.3426L87.136 24.3423L87.0522 24.3426C82.3422 24.2967 78.5562 20.4809 78.5562 15.8029ZM78.265 27.3419C74.7954 24.6858 72.5562 20.5082 72.5562 15.8029C72.5562 7.76244 79.0949 1.26283 87.138 1.26283C95.1811 1.26283 101.72 7.76244 101.72 15.8029C101.72 20.509 99.4797 24.6873 96.0091 27.3434C99.4786 29.9996 101.718 34.1771 101.718 38.8824H95.7178C95.7178 34.2044 91.9319 30.3886 87.2218 30.3427L87.138 30.343L87.0518 30.3427C82.341 30.3877 78.5543 34.2039 78.5543 38.8824H72.5543C72.5543 34.1763 74.7943 29.998 78.265 27.3419Z" fill="white"/>
</svg>
