<svg width="35" height="35" viewBox="0 0 35 35" fill="none" xmlns="http://www.w3.org/2000/svg">
<path fill-rule="evenodd" clip-rule="evenodd" d="M34.2305 17.1153C34.2305 26.5678 26.5678 34.2305 17.1153 34.2305C7.66276 34.2305 0 26.5678 0 17.1153C0 7.66277 7.66276 0 17.1153 0C26.5678 0 34.2305 7.66277 34.2305 17.1153ZM5.93013 14.4853C5.93013 17.1136 8.06082 19.2442 10.6891 19.2442H15.1263H16.2171V25.0752L13.9031 22.7612C13.5524 22.4105 12.9838 22.4105 12.633 22.7612C12.2823 23.112 12.2823 23.6806 12.633 24.0313L16.4803 27.8786C16.831 28.2293 17.3997 28.2293 17.7504 27.8786L21.5976 24.0313C21.9484 23.6806 21.9484 23.112 21.5976 22.7612C21.2469 22.4105 20.6783 22.4105 20.3275 22.7612L18.0133 25.0754L18.0133 19.2442H19.1043L25.148 19.2443L25.5724 19.2442C27.079 19.2442 28.3005 18.0228 28.3005 16.5161C28.3005 15.0095 27.079 13.7881 25.5724 13.7881C25.3915 13.7881 25.2148 13.8056 25.0438 13.8392C25.1122 13.4587 25.148 13.0668 25.148 12.6665C25.148 9.03378 22.2031 6.08886 18.5703 6.08886C15.8521 6.08886 13.5189 7.73767 12.5165 10.0897C11.9538 9.85555 11.3366 9.72626 10.6891 9.72626C8.06082 9.72626 5.93013 11.8569 5.93013 14.4853ZM20.3697 12.4274L15.9746 16.8224L13.3006 14.1484L14.45 12.9989L15.9746 14.5235L19.2202 11.2779L20.3697 12.4274Z" fill="white"/>
</svg>
