<svg width="45" height="30" viewBox="0 0 45 30" fill="none" xmlns="http://www.w3.org/2000/svg">
<path fill-rule="evenodd" clip-rule="evenodd" d="M9.41361 26.06C4.21462 26.06 0 21.8393 0 16.6328C0 11.4262 4.21462 7.20552 9.41361 7.20552C10.6943 7.20552 11.9152 7.46163 13.0282 7.92549C15.0111 3.26622 19.6262 0 25.003 0C32.1889 0 38.0143 5.83373 38.0143 13.03C38.0143 13.8229 37.9436 14.5992 37.8081 15.353C38.1464 15.2865 38.4959 15.2516 38.8537 15.2516C41.834 15.2516 44.25 17.6712 44.25 20.6558C44.25 23.6405 41.834 26.06 38.8537 26.06C38.5682 26.06 38.2878 26.0378 38.0143 25.995V26.0601H26.0593L22.1251 30L18.1908 26.06H9.41361ZM19.8687 21.2625L28.5624 12.5562L26.2887 10.2793L19.8687 16.7086L16.8529 13.6885L14.5793 15.9654L19.8687 21.2625Z" fill="white"/>
<path fill-rule="evenodd" clip-rule="evenodd" d="M9.41361 26.06C4.21462 26.06 0 21.8393 0 16.6328C0 11.4262 4.21462 7.20552 9.41361 7.20552C10.6943 7.20552 11.9152 7.46163 13.0282 7.92549C15.0111 3.26622 19.6262 0 25.003 0C32.1889 0 38.0143 5.83373 38.0143 13.03C38.0143 13.8229 37.9436 14.5992 37.8081 15.353C38.1464 15.2865 38.4959 15.2516 38.8537 15.2516C41.834 15.2516 44.25 17.6712 44.25 20.6558C44.25 23.6405 41.834 26.06 38.8537 26.06C38.5682 26.06 38.2878 26.0378 38.0143 25.995V26.0601H26.0593L22.1251 30L18.1908 26.06H9.41361ZM19.8687 21.2625L28.5624 12.5562L26.2887 10.2793L19.8687 16.7086L16.8529 13.6885L14.5793 15.9654L19.8687 21.2625Z" fill="white"/>
</svg>
