<svg width="21" height="21" viewBox="0 0 21 21" fill="none" xmlns="http://www.w3.org/2000/svg">
<path d="M12.1429 2.43858C11.7169 0.682582 9.2189 0.682582 8.7929 2.43858C8.5169 3.57358 7.2169 4.11158 6.2209 3.50358C4.6769 2.56358 2.9109 4.33058 3.8509 5.87358C3.9922 6.10533 4.07678 6.36718 4.09776 6.6378C4.11875 6.90842 4.07553 7.18017 3.97164 7.43093C3.86775 7.68169 3.70612 7.90438 3.4999 8.08087C3.29367 8.25736 3.04869 8.38266 2.7849 8.44658C1.0289 8.87258 1.0289 11.3706 2.7849 11.7966C3.04846 11.8607 3.29318 11.9861 3.49917 12.1625C3.70516 12.339 3.8666 12.5616 3.97037 12.8122C4.07414 13.0628 4.11731 13.3344 4.09638 13.6048C4.07545 13.8752 3.991 14.1369 3.8499 14.3686C2.9099 15.9126 4.6769 17.6786 6.2199 16.7386C6.45165 16.5973 6.71349 16.5127 6.98411 16.4917C7.25473 16.4707 7.52648 16.5139 7.77724 16.6178C8.02801 16.7217 8.2507 16.8834 8.42719 17.0896C8.60367 17.2958 8.72898 17.5408 8.7929 17.8046C9.2189 19.5606 11.7169 19.5606 12.1429 17.8046C12.207 17.541 12.3324 17.2963 12.5088 17.0903C12.6853 16.8843 12.9079 16.7229 13.1585 16.6191C13.4091 16.5153 13.6807 16.4722 13.9511 16.4931C14.2216 16.514 14.4832 16.5985 14.7149 16.7396C16.2589 17.6796 18.0249 15.9126 17.0849 14.3696C16.9436 14.1378 16.859 13.876 16.838 13.6054C16.817 13.3347 16.8603 13.063 16.9641 12.8122C17.068 12.5615 17.2297 12.3388 17.4359 12.1623C17.6421 11.9858 17.8871 11.8605 18.1509 11.7966C19.9069 11.3706 19.9069 8.87258 18.1509 8.44658C17.8873 8.38249 17.6426 8.25711 17.4366 8.08063C17.2306 7.90416 17.0692 7.68157 16.9654 7.43096C16.8617 7.18035 16.8185 6.90879 16.8394 6.63836C16.8603 6.36792 16.9448 6.10624 17.0859 5.87458C18.0259 4.33058 16.2589 2.56458 14.7159 3.50458C14.4841 3.64588 14.2223 3.73047 13.9517 3.75145C13.6811 3.77243 13.4093 3.72922 13.1585 3.62533C12.9078 3.52144 12.6851 3.3598 12.5086 3.15358C12.3321 2.94736 12.2068 2.70238 12.1429 2.43858Z" stroke="#A667F6" stroke-width="2" stroke-linecap="round" stroke-linejoin="round"/>
<path d="M12.5892 12.2429C13.1518 11.6803 13.4679 10.9172 13.4679 10.1216C13.4679 9.32593 13.1518 8.56287 12.5892 8.00026C12.0266 7.43765 11.2635 7.12158 10.4679 7.12158C9.67225 7.12158 8.90918 7.43765 8.34657 8.00026C7.78397 8.56287 7.4679 9.32593 7.4679 10.1216C7.4679 10.9172 7.78397 11.6803 8.34657 12.2429C8.90918 12.8055 9.67225 13.1216 10.4679 13.1216C11.2635 13.1216 12.0266 12.8055 12.5892 12.2429Z" stroke="#A667F6" stroke-width="2" stroke-linecap="round" stroke-linejoin="round"/>
</svg>
