<svg width="17" height="13" viewBox="0 0 17 13" fill="none" xmlns="http://www.w3.org/2000/svg">
<path d="M4.38273 12.4804C3.48726 12.4792 2.62629 12.1349 1.977 11.5182C1.32771 10.9015 0.939487 10.0594 0.892214 9.16518C0.84494 8.27096 1.14221 7.39263 1.72286 6.71092C2.30351 6.02922 3.12337 5.596 4.01373 5.50041C3.75156 4.4723 3.90855 3.38215 4.45016 2.46979C4.99176 1.55742 5.87362 0.897579 6.90173 0.635412C7.92984 0.373246 9.01999 0.530232 9.93235 1.07184C10.8447 1.61344 11.5046 2.4953 11.7667 3.52341C12.3782 3.43828 13.0006 3.47986 13.5953 3.64558C14.19 3.8113 14.7442 4.0976 15.2235 4.48669C15.7028 4.87578 16.0969 5.35933 16.3813 5.90726C16.6657 6.45519 16.8344 7.05577 16.8767 7.67166C16.9191 8.28756 16.8343 8.90557 16.6275 9.48728C16.4208 10.069 16.0966 10.6019 15.6751 11.053C15.2536 11.504 14.7437 11.8635 14.1773 12.1091C13.6109 12.3546 13.0001 12.481 12.3827 12.4804H4.38273Z" fill="currentColor"/>
</svg>
