<svg width="30" height="31" viewBox="0 0 30 31" fill="none" xmlns="http://www.w3.org/2000/svg">
<path d="M12.4373 22.8666L8.90208 26.4018C7.43648 27.8674 5.06304 27.8674 3.59866 26.4021C2.13399 24.9374 2.13399 22.5637 3.59836 21.0994L10.6699 14.0278C12.1343 12.5634 14.508 12.5634 15.9724 14.0278C16.4605 14.516 17.252 14.516 17.7402 14.0278C18.2284 13.5396 18.2284 12.7481 17.7402 12.2599C15.2994 9.81918 11.3429 9.81918 8.90208 12.2599L1.83058 19.3315C-0.610192 21.7722 -0.610192 25.7288 1.83058 28.1696C4.27105 30.6116 8.22793 30.6116 10.67 28.1696L14.2052 24.6344C14.6933 24.1462 14.6933 23.3547 14.2052 22.8666C13.717 22.3784 12.9254 22.3785 12.4373 22.8666Z" fill="currentColor"/>
<path d="M28.1691 1.83057C25.7283 -0.610191 21.7704 -0.610191 19.3297 1.83057L15.0882 6.072C14.6001 6.56017 14.6001 7.35168 15.0882 7.83985C15.5764 8.32801 16.3679 8.32801 16.8561 7.83985L21.0975 3.59842C22.5619 2.13399 24.9368 2.13399 26.4012 3.59842C27.8656 5.0628 27.8656 7.43647 26.4012 8.90085L18.6234 16.6787C17.159 18.1432 14.7854 18.1432 13.321 16.6787C12.8328 16.1906 12.0413 16.1906 11.5531 16.6787C11.065 17.1669 11.065 17.9584 11.5531 18.4466C13.9939 20.8873 17.9505 20.8873 20.3913 18.4466L28.1691 10.6688C30.6099 8.22799 30.6099 4.27134 28.1691 1.83057Z" fill="currentColor"/>
</svg>
