<svg width="54" height="53" viewBox="0 0 54 53" fill="none" xmlns="http://www.w3.org/2000/svg">
<rect x="0.923828" y="0.152344" width="52.1519" height="52.1519" rx="12" fill="#232749"/>
<path fill-rule="evenodd" clip-rule="evenodd" d="M39.9861 23.2595C32.8135 16.0868 21.1863 16.0868 14.0136 23.2595C13.6987 23.5636 13.277 23.7319 12.8392 23.7281C12.4014 23.7243 11.9827 23.5487 11.6731 23.2392C11.3635 22.9296 11.1879 22.5109 11.1841 22.0731C11.1803 21.6353 11.3486 21.2136 11.6528 20.8987C20.1277 12.422 33.872 12.422 42.347 20.8987C42.6511 21.2136 42.8194 21.6353 42.8156 22.0731C42.8118 22.5109 42.6362 22.9296 42.3266 23.2392C42.0171 23.5487 41.5983 23.7243 41.1605 23.7281C40.7228 23.7319 40.301 23.5636 39.9861 23.2595ZM35.2645 27.9812C34.1792 26.8958 32.8907 26.0348 31.4727 25.4474C30.0546 24.86 28.5348 24.5576 26.9999 24.5576C25.465 24.5576 23.9451 24.86 22.5271 25.4474C21.109 26.0348 19.8206 26.8958 18.7353 27.9812C18.4204 28.2853 17.9986 28.4536 17.5609 28.4498C17.1231 28.446 16.7043 28.2704 16.3948 27.9608C16.0852 27.6513 15.9096 27.2325 15.9058 26.7948C15.902 26.357 16.0703 25.9352 16.3744 25.6203C17.7698 24.225 19.4263 23.1181 21.2494 22.363C23.0725 21.6078 25.0265 21.2191 26.9999 21.2191C28.9732 21.2191 30.9272 21.6078 32.7503 22.363C34.5734 23.1181 36.23 24.225 37.6253 25.6203C37.9294 25.9352 38.0977 26.357 38.0939 26.7948C38.0901 27.2325 37.9145 27.6513 37.605 27.9608C37.2954 28.2704 36.8766 28.446 36.4389 28.4498C36.0011 28.4536 35.5794 28.2853 35.2645 27.9812ZM30.5395 32.7062C29.6002 31.7672 28.3264 31.2397 26.9982 31.2397C25.67 31.2397 24.3962 31.7672 23.4569 32.7062C23.1437 33.0195 22.7187 33.1955 22.2757 33.1955C21.8326 33.1955 21.4077 33.0195 21.0944 32.7062C20.7811 32.3929 20.6051 31.968 20.6051 31.5249C20.6051 31.0819 20.7811 30.657 21.0944 30.3437C21.8697 29.5683 22.79 28.9532 23.803 28.5335C24.816 28.1138 25.9017 27.8978 26.9982 27.8978C28.0947 27.8978 29.1804 28.1138 30.1934 28.5335C31.2064 28.9532 32.1267 29.5683 32.902 30.3437C33.2152 30.657 33.3912 31.0819 33.3912 31.5249C33.3912 31.968 33.2152 32.3929 32.902 32.7062C32.5887 33.0195 32.1638 33.1955 31.7207 33.1955C31.2776 33.1955 30.8527 33.0195 30.5395 32.7062ZM25.3303 36.2458C25.3303 35.803 25.5062 35.3783 25.8193 35.0652C26.1324 34.7521 26.5571 34.5762 26.9999 34.5762H27.0166C27.4594 34.5762 27.884 34.7521 28.1972 35.0652C28.5103 35.3783 28.6862 35.803 28.6862 36.2458C28.6862 36.6886 28.5103 37.1133 28.1972 37.4264C27.884 37.7395 27.4594 37.9154 27.0166 37.9154H26.9999C26.5571 37.9154 26.1324 37.7395 25.8193 37.4264C25.5062 37.1133 25.3303 36.6886 25.3303 36.2458Z" fill="#29D391"/>
</svg>
