<svg width="329" height="96" viewBox="0 0 329 96" fill="none" xmlns="http://www.w3.org/2000/svg">
<rect opacity="0.5" width="122" height="41" rx="8" fill="#465666"/>
<path opacity="0.5" d="M20.0376 22.4727L18.1376 16.1336L16.2203 22.4727H20.0376ZM21.6957 28L20.5039 24.0273H15.7539L14.5621 28H12.8003L17.2566 14.1818H19.0703L23.5266 28H21.6957ZM25.9343 28V17.6364H27.6616V19.3636H28.1798C28.4331 18.7764 28.8304 18.3158 29.3716 17.9818C29.9128 17.6364 30.5288 17.4636 31.2198 17.4636C32.2561 17.4636 33.0737 17.7803 33.6725 18.4136C34.2713 19.047 34.5707 19.9106 34.5707 21.0045V28H32.8434V21.35C32.8434 20.6245 32.6649 20.0718 32.3079 19.6918C31.9625 19.3003 31.4616 19.1045 30.8052 19.1045C30.287 19.1045 29.7573 19.26 29.2161 19.5709C28.6864 19.8818 28.1682 20.3309 27.6616 20.9182V28H25.9343ZM43.2138 26.4455H47.0138V28H41.4865V19.1909H37.6865V17.6364H43.2138V26.4455ZM42.3501 15.7536C41.9126 15.7536 41.5556 15.6845 41.2792 15.5464C41.0144 15.4082 40.882 15.1491 40.882 14.7691V14.6482C40.882 14.2567 41.0144 13.9918 41.2792 13.8536C41.5556 13.7039 41.9126 13.6291 42.3501 13.6291C42.7877 13.6291 43.1389 13.7039 43.4038 13.8536C43.6801 13.9918 43.8183 14.2567 43.8183 14.6482V14.7691C43.8183 15.1491 43.6801 15.4082 43.4038 15.5464C43.1274 15.6845 42.7762 15.7536 42.3501 15.7536ZM51.0278 20.5727V28H49.4387V17.6364H51.0278V19.0182H51.3733C51.592 18.5345 51.8799 18.1545 52.2369 17.8782C52.5939 17.6018 52.9681 17.4636 53.3596 17.4636C53.8087 17.4636 54.1829 17.6018 54.4823 17.8782C54.7933 18.143 55.0063 18.523 55.1214 19.0182H55.5014C55.7202 18.5345 56.0139 18.1545 56.3823 17.8782C56.7623 17.6018 57.1654 17.4636 57.5914 17.4636C58.1672 17.4636 58.622 17.6997 58.956 18.1718C59.2899 18.6324 59.4569 19.26 59.4569 20.0545V28H57.8678V20.3309C57.8678 19.8127 57.7987 19.4212 57.6605 19.1564C57.5223 18.8915 57.3208 18.7591 57.056 18.7591C56.8372 18.7591 56.5608 18.9203 56.2269 19.2427C55.9045 19.5652 55.5763 20.0085 55.2423 20.5727V28H53.6533V20.3309C53.6533 19.8127 53.5784 19.4212 53.4287 19.1564C53.2905 18.8915 53.089 18.7591 52.8242 18.7591C52.5939 18.7591 52.3233 18.9145 52.0123 19.2255C51.7129 19.5364 51.3848 19.9855 51.0278 20.5727ZM65.3018 26.6873C65.9006 26.6873 66.4533 26.5836 66.96 26.3764C67.4667 26.1576 67.9042 25.7833 68.2727 25.2536V23.5955H65.1636C64.6685 23.5955 64.2539 23.7106 63.92 23.9409C63.5976 24.1597 63.4364 24.5512 63.4364 25.1155C63.4364 25.6106 63.5745 25.9964 63.8509 26.2727C64.1388 26.5491 64.6224 26.6873 65.3018 26.6873ZM65.0773 28.1727C64.2021 28.1727 63.4191 27.9424 62.7282 27.4818C62.0488 27.0097 61.7091 26.2555 61.7091 25.2191C61.7091 24.3094 62.0027 23.5955 62.59 23.0773C63.1888 22.5591 63.8855 22.3 64.68 22.3H68.2727V20.8145C68.2727 20.2618 68.0885 19.8242 67.72 19.5018C67.3515 19.1794 66.793 19.0182 66.0445 19.0182C65.2845 19.0182 64.7145 19.1333 64.3345 19.3636C63.9661 19.5824 63.6724 20.0776 63.4536 20.8491L61.9336 20.4345C62.1294 19.4558 62.567 18.7188 63.2464 18.2236C63.9373 17.717 64.8585 17.4636 66.01 17.4636C67.15 17.4636 68.1 17.7227 68.86 18.2409C69.62 18.7476 70 19.5364 70 20.6073V25.2364C70 25.8582 70.1727 26.2497 70.5182 26.4109C70.8636 26.5606 71.3818 26.5779 72.0727 26.4627V28.0518C71.3588 28.1555 70.6852 28.1094 70.0518 27.9136C69.43 27.7064 69.0903 27.1594 69.0327 26.2727H68.6873C68.3648 26.8024 67.8812 27.2515 67.2364 27.62C66.5915 27.9885 65.8718 28.1727 65.0773 28.1727ZM80.3531 28.1555C79.2131 28.1555 78.3264 27.8733 77.6931 27.3091C77.0598 26.7448 76.7431 25.8812 76.7431 24.7182V19.1909H73.8067V17.6364H76.7431V14.1818H78.4704V17.6364H82.9613V19.1909H78.4704V24.5627C78.4704 25.2306 78.6374 25.7258 78.9713 26.0482C79.3052 26.3706 79.8004 26.5318 80.4567 26.5318C80.8943 26.5318 81.3031 26.503 81.6831 26.4455C82.0631 26.3764 82.4258 26.29 82.7713 26.1864L83.1167 27.7582C82.7252 27.8733 82.3049 27.9655 81.8558 28.0345C81.4183 28.1152 80.9174 28.1555 80.3531 28.1555ZM95.0935 25.72C94.7826 26.5836 94.3105 27.2112 93.6771 27.6027C93.0438 27.9827 92.0708 28.1727 90.758 28.1727C89.3877 28.1727 88.3226 27.8445 87.5626 27.1882C86.8026 26.5203 86.4226 25.5358 86.4226 24.2345V21.4536C86.4226 20.1179 86.8199 19.1218 87.6144 18.4655C88.4205 17.7976 89.4683 17.4636 90.758 17.4636C92.0593 17.4636 93.1014 17.8033 93.8844 18.4827C94.6674 19.1506 95.0589 20.1812 95.0589 21.5745V23.1636H88.1499V24.2518C88.1499 25.1155 88.3629 25.743 88.7889 26.1345C89.2265 26.5145 89.8771 26.7045 90.7408 26.7045C91.5699 26.7045 92.1744 26.5894 92.5544 26.3591C92.9344 26.1288 93.2223 25.7545 93.418 25.2364L95.0935 25.72ZM88.1499 21.4536V21.8682H93.3317V21.6091C93.3317 20.6764 93.1129 19.997 92.6753 19.5709C92.2493 19.1448 91.6044 18.9318 90.7408 18.9318C89.8771 18.9318 89.2265 19.1391 88.7889 19.5536C88.3629 19.9567 88.1499 20.59 88.1499 21.4536ZM102.32 26.5318C102.884 26.5318 103.42 26.3821 103.927 26.0827C104.433 25.7833 104.934 25.3285 105.429 24.7182V19.64C105.072 19.4212 104.692 19.26 104.289 19.1564C103.886 19.0412 103.454 18.9836 102.994 18.9836C102.061 18.9836 101.37 19.1909 100.921 19.6055C100.472 20.0085 100.248 20.6245 100.248 21.4536V24.2345C100.248 25.0061 100.42 25.5818 100.766 25.9618C101.111 26.3418 101.629 26.5318 102.32 26.5318ZM104.911 26.2727C104.612 26.8715 104.197 27.3379 103.668 27.6718C103.138 28.0058 102.545 28.1727 101.888 28.1727C100.818 28.1727 99.9884 27.8273 99.4012 27.1364C98.8139 26.4455 98.5202 25.4782 98.5202 24.2345V21.4191C98.5202 20.1639 98.9118 19.1909 99.6948 18.5C100.478 17.8091 101.572 17.4636 102.977 17.4636C103.38 17.4636 103.794 17.5097 104.22 17.6018C104.646 17.6824 105.049 17.7976 105.429 17.9473V14.1818H107.157V28H105.429V26.2727H104.911Z" fill="#81909F"/>
<rect opacity="0.5" x="26" y="55" width="70" height="41" rx="8" fill="#465666"/>
<path opacity="0.5" d="M48.0362 81.1727C46.5278 81.1727 45.3935 80.7985 44.6335 80.05C43.885 79.3015 43.4705 78.1385 43.3899 76.5609L45.1172 76.3709C45.1978 77.6606 45.4396 78.5242 45.8426 78.9618C46.2456 79.3994 46.9826 79.6182 48.0535 79.6182C49.0438 79.6182 49.7808 79.3648 50.2644 78.8582C50.7481 78.34 50.9899 77.5627 50.9899 76.5264V68.7364H47.5353V67.1818H52.7172V76.5091C52.7172 78.0176 52.3141 79.1748 51.5081 79.9809C50.7135 80.7755 49.5562 81.1727 48.0362 81.1727ZM60.4966 81.1727C59.1033 81.1727 58.0324 80.8388 57.2839 80.1709C56.5469 79.4915 56.1784 78.5185 56.1784 77.2518V74.4536C56.1784 73.1755 56.5527 72.1909 57.3012 71.5C58.0497 70.8091 59.1206 70.4636 60.5139 70.4636C61.8957 70.4636 62.9551 70.8091 63.6921 71.5C64.4406 72.1909 64.8148 73.1755 64.8148 74.4536V77.2518C64.8148 78.5185 64.4406 79.4915 63.6921 80.1709C62.9551 80.8388 61.89 81.1727 60.4966 81.1727ZM60.4966 79.6182C61.3718 79.6182 62.0224 79.4224 62.4484 79.0309C62.8745 78.6394 63.0875 78.0464 63.0875 77.2518V74.4536C63.0875 73.6245 62.8745 73.0142 62.4484 72.6227C62.0224 72.2197 61.3718 72.0182 60.4966 72.0182C59.6215 72.0182 58.9709 72.2197 58.5448 72.6227C58.1187 73.0142 57.9057 73.6245 57.9057 74.4536V77.2518C57.9057 78.0464 58.1187 78.6394 58.5448 79.0309C58.9709 79.4224 59.6215 79.6182 60.4966 79.6182ZM69.5197 84.5582C69.2434 84.5582 68.9728 84.5409 68.7079 84.5064C68.4431 84.4718 68.1725 84.4258 67.8961 84.3682L68.1897 82.8309C68.4891 82.9 68.7655 82.9518 69.0188 82.9864C69.2837 83.0209 69.5255 83.0382 69.7443 83.0382C70.274 83.0382 70.7403 82.8885 71.1434 82.5891C71.5579 82.2897 71.8746 81.8118 72.0934 81.1555L72.1452 81H71.5061L67.827 70.6364H69.7097L72.6288 79.5491L75.5306 70.6364H77.3443L73.5443 81.3455C73.1528 82.4624 72.6173 83.2742 71.9379 83.7809C71.27 84.2991 70.464 84.5582 69.5197 84.5582Z" fill="#81909F"/>
<path opacity="0.5" d="M193.208 55V53.4455H197.008V43.2545H196.507C196.116 43.9455 195.609 44.4348 194.987 44.7227C194.377 45.0106 193.669 45.0855 192.863 44.9473L192.69 43.2545C193.577 43.3582 194.389 43.2373 195.126 42.8918C195.863 42.5348 196.507 41.9648 197.06 41.1818H198.736V53.4455H202.19V55H193.208ZM206.17 49.8182H210.833V42.9782L206.17 49.8182ZM214.633 51.3727H212.561V55H210.833V51.3727H204.27V49.8182L210.056 41.1818H212.561V49.8182H214.633V51.3727ZM224.9 55L221.221 49.3345L217.525 55H215.504L220.323 47.9527L215.935 41.1818H217.922L221.411 46.5709L224.935 41.1818H226.938L222.309 47.9355L226.886 55H224.9ZM229.847 55V41.1818H231.574V53.4455H237.619V55H229.847ZM241.081 55V44.6364H242.808V46.3636H243.326C243.58 45.7764 243.977 45.3158 244.518 44.9818C245.059 44.6364 245.675 44.4636 246.366 44.4636C247.403 44.4636 248.22 44.7803 248.819 45.4136C249.418 46.047 249.717 46.9106 249.717 48.0045V55H247.99V48.35C247.99 47.6245 247.811 47.0718 247.454 46.6918C247.109 46.3003 246.608 46.1045 245.952 46.1045C245.434 46.1045 244.904 46.26 244.363 46.5709C243.833 46.8818 243.315 47.3309 242.808 47.9182V55H241.081ZM257.324 55.1727C255.551 55.1727 254.347 54.8445 253.714 54.1882C253.092 53.5318 252.741 52.553 252.66 51.2518L254.388 51.0791C254.503 52.1155 254.75 52.8064 255.13 53.1518C255.51 53.4858 256.241 53.6527 257.324 53.6527C258.475 53.6527 259.281 53.4742 259.742 53.1173C260.203 52.7603 260.433 52.1385 260.433 51.2518V50.7855C260.433 49.9218 260.214 49.3173 259.777 48.9718C259.339 48.6148 258.579 48.4364 257.497 48.4364H255.769V46.8818H257.497C258.452 46.8818 259.12 46.7494 259.5 46.4845C259.892 46.2082 260.088 45.7303 260.088 45.0509V44.4982C260.088 43.7727 259.88 43.2661 259.466 42.9782C259.063 42.6788 258.349 42.5291 257.324 42.5291C256.426 42.5291 255.792 42.6903 255.424 43.0127C255.055 43.3352 254.825 43.9455 254.733 44.8436L253.006 44.6709C253.086 43.3697 253.478 42.437 254.18 41.8727C254.894 41.297 255.942 41.0091 257.324 41.0091C258.717 41.0091 259.811 41.2797 260.606 41.8209C261.412 42.3621 261.815 43.2545 261.815 44.4982V45.0509C261.815 45.7418 261.573 46.2888 261.089 46.6918C260.617 47.0948 259.955 47.3252 259.103 47.3827V47.8836C260.128 47.9642 260.894 48.2809 261.4 48.8336C261.907 49.3864 262.16 50.037 262.16 50.7855V51.2518C262.16 52.4955 261.798 53.4627 261.072 54.1536C260.358 54.833 259.109 55.1727 257.324 55.1727ZM269.076 53.5318C269.64 53.5318 270.176 53.3821 270.682 53.0827C271.189 52.7833 271.69 52.3285 272.185 51.7182V46.64C271.828 46.4212 271.448 46.26 271.045 46.1564C270.642 46.0412 270.21 45.9836 269.75 45.9836C268.817 45.9836 268.126 46.1909 267.677 46.6055C267.228 47.0085 267.003 47.6245 267.003 48.4536V51.2345C267.003 52.0061 267.176 52.5818 267.522 52.9618C267.867 53.3418 268.385 53.5318 269.076 53.5318ZM271.667 53.2727C271.368 53.8715 270.953 54.3379 270.423 54.6718C269.894 55.0058 269.301 55.1727 268.644 55.1727C267.573 55.1727 266.744 54.8273 266.157 54.1364C265.57 53.4455 265.276 52.4782 265.276 51.2345V48.4191C265.276 47.1639 265.668 46.1909 266.451 45.5C267.234 44.8091 268.328 44.4636 269.732 44.4636C270.135 44.4636 270.55 44.5097 270.976 44.6018C271.402 44.6824 271.805 44.7976 272.185 44.9473V41.1818H273.912V55H272.185V53.2727H271.667ZM281.709 48.2464C282.688 48.2464 283.419 48.0218 283.903 47.5727C284.386 47.1236 284.628 46.4385 284.628 45.5173V45.2927C284.628 44.3715 284.386 43.6864 283.903 43.2373C283.419 42.7882 282.688 42.5636 281.709 42.5636C280.73 42.5636 279.999 42.7882 279.516 43.2373C279.032 43.6864 278.79 44.3715 278.79 45.2927V45.5173C278.79 46.4385 279.032 47.1236 279.516 47.5727C279.999 48.0218 280.73 48.2464 281.709 48.2464ZM281.657 55.1727C280.287 55.1727 279.256 54.9252 278.566 54.43C277.875 53.9233 277.414 53.1115 277.184 51.9945L279.066 51.5973C279.239 52.3688 279.51 52.8985 279.878 53.1864C280.247 53.4742 280.851 53.6182 281.692 53.6182C282.728 53.6182 283.477 53.3476 283.937 52.8064C284.398 52.2652 284.628 51.3785 284.628 50.1464V48.4882H284.283C283.96 48.9373 283.54 49.2712 283.022 49.49C282.504 49.6973 281.87 49.8009 281.122 49.8009C279.775 49.8009 278.756 49.4209 278.065 48.6609C277.374 47.9009 277.028 46.9164 277.028 45.7073V45.3273C277.028 43.9339 277.431 42.8688 278.237 42.1318C279.043 41.3833 280.195 41.0091 281.692 41.0091C283.316 41.0091 284.496 41.4582 285.233 42.3564C285.981 43.243 286.356 44.4406 286.356 45.9491V50.1464C286.356 51.6664 285.981 52.887 285.233 53.8082C284.484 54.7179 283.293 55.1727 281.657 55.1727ZM293.79 55.1727C292.154 55.1727 290.968 54.8791 290.231 54.2918C289.494 53.693 289.126 52.7373 289.126 51.4245V51.0445C289.126 50.1809 289.362 49.4727 289.834 48.92C290.318 48.3673 290.986 48.0506 291.838 47.97V47.4691C291.17 47.4115 290.606 47.1524 290.145 46.6918C289.696 46.2312 289.471 45.6267 289.471 44.8782V44.3255C289.471 43.1624 289.811 42.3218 290.491 41.8036C291.181 41.2739 292.281 41.0091 293.79 41.0091C295.298 41.0091 296.392 41.2739 297.071 41.8036C297.762 42.3218 298.108 43.1624 298.108 44.3255V44.8782C298.108 45.6267 297.877 46.2312 297.417 46.6918C296.968 47.1524 296.409 47.4115 295.741 47.4691V47.97C296.594 48.0506 297.256 48.373 297.728 48.9373C298.211 49.49 298.453 50.1924 298.453 51.0445V51.4245C298.453 52.7373 298.085 53.693 297.348 54.2918C296.611 54.8791 295.425 55.1727 293.79 55.1727ZM293.79 46.9682C294.757 46.9682 295.431 46.8242 295.811 46.5364C296.191 46.237 296.381 45.713 296.381 44.9645V44.4982C296.381 43.7727 296.191 43.2661 295.811 42.9782C295.431 42.6788 294.757 42.5291 293.79 42.5291C292.822 42.5291 292.149 42.6788 291.769 42.9782C291.389 43.2661 291.199 43.7727 291.199 44.4982V44.9645C291.199 45.713 291.389 46.237 291.769 46.5364C292.149 46.8242 292.822 46.9682 293.79 46.9682ZM293.79 53.6527C294.884 53.6527 295.644 53.48 296.07 53.1345C296.507 52.7776 296.726 52.15 296.726 51.2518V50.9582C296.726 50.0485 296.507 49.4152 296.07 49.0582C295.644 48.7012 294.884 48.5227 293.79 48.5227C292.696 48.5227 291.93 48.7012 291.492 49.0582C291.066 49.4152 290.853 50.0485 290.853 50.9582V51.2518C290.853 52.15 291.066 52.7776 291.492 53.1345C291.93 53.48 292.696 53.6527 293.79 53.6527ZM305.905 55.1727C305.329 55.1727 304.862 55.0461 304.505 54.7927C304.148 54.5279 303.97 54.1133 303.97 53.5491V53.0655C303.97 52.5012 304.148 52.0867 304.505 51.8218C304.862 51.5455 305.329 51.4073 305.905 51.4073C306.48 51.4073 306.941 51.5455 307.286 51.8218C307.643 52.0867 307.822 52.5012 307.822 53.0655V53.5491C307.822 54.1133 307.643 54.5279 307.286 54.7927C306.929 55.0461 306.469 55.1727 305.905 55.1727ZM318.002 55.1727C317.426 55.1727 316.96 55.0461 316.603 54.7927C316.246 54.5279 316.068 54.1133 316.068 53.5491V53.0655C316.068 52.5012 316.246 52.0867 316.603 51.8218C316.96 51.5455 317.426 51.4073 318.002 51.4073C318.578 51.4073 319.039 51.5455 319.384 51.8218C319.741 52.0867 319.919 52.5012 319.919 53.0655V53.5491C319.919 54.1133 319.741 54.5279 319.384 54.7927C319.027 55.0461 318.566 55.1727 318.002 55.1727Z" fill="#81909F"/>
<path d="M132.293 48.2929C131.902 48.6834 131.902 49.3166 132.293 49.7071L138.657 56.0711C139.047 56.4616 139.681 56.4616 140.071 56.0711C140.462 55.6805 140.462 55.0474 140.071 54.6569L134.414 49L140.071 43.3431C140.462 42.9526 140.462 42.3195 140.071 41.9289C139.681 41.5384 139.047 41.5384 138.657 41.9289L132.293 48.2929ZM175.707 49.7071C176.098 49.3166 176.098 48.6834 175.707 48.2929L169.343 41.9289C168.953 41.5384 168.319 41.5384 167.929 41.9289C167.538 42.3195 167.538 42.9526 167.929 43.3431L173.586 49L167.929 54.6569C167.538 55.0474 167.538 55.6805 167.929 56.0711C168.319 56.4616 168.953 56.4616 169.343 56.0711L175.707 49.7071ZM133 50H175V48H133V50Z" fill="#5A6877"/>
</svg>
