<?xml version="1.0" standalone="no"?>
<!DOCTYPE svg PUBLIC "-//W3C//DTD SVG 20010904//EN"
 "http://www.w3.org/TR/2001/REC-SVG-20010904/DTD/svg10.dtd">
<svg version="1.0" xmlns="http://www.w3.org/2000/svg"
 width="500.000000pt" height="500.000000pt" viewBox="0 0 500.000000 500.000000"
 preserveAspectRatio="xMidYMid meet">

<g transform="translate(0.000000,500.000000) scale(0.100000,-0.100000)"
fill="#000000" stroke="none">
<path d="M2398 4877 c-219 -82 -408 -376 -542 -845 -112 -389 -169 -795 -192
-1369 l-6 -163 24 0 25 0 7 203 c29 875 214 1623 483 1956 201 250 405 250
605 2 68 -85 165 -261 208 -378 22 -62 32 -71 58 -54 10 6 1 35 -38 127 -111
263 -238 427 -390 505 -56 28 -185 37 -242 16z"/>
<path d="M1035 4293 c-221 -29 -330 -164 -328 -403 2 -158 47 -329 148 -552
52 -115 52 -117 33 -136 -11 -10 -25 -36 -32 -56 -13 -36 -18 -40 -117 -77
-315 -119 -514 -261 -595 -424 -35 -71 -36 -77 -32 -157 5 -91 23 -136 86
-220 101 -134 347 -275 655 -377 54 -18 96 -36 94 -39 -1 -4 -29 -59 -60 -123
-208 -428 -239 -744 -88 -913 144 -160 454 -146 865 40 107 48 122 52 141 40
11 -7 34 -16 51 -20 26 -6 33 -14 44 -49 22 -75 100 -260 145 -343 93 -170
195 -282 308 -339 61 -31 79 -35 146 -35 86 0 150 24 233 87 134 103 275 348
377 656 18 54 36 96 39 94 61 -32 258 -124 318 -147 170 -66 384 -108 483 -95
218 30 316 128 346 346 7 58 -9 200 -36 299 -29 113 -90 271 -106 277 -36 14
-35 -16 5 -119 120 -313 120 -547 -1 -666 -120 -118 -348 -120 -652 -5 -133
50 -345 155 -345 171 0 7 11 57 24 110 43 168 97 476 108 612 3 29 0 35 -19
38 -23 3 -23 6 -44 -158 -25 -195 -102 -564 -120 -576 -10 -6 -100 47 -265
157 -97 65 -103 67 -118 50 -16 -17 -9 -23 136 -118 84 -55 167 -107 183 -116
59 -32 59 -23 10 -168 -160 -471 -389 -725 -611 -679 -169 35 -355 277 -479
623 l-35 99 26 21 c29 23 54 73 54 110 0 20 30 44 173 140 320 216 593 443
907 757 316 316 542 588 762 915 119 177 121 180 154 177 77 -7 144 54 144
131 0 39 -22 93 -40 99 -6 2 11 51 39 113 97 219 142 389 144 545 3 269 -134
406 -403 403 -425 -4 -1084 -376 -1769 -997 -72 -66 -131 -123 -131 -127 0 -3
7 -12 15 -19 13 -10 31 3 118 82 555 512 1113 868 1545 985 135 36 310 38 393
5 73 -29 139 -98 165 -173 28 -79 25 -244 -6 -364 -26 -102 -74 -234 -127
-347 -35 -75 -38 -78 -70 -78 -53 0 -92 -26 -114 -75 -21 -47 -19 -79 9 -126
14 -25 12 -30 -73 -160 -213 -326 -461 -626 -789 -955 -325 -324 -610 -561
-934 -775 l-132 -88 -37 24 c-19 14 -48 25 -64 25 -32 0 -29 -7 -63 156 -20
97 -76 446 -76 477 0 8 -34 10 -42 2 -9 -9 31 -283 68 -468 l36 -178 -26 -26
c-31 -30 -40 -59 -34 -107 4 -35 4 -35 -82 -75 -225 -106 -395 -154 -555 -155
-137 -1 -198 17 -267 82 -124 116 -128 347 -11 657 50 134 155 345 171 345 7
0 50 -9 94 -21 101 -25 315 -69 340 -69 18 0 36 25 25 36 -3 3 -59 16 -124 29
-176 35 -302 65 -309 76 -6 11 64 129 164 276 67 98 74 123 36 123 -11 0 -185
-259 -239 -354 l-20 -36 -135 45 c-189 64 -394 167 -499 252 -249 201 -249
406 0 606 90 73 278 173 427 227 l83 30 34 -34 c37 -37 79 -51 123 -41 28 6
33 0 145 -167 132 -198 233 -329 415 -543 128 -151 484 -515 598 -613 58 -48
62 -51 77 -34 15 16 9 23 -80 102 -242 217 -594 600 -801 875 -106 141 -282
399 -282 415 0 4 7 21 15 36 8 16 15 41 15 55 0 26 3 27 153 58 83 17 173 34
200 37 41 6 47 10 47 30 0 15 -6 24 -15 24 -21 0 -269 -48 -339 -66 -55 -14
-60 -14 -80 4 -31 29 -61 42 -94 42 -26 0 -32 7 -70 88 -107 227 -155 397
-156 557 -1 137 17 198 82 267 120 128 378 127 696 -4 38 -15 70 -27 71 -26 2
2 5 13 9 24 6 19 -3 25 -91 57 -129 48 -229 74 -333 87 -85 10 -100 10 -155 3z
m3061 -1084 c67 -63 21 -179 -71 -179 -60 0 -105 47 -105 108 0 33 32 79 64
93 32 13 86 3 112 -22z m-3083 2 c72 -28 92 -118 38 -172 -63 -63 -174 -20
-174 67 0 52 17 82 56 99 39 17 49 18 80 6z m917 -2118 c33 -19 50 -51 50 -94
0 -41 -15 -66 -50 -84 -43 -22 -84 -19 -119 11 -96 81 11 231 119 167z"/>
<path d="M3194 3722 l-20 -3 23 -122 c46 -252 78 -574 89 -894 l7 -203 25 0
24 0 -7 173 c-13 343 -37 600 -81 865 -29 179 -32 188 -60 184z"/>
<path d="M4337 3011 c-3 -15 18 -29 117 -80 528 -266 520 -606 -19 -871 -210
-104 -491 -192 -778 -246 -90 -16 -97 -19 -91 -38 4 -12 7 -22 9 -24 4 -5 253
49 380 83 404 106 723 269 846 432 72 95 84 128 84 233 0 89 -2 99 -34 158
-41 74 -113 151 -205 217 -68 48 -268 155 -291 155 -7 0 -15 -8 -18 -19z"/>
</g>
</svg>