<?xml version="1.0" encoding="utf-8"?>
<!-- Generator: Adobe Illustrator 24.0.0, SVG Export Plug-In . SVG Version: 6.00 Build 0)  -->
<svg version="1.1" id="图层_1" xmlns="http://www.w3.org/2000/svg" xmlns:xlink="http://www.w3.org/1999/xlink" x="0px" y="0px"
	 width="93" height="94" viewBox="0 0 93 94" style="enable-background:new 0 0 93 94;" xml:space="preserve">
<style type="text/css">
	.st0{fill:#FFFFFF;}
	.st1{fill:#FF0C0C;}
</style>


	<path d="M81.7,84.6H11.4c-1.4,0-2.5-1.1-2.5-2.5V11.8c0-1.4,1.1-2.5,2.5-2.5h70.3c1.4,0,2.5,1.1,2.5,2.5v70.3
		C84.2,83.5,83.1,84.6,81.7,84.6z M11.4,10.3c-0.8,0-1.5,0.7-1.5,1.5v70.3c0,0.8,0.7,1.5,1.5,1.5h70.3c0.8,0,1.5-0.7,1.5-1.5V11.8
		c0-0.8-0.7-1.5-1.5-1.5H11.4z" stroke="currentColor"/>


	<path d="M43.8,47.6L40,46.7c-0.7-0.2-1.4-0.3-2.1-0.5c-0.1,0-0.2,0-0.3,0.1l-2.7,3.1c-1,1.2-2.1,2.4-3.1,3.6l-2,2.3
		c-0.3-0.4-0.6-0.8-1-1.1c-1.9-2.3-3.8-4.5-5.7-6.8c-2.1-2.5-4.2-5-6.3-7.5c-0.2-0.2-0.2-0.2,0-0.5l3.6-4.1l3-3.4l2.8-3.2l1.9-2.1
		c0.1-0.1,0.2-0.1,0.3-0.1h11.5c0.1,0,0.3,0,0.4,0.1l3.4,3l2.8,2.5l0.4,0.4c0.2,0.1,0.2,0.1,0.3,0l1.6-1.5l2.8-2.4
		c0.7-0.6,1.5-1.3,2.2-1.9c0.1-0.1,0.2-0.1,0.3-0.1h11.5c0.1,0,0.3,0,0.4,0.2c0.7,0.8,1.4,1.6,2.2,2.4s1.6,1.9,2.4,2.8l2.1,2.3
		l2.4,2.7c0.8,0.9,1.5,1.7,2.3,2.6c0.1,0.1,0.1,0.2,0,0.3c-0.8,1-1.6,1.9-2.4,2.9l-8.4,10.1l-2.1,2.5c0,0-0.1,0.1-0.1,0.1L63,53.9
		l-3.2-3.6c-1.1-1.3-2.2-2.6-3.3-3.9c-0.1-0.2-0.3-0.2-0.5-0.2c-1.8,0.5-3.7,0.9-5.5,1.3l-0.3,0.1c0.2,0.2,0.3,0.3,0.5,0.4L61,55.5
		l3.8,2.8c0.2,0.1,0.2,0.1,0,0.3l-2.5,2.7c-0.7,0.8-1.4,1.5-2.1,2.2l-2.4,2.6l0,0c-0.1,0.2-0.3,0.2-0.5,0.1L49.6,64l-2.1-0.6
		c1.2-0.8,2.3-1.5,3.4-2.2s2.2-1.4,3.3-2.2H39.7c0.3,0.3,0.7,0.4,1,0.7s0.6,0.4,1,0.6l1,0.6l1,0.6l1,0.6l1,0.6l1,0.7l-1,0.3
		c-3,0.9-5.9,1.7-8.9,2.6c-0.2,0.1-0.4,0-0.5-0.2c-1.1-1.2-2.1-2.3-3.2-3.5c-1-1.1-2-2.2-3-3.3c-0.2-0.3-0.5-0.5-0.7-0.8
		s-0.2-0.2,0-0.3l2.9-2.1l7.3-5.3l4.1-2.9C43.7,47.8,43.8,47.7,43.8,47.6z" stroke="currentColor" fill="currentColor"/>


	<path d="M38.9,68.7l1.1-0.5l5.7-2.6c0.4-0.2,0.8-0.3,1.2-0.5c0.1,0,0.1,0,0.2,0l6,2.7l1.8,0.8c0.1,0,0.1,0.1,0.2,0.1l-1,0.9
		l-3.3,2.9c-0.2,0.2-0.2,0.2-0.4,0l-3.1-2.1c-0.2-0.2-0.2-0.2-0.5,0l-3.1,2c-0.2,0.2-0.2,0.2-0.4,0L39,68.8L38.9,68.7z" stroke="currentColor" fill="currentColor"/>


	<path class="st1" d="M46.2,46.6c-0.3,0-0.6-0.1-0.9-0.1l-9.1-1.7c-1-0.2-2-0.4-3-0.5c-0.2,0-0.4-0.2-0.5-0.4
		c-1.5-2.8-3-5.6-4.5-8.5l-0.8-1.5c0.1,0,0.2,0,0.3,0.1l5.4,2.2l1.6,0.7c0.1,0.1,0.3,0.1,0.4,0.2l10.8,9.3
		C46,46.4,46.1,46.5,46.2,46.6z"/>


	<path class="st1" d="M66.6,33.8c0,0.1,0,0.2-0.1,0.2c-1.7,3.2-3.4,6.4-5.1,9.6c-0.1,0.3-0.4,0.5-0.8,0.6c-3.2,0.6-6.3,1.2-9.4,1.8
		l-3.1,0.6c-0.1,0-0.2,0-0.2,0s0.1-0.1,0.2-0.2l10.8-9.3c0.1-0.1,0.2-0.2,0.4-0.2l7.1-2.9C66.5,33.9,66.5,33.8,66.6,33.8z"/>

</svg>
