<svg id="图层_1" data-name="图层 1" xmlns="http://www.w3.org/2000/svg" viewBox="0 0 93 94"><defs><style>.cls-1{fill:#fff;}.cls-2{fill:none;stroke:#000;stroke-miterlimit:10;}.cls-3{fill:#ff0c0c;}</style></defs><rect class="cls-1" width="93" height="94"/><path class="cls-2" d="M83.7,82.1a2,2,0,0,1-2,2H11.4a2,2,0,0,1-2-2V11.8a2,2,0,0,1,2-2H81.7a2,2,0,0,1,2,2Z"/><path d="M43.8,47.63,40,46.71c-.71-.17-1.42-.33-2.13-.52a.25.25,0,0,0-.31.09l-2.73,3.14c-1,1.2-2.08,2.41-3.13,3.61l-2,2.29c-.33-.39-.65-.76-1-1.14q-2.83-3.41-5.68-6.82-3.14-3.78-6.29-7.54c-.19-.23-.2-.23,0-.46l3.6-4.08,3-3.4,2.83-3.22,1.87-2.12a.41.41,0,0,1,.34-.14H39.91a.54.54,0,0,1,.38.14l3.37,3L46.42,32l.4.37c.16.14.18.14.33,0l1.64-1.45,2.76-2.43c.72-.64,1.45-1.27,2.16-1.92a.47.47,0,0,1,.35-.13H65.57a.41.41,0,0,1,.36.16c.71.82,1.44,1.63,2.15,2.44s1.64,1.85,2.45,2.78l2.07,2.35L75,36.85c.76.87,1.53,1.73,2.3,2.6.09.11.1.17,0,.28-.8,1-1.6,1.92-2.39,2.87L66.49,52.69l-2.12,2.55a.14.14,0,0,1-.11.08L63,53.92l-3.15-3.63C58.76,49,57.63,47.7,56.52,46.4a.44.44,0,0,0-.51-.17c-1.84.46-3.68.9-5.52,1.34l-.31.08a2.52,2.52,0,0,0,.52.42L61,55.51l3.79,2.75c.17.13.17.13,0,.29l-2.46,2.7c-.68.75-1.37,1.49-2.06,2.24L57.9,66.1l0,0c-.13.21-.31.2-.52.14L49.59,64l-2.1-.61c1.15-.76,2.28-1.47,3.4-2.19s2.23-1.43,3.32-2.2H39.68c.33.26.66.44,1,.65s.63.41,1,.61l1,.63,1,.6,1,.63.95.61,1,.66-1,.29c-3,.87-5.93,1.73-8.89,2.61a.47.47,0,0,1-.55-.15q-1.58-1.74-3.16-3.46c-1-1.09-2-2.19-3-3.29-.25-.27-.49-.54-.74-.8s-.18-.19,0-.33l2.93-2.13,7.32-5.3,4.07-2.94A1,1,0,0,0,43.8,47.63Z"/><path d="M38.94,68.74,40,68.25l5.74-2.57c.39-.17.79-.33,1.16-.53a.2.2,0,0,1,.2,0l6,2.68,1.8.81a.21.21,0,0,1,.15.13l-1,.87-3.31,2.86c-.19.17-.2.17-.4,0l-3.09-2.06c-.24-.16-.24-.16-.49,0l-3.07,2c-.23.15-.21.17-.43,0l-4.21-3.64Z"/><path class="cls-3" d="M46.15,46.58a6.13,6.13,0,0,1-.89-.14l-9.11-1.7c-1-.19-2-.38-3-.55a.61.61,0,0,1-.47-.36q-2.25-4.24-4.52-8.47l-.8-1.49c.12,0,.2,0,.29.06l5.44,2.25,1.61.66a1.54,1.54,0,0,1,.39.23l10.84,9.29A.77.77,0,0,1,46.15,46.58Z"/><path class="cls-3" d="M66.63,33.85c0,.09,0,.15-.09.22q-2.57,4.8-5.12,9.6a1,1,0,0,1-.77.56c-3.15.57-6.29,1.16-9.44,1.75l-3.08.58c-.08,0-.15,0-.24,0s.11-.14.18-.2l10.84-9.29a1.52,1.52,0,0,1,.38-.24l7.1-2.93C66.47,33.88,66.54,33.81,66.63,33.85Z"/></svg>