<?xml version="1.0" encoding="utf-8"?>
<!-- Generator: Adobe Illustrator 25.3.0, SVG Export Plug-In . SVG Version: 6.00 Build 0)  -->
<svg version="1.1" xmlns="http://www.w3.org/2000/svg" xmlns:xlink="http://www.w3.org/1999/xlink" x="0px" y="0px"
	 viewBox="0 0 450 550" style="enable-background:new 0 0 450 550;" xml:space="preserve">
<style type="text/css">
	.st0{fill:#FFFFFF;stroke:#002C4D;stroke-width:8;stroke-miterlimit:10;}
	.st1{fill:#FFFFFF;stroke:#002C4D;stroke-width:12;stroke-miterlimit:10;}
	.st2{fill:#002C4D;}
</style>
<g id="Calque_1">
</g>
<g id="Calque_5">
</g>
<g id="Calque_6">
</g>
<g id="Calque_4">
	<g>
		<polygon class="st0" points="331.7,34 331.7,240.02 296.98,240.02 296.98,255.06 331.7,255.06 351.37,255.06 357.16,255.06 
			357.16,34 		"/>
		<path class="st1" d="M230.73,523H203.5c-47.77,0-86.5-38.73-86.5-86.5V294.69c0-47.77,38.73-86.5,86.5-86.5h27.23
			c47.77,0,86.5,38.73,86.5,86.5V436.5C317.23,484.27,278.5,523,230.73,523z"/>
	</g>
</g>
<g id="Calque_2">
</g>
<g id="Calque_7">
	<g>
		<path class="st2" d="M204.5,336.71c0,2.43-0.5,4.12-1.49,5.04c-0.99,0.93-2.83,1.39-5.52,1.39c-2.72,0-4.56-0.45-5.5-1.34
			s-1.42-2.51-1.42-4.85c0-2.43,0.49-4.12,1.47-5.07c0.98-0.94,2.83-1.42,5.55-1.42c2.69,0,4.52,0.46,5.48,1.37
			C204.02,332.74,204.5,334.37,204.5,336.71z M203.59,394.06c0,0.32-0.1,0.6-0.29,0.84c-0.19,0.24-0.52,0.44-0.98,0.6
			c-0.46,0.16-1.08,0.28-1.85,0.36s-1.75,0.12-2.93,0.12c-1.19,0-2.16-0.04-2.93-0.12s-1.39-0.2-1.85-0.36
			c-0.46-0.16-0.79-0.36-0.98-0.6s-0.29-0.52-0.29-0.84v-42.75c0-0.32,0.1-0.6,0.29-0.84s0.52-0.45,0.98-0.62s1.08-0.31,1.85-0.41
			c0.77-0.1,1.75-0.14,2.93-0.14c1.18,0,2.16,0.05,2.93,0.14c0.77,0.1,1.38,0.23,1.85,0.41c0.46,0.18,0.79,0.38,0.98,0.62
			c0.19,0.24,0.29,0.52,0.29,0.84V394.06z"/>
		<path class="st2" d="M251.24,338.72c0,0.96-0.04,1.77-0.12,2.43c-0.08,0.66-0.21,1.18-0.38,1.56c-0.18,0.38-0.38,0.67-0.6,0.87
			c-0.22,0.19-0.48,0.29-0.77,0.29h-20.32v16.72h19.07c0.29,0,0.54,0.08,0.77,0.24c0.22,0.16,0.42,0.43,0.6,0.82
			c0.18,0.38,0.3,0.9,0.38,1.54s0.12,1.44,0.12,2.4s-0.04,1.76-0.12,2.4s-0.21,1.17-0.38,1.58c-0.18,0.42-0.38,0.71-0.6,0.89
			c-0.22,0.18-0.48,0.26-0.77,0.26h-19.07v23.15c0,0.35-0.1,0.66-0.29,0.91c-0.19,0.26-0.54,0.47-1.03,0.65
			c-0.5,0.18-1.15,0.31-1.95,0.41c-0.8,0.1-1.83,0.14-3.07,0.14c-1.22,0-2.23-0.05-3.05-0.14c-0.82-0.1-1.46-0.23-1.95-0.41
			c-0.48-0.17-0.83-0.39-1.03-0.65c-0.21-0.26-0.31-0.56-0.31-0.91v-56.35c0-1.41,0.36-2.43,1.08-3.05
			c0.72-0.62,1.61-0.94,2.67-0.94h29.25c0.29,0,0.54,0.09,0.77,0.26c0.22,0.18,0.42,0.46,0.6,0.86c0.18,0.4,0.3,0.94,0.38,1.61
			C251.2,336.95,251.24,337.76,251.24,338.72z"/>
	</g>
</g>
<g id="Calque_3">
</g>
<g id="Calque_8">
</g>
<g id="Calque_9">
</g>
</svg>
