<?xml version="1.0" encoding="utf-8"?>
<!-- Generator: Adobe Illustrator 25.3.0, SVG Export Plug-In . SVG Version: 6.00 Build 0)  -->
<svg version="1.1" xmlns="http://www.w3.org/2000/svg" xmlns:xlink="http://www.w3.org/1999/xlink" x="0px" y="0px"
	 viewBox="0 0 450 550" style="enable-background:new 0 0 450 550;" xml:space="preserve">
<style type="text/css">
	.st0{fill:#FFFFFF;stroke:#002C4D;stroke-width:8;stroke-miterlimit:10;}
	.st1{fill:#FFFFFF;stroke:#002C4D;stroke-width:12;stroke-miterlimit:10;}
	.st2{fill:#002C4D;}
</style>
<g id="Calque_1">
</g>
<g id="Calque_5">
</g>
<g id="Calque_6">
</g>
<g id="Calque_4">
</g>
<g id="Calque_2">
</g>
<g id="Calque_7">
</g>
<g id="Calque_3">
</g>
<g id="Calque_8">
</g>
<g id="Calque_9">
	<g>
		<polygon class="st0" points="328.03,32 328.03,238.44 293.24,238.44 293.24,253.51 328.03,253.51 347.75,253.51 353.55,253.51 
			353.55,32 		"/>
		<path class="st1" d="M227.03,522h-27.64c-47.77,0-86.5-38.73-86.5-86.5V293.04c0-47.77,38.73-86.5,86.5-86.5h27.64
			c47.77,0,86.5,38.73,86.5,86.5V435.5C313.53,483.27,274.81,522,227.03,522z"/>
	</g>
	<g>
		<path class="st2" d="M158.84,336.05c0,2.44-0.5,4.12-1.49,5.05c-1,0.93-2.84,1.4-5.54,1.4c-2.73,0-4.57-0.45-5.51-1.35
			c-0.95-0.9-1.42-2.52-1.42-4.86c0-2.44,0.49-4.13,1.47-5.08c0.98-0.95,2.83-1.42,5.56-1.42c2.7,0,4.53,0.46,5.49,1.37
			C158.36,332.08,158.84,333.71,158.84,336.05z M157.93,393.52c0,0.32-0.1,0.6-0.29,0.84c-0.19,0.24-0.52,0.44-0.99,0.6
			c-0.46,0.16-1.08,0.28-1.85,0.36c-0.77,0.08-1.75,0.12-2.94,0.12c-1.19,0-2.17-0.04-2.94-0.12c-0.77-0.08-1.39-0.2-1.85-0.36
			c-0.47-0.16-0.79-0.36-0.99-0.6c-0.19-0.24-0.29-0.52-0.29-0.84v-42.84c0-0.32,0.1-0.6,0.29-0.84c0.19-0.24,0.52-0.45,0.99-0.63
			c0.46-0.18,1.08-0.31,1.85-0.41c0.77-0.1,1.75-0.14,2.94-0.14c1.19,0,2.17,0.05,2.94,0.14c0.77,0.1,1.39,0.23,1.85,0.41
			c0.46,0.18,0.79,0.38,0.99,0.63c0.19,0.24,0.29,0.52,0.29,0.84V393.52z"/>
		<path class="st2" d="M205.68,338.07c0,0.96-0.04,1.77-0.12,2.43c-0.08,0.66-0.21,1.18-0.38,1.56c-0.18,0.39-0.38,0.67-0.6,0.87
			c-0.23,0.19-0.48,0.29-0.77,0.29h-20.36v16.75h19.11c0.29,0,0.54,0.08,0.77,0.24c0.22,0.16,0.42,0.43,0.6,0.82
			c0.18,0.39,0.3,0.9,0.39,1.54c0.08,0.64,0.12,1.44,0.12,2.41s-0.04,1.77-0.12,2.41c-0.08,0.64-0.21,1.17-0.39,1.59
			c-0.18,0.42-0.38,0.71-0.6,0.89c-0.22,0.18-0.48,0.26-0.77,0.26h-19.11v23.2c0,0.35-0.1,0.66-0.29,0.91
			c-0.19,0.26-0.54,0.47-1.04,0.65c-0.5,0.18-1.15,0.31-1.95,0.41c-0.8,0.1-1.83,0.14-3.08,0.14c-1.22,0-2.24-0.05-3.06-0.14
			c-0.82-0.1-1.47-0.23-1.95-0.41c-0.48-0.18-0.83-0.39-1.04-0.65c-0.21-0.26-0.31-0.56-0.31-0.91v-56.46
			c0-1.41,0.36-2.43,1.08-3.06s1.61-0.94,2.67-0.94h29.31c0.29,0,0.54,0.09,0.77,0.26c0.22,0.18,0.42,0.47,0.6,0.87
			c0.18,0.4,0.3,0.94,0.38,1.61S205.68,337.11,205.68,338.07z"/>
		<path class="st2" d="M236.54,370.95c0,1.86-0.18,3.16-0.53,3.9c-0.35,0.74-0.91,1.11-1.68,1.11H214.3c-0.8,0-1.38-0.38-1.73-1.13
			c-0.35-0.75-0.53-2.05-0.53-3.88c0-1.8,0.18-3.06,0.53-3.8c0.35-0.74,0.93-1.11,1.73-1.11h20.02c0.39,0,0.71,0.08,0.99,0.24
			c0.27,0.16,0.5,0.43,0.7,0.82c0.19,0.38,0.33,0.9,0.41,1.54C236.49,369.28,236.54,370.05,236.54,370.95z"/>
		<path class="st2" d="M283.08,390.2c0,0.93-0.04,1.71-0.12,2.33c-0.08,0.62-0.2,1.13-0.36,1.52c-0.16,0.39-0.36,0.67-0.6,0.84
			c-0.24,0.18-0.5,0.26-0.79,0.26h-31.29c-1.06,0-1.95-0.31-2.67-0.94s-1.08-1.64-1.08-3.06v-54.3c0-1.41,0.36-2.43,1.08-3.06
			s1.61-0.94,2.67-0.94h31.1c0.29,0,0.54,0.08,0.77,0.24c0.22,0.16,0.42,0.44,0.58,0.84c0.16,0.4,0.28,0.91,0.36,1.54
			c0.08,0.63,0.12,1.42,0.12,2.38c0,0.9-0.04,1.66-0.12,2.29c-0.08,0.63-0.2,1.13-0.36,1.52c-0.16,0.38-0.35,0.67-0.58,0.84
			c-0.22,0.18-0.48,0.27-0.77,0.27h-22.24V358h18.82c0.29,0,0.55,0.09,0.79,0.26c0.24,0.18,0.44,0.45,0.6,0.82
			c0.16,0.37,0.28,0.87,0.36,1.49s0.12,1.39,0.12,2.29c0,0.93-0.04,1.7-0.12,2.31c-0.08,0.61-0.2,1.1-0.36,1.47
			c-0.16,0.37-0.36,0.63-0.6,0.79c-0.24,0.16-0.5,0.24-0.79,0.24h-18.82v17.57h22.43c0.29,0,0.55,0.09,0.79,0.26
			c0.24,0.18,0.44,0.46,0.6,0.84s0.28,0.89,0.36,1.52C283.04,388.49,283.08,389.27,283.08,390.2z"/>
	</g>
</g>
</svg>
