<?xml version="1.0" encoding="utf-8"?>
<!-- Generator: Adobe Illustrator 25.3.0, SVG Export Plug-In . SVG Version: 6.00 Build 0)  -->
<svg version="1.1" xmlns="http://www.w3.org/2000/svg" xmlns:xlink="http://www.w3.org/1999/xlink" x="0px" y="0px"
	 viewBox="0 0 450 550" style="enable-background:new 0 0 450 550;" xml:space="preserve">
<style type="text/css">
	.st0{fill:#FFFFFF;stroke:#002C4D;stroke-width:8;stroke-miterlimit:10;}
	.st1{fill:#FFFFFF;stroke:#002C4D;stroke-width:12;stroke-miterlimit:10;}
	.st2{fill:#002C4D;}
</style>
<g id="Calque_1">
</g>
<g id="Calque_5">
</g>
<g id="Calque_6">
</g>
<g id="Calque_4">
</g>
<g id="Calque_2">
	<g>
		<path class="st1" d="M286.52,524H178.95c-21.54,0-39-17.46-39-39V271.24c0-21.54,17.46-39,39-39h107.57c21.54,0,39,17.46,39,39
			V485C325.52,506.54,308.06,524,286.52,524z"/>
		<rect x="271.35" y="22" class="st0" width="20.97" height="207.56"/>
	</g>
	<g>
		<path class="st2" d="M217.67,355.69c0,2.26-0.46,3.81-1.38,4.67c-0.92,0.86-2.63,1.29-5.12,1.29c-2.52,0-4.22-0.42-5.1-1.25
			s-1.31-2.33-1.31-4.5c0-2.25,0.45-3.82,1.36-4.7c0.9-0.88,2.62-1.31,5.14-1.31c2.49,0,4.19,0.42,5.08,1.27
			C217.22,352.02,217.67,353.52,217.67,355.69z M216.82,408.85c0,0.3-0.09,0.56-0.27,0.78s-0.48,0.41-0.91,0.56
			c-0.43,0.15-1,0.26-1.71,0.33c-0.71,0.07-1.62,0.11-2.72,0.11c-1.1,0-2-0.04-2.72-0.11c-0.71-0.08-1.28-0.19-1.71-0.33
			c-0.43-0.15-0.73-0.33-0.91-0.56s-0.27-0.48-0.27-0.78v-39.62c0-0.3,0.09-0.56,0.27-0.78s0.48-0.42,0.91-0.58
			c0.43-0.16,1-0.29,1.71-0.38c0.71-0.09,1.62-0.13,2.72-0.13c1.1,0,2,0.04,2.72,0.13s1.28,0.22,1.71,0.38
			c0.43,0.16,0.73,0.36,0.91,0.58s0.27,0.48,0.27,0.78V408.85z"/>
		<path class="st2" d="M262.81,393.09c0,3.03-0.56,5.68-1.69,7.97c-1.13,2.29-2.66,4.19-4.58,5.72c-1.93,1.53-4.19,2.68-6.77,3.45
			s-5.34,1.16-8.28,1.16c-1.99,0-3.84-0.16-5.54-0.49c-1.71-0.33-3.21-0.72-4.52-1.18c-1.31-0.46-2.4-0.94-3.27-1.45
			c-0.88-0.5-1.51-0.95-1.89-1.33s-0.66-0.94-0.82-1.67c-0.16-0.73-0.25-1.77-0.25-3.14c0-0.92,0.03-1.69,0.09-2.31
			c0.06-0.62,0.16-1.13,0.29-1.51c0.13-0.39,0.31-0.66,0.53-0.82c0.22-0.16,0.48-0.24,0.78-0.24c0.42,0,1,0.24,1.76,0.73
			c0.76,0.49,1.73,1.03,2.92,1.62c1.19,0.59,2.6,1.13,4.25,1.62c1.65,0.49,3.55,0.73,5.72,0.73c1.42,0,2.7-0.17,3.83-0.51
			s2.08-0.82,2.87-1.45c0.79-0.62,1.39-1.39,1.8-2.31c0.42-0.92,0.62-1.94,0.62-3.07c0-1.31-0.36-2.43-1.07-3.36
			s-1.64-1.77-2.78-2.49c-1.14-0.73-2.44-1.41-3.9-2.05c-1.46-0.64-2.95-1.31-4.5-2.03c-1.54-0.71-3.04-1.52-4.5-2.43
			c-1.45-0.9-2.75-1.99-3.9-3.25s-2.07-2.75-2.78-4.47c-0.71-1.72-1.07-3.78-1.07-6.19c0-2.76,0.51-5.19,1.54-7.28
			c1.02-2.09,2.4-3.83,4.14-5.21s3.78-2.41,6.14-3.09c2.36-0.68,4.86-1.02,7.5-1.02c1.37,0,2.73,0.1,4.1,0.31
			c1.37,0.21,2.64,0.49,3.83,0.85c1.19,0.36,2.24,0.76,3.16,1.2s1.53,0.82,1.83,1.11c0.3,0.3,0.5,0.55,0.6,0.76
			c0.1,0.21,0.19,0.48,0.27,0.82c0.07,0.34,0.13,0.77,0.16,1.29c0.03,0.52,0.04,1.17,0.04,1.94c0,0.86-0.02,1.59-0.07,2.18
			c-0.04,0.59-0.12,1.08-0.22,1.47c-0.1,0.39-0.25,0.67-0.45,0.85c-0.19,0.18-0.45,0.27-0.78,0.27c-0.33,0-0.85-0.21-1.56-0.62
			c-0.71-0.42-1.59-0.87-2.63-1.36c-1.04-0.49-2.24-0.94-3.61-1.34c-1.37-0.4-2.87-0.6-4.5-0.6c-1.28,0-2.39,0.16-3.34,0.47
			s-1.74,0.74-2.38,1.29c-0.64,0.55-1.11,1.21-1.42,1.98c-0.31,0.77-0.47,1.59-0.47,2.45c0,1.28,0.35,2.38,1.05,3.32
			c0.7,0.93,1.63,1.77,2.8,2.49c1.17,0.73,2.5,1.41,3.98,2.05c1.48,0.64,3,1.31,4.54,2.03c1.54,0.71,3.06,1.52,4.54,2.43
			c1.48,0.91,2.8,1.99,3.96,3.25c1.16,1.26,2.09,2.75,2.8,4.45C262.45,388.76,262.81,390.77,262.81,393.09z"/>
	</g>
</g>
<g id="Calque_7">
</g>
<g id="Calque_3">
</g>
<g id="Calque_8">
</g>
<g id="Calque_9">
</g>
</svg>
