<?xml version="1.0" encoding="utf-8"?>
<!-- Generator: Adobe Illustrator 25.0.0, SVG Export Plug-In . SVG Version: 6.00 Build 0)  -->
<svg version="1.1" baseProfile="tiny" id="图层_1"
	 xmlns="http://www.w3.org/2000/svg" xmlns:xlink="http://www.w3.org/1999/xlink" x="0px" y="0px" viewBox="0 0 800 800"
	 overflow="visible" xml:space="preserve">
<g>
	<path fill="#6580BF" d="M372.4,520.5c134,0,319.6-111.3,319.6-241.2C691.9,143.2,527,135,494,135c-66,0-187.6,14.4-329.9,103.1
		c68-26.8,125.8-43.3,239.1-43.3c164.9,0,185.6,72.2,185.6,107.2c0,96.9-123.7,189.7-218.5,189.7c-90.7,0-105.2-55.7-105.2-80.4
		c0-37.1,37.1-107.2,152.6-107.2c55.7,0,68,28.9,68,43.3c0,28.9-30.9,82.5-105.1,82.5c-41.2,0-49.5-16.5-51.5-28.9l95.9-1
		c0,0,12.4-6.5,12.4-28.9c0-22.3-16.5-30.9-43.3-30.9c-26.8,0-90.7,26.8-90.7,70.1c0,43.3,49.5,47.4,74.2,47.4
		c70.1,0,148.4-47.4,148.4-111.3s-70.1-65.9-96.9-65.9c-170.4,0-321.6,133.3-321.6,241.2c0,82.8,71.4,144.3,193.8,144.3
		C464.8,665.9,629,571,629,571s-123.9,30.4-208.6,35.4c-208.6,12.4-238.5-133-180.1-205.5C232.9,440.4,238.4,520.5,372.4,520.5z
		 M395.7,357.6c27.5,0,15.8,26.8,15.8,26.8h-71.4C340.1,384.4,361.4,357.6,395.7,357.6z"/>
</g>
</svg>
