<?xml version="1.0" standalone="no"?>
<!DOCTYPE svg PUBLIC "-//W3C//DTD SVG 20010904//EN"
 "http://www.w3.org/TR/2001/REC-SVG-20010904/DTD/svg10.dtd">
<svg version="1.0" xmlns="http://www.w3.org/2000/svg"
 width="4000.000000pt" height="4000.000000pt" viewBox="0 0 4000.000000 4000.000000"
 preserveAspectRatio="xMidYMid meet">

<g transform="translate(0.000000,4000.000000) scale(0.100000,-0.100000)"
fill="#000000" stroke="none">
<path d="M22566 30095 c-43 -36 -90 -68 -105 -71 -46 -11 -173 -66 -281 -121
-194 -100 -381 -234 -588 -420 -117 -106 -152 -122 -258 -123 -60 0 -102 -7
-159 -25 -89 -29 -93 -29 -242 20 -274 92 -469 125 -763 132 -316 7 -517 -21
-824 -117 -151 -47 -217 -51 -286 -18 -38 19 -61 22 -139 21 -52 -1 -104 3
-115 9 -11 6 -73 59 -138 119 -290 266 -595 449 -950 569 -81 28 -103 32 -130
23 l-33 -10 38 -16 c21 -9 71 -45 112 -81 40 -35 84 -68 97 -72 l23 -8 -24 -6
c-14 -3 -26 -11 -28 -17 -2 -6 30 -37 71 -68 224 -168 427 -541 426 -782 l0
-48 -63 113 c-34 62 -91 167 -127 235 -169 320 -410 605 -587 696 -78 39 -76
25 13 -86 116 -146 226 -314 296 -452 32 -63 57 -116 55 -118 -2 -2 -42 15
-88 36 -94 44 -163 64 -202 59 -25 -3 -18 -13 116 -164 78 -89 157 -181 176
-204 19 -23 49 -48 67 -56 43 -18 70 -54 84 -115 10 -39 10 -53 1 -58 -13 -8
3 -108 20 -125 5 -6 9 -52 9 -103 0 -77 3 -95 16 -100 9 -3 24 -1 33 5 107 76
165 86 346 59 66 -10 132 -15 147 -13 16 3 31 -1 39 -10 6 -8 10 -16 8 -18 -2
-1 -60 -8 -129 -15 -133 -12 -251 -35 -371 -72 l-74 -23 45 -14 c25 -7 94 -17
155 -20 l109 -7 -68 -54 c-123 -98 -222 -240 -260 -372 -90 -310 38 -732 301
-994 126 -125 238 -191 412 -241 234 -68 448 -36 814 120 20 9 37 12 37 8 0
-21 -57 -92 -128 -159 -42 -40 -74 -75 -70 -78 8 -8 83 23 147 62 140 83 274
222 337 347 30 61 43 106 30 106 -3 0 -40 -25 -83 -56 -170 -122 -349 -213
-502 -255 -107 -30 -337 -37 -445 -15 -84 17 -215 74 -293 127 -152 104 -280
272 -327 428 -32 109 -18 111 37 5 134 -259 315 -412 575 -486 116 -33 329
-31 465 5 115 31 264 99 351 161 83 59 208 193 240 258 32 63 34 118 6 143
-46 41 -126 6 -275 -120 -81 -69 -161 -122 -170 -113 -2 2 66 59 151 126 134
106 153 125 145 141 -8 14 -6 23 9 36 24 22 25 63 2 91 -69 85 -384 309 -545
387 -351 172 -543 191 -827 84 -69 -26 -86 -36 -88 -54 -4 -27 -1 -27 75 -9
32 8 83 18 113 21 71 7 182 -4 177 -18 -2 -6 -36 -29 -77 -51 -81 -45 -104
-70 -80 -86 8 -6 26 -7 40 -3 14 3 38 7 54 7 l29 1 2 -90 c2 -111 28 -196 90
-290 25 -37 45 -70 45 -72 0 -2 -13 5 -30 17 -16 12 -57 66 -90 120 -79 127
-90 137 -90 77 0 -116 67 -237 195 -355 159 -145 323 -172 528 -87 15 6 17 4
12 -18 -9 -36 8 -41 62 -18 70 30 25 -4 -52 -39 -71 -33 -192 -60 -268 -60
-83 0 -177 12 -171 21 3 5 13 9 24 9 26 0 35 32 14 47 -10 7 -24 13 -31 13 -7
0 -46 16 -85 36 -172 86 -272 248 -333 536 -11 52 -21 78 -33 83 -21 8 -40
-17 -47 -62 -3 -18 -7 -49 -10 -68 -11 -71 -42 -21 -32 52 2 21 10 64 17 96
14 62 8 82 -15 51 -72 -94 -74 -292 -5 -437 23 -50 109 -151 110 -130 0 6 -18
49 -40 94 -22 46 -40 94 -39 108 0 21 3 18 19 -19 47 -114 153 -248 250 -315
68 -47 36 -41 -75 15 -185 91 -306 229 -350 396 -19 73 -21 204 -4 313 11 71
11 84 -2 92 -8 4 -23 6 -34 3 -62 -17 -61 -18 -30 16 17 17 61 52 98 77 166
111 397 166 600 143 121 -14 187 -38 362 -132 296 -160 495 -300 665 -470 95
-95 141 -125 175 -111 10 3 -13 34 -75 101 -50 54 -120 138 -155 187 -65 91
-157 250 -170 294 l-7 23 43 -23 c58 -32 160 -128 231 -217 60 -76 78 -79 64
-10 -8 38 -5 36 59 -55 28 -39 58 -73 67 -75 10 -2 33 18 58 50 34 42 50 54
80 60 32 5 57 26 142 111 97 98 193 175 204 164 11 -11 -57 -138 -134 -252
-44 -66 -128 -176 -187 -244 -58 -68 -104 -125 -102 -127 2 -2 21 1 43 7 29 8
65 37 139 108 160 155 270 236 532 395 297 178 362 200 598 201 125 0 176 -4
235 -19 97 -25 194 -65 261 -108 62 -40 163 -133 136 -124 -10 3 -36 9 -58 12
-34 6 -40 4 -47 -17 -5 -14 -6 -48 -1 -79 39 -253 5 -391 -129 -530 l-62 -65
40 85 c76 161 94 283 62 415 -15 62 -35 95 -59 95 -14 0 -14 -9 7 -104 15 -67
10 -131 -10 -131 -11 0 -16 16 -20 65 -6 73 -13 90 -39 90 -29 0 -40 -22 -51
-104 -36 -253 -161 -443 -352 -535 -104 -49 -113 -70 -34 -75 76 -4 -77 -36
-175 -36 -121 0 -275 46 -264 80 3 9 -4 28 -15 43 -29 37 -25 39 28 12 59 -29
153 -55 202 -55 56 0 148 28 209 62 31 18 95 71 142 118 105 106 142 174 147
272 3 38 0 68 -4 68 -5 0 -25 -28 -44 -62 -37 -66 -132 -174 -184 -210 -21
-15 -13 -3 26 40 99 108 156 256 143 374 -9 82 2 94 67 77 25 -7 53 -9 63 -5
17 6 16 8 -6 32 -13 14 -59 44 -101 66 -43 22 -78 45 -78 51 0 14 260 2 333
-16 31 -8 57 -12 57 -8 0 10 -91 68 -135 86 -70 28 -198 55 -266 55 -168 0
-478 -114 -699 -258 -164 -106 -380 -289 -380 -321 0 -10 17 -49 38 -86 40
-74 83 -112 269 -240 56 -38 100 -71 98 -73 -10 -11 -171 88 -245 150 -106 89
-196 148 -226 148 -39 0 -76 -40 -76 -83 0 -110 222 -336 427 -436 224 -109
455 -128 687 -55 144 46 248 107 362 214 80 75 125 139 192 270 53 104 70 101
39 -8 -106 -367 -521 -630 -920 -582 -218 26 -441 123 -657 285 -54 41 -75 52
-85 43 -7 -6 -13 -18 -13 -27 0 -30 104 -176 180 -251 69 -69 213 -176 285
-212 39 -20 85 -31 85 -20 0 4 -32 34 -70 67 -67 57 -150 159 -138 170 3 3 50
-12 104 -33 207 -82 357 -115 519 -115 227 1 422 80 598 243 143 133 249 301
312 494 58 180 72 395 29 453 -16 22 -19 33 -11 50 8 18 2 39 -31 108 -69 142
-146 237 -253 309 -46 31 -48 34 -27 40 13 3 64 6 113 7 50 0 108 6 130 13
l40 13 -30 13 c-56 23 -209 58 -350 80 -77 12 -146 25 -154 29 -20 12 116 30
280 37 l146 6 40 -36 c45 -40 77 -46 93 -16 6 11 10 61 9 112 -3 121 16 271
38 308 15 27 66 60 91 60 5 0 34 33 64 73 70 92 178 211 246 272 55 49 66 86
30 93 -10 2 -77 -22 -150 -52 -73 -30 -133 -54 -135 -52 -1 1 24 56 56 122 54
108 188 320 306 482 26 34 42 62 36 62 -20 0 -179 -128 -266 -215 -158 -157
-310 -381 -470 -690 -38 -71 -71 -134 -75 -138 -18 -21 26 210 57 296 66 184
137 291 313 472 70 72 139 150 155 174 40 64 71 89 121 97 46 7 74 25 74 49 0
11 -70 75 -82 75 -2 0 -39 -29 -82 -65z m-4386 -336 c152 -104 298 -227 412
-349 51 -55 105 -105 121 -111 21 -9 41 -9 85 0 106 22 168 20 273 -10 41 -11
42 -13 19 -20 -14 -4 -66 -7 -116 -8 -150 -2 -228 -37 -274 -124 l-24 -46 -39
72 c-137 253 -296 437 -544 626 -68 51 -123 95 -123 98 0 8 89 -46 210 -128z
m-129 -14 c153 -113 371 -427 464 -670 15 -38 40 -82 56 -97 27 -26 33 -27 87
-22 67 7 99 -5 147 -56 l30 -33 -30 6 c-73 14 -153 18 -190 10 l-40 -9 85 -41
c108 -51 190 -113 310 -234 61 -62 121 -111 169 -138 40 -24 90 -59 111 -77
20 -18 79 -54 131 -80 124 -60 164 -100 189 -184 11 -36 33 -87 50 -114 17
-26 29 -50 27 -52 -13 -13 -154 101 -292 235 -90 89 -201 186 -255 224 -87 61
-234 181 -389 315 -33 30 -61 49 -61 44 0 -25 97 -135 188 -212 55 -47 99 -87
96 -89 -11 -12 -132 87 -245 199 l-125 125 -43 123 c-116 335 -263 583 -460
777 -65 64 -81 85 -65 85 4 0 28 -16 55 -35z m3923 -137 c-157 -160 -272 -316
-343 -465 l-34 -71 -29 59 c-49 99 -105 121 -328 129 l-45 2 50 24 c58 28 105
30 194 9 106 -25 120 -19 251 117 142 148 300 278 338 278 24 0 20 -7 -54 -82z
m66 -100 c0 -6 -22 -46 -49 -88 -94 -145 -200 -376 -244 -530 -18 -63 -82
-167 -119 -196 -14 -10 -81 -70 -149 -133 -113 -103 -193 -167 -274 -217 l-30
-18 20 23 c11 13 90 81 176 152 142 116 245 216 270 262 8 14 6 17 -11 17 -12
0 -52 -29 -93 -68 -92 -86 -202 -178 -454 -380 -157 -126 -203 -168 -203 -185
0 -18 -28 -43 -122 -113 -67 -49 -126 -91 -131 -93 -20 -8 145 299 173 323 16
13 56 30 87 37 32 7 72 18 89 25 52 22 154 104 299 243 151 145 241 211 353
257 40 16 72 32 72 36 0 15 -56 20 -154 14 l-101 -6 43 41 43 41 73 -7 73 -7
28 34 c14 19 44 75 65 126 84 205 270 487 270 410z m-2070 -98 c11 -6 20 -15
20 -21 0 -6 -25 -33 -55 -61 -75 -68 -74 -80 23 -182 42 -45 96 -103 118 -129
26 -29 50 -47 63 -47 36 0 251 235 251 274 0 23 -53 80 -123 131 -21 15 -35
30 -33 33 9 9 210 3 286 -9 79 -11 235 -44 263 -55 23 -9 21 -23 -8 -67 -16
-23 -34 -37 -47 -37 -17 0 -18 -3 -8 -15 10 -12 0 -34 -60 -124 -79 -120 -107
-142 -146 -116 -51 33 -15 117 90 213 l58 52 -32 0 c-144 0 -364 -283 -410
-528 -6 -37 -5 -43 9 -40 8 2 25 18 36 37 38 63 71 95 90 87 15 -5 17 -14 12
-51 -16 -114 -141 -275 -214 -275 -67 0 -168 87 -214 183 -39 84 -46 124 -25
145 16 16 19 15 44 -15 15 -17 36 -46 47 -64 44 -71 59 -32 29 72 -49 168
-188 364 -309 435 -50 29 -105 47 -105 34 0 -5 26 -38 58 -72 105 -113 128
-165 86 -195 -52 -38 -87 -7 -203 182 -66 108 -82 141 -74 154 27 43 425 102
483 71z m-534 -127 c47 -52 91 -147 98 -213 10 -92 -33 -150 -131 -175 -40
-10 -49 -10 -51 1 -2 7 6 60 18 118 14 69 20 132 18 187 l-3 84 -21 -40 c-12
-22 -38 -101 -59 -175 -44 -159 -49 -170 -78 -170 -39 0 -197 58 -249 91 -88
57 -98 128 -23 163 41 20 170 38 238 34 l52 -3 0 44 0 45 55 22 c79 32 96 30
136 -13z m1548 -2 c42 -19 47 -24 41 -44 -16 -53 -17 -52 100 -58 190 -11 237
-32 237 -105 0 -32 -6 -44 -37 -71 -41 -35 -156 -87 -235 -105 -42 -10 -53 -9
-64 3 -8 8 -35 86 -61 174 -58 199 -59 201 -80 152 -15 -36 -15 -47 6 -165 12
-70 24 -140 27 -156 4 -27 3 -29 -24 -22 -16 4 -51 17 -78 29 -39 16 -52 29
-67 61 -10 23 -19 53 -19 67 0 39 30 130 41 124 12 -8 91 49 82 58 -3 4 -15 7
-25 7 -25 0 -23 10 14 49 35 38 57 38 142 2z m-1296 -635 c38 -20 82 -69 145
-163 52 -76 127 -220 127 -243 0 -17 -11 -12 -120 51 -105 62 -214 109 -250
109 -10 0 -28 12 -39 26 -40 51 -23 194 26 223 26 15 80 13 111 -3z m1021 -24
c24 -18 26 -25 25 -96 -2 -99 -14 -117 -95 -140 -35 -9 -114 -44 -175 -77 -61
-32 -116 -59 -122 -59 -29 0 70 197 151 300 61 78 99 103 151 96 22 -2 51 -13
65 -24z m511 -631 c-159 -57 -258 -110 -620 -329 -35 -22 -17 -5 70 65 198
158 371 250 545 288 109 24 111 14 5 -24z m-2305 -65 c40 -17 42 -27 19 -97
-25 -75 -16 -168 21 -220 54 -75 163 -119 243 -97 57 15 127 93 148 165 27 88
32 91 99 58 40 -19 61 -37 72 -60 15 -31 14 -36 -6 -78 -50 -103 -183 -198
-297 -213 -122 -15 -258 38 -359 140 -86 86 -118 155 -122 265 -4 96 7 131 47
142 43 12 99 10 135 -5z m2603 -12 c19 -13 22 -24 22 -79 0 -139 -43 -249
-129 -335 -163 -161 -404 -171 -562 -23 -52 49 -109 134 -109 165 0 31 134
119 158 104 5 -3 14 -30 21 -60 34 -151 178 -226 309 -160 118 59 160 185 103
316 -10 25 -16 50 -12 57 17 27 165 39 199 15z"/>
<path d="M17721 28954 c117 -120 172 -194 229 -310 50 -100 58 -97 59 23 2
207 -128 361 -322 379 l-62 6 96 -98z"/>
<path d="M22498 29025 c-95 -35 -198 -136 -223 -219 -18 -59 -20 -170 -4 -215
l12 -33 44 88 c63 125 126 215 217 311 l78 83 -43 -1 c-24 0 -61 -7 -81 -14z"/>
<path d="M22825 28603 c-18 -138 -39 -266 -55 -336 l-18 -78 82 -41 c189 -95
487 -285 721 -460 1247 -932 2059 -2343 2230 -3875 29 -261 33 -339 33 -648 0
-300 -4 -381 -28 -605 -98 -906 -411 -1768 -919 -2530 -530 -796 -1289 -1470
-2129 -1893 l-143 -72 5 -70 c3 -38 8 -115 11 -170 8 -132 16 -229 21 -234 6
-6 443 214 570 288 1411 818 2436 2146 2853 3698 536 1994 31 4119 -1340 5648
-131 146 -388 401 -524 521 -359 316 -780 604 -1227 838 -69 36 -129 66 -131
66 -3 0 -9 -21 -12 -47z"/>
<path d="M17246 28515 c-233 -128 -514 -309 -722 -465 -1272 -958 -2111 -2343
-2368 -3909 -53 -317 -69 -538 -70 -926 -1 -414 4 -526 39 -805 108 -876 415
-1737 883 -2480 237 -376 487 -692 802 -1014 415 -424 841 -756 1327 -1035
151 -86 442 -236 447 -230 2 2 9 58 16 124 6 66 18 162 26 214 8 52 14 102 14
113 0 12 -24 30 -82 59 -219 110 -550 318 -779 491 -455 343 -878 777 -1202
1233 -597 838 -957 1818 -1033 2815 -3 47 -8 99 -9 115 -9 74 -5 644 5 770 85
1098 468 2113 1124 2983 457 605 1004 1091 1669 1482 86 51 157 96 157 100 0
11 -100 433 -103 437 -2 1 -65 -31 -141 -72z"/>
<path d="M17897 28336 c-82 -34 -208 -134 -238 -188 -13 -24 16 -24 73 1 24
10 59 22 78 26 31 7 20 -7 -121 -154 -85 -89 -155 -165 -157 -170 -1 -4 9 -13
22 -19 44 -20 43 -54 -3 -166 -60 -143 -59 -138 -27 -126 15 5 43 10 61 10 38
0 65 -28 65 -68 0 -29 -24 -77 -48 -94 -52 -38 -62 -67 -76 -233 -8 -88 -17
-207 -20 -265 -6 -122 -34 -240 -73 -313 -17 -31 -89 -112 -188 -211 -222
-223 -329 -387 -410 -630 -30 -89 -59 -214 -49 -203 3 2 35 65 73 139 118 235
250 418 406 566 107 102 189 145 284 150 l66 3 -85 -78 c-294 -269 -399 -390
-490 -572 -83 -168 -161 -405 -174 -531 -8 -77 1 -68 40 41 37 106 153 340
214 434 134 205 275 352 401 419 63 34 83 40 153 44 l81 4 -86 -88 c-153 -160
-246 -289 -338 -471 -112 -225 -197 -528 -215 -768 l-6 -70 15 50 c118 390
245 656 410 860 167 206 239 263 346 272 32 3 59 3 59 0 0 -3 -25 -43 -56 -89
-199 -297 -296 -658 -298 -1108 0 -143 8 -267 18 -277 2 -2 15 70 30 159 14
90 38 215 52 278 25 114 83 277 112 315 12 16 13 17 9 2 -28 -80 -31 -257 -6
-257 6 0 26 35 46 78 75 164 134 278 163 312 44 53 36 22 -29 -108 -166 -332
-261 -752 -261 -1155 0 -105 3 -129 15 -133 25 -10 42 13 48 64 3 26 22 104
41 173 95 344 244 633 443 862 38 43 40 35 17 -63 -19 -85 -29 -322 -14 -350
7 -14 19 -20 33 -18 17 2 38 33 87 124 66 122 121 207 142 220 6 4 9 3 6 -2
-3 -5 -27 -54 -53 -109 -35 -72 -49 -114 -50 -148 l-1 -47 -100 -70 c-54 -39
-106 -69 -114 -68 -21 4 -24 49 -9 160 8 64 9 105 3 119 -9 20 -12 19 -56 -29
-165 -184 -301 -681 -302 -1107 -1 -189 8 -258 47 -348 21 -51 37 -48 37 6 0
46 29 176 61 271 61 183 201 444 354 660 87 122 299 388 339 425 30 28 34 56
8 70 -17 9 -84 -10 -186 -53 -88 -37 -40 5 152 133 126 84 140 102 105 133
-34 30 -142 51 -192 39 -20 -5 -32 1 -60 33 -43 47 -107 78 -165 78 -40 1 -43
3 -60 45 -19 45 -68 99 -192 213 -39 36 -76 75 -83 87 -11 21 -8 26 34 55 73
51 130 70 215 70 126 1 249 -66 390 -213 47 -48 101 -95 120 -103 20 -8 87
-17 155 -21 256 -13 408 -51 598 -147 63 -32 95 -54 90 -61 -4 -7 -22 -36 -41
-66 -100 -157 -149 -371 -140 -615 8 -215 70 -420 187 -623 47 -83 60 -98 81
-98 23 0 25 4 24 40 -2 87 35 297 55 309 4 3 8 -23 9 -57 10 -237 76 -505 169
-691 41 -83 132 -209 168 -232 33 -21 47 -15 124 58 51 48 70 77 120 180 97
201 154 412 167 617 6 90 9 100 19 80 19 -36 33 -113 41 -221 9 -123 25 -127
91 -28 76 113 145 283 179 440 21 99 30 382 15 479 -23 144 -90 308 -177 428
-16 22 -14 23 88 72 179 85 309 118 533 131 210 12 237 24 330 140 64 80 160
148 255 180 99 34 204 26 302 -23 98 -48 111 -62 97 -108 -10 -33 -8 -41 39
-122 27 -48 78 -150 113 -227 35 -77 67 -140 71 -140 19 0 26 41 19 116 -5 43
-7 80 -6 82 7 8 66 -164 88 -258 32 -131 44 -214 53 -360 11 -157 21 -98 30
165 7 217 -3 369 -37 540 -44 219 -140 456 -253 624 -31 46 -56 86 -56 88 0 9
72 1 118 -12 95 -28 243 -169 354 -335 97 -146 209 -404 335 -767 27 -80 44
-107 37 -60 -2 12 -8 60 -14 107 -6 47 -23 137 -37 200 -87 398 -252 714 -513
984 l-95 99 80 -5 c99 -6 172 -40 274 -128 199 -171 359 -423 508 -800 33 -83
33 -84 27 -35 -10 81 -63 281 -100 379 -47 122 -130 279 -201 379 -77 108
-256 287 -367 367 -96 70 -97 78 -6 79 88 1 208 -77 354 -229 112 -118 207
-263 317 -484 49 -98 89 -170 89 -159 0 37 -51 217 -87 308 -83 210 -186 356
-390 555 -225 221 -239 257 -263 737 -5 100 -14 193 -20 205 -7 13 -32 42 -56
64 -39 37 -44 47 -44 87 0 57 17 71 86 71 30 0 54 1 54 2 0 1 -18 40 -41 88
-60 128 -62 184 -8 201 11 4 19 10 17 15 -2 5 -65 74 -140 153 -76 80 -138
148 -138 151 0 4 21 -5 47 -19 94 -50 98 -24 10 60 -137 130 -317 195 -317
115 0 -11 20 -59 45 -107 99 -196 124 -410 79 -688 -44 -271 -138 -486 -280
-645 -189 -210 -533 -341 -889 -341 -192 1 -392 42 -540 111 -67 31 -102 32
-85 1 12 -24 224 -132 330 -169 150 -52 232 -67 385 -67 259 0 505 79 744 240
46 31 85 54 88 52 9 -9 -131 -111 -250 -181 -69 -41 -143 -86 -164 -100 l-38
-26 41 0 c87 0 339 147 476 278 78 74 100 84 122 50 8 -13 6 -25 -7 -50 -32
-63 -116 -172 -189 -245 -75 -76 -77 -84 -12 -57 119 50 263 190 403 393 28
41 51 68 51 60 0 -8 21 22 46 66 25 44 48 82 51 85 3 3 3 -39 -1 -92 -20 -296
-170 -581 -366 -693 -8 -5 5 15 30 44 88 103 230 296 230 313 0 38 -21 25 -75
-46 -95 -127 -205 -216 -364 -296 -131 -66 -409 -151 -447 -136 -8 3 -14 13
-14 23 0 13 23 28 79 52 71 30 158 87 148 97 -2 2 -48 -14 -103 -37 -192 -78
-386 -118 -453 -92 -19 8 -6 12 74 27 106 19 194 48 238 79 42 29 20 38 -48
22 -116 -28 -259 -14 -353 34 -21 11 -65 40 -98 64 -77 59 -149 87 -220 87
-77 0 -142 -18 -149 -41 -9 -27 1 -37 43 -45 75 -14 142 -62 142 -103 0 -30
42 -101 73 -121 l32 -22 -65 6 c-67 5 -177 38 -195 58 -7 8 -6 9 3 4 41 -24
96 39 73 83 -29 54 -110 69 -155 29 -24 -22 -30 -40 -27 -83 0 -10 27 -43 58
-73 l56 -54 -39 7 c-66 12 -135 55 -166 105 -39 61 -46 94 -55 250 -10 166
-16 171 -105 83 -69 -68 -68 -60 13 98 41 81 50 106 45 132 -6 31 -58 97 -76
97 -4 0 -17 -12 -28 -27 -28 -38 -35 -25 -17 28 19 54 13 86 -20 101 -22 10
-29 8 -51 -13 l-25 -23 7 40 c4 27 0 63 -12 104 -14 52 -28 75 -69 117 -31 32
-60 53 -73 53 -14 0 -43 -25 -86 -76 -71 -83 -86 -123 -68 -181 10 -34 10 -34
-8 -18 -44 40 -103 -19 -80 -79 5 -15 10 -35 10 -43 0 -14 -4 -13 -23 5 -32
30 -43 28 -71 -15 -36 -56 -40 -92 -16 -133 33 -58 100 -189 100 -196 0 -4
-27 19 -60 50 -88 84 -94 79 -101 -75 -8 -157 -14 -192 -46 -252 -41 -74 -128
-128 -207 -127 -31 1 -31 1 16 25 67 36 91 70 85 124 -5 43 -29 78 -57 81 -42
6 -71 -3 -100 -30 -27 -25 -31 -35 -25 -58 3 -15 16 -37 27 -49 l21 -22 -29
-11 c-49 -19 -121 -31 -161 -28 l-38 4 30 8 c43 13 55 25 55 58 0 75 55 135
151 166 41 13 55 22 57 38 3 18 -5 25 -44 38 -107 36 -218 11 -331 -76 -35
-27 -90 -62 -121 -76 -52 -25 -68 -27 -177 -27 -66 1 -144 5 -172 9 -71 12
-69 -5 3 -39 63 -30 172 -60 257 -70 86 -11 69 -25 -31 -25 -103 0 -158 13
-344 80 -76 28 -143 50 -150 50 -24 -1 36 -39 130 -85 72 -35 92 -49 92 -65 0
-34 -24 -34 -137 -1 -310 91 -529 217 -650 372 -26 35 -63 78 -81 97 -23 25
-39 56 -52 106 -18 66 -45 255 -37 262 2 2 19 -25 39 -59 100 -173 266 -366
379 -441 31 -20 80 -46 110 -57 l54 -21 -76 75 c-123 121 -225 262 -214 296
14 45 42 36 126 -43 99 -93 213 -170 348 -235 100 -48 131 -54 131 -26 0 18
-38 44 -127 89 -119 59 -87 59 77 -1 294 -108 576 -117 847 -26 158 52 343
158 343 195 0 12 -5 18 -12 15 -7 -3 -50 -22 -95 -42 -354 -156 -871 -130
-1190 59 -328 194 -527 595 -526 1056 1 178 27 292 103 448 27 57 50 110 50
117 0 17 -31 35 -57 35 -10 0 -44 -11 -76 -24z m-14 -203 c-6 -16 -21 -60 -33
-100 l-23 -71 -54 -7 c-30 -4 -56 -5 -58 -3 -1 2 34 54 78 116 54 75 84 109
91 102 7 -7 6 -19 -1 -37z m4650 -74 l78 -111 -78 7 -77 7 54 -61 c60 -68 143
-181 137 -187 -2 -3 -25 7 -50 21 l-45 26 5 -153 c7 -178 -8 -270 -58 -371
-30 -62 -78 -132 -85 -125 -1 2 8 34 21 71 42 115 65 253 65 389 0 182 -18
273 -114 575 -5 16 -2 22 11 25 42 9 60 -7 136 -113z m-4749 -305 c-20 -138
-12 -309 20 -435 12 -49 21 -89 19 -89 -8 0 -36 83 -49 144 -15 72 -20 249 -8
336 l7 51 -46 -22 c-26 -13 -50 -20 -53 -16 -4 3 22 38 56 77 34 39 64 69 66
67 2 -2 -3 -53 -12 -113z m4646 -357 c-66 -452 -381 -789 -839 -899 -81 -19
-334 -40 -325 -27 2 3 47 9 101 12 230 15 469 104 639 239 209 164 367 441
417 731 16 95 22 47 7 -56z m-4457 -295 c67 -134 119 -206 216 -302 170 -169
379 -264 656 -299 215 -27 227 -30 100 -25 -409 18 -742 194 -941 499 -65 100
-99 175 -130 290 -36 135 -28 154 15 35 20 -58 58 -147 84 -198z m4596 -50 c1
-25 -16 -58 -75 -145 -84 -124 -103 -140 -134 -112 -11 10 -20 23 -20 29 1 6
23 40 50 76 45 58 108 173 141 255 l12 30 13 -50 c6 -27 13 -65 13 -83z
m-4731 90 c21 -18 52 -67 88 -142 48 -99 52 -111 28 -90 -50 47 -179 261 -157
260 5 0 23 -13 41 -28z m4601 -64 c-35 -68 -94 -151 -149 -209 -57 -60 -56
-55 11 46 26 39 56 90 68 115 21 42 66 90 84 90 4 0 -2 -19 -14 -42z m-4554
-176 c48 -73 49 -73 29 -93 -12 -11 -27 -17 -36 -14 -9 4 -41 41 -72 84 -59
82 -67 114 -50 201 l7 32 36 -69 c20 -37 59 -101 86 -141z m2608 -542 c12
-235 85 -384 238 -485 141 -95 321 -154 484 -159 151 -6 349 28 494 83 28 10
51 18 51 16 0 -9 -145 -94 -395 -230 -380 -207 -544 -305 -682 -408 -50 -37
-53 -38 -75 -23 -40 28 -53 19 -116 -78 -79 -121 -121 -166 -156 -166 -15 0
-56 10 -91 22 -58 20 -68 21 -117 10 -146 -35 -164 -28 -248 103 -85 130 -89
135 -110 135 -10 0 -31 -11 -46 -24 l-28 -23 -100 67 c-152 101 -357 223 -601
359 -229 128 -368 211 -363 216 2 2 39 -6 83 -17 68 -18 110 -21 280 -21 234
-1 297 12 454 89 206 102 331 302 331 532 0 42 5 66 18 82 l18 22 46 -60 c26
-32 59 -81 73 -108 l26 -49 -63 -5 c-80 -7 -105 -21 -129 -75 -27 -61 -15
-123 35 -182 32 -38 71 -52 112 -42 64 17 88 86 51 143 -23 34 -34 33 -42 -4
-9 -41 -25 -48 -47 -20 -23 28 -17 63 14 98 29 30 51 28 92 -9 39 -33 75 -103
101 -191 17 -60 53 -115 65 -101 4 4 20 46 35 93 49 153 92 210 157 210 33 0
47 -12 58 -50 7 -26 6 -39 -5 -57 -18 -27 -45 -30 -45 -5 0 10 -6 26 -13 37
-13 17 -15 17 -30 -6 -21 -30 -22 -88 -1 -117 45 -65 145 -37 191 53 9 16 16
56 17 87 0 48 -4 62 -25 84 -30 33 -62 46 -116 46 -24 0 -46 4 -49 9 -8 13 65
133 116 192 23 26 44 47 45 45 1 -2 5 -55 8 -118z m-2628 -20 c10 -11 16 -20
13 -20 -3 0 -13 9 -23 20 -10 11 -16 20 -13 20 3 0 13 -9 23 -20z m40 -50 c10
-11 16 -20 13 -20 -3 0 -13 9 -23 20 -10 11 -16 20 -13 20 3 0 13 -9 23 -20z
m2882 -286 c45 -6 149 6 200 22 11 4 5 -6 -14 -25 -18 -17 -49 -33 -70 -37
-21 -4 -49 -12 -63 -20 -25 -12 -24 -13 40 -43 108 -51 209 -72 366 -78 208
-8 335 17 619 121 l20 8 -20 -17 c-32 -27 -129 -73 -208 -100 -112 -37 -238
-56 -382 -56 -207 0 -352 38 -486 127 -59 39 -139 118 -139 137 0 3 19 -3 43
-13 23 -10 65 -22 94 -26z m-1187 26 c0 -20 -108 -116 -165 -146 -128 -68
-252 -95 -430 -95 -202 0 -367 36 -525 116 -39 19 -70 37 -70 38 0 2 51 -14
113 -34 181 -61 260 -74 442 -74 111 1 186 6 245 18 119 24 252 67 247 81 -2
6 -34 21 -73 34 -38 12 -78 32 -89 43 l-20 21 30 -6 c79 -16 201 -18 240 -3
51 19 55 19 55 7z m402 -1447 c65 -31 118 -59 118 -62 0 -3 -26 -25 -58 -49
-68 -52 -82 -51 -189 10 -95 54 -139 91 -129 107 15 24 71 51 105 51 21 0 80
-22 153 -57z m578 22 c23 -21 23 -54 0 -66 -8 -4 -58 -32 -110 -63 -53 -31
-102 -56 -110 -56 -19 1 -90 50 -104 73 -18 28 2 45 104 93 82 39 102 44 147
41 33 -2 60 -11 73 -22z m-771 -160 c28 -19 54 -35 58 -35 11 0 53 -43 53 -54
0 -15 -79 -106 -92 -106 -6 0 -27 15 -48 33 -20 17 -53 45 -74 60 -23 18 -36
36 -36 52 0 29 46 85 70 85 10 0 41 -16 69 -35z m838 13 c6 -7 13 -25 16 -39
14 -57 -103 -179 -157 -165 -27 7 -76 70 -76 98 0 27 143 118 186 118 12 0 26
-6 31 -12z m-600 -178 c51 -38 76 -75 69 -103 -7 -27 -92 -117 -110 -117 -17
0 -70 59 -92 102 -12 23 -13 36 -6 53 15 32 72 95 86 95 7 0 30 -14 53 -30z
m354 -19 c27 -27 39 -47 39 -67 0 -38 -37 -97 -80 -129 l-35 -26 -32 38 c-18
21 -41 54 -52 74 l-21 36 22 28 c23 30 95 85 111 85 5 0 27 -17 48 -39z m-691
4 c37 -19 70 -62 70 -90 0 -12 -14 -53 -32 -91 -17 -38 -46 -113 -63 -167 -18
-55 -35 -95 -39 -89 -22 36 -29 323 -10 425 6 31 29 35 74 12z m989 -3 c6 -11
15 -67 21 -125 11 -105 3 -219 -19 -292 -10 -33 -9 -35 -42 65 -12 36 -39 106
-61 157 l-40 92 23 41 c22 39 71 79 96 80 7 0 17 -8 22 -18z m-492 -154 c29
-32 51 -80 58 -124 6 -34 1 -48 -39 -109 -25 -38 -47 -70 -50 -70 -8 0 -116
168 -116 180 0 12 54 101 78 128 21 23 44 21 69 -5z m-138 -288 c63 -102 76
-202 37 -278 -8 -16 -25 -68 -37 -116 -12 -47 -24 -86 -28 -86 -11 0 -69 101
-86 150 -21 58 -20 179 1 250 22 74 51 130 68 130 8 0 28 -22 45 -50z m289
-13 c66 -165 68 -260 7 -382 -22 -43 -46 -81 -53 -83 -16 -5 -32 35 -72 184
-23 84 -31 131 -26 155 8 45 94 191 109 186 7 -2 22 -29 35 -60z m-165 -354
c43 -193 47 -263 17 -293 -26 -26 -46 -25 -75 5 -32 31 -32 63 0 225 14 69 25
126 25 128 0 1 4 2 9 2 5 0 16 -30 24 -67z"/>
<path d="M19984 27487 c30 -39 47 -109 40 -157 -3 -19 -16 -68 -29 -108 l-23
-73 39 45 c44 49 93 71 140 61 16 -4 59 -29 94 -56 l64 -49 -28 68 c-53 125
-52 183 5 257 31 41 32 44 9 35 -13 -5 -46 -20 -74 -35 -67 -34 -101 -32 -175
10 -78 44 -94 44 -62 2z"/>
<path d="M16801 25408 c-94 -209 -183 -575 -232 -953 -27 -206 -32 -493 -10
-568 8 -26 15 -46 17 -44 3 2 29 168 59 368 68 452 64 431 78 426 8 -2 12 -66
13 -228 1 -224 4 -255 49 -554 19 -121 66 -398 76 -445 7 -32 46 244 88 625
l17 160 13 -60 c79 -378 153 -590 406 -1165 43 -96 84 -190 92 -209 9 -22 18
-30 24 -24 7 7 0 84 -20 224 -49 351 -77 608 -86 814 -3 61 -8 127 -11 148 -2
21 -4 176 -4 345 0 358 13 609 44 840 7 51 10 89 5 85 -14 -14 -107 -251 -144
-365 -67 -207 -110 -413 -141 -683 l-7 -60 -13 50 c-40 147 -71 366 -78 555
-5 127 14 417 38 575 14 87 24 161 22 162 -4 4 -78 -155 -115 -250 -57 -143
-116 -352 -146 -517 -7 -41 -17 -93 -21 -115 l-7 -40 -9 35 c-5 19 -12 121
-15 226 -6 212 7 423 38 598 11 60 18 110 16 113 -2 2 -19 -29 -36 -69z"/>
<path d="M23490 25454 c0 -5 6 -49 14 -99 8 -49 18 -121 22 -160 3 -38 8 -79
10 -90 9 -44 5 -385 -5 -470 -6 -49 -11 -99 -11 -109 0 -40 -9 -7 -29 109 -44
244 -138 545 -233 738 l-30 62 7 -45 c3 -25 12 -87 20 -139 57 -374 39 -788
-46 -1091 -20 -72 -24 -79 -26 -50 -23 347 -102 680 -229 969 -49 110 -70 145
-60 101 7 -34 34 -308 45 -455 25 -360 3 -1082 -44 -1445 -3 -19 -12 -91 -20
-160 -8 -69 -24 -181 -35 -250 -11 -68 -18 -126 -15 -128 10 -10 220 439 304
652 94 234 190 557 216 726 4 25 10 51 14 57 4 7 24 -148 45 -345 33 -312 52
-451 55 -417 1 6 14 73 30 151 67 318 105 606 117 889 4 102 10 162 15 150 7
-17 65 -391 111 -709 21 -149 34 -27 32 294 -4 376 -76 754 -216 1130 -49 132
-58 153 -58 134z"/>
<path d="M22143 25264 c-85 -87 -103 -111 -103 -136 0 -23 23 -61 93 -153 206
-274 311 -500 407 -878 45 -176 55 -189 80 -112 24 73 -6 410 -60 677 -62 304
-233 709 -298 708 -9 -1 -63 -48 -119 -106z"/>
<path d="M21910 25086 c-36 -18 -129 -57 -207 -85 -138 -51 -165 -69 -143 -96
5 -7 84 -62 175 -124 l165 -112 0 33 c0 18 -16 71 -36 118 -20 47 -38 94 -41
105 -11 41 64 -69 128 -187 56 -103 71 -124 93 -126 34 -4 41 24 39 158 -2
162 -54 351 -95 350 -7 -1 -42 -16 -78 -34z"/>
<path d="M18844 24928 c-74 -83 -115 -313 -79 -448 13 -51 14 -84 0 -42 -6 22
-79 92 -94 92 -5 0 3 -28 16 -62 32 -79 33 -175 4 -268 -43 -136 -36 -245 29
-406 40 -100 83 -171 160 -262 34 -41 59 -76 56 -80 -4 -3 -19 -1 -34 4 -18 6
-37 29 -62 74 -43 80 -129 168 -195 200 -71 35 -199 35 -267 1 -101 -49 -185
-152 -241 -292 -27 -68 -52 -167 -45 -175 3 -2 17 18 31 44 82 150 219 225
323 176 45 -21 68 -66 67 -129 -1 -106 -57 -185 -274 -380 -218 -196 -260
-238 -280 -277 -26 -52 -43 -133 -31 -154 8 -14 10 -12 16 12 20 76 108 177
210 238 103 62 284 121 459 151 98 16 -1 -75 -158 -144 -204 -91 -352 -170
-402 -216 -59 -52 -101 -126 -109 -191 -8 -56 -8 -56 65 43 60 83 116 127 223
178 83 40 386 121 400 107 12 -12 -45 -87 -89 -116 -21 -14 -102 -52 -181 -85
-78 -32 -164 -73 -192 -91 -93 -60 -155 -148 -166 -237 l-6 -48 36 60 c78 129
191 197 430 260 76 19 141 34 144 31 12 -12 -13 -63 -46 -96 -26 -26 -70 -49
-147 -80 -160 -63 -221 -96 -278 -148 -52 -49 -97 -129 -97 -172 1 -24 2 -23
33 15 120 149 347 265 495 253 l42 -3 -25 -38 c-31 -44 -77 -75 -163 -107 -68
-25 -165 -83 -196 -118 -18 -21 -18 -21 8 -28 18 -4 37 1 63 17 58 37 109 58
204 84 49 14 90 25 93 25 4 0 6 -13 6 -29 0 -45 -42 -86 -138 -131 -48 -23
-88 -43 -90 -45 -2 -2 2 -12 9 -23 12 -18 14 -19 48 -4 56 23 163 52 172 46
15 -9 10 -58 -10 -90 -11 -19 -44 -44 -85 -65 -52 -27 -66 -39 -66 -56 0 -28
2 -28 65 -4 28 10 65 22 83 26 30 6 32 5 32 -20 0 -50 -38 -104 -100 -143 -56
-35 -71 -54 -51 -66 5 -3 28 3 52 13 24 11 61 23 82 26 34 7 37 5 37 -15 0
-41 -33 -92 -82 -127 -29 -21 -48 -43 -48 -54 0 -17 3 -18 21 -8 12 6 45 19
75 29 l54 19 0 -29 c0 -22 -13 -40 -56 -78 -65 -58 -58 -72 21 -43 l55 21 0
-30 c0 -22 -11 -41 -40 -69 -46 -44 -40 -58 14 -36 19 8 38 15 41 15 13 0 3
-55 -17 -90 -27 -45 -20 -58 16 -34 15 9 28 15 30 13 8 -9 24 -129 20 -146 -4
-13 21 -66 65 -146 101 -179 188 -359 262 -535 62 -150 65 -155 130 -213 37
-32 98 -77 135 -99 65 -37 84 -57 26 -26 -15 8 185 -198 443 -457 l470 -472
-6 -105 c-4 -58 -7 -173 -8 -257 l-1 -151 71 -108 c101 -154 182 -297 265
-469 73 -153 168 -384 161 -391 -2 -2 -35 51 -73 118 -135 239 -416 640 -435
621 -7 -7 -12 -171 -10 -269 1 -19 26 -69 71 -140 88 -136 243 -441 304 -598
26 -65 45 -120 43 -122 -2 -2 -16 20 -32 48 -119 222 -384 603 -396 570 -3 -9
-9 -71 -13 -137 l-6 -120 111 -205 c143 -265 186 -350 216 -430 31 -82 25 -75
-77 90 -131 212 -231 351 -249 348 -14 -3 -16 -27 -16 -183 l0 -180 46 -75
c61 -98 241 -459 236 -473 -2 -6 -27 31 -57 83 -60 108 -180 288 -208 314 -19
16 -20 14 -26 -71 -4 -67 -17 -419 -20 -555 0 -9 -3 -15 -7 -13 -3 3 -9 105
-13 227 -9 308 -16 421 -26 432 -8 8 -103 -130 -220 -321 -25 -39 -46 -70 -48
-69 -5 6 57 154 102 243 25 49 67 124 96 168 72 113 75 129 72 353 -2 98 -5
132 -14 132 -24 -1 -185 -234 -297 -429 -39 -68 -73 -126 -76 -129 -10 -10 90
229 140 335 56 119 144 270 197 341 33 44 33 45 35 170 3 137 -2 172 -23 172
-25 0 -271 -368 -384 -573 -23 -43 -45 -76 -47 -73 -8 8 73 206 148 361 76
157 144 279 228 405 l56 85 -3 135 c-3 140 -8 173 -22 168 -11 -4 -184 -244
-265 -368 -34 -52 -101 -164 -149 -247 -48 -84 -89 -153 -91 -153 -2 0 7 28
19 63 121 320 227 531 400 797 l81 125 -2 220 c-3 311 -9 386 -37 467 -43 121
-130 211 -346 355 -103 69 -657 369 -665 361 -2 -2 73 -95 166 -207 93 -112
168 -205 166 -207 -2 -2 -32 1 -68 7 -262 42 -875 347 -1288 642 -113 81 -310
261 -299 273 4 3 30 -12 60 -34 111 -85 320 -208 503 -297 214 -105 358 -164
587 -241 l158 -52 -201 210 c-677 712 -1223 1450 -1664 2250 -38 70 -71 125
-73 123 -2 -2 26 -97 63 -212 75 -233 145 -403 270 -655 l85 -173 -91 95
c-229 240 -460 590 -623 943 -30 66 -56 121 -58 123 -9 9 34 -252 63 -381 29
-131 98 -352 147 -472 12 -29 20 -53 17 -53 -2 0 -32 41 -66 92 -80 118 -209
351 -278 500 -30 65 -56 116 -58 114 -7 -6 107 -357 161 -495 71 -182 139
-324 216 -451 74 -124 299 -459 364 -545 31 -41 59 -97 91 -185 135 -363 327
-662 600 -932 119 -118 129 -132 129 -166 1 -46 -14 -270 -19 -297 -2 -11 -7
-72 -10 -135 -3 -63 -8 -133 -10 -155 -14 -135 -46 -637 -52 -816 -5 -171 -4
-191 15 -255 54 -178 212 -310 347 -290 57 9 104 46 164 130 45 62 50 67 55
45 3 -13 51 -256 106 -539 56 -283 110 -550 121 -593 61 -240 200 -384 336
-348 79 22 148 96 194 210 13 34 27 61 30 61 4 0 10 -23 13 -52 10 -72 62
-229 106 -319 116 -238 302 -417 543 -522 120 -52 154 -51 275 1 230 101 413
271 527 492 51 101 111 271 121 348 3 28 9 52 13 52 3 0 22 -37 41 -82 64
-150 163 -219 271 -187 57 17 143 103 186 184 47 89 65 164 188 780 l111 559
23 -56 c24 -60 73 -118 119 -142 135 -69 335 45 404 231 20 53 22 77 21 263 0
170 -16 478 -38 725 -2 28 -7 88 -10 135 -3 47 -12 177 -20 290 -8 113 -15
232 -15 264 l0 59 135 136 c150 152 236 257 337 410 80 124 182 327 232 466
55 152 88 212 166 305 191 227 382 560 515 895 45 113 153 434 169 500 4 17
-42 -67 -101 -185 -120 -238 -293 -526 -293 -488 0 2 25 78 55 168 72 215 97
308 140 519 38 187 40 211 25 211 -5 0 -10 -4 -10 -10 0 -16 -109 -247 -173
-365 -68 -127 -239 -388 -322 -490 -60 -75 -258 -295 -262 -291 -2 1 24 51 57
111 126 231 238 506 316 774 24 85 43 155 42 157 -2 1 -48 -79 -103 -178 -431
-782 -963 -1499 -1633 -2205 l-201 -211 72 22 c448 142 930 376 1211 591 85
64 24 -7 -88 -104 -430 -370 -1148 -757 -1498 -807 -27 -3 -48 -4 -48 0 0 9
194 237 239 281 23 21 41 44 41 50 0 6 14 28 32 49 28 34 29 38 10 32 -12 -4
-22 -6 -22 -3 0 8 164 582 217 757 57 193 204 655 222 702 5 15 7 43 4 62 -5
32 -3 36 15 36 12 0 28 10 36 22 14 20 14 24 -5 44 -11 12 -23 40 -26 63 -7
49 -2 50 81 21 46 -15 61 -17 76 -8 17 11 13 16 -43 54 -74 49 -82 58 -95 105
-15 56 -5 63 64 43 105 -30 185 -77 232 -138 26 -34 29 -19 6 30 -17 36 -94
97 -197 154 -72 40 -97 71 -97 121 0 22 4 39 9 39 21 0 150 -44 194 -66 61
-31 123 -87 147 -133 19 -36 19 -36 20 -8 1 82 -64 149 -216 222 -62 29 -119
64 -128 76 -15 22 -23 89 -10 89 3 0 47 -12 97 -26 168 -48 267 -114 317 -209
l21 -40 -5 37 c-16 121 -100 195 -328 288 -66 27 -95 53 -108 98 -11 42 -7 42
160 -9 156 -47 202 -66 264 -109 48 -32 106 -107 106 -135 0 -9 6 -23 14 -31
13 -12 15 -11 18 8 3 20 188 212 188 195 0 -18 -107 -324 -158 -453 -199 -498
-451 -961 -877 -1609 -11 -16 19 11 66 60 324 338 697 803 1020 1270 94 136
104 142 -157 -92 -91 -82 -170 -150 -175 -151 -6 -2 30 74 80 170 108 208 211
436 319 704 89 221 202 527 202 546 0 7 -30 -17 -67 -52 -38 -36 -87 -82 -109
-104 l-42 -38 24 119 c95 461 151 941 179 1523 11 231 17 475 12 470 -3 -3
-13 -75 -22 -160 -49 -466 -139 -993 -251 -1460 -27 -114 -134 -513 -138 -518
-2 -1 -13 24 -25 56 -26 74 -76 139 -140 187 -29 21 -134 71 -243 116 -106 43
-211 92 -233 107 -36 25 -83 87 -73 97 6 7 295 -70 359 -95 147 -58 268 -149
324 -246 38 -65 40 -67 43 -38 5 48 -35 138 -85 195 -26 28 -92 90 -147 137
-198 169 -248 218 -290 282 -50 76 -66 117 -66 174 0 80 59 136 142 136 88 -1
182 -70 247 -183 18 -31 34 -57 36 -57 9 0 -31 143 -57 205 -122 293 -398 385
-587 196 -31 -31 -74 -87 -95 -125 -43 -73 -69 -92 -111 -82 l-27 7 44 47 c82
88 150 205 195 337 35 104 39 189 14 318 -25 128 -27 221 -6 301 9 33 14 60
12 62 -9 9 -76 -68 -105 -119 -17 -31 -41 -62 -54 -71 -25 -18 -75 -21 -98 -6
-12 8 -10 10 9 10 41 0 105 38 129 75 27 42 52 134 52 190 -1 89 -68 287 -107
312 -21 14 -56 16 -240 15 -230 -2 -274 -10 -211 -36 21 -9 43 -16 51 -16 32
0 233 -81 265 -108 54 -43 82 -103 82 -174 0 -67 -12 -98 -38 -98 -28 0 -122
106 -122 136 0 7 11 26 25 42 14 17 25 39 25 50 0 27 -58 62 -103 62 -53 0
-71 -32 -65 -113 7 -80 19 -104 118 -221 45 -53 76 -96 70 -96 -26 0 -102 88
-208 244 -106 155 -243 318 -257 305 -3 -3 7 -34 21 -69 84 -207 90 -439 19
-804 -8 -44 -13 -81 -11 -83 1 -2 38 28 82 67 112 100 144 94 124 -24 -18
-105 -58 -200 -131 -308 -38 -57 -65 -104 -60 -106 40 -13 273 210 369 354 33
50 68 94 77 98 30 11 55 6 76 -15 21 -21 21 -28 15 -127 -7 -114 -47 -254
-106 -371 l-30 -61 -109 0 c-289 0 -557 -112 -785 -330 -78 -75 -172 -187
-164 -196 3 -2 47 34 98 82 160 147 315 237 483 278 147 37 312 12 395 -60 56
-48 72 -81 72 -152 0 -67 -29 -122 -97 -183 -141 -127 -474 -225 -778 -230
-101 -2 -108 5 -100 95 7 81 14 84 -83 -42 -35 -45 -68 -82 -75 -81 -7 0 -43
41 -81 91 -37 49 -72 86 -76 81 -5 -4 -4 -29 2 -55 9 -36 8 -54 -1 -74 l-12
-26 -87 7 c-263 20 -478 68 -626 138 -240 115 -319 274 -201 405 62 69 125 95
246 100 216 10 445 -95 669 -304 90 -84 92 -83 21 11 -214 281 -545 444 -913
448 l-118 2 -31 70 c-89 199 -134 421 -96 478 20 30 60 39 88 19 11 -8 58 -65
104 -126 86 -116 197 -230 278 -285 43 -30 47 -30 47 -12 0 12 -21 51 -47 88
-68 100 -109 196 -127 298 -14 78 -14 91 -1 104 18 18 40 4 144 -88 47 -42 72
-59 68 -46 -11 36 -45 228 -58 322 -7 58 -10 144 -6 225 6 145 25 231 77 345
17 37 28 68 26 70 -10 10 -57 -26 -101 -77 -25 -30 -87 -116 -137 -190 -125
-185 -174 -247 -210 -266 -28 -14 -26 -10 24 53 29 37 66 85 81 106 80 107 70
247 -17 247 -34 0 -93 -32 -102 -55 -3 -8 6 -29 20 -46 14 -17 26 -38 26 -47
-1 -29 -84 -137 -108 -140 -44 -7 -55 15 -49 96 11 143 63 190 296 267 126 42
141 49 123 59 -14 7 -47 9 -94 5 -76 -6 -150 -5 -283 6 -75 6 -81 6 -101 -17z
m122 -2049 c13 -21 188 -130 278 -173 182 -88 385 -144 611 -171 144 -17 503
-19 645 -3 123 13 311 53 420 88 129 42 338 145 434 215 87 62 100 61 84 -9
-14 -63 -39 -97 -104 -143 -185 -132 -412 -196 -809 -229 -522 -43 -1097 20
-1360 150 -148 73 -225 158 -225 249 0 36 12 48 26 26z m2931 -184 c268 -71
396 -139 474 -251 50 -73 53 -92 28 -175 l-22 -74 -15 45 c-35 108 -141 202
-295 260 -212 80 -257 104 -294 159 -22 33 -31 71 -15 71 4 0 66 -16 139 -35z
m-446 -95 c-30 -102 -193 -215 -389 -271 -381 -109 -916 -135 -1417 -68 -312
41 -539 125 -654 240 -40 40 -81 123 -81 163 0 36 3 34 117 -47 209 -147 426
-231 748 -288 173 -30 530 -38 715 -15 364 46 661 152 875 313 l90 68 3 -30
c2 -16 -1 -46 -7 -65z m-2449 -181 c288 -219 707 -339 1188 -339 494 0 954
139 1225 370 58 49 60 50 63 26 9 -69 -51 -177 -133 -238 -123 -93 -280 -149
-535 -191 -448 -74 -875 -69 -1324 14 -216 40 -374 106 -480 200 -66 59 -95
111 -105 186 -9 61 -20 64 101 -28z m2929 40 c229 -64 342 -130 403 -233 31
-52 32 -66 9 -131 -15 -45 -17 -47 -25 -25 -30 81 -141 166 -295 225 -149 58
-211 91 -233 128 -20 33 -27 77 -11 77 4 0 73 -18 152 -41z m-2842 -329 c349
-234 976 -335 1516 -244 350 59 655 189 830 355 29 28 56 46 58 42 11 -17 -11
-83 -43 -134 -41 -64 -101 -109 -215 -164 -146 -71 -346 -119 -655 -157 -163
-20 -684 -17 -835 5 -368 54 -540 103 -688 196 -100 63 -156 137 -173 226 l-7
39 74 -61 c41 -33 103 -79 138 -103z m2397 -94 c-21 -70 -84 -141 -180 -201
-135 -84 -275 -127 -553 -170 -403 -62 -767 -60 -1163 5 -332 55 -547 146
-649 274 -34 43 -65 115 -59 142 2 15 14 8 62 -35 244 -221 614 -348 1108
-381 404 -28 903 71 1163 229 64 39 178 123 245 179 19 17 36 26 38 21 2 -5
-4 -33 -12 -63z m-2417 -269 c211 -142 526 -242 877 -277 172 -18 494 -8 647
19 379 67 620 168 835 351 l74 62 -7 -34 c-37 -178 -253 -319 -595 -387 -463
-91 -950 -91 -1413 0 -223 44 -392 114 -499 208 -49 44 -108 146 -108 189 0
22 4 20 57 -28 31 -28 90 -75 132 -103z m-72 -134 c222 -168 458 -260 815
-314 172 -27 553 -33 703 -11 384 55 733 195 928 370 36 33 37 34 37 11 -1
-111 -167 -252 -382 -325 -127 -43 -369 -85 -619 -108 -138 -13 -501 -14 -599
-1 -25 3 -85 10 -135 16 -143 17 -389 67 -481 99 -199 67 -344 189 -369 309
-8 40 -12 41 102 -46z m2458 -179 c-41 -107 -206 -215 -415 -272 -231 -63
-459 -93 -768 -99 -321 -7 -606 19 -857 77 -260 60 -456 180 -498 303 -9 26
-13 47 -11 47 3 0 31 -19 62 -43 164 -125 311 -201 502 -261 240 -74 451 -102
765 -100 278 2 536 48 780 139 166 61 349 169 425 250 31 33 37 17 15 -41z
m-2380 -236 c295 -191 669 -282 1150 -281 446 2 867 123 1141 329 88 67 101
66 65 -4 -26 -51 -103 -121 -181 -165 -221 -123 -699 -198 -1175 -183 -115 3
-223 8 -240 11 -16 2 -75 9 -130 15 -307 35 -586 131 -695 240 -38 37 -90 122
-90 146 0 4 19 -9 43 -28 23 -20 74 -56 112 -80z m-111 -87 c11 -17 174 -120
261 -164 159 -79 354 -139 565 -172 126 -20 547 -29 690 -14 322 34 627 139
863 300 48 32 87 57 87 54 0 -14 -42 -85 -67 -115 -89 -106 -327 -196 -628
-239 -437 -62 -864 -51 -1260 30 -260 54 -402 128 -492 254 -23 33 -42 63 -43
68 0 10 18 9 24 -2z m96 -237 c39 -25 122 -70 183 -99 272 -131 550 -188 912
-189 343 -1 517 22 775 106 111 35 309 129 395 187 33 22 61 36 63 30 6 -14
-35 -75 -74 -108 -151 -133 -569 -225 -1063 -235 -538 -10 -1015 85 -1188 238
-37 33 -94 116 -79 116 3 0 37 -21 76 -46z m174 -255 c611 -288 1536 -252
2063 81 l64 41 -20 -40 c-91 -177 -541 -291 -1154 -291 -127 0 -254 2 -282 5
-188 21 -242 28 -335 47 -143 28 -340 83 -392 109 -24 12 -56 33 -73 47 -30
24 -85 98 -85 113 0 5 26 -8 57 -28 31 -20 102 -57 157 -84z m218 -247 c234
-76 419 -103 713 -103 453 1 781 75 1083 245 67 39 77 34 36 -19 -49 -64 -191
-136 -337 -170 -75 -17 -310 -53 -417 -63 -148 -14 -656 -6 -790 12 -379 52
-608 137 -665 247 -14 26 -8 24 120 -40 74 -38 189 -87 257 -109z m-248 -55
c163 -79 330 -134 530 -173 l121 -24 -85 6 c-205 14 -474 81 -571 143 -39 24
-110 101 -83 90 5 -2 44 -21 88 -42z m2047 14 c-15 -27 -67 -66 -115 -86 -115
-48 -377 -105 -552 -120 -38 -4 -76 -9 -84 -11 -9 -3 -11 -2 -5 4 6 5 51 15
100 22 189 27 424 99 585 180 41 21 76 37 78 35 2 -2 -1 -12 -7 -24z m-66
-172 c-52 -57 -296 -145 -429 -154 l-71 -5 130 35 c124 35 302 100 355 130 34
19 36 19 15 -6z m-1885 -34 c131 -53 239 -86 370 -115 52 -12 97 -23 100 -26
11 -12 -139 8 -237 31 -122 29 -241 74 -306 115 -41 26 -56 40 -43 40 2 0 54
-20 116 -45z m1158 -12 c-10 -2 -26 -2 -35 0 -10 3 -2 5 17 5 19 0 27 -2 18
-5z m-135 -10 c-13 -2 -33 -2 -45 0 -13 2 -3 4 22 4 25 0 35 -2 23 -4z m-1032
-99 c70 -35 244 -98 357 -129 91 -24 117 -34 90 -34 -115 -3 -414 99 -498 169
l-25 21 25 -7 c14 -3 37 -12 51 -20z m1838 -3 c-33 -25 -123 -70 -186 -92 -55
-19 -262 -63 -268 -57 -4 4 452 166 469 167 5 1 -2 -7 -15 -18z m-14 -111 c-7
-12 -126 -72 -132 -67 -4 5 116 75 130 76 5 1 6 -3 2 -9z m-2035 -616 c64 -27
101 -74 114 -147 15 -80 -52 -476 -118 -700 -38 -127 -94 -287 -106 -300 -8
-9 -45 88 -98 254 -61 191 -139 638 -128 732 10 93 69 159 157 176 54 11 132
4 179 -15z m2415 -19 c29 -17 52 -40 66 -68 20 -38 21 -52 15 -147 -16 -262
-105 -642 -204 -870 l-20 -45 -21 49 c-63 144 -136 409 -170 616 -37 230 -45
318 -32 368 12 43 63 95 110 114 82 31 186 25 256 -17z m-1895 -89 c67 -28
110 -89 110 -156 0 -36 -40 -209 -76 -330 -60 -203 -204 -540 -230 -540 -15 0
-14 -4 -59 262 -58 347 -71 609 -32 684 48 93 174 128 287 80z m1344 -13 c71
-50 81 -78 82 -238 2 -221 -42 -560 -94 -730 l-19 -60 -41 82 c-91 179 -172
402 -227 627 -19 77 -35 160 -35 184 0 38 6 49 48 93 58 61 107 81 186 75 44
-3 69 -12 100 -33z m-2425 -20 c44 -21 57 -34 74 -72 19 -42 21 -66 21 -271 0
-230 -8 -328 -45 -530 -27 -147 -31 -153 -59 -109 -41 65 -169 334 -204 431
-49 132 -105 342 -107 399 -5 140 174 225 320 152z m3506 -3 c107 -53 119
-127 56 -337 -60 -198 -105 -314 -193 -490 -80 -162 -101 -194 -117 -177 -4 5
-21 124 -37 264 -23 203 -29 293 -27 442 1 171 3 192 23 233 14 29 36 54 63
70 36 23 51 26 112 23 50 -2 84 -10 120 -28z m-3861 -1200 c20 -90 43 -132 80
-145 33 -11 74 8 94 45 23 43 10 238 -23 338 -14 46 -25 85 -23 87 2 1 54 -57
116 -129 178 -207 162 -191 176 -175 7 8 43 104 81 214 37 110 70 205 74 212
3 7 56 -92 116 -219 61 -127 115 -233 122 -235 6 -2 61 95 128 229 65 128 118
234 119 235 1 1 37 -90 80 -202 44 -113 83 -202 87 -199 4 2 89 110 189 239
99 129 186 237 192 241 6 4 9 3 6 -2 -3 -5 -88 -155 -188 -334 -100 -179 -185
-329 -190 -333 -4 -5 -47 66 -95 157 -47 91 -90 164 -94 161 -5 -2 -43 -79
-86 -171 -65 -141 -76 -173 -72 -205 3 -21 43 -108 91 -195 47 -87 84 -159 82
-161 -2 -2 -42 55 -90 127 -47 72 -91 128 -96 125 -6 -3 -10 -49 -10 -102 l0
-97 72 -143 c39 -79 69 -145 66 -148 -3 -3 -31 38 -64 90 -32 52 -62 95 -65
95 -4 0 -10 -28 -13 -63 -10 -86 13 -189 63 -284 22 -42 39 -79 37 -81 -2 -2
-19 22 -37 52 -19 31 -38 56 -43 56 -5 0 -6 -64 -2 -152 4 -84 5 -150 2 -147
-3 3 -27 147 -52 320 -26 173 -50 315 -54 317 -3 1 -4 31 -2 67 5 72 -6 195
-16 195 -4 0 -24 -27 -46 -60 -21 -33 -40 -60 -42 -60 -2 0 17 41 42 90 33 65
47 106 51 148 5 55 3 61 -71 204 -42 81 -84 161 -95 179 l-20 32 -14 -34 c-66
-155 -120 -275 -127 -283 -4 -4 -22 2 -39 15 -45 33 -60 19 -96 -87 -38 -109
-46 -125 -86 -158 -104 -88 -270 56 -299 262 -9 64 -4 202 16 412 6 64 32 286
36 305 1 6 5 -120 8 -280 5 -220 11 -308 24 -365z m4050 355 c8 -82 13 -227
13 -320 l-2 -171 -33 -66 c-38 -77 -107 -144 -158 -154 -84 -16 -138 32 -179
156 -44 137 -59 151 -112 106 l-29 -24 -69 159 c-38 88 -72 162 -75 164 -4 2
-48 -76 -98 -174 -108 -209 -110 -221 -57 -351 31 -77 29 -83 -9 -25 -8 11
-17 17 -22 12 -15 -15 -16 -170 -1 -220 13 -40 13 -46 1 -36 -19 15 -17 24
-59 -266 -20 -137 -43 -281 -51 -320 l-14 -70 5 105 c3 58 8 131 11 163 4 35
3 57 -3 57 -6 0 -27 -25 -47 -55 -20 -30 -38 -55 -40 -55 -2 0 19 45 47 99
l51 100 -1 102 c-1 56 -6 106 -10 110 -6 6 -38 -36 -79 -100 -38 -60 -70 -108
-72 -106 -4 4 91 198 125 255 25 40 28 57 31 153 3 61 0 113 -5 118 -6 6 -40
-36 -91 -113 -45 -68 -82 -120 -82 -115 0 17 63 146 100 202 44 69 64 134 55
181 -3 18 -30 79 -59 136 -29 57 -61 124 -71 151 -10 26 -21 47 -25 47 -4 0
-44 -72 -89 -160 -45 -88 -86 -162 -90 -165 -5 -2 -46 62 -92 143 -45 81 -117
208 -160 283 -42 75 -87 156 -98 180 l-22 44 51 -55 c87 -94 179 -211 248
-317 37 -57 69 -103 72 -103 3 0 42 96 87 213 l81 212 111 -225 c123 -251 128
-258 145 -238 7 7 59 111 116 231 57 119 107 217 110 217 3 0 36 -93 74 -207
37 -115 75 -215 83 -223 13 -13 16 -13 26 1 33 43 260 299 263 296 2 -1 -8
-43 -22 -92 -34 -120 -38 -291 -8 -332 31 -41 47 -48 80 -32 34 16 65 74 90
169 13 50 18 120 20 305 2 132 5 256 5 275 2 43 14 -54 33 -255z m-3379 -1180
c132 -516 144 -556 178 -592 41 -45 76 -26 135 72 78 129 147 403 193 772 7
56 14 101 15 100 1 -1 10 -63 19 -137 9 -74 18 -142 20 -150 2 -9 6 -43 10
-75 14 -126 57 -367 85 -481 58 -238 150 -460 261 -629 50 -76 214 -252 289
-309 l35 -26 -41 14 c-210 73 -362 233 -459 485 -37 97 -185 609 -185 642 0
45 -19 12 -45 -78 -72 -243 -208 -425 -296 -398 -60 18 -112 111 -153 270 -24
94 -197 1000 -195 1022 1 16 9 -14 134 -502z m2769 458 c-2 -10 -26 -137 -53
-283 -27 -146 -66 -350 -85 -455 -46 -244 -68 -329 -104 -401 -40 -79 -72
-108 -118 -106 -116 4 -218 165 -295 462 -15 58 -18 49 -59 -140 -91 -416
-188 -637 -355 -806 -75 -76 -104 -98 -175 -132 -131 -63 -144 -62 -60 5 240
191 385 430 499 823 68 237 133 635 142 872 3 69 14 67 23 -4 42 -333 108
-606 190 -793 49 -109 132 -142 170 -67 7 15 70 250 140 522 70 272 129 501
131 508 7 18 14 14 9 -5z"/>
<path d="M22131 24796 c-10 -11 -10 -37 0 -114 13 -106 6 -177 -15 -169 -7 3
-49 30 -95 61 -181 124 -379 199 -397 151 -4 -10 16 -39 54 -79 159 -170 470
-623 572 -831 81 -167 150 -390 150 -484 0 -16 7 -34 16 -41 24 -21 42 7 49
75 20 216 25 296 25 420 0 228 -33 388 -127 625 -61 155 -178 386 -198 394
-22 8 -21 8 -34 -8z"/>
<path d="M17474 24290 c19 -610 76 -1164 171 -1666 20 -103 33 -189 31 -192
-3 -3 -40 29 -83 69 -43 41 -89 83 -102 94 l-24 20 8 -25 c18 -63 200 -540
254 -668 92 -216 196 -442 272 -589 38 -73 65 -133 61 -133 -4 0 -88 73 -187
161 -99 89 -191 171 -204 183 -82 72 441 -633 703 -948 161 -193 489 -553 470
-516 -5 8 -69 110 -144 225 -300 462 -507 841 -700 1280 -58 132 -229 578
-224 584 2 2 54 -44 116 -102 61 -59 113 -105 115 -104 1 2 -43 160 -98 353
-209 724 -297 1159 -409 2009 -12 88 -24 162 -27 165 -3 3 -2 -87 1 -200z"/>
<path d="M16652 23860 c-39 -323 -41 -523 -7 -800 l6 -45 -16 35 c-52 113
-145 496 -176 727 -7 51 -14 91 -16 90 -10 -11 -18 -219 -17 -452 1 -346 28
-557 105 -833 31 -110 119 -345 126 -338 2 2 -5 57 -17 123 -12 65 -30 168
-40 228 -11 61 -31 177 -45 259 -14 82 -24 157 -23 165 2 9 16 -20 32 -64 78
-218 188 -463 304 -680 95 -178 193 -347 199 -342 2 3 -32 172 -77 377 -44
205 -79 374 -77 376 2 2 25 -36 52 -84 111 -199 265 -417 452 -637 100 -118
449 -495 458 -495 6 0 2 8 -112 241 -326 664 -554 1254 -727 1888 -25 90 -47
166 -50 169 -11 11 3 -439 18 -558 18 -146 47 -306 82 -442 13 -53 24 -100 24
-105 -1 -18 -68 101 -131 232 -130 272 -205 505 -274 850 l-42 210 -11 -95z"/>
<path d="M23648 23945 c-3 -6 -9 -37 -13 -70 -11 -98 -62 -331 -104 -481 -49
-174 -117 -353 -191 -509 -56 -118 -119 -230 -120 -210 0 6 14 80 31 165 57
294 79 473 95 785 3 72 7 134 8 139 0 5 -4 11 -11 13 -7 3 -15 -8 -19 -24 -19
-84 -92 -340 -140 -494 -149 -481 -361 -1007 -625 -1548 -66 -134 -118 -246
-116 -247 9 -9 499 543 619 696 79 102 224 322 292 443 27 48 51 86 53 83 2
-2 -7 -55 -21 -118 -69 -307 -136 -631 -133 -635 8 -8 149 238 241 422 100
200 161 339 241 545 27 68 50 119 52 113 2 -6 -23 -168 -57 -360 -33 -191 -63
-361 -66 -378 -7 -44 47 82 91 210 69 207 111 418 136 685 14 157 3 679 -15
697 -1 2 -10 -52 -20 -120 -29 -212 -75 -413 -137 -602 -38 -116 -66 -181 -54
-125 24 118 33 637 14 792 -12 100 -23 146 -31 133z"/>
<path d="M19325 23259 c-78 -18 -175 -61 -195 -86 -79 -101 15 -223 265 -343
143 -68 324 -110 475 -110 113 0 143 36 100 120 -44 87 -147 162 -290 212 -59
21 -260 38 -260 22 0 -5 37 -16 83 -25 170 -33 300 -122 332 -226 6 -21 3 -23
-31 -23 -48 0 -331 82 -411 120 -79 37 -149 84 -170 116 -57 88 159 165 337
120 138 -35 241 -99 497 -315 73 -61 136 -111 139 -111 4 0 46 38 95 84 185
177 349 286 497 333 136 42 289 24 356 -42 26 -27 19 -64 -18 -100 -94 -88
-405 -205 -547 -205 -43 0 -46 7 -23 56 39 83 156 154 325 200 l94 25 -104 -6
c-185 -9 -302 -55 -403 -157 -57 -58 -87 -119 -74 -153 9 -25 75 -48 135 -46
183 4 447 89 596 191 56 39 132 126 146 167 14 43 -3 78 -56 115 -94 66 -237
91 -365 64 -159 -33 -295 -121 -530 -339 l-135 -125 -122 119 c-294 286 -528
396 -738 348z"/>
<path d="M22254 21634 c-9 -21 -24 -59 -35 -83 -18 -42 -18 -44 -2 -57 10 -7
23 -14 29 -14 10 0 37 180 28 189 -2 2 -11 -13 -20 -35z"/>
<path d="M17731 15149 c-232 -28 -379 -106 -443 -236 l-33 -68 -3 -1307 -2
-1308 435 0 435 0 0 1051 0 1050 57 -61 c31 -34 109 -105 172 -159 158 -131
1111 -861 1126 -861 13 0 870 671 1084 849 63 52 147 125 187 163 39 37 74 68
78 68 3 0 6 -472 6 -1050 l0 -1050 450 0 450 0 0 1293 c0 1064 -2 1302 -14
1339 -54 180 -281 289 -606 291 -124 1 -209 -16 -290 -56 -25 -12 -328 -247
-673 -522 -346 -275 -638 -508 -651 -517 -22 -17 -29 -11 -646 493 -343 281
-644 521 -669 533 -121 61 -288 85 -450 65z"/>
<path d="M10670 14831 c0 -263 2 -300 16 -305 9 -3 407 -6 885 -6 l869 0 0
-1145 0 -1145 455 0 455 0 0 1145 0 1145 1368 2 1367 3 3 303 2 302 -2710 0
-2710 0 0 -299z"/>
<path d="M24180 15114 c-73 -20 -126 -52 -182 -112 -53 -56 -79 -104 -102
-183 -15 -50 -16 -170 -14 -1175 l3 -1119 24 -60 c41 -103 154 -193 283 -225
30 -7 713 -10 2178 -8 2091 3 2136 3 2190 23 75 26 159 110 185 185 19 52 20
90 23 788 l3 732 -1526 0 -1525 0 0 -285 0 -285 1090 0 1090 0 0 -277 0 -278
-1560 3 -1560 2 0 840 0 840 2259 0 c1243 0 2266 3 2275 6 14 5 16 42 16 305
l0 299 -2547 -1 c-2210 0 -2555 -2 -2603 -15z"/>
<path d="M16081 12979 c-247 -48 -411 -204 -411 -389 0 -172 139 -316 365
-375 72 -19 234 -22 308 -5 28 7 93 32 143 55 70 34 103 57 142 100 168 183
100 439 -148 558 -123 58 -277 80 -399 56z"/>
<path d="M22685 12974 c-196 -42 -340 -160 -380 -309 -16 -59 -17 -75 -6 -129
7 -33 23 -79 36 -101 82 -142 275 -237 485 -237 278 -1 505 157 527 365 27
264 -328 485 -662 411z"/>
<path d="M19240 11214 c-164 -25 -244 -59 -314 -134 -73 -78 -91 -126 -91
-240 0 -79 4 -103 24 -142 34 -70 92 -130 159 -166 79 -42 118 -56 297 -103
236 -62 280 -94 272 -191 -5 -60 -41 -108 -104 -139 -41 -20 -63 -24 -148 -24
-91 0 -104 3 -152 29 -70 38 -131 131 -133 200 0 17 -6 18 -88 12 -48 -4 -97
-9 -108 -11 -10 -2 -32 -4 -47 -4 -27 -1 -28 -3 -22 -38 47 -279 234 -423 548
-423 328 0 527 157 527 415 0 188 -93 313 -284 382 -23 8 -108 32 -190 54
-238 63 -296 96 -296 171 0 44 22 73 73 100 36 19 58 23 147 23 80 0 112 -4
136 -17 45 -25 83 -73 97 -125 l12 -45 105 6 c58 3 118 6 134 6 l29 0 -6 55
c-13 129 -113 259 -234 305 -93 36 -257 56 -343 44z"/>
<path d="M26515 11209 c-239 -35 -375 -169 -375 -369 0 -87 26 -159 81 -223
74 -86 148 -120 403 -188 185 -50 242 -77 263 -127 19 -45 12 -93 -21 -142
-34 -52 -100 -82 -191 -88 -167 -11 -265 52 -309 198 l-13 45 -49 0 c-62 0
-207 -14 -213 -21 -9 -8 29 -144 54 -199 78 -164 253 -254 492 -255 252 0 418
83 496 248 30 62 32 75 32 172 0 99 -2 110 -33 172 -64 130 -154 184 -432 258
-192 50 -234 66 -271 101 -22 21 -29 36 -29 66 0 79 67 124 196 131 144 8 225
-38 254 -144 12 -43 13 -44 55 -44 23 0 84 3 135 7 l92 6 -6 56 c-19 158 -134
280 -310 325 -73 19 -221 27 -301 15z"/>
<path d="M12832 10528 l3 -663 133 -2 132 -2 0 664 0 665 -135 0 -135 0 2
-662z"/>
<path d="M13725 11168 c-3 -13 -4 -311 -3 -663 l3 -640 125 0 125 0 5 424 5
424 255 -413 c140 -227 260 -419 267 -426 9 -9 51 -13 143 -13 l130 0 0 665 0
664 -125 0 -125 0 -2 -436 -3 -435 -207 338 c-114 186 -234 381 -266 433 l-59
95 -131 3 c-130 3 -132 2 -137 -20z"/>
<path d="M15430 10525 l0 -667 328 5 c353 4 387 9 502 64 200 97 311 374 280
701 -26 277 -144 459 -345 534 -57 21 -79 22 -412 26 l-353 4 0 -667z m678
402 c123 -64 164 -193 151 -472 -9 -198 -47 -283 -148 -332 -54 -27 -63 -28
-233 -31 l-178 -4 0 437 0 437 178 -4 c171 -3 179 -4 230 -31z"/>
<path d="M17141 10738 c1 -303 5 -480 14 -534 39 -254 231 -377 565 -361 177
8 283 49 369 142 23 25 50 63 58 83 43 101 46 129 50 635 l5 487 -135 0 -135
0 -4 -472 c-3 -425 -5 -477 -21 -513 -41 -92 -105 -128 -227 -128 -96 -1 -154
19 -204 69 -62 62 -61 54 -64 572 l-3 472 -135 0 -134 0 1 -452z"/>
<path d="M20360 11075 l0 -115 195 0 195 0 2 -547 3 -548 133 -2 132 -2 0 549
0 550 198 2 197 3 3 113 3 112 -531 0 -530 0 0 -115z"/>
<path d="M21960 10525 l0 -666 133 3 132 3 3 279 2 279 87 -7 c146 -10 153
-16 383 -358 l132 -196 159 -1 c87 -1 159 1 159 4 0 8 -176 290 -232 372 -48
69 -137 162 -188 194 l-25 16 60 17 c186 54 278 171 278 356 0 110 -26 180
-94 254 -55 61 -113 90 -210 105 -36 6 -221 11 -421 11 l-358 0 0 -665z m733
416 c67 -35 97 -166 51 -227 -52 -70 -108 -83 -366 -84 l-148 0 0 168 0 167
217 -5 c161 -4 225 -9 246 -19z"/>
<path d="M23660 10526 l0 -664 133 1 132 2 3 663 2 662 -135 0 -135 0 0 -664z"/>
<path d="M24550 10525 l0 -665 505 0 505 0 0 115 0 115 -370 0 -370 0 0 180 0
180 335 0 335 0 0 109 c0 90 -3 110 -16 115 -9 3 -159 6 -335 6 l-319 0 0 140
0 140 358 2 357 3 3 113 3 112 -496 0 -495 0 0 -665z"/>
</g>
</svg>
