<svg width="124" height="124" viewBox="0 0 124 124" fill="none" xmlns="http://www.w3.org/2000/svg">
<path d="M78.2647 32.4659C81.8492 28.8821 87.6849 28.8821 91.2694 32.4659C94.8539 36.0498 94.8539 41.8845 91.2694 45.4683C89.1931 47.5444 86.3517 48.484 83.4666 48.0688C83.3355 48.047 83.1825 48.047 83.0513 48.0688C82.1989 47.9596 81.3028 48.0688 80.4504 48.4622C79.2483 49.0085 78.3959 50.0137 77.9806 51.1719C77.5653 52.3083 77.5871 53.5976 78.1336 54.7558C81.2154 61.4209 79.7947 69.3972 74.5928 74.5981C69.3909 79.7991 61.4132 81.2196 54.7469 78.1383C53.5448 77.592 52.2552 77.5701 51.0968 78.0072C49.9603 78.4224 48.9986 79.2747 48.4522 80.4547C48.1025 81.2196 47.9713 82.0062 48.015 82.7929C47.9932 82.9459 47.9932 83.0989 48.015 83.2519C48.4959 86.1801 47.5342 89.174 45.4359 91.2719C41.8515 94.8557 36.0157 94.8557 32.4312 91.2719C30.6827 89.5236 29.7428 87.2291 29.7428 84.7597C29.7428 82.3122 30.7045 79.9958 32.4312 78.2476C34.5076 76.1715 37.349 75.2319 40.2341 75.6471C40.2778 75.6471 40.3215 75.6471 40.387 75.6471C40.693 75.7126 40.999 75.7564 41.3269 75.7564C42.0044 75.7564 42.682 75.6252 43.3158 75.3193C44.4961 74.773 45.3267 73.8114 45.7638 72.697C46.2009 71.5388 46.2009 70.2276 45.6327 69.0257C42.5509 62.3606 43.9715 54.3843 49.1734 49.1833C54.3753 43.9824 62.353 42.5619 69.0193 45.6432C70.1996 46.1895 71.511 46.2113 72.6475 45.7961C73.7841 45.3809 74.7676 44.5287 75.314 43.3486C75.7293 42.4308 75.8386 41.4474 75.6856 40.5078V40.4859C75.2048 37.5576 76.1665 34.5638 78.2647 32.4659ZM69.1723 69.1786C73.1502 65.2014 73.1502 58.7549 69.1723 54.7776C65.1944 50.8004 58.7467 50.8004 54.7688 54.7776C50.7908 58.7549 50.7908 65.2014 54.7688 69.1786C58.7467 73.1559 65.1944 73.1559 69.1723 69.1786ZM61.894 0.451538C95.8812 0.451538 123.443 28.0079 123.443 61.9891C123.443 95.9702 95.9031 123.548 61.894 123.548C27.885 123.548 0.345581 95.9921 0.345581 61.9891C0.345581 27.9861 27.9069 0.451538 61.894 0.451538ZM94.7009 48.8992C100.143 43.4579 100.143 34.6512 94.7009 29.2098C89.2586 23.7685 80.4504 23.7685 75.0081 29.2098C72.9972 31.2203 71.7296 33.7115 71.205 36.312C61.3476 32.597 50.0259 34.9571 42.4853 42.4964C34.9447 50.0356 32.5842 61.3553 36.3217 71.2328C33.6989 71.7573 31.2072 73.0247 29.1746 75.0571C23.7322 80.4984 23.7322 89.3051 29.1746 94.7464C34.6169 100.188 43.4251 100.188 48.8674 94.7464C50.9001 92.7141 52.1897 90.1792 52.6924 87.5569C55.7523 88.6932 58.9434 89.2614 62.1126 89.2614C69.1723 89.2614 76.1446 86.5298 81.3246 81.3507C88.8215 73.8552 91.2039 62.601 87.5538 52.7453C90.1547 52.199 92.6683 50.9315 94.7009 48.8992Z" fill="#474DFF"/>
</svg>
