<svg width="93" height="94" viewBox="0 0 93 94" fill="none" xmlns="http://www.w3.org/2000/svg">
<rect x="30.5683" y="28.2991" width="31.8633" height="41.1005" rx="5" stroke="currentColor" stroke-width="2"/>
<path d="M50.6804 19.3368H55.6861V28.181H50.6804V19.3368Z" stroke="currentColor" stroke-width="2"/>
<line x1="37.9685" y1="28.1808" x2="37.9685" y2="69.4035" stroke="currentColor"/>
<line x1="51.9093" y1="28.1808" x2="51.9093" y2="69.4035" stroke="currentColor"/>
<line x1="35.9073" y1="28.1808" x2="35.9073" y2="69.4035" stroke="currentColor"/>
<line x1="49.8481" y1="28.1808" x2="49.8481" y2="69.4035" stroke="currentColor"/>
<line x1="40.0297" y1="28.1808" x2="40.0297" y2="69.4035" stroke="currentColor"/>
<line x1="53.9703" y1="28.1808" x2="53.9703" y2="69.4035" stroke="currentColor"/>
<line x1="42.0907" y1="28.1808" x2="42.0907" y2="69.4035" stroke="currentColor"/>
<line x1="56.0315" y1="28.1808" x2="56.0315" y2="69.4035" stroke="currentColor"/>
<line x1="44.1519" y1="28.1808" x2="44.1519" y2="69.4035" stroke="currentColor"/>
<line x1="58.0927" y1="28.1808" x2="58.0927" y2="69.4035" stroke="currentColor"/>
<line x1="50.8893" y1="18.8367" x2="55.6861" y2="18.8367" stroke="currentColor"/>
<line x1="50.8893" y1="24.9827" x2="55.6861" y2="24.9827" stroke="currentColor"/>
</svg>
