<?xml version="1.0" encoding="utf-8"?>
<!-- Generator: Adobe Illustrator 23.1.0, SVG Export Plug-In . SVG Version: 6.00 Build 0)  -->
<svg version="1.0" id="图层_1" xmlns="http://www.w3.org/2000/svg" xmlns:xlink="http://www.w3.org/1999/xlink" x="0px" y="0px"
	 viewBox="0 0 93 94" style="enable-background:new 0 0 93 94;" xml:space="preserve">
<style type="text/css">
	.st0{fill:none;stroke:#000000;stroke-miterlimit:2;}
	.st1{fill:none;stroke:#000000;stroke-width:0.75;stroke-miterlimit:2;}
	.st2{fill-rule:evenodd;clip-rule:evenodd;fill:#231815;}
	.st3{fill:#231815;}
</style>
<line class="st0" x1="38.1" y1="91" x2="28" y2="91"/>
<line class="st0" x1="38.5" y1="90.3" x2="38.5" y2="90.3"/>
<line class="st0" x1="36.3" y1="90.3" x2="35.2" y2="90.3"/>
<line class="st0" x1="30.9" y1="90.3" x2="29.8" y2="90.3"/>
<line class="st0" x1="27.6" y1="90.3" x2="27.6" y2="90.3"/>
<line class="st0" x1="18.5" y1="88.5" x2="74.7" y2="88.5"/>
<line class="st0" x1="17.4" y1="87.4" x2="75.8" y2="87.4"/>
<line class="st0" x1="16.7" y1="84.9" x2="17.1" y2="84.9"/>
<line class="st0" x1="76" y1="84.9" x2="76.5" y2="84.9"/>
<line class="st0" x1="16.6" y1="25.5" x2="16.6" y2="84.8"/>
<line class="st0" x1="17.3" y1="1.9" x2="17.3" y2="25.2"/>
<line class="st0" x1="17.3" y1="85" x2="17.3" y2="87.4"/>
<line class="st0" x1="27.6" y1="88.5" x2="27.6" y2="90.3"/>
<line class="st0" x1="27.6" y1="88.5" x2="27.6" y2="90.3"/>
<line class="st0" x1="29.8" y1="88.5" x2="29.8" y2="90.3"/>
<line class="st0" x1="30.9" y1="88.5" x2="30.9" y2="90.3"/>
<line class="st0" x1="35.2" y1="88.5" x2="35.2" y2="90.3"/>
<line class="st0" x1="16.7" y1="25.4" x2="17.1" y2="25.4"/>
<line class="st0" x1="76" y1="25.4" x2="76.5" y2="25.4"/>
<line class="st0" x1="36.3" y1="88.5" x2="36.3" y2="90.3"/>
<line class="st0" x1="38.5" y1="88.5" x2="38.5" y2="90.3"/>
<line class="st0" x1="38.5" y1="88.5" x2="38.5" y2="90.3"/>
<line class="st0" x1="43.8" y1="81.2" x2="43.8" y2="29.1"/>
<line class="st0" x1="49.3" y1="29.1" x2="49.3" y2="81.2"/>
<line class="st0" x1="75.8" y1="2.3" x2="17.3" y2="2.3"/>
<line class="st0" x1="18.5" y1="0.7" x2="74.7" y2="0.7"/>
<line class="st0" x1="75.8" y1="87.4" x2="75.8" y2="85"/>
<line class="st0" x1="75.8" y1="25.2" x2="75.8" y2="1.9"/>
<line class="st0" x1="76.6" y1="25.5" x2="76.6" y2="84.8"/>
<path class="st0" d="M40.4,84.7c-5.7,0-11.3,0-17,0.1"/>
<path class="st0" d="M28,91c0,1.1,0.7,2.1,1.8,2.4h6.5c1.1-0.3,1.8-1.3,1.8-2.4"/>
<path class="st0" d="M38.1,91c0.3-0.1,0.5-0.4,0.5-0.7"/>
<path class="st0" d="M27.6,90.3c0,0.3,0.2,0.6,0.5,0.7"/>
<path class="st0" d="M36.3,90.3C36.3,90.3,36.3,90.3,36.3,90.3"/>
<path class="st0" d="M29.8,90.3C29.8,90.3,29.8,90.3,29.8,90.3"/>
<path class="st0" d="M36.3,90.3C36.3,90.3,36.3,90.3,36.3,90.3"/>
<line class="st0" x1="16.6" y1="84.8" x2="16.6" y2="84.8"/>
<path class="st0" d="M23.4,25.6c5.7,0,11.3,0,17,0.1"/>
<path class="st0" d="M69.8,84.7c-5.7,0-11.3,0-17-0.1"/>
<path class="st0" d="M52.8,25.6c5.7,0,11.3,0,17-0.1"/>
<line class="st0" x1="76.6" y1="25.5" x2="76.6" y2="25.5"/>
<polyline class="st0" points="30.9,90.3 30.9,90.3 30.9,90.3 30.9,90.4 30.9,90.4 30.9,90.4 30.9,90.4 30.9,90.4 30.9,90.5 
	30.9,90.5 30.9,90.5 31,90.5 31,90.5 31,90.6 31,90.6 31,90.6 31.1,90.6 31.1,90.6 31.1,90.6 31.2,90.7 31.2,90.7 31.2,90.7 
	31.2,90.7 31.3,90.7 31.3,90.8 31.4,90.8 31.4,90.8 31.5,90.8 31.5,90.8 31.6,90.8 31.7,90.9 31.7,90.9 31.8,90.9 31.8,90.9 
	31.9,90.9 32,90.9 32.1,90.9 32.1,90.9 32.2,90.9 32.4,90.9 32.4,90.9 32.6,91 32.7,91 32.7,91 32.9,91 33,91 33.1,91 "/>
<polyline class="st0" points="28.7,91 28.7,91 28.8,91 28.8,91 28.9,91 29,91 29,90.9 29,90.9 29.1,90.9 29.1,90.9 29.2,90.9 
	29.2,90.9 29.2,90.9 29.3,90.9 29.3,90.9 29.3,90.9 29.4,90.9 29.4,90.9 29.4,90.8 29.4,90.8 29.4,90.8 29.5,90.8 29.5,90.8 
	29.5,90.8 29.5,90.8 29.6,90.8 29.6,90.7 29.6,90.7 29.6,90.7 29.6,90.7 29.7,90.7 29.7,90.6 29.7,90.6 29.7,90.6 29.7,90.6 
	29.7,90.6 29.7,90.5 29.8,90.5 29.8,90.5 29.8,90.5 29.8,90.5 29.8,90.4 29.8,90.4 29.8,90.4 29.8,90.4 29.8,90.3 "/>
<polyline class="st0" points="27.6,90.3 27.6,90.3 27.6,90.3 27.6,90.4 27.6,90.4 27.6,90.4 27.6,90.4 27.6,90.5 27.6,90.5 
	27.6,90.5 27.7,90.5 27.7,90.6 27.7,90.6 27.7,90.6 27.7,90.6 27.7,90.6 27.7,90.7 27.8,90.7 27.8,90.7 27.8,90.7 27.8,90.7 
	27.8,90.7 27.8,90.8 27.9,90.8 27.9,90.8 27.9,90.8 27.9,90.8 27.9,90.8 28,90.8 28,90.8 28,90.9 28.1,90.9 28.1,90.9 28.1,90.9 
	28.1,90.9 28.2,90.9 28.2,90.9 28.2,90.9 28.3,90.9 28.3,90.9 28.4,90.9 28.4,90.9 28.4,91 28.5,91 28.5,91 28.6,91 28.7,91 
	28.7,91 "/>
<polyline class="st0" points="37.4,91 37.4,91 37.5,91 37.6,91 37.6,91 37.7,91 37.7,90.9 37.8,90.9 37.8,90.9 37.8,90.9 37.9,90.9 
	37.9,90.9 38,90.9 38,90.9 38,90.9 38,90.9 38.1,90.9 38.1,90.9 38.1,90.8 38.1,90.8 38.2,90.8 38.2,90.8 38.2,90.8 38.2,90.8 
	38.3,90.8 38.3,90.8 38.3,90.7 38.3,90.7 38.3,90.7 38.3,90.7 38.4,90.7 38.4,90.7 38.4,90.6 38.4,90.6 38.4,90.6 38.4,90.6 
	38.4,90.6 38.5,90.5 38.5,90.5 38.5,90.5 38.5,90.5 38.5,90.4 38.5,90.4 38.5,90.4 38.5,90.4 38.5,90.3 38.5,90.3 38.5,90.3 "/>
<polyline class="st0" points="36.3,90.3 36.3,90.4 36.3,90.4 36.3,90.4 36.3,90.4 36.3,90.5 36.3,90.5 36.4,90.5 36.4,90.5 
	36.4,90.5 36.4,90.6 36.4,90.6 36.4,90.6 36.4,90.6 36.4,90.7 36.5,90.7 36.5,90.7 36.5,90.7 36.5,90.7 36.5,90.7 36.5,90.8 
	36.6,90.8 36.6,90.8 36.6,90.8 36.6,90.8 36.7,90.8 36.7,90.8 36.7,90.8 36.7,90.9 36.8,90.9 36.8,90.9 36.8,90.9 36.8,90.9 
	36.9,90.9 36.9,90.9 37,90.9 37,90.9 37,90.9 37.1,90.9 37.1,90.9 37.2,91 37.2,91 37.3,91 37.3,91 37.4,91 37.4,91 "/>
<polyline class="st0" points="33.1,91 33.1,91 33.2,91 33.4,91 33.4,91 33.5,91 33.7,90.9 33.8,90.9 33.9,90.9 34,90.9 34,90.9 
	34.1,90.9 34.2,90.9 34.3,90.9 34.3,90.9 34.4,90.9 34.4,90.9 34.5,90.8 34.6,90.8 34.6,90.8 34.7,90.8 34.7,90.8 34.8,90.8 
	34.8,90.7 34.9,90.7 34.9,90.7 34.9,90.7 35,90.7 35,90.6 35,90.6 35,90.6 35.1,90.6 35.1,90.6 35.1,90.6 35.1,90.5 35.1,90.5 
	35.2,90.5 35.2,90.5 35.2,90.5 35.2,90.4 35.2,90.4 35.2,90.4 35.2,90.4 35.2,90.4 35.2,90.3 35.2,90.3 35.2,90.3 "/>
<polyline class="st0" points="16.6,25.5 16.6,25.5 16.6,25.5 16.6,25.5 16.6,25.5 16.6,25.5 16.6,25.5 16.6,25.5 16.6,25.4 
	16.6,25.4 16.6,25.4 16.7,25.4 16.7,25.4 16.7,25.4 16.7,25.4 "/>
<polyline class="st0" points="16.7,84.9 16.7,84.9 16.7,84.9 16.7,84.9 16.6,84.8 16.6,84.8 16.6,84.8 16.6,84.8 16.6,84.8 
	16.6,84.8 16.6,84.8 16.6,84.8 16.6,84.8 16.6,84.8 16.6,84.8 "/>
<polyline class="st0" points="17.3,87.4 17.3,87.4 17.3,87.4 17.3,87.4 17.3,87.4 17.3,87.4 17.3,87.4 17.3,87.4 17.3,87.4 
	17.3,87.4 17.4,87.4 "/>
<polyline class="st0" points="18.4,88.5 18.3,88.4 18.2,88.3 18.1,88.2 18,88.1 17.9,88 17.8,87.9 17.7,87.8 17.6,87.6 17.5,87.5 
	17.4,87.4 "/>
<polyline class="st0" points="18.4,88.5 18.4,88.5 18.4,88.5 18.4,88.5 18.4,88.5 18.4,88.5 18.4,88.5 18.4,88.5 18.4,88.5 
	18.5,88.5 18.5,88.5 "/>
<polyline class="st0" points="74.7,88.5 74.7,88.5 74.7,88.5 74.7,88.5 74.7,88.5 74.7,88.5 74.7,88.5 74.8,88.5 74.8,88.5 
	74.8,88.5 74.8,88.5 "/>
<polyline class="st0" points="74.8,88.5 74.9,88.4 75,88.3 75.1,88.2 75.2,88.1 75.3,88 75.4,87.9 75.5,87.8 75.6,87.6 75.7,87.5 
	75.8,87.4 "/>
<polyline class="st0" points="75.8,87.4 75.8,87.4 75.8,87.4 75.8,87.4 75.8,87.4 75.8,87.4 75.8,87.4 75.8,87.4 75.8,87.4 
	75.8,87.4 75.8,87.4 "/>
<polyline class="st0" points="76.6,84.8 76.6,84.8 76.6,84.8 76.6,84.8 76.6,84.8 76.6,84.8 76.6,84.8 76.6,84.8 76.5,84.8 
	76.5,84.8 76.5,84.8 76.5,84.9 76.5,84.9 76.5,84.9 76.5,84.9 "/>
<polyline class="st0" points="76.5,25.4 76.5,25.4 76.5,25.4 76.5,25.4 76.5,25.4 76.5,25.4 76.5,25.4 76.6,25.5 76.6,25.5 
	76.6,25.5 76.6,25.5 76.6,25.5 76.6,25.5 76.6,25.5 76.6,25.5 "/>
<polyline class="st0" points="75.8,1.9 75.8,1.9 75.8,1.9 75.8,1.9 75.8,1.9 75.8,1.8 75.8,1.8 75.8,1.8 75.8,1.8 75.8,1.8 
	75.8,1.8 "/>
<polyline class="st0" points="74.8,0.8 74.9,0.9 75,1 75.1,1.1 75.2,1.2 75.3,1.3 75.4,1.4 75.5,1.5 75.6,1.6 75.7,1.7 75.8,1.8 "/>
<polyline class="st0" points="74.8,0.8 74.8,0.8 74.8,0.8 74.8,0.8 74.7,0.8 74.7,0.8 74.7,0.8 74.7,0.8 74.7,0.8 74.7,0.7 
	74.7,0.7 "/>
<polyline class="st0" points="18.5,0.7 18.5,0.7 18.4,0.8 18.4,0.8 18.4,0.8 18.4,0.8 18.4,0.8 18.4,0.8 18.4,0.8 18.4,0.8 
	18.4,0.8 "/>
<polyline class="st0" points="18.4,0.8 18.3,0.9 18.2,1 18.1,1.1 18,1.2 17.9,1.3 17.8,1.4 17.7,1.5 17.6,1.6 17.5,1.7 17.4,1.8 "/>
<polyline class="st0" points="17.4,1.8 17.3,1.8 17.3,1.8 17.3,1.8 17.3,1.8 17.3,1.8 17.3,1.9 17.3,1.9 17.3,1.9 17.3,1.9 
	17.3,1.9 "/>
<polyline class="st0" points="75.8,25.2 75.8,25.3 75.8,25.3 75.8,25.3 75.8,25.3 75.8,25.3 75.9,25.3 75.9,25.3 75.9,25.3 
	75.9,25.4 75.9,25.4 75.9,25.4 75.9,25.4 75.9,25.4 75.9,25.4 75.9,25.4 76,25.4 76,25.4 76,25.4 76,25.4 76,25.4 76,25.4 76,25.4 
	"/>
<polyline class="st0" points="76,84.9 76,84.9 76,84.9 76,84.9 76,84.9 76,84.9 76,84.9 75.9,84.9 75.9,84.9 75.9,84.9 75.9,84.9 
	75.9,84.9 75.9,84.9 75.9,84.9 75.9,84.9 75.9,85 75.9,85 75.8,85 75.8,85 75.8,85 75.8,85 75.8,85 75.8,85 "/>
<polyline class="st0" points="17.3,85 17.3,85 17.3,85 17.3,85 17.3,85 17.3,85 17.3,85 17.3,85 17.3,84.9 17.3,84.9 17.3,84.9 
	17.3,84.9 17.3,84.9 17.3,84.9 17.2,84.9 17.2,84.9 17.2,84.9 17.2,84.9 17.2,84.9 17.2,84.9 17.2,84.9 17.2,84.9 17.1,84.9 "/>
<polyline class="st0" points="17.1,25.4 17.2,25.4 17.2,25.4 17.2,25.4 17.2,25.4 17.2,25.4 17.2,25.4 17.2,25.4 17.2,25.4 
	17.3,25.4 17.3,25.4 17.3,25.4 17.3,25.4 17.3,25.4 17.3,25.3 17.3,25.3 17.3,25.3 17.3,25.3 17.3,25.3 17.3,25.3 17.3,25.3 
	17.3,25.3 17.3,25.2 "/>
<polyline class="st0" points="23.4,87.4 23.4,87.4 23.4,87.4 23.4,87.4 23.4,87.4 23.4,87.4 23.4,87.4 23.4,87.4 23.4,87.4 
	23.4,87.4 23.4,87.4 23.4,87.4 "/>
<polyline class="st0" points="69.8,87.4 69.8,87.4 69.8,87.4 69.8,87.4 69.8,87.4 69.8,87.4 69.8,87.4 69.8,87.4 69.8,87.4 
	69.8,87.4 69.8,87.4 69.8,87.4 "/>
<polyline class="st0" points="69.8,1.9 69.8,1.9 69.8,1.9 69.8,1.9 69.8,1.9 69.8,1.9 69.8,1.8 69.8,1.8 69.8,1.8 69.8,1.8 
	69.8,1.8 69.8,1.8 "/>
<polyline class="st0" points="23.4,1.9 23.4,1.9 23.4,1.9 23.4,1.9 23.4,1.9 23.4,1.9 23.4,1.8 23.4,1.8 23.4,1.8 23.4,1.8 
	23.4,1.8 23.4,1.8 "/>
<polyline class="st0" points="16.7,25.4 16.7,25.4 16.7,25.4 16.7,25.4 16.7,25.4 16.7,25.4 16.7,25.5 16.7,25.5 16.7,25.5 
	16.7,25.5 16.7,25.5 16.7,25.5 "/>
<polyline class="st0" points="17.3,85 17.3,85 17.3,85 17.3,85 17.3,85 17.4,85 17.4,85 17.4,85 17.4,85 17.5,85 17.5,85 17.6,85 
	17.6,85 17.7,84.9 17.8,84.9 17.9,84.9 18,84.9 18.1,84.9 18.3,84.9 18.3,84.9 18.5,84.9 18.7,84.9 18.8,84.9 19,84.8 19.3,84.8 
	19.5,84.8 19.7,84.8 "/>
<polyline class="st0" points="19.7,84.8 19.7,84.8 19.8,84.8 19.8,84.8 19.8,84.8 19.8,84.8 19.8,84.8 19.8,84.8 19.8,84.8 
	19.8,84.8 19.9,84.8 "/>
<polyline class="st0" points="19.9,84.8 19.9,84.8 20,84.8 20.1,84.8 20.2,84.8 20.3,84.8 20.4,84.8 20.6,84.8 20.7,84.8 20.8,84.8 
	20.9,84.8 21,84.8 "/>
<polyline class="st0" points="21,84.8 21,84.8 21,84.8 21.1,84.8 21.1,84.8 21.1,84.8 21.1,84.8 21.1,84.8 21.1,84.8 21.1,84.8 
	21.1,84.8 "/>
<polyline class="st0" points="21.1,84.8 21.2,84.8 21.4,84.8 21.7,84.8 21.8,84.8 22,84.7 22.2,84.7 22.5,84.7 22.7,84.7 22.9,84.7 
	23.1,84.7 23.4,84.7 "/>
<polyline class="st0" points="23.4,25.6 22.7,25.5 22.1,25.5 21.6,25.5 21,25.5 20.6,25.5 20,25.5 19.5,25.5 19.1,25.5 19,25.5 
	18.7,25.4 18.3,25.4 18.3,25.4 18,25.4 18,25.4 17.8,25.4 17.7,25.3 17.6,25.3 17.5,25.3 17.4,25.3 17.4,25.3 17.4,25.3 17.4,25.3 
	17.4,25.3 17.3,25.3 17.3,25.3 17.3,25.2 "/>
<polyline class="st0" points="75.8,25.2 75.8,25.3 75.8,25.3 75.8,25.3 75.8,25.3 75.8,25.3 75.7,25.3 75.7,25.3 75.6,25.3 
	75.6,25.3 75.5,25.3 75.4,25.4 75.2,25.4 75.1,25.4 74.9,25.4 74.8,25.4 74.5,25.4 74.1,25.5 74.1,25.5 73.6,25.5 73.2,25.5 
	72.8,25.5 72.2,25.5 71.6,25.5 71,25.5 70.4,25.5 69.8,25.6 "/>
<polyline class="st0" points="69.8,84.7 70,84.7 70.2,84.7 70.4,84.7 70.5,84.7 70.7,84.7 70.9,84.7 71.1,84.7 71.4,84.8 71.6,84.8 
	71.8,84.8 72,84.8 "/>
<polyline class="st0" points="72,84.8 72,84.8 72.1,84.8 72.1,84.8 72.1,84.8 72.1,84.8 72.1,84.8 72.1,84.8 72.1,84.8 72.1,84.8 
	72.1,84.8 "/>
<polyline class="st0" points="72.1,84.8 72.2,84.8 72.3,84.8 72.5,84.8 72.5,84.8 72.6,84.8 72.7,84.8 72.8,84.8 73,84.8 73.1,84.8 
	73.2,84.8 73.3,84.8 "/>
<polyline class="st0" points="73.3,84.8 73.3,84.8 73.3,84.8 73.4,84.8 73.4,84.8 73.4,84.8 73.4,84.8 73.4,84.8 73.4,84.8 
	73.4,84.8 73.4,84.8 "/>
<polyline class="st0" points="73.4,84.8 73.5,84.8 73.7,84.8 74,84.8 74.2,84.8 74.4,84.9 74.7,84.9 74.9,84.9 74.9,84.9 75,84.9 
	75.2,84.9 75.3,84.9 75.4,84.9 75.5,84.9 75.5,85 75.6,85 75.7,85 75.7,85 75.7,85 75.8,85 75.8,85 75.8,85 75.8,85 75.8,85 
	75.8,85 75.8,85 75.8,85 "/>
<polyline class="st0" points="16.6,25.5 16.6,25.5 16.6,25.5 16.6,25.5 16.6,25.5 16.6,25.5 16.6,25.5 16.6,25.5 16.6,25.5 
	16.7,25.5 16.7,25.5 16.7,25.6 16.7,25.6 16.7,25.6 16.7,25.6 "/>
<polyline class="st0" points="76.5,84.9 76.5,84.9 76.5,84.8 76.5,84.8 76.5,84.8 76.5,84.8 76.5,84.8 76.5,84.8 76.5,84.8 
	76.5,84.8 76.5,84.8 76.5,84.8 "/>
<polyline class="st0" points="43.8,29.1 43.8,29 43.8,28.9 43.8,28.7 43.8,28.6 43.8,28.5 43.8,28.4 43.8,28.3 43.7,28.2 43.7,28.1 
	43.7,28 43.6,27.9 43.6,27.8 43.5,27.7 43.5,27.5 43.4,27.4 43.4,27.3 43.3,27.2 43.3,27.1 43.2,27.1 43.1,27 43.1,26.9 43,26.8 
	42.9,26.7 42.8,26.6 42.7,26.5 42.7,26.5 42.6,26.4 42.5,26.3 42.4,26.3 42.3,26.2 42.2,26.1 42.1,26.1 42,26 41.9,26 41.8,25.9 
	41.7,25.9 41.6,25.8 41.5,25.8 41.4,25.8 41.3,25.7 41.1,25.7 41,25.7 41,25.7 40.8,25.6 40.7,25.6 40.6,25.6 40.5,25.6 40.4,25.6 
	"/>
<polyline class="st0" points="40.4,84.7 40.5,84.7 40.6,84.7 40.7,84.7 40.8,84.6 41,84.6 41,84.6 41.1,84.6 41.3,84.6 41.4,84.5 
	41.5,84.5 41.6,84.5 41.7,84.4 41.8,84.4 41.9,84.3 42,84.3 42.1,84.2 42.2,84.1 42.3,84.1 42.4,84 42.5,84 42.6,83.9 42.7,83.8 
	42.7,83.7 42.8,83.7 42.9,83.6 43,83.5 43.1,83.4 43.1,83.3 43.2,83.2 43.3,83.1 43.3,83 43.4,82.9 43.4,82.8 43.5,82.7 43.5,82.6 
	43.6,82.5 43.6,82.4 43.7,82.3 43.7,82.2 43.7,82.1 43.8,82 43.8,81.9 43.8,81.8 43.8,81.7 43.8,81.5 43.8,81.4 43.8,81.3 
	43.8,81.2 "/>
<polyline class="st0" points="49.3,81.2 49.3,81.3 49.3,81.4 49.3,81.5 49.4,81.7 49.4,81.8 49.4,81.9 49.4,82 49.4,82.1 49.5,82.2 
	49.5,82.3 49.5,82.4 49.6,82.5 49.6,82.6 49.7,82.7 49.7,82.8 49.8,82.9 49.9,83 49.9,83.1 50,83.2 50,83.3 50.1,83.4 50.2,83.5 
	50.3,83.6 50.3,83.7 50.4,83.7 50.5,83.8 50.6,83.9 50.7,84 50.8,84 50.9,84.1 50.9,84.1 51,84.2 51.2,84.3 51.3,84.3 51.4,84.4 
	51.5,84.4 51.6,84.5 51.7,84.5 51.8,84.5 51.9,84.6 52,84.6 52.1,84.6 52.2,84.6 52.3,84.6 52.4,84.7 52.6,84.7 52.7,84.7 
	52.8,84.7 "/>
<polyline class="st0" points="52.8,25.6 52.7,25.6 52.6,25.6 52.4,25.6 52.3,25.6 52.2,25.7 52.1,25.7 52,25.7 51.9,25.7 51.8,25.8 
	51.7,25.8 51.6,25.8 51.5,25.9 51.4,25.9 51.3,26 51.2,26 51,26.1 50.9,26.1 50.9,26.2 50.8,26.3 50.7,26.3 50.6,26.4 50.5,26.5 
	50.4,26.5 50.3,26.6 50.3,26.7 50.2,26.8 50.1,26.9 50,27 50,27.1 49.9,27.1 49.9,27.2 49.8,27.3 49.7,27.4 49.7,27.5 49.6,27.7 
	49.6,27.8 49.5,27.9 49.5,28 49.5,28.1 49.4,28.2 49.4,28.3 49.4,28.4 49.4,28.5 49.4,28.6 49.3,28.7 49.3,28.9 49.3,29 49.3,29.1 
	"/>
<polyline class="st0" points="74.7,0.8 74.7,0.8 74.7,0.8 74.7,0.8 74.7,0.8 74.7,0.8 74.7,0.8 74.7,0.8 74.7,0.8 74.7,0.8 
	74.7,0.8 74.7,0.7 "/>
<polyline class="st0" points="18.5,88.5 18.5,88.5 18.5,88.5 18.5,88.5 18.5,88.5 18.5,88.5 18.5,88.5 18.5,88.5 18.5,88.5 
	18.5,88.5 18.5,88.5 18.5,88.5 "/>
<g>
	<path d="M54.3,79h0.3v1.9c0,0.6,0.3,0.9,0.7,0.9c0.4,0,0.7-0.3,0.7-0.9V79h0.3v1.9c0,0.8-0.4,1.2-0.9,1.2s-0.9-0.4-0.9-1.2V79z"/>
	<path d="M59,79.9h-0.3c-0.1-0.4-0.4-0.6-0.9-0.6c-0.6,0-1,0.5-1,1.3s0.4,1.3,1,1.3c0.5,0,0.9-0.4,1-1.1h-1.1v-0.2h1.3v0.2
		c0,0.8-0.5,1.4-1.2,1.4c-0.7,0-1.3-0.6-1.3-1.5c0-0.9,0.5-1.5,1.3-1.5C58.4,78.9,58.8,79.3,59,79.9z"/>
	<path d="M61,79.7c-0.1-0.3-0.2-0.6-0.5-0.6c-0.5,0-0.7,0.4-0.7,1.4c0.1-0.4,0.4-0.6,0.7-0.6c0.5,0,0.8,0.4,0.8,1c0,0.5-0.3,1-0.8,1
		c-0.8,0-0.9-0.7-0.9-1.6c0-1,0.3-1.6,0.9-1.6c0.5,0,0.7,0.4,0.8,0.8H61z M59.8,80.9c0,0.4,0.2,0.8,0.7,0.8c0.4,0,0.6-0.3,0.6-0.8
		c0-0.5-0.2-0.8-0.6-0.8C60.1,80.2,59.8,80.4,59.8,80.9z"/>
	<path d="M63.3,78.9v0.2l-1,2.9H62l1-2.8h-1.4v-0.3H63.3z"/>
</g>
<g>
	<g>
		<path class="st2" d="M39,12.3c0.2,0,0.4,0.1,0.6,0.2l0.4-0.7l-0.6-0.6c-0.2-0.2-0.5-0.2-0.7,0l-2.2,2.2c-0.1,0.1-0.1,0.2-0.1,0.3
			h1.3C37.7,12.8,38.2,12.3,39,12.3"/>
	</g>
	<g>
		<g>
			<path class="st2" d="M39,12.7c-0.5,0-1,0.4-1,1c0,0.5,0.4,1,1,1c0.5,0,1-0.4,1-1C40,13.1,39.5,12.7,39,12.7 M39.4,13.8
				c-0.1,0-0.2-0.1-0.2-0.2c0-0.1,0.1-0.2,0.2-0.2c0.1,0,0.2,0.1,0.2,0.2C39.6,13.7,39.5,13.8,39.4,13.8"/>
		</g>
	</g>
	<g>
		<path class="st2" d="M39.6,14.8C39.4,14.9,39.2,15,39,15c-0.7,0-1.3-0.6-1.4-1.3h-1.3c0,0.1,0.1,0.2,0.1,0.3l2.2,2.2
			c0.2,0.2,0.5,0.2,0.7,0l0.6-0.6L39.6,14.8z"/>
	</g>
	<g>
		<path class="st2" d="M41.6,13.3l-1.4-1.4l-0.4,0.7c0.3,0.2,0.6,0.7,0.6,1.1c0,0.5-0.2,0.9-0.6,1.1l0.4,0.7l1.4-1.4
			C41.8,13.8,41.8,13.5,41.6,13.3"/>
	</g>
	<g>
		<path class="st3" d="M45.6,15.1h-0.3v-1.8c0-0.1,0-0.3,0-0.5h0c0,0.1-0.1,0.2-0.1,0.3l-0.9,2.1h-0.2L43.2,13
			c0-0.1-0.1-0.2-0.1-0.3h0c0,0.1,0,0.3,0,0.5v1.8h-0.3v-2.8h0.4l0.8,1.9c0.1,0.1,0.1,0.3,0.1,0.3h0c0.1-0.2,0.1-0.3,0.1-0.3
			l0.9-1.9h0.4V15.1z"/>
	</g>
	<g>
		<path class="st3" d="M46.2,12.7c-0.1,0-0.1,0-0.1-0.1c0,0-0.1-0.1-0.1-0.1c0-0.1,0-0.1,0.1-0.1c0,0,0.1-0.1,0.1-0.1
			c0.1,0,0.1,0,0.1,0.1c0,0,0.1,0.1,0.1,0.1c0,0.1,0,0.1-0.1,0.1C46.3,12.7,46.3,12.7,46.2,12.7 M46.4,15.1h-0.3v-2h0.3V15.1z"/>
	</g>
	<g>
		<rect x="46.8" y="12.2" class="st3" width="0.3" height="2.9"/>
	</g>
	<g>
		<path class="st3" d="M49.2,14.2h-1.4c0,0.2,0.1,0.4,0.2,0.5c0.1,0.1,0.3,0.2,0.5,0.2c0.2,0,0.4-0.1,0.6-0.2V15
			c-0.2,0.1-0.4,0.2-0.7,0.2c-0.3,0-0.5-0.1-0.7-0.3c-0.2-0.2-0.2-0.4-0.2-0.8c0-0.3,0.1-0.6,0.3-0.7c0.2-0.2,0.4-0.3,0.6-0.3
			c0.3,0,0.5,0.1,0.6,0.2c0.1,0.2,0.2,0.4,0.2,0.7V14.2z M48.8,14c0-0.2,0-0.3-0.1-0.4c-0.1-0.1-0.2-0.2-0.4-0.2
			c-0.1,0-0.3,0.1-0.4,0.2c-0.1,0.1-0.2,0.2-0.2,0.4H48.8z"/>
	</g>
	<g>
		<path class="st3" d="M49.3,15.1v-0.3c0.2,0.1,0.4,0.2,0.6,0.2c0.3,0,0.4-0.1,0.4-0.3c0-0.1,0-0.1,0-0.1c0,0-0.1-0.1-0.1-0.1
			c0,0-0.1-0.1-0.1-0.1c-0.1,0-0.1,0-0.2-0.1c-0.1,0-0.2-0.1-0.2-0.1c-0.1,0-0.1-0.1-0.2-0.1c0,0-0.1-0.1-0.1-0.2c0-0.1,0-0.1,0-0.2
			c0-0.1,0-0.2,0.1-0.2c0-0.1,0.1-0.1,0.2-0.2c0.1,0,0.2-0.1,0.2-0.1c0.1,0,0.2,0,0.3,0c0.2,0,0.3,0,0.5,0.1v0.3
			c-0.1-0.1-0.3-0.1-0.5-0.1c-0.1,0-0.1,0-0.2,0c0,0-0.1,0-0.1,0.1c0,0-0.1,0.1-0.1,0.1c0,0,0,0.1,0,0.1c0,0.1,0,0.1,0,0.1
			c0,0,0,0.1,0.1,0.1c0,0,0.1,0.1,0.1,0.1c0.1,0,0.1,0,0.2,0.1c0.1,0,0.2,0.1,0.2,0.1c0.1,0,0.1,0.1,0.2,0.1c0,0,0.1,0.1,0.1,0.2
			c0,0.1,0,0.1,0,0.2c0,0.1,0,0.2-0.1,0.3c0,0.1-0.1,0.1-0.2,0.2c-0.1,0-0.2,0.1-0.2,0.1c-0.1,0-0.2,0-0.3,0
			C49.7,15.2,49.5,15.1,49.3,15.1"/>
	</g>
	<g>
		<path class="st3" d="M51.1,12.7c-0.1,0-0.1,0-0.1-0.1c0,0-0.1-0.1-0.1-0.1c0-0.1,0-0.1,0.1-0.1c0,0,0.1-0.1,0.1-0.1
			c0.1,0,0.1,0,0.1,0.1c0,0,0.1,0.1,0.1,0.1c0,0.1,0,0.1-0.1,0.1C51.2,12.7,51.1,12.7,51.1,12.7 M51.2,15.1h-0.3v-2h0.3V15.1z"/>
	</g>
	<g>
		<path class="st3" d="M53.4,15c0,0.7-0.3,1.1-1,1.1c-0.2,0-0.5,0-0.6-0.1v-0.3c0.2,0.1,0.4,0.2,0.6,0.2c0.5,0,0.7-0.3,0.7-0.8v-0.2
			h0c-0.1,0.3-0.4,0.4-0.7,0.4c-0.2,0-0.4-0.1-0.6-0.3c-0.1-0.2-0.2-0.4-0.2-0.7c0-0.3,0.1-0.6,0.2-0.8c0.2-0.2,0.4-0.3,0.7-0.3
			c0.3,0,0.5,0.1,0.6,0.3h0v-0.3h0.3V15z M53.1,14.2V14c0-0.2-0.1-0.3-0.2-0.4c-0.1-0.1-0.2-0.2-0.4-0.2c-0.2,0-0.3,0.1-0.5,0.2
			c-0.1,0.1-0.2,0.3-0.2,0.6c0,0.2,0.1,0.4,0.2,0.5c0.1,0.1,0.2,0.2,0.4,0.2c0.2,0,0.3-0.1,0.4-0.2C53,14.6,53.1,14.4,53.1,14.2"/>
	</g>
	<g>
		<path class="st3" d="M55.4,15.1h-0.3V14c0-0.4-0.2-0.6-0.5-0.6c-0.2,0-0.3,0.1-0.4,0.2c-0.1,0.1-0.2,0.3-0.2,0.5v1.1h-0.3v-2.9
			h0.3v1.3h0c0.2-0.2,0.4-0.4,0.6-0.4c0.4,0,0.7,0.3,0.7,0.8V15.1z"/>
	</g>
	<g>
		<path class="st3" d="M56.7,15.1c-0.1,0-0.2,0.1-0.3,0.1c-0.3,0-0.5-0.2-0.5-0.6v-1.2h-0.3v-0.3h0.3v-0.5l0.3-0.1v0.6h0.5v0.3h-0.5
			v1.1c0,0.1,0,0.2,0.1,0.3c0,0.1,0.1,0.1,0.2,0.1c0.1,0,0.1,0,0.2-0.1V15.1z"/>
	</g>
</g>
</svg>
