<?xml version="1.0" encoding="utf-8"?>
<!-- Generator: Adobe Illustrator 23.1.0, SVG Export Plug-In . SVG Version: 6.00 Build 0)  -->
<svg version="1.0" id="图层_1" xmlns="http://www.w3.org/2000/svg" xmlns:xlink="http://www.w3.org/1999/xlink" x="0px" y="0px"
	 viewBox="0 0 93 94" style="enable-background:new 0 0 93 94;" xml:space="preserve">
<style type="text/css">
	.st0{fill:none;stroke:#000000;stroke-miterlimit:2;}
	.st1{fill:none;stroke:#000000;stroke-width:0.75;stroke-miterlimit:2;}
	.st2{fill-rule:evenodd;clip-rule:evenodd;fill:#231815;}
	.st3{fill:#231815;}
</style>
<polyline class="st0" points="4.3,68.9 4.3,69.2 4.3,69.5 4.3,69.8 4.3,70 4.4,70.3 4.4,70.5 4.4,70.8 4.4,70.8 4.4,71.1 4.5,71.3 
	4.5,71.5 4.5,71.7 4.6,71.9 4.6,72.1 4.6,72.3 4.7,72.5 4.7,72.6 "/>
<polyline class="st0" points="5.6,31.6 5.5,31.7 5.4,31.8 "/>
<line class="st0" x1="71.3" y1="30.7" x2="71.3" y2="30.7"/>
<line class="st0" x1="69.8" y1="30.1" x2="71.6" y2="30.1"/>
<line class="st0" x1="71.3" y1="30.7" x2="71.3" y2="30.7"/>
<line class="st0" x1="71.3" y1="30.7" x2="71.3" y2="30.7"/>
<line class="st0" x1="71.3" y1="30.7" x2="71.3" y2="30.7"/>
<line class="st0" x1="69.8" y1="30.1" x2="8.2" y2="30.1"/>
<line class="st0" x1="72.2" y1="30.6" x2="72.3" y2="30.6"/>
<line class="st0" x1="72.2" y1="30.6" x2="72.3" y2="30.6"/>
<line class="st0" x1="72.3" y1="30.6" x2="72.8" y2="30.6"/>
<line class="st0" x1="75" y1="30.9" x2="75" y2="31"/>
<line class="st0" x1="75" y1="30.9" x2="75" y2="31"/>
<line class="st0" x1="75" y1="30.9" x2="75" y2="30.9"/>
<line class="st0" x1="69.5" y1="31" x2="70.6" y2="32.1"/>
<line class="st0" x1="75" y1="31" x2="76" y2="32.1"/>
<polyline class="st0" points="76.3,31.8 76.2,31.7 76,31.5 75.8,31.3 75.5,31.1 75.2,31 75,30.9 "/>
<path class="st0" d="M5.5,31.7C5.5,31.8,5.5,31.8,5.5,31.7"/>
<path class="st0" d="M5.5,31.8c0,0-0.1,0.1-0.1,0.1"/>
<path class="st0" d="M5.5,31.7c0,0-0.1,0.1-0.1,0.1"/>
<path class="st0" d="M5.6,31.6C5.6,31.7,5.6,31.7,5.6,31.6"/>
<path class="st0" d="M70.7,32.1c0,0-0.1,0-0.1,0"/>
<path class="st0" d="M73.1,30.6c-0.1,0-0.2,0-0.2,0"/>
<path class="st0" d="M71.3,30.7c0,0-0.1,0-0.1,0"/>
<path class="st0" d="M71.3,30.7c0,0-0.1,0-0.1,0"/>
<path class="st0" d="M72.2,30.6c-0.3,0-0.6,0-0.9,0"/>
<path class="st0" d="M72.2,30.6c-0.3,0-0.6,0-0.9,0"/>
<path class="st0" d="M72.8,30.6c-0.2,0-0.4,0-0.5,0"/>
<path class="st0" d="M72.8,30.7c-0.2,0-0.4,0-0.5,0"/>
<path class="st0" d="M72.3,30.6C72.3,30.6,72.2,30.6,72.3,30.6"/>
<path class="st0" d="M76.3,31.8C76.3,31.8,76.2,31.8,76.3,31.8"/>
<path class="st0" d="M76.2,31.7C76.2,31.7,76.2,31.7,76.2,31.7"/>
<path class="st0" d="M76,31.5C76,31.5,76,31.5,76,31.5"/>
<path class="st0" d="M75.8,31.3C75.8,31.3,75.7,31.3,75.8,31.3"/>
<path class="st0" d="M75.7,31.2C75.7,31.2,75.6,31.2,75.7,31.2"/>
<path class="st0" d="M75.2,31c-0.1,0-0.1,0-0.2,0"/>
<polyline class="st0" points="75,30.9 74.9,30.9 74.8,30.9 74.6,30.9 74.5,30.8 74.3,30.8 74.2,30.8 74,30.8 73.9,30.7 73.7,30.7 
	73.6,30.7 73.4,30.7 73.3,30.7 73.1,30.7 73,30.6 72.8,30.6 "/>
<polyline class="st0" points="69.4,30.9 69.4,30.9 69.6,30.9 69.7,30.9 69.8,30.8 70,30.8 70.1,30.8 70.2,30.8 70.4,30.8 70.5,30.7 
	70.6,30.7 70.8,30.7 70.9,30.7 71,30.7 71.2,30.7 "/>
<polyline class="st0" points="76,32.2 75.9,32.1 75.6,32.1 75.4,32.1 75.2,32 75,32 74.7,32 74.5,31.9 74.3,31.9 74,31.9 73.8,31.9 
	73.6,31.9 73.4,31.9 73.1,31.9 72.9,31.9 72.7,31.9 72.4,31.9 72.2,31.9 72,31.9 71.8,32 71.5,32 71.3,32 71.1,32.1 70.8,32.1 
	70.7,32.1 "/>
<polyline class="st0" points="75,30.9 75,30.9 75,30.9 75,30.9 75,30.9 75,30.9 75,30.9 75,30.9 75,30.9 75,30.9 75,30.9 75,30.9 
	75,31 75,31 "/>
<polyline class="st0" points="76,32.1 75.8,32.1 75.6,32 75.4,32 75.1,32 74.9,31.9 74.7,31.9 74.4,31.9 74.2,31.8 74,31.8 
	73.7,31.8 73.5,31.8 73.3,31.8 73.1,31.8 72.8,31.8 72.6,31.8 72.4,31.8 72.1,31.9 71.9,31.9 71.7,31.9 71.4,32 71.2,32 71,32 
	70.7,32.1 70.6,32.1 "/>
<polyline class="st0" points="69.5,31 69.5,30.9 69.6,30.9 69.7,30.9 69.9,30.9 70,30.9 70.1,30.8 70.2,30.8 70.4,30.8 70.5,30.8 
	70.6,30.8 70.8,30.7 70.9,30.7 71,30.7 71.2,30.7 "/>
<polyline class="st0" points="72.8,30.7 73,30.7 73.1,30.7 73.3,30.7 73.4,30.7 73.5,30.7 73.7,30.7 73.8,30.7 74,30.8 74.1,30.8 
	74.3,30.8 74.4,30.8 74.6,30.9 74.7,30.9 74.9,30.9 75,30.9 "/>
<polyline class="st0" points="75.2,31 75.2,31 75.2,31 75.3,31 75.3,31 75.3,31 75.3,31 75.4,31.1 75.4,31.1 75.4,31.1 75.4,31.1 
	75.5,31.1 75.5,31.1 75.5,31.1 75.5,31.1 75.5,31.1 75.6,31.2 75.6,31.2 75.6,31.2 75.6,31.2 "/>
<polyline class="st0" points="75.8,31.3 75.8,31.3 75.8,31.3 75.8,31.3 75.8,31.4 75.9,31.4 75.9,31.4 75.9,31.4 75.9,31.4 
	75.9,31.4 75.9,31.4 76,31.4 76,31.5 "/>
<polyline class="st0" points="76,31.5 76,31.5 76,31.5 76.1,31.5 76.1,31.6 76.1,31.6 76.1,31.6 76.1,31.6 76.1,31.6 76.1,31.6 
	76.2,31.7 76.2,31.7 76.2,31.7 "/>
<polyline class="st0" points="76,32.2 76,32.2 76,32.2 76,32.2 76,32.2 76,32.2 76,32.1 76,32.1 76,32.1 76,32.1 76,32.1 76,32.1 
	76,32.1 76,32.1 76,32.1 76,32.1 76,32.1 "/>
<polyline class="st0" points="70.6,32.2 70.6,32.2 70.6,32.2 70.6,32.2 70.6,32.2 70.6,32.2 70.6,32.1 70.6,32.1 70.6,32.1 
	70.6,32.1 70.6,32.1 70.6,32.1 70.6,32.1 70.6,32.1 70.6,32.1 70.6,32.1 70.6,32.1 "/>
<polyline class="st0" points="69.4,30.9 69.4,30.9 69.4,30.9 69.4,30.9 69.4,30.9 69.4,30.9 69.4,30.9 69.4,30.9 69.4,30.9 
	69.4,30.9 69.4,30.9 69.4,30.9 69.4,30.9 69.4,30.9 69.4,30.9 69.5,31 69.5,31 "/>
<polyline class="st0" points="7.3,30.3 7.3,30.3 7.2,30.3 7.2,30.3 7.2,30.3 7.2,30.3 7.2,30.3 7.2,30.3 7.2,30.3 7.2,30.3 
	7.2,30.3 "/>
<polyline class="st0" points="74.5,30.3 74.5,30.3 74.5,30.3 74.5,30.3 74.5,30.3 74.5,30.3 74.5,30.3 74.5,30.3 74.5,30.3 
	74.5,30.3 74.5,30.3 "/>
<polyline class="st0" points="74.5,30.3 74.5,30.3 74.6,30.3 74.6,30.3 74.7,30.3 74.8,30.4 74.8,30.4 74.9,30.4 74.9,30.4 75,30.5 
	75,30.5 75.1,30.5 75.1,30.5 75.2,30.6 75.2,30.6 75.3,30.6 75.3,30.7 75.4,30.7 75.4,30.7 75.4,30.8 75.5,30.8 75.5,30.9 
	75.6,30.9 75.6,31 75.7,31 75.7,31.1 75.8,31.1 75.8,31.2 75.8,31.2 75.9,31.3 75.9,31.3 76,31.4 76,31.5 76.1,31.5 76.1,31.6 "/>
<polyline class="st0" points="7.2,30.3 7.2,30.3 7.1,30.3 7.1,30.3 7.1,30.3 7,30.4 6.9,30.4 6.9,30.4 6.8,30.4 6.8,30.4 6.7,30.5 
	6.7,30.5 6.6,30.5 6.6,30.6 6.5,30.6 6.5,30.6 6.4,30.7 6.4,30.7 6.3,30.8 6.3,30.8 6.2,30.8 6.2,30.9 6.1,30.9 6.1,31 6,31 6,31.1 
	5.9,31.1 5.9,31.2 5.9,31.2 5.8,31.3 5.8,31.3 5.7,31.4 5.7,31.5 5.7,31.5 5.6,31.6 5.6,31.7 5.5,31.7 "/>
<polyline class="st0" points="71.6,30.1 73.5,30.1 73.6,30.1 73.7,30.2 73.7,30.2 73.8,30.2 73.9,30.2 74,30.2 74,30.2 74.1,30.2 
	74.2,30.2 74.3,30.2 74.3,30.3 74.4,30.3 74.5,30.3 "/>
<polyline class="st0" points="8.2,30.1 8.2,30.1 8.1,30.1 8,30.2 8,30.2 7.9,30.2 7.8,30.2 7.8,30.2 7.7,30.2 7.6,30.2 7.5,30.2 
	7.5,30.2 7.4,30.3 7.3,30.3 7.3,30.3 "/>
<polyline class="st0" points="68.8,30.3 68.8,30.3 68.8,30.3 68.8,30.3 68.8,30.3 68.8,30.3 68.8,30.3 68.8,30.3 68.8,30.3 
	68.8,30.3 68.8,30.3 "/>
<polyline class="st0" points="68.8,30.3 68.8,30.3 68.9,30.3 69,30.2 69.1,30.2 69.1,30.2 69.2,30.2 69.3,30.2 69.4,30.2 69.4,30.2 
	69.5,30.2 69.6,30.2 69.7,30.1 69.8,30.1 69.8,30.1 "/>
<line class="st0" x1="4.7" y1="33.6" x2="4.7" y2="33.6"/>
<line class="st0" x1="4.7" y1="33.6" x2="4.7" y2="33.6"/>
<line class="st0" x1="8.3" y1="55.7" x2="8.3" y2="55.7"/>
<line class="st0" x1="8.3" y1="55.7" x2="8.3" y2="55.7"/>
<line class="st0" x1="7.8" y1="50.2" x2="7.8" y2="55.2"/>
<line class="st0" x1="8.6" y1="55.7" x2="8.6" y2="55.6"/>
<line class="st0" x1="8.6" y1="49.9" x2="8.6" y2="49.8"/>
<line class="st0" x1="9.3" y1="55.6" x2="9.3" y2="55.6"/>
<line class="st0" x1="9.3" y1="49.9" x2="9.3" y2="49.8"/>
<line class="st0" x1="9.4" y1="49.8" x2="9.4" y2="49.9"/>
<line class="st0" x1="9.4" y1="55.6" x2="9.4" y2="55.7"/>
<line class="st0" x1="8.3" y1="49.8" x2="8.3" y2="49.8"/>
<line class="st0" x1="8.3" y1="49.8" x2="8.3" y2="49.8"/>
<line class="st0" x1="73.5" y1="75.4" x2="71.7" y2="75.5"/>
<line class="st0" x1="7.3" y1="75.2" x2="68.8" y2="75.2"/>
<line class="st0" x1="68.8" y1="75.2" x2="7.2" y2="75.2"/>
<line class="st0" x1="69.8" y1="75.4" x2="71.8" y2="75.5"/>
<line class="st0" x1="67" y1="68.1" x2="68.6" y2="68.1"/>
<line class="st0" x1="66.1" y1="68.2" x2="4.5" y2="68.2"/>
<line class="st0" x1="62.8" y1="55.7" x2="62.6" y2="55.7"/>
<line class="st0" x1="8.1" y1="55.7" x2="8.3" y2="55.7"/>
<line class="st0" x1="8.2" y1="55.7" x2="8.7" y2="55.7"/>
<line class="st0" x1="62.6" y1="55.7" x2="62.1" y2="55.7"/>
<line class="st0" x1="8.3" y1="55.7" x2="8.6" y2="55.7"/>
<line class="st0" x1="62.9" y1="55.7" x2="8.7" y2="55.7"/>
<line class="st0" x1="61.8" y1="55.7" x2="61.4" y2="55.7"/>
<line class="st0" x1="7.8" y1="55.2" x2="7.8" y2="55.2"/>
<line class="st0" x1="62.6" y1="55.7" x2="63.1" y2="55.8"/>
<line class="st0" x1="8.2" y1="49.8" x2="8.7" y2="49.8"/>
<line class="st0" x1="62.6" y1="55.7" x2="61.8" y2="55.7"/>
<line class="st0" x1="61.8" y1="49.8" x2="62.6" y2="49.8"/>
<line class="st0" x1="62.7" y1="49.8" x2="63.2" y2="49.7"/>
<line class="st0" x1="8.3" y1="49.8" x2="8.1" y2="49.8"/>
<line class="st0" x1="7.8" y1="50.2" x2="7.8" y2="50.2"/>
<line class="st0" x1="8" y1="49.8" x2="63" y2="49.8"/>
<line class="st0" x1="8.7" y1="49.8" x2="61.4" y2="49.8"/>
<line class="st0" x1="62.6" y1="49.8" x2="62.1" y2="49.8"/>
<line class="st0" x1="61.8" y1="49.8" x2="61.4" y2="49.8"/>
<line class="st0" x1="62.1" y1="49.8" x2="61.4" y2="49.8"/>
<line class="st0" x1="62.6" y1="49.8" x2="62.8" y2="49.8"/>
<line class="st0" x1="4.3" y1="37.4" x2="4.5" y2="37.4"/>
<line class="st0" x1="67" y1="37.3" x2="68.6" y2="37.4"/>
<line class="st0" x1="62.6" y1="55.7" x2="62.6" y2="55.7"/>
<line class="st0" x1="62.6" y1="55.7" x2="62.6" y2="55.7"/>
<line class="st0" x1="62.1" y1="55.7" x2="62.1" y2="55.6"/>
<line class="st0" x1="62.1" y1="49.9" x2="62.1" y2="49.8"/>
<line class="st0" x1="62.1" y1="55.6" x2="62.1" y2="55.6"/>
<line class="st0" x1="62.1" y1="49.9" x2="62.1" y2="49.8"/>
<line class="st0" x1="62.9" y1="49.8" x2="62.9" y2="49.9"/>
<line class="st0" x1="62.9" y1="55.6" x2="62.9" y2="55.6"/>
<line class="st0" x1="63.1" y1="55.2" x2="63.1" y2="50.2"/>
<line class="st0" x1="62.6" y1="49.8" x2="62.6" y2="49.8"/>
<line class="st0" x1="62.6" y1="49.8" x2="62.6" y2="49.8"/>
<line class="st0" x1="67.1" y1="35.6" x2="67.1" y2="35.6"/>
<line class="st0" x1="67.1" y1="35.6" x2="67.1" y2="35.6"/>
<line class="st0" x1="77" y1="32.8" x2="76.3" y2="31.8"/>
<polyline class="st0" points="77.3,33.4 77.2,33.1 77,32.9 77,32.8 "/>
<line class="st0" x1="77.4" y1="33.8" x2="77.3" y2="33.4"/>
<polyline class="st0" points="77.8,35.3 77.7,35 77.6,34.6 77.5,34.1 77.4,33.8 "/>
<line class="st0" x1="77.9" y1="68.3" x2="77.9" y2="68"/>
<polyline class="st0" points="77.3,72.1 77.4,71.7 77.5,71.3 77.6,70.9 77.7,70.5 77.8,70.2 "/>
<polyline class="st0" points="77,72.6 77.2,72.4 77.3,72.1 "/>
<polyline class="st0" points="77.8,70.2 77.8,69.6 77.9,69.2 77.9,68.8 77.9,68.3 "/>
<line class="st0" x1="77" y1="72.7" x2="77" y2="72.6"/>
<line class="st0" x1="76.3" y1="73.7" x2="76.3" y2="73.7"/>
<line class="st0" x1="76.3" y1="73.7" x2="77" y2="72.7"/>
<line class="st0" x1="69.5" y1="74.5" x2="70.6" y2="73.4"/>
<path class="st0" d="M66.8,49.8c0,1.9,0,3.9,0,5.8"/>
<path class="st0" d="M66.7,49.8c0,1.9,0,3.9,0,5.8"/>
<path class="st0" d="M4.8,72.3c0.1,0.4,0.7,1.4,0.8,1.5"/>
<path class="st0" d="M5.6,73.8C5.6,73.8,5.6,73.8,5.6,73.8"/>
<path class="st0" d="M77.9,68.1c0,0,0-0.1,0-0.1"/>
<path class="st0" d="M77.9,68.3c0,0,0-0.1,0-0.1"/>
<path class="st0" d="M4.7,72.6C4.7,72.7,4.7,72.7,4.7,72.6"/>
<path class="st0" d="M76.2,73.7C76.2,73.7,76.3,73.7,76.2,73.7"/>
<path class="st0" d="M76.2,73.8C76.2,73.8,76.2,73.7,76.2,73.8"/>
<path class="st0" d="M77,72.6C77,72.6,77,72.6,77,72.6"/>
<path class="st0" d="M76,74C76,74,76,74,76,74"/>
<path class="st0" d="M67,68.1c0,0.2,0,0.4,0,0.6"/>
<path class="st0" d="M67.1,69.8c0,0,0,0.1,0,0.1"/>
<path class="st0" d="M67.1,69.8c0,0.1,0,0.1,0,0.2"/>
<path class="st0" d="M67.1,69.9C67.1,69.9,67.1,70,67.1,69.9"/>
<path class="st0" d="M69,71.3c0,0.1,0,0.1,0,0.2"/>
<path class="st0" d="M70.6,73.3c0,0,0.1,0,0.1,0"/>
<path class="st0" d="M63.4,55.8C63.4,55.8,63.4,55.8,63.4,55.8"/>
<path class="st0" d="M63.3,55.8c-0.1,0-0.2,0-0.3,0"/>
<path class="st0" d="M7.8,55.2C7.8,55.3,7.8,55.3,7.8,55.2"/>
<path class="st0" d="M8,55.6C8,55.6,8,55.6,8,55.6"/>
<path class="st0" d="M8,55.6C8.1,55.7,8.1,55.7,8,55.6"/>
<path class="st0" d="M7.8,50.2C7.8,50.2,7.8,50.2,7.8,50.2"/>
<path class="st0" d="M77.9,37.5c0,0-0.2-2.1-0.2-2.1"/>
<path class="st0" d="M77.8,35.4c0,0,0-0.1,0-0.1"/>
<path class="st0" d="M5,32.8C4.9,32.8,4.9,32.8,5,32.8"/>
<path class="st0" d="M62.8,49.9C62.8,49.9,62.8,49.9,62.8,49.9"/>
<path class="st0" d="M62.8,49.8C62.8,49.8,62.8,49.8,62.8,49.8"/>
<path class="st0" d="M62.8,49.8C62.8,49.8,62.8,49.8,62.8,49.8"/>
<path class="st0" d="M62.8,49.8C62.8,49.8,62.8,49.8,62.8,49.8"/>
<path class="st0" d="M67,36.8c0,0.2,0,0.4,0,0.6"/>
<path class="st0" d="M77.1,33C77.1,33,77.1,33,77.1,33"/>
<path class="st0" d="M77,32.8C77,32.8,76.9,32.7,77,32.8"/>
<path class="st0" d="M4,50.2c0,2,0,3.9,0,5.9"/>
<polyline class="st0" points="63.1,50.1 63.1,50.1 63.1,50.1 63.1,50.1 63.1,50.1 63.1,50 63.1,50 63.1,50 63,50 63,50 63,50 63,50 
	63,50 63,50 63,50 63,50 "/>
<polyline class="st0" points="63,50 63,50 63,50 63,50 63,50 63,49.9 63,49.9 63,49.9 63,49.9 63,49.9 63,49.9 62.9,49.9 62.9,49.9 
	62.9,49.9 62.9,49.9 62.9,49.9 "/>
<polyline class="st0" points="62.9,49.9 62.9,49.9 62.9,49.9 62.9,49.9 62.9,49.9 62.9,49.9 62.9,49.9 62.9,49.9 62.9,49.9 
	62.9,49.9 62.8,49.9 62.8,49.9 62.8,49.9 62.8,49.9 62.8,49.9 62.8,49.9 "/>
<polyline class="st0" points="5.4,31.8 5.4,31.9 5.4,31.9 5.4,31.9 5.3,32 5.3,32 5.3,32.1 5.2,32.1 5.2,32.2 5.2,32.2 5.2,32.3 
	5.1,32.3 5.1,32.4 5.1,32.5 5,32.5 5,32.6 5,32.6 5,32.7 4.9,32.8 4.9,32.8 "/>
<polyline class="st0" points="4.9,32.8 4.9,32.9 4.8,33.1 4.8,33.2 4.7,33.4 4.7,33.6 4.7,33.8 4.6,33.8 4.6,34.1 4.6,34.3 
	4.5,34.5 4.5,34.7 4.4,34.9 4.4,35 4.4,35.3 4.4,35.5 4.3,35.8 4.3,36.1 4.3,36.4 4.3,36.7 4.3,37 4.2,37.3 4.2,37.4 "/>
<polyline class="st0" points="4.3,37.4 4.3,38 4.2,39.3 4.2,40.6 4.2,41.2 4.1,42.5 4.1,43.8 4.1,45.1 4.1,46.3 4.1,47.6 4.1,48.9 
	4,50.2 "/>
<polyline class="st0" points="4,56.1 4,56.7 4.1,58 4.1,59.3 4.1,59.9 4.1,61.2 4.1,62.5 4.1,63.8 4.2,65 4.2,66.3 4.2,67.6 
	4.3,68.9 "/>
<polyline class="st0" points="4.7,72.7 4.7,72.7 4.8,72.8 4.8,72.8 4.8,72.8 4.8,72.9 4.8,72.9 4.8,73 4.8,73 4.8,73.1 4.8,73.1 
	4.9,73.1 "/>
<polyline class="st0" points="5.4,31.9 5.4,31.9 5.3,32 5.3,32 5.3,32.1 5.3,32.1 5.3,32.2 5.2,32.2 5.2,32.3 5.2,32.3 5.2,32.4 
	5.1,32.4 5.1,32.5 5.1,32.5 5.1,32.6 5,32.7 5,32.7 5,32.8 5,32.8 "/>
<polyline class="st0" points="5,32.8 5,32.8 5,32.8 4.9,32.9 4.9,32.9 4.9,32.9 4.9,33 4.9,33 4.9,33 4.9,33.1 4.9,33.1 4.9,33.2 
	"/>
<polyline class="st0" points="4.9,33.2 4.9,33.2 4.8,33.2 4.8,33.3 4.8,33.3 4.8,33.3 4.8,33.4 4.8,33.4 4.8,33.5 4.8,33.5 
	4.7,33.6 4.7,33.6 "/>
<polyline class="st0" points="4.7,33.6 4.7,33.8 4.6,34 4.6,34.2 4.6,34.4 4.5,34.5 4.5,34.8 4.5,35 4.4,35.2 4.4,35.4 4.4,35.5 
	4.4,35.7 4.4,36 4.3,36.3 4.3,36.5 4.3,36.8 4.3,37.1 4.3,37.4 "/>
<polyline class="st0" points="4.3,68.9 4.3,68.9 4.3,68.9 4.3,68.9 4.3,68.9 4.3,68.9 4.3,68.9 4.3,68.9 4.3,68.9 4.3,68.9 
	4.3,68.9 4.2,68.9 "/>
<polyline class="st0" points="4.3,37.4 4.3,37.4 4.3,37.4 4.3,37.4 4.3,37.4 4.3,37.4 4.3,37.4 4.3,37.4 4.3,37.4 4.3,37.4 
	4.3,37.4 4.2,37.4 "/>
<polyline class="st0" points="7.8,50.2 7.8,50.2 7.8,50.2 7.8,50.1 7.8,50.1 7.8,50.1 7.8,50.1 7.8,50.1 7.8,50.1 7.8,50.1 
	7.8,50.1 7.8,50 7.8,50 7.8,50 7.8,50 7.8,50 7.8,50 7.8,50 7.8,50 7.8,50 7.9,50 7.9,50 7.9,49.9 7.9,49.9 7.9,49.9 7.9,49.9 
	7.9,49.9 7.9,49.9 7.9,49.9 7.9,49.9 7.9,49.9 7.9,49.9 8,49.9 8,49.9 8,49.9 8,49.9 8,49.9 8,49.9 8,49.8 8,49.8 "/>
<polyline class="st0" points="8,49.8 8,49.8 8,49.8 8,49.8 8,49.8 8.1,49.8 8.1,49.8 8.1,49.8 8.1,49.8 8.1,49.8 8.1,49.8 8.1,49.8 
	8.1,49.8 "/>
<polyline class="st0" points="8,55.6 8,55.6 8,55.6 8,55.6 8,55.6 8,55.6 8,55.6 8,55.6 7.9,55.6 7.9,55.6 7.9,55.6 7.9,55.6 
	7.9,55.6 7.9,55.6 7.9,55.6 7.9,55.6 7.9,55.5 7.9,55.5 7.9,55.5 7.9,55.5 7.8,55.5 7.8,55.5 7.8,55.5 7.8,55.5 7.8,55.5 7.8,55.5 
	7.8,55.5 7.8,55.5 7.8,55.4 7.8,55.4 7.8,55.4 7.8,55.4 7.8,55.4 7.8,55.4 7.8,55.4 7.8,55.4 7.8,55.3 7.8,55.3 7.8,55.3 7.8,55.3 
	"/>
<polyline class="st0" points="77.9,37.5 78,39 78.1,42.1 78.1,45.1 78.2,56.3 "/>
<polyline class="st0" points="62.8,55.6 62.8,55.6 62.8,55.6 62.8,55.6 62.8,55.6 62.8,55.7 62.8,55.7 62.8,55.7 62.8,55.7 
	62.8,55.7 62.8,55.7 62.8,55.7 62.8,55.7 "/>
<polyline class="st0" points="63.1,55.2 63.1,55.2 63.1,55.3 63.1,55.3 63.1,55.3 63.1,55.3 63.1,55.3 63.1,55.3 63.1,55.3 
	63.1,55.4 63.1,55.4 63.1,55.4 63.1,55.4 63.1,55.4 63.1,55.4 63.1,55.4 63.1,55.4 63.1,55.4 63.1,55.5 63,55.5 63,55.5 63,55.5 
	63,55.5 63,55.5 63,55.5 63,55.5 63,55.5 63,55.5 63,55.6 63,55.6 63,55.6 63,55.6 63,55.6 62.9,55.6 62.9,55.6 62.9,55.6 
	62.9,55.6 62.9,55.6 62.9,55.6 "/>
<polyline class="st0" points="62.9,55.6 62.9,55.6 62.9,55.6 62.9,55.6 62.9,55.6 62.9,55.6 62.9,55.6 62.9,55.6 62.9,55.6 
	62.9,55.6 62.8,55.6 "/>
<polyline class="st0" points="62.8,49.8 62.9,49.8 62.9,49.9 62.9,49.9 62.9,49.9 62.9,49.9 62.9,49.9 62.9,49.9 62.9,49.9 
	62.9,49.9 62.9,49.9 62.9,49.9 62.9,49.9 62.9,49.9 62.9,49.9 63,49.9 63,49.9 63,49.9 63,49.9 63,49.9 63,49.9 63,49.9 63,49.9 
	63,49.9 "/>
<polyline class="st0" points="63,49.9 63,49.9 63,49.9 63,49.9 63,49.9 63,50 63,50 63,50 63,50 63,50 63.1,50 63.1,50 63.1,50 
	63.1,50 63.1,50 63.1,50 63.1,50.1 63.1,50.1 63.1,50.1 63.1,50.1 63.1,50.1 63.1,50.1 63.1,50.1 63.1,50.1 63.1,50.1 63.1,50.1 
	63.1,50.2 63.1,50.2 63.1,50.2 63.1,50.2 63.1,50.2 63.1,50.2 63.1,50.2 "/>
<polyline class="st0" points="66.1,37.3 66.1,37.8 66,38.7 66,39.6 66,40.1 66,41 66,41.9 65.9,42.8 65.9,43.7 65.9,44.6 65.9,45.5 
	65.9,46.4 "/>
<polyline class="st0" points="69.4,74.6 69.4,74.6 69.4,74.6 69.3,74.5 69.3,74.5 69.3,74.5 69.3,74.5 69.2,74.5 69.2,74.5 
	69.2,74.5 69.2,74.5 69.2,74.5 69.1,74.5 69.1,74.5 69.1,74.5 69.1,74.4 69,74.4 69,74.4 69,74.4 69,74.4 "/>
<polyline class="st0" points="67.2,70.7 67.2,70.7 67.2,70.6 67.1,70.6 67.1,70.5 67.1,70.4 67.1,70.4 67.1,70.3 67.1,70.2 
	67.1,70.2 67.1,70.1 67.1,70 "/>
<polyline class="st0" points="67.1,69.8 67,69.7 67,69.6 67,69.4 67,69.3 67,69.1 67,69 67,68.8 67,68.6 67,68.5 67,68.3 67,68.1 
	"/>
<polyline class="st0" points="67,68.1 66.9,67.5 66.9,66.3 66.9,65 66.8,64.4 66.8,63.1 66.8,61.9 66.8,60.6 66.8,59.4 66.7,58.1 
	66.7,56.9 66.7,55.6 "/>
<polyline class="st0" points="66.7,49.8 66.7,49.2 66.7,48 66.7,46.7 66.8,46.1 66.8,44.8 66.8,43.6 66.8,42.3 66.8,41.1 66.9,39.8 
	66.9,38.6 67,37.3 "/>
<polyline class="st0" points="67,37.3 67,37.3 67,37.1 67,36.9 67,36.8 67,36.6 67,36.4 67,36.3 67,36.1 67,35.9 67.1,35.7 
	67.1,35.5 "/>
<polyline class="st0" points="67.1,35.5 67.1,35.5 67.1,35.4 67.1,35.3 67.1,35.3 67.1,35.2 67.1,35.1 67.1,35.1 67.1,35 67.1,34.9 
	67.2,34.8 67.2,34.8 "/>
<polyline class="st0" points="67.2,34.8 67.2,34.7 67.2,34.4 67.3,34.2 67.3,34 67.3,33.8 67.4,33.7 67.4,33.5 67.5,33.3 67.5,33.2 
	67.5,33.1 67.6,32.9 67.6,32.8 67.7,32.7 67.7,32.5 67.8,32.4 67.9,32.3 67.9,32.2 68,32.1 68,32.1 68,32 68.1,31.9 68.2,31.8 
	68.2,31.7 68.3,31.6 68.3,31.6 68.4,31.5 68.4,31.5 68.5,31.4 68.6,31.3 68.6,31.3 68.7,31.3 68.7,31.2 68.8,31.2 68.9,31.1 
	68.9,31.1 69,31.1 69.1,31 69.2,31 69.2,31 69.3,31 69.4,30.9 69.4,30.9 "/>
<polyline class="st0" points="68.7,37.4 68.6,39 68.6,42 68.5,45.1 68.5,46.6 68.5,49.7 68.5,52.7 68.5,55.8 68.5,58.9 68.5,61.9 
	68.6,65 68.7,68.1 "/>
<polyline class="st0" points="70.6,32.2 70.6,32.2 70.5,32.2 70.5,32.2 70.4,32.2 70.4,32.2 70.3,32.3 70.3,32.3 70.2,32.3 
	70.2,32.3 70.1,32.4 70.1,32.4 70,32.4 70,32.4 69.9,32.5 69.9,32.5 69.9,32.6 69.8,32.6 69.8,32.6 69.7,32.7 69.7,32.7 69.7,32.7 
	69.7,32.8 69.6,32.8 69.6,32.9 69.5,32.9 69.5,33 69.5,33 69.5,33.1 69.4,33.1 69.4,33.2 69.4,33.3 69.3,33.4 69.3,33.4 69.3,33.5 
	69.2,33.6 69.2,33.7 69.2,33.8 69.1,33.9 69.1,34 69.1,34.1 69.1,34.1 "/>
<polyline class="st0" points="69.1,34.1 69,34.3 69,34.4 69,34.6 69,34.7 68.9,34.9 68.9,34.9 68.9,35.1 68.9,35.3 68.8,35.5 
	68.8,35.7 68.8,35.7 68.8,36 68.8,36.2 68.7,36.4 68.7,36.7 68.7,36.9 68.7,37.2 68.7,37.4 "/>
<polyline class="st0" points="77.3,33.5 77.3,33.5 77.3,33.5 77.3,33.4 77.3,33.4 77.3,33.4 77.3,33.3 77.2,33.3 77.2,33.2 
	77.2,33.2 77.2,33.2 77.2,33.1 77.2,33.1 77.1,33.1 77.1,33 77.1,33 "/>
<polyline class="st0" points="77.1,33 77.1,32.9 77,32.9 77,32.9 77,32.9 77,32.8 77,32.8 77,32.8 77,32.8 76.9,32.8 76.9,32.7 
	76.9,32.7 76.9,32.7 76.9,32.7 76.9,32.7 76.8,32.6 76.8,32.6 76.8,32.6 76.8,32.6 76.8,32.6 "/>
<polyline class="st0" points="76.8,32.6 76.8,32.6 76.7,32.5 76.7,32.5 76.7,32.5 76.7,32.5 76.6,32.5 76.6,32.4 76.6,32.4 
	76.6,32.4 76.5,32.4 76.5,32.4 76.5,32.4 76.5,32.3 76.4,32.3 76.4,32.3 76.4,32.3 76.3,32.3 76.3,32.3 76.3,32.3 76.3,32.2 
	76.2,32.2 76.2,32.2 76.2,32.2 76.1,32.2 76.1,32.2 76.1,32.2 76,32.2 76,32.2 "/>
<polyline class="st0" points="76,73.3 76.1,73.3 76.1,73.3 76.1,73.3 76.1,73.3 76.2,73.3 76.2,73.3 76.2,73.3 76.3,73.2 76.3,73.2 
	76.3,73.2 76.4,73.2 76.4,73.2 76.4,73.2 76.4,73.2 76.5,73.1 76.5,73.1 76.5,73.1 76.5,73.1 76.6,73.1 76.6,73.1 76.6,73 76.6,73 
	76.7,73 76.7,73 76.7,73 76.7,72.9 76.8,72.9 76.8,72.9 "/>
<polyline class="st0" points="76.8,72.9 76.8,72.9 76.8,72.9 76.8,72.9 76.8,72.8 76.8,72.8 76.9,72.8 76.9,72.8 76.9,72.8 
	76.9,72.8 76.9,72.7 76.9,72.7 76.9,72.7 77,72.7 77,72.7 77,72.6 77,72.6 "/>
<polyline class="st0" points="77.1,72.6 77.1,72.5 77.1,72.5 77.1,72.5 77.1,72.4 77.1,72.4 77.1,72.4 77.2,72.4 77.2,72.3 
	77.2,72.3 77.2,72.3 77.2,72.2 77.2,72.2 77.3,72.1 77.3,72.1 77.3,72.1 77.3,72 77.3,72 "/>
<polyline class="st0" points="77.3,72 77.3,72 77.3,72 77.3,71.9 77.3,71.9 77.4,71.9 77.4,71.9 77.4,71.9 77.4,71.8 77.4,71.8 
	77.4,71.8 77.4,71.8 "/>
<polyline class="st0" points="77.4,71.8 77.4,71.7 77.5,71.6 77.5,71.5 77.5,71.5 77.5,71.4 77.5,71.3 77.6,71.2 77.6,71.1 77.6,71 
	77.6,71 77.6,70.9 77.7,70.8 77.7,70.7 77.7,70.6 "/>
<polyline class="st0" points="70.7,73.3 70.8,73.4 71.1,73.4 71.3,73.5 71.5,73.5 71.8,73.5 72,73.5 72.2,73.6 72.4,73.6 72.7,73.6 
	72.9,73.6 73.1,73.6 73.4,73.6 73.6,73.6 73.8,73.6 74,73.6 74.3,73.6 74.5,73.6 74.7,73.5 75,73.5 75.2,73.5 75.4,73.4 75.6,73.4 
	75.9,73.3 76,73.3 "/>
<polyline class="st0" points="68.7,68.1 68.7,68.1 68.7,68.4 68.7,68.6 68.7,68.9 68.7,69.1 68.8,69.3 68.8,69.6 68.8,69.8 
	68.8,69.9 68.8,70.1 68.9,70.3 68.9,70.4 68.9,70.6 68.9,70.7 69,70.8 69,71 69,71.1 69.1,71.3 69.1,71.4 "/>
<polyline class="st0" points="69.1,71.4 69.1,71.4 69.1,71.5 69.2,71.7 69.2,71.7 69.2,71.8 69.3,71.9 69.3,72 69.3,72.1 69.4,72.2 
	69.4,72.2 69.4,72.3 69.5,72.4 69.5,72.4 69.5,72.5 69.6,72.6 69.6,72.6 69.6,72.7 69.7,72.7 69.7,72.8 69.7,72.8 69.7,72.8 
	69.8,72.9 69.8,72.9 69.9,72.9 69.9,73 70,73 70,73 70,73.1 70.1,73.1 70.1,73.1 70.2,73.2 70.2,73.2 70.3,73.2 70.3,73.2 
	70.4,73.3 70.4,73.3 70.5,73.3 70.5,73.3 70.6,73.3 70.6,73.3 "/>
<polyline class="st0" points="70.6,32.1 70.5,32.1 70.5,32.1 70.4,32.1 70.4,32.2 70.3,32.2 70.3,32.2 70.2,32.2 70.2,32.2 
	70.1,32.3 70.1,32.3 70,32.3 70,32.4 70,32.4 69.9,32.4 69.9,32.5 69.8,32.5 69.8,32.5 69.7,32.6 69.7,32.6 69.7,32.7 69.6,32.7 
	69.6,32.7 69.6,32.8 69.5,32.8 69.5,32.9 69.5,33 69.5,33 69.4,33 69.4,33.1 69.4,33.2 69.3,33.3 69.3,33.3 69.3,33.4 69.2,33.5 
	69.2,33.6 69.2,33.7 69.1,33.8 69.1,33.9 69.1,34 69,34.1 69,34.1 "/>
<polyline class="st0" points="69,34.1 69,34.2 69,34.4 68.9,34.5 68.9,34.7 68.9,34.9 68.9,34.9 68.8,35.1 68.8,35.3 68.8,35.5 
	68.8,35.7 68.8,35.7 68.7,35.9 68.7,36.2 68.7,36.4 68.7,36.6 68.7,36.9 68.7,37.2 68.6,37.4 "/>
<polyline class="st0" points="67,36.8 67,36.7 67,36.6 67.1,36.5 67.1,36.4 67.1,36.3 67.1,36.2 67.1,36 67.1,35.9 67.1,35.8 
	67.1,35.7 67.1,35.6 "/>
<polyline class="st0" points="67.1,35.6 67.2,35.3 67.2,35 67.2,34.8 67.3,34.5 67.3,34.3 67.3,34.1 67.4,33.9 67.4,33.8 67.5,33.6 
	67.5,33.5 67.5,33.3 67.6,33.1 67.6,33 67.7,32.8 67.8,32.7 67.8,32.5 67.9,32.4 67.9,32.4 68,32.2 68,32.1 68.1,32 68.1,31.9 
	68.2,31.8 68.3,31.8 68.3,31.7 68.4,31.6 68.5,31.5 68.5,31.5 68.6,31.4 68.6,31.4 68.7,31.3 68.8,31.2 68.9,31.2 68.9,31.1 
	69,31.1 69.1,31.1 69.2,31 69.3,31 69.3,31 69.4,31 69.5,31 "/>
<polyline class="st0" points="68.6,37.4 68.6,38.9 68.5,42 68.5,45.1 68.4,46.6 68.4,49.7 68.4,52.7 68.4,55.8 68.4,58.9 68.5,61.9 
	68.6,65 68.6,68.1 "/>
<polyline class="st0" points="67,68.1 67,67.5 67,66.3 66.9,65 66.9,64.4 66.9,63.1 66.9,61.9 66.8,60.6 66.8,59.4 66.8,58.1 
	66.8,56.9 66.8,55.6 "/>
<polyline class="st0" points="66.8,49.8 66.8,49.2 66.8,48 66.8,46.7 66.8,46.1 66.8,44.8 66.9,43.6 66.9,42.3 66.9,41.1 66.9,39.8 
	67,38.6 67,37.3 "/>
<polyline class="st0" points="68.6,68.1 68.7,68.3 68.7,68.6 68.7,68.8 68.7,69 68.7,69.3 68.7,69.5 68.8,69.7 68.8,69.8 68.8,70 
	68.8,70.2 68.8,70.3 68.9,70.5 68.9,70.7 68.9,70.9 68.9,71 69,71.2 69,71.3 "/>
<polyline class="st0" points="69,71.5 69.1,71.5 69.1,71.6 69.1,71.7 69.1,71.8 69.2,71.9 69.2,72 69.2,72.1 69.3,72.1 69.3,72.2 
	69.3,72.3 69.4,72.4 69.4,72.4 69.4,72.5 69.5,72.5 69.5,72.6 69.6,72.7 69.6,72.7 69.6,72.8 69.7,72.8 69.7,72.8 69.7,72.9 
	69.7,72.9 69.8,73 69.8,73 69.9,73 69.9,73.1 70,73.1 70,73.1 70,73.2 70.1,73.2 70.1,73.2 70.2,73.2 70.2,73.3 70.3,73.3 
	70.3,73.3 70.4,73.3 70.4,73.3 70.5,73.4 70.5,73.4 70.6,73.4 "/>
<polyline class="st0" points="69.5,74.5 69.4,74.5 69.3,74.5 69.3,74.5 69.2,74.5 69.1,74.4 69,74.4 68.9,74.3 68.9,74.3 68.8,74.2 
	68.7,74.2 68.6,74.1 68.6,74.1 68.5,74 68.5,74 68.4,73.9 68.3,73.8 68.3,73.7 68.2,73.7 68.1,73.6 68.1,73.5 68,73.4 68,73.3 
	67.9,73.2 67.9,73.1 67.8,72.9 67.8,72.8 67.7,72.7 67.6,72.5 67.6,72.4 67.6,72.2 67.5,72.1 67.5,71.9 67.4,71.7 67.4,71.5 
	67.3,71.3 67.3,71.2 67.3,71 67.2,70.8 67.2,70.5 67.2,70.3 67.1,70 67.1,70 "/>
<polyline class="st0" points="67.1,69.8 67.1,69.8 67.1,69.6 67.1,69.5 67.1,69.5 67.1,69.4 67.1,69.3 67.1,69.2 67.1,69 67.1,68.9 
	67,68.8 67,68.7 "/>
<polyline class="st0" points="70.6,73.4 70.7,73.4 71,73.5 71.2,73.5 71.4,73.5 71.7,73.6 71.9,73.6 72.1,73.6 72.4,73.6 72.6,73.7 
	72.8,73.7 73.1,73.7 73.3,73.7 73.5,73.7 73.7,73.7 74,73.7 74.2,73.6 74.4,73.6 74.7,73.6 74.9,73.6 75.1,73.5 75.4,73.5 
	75.6,73.5 75.8,73.4 76,73.4 "/>
<polyline class="st0" points="76,73.4 76,73.4 76.1,73.4 76.1,73.4 76.1,73.3 76.2,73.3 76.2,73.3 76.2,73.3 76.3,73.3 76.3,73.3 
	76.3,73.3 76.4,73.2 76.4,73.2 76.4,73.2 76.5,73.2 76.5,73.2 76.5,73.1 76.6,73.1 76.6,73.1 76.6,73.1 76.7,73.1 76.7,73 76.7,73 
	76.7,73 76.8,73 76.8,72.9 76.8,72.9 76.9,72.9 76.9,72.8 76.9,72.8 76.9,72.8 77,72.7 77,72.7 "/>
<polyline class="st0" points="76.9,32.7 76.9,32.7 76.9,32.7 76.9,32.6 76.8,32.6 76.8,32.6 76.8,32.5 76.8,32.5 76.7,32.5 
	76.7,32.5 76.7,32.4 76.6,32.4 76.6,32.4 76.6,32.4 76.5,32.3 76.5,32.3 76.5,32.3 76.5,32.3 76.4,32.3 76.4,32.3 76.4,32.2 
	76.3,32.2 76.3,32.2 76.3,32.2 76.2,32.2 76.2,32.2 76.2,32.2 76.1,32.1 76.1,32.1 76.1,32.1 76,32.1 76,32.1 "/>
<polyline class="st0" points="76.2,73.8 76.2,73.8 76.2,73.8 76.1,73.8 76.1,73.9 76.1,73.9 76.1,73.9 76.1,73.9 76.1,73.9 
	76.1,73.9 76,74 76,74 76,74 "/>
<polyline class="st0" points="76,74 76,74 76,74 75.9,74.1 75.9,74.1 75.9,74.1 75.9,74.1 75.9,74.1 75.9,74.1 75.9,74.1 75.8,74.1 
	75.8,74.2 75.8,74.2 "/>
<polyline class="st0" points="77.9,37.5 77.9,37.5 77.9,37.5 77.9,37.5 77.9,37.5 77.9,37.5 77.9,37.5 77.9,37.5 77.9,37.5 
	77.9,37.5 77.9,37.5 77.9,37.5 77.9,37.5 77.9,37.5 77.9,37.5 77.9,37.5 "/>
<polyline class="st0" points="77.9,68 77.9,68 77.9,68 77.9,68 77.9,68 77.9,68 77.9,68 77.9,68 77.9,68 77.9,68 77.9,68 77.9,68 
	77.9,68 77.9,68 77.9,68 "/>
<polyline class="st0" points="68.7,37.4 68.7,37.4 68.7,37.4 68.7,37.4 68.7,37.4 68.7,37.4 68.7,37.4 68.7,37.4 68.7,37.4 
	68.7,37.4 68.6,37.4 68.6,37.4 "/>
<polyline class="st0" points="68.7,68.1 68.7,68.1 68.7,68.1 68.7,68.1 68.7,68.1 68.7,68.1 68.7,68.1 68.7,68.1 68.7,68.1 
	68.7,68.1 68.6,68.1 68.6,68.1 "/>
<polyline class="st0" points="70.6,73.3 70.6,73.3 70.6,73.3 70.6,73.3 70.6,73.3 70.6,73.3 70.6,73.3 70.6,73.3 70.6,73.3 
	70.6,73.4 70.6,73.4 70.6,73.4 70.6,73.4 70.6,73.4 70.6,73.4 70.6,73.4 70.6,73.4 "/>
<polyline class="st0" points="76,73.3 76,73.3 76,73.3 76,73.3 76,73.3 76,73.3 76,73.3 76,73.3 76,73.3 76,73.4 76,73.4 76,73.4 
	76,73.4 76,73.4 76,73.4 76,73.4 76,73.4 "/>
<polyline class="st0" points="69.4,74.6 69.4,74.6 69.4,74.6 69.4,74.6 69.4,74.6 69.4,74.6 69.4,74.6 69.4,74.6 69.4,74.6 
	69.4,74.5 69.4,74.5 69.4,74.5 69.4,74.5 69.4,74.5 69.4,74.5 69.5,74.5 69.5,74.5 "/>
<polyline class="st0" points="67,68.1 67,68.1 67,68.1 67,68.1 67,68.1 67,68.1 67,68.1 67,68.1 67,68.1 67,68.1 67,68.1 67,68.1 
	"/>
<polyline class="st0" points="66.7,55.6 66.7,55.6 66.7,55.6 66.7,55.6 66.7,55.6 66.7,55.6 66.7,55.6 66.8,55.6 66.8,55.6 
	66.8,55.6 66.8,55.6 66.8,55.6 "/>
<polyline class="st0" points="66.7,49.8 66.7,49.8 66.7,49.8 66.7,49.8 66.7,49.8 66.7,49.8 66.7,49.8 66.8,49.8 66.8,49.8 
	66.8,49.8 66.8,49.8 66.8,49.8 "/>
<polyline class="st0" points="67,37.3 67,37.3 67,37.3 67,37.3 67,37.3 67,37.3 67,37.3 67,37.3 67,37.3 67,37.3 67,37.3 67,37.3 
	"/>
<polyline class="st0" points="77.9,68 78,66.5 78.1,63.4 78.1,60.4 78.2,56.3 "/>
<polyline class="st0" points="76.1,73.9 76.1,73.9 76,74 76,74.1 75.9,74.1 75.9,74.2 75.8,74.3 75.8,74.3 75.8,74.4 75.7,74.4 
	75.7,74.5 75.6,74.5 75.6,74.6 75.5,74.6 75.5,74.7 75.4,74.7 75.4,74.8 75.4,74.8 75.3,74.8 75.3,74.9 75.2,74.9 75.2,74.9 
	75.1,74.9 75.1,75 75,75 75,75 74.9,75.1 74.9,75.1 74.8,75.1 74.8,75.1 74.7,75.1 74.6,75.2 74.6,75.2 74.5,75.2 74.5,75.2 "/>
<polyline class="st0" points="7,49.7 7.2,49.7 7.3,49.7 7.4,49.7 7.5,49.8 7.6,49.8 7.7,49.8 7.9,49.8 8,49.8 8.1,49.8 8.2,49.8 "/>
<polyline class="st0" points="4.1,46.4 4.1,46.4 4.1,46.5 4.1,46.7 4.1,46.8 4.1,46.9 4.1,47 4.1,47.1 4.2,47.2 4.2,47.3 4.2,47.4 
	4.2,47.5 4.3,47.6 4.3,47.7 4.3,47.8 4.4,47.9 4.4,48 4.5,48.1 4.5,48.2 4.6,48.3 4.6,48.4 4.7,48.4 4.8,48.5 4.8,48.6 4.9,48.7 
	5,48.8 5,48.8 5.1,48.9 5.2,49 5.3,49 5.4,49.1 5.4,49.2 5.5,49.2 5.6,49.3 5.7,49.3 5.8,49.4 5.9,49.4 6,49.5 6.1,49.5 6.2,49.5 
	6.3,49.6 6.3,49.6 6.4,49.6 6.5,49.7 6.6,49.7 6.7,49.7 6.8,49.7 6.9,49.7 7,49.7 "/>
<polyline class="st0" points="7,55.8 6.9,55.8 6.8,55.8 6.7,55.8 6.6,55.8 6.5,55.8 6.4,55.9 6.3,55.9 6.3,55.9 6.2,55.9 6.1,56 
	6,56 5.9,56.1 5.8,56.1 5.7,56.2 5.6,56.2 5.5,56.3 5.4,56.3 5.4,56.4 5.3,56.4 5.2,56.5 5.1,56.6 5,56.7 5,56.7 4.9,56.8 4.8,56.9 
	4.8,57 4.7,57.1 4.7,57.1 4.6,57.2 4.5,57.3 4.5,57.4 4.4,57.5 4.4,57.6 4.3,57.7 4.3,57.8 4.3,57.9 4.3,58 4.2,58.1 4.2,58.2 
	4.2,58.3 4.1,58.4 4.1,58.5 4.1,58.6 4.1,58.8 4.1,58.9 4.1,59 4.1,59.1 4.1,59.1 "/>
<polyline class="st0" points="7,55.8 7.2,55.8 7.3,55.7 7.4,55.7 7.5,55.7 7.6,55.7 7.7,55.7 7.9,55.7 8,55.7 8.1,55.7 8.2,55.7 "/>
<polyline class="st0" points="74.5,75.2 74.5,75.2 74.5,75.2 74.5,75.2 74.5,75.2 74.5,75.2 74.5,75.2 74.5,75.2 74.5,75.2 
	74.5,75.2 74.5,75.2 "/>
<polyline class="st0" points="7.2,75.2 7.2,75.2 7.2,75.2 7.2,75.2 7.2,75.2 7.2,75.2 7.2,75.2 7.2,75.2 7.2,75.2 7.3,75.2 
	7.3,75.2 "/>
<polyline class="st0" points="5.6,73.8 5.6,73.8 5.6,73.9 5.7,74 5.7,74 5.8,74.1 5.8,74.2 5.8,74.2 5.9,74.3 5.9,74.3 5.9,74.4 
	6,74.4 6,74.5 6.1,74.5 6.1,74.6 6.2,74.6 6.2,74.7 6.3,74.7 6.3,74.7 6.4,74.8 6.4,74.8 6.5,74.9 6.5,74.9 6.6,74.9 6.6,75 6.7,75 
	6.7,75 6.8,75 6.8,75.1 6.9,75.1 6.9,75.1 7,75.1 7.1,75.2 7.1,75.2 7.1,75.2 7.2,75.2 7.2,75.2 "/>
<polyline class="st0" points="74.5,75.2 74.5,75.2 74.4,75.2 74.3,75.2 74.2,75.3 74.2,75.3 74.1,75.3 74,75.3 73.9,75.3 73.9,75.3 
	73.8,75.3 73.7,75.3 73.6,75.3 73.5,75.3 73.5,75.4 "/>
<polyline class="st0" points="62.7,55.7 62.7,55.7 62.7,55.7 62.7,55.7 62.7,55.7 62.7,55.7 62.6,55.7 62.6,55.7 62.6,55.7 
	62.6,55.7 62.6,55.7 "/>
<polyline class="st0" points="65.9,46.4 65.9,46.5 65.9,46.6 65.9,46.8 65.8,46.9 65.8,47 65.8,47.1 65.8,47.2 65.7,47.3 65.7,47.4 
	65.7,47.5 65.6,47.6 65.6,47.7 65.6,47.8 65.6,47.9 65.5,48 65.5,48.1 65.4,48.2 65.4,48.3 65.3,48.4 65.2,48.4 65.2,48.5 
	65.1,48.6 65.1,48.7 65,48.8 64.9,48.8 64.9,48.9 64.8,49 64.7,49 64.6,49.1 64.6,49.2 64.5,49.2 64.4,49.3 64.3,49.3 64.2,49.4 
	64.2,49.4 64.1,49.5 64,49.5 63.9,49.5 63.8,49.6 63.7,49.6 63.6,49.6 63.6,49.7 63.5,49.7 63.4,49.7 63.3,49.7 63.2,49.7 63,49.8 
	"/>
<polyline class="st0" points="62.6,49.8 62.6,49.8 62.6,49.8 62.6,49.8 62.6,49.8 62.7,49.8 62.7,49.8 62.7,49.8 62.7,49.8 
	62.7,49.8 62.7,49.8 "/>
<polyline class="st0" points="65.9,59.1 65.9,59 65.9,58.8 65.9,58.8 65.8,58.7 65.8,58.6 65.8,58.5 65.8,58.4 65.8,58.2 65.7,58.1 
	65.7,58 65.7,57.9 65.7,57.9 65.6,57.8 65.6,57.7 65.5,57.6 65.5,57.5 65.4,57.4 65.4,57.3 65.3,57.2 65.3,57.1 65.2,57 65.2,56.9 
	65.1,56.9 65,56.8 65,56.7 64.9,56.6 64.8,56.6 64.8,56.5 64.7,56.4 64.6,56.4 64.5,56.3 64.4,56.2 64.4,56.2 64.3,56.2 64.2,56.1 
	64.2,56.1 64.1,56 64,56 63.9,55.9 63.8,55.9 63.8,55.9 63.7,55.9 63.6,55.8 63.5,55.8 63.4,55.8 "/>
<polyline class="st0" points="65.9,59.1 65.9,59.5 65.9,60.4 65.9,61.3 65.9,61.8 65.9,62.7 66,63.6 66,64.5 66,65.4 66,66.4 
	66,67.3 66.1,68.2 "/>
<polyline class="st0" points="61.4,55.7 61.6,55.7 61.7,55.7 61.8,55.7 61.9,55.7 62,55.7 62.1,55.7 62.2,55.7 62.3,55.7 62.5,55.7 
	62.6,55.7 "/>
<polyline class="st0" points="68.8,75.2 68.8,75.2 68.8,75.2 68.8,75.2 68.8,75.2 68.8,75.2 68.8,75.2 68.8,75.2 68.8,75.2 
	68.8,75.2 68.8,75.2 "/>
<path class="st0" d="M68.8,30.3L68.8,30.3l-0.1,0l-0.1,0l-0.1,0l-0.1,0l-0.1,0l-0.1,0l-0.1,0l-0.1,0l-0.1,0L68,30.7l0,0l-0.1,0.1
	l-0.1,0.1l-0.1,0.1L67.7,31L67.6,31l0,0l-0.1,0.1l-0.1,0.1l-0.1,0.1l-0.1,0.1l-0.1,0.1l-0.1,0.1l-0.1,0.1l-0.1,0.1L67,31.9l0,0.1
	L67,32.1l-0.1,0.1l-0.1,0.1l-0.1,0.1l0,0l-0.1,0.2l-0.1,0.2l0,0.2l0,0.2l0,0.2l0,0.2l0,0.2l0,0.1c0,0,0,0.1,0,0.1l0,0.1l0,0.1l0,0.1
	l0,0.1l0,0.1l0,0.1l0,0.1l0,0l0,0.1l0,0.1l0,0.1l0,0.2l0,0.2l0,0.2l0,0.2l0,0.2l0,0.2l0,0.2l0,0.2l0,0.2l0,0.2l0,0.1H4.5"/>
<polyline class="st0" points="68.8,75.2 68.8,75.2 68.7,75.2 68.6,75.1 68.5,75.1 68.4,75.1 68.4,75 68.3,75 68.2,75 68.1,74.9 
	68.1,74.9 68,74.8 68,74.8 67.9,74.7 67.8,74.7 67.7,74.6 67.7,74.5 67.6,74.5 67.6,74.4 67.5,74.4 67.5,74.3 67.4,74.2 67.3,74.1 
	67.3,74 67.2,73.9 67.2,73.8 67.1,73.7 67,73.6 67,73.5 67,73.4 66.9,73.3 66.8,73.1 66.8,73 66.8,72.9 66.7,72.8 66.7,72.6 
	66.6,72.5 66.6,72.3 66.5,72.1 66.5,71.9 66.4,71.7 66.4,71.6 "/>
<polyline class="st0" points="66.4,71.6 66.4,71.5 66.4,71.3 66.4,71.3 66.3,71.1 66.3,71 66.3,70.9 66.3,70.8 66.3,70.7 66.3,70.5 
	66.2,70.4 66.2,70.3 "/>
<polyline class="st0" points="66.2,70.3 66.2,70.1 66.2,69.9 66.2,69.8 66.2,69.6 66.1,69.4 66.1,69.2 66.1,69 66.1,68.8 66.1,68.6 
	66.1,68.4 66.1,68.2 "/>
<polyline class="st0" points="69.8,75.4 69.8,75.3 69.7,75.3 69.6,75.3 69.6,75.3 69.5,75.3 69.4,75.3 69.3,75.3 69.3,75.3 
	69.2,75.3 69.1,75.3 69,75.2 69,75.2 68.9,75.2 68.8,75.2 "/>
<g>
	<path d="M53.4,57.9h0.2v1.5c0,0.5,0.3,0.7,0.6,0.7c0.4,0,0.6-0.2,0.6-0.7v-1.5h0.2v1.5c0,0.6-0.4,0.9-0.9,0.9
		c-0.5,0-0.9-0.3-0.9-0.9V57.9z"/>
	<path d="M57.8,58.6h-0.3c-0.1-0.3-0.4-0.5-0.8-0.5c-0.5,0-0.9,0.4-0.9,1c0,0.6,0.4,1,0.9,1c0.5,0,0.9-0.3,0.9-0.9h-1v-0.2h1.3v0.2
		c0,0.6-0.5,1.1-1.2,1.1c-0.7,0-1.2-0.5-1.2-1.2c0-0.7,0.5-1.2,1.2-1.2C57.3,57.9,57.7,58.2,57.8,58.6z"/>
	<path d="M59.7,58.5c0-0.3-0.2-0.4-0.5-0.4c-0.4,0-0.7,0.3-0.7,1.1c0.1-0.3,0.4-0.4,0.7-0.4c0.5,0,0.8,0.3,0.8,0.8
		c0,0.4-0.2,0.8-0.8,0.8c-0.7,0-0.9-0.5-0.9-1.2c0-0.8,0.2-1.3,0.9-1.3c0.5,0,0.7,0.3,0.7,0.6H59.7z M58.6,59.5
		c0,0.3,0.2,0.6,0.6,0.6c0.4,0,0.6-0.2,0.6-0.6c0-0.4-0.2-0.6-0.6-0.6C58.9,58.9,58.6,59.1,58.6,59.5z"/>
	<path d="M62,57.9v0.2h-1.2V59c0.1-0.2,0.3-0.3,0.6-0.3c0.6,0,0.8,0.4,0.8,0.8c0,0.5-0.3,0.8-0.8,0.8c-0.5,0-0.8-0.3-0.8-0.7h0.2
		c0.1,0.3,0.3,0.5,0.6,0.5c0.4,0,0.6-0.3,0.6-0.6c0-0.4-0.2-0.6-0.6-0.6c-0.3,0-0.5,0.1-0.6,0.3h-0.2v-1.4H62z"/>
</g>
<g>
	<line class="st1" x1="76.6" y1="57.1" x2="75.6" y2="57.1"/>
	<line class="st1" x1="82.5" y1="56.9" x2="78.3" y2="56.9"/>
	<line class="st1" x1="77.6" y1="56.8" x2="77.4" y2="56.8"/>
	<line class="st1" x1="81.6" y1="55.3" x2="87.7" y2="55.3"/>
	<line class="st1" x1="85.7" y1="55.2" x2="81.5" y2="55.2"/>
	<line class="st1" x1="85.6" y1="55.1" x2="81.5" y2="55.1"/>
	<line class="st1" x1="85.6" y1="54.9" x2="81.4" y2="54.9"/>
	<line class="st1" x1="85.6" y1="51.3" x2="81.4" y2="51.3"/>
	<line class="st1" x1="85.6" y1="51.1" x2="81.5" y2="51.1"/>
	<line class="st1" x1="85.7" y1="51" x2="81.5" y2="51"/>
	<line class="st1" x1="87.4" y1="50.9" x2="81.6" y2="50.9"/>
	<line class="st1" x1="77.6" y1="49.5" x2="77.4" y2="49.5"/>
	<line class="st1" x1="82.5" y1="49.3" x2="78.3" y2="49.3"/>
	<line class="st1" x1="76.6" y1="49.1" x2="75.6" y2="49.1"/>
	<line class="st1" x1="88.7" y1="48.7" x2="82" y2="48.7"/>
	<line class="st1" x1="88.9" y1="48.5" x2="81.8" y2="48.5"/>
	<line class="st1" x1="81.8" y1="47" x2="88.9" y2="47"/>
	<line class="st1" x1="81.8" y1="46.8" x2="89" y2="46.8"/>
	<line class="st1" x1="81.7" y1="46.8" x2="89" y2="46.8"/>
	<line class="st1" x1="81.6" y1="46.6" x2="89.1" y2="46.6"/>
	<line class="st1" x1="89.1" y1="43.5" x2="81.6" y2="43.5"/>
	<line class="st1" x1="89" y1="43.4" x2="81.7" y2="43.4"/>
	<line class="st1" x1="89" y1="43.3" x2="81.8" y2="43.3"/>
	<line class="st1" x1="88.9" y1="43.2" x2="81.8" y2="43.2"/>
	<line class="st1" x1="81.8" y1="38" x2="88.9" y2="38"/>
	<line class="st1" x1="82" y1="37.8" x2="88.7" y2="37.8"/>
	<line class="st1" x1="82.4" y1="37.4" x2="88.3" y2="37.4"/>
	<line class="st1" x1="81.8" y1="46.8" x2="81.7" y2="46.8"/>
	<line class="st1" x1="82.4" y1="37.4" x2="82" y2="37.8"/>
	<line class="st1" x1="87.7" y1="50.9" x2="87.9" y2="51.3"/>
	<line class="st1" x1="76.2" y1="53.1" x2="76.2" y2="53.2"/>
	<line class="st1" x1="76.2" y1="53.1" x2="76.2" y2="53.1"/>
	<line class="st1" x1="76.2" y1="53.1" x2="76.2" y2="53.1"/>
	<line class="st1" x1="76.2" y1="53.1" x2="76.2" y2="53.1"/>
	<line class="st1" x1="81.8" y1="43.3" x2="81.7" y2="43.4"/>
	<line class="st1" x1="89" y1="43.3" x2="89" y2="43.4"/>
	<line class="st1" x1="81.6" y1="46.6" x2="81.6" y2="43.5"/>
	<line class="st1" x1="81.8" y1="48.5" x2="81.8" y2="47"/>
	<line class="st1" x1="81.8" y1="43.2" x2="81.8" y2="38"/>
	<line class="st1" x1="82.4" y1="37.4" x2="82.4" y2="6.4"/>
	<line class="st1" x1="83.5" y1="50.9" x2="83.5" y2="48.7"/>
	<line class="st1" x1="89" y1="46.8" x2="89" y2="46.8"/>
	<line class="st1" x1="88.3" y1="37.4" x2="88.7" y2="37.8"/>
	<line class="st1" x1="87.2" y1="50.9" x2="87.2" y2="48.7"/>
	<line class="st1" x1="88.3" y1="37.4" x2="88.3" y2="6.4"/>
	<polyline class="st1" points="88.3,6.4 88.7,6.1 88.7,1.9 	"/>
	<line class="st1" x1="88.9" y1="48.5" x2="88.9" y2="47"/>
	<line class="st1" x1="88.9" y1="43.2" x2="88.9" y2="38"/>
	<line class="st1" x1="89.1" y1="46.6" x2="89.1" y2="43.5"/>
	<line class="st1" x1="87.7" y1="55.3" x2="87.9" y2="54.9"/>
	<line class="st1" x1="82.4" y1="6.4" x2="88.3" y2="6.4"/>
	<line class="st1" x1="82" y1="6.1" x2="88.7" y2="6.1"/>
	<line class="st1" x1="82" y1="1.9" x2="88.7" y2="1.9"/>
	<line class="st1" x1="82.2" y1="1.7" x2="88.5" y2="1.7"/>
	<polyline class="st1" points="82.4,6.4 82,6.1 82,1.9 	"/>
	<path class="st1" d="M76.2,52.9c0,0.1,0,0.1,0,0.2"/>
	<path class="st1" d="M75.5,52.9c0,0.1,0,0.2,0,0.2"/>
	<path class="st1" d="M75.5,52.8C75.5,52.8,75.5,52.8,75.5,52.8"/>
	<path class="st1" d="M83.4,55.4C83.4,55.3,83.4,55.3,83.4,55.4"/>
	<path class="st1" d="M77.4,56.8C77.4,56.8,77.4,56.8,77.4,56.8"/>
	<path class="st1" d="M77.2,56.7c0.1,0,0.1,0,0.2,0"/>
	<path class="st1" d="M82.5,56.1C82.5,56.1,82.5,56.1,82.5,56.1"/>
	<path class="st1" d="M76.3,52.4C76.3,52.4,76.3,52.4,76.3,52.4"/>
	<path class="st1" d="M83.4,50.9C83.4,50.9,83.4,50.9,83.4,50.9"/>
	<path class="st1" d="M77.4,49.5C77.4,49.4,77.4,49.4,77.4,49.5"/>
	<path class="st1" d="M78.3,49.3c-0.1,0-0.1,0-0.2,0"/>
	<path class="st1" d="M82.5,50.1C82.5,50.1,82.5,50.1,82.5,50.1"/>
	<path class="st1" d="M82.5,50.1c0,0-0.1,0-0.1,0"/>
	<path class="st1" d="M82.5,50.1C82.5,50.1,82.5,50.1,82.5,50.1"/>
	<path class="st1" d="M82.6,50.1C82.6,50.1,82.5,50.1,82.6,50.1"/>
	<path class="st1" d="M89,46.8c0,0,0.1-0.1,0.1-0.1"/>
	<path class="st1" d="M81.6,46.6c0,0,0,0.1,0.1,0.1"/>
	<path class="st1" d="M88.7,48.7c0.1,0,0.2-0.1,0.2-0.2"/>
	<path class="st1" d="M81.8,48.5c0,0.1,0.1,0.2,0.2,0.2"/>
	<path class="st1" d="M89,46.8c0,0-0.1,0.1-0.1,0.1"/>
	<path class="st1" d="M81.8,47c0,0,0-0.1-0.1-0.1"/>
	<path class="st1" d="M88.9,38c0-0.1-0.1-0.2-0.2-0.2"/>
	<path class="st1" d="M82,37.8c-0.1,0-0.2,0.1-0.2,0.2"/>
	<path class="st1" d="M89.1,43.5c0,0,0-0.1-0.1-0.1"/>
	<path class="st1" d="M81.7,43.4c0,0-0.1,0.1-0.1,0.1"/>
	<path class="st1" d="M88.9,43.2c0,0,0,0.1,0.1,0.1"/>
	<path class="st1" d="M81.8,43.3c0,0,0.1-0.1,0.1-0.1"/>
	<path class="st1" d="M82.2,1.7c-0.1,0-0.2,0.1-0.2,0.2"/>
	<path class="st1" d="M88.7,1.9c0-0.1-0.1-0.2-0.2-0.2"/>
	<polyline class="st1" points="73.5,53.1 73.5,53 73.5,52.8 73.6,52.7 73.6,52.5 73.6,52.3 73.6,52.2 73.6,52 73.6,51.9 73.7,51.7 
		73.7,51.6 73.7,51.4 73.8,51.3 73.8,51.1 73.8,51 73.9,50.9 73.9,50.9 73.9,50.7 74,50.6 74,50.5 74.1,50.4 74.1,50.3 74.2,50.2 
		74.2,50.1 74.3,50 74.3,49.9 74.4,49.8 74.5,49.8 74.5,49.7 74.6,49.6 74.6,49.6 74.7,49.5 74.7,49.4 74.8,49.4 74.8,49.4 
		74.9,49.3 74.9,49.3 75,49.3 75,49.3 75.1,49.2 75.1,49.2 75.2,49.2 75.2,49.2 75.3,49.1 75.3,49.1 75.4,49.1 75.4,49.1 75.5,49.1 
		75.5,49.1 75.6,49.1 	"/>
	<polyline class="st1" points="77.4,49.4 77.4,49.4 77.3,49.4 77.3,49.4 77.3,49.4 77.3,49.3 77.2,49.3 77.2,49.3 77.2,49.3 
		77.2,49.3 77.1,49.3 77.1,49.2 77.1,49.2 77.1,49.2 77,49.2 77,49.2 77,49.2 77,49.2 76.9,49.2 76.9,49.1 76.9,49.1 76.9,49.1 
		76.8,49.1 76.8,49.1 76.8,49.1 76.7,49.1 76.7,49.1 76.7,49.1 76.7,49.1 76.6,49.1 76.6,49.1 76.6,49.1 76.6,49.1 	"/>
	<polyline class="st1" points="75.6,57.1 75.5,57.1 75.5,57.1 75.4,57.1 75.4,57.1 75.3,57.1 75.3,57.1 75.2,57 75.2,57 75.1,57 
		75.1,57 75,56.9 75,56.9 74.9,56.9 74.9,56.9 74.8,56.8 74.8,56.8 74.7,56.8 74.7,56.7 74.6,56.6 74.6,56.6 74.5,56.5 74.5,56.4 
		74.4,56.4 74.3,56.3 74.3,56.2 74.2,56.1 74.2,56 74.1,55.9 74.1,55.8 74,55.7 74,55.6 73.9,55.5 73.9,55.4 73.9,55.3 73.8,55.2 
		73.8,55.1 73.8,54.9 73.7,54.8 73.7,54.6 73.7,54.5 73.6,54.3 73.6,54.2 73.6,54 73.6,53.9 73.6,53.7 73.6,53.6 73.5,53.4 
		73.5,53.2 73.5,53.1 	"/>
	<polyline class="st1" points="76.6,57.1 76.6,57.1 76.6,57.1 76.6,57.1 76.7,57.1 76.7,57.1 76.7,57.1 76.7,57.1 76.8,57.1 
		76.8,57.1 76.8,57.1 76.9,57.1 76.9,57.1 76.9,57.1 76.9,57 77,57 77,57 77,57 77,57 77.1,57 77.1,57 77.1,57 77.1,57 77.2,56.9 
		77.2,56.9 77.2,56.9 77.2,56.9 77.3,56.9 77.3,56.9 77.3,56.8 77.3,56.8 77.4,56.8 77.4,56.8 	"/>
	<polyline class="st1" points="74.5,53.1 74.5,53.2 74.5,53.4 74.5,53.6 74.5,53.7 74.5,53.9 74.6,54 74.6,54.2 74.6,54.3 
		74.6,54.5 74.7,54.6 74.7,54.8 74.7,54.9 74.8,55.1 74.8,55.2 74.9,55.3 74.9,55.4 74.9,55.5 75,55.6 75,55.7 75.1,55.8 75.1,55.9 
		75.1,56 75.2,56.1 75.2,56.2 75.3,56.3 75.4,56.4 75.4,56.4 75.5,56.5 75.5,56.6 75.6,56.6 75.7,56.7 75.7,56.8 75.8,56.8 
		75.8,56.8 75.8,56.9 75.9,56.9 76,56.9 76,56.9 76,57 76.1,57 76.2,57 76.2,57 76.2,57.1 76.3,57.1 76.4,57.1 76.4,57.1 76.4,57.1 
		76.5,57.1 76.6,57.1 	"/>
	<polyline class="st1" points="76.6,49.1 76.5,49.1 76.4,49.1 76.4,49.1 76.4,49.1 76.3,49.1 76.2,49.1 76.2,49.2 76.2,49.2 
		76.1,49.2 76,49.2 76,49.3 76,49.3 75.9,49.3 75.8,49.3 75.8,49.4 75.8,49.4 75.7,49.4 75.7,49.5 75.6,49.6 75.5,49.6 75.5,49.7 
		75.4,49.8 75.4,49.8 75.3,49.9 75.2,50 75.2,50.1 75.1,50.2 75.1,50.3 75.1,50.4 75,50.5 75,50.6 74.9,50.7 74.9,50.9 74.9,50.9 
		74.8,51 74.8,51.1 74.7,51.3 74.7,51.4 74.7,51.6 74.6,51.7 74.6,51.9 74.6,52 74.6,52.2 74.5,52.3 74.5,52.5 74.5,52.7 74.5,52.8 
		74.5,53 74.5,53.1 	"/>
	<polyline class="st1" points="81,53.1 81,53.2 81,53.3 81,53.4 81,53.5 81.1,53.6 81.1,53.7 81.1,53.8 81.1,53.9 81.1,54 
		81.1,54.1 81.1,54.2 81.1,54.2 81.2,54.3 81.2,54.3 81.2,54.4 81.2,54.5 81.2,54.6 81.3,54.7 81.3,54.8 81.3,54.8 81.3,54.9 
		81.4,54.9 81.4,55 81.4,55.1 81.4,55.2 81.5,55.2 	"/>
	<polyline class="st1" points="87.9,54.9 88,54.8 88,54.8 88,54.8 88.1,54.7 88.1,54.7 88.1,54.6 88.1,54.6 88.1,54.5 88.2,54.5 
		88.2,54.4 88.2,54.4 88.2,54.3 88.3,54.2 88.3,54.2 88.3,54.1 88.3,54.1 88.3,54 88.3,54 88.3,53.9 88.4,53.8 88.4,53.7 88.4,53.7 
		88.4,53.6 88.4,53.5 88.4,53.4 88.4,53.4 88.4,53.3 88.4,53.2 88.4,53.1 88.4,53.1 	"/>
	<polyline class="st1" points="78.3,56.9 78.3,56.9 78.2,56.9 78.2,56.9 78.2,56.9 78.1,56.9 78.1,56.9 78.1,56.9 78.1,56.9 
		78,56.9 78,56.9 78,56.9 77.9,56.9 77.9,56.9 77.9,56.9 77.9,56.9 77.9,56.9 77.8,56.8 77.8,56.8 77.8,56.8 77.7,56.8 77.7,56.8 
		77.7,56.8 77.7,56.8 77.6,56.7 77.6,56.7 77.6,56.7 77.6,56.7 77.5,56.7 77.5,56.7 77.5,56.6 77.5,56.6 	"/>
	<polyline class="st1" points="77.5,56.6 77.4,56.6 77.4,56.6 77.4,56.6 77.4,56.5 77.3,56.5 77.3,56.5 77.3,56.5 77.3,56.5 
		77.2,56.4 77.2,56.4 77.2,56.4 77.2,56.3 77.1,56.3 77.1,56.3 77.1,56.2 77.1,56.2 77,56.2 77,56.1 77,56.1 77,56.1 76.9,56 
		76.9,56 	"/>
	<polyline class="st1" points="76.9,56 76.9,55.9 76.8,55.9 76.8,55.8 76.8,55.7 76.7,55.6 76.7,55.5 76.6,55.4 76.6,55.4 
		76.6,55.3 76.6,55.2 76.5,55.1 76.5,55 76.5,54.9 76.4,54.8 76.4,54.7 76.4,54.6 76.4,54.5 76.3,54.4 76.3,54.3 76.3,54.1 76.3,54 
		76.3,54 76.3,53.8 76.3,53.7 76.2,53.6 76.2,53.4 76.2,53.3 76.2,53.2 76.2,53.2 	"/>
	<polyline class="st1" points="76.2,52.9 76.2,52.8 76.2,52.8 76.2,52.7 76.2,52.7 76.2,52.7 76.2,52.6 76.2,52.6 76.2,52.5 
		76.3,52.5 76.3,52.5 76.3,52.4 	"/>
	<polyline class="st1" points="76.3,52.4 76.3,52.4 76.3,52.2 76.3,52.1 76.3,52 76.3,51.9 76.3,51.8 76.4,51.7 76.4,51.6 
		76.4,51.5 76.4,51.4 76.5,51.3 76.5,51.2 76.5,51.1 76.5,51 76.6,50.9 76.6,50.9 76.6,50.8 76.7,50.7 76.7,50.6 76.7,50.5 
		76.8,50.5 76.8,50.4 76.9,50.3 76.9,50.3 	"/>
	<polyline class="st1" points="76.9,50.3 76.9,50.3 76.9,50.2 76.9,50.2 77,50.1 77,50.1 77,50.1 77,50 77.1,50 77.1,50 77.1,49.9 
		77.1,49.9 77.2,49.9 77.2,49.8 77.2,49.8 77.2,49.8 77.3,49.7 77.3,49.7 77.3,49.7 77.4,49.7 77.4,49.6 77.4,49.6 77.4,49.6 
		77.5,49.6 	"/>
	<polyline class="st1" points="77.5,49.6 77.5,49.6 77.5,49.5 77.5,49.5 77.6,49.5 77.6,49.5 77.6,49.5 77.6,49.5 77.7,49.4 
		77.7,49.4 77.7,49.4 77.7,49.4 77.8,49.4 77.8,49.4 77.8,49.4 77.9,49.3 77.9,49.3 77.9,49.3 77.9,49.3 77.9,49.3 78,49.3 78,49.3 
		78,49.3 78.1,49.3 78.1,49.3 78.1,49.3 78.1,49.3 78.2,49.3 78.2,49.3 78.2,49.3 78.3,49.3 78.3,49.3 	"/>
	<polyline class="st1" points="77.4,56.8 77.3,56.7 77.2,56.7 77.2,56.7 77.1,56.7 77.1,56.7 77,56.7 76.9,56.7 76.9,56.6 
		76.8,56.6 76.8,56.6 76.7,56.6 76.7,56.5 76.6,56.5 76.6,56.5 76.5,56.4 76.5,56.4 76.4,56.3 76.3,56.2 76.3,56.2 76.2,56.1 
		76.2,56 76.1,56 76.1,55.9 76,55.8 76,55.7 75.9,55.7 75.9,55.6 75.8,55.5 75.8,55.3 75.8,55.2 75.7,55.1 75.7,55.1 75.7,55 
		75.6,54.9 75.6,54.7 75.6,54.6 75.5,54.5 75.5,54.3 75.5,54.2 75.5,54.1 75.4,53.9 75.4,53.8 75.4,53.6 75.4,53.5 75.4,53.3 
		75.4,53.2 75.4,53.1 	"/>
	<polyline class="st1" points="75.4,53.1 75.4,53 75.4,52.9 75.4,52.7 75.4,52.6 75.4,52.4 75.4,52.3 75.5,52.1 75.5,52 75.5,51.9 
		75.5,51.7 75.6,51.6 75.6,51.5 75.6,51.3 75.7,51.2 75.7,51.1 75.7,51.1 75.8,51 75.8,50.9 75.8,50.8 75.9,50.7 75.9,50.6 76,50.5 
		76,50.4 76.1,50.3 76.1,50.2 76.2,50.2 76.2,50.1 76.3,50 76.3,50 76.4,49.9 76.5,49.9 76.5,49.8 76.6,49.8 76.6,49.7 76.7,49.7 
		76.7,49.6 76.8,49.6 76.8,49.6 76.9,49.6 76.9,49.5 77,49.5 77.1,49.5 77.1,49.5 77.2,49.5 77.2,49.5 77.3,49.5 77.4,49.5 	"/>
	<polyline class="st1" points="84.1,55.3 84.1,55.3 84.1,55.4 84.1,55.5 84,55.6 84,55.7 83.9,55.8 83.9,55.8 83.9,55.9 83.8,56 
		83.8,56 83.8,56.1 83.7,56.1 83.7,56.2 83.7,56.2 83.6,56.3 83.6,56.3 83.5,56.4 83.5,56.4 83.4,56.5 83.4,56.5 83.4,56.5 
		83.3,56.6 83.3,56.6 83.2,56.7 83.2,56.7 83.2,56.7 83.1,56.7 83.1,56.8 83,56.8 83,56.8 82.9,56.8 82.9,56.8 82.9,56.9 82.8,56.9 
		82.8,56.9 82.7,56.9 82.7,56.9 82.6,56.9 82.6,56.9 82.5,56.9 82.5,56.9 82.5,56.9 	"/>
	<polyline class="st1" points="82.5,49.3 82.5,49.3 82.5,49.3 82.6,49.3 82.6,49.3 82.6,49.3 82.7,49.3 82.7,49.3 82.7,49.3 
		82.7,49.3 82.8,49.3 82.8,49.3 82.8,49.3 82.9,49.3 82.9,49.4 82.9,49.4 83,49.4 83,49.4 83,49.4 83,49.4 83.1,49.4 83.1,49.5 
		83.1,49.5 83.2,49.5 83.2,49.5 83.2,49.5 83.3,49.6 83.3,49.6 83.3,49.6 83.4,49.6 83.4,49.7 83.4,49.7 83.4,49.7 83.5,49.8 
		83.5,49.8 	"/>
	<polyline class="st1" points="82.6,50.1 82.6,50.1 82.6,50.1 82.5,50.1 82.5,50.1 82.5,50.1 82.4,50.1 82.4,50.1 82.4,50.1 
		82.3,50.1 82.3,50.2 82.3,50.2 82.3,50.2 82.3,50.2 82.2,50.2 82.2,50.2 82.2,50.2 82.1,50.3 82.1,50.3 82.1,50.3 82,50.3 82,50.3 
		82,50.4 82,50.4 81.9,50.4 81.9,50.4 81.9,50.5 81.8,50.5 81.8,50.5 81.8,50.6 81.8,50.6 81.8,50.6 81.7,50.7 81.7,50.7 81.7,50.7 
		81.6,50.8 81.6,50.8 81.6,50.9 81.6,50.9 81.5,51 81.5,51 	"/>
	<polyline class="st1" points="81.5,51 81.4,51.1 81.4,51.1 81.4,51.2 81.4,51.3 81.3,51.3 81.3,51.4 81.3,51.5 81.3,51.5 
		81.2,51.6 81.2,51.7 81.2,51.8 81.2,51.9 81.2,52 81.1,52 81.1,52.1 81.1,52.2 81.1,52.2 81.1,52.3 81.1,52.4 81.1,52.5 81.1,52.6 
		81,52.7 81,52.8 81,52.9 81,53 81,53.1 	"/>
	<polyline class="st1" points="83.5,50.6 83.5,50.6 83.5,50.5 83.4,50.5 83.4,50.5 83.4,50.4 83.3,50.4 83.3,50.4 83.3,50.4 
		83.3,50.3 83.3,50.3 83.2,50.3 83.2,50.3 83.2,50.3 83.1,50.2 83.1,50.2 83.1,50.2 83.1,50.2 83,50.2 83,50.2 83,50.1 83,50.1 
		82.9,50.1 82.9,50.1 82.9,50.1 82.9,50.1 82.8,50.1 82.8,50.1 82.8,50.1 82.8,50.1 82.7,50.1 82.7,50.1 82.7,50.1 82.6,50.1 
		82.6,50.1 82.6,50.1 82.6,50.1 82.5,50.1 82.5,50.1 82.5,50.1 	"/>
	<polyline class="st1" points="82.5,50.1 82.5,50.1 82.4,50.1 82.4,50.1 82.4,50.1 82.3,50.1 82.3,50.1 82.3,50.1 82.2,50.1 
		82.2,50.2 82.2,50.2 82.2,50.2 82.2,50.2 82.1,50.2 82.1,50.2 82.1,50.3 82,50.3 82,50.3 82,50.3 82,50.3 81.9,50.4 81.9,50.4 
		81.9,50.4 81.8,50.5 81.8,50.5 81.8,50.5 81.7,50.6 81.7,50.6 81.7,50.6 81.7,50.7 81.7,50.7 81.6,50.7 81.6,50.8 81.6,50.8 
		81.5,50.9 81.5,50.9 81.5,51 	"/>
	<polyline class="st1" points="81.5,51 81.4,51.1 81.4,51.1 81.4,51.2 81.3,51.3 81.3,51.3 81.3,51.4 81.3,51.4 81.2,51.5 
		81.2,51.6 81.2,51.7 81.2,51.8 81.2,51.9 81.1,52 81.1,52 81.1,52.1 81.1,52.2 81.1,52.2 81.1,52.3 81.1,52.4 81,52.5 81,52.6 
		81,52.7 81,52.8 81,52.9 81,53 81,53.1 	"/>
	<polyline class="st1" points="88.4,53.1 88.4,53.1 88.4,53 88.4,52.9 88.4,52.8 88.4,52.8 88.4,52.7 88.4,52.6 88.4,52.5 
		88.4,52.5 88.4,52.4 88.3,52.3 88.3,52.2 88.3,52.2 88.3,52.1 88.3,52.1 88.3,52 88.3,52 88.2,51.9 88.2,51.8 88.2,51.8 88.2,51.7 
		88.1,51.7 88.1,51.6 88.1,51.6 88.1,51.5 88.1,51.5 88,51.4 88,51.4 88,51.4 87.9,51.3 	"/>
	<polyline class="st1" points="87.9,51.3 87.9,51.3 87.9,51.3 87.9,51.3 87.9,51.2 87.9,51.2 87.9,51.2 87.8,51.2 87.8,51.2 
		87.8,51.1 87.8,51.1 87.8,51.1 87.8,51.1 87.7,51.1 87.7,51.1 87.7,51.1 87.7,51 87.7,51 87.6,51 87.6,51 87.6,51 87.6,51 87.6,51 
		87.6,51 87.5,51 87.5,51 87.5,51 87.5,50.9 87.5,50.9 87.5,50.9 87.5,50.9 87.4,50.9 87.4,50.9 87.4,50.9 87.4,50.9 87.4,50.9 
		87.3,50.9 87.3,50.9 87.3,50.9 	"/>
	<polyline class="st1" points="81,53.1 81,53 81,52.9 81,52.8 81,52.7 81,52.6 81,52.5 81.1,52.4 81.1,52.3 81.1,52.2 81.1,52.2 
		81.1,52.1 81.1,52 81.1,52 81.2,51.9 81.2,51.8 81.2,51.7 81.2,51.6 81.2,51.5 81.3,51.4 81.3,51.4 81.3,51.3 81.3,51.3 81.4,51.2 
		81.4,51.1 81.4,51.1 81.5,51 	"/>
	<polyline class="st1" points="81.5,51 81.5,51 81.5,50.9 81.5,50.9 81.5,50.9 81.5,50.9 81.6,50.9 81.6,50.8 81.6,50.8 81.6,50.8 
		81.6,50.8 81.6,50.8 	"/>
	<polyline class="st1" points="81.6,50.8 81.6,50.8 81.6,50.7 81.7,50.7 81.7,50.7 81.7,50.6 81.7,50.6 81.8,50.6 81.8,50.5 
		81.8,50.5 81.8,50.5 81.9,50.4 81.9,50.4 81.9,50.4 81.9,50.4 82,50.3 82,50.3 82,50.3 82,50.3 82.1,50.3 82.1,50.2 82.1,50.2 
		82.1,50.2 82.2,50.2 82.2,50.2 82.2,50.2 82.2,50.1 82.3,50.1 82.3,50.1 82.3,50.1 82.3,50.1 82.4,50.1 	"/>
	<polyline class="st1" points="82.5,50.1 82.5,50.1 82.5,50.1 82.6,50.1 82.6,50.1 82.6,50.1 82.6,50.1 82.7,50.1 82.7,50.1 
		82.7,50.1 82.8,50.1 82.8,50.1 82.8,50.1 82.8,50.1 82.9,50.1 82.9,50.1 82.9,50.1 82.9,50.1 83,50.1 83,50.1 83,50.2 83,50.2 
		83.1,50.2 83.1,50.2 83.1,50.2 83.2,50.2 83.2,50.3 83.2,50.3 83.2,50.3 83.3,50.3 83.3,50.3 83.3,50.4 83.3,50.4 83.3,50.4 
		83.4,50.4 83.4,50.5 83.4,50.5 83.5,50.5 83.5,50.6 83.5,50.6 	"/>
	<polyline class="st1" points="77.2,56.7 77.1,56.7 77.1,56.7 77,56.7 77,56.7 76.9,56.7 76.9,56.6 76.9,56.6 76.8,56.6 76.7,56.6 
		76.7,56.5 76.6,56.5 76.6,56.4 76.5,56.4 76.5,56.3 76.4,56.3 76.4,56.2 76.3,56.1 76.3,56.1 76.2,56 76.2,55.9 76.1,55.9 
		76.1,55.8 76,55.7 76,55.6 76,55.6 75.9,55.5 75.9,55.4 75.9,55.3 75.8,55.2 75.8,55.1 75.8,55 75.7,54.9 75.7,54.8 75.7,54.7 
		75.6,54.5 75.6,54.4 75.6,54.3 75.6,54.1 75.5,54 75.5,53.9 75.5,53.8 75.5,53.6 75.5,53.5 75.5,53.3 75.5,53.2 75.5,53.1 	"/>
	<polyline class="st1" points="82.5,49.3 82.4,49.3 82.3,49.3 82.3,49.3 82.2,49.3 82.2,49.3 82.1,49.3 82.1,49.3 82,49.4 82,49.4 
		81.9,49.4 81.8,49.5 81.8,49.5 81.7,49.5 81.7,49.6 81.6,49.6 81.6,49.7 81.5,49.7 81.5,49.8 81.4,49.9 81.4,49.9 81.3,50 
		81.3,50.1 81.2,50.2 81.1,50.2 81.1,50.3 81.1,50.4 81,50.5 81,50.6 80.9,50.7 80.9,50.8 80.8,51 80.8,51 80.8,51.1 80.7,51.2 
		80.7,51.4 80.7,51.5 80.6,51.6 80.6,51.8 80.6,51.9 80.6,52.1 80.5,52.2 80.5,52.4 80.5,52.5 80.5,52.7 80.5,52.8 80.5,53 
		80.5,53.1 	"/>
	<polyline class="st1" points="83.5,50.7 83.5,50.7 83.5,50.6 83.4,50.6 83.4,50.6 83.4,50.5 83.4,50.5 83.3,50.5 83.3,50.4 
		83.3,50.4 83.3,50.4 83.3,50.4 83.2,50.4 83.2,50.3 83.2,50.3 83.2,50.3 83.1,50.3 83.1,50.3 83.1,50.2 83.1,50.2 83.1,50.2 
		83,50.2 83,50.2 83,50.2 82.9,50.2 82.9,50.2 82.9,50.2 82.9,50.1 82.8,50.1 82.8,50.1 82.8,50.1 82.8,50.1 82.8,50.1 82.7,50.1 
		82.7,50.1 82.7,50.1 82.7,50.1 82.6,50.1 82.6,50.1 	"/>
	<polyline class="st1" points="80.5,53.1 80.5,53.2 80.5,53.4 80.5,53.5 80.5,53.7 80.5,53.8 80.5,54 80.6,54.1 80.6,54.3 
		80.6,54.4 80.6,54.6 80.7,54.7 80.7,54.8 80.7,55 80.8,55.1 80.8,55.2 80.8,55.3 80.9,55.4 80.9,55.5 81,55.6 81,55.7 81.1,55.8 
		81.1,55.9 81.1,56 81.2,56 81.3,56.1 81.3,56.2 81.4,56.3 81.4,56.4 81.5,56.4 81.5,56.5 81.6,56.5 81.6,56.6 81.7,56.6 81.7,56.7 
		81.8,56.7 81.8,56.7 81.9,56.8 82,56.8 82,56.8 82.1,56.9 82.1,56.9 82.2,56.9 82.2,56.9 82.3,56.9 82.3,56.9 82.4,56.9 82.5,56.9 
			"/>
	<polyline class="st1" points="83.4,50.9 83.3,50.9 83.3,50.9 83.3,50.8 83.3,50.8 83.2,50.7 83.2,50.7 83.2,50.7 83.2,50.6 
		83.2,50.6 83.1,50.6 83.1,50.5 83.1,50.5 83.1,50.5 83,50.5 83,50.4 83,50.4 82.9,50.4 82.9,50.4 82.9,50.3 82.9,50.3 82.9,50.3 
		82.8,50.3 82.8,50.3 82.8,50.2 82.7,50.2 82.7,50.2 82.7,50.2 82.7,50.2 82.6,50.2 82.6,50.2 82.6,50.1 82.6,50.1 82.5,50.1 	"/>
	<polyline class="st1" points="83.4,50.8 83.4,50.8 83.3,50.8 83.3,50.8 83.3,50.7 83.3,50.7 83.2,50.7 83.2,50.6 83.2,50.6 
		83.2,50.6 83.2,50.5 83.1,50.5 83.1,50.5 83.1,50.5 83.1,50.4 83,50.4 83,50.4 83,50.4 83,50.3 82.9,50.3 82.9,50.3 82.9,50.3 
		82.9,50.3 82.9,50.3 82.8,50.2 82.8,50.2 82.8,50.2 82.8,50.2 82.7,50.2 82.7,50.2 82.7,50.2 82.6,50.2 82.6,50.1 82.6,50.1 	"/>
	<polyline class="st1" points="87.3,55.3 87.3,55.3 87.3,55.3 87.4,55.3 87.4,55.3 87.4,55.3 87.4,55.3 87.4,55.3 87.5,55.3 
		87.5,55.3 87.5,55.3 87.5,55.3 87.5,55.3 87.5,55.2 87.5,55.2 87.6,55.2 87.6,55.2 87.6,55.2 87.6,55.2 87.6,55.2 87.6,55.2 
		87.7,55.2 87.7,55.2 87.7,55.2 87.7,55.1 87.7,55.1 87.8,55.1 87.8,55.1 87.8,55.1 87.8,55.1 87.8,55 87.8,55 87.9,55 87.9,55 
		87.9,55 87.9,54.9 87.9,54.9 87.9,54.9 87.9,54.9 	"/>
	<polyline class="st1" points="85.6,54.9 85.6,54.9 85.6,55 85.6,55 85.6,55 85.6,55 85.6,55 85.6,55 85.6,55 85.6,55 85.6,55 
		85.6,55 85.6,55 85.6,55 85.6,55 85.6,55 85.6,55 85.6,55 85.6,55 85.6,55 85.6,55 85.6,55 85.6,55 85.6,55 85.6,55.1 85.6,55.1 
		85.6,55.1 85.6,55.1 85.6,55.1 85.6,55.1 	"/>
	<polyline class="st1" points="85.7,55.2 85.7,55.2 85.7,55.2 85.7,55.2 85.7,55.3 85.7,55.3 85.7,55.3 85.7,55.3 85.7,55.3 
		85.7,55.3 85.7,55.3 85.7,55.3 85.7,55.3 85.7,55.3 85.7,55.3 85.7,55.3 85.7,55.3 85.7,55.3 85.7,55.3 85.7,55.3 85.7,55.3 
		85.7,55.3 85.7,55.3 85.7,55.3 85.7,55.3 85.7,55.3 85.7,55.3 85.8,55.3 85.8,55.3 85.8,55.3 85.8,55.3 	"/>
	<polyline class="st1" points="87.3,50.9 87.3,50.9 87.2,50.9 87.2,50.9 87.2,50.9 87.1,50.9 87.1,50.9 87.1,51 87.1,51 87,51 
		87,51 87,51 86.9,51 86.9,51.1 86.9,51.1 86.8,51.1 86.8,51.1 86.8,51.2 86.7,51.2 86.7,51.2 86.7,51.3 86.6,51.3 86.6,51.4 
		86.6,51.4 86.6,51.5 86.5,51.5 86.5,51.6 86.5,51.6 86.5,51.7 86.4,51.7 86.4,51.8 86.4,51.9 86.4,51.9 86.3,52 86.3,52 86.3,52.1 
		86.3,52.2 86.3,52.3 86.3,52.3 86.2,52.4 86.2,52.5 86.2,52.6 86.2,52.7 86.2,52.8 86.2,52.9 86.2,53 86.2,53.1 86.2,53.1 	"/>
	<polyline class="st1" points="85.8,50.9 85.8,50.9 85.8,50.9 85.8,50.9 85.7,50.9 85.7,50.9 85.7,50.9 85.7,50.9 85.7,50.9 
		85.7,50.9 85.7,50.9 85.7,50.9 85.7,50.9 85.7,50.9 85.7,50.9 85.7,50.9 85.7,50.9 85.7,50.9 85.7,50.9 85.7,50.9 85.7,50.9 
		85.7,50.9 85.7,50.9 85.7,50.9 85.7,50.9 85.7,51 85.7,51 85.7,51 85.7,51 85.7,51 85.7,51 	"/>
	<polyline class="st1" points="85.6,51.1 85.6,51.1 85.6,51.1 85.6,51.1 85.6,51.1 85.6,51.1 85.6,51.1 85.6,51 85.6,51 85.6,51 
		85.7,51 85.7,51 	"/>
	<polyline class="st1" points="81.1,53.1 81.1,53.2 81.1,53.3 81.1,53.4 81.1,53.5 81.1,53.6 81.1,53.7 81.1,53.8 81.1,53.9 
		81.1,54 81.1,54.1 81.2,54.2 81.2,54.2 81.2,54.3 81.2,54.3 81.2,54.4 81.2,54.5 81.3,54.6 81.3,54.7 81.3,54.8 81.3,54.8 
		81.4,54.9 81.4,54.9 81.4,55 81.4,55.1 81.5,55.2 81.5,55.2 	"/>
	<polyline class="st1" points="81.4,55.2 81.5,55.2 81.5,55.3 81.5,55.3 81.6,55.4 81.6,55.4 81.6,55.5 81.6,55.5 81.7,55.6 
		81.7,55.6 81.7,55.6 81.8,55.7 81.8,55.7 81.8,55.7 81.8,55.8 81.9,55.8 81.9,55.8 81.9,55.8 82,55.9 82,55.9 82,55.9 82.1,55.9 
		82.1,56 82.1,56 82.2,56 82.2,56 82.2,56 82.3,56.1 82.3,56.1 82.3,56.1 82.4,56.1 82.4,56.1 82.4,56.1 82.5,56.1 82.5,56.1 
		82.5,56.1 82.6,56.1 	"/>
	<polyline class="st1" points="82.5,56.1 82.5,56.1 82.5,56.1 82.6,56.1 82.6,56.1 82.6,56.1 82.6,56.1 82.7,56.1 82.7,56.1 
		82.7,56.1 82.8,56.1 82.8,56.1 82.8,56.1 82.8,56.1 82.9,56.1 82.9,56.1 82.9,56.1 83,56.1 83,56.1 83,56 83.1,56 83.1,56 83.1,56 
		83.1,56 83.2,56 83.2,55.9 83.2,55.9 83.3,55.9 83.3,55.9 83.3,55.8 83.4,55.8 83.4,55.8 83.4,55.7 83.4,55.7 83.5,55.7 83.5,55.6 
		83.5,55.6 83.6,55.5 83.6,55.5 83.6,55.4 83.6,55.4 83.7,55.3 83.7,55.3 83.7,55.3 	"/>
	<polyline class="st1" points="75.5,52.8 75.5,52.8 75.5,52.6 75.5,52.5 75.5,52.3 75.5,52.2 75.6,52 75.6,51.9 75.6,51.8 
		75.6,51.6 75.7,51.5 75.7,51.4 75.7,51.3 75.8,51.2 75.8,51 75.9,50.9 75.9,50.9 75.9,50.8 75.9,50.7 76,50.6 76,50.5 76.1,50.4 
		76.1,50.4 76.2,50.3 76.2,50.2 76.3,50.1 76.3,50.1 76.4,50 76.4,50 76.5,49.9 76.5,49.8 76.6,49.8 76.6,49.7 76.7,49.7 76.7,49.7 
		76.7,49.7 76.8,49.6 76.8,49.6 76.9,49.6 77,49.5 77,49.5 77,49.5 77.1,49.5 77.1,49.5 77.2,49.5 77.2,49.5 77.3,49.5 77.4,49.5 	
		"/>
	<polyline class="st1" points="85.6,51.1 85.6,51.1 85.6,51.1 85.6,51.1 85.6,51.1 85.6,51.2 85.6,51.2 85.6,51.2 85.6,51.2 
		85.6,51.2 85.6,51.2 85.6,51.2 85.6,51.2 85.6,51.2 85.6,51.2 85.6,51.2 85.6,51.2 85.6,51.2 85.6,51.2 85.6,51.2 85.6,51.2 
		85.6,51.2 85.6,51.2 85.6,51.2 85.6,51.2 85.6,51.2 85.6,51.2 85.6,51.3 85.6,51.3 85.6,51.3 	"/>
	<polyline class="st1" points="86.2,53.1 86.2,53.1 86.2,53.2 86.2,53.3 86.2,53.4 86.2,53.5 86.2,53.6 86.2,53.7 86.2,53.8 
		86.3,53.9 86.3,53.9 86.3,54 86.3,54.1 86.3,54.2 86.3,54.2 86.4,54.3 86.4,54.3 86.4,54.4 86.4,54.5 86.5,54.5 86.5,54.6 
		86.5,54.7 86.5,54.7 86.6,54.7 86.6,54.8 86.6,54.8 86.6,54.9 86.7,54.9 86.7,55 86.7,55 86.8,55 86.8,55.1 86.8,55.1 86.9,55.1 
		86.9,55.1 86.9,55.2 87,55.2 87,55.2 87,55.2 87.1,55.2 87.1,55.2 87.1,55.3 87.1,55.3 87.2,55.3 87.2,55.3 87.2,55.3 87.3,55.3 
		87.3,55.3 	"/>
	<polyline class="st1" points="85.6,55.1 85.6,55.1 85.6,55.1 85.6,55.1 85.6,55.1 85.6,55.1 85.6,55.2 85.6,55.2 85.6,55.2 
		85.6,55.2 85.7,55.2 85.7,55.2 	"/>
	<polyline class="st1" points="86.2,53.1 86.2,53.2 86.2,53.2 86.2,53.3 86.2,53.4 86.2,53.4 86.2,53.5 86.1,53.5 86.1,53.6 
		86.1,53.7 86.1,53.7 86.1,53.8 86.1,53.9 86,53.9 86,54 86,54.1 86,54.1 85.9,54.2 85.9,54.3 85.9,54.4 85.8,54.5 85.8,54.5 
		85.8,54.6 85.7,54.7 85.7,54.8 85.6,54.9 85.6,54.9 	"/>
	<polyline class="st1" points="85.6,51.3 85.6,51.3 85.7,51.4 85.7,51.5 85.8,51.6 85.8,51.7 85.8,51.8 85.9,51.8 85.9,51.9 
		85.9,52 86,52.1 86,52.1 86,52.2 86,52.3 86.1,52.3 86.1,52.4 86.1,52.5 86.1,52.5 86.1,52.6 86.1,52.7 86.2,52.7 86.2,52.8 
		86.2,52.9 86.2,52.9 86.2,53 86.2,53 86.2,53.1 	"/>
</g>
<g>
	<g>
		<path class="st2" d="M9.5,44.6c0.2,0,0.3,0,0.4,0.1l0.3-0.5l-0.4-0.4c-0.1-0.1-0.4-0.1-0.5,0l-1.5,1.5c-0.1,0.1-0.1,0.1-0.1,0.2
			h0.9C8.6,45,9,44.6,9.5,44.6"/>
	</g>
	<g>
		<g>
			<path class="st2" d="M9.5,44.8c-0.4,0-0.7,0.3-0.7,0.7c0,0.4,0.3,0.7,0.7,0.7c0.4,0,0.7-0.3,0.7-0.7C10.2,45.1,9.9,44.8,9.5,44.8
				 M9.8,45.6c-0.1,0-0.2-0.1-0.2-0.2c0-0.1,0.1-0.2,0.2-0.2c0.1,0,0.2,0.1,0.2,0.2C10,45.5,9.9,45.6,9.8,45.6"/>
		</g>
	</g>
	<g>
		<path class="st2" d="M9.9,46.3c-0.1,0.1-0.3,0.1-0.4,0.1c-0.5,0-0.9-0.4-0.9-0.9H7.7c0,0.1,0,0.1,0.1,0.2l1.5,1.5
			c0.1,0.1,0.4,0.1,0.5,0l0.4-0.4L9.9,46.3z"/>
	</g>
	<g>
		<path class="st2" d="M11.3,45.3l-1-1l-0.3,0.5c0.2,0.2,0.4,0.4,0.4,0.8c0,0.3-0.2,0.6-0.4,0.8l0.3,0.5l1-1
			C11.4,45.6,11.4,45.4,11.3,45.3"/>
	</g>
	<g>
		<path class="st3" d="M14,46.5h-0.2v-1.3c0-0.1,0-0.2,0-0.4h0c0,0.1,0,0.1-0.1,0.2l-0.6,1.4H13l-0.6-1.4c0,0,0-0.1-0.1-0.2h0
			c0,0.1,0,0.2,0,0.4v1.3h-0.2v-1.9h0.3L13,46c0,0.1,0.1,0.2,0.1,0.2h0c0-0.1,0.1-0.2,0.1-0.2l0.6-1.3H14V46.5z"/>
	</g>
	<g>
		<path class="st3" d="M14.5,44.8C14.5,44.8,14.4,44.8,14.5,44.8c-0.1-0.1-0.1-0.1-0.1-0.1c0,0,0-0.1,0-0.1c0,0,0.1,0,0.1,0
			c0,0,0.1,0,0.1,0c0,0,0,0.1,0,0.1c0,0,0,0.1,0,0.1C14.6,44.8,14.5,44.8,14.5,44.8 M14.6,46.5h-0.2v-1.3h0.2V46.5z"/>
	</g>
	<g>
		<rect x="14.9" y="44.5" class="st3" width="0.2" height="2"/>
	</g>
	<g>
		<path class="st3" d="M16.5,45.9h-0.9c0,0.1,0,0.3,0.1,0.3c0.1,0.1,0.2,0.1,0.3,0.1c0.2,0,0.3,0,0.4-0.1v0.2
			c-0.1,0.1-0.3,0.1-0.5,0.1c-0.2,0-0.3-0.1-0.4-0.2c-0.1-0.1-0.2-0.3-0.2-0.5c0-0.2,0.1-0.4,0.2-0.5c0.1-0.1,0.3-0.2,0.4-0.2
			c0.2,0,0.3,0.1,0.4,0.2c0.1,0.1,0.1,0.3,0.1,0.5V45.9z M16.3,45.7c0-0.1,0-0.2-0.1-0.3c-0.1-0.1-0.1-0.1-0.2-0.1
			c-0.1,0-0.2,0-0.3,0.1c-0.1,0.1-0.1,0.2-0.1,0.3H16.3z"/>
	</g>
	<g>
		<path class="st3" d="M16.6,46.5v-0.2c0.1,0.1,0.2,0.1,0.4,0.1c0.2,0,0.3-0.1,0.3-0.2c0,0,0-0.1,0-0.1c0,0,0,0-0.1-0.1
			c0,0-0.1,0-0.1-0.1c0,0-0.1,0-0.1,0c-0.1,0-0.1,0-0.2-0.1c0,0-0.1-0.1-0.1-0.1c0,0-0.1-0.1-0.1-0.1c0,0,0-0.1,0-0.1
			c0-0.1,0-0.1,0-0.2c0,0,0.1-0.1,0.1-0.1c0,0,0.1-0.1,0.2-0.1c0.1,0,0.1,0,0.2,0c0.1,0,0.2,0,0.3,0.1v0.2c-0.1-0.1-0.2-0.1-0.3-0.1
			c0,0-0.1,0-0.1,0c0,0-0.1,0-0.1,0c0,0,0,0-0.1,0.1c0,0,0,0,0,0.1c0,0,0,0.1,0,0.1c0,0,0,0,0.1,0.1c0,0,0.1,0,0.1,0
			c0,0,0.1,0,0.1,0c0.1,0,0.1,0,0.2,0.1c0,0,0.1,0.1,0.1,0.1c0,0,0.1,0.1,0.1,0.1c0,0,0,0.1,0,0.1c0,0.1,0,0.1,0,0.2
			c0,0-0.1,0.1-0.1,0.1c0,0-0.1,0.1-0.2,0.1c-0.1,0-0.1,0-0.2,0C16.8,46.6,16.7,46.5,16.6,46.5"/>
	</g>
	<g>
		<path class="st3" d="M17.8,44.8C17.8,44.8,17.8,44.8,17.8,44.8c-0.1-0.1-0.1-0.1-0.1-0.1c0,0,0-0.1,0-0.1c0,0,0.1,0,0.1,0
			c0,0,0.1,0,0.1,0c0,0,0,0.1,0,0.1c0,0,0,0.1,0,0.1C17.9,44.8,17.9,44.8,17.8,44.8 M17.9,46.5h-0.2v-1.3h0.2V46.5z"/>
	</g>
	<g>
		<path class="st3" d="M19.4,46.4c0,0.5-0.2,0.7-0.7,0.7c-0.2,0-0.3,0-0.4-0.1v-0.2c0.2,0.1,0.3,0.1,0.4,0.1c0.3,0,0.5-0.2,0.5-0.5
			v-0.1h0c-0.1,0.2-0.3,0.3-0.5,0.3c-0.2,0-0.3-0.1-0.4-0.2c-0.1-0.1-0.2-0.3-0.2-0.5c0-0.2,0.1-0.4,0.2-0.5
			c0.1-0.1,0.3-0.2,0.5-0.2c0.2,0,0.3,0.1,0.4,0.2h0v-0.2h0.2V46.4z M19.2,45.9v-0.2c0-0.1,0-0.2-0.1-0.3c-0.1-0.1-0.2-0.1-0.3-0.1
			c-0.1,0-0.2,0-0.3,0.1c-0.1,0.1-0.1,0.2-0.1,0.4c0,0.1,0,0.3,0.1,0.4c0.1,0.1,0.2,0.1,0.3,0.1c0.1,0,0.2,0,0.3-0.1
			C19.2,46.2,19.2,46.1,19.2,45.9"/>
	</g>
	<g>
		<path class="st3" d="M20.8,46.5h-0.2v-0.8c0-0.3-0.1-0.4-0.3-0.4c-0.1,0-0.2,0-0.3,0.1c-0.1,0.1-0.1,0.2-0.1,0.3v0.8h-0.2v-2h0.2
			v0.9h0c0.1-0.2,0.3-0.3,0.4-0.3c0.3,0,0.5,0.2,0.5,0.5V46.5z"/>
	</g>
	<g>
		<path class="st3" d="M21.7,46.5c-0.1,0-0.1,0-0.2,0c-0.2,0-0.4-0.1-0.4-0.4v-0.8h-0.2v-0.2h0.2v-0.3l0.2-0.1v0.4h0.3v0.2h-0.3v0.8
			c0,0.1,0,0.2,0,0.2c0,0,0.1,0.1,0.2,0.1c0.1,0,0.1,0,0.1,0V46.5z"/>
	</g>
</g>
</svg>
