<?xml version="1.0" encoding="utf-8"?>
<!-- Generator: Adobe Illustrator 23.0.2, SVG Export Plug-In . SVG Version: 6.00 Build 0)  -->
<svg version="1.1" id="图层_1" xmlns="http://www.w3.org/2000/svg" xmlns:xlink="http://www.w3.org/1999/xlink" x="0px" y="0px"
	 viewBox="0 0 450 450" style="enable-background:new 0 0 450 450;" xml:space="preserve">
<style type="text/css">
	.st0{fill:none;stroke:#37404C;stroke-width:2;stroke-miterlimit:10;}
	.st1{fill:#38414D;}
	.st2{fill:#37404C;}
	.st3{fill:#B2B2B2;}
	.st4{fill:none;stroke:#37404C;stroke-miterlimit:10;}
	.st5{display:none;}
	.st6{display:inline;fill:none;stroke:#37404C;stroke-width:2;stroke-miterlimit:10;}
</style>
<path class="st0" d="M298.39,400.85H144.61c-4.42,0-8-3.58-8-8v-208c0-4.42,3.58-8,8-8h153.78c4.42,0,8,3.58,8,8v208
	C306.39,397.26,302.81,400.85,298.39,400.85z"/>
<path class="st0" d="M298.39,402.83H144.61c-5.52,0-10-4.48-10-10v-47.11c0-5.52,4.48-10,10-10h153.78c5.52,0,10,4.48,10,10v47.11
	C308.39,398.36,303.91,402.83,298.39,402.83z"/>
<path class="st0" d="M134.61,347.72c0-5.52,4.48-10,10-10h153.78c5.52,0,10,4.48,10,10"/>
<path class="st0" d="M282.89,176.89h-12v-144c0-3.31,2.69-6,6-6l0,0c3.31,0,6,2.69,6,6V176.89z"/>
<path class="st1" d="M267.37,347.71c0,0-1.71,4.15-23.07,4.15v26.34c0,0,0.43,9.84,23.07,14.1c22.64-4.26,23.07-14.1,23.07-14.1
	v-26.34C269.08,351.86,267.37,347.71,267.37,347.71z"/>
<g>
	<path class="st2" d="M219.72,266.43h-11.06c-3.03,0-5.49,2.46-5.49,5.49v6.95c0,3.03,2.46,5.49,5.49,5.49h11.06
		c3.03,0,5.49-2.46,5.49-5.49v-6.95C225.21,268.89,222.75,266.43,219.72,266.43z M221.5,279.03c0,0.98-0.8,1.78-1.78,1.78h-11.06
		c-0.98,0-1.78-0.8-1.78-1.78v-7.27c0-0.98,0.8-1.78,1.78-1.78h11.06c0.98,0,1.78,0.8,1.78,1.78V279.03z"/>
	<path class="st2" d="M186.66,284.3c-2.48,0-4.49-2.01-4.49-4.49v-8.83c0-2.48,2.01-4.49,4.49-4.49h13.52v-3.49
		c-11.85,0-12.79-3-12.79-3s-0.95,3-12.79,3v19.03c0,0,0.24,7.11,12.79,10.19c8.01-1.96,11-5.57,12.12-7.92H186.66z"/>
	<path class="st2" d="M200.18,280.8h-11.62c-1.39,0-2.51-1.12-2.51-2.51v-4.97c0-1.39,1.12-2.51,2.51-2.51h11.62V280.8z"/>
	<rect x="226.61" y="266.43" class="st2" width="20.85" height="4.38"/>
	<rect x="234.79" y="269.98" class="st2" width="4.5" height="14.37"/>
	<polygon class="st2" points="268.41,284.36 262.89,284.36 248.35,266.43 253.88,266.43 	"/>
	<polygon class="st2" points="248.35,284.36 253.88,284.36 268.41,266.43 262.89,266.43 	"/>
</g>
<rect x="248.51" y="358.44" class="st3" width="37.64" height="22.44"/>
<path class="st4" d="M154.66,338"/>
<path class="st4" d="M154.66,176.89"/>
<g class="st5">
	<line class="st6" x1="148.93" y1="337.4" x2="148.93" y2="176.29"/>
	<line class="st6" x1="143" y1="337.4" x2="143" y2="176.29"/>
	<line class="st6" x1="277.49" y1="337.4" x2="277.49" y2="176.29"/>
	<line class="st6" x1="261.42" y1="337.4" x2="261.42" y2="176.29"/>
	<line class="st6" x1="245.35" y1="337.4" x2="245.35" y2="176.29"/>
	<line class="st6" x1="229.28" y1="337.4" x2="229.28" y2="176.29"/>
	<line class="st6" x1="213.21" y1="337.4" x2="213.21" y2="176.29"/>
	<line class="st6" x1="197.14" y1="337.4" x2="197.14" y2="176.29"/>
	<line class="st6" x1="181.07" y1="337.4" x2="181.07" y2="176.29"/>
	<line class="st6" x1="165" y1="337.4" x2="165" y2="176.29"/>
	<line class="st6" x1="293.56" y1="337.4" x2="293.56" y2="176.29"/>
	<line class="st6" x1="156.96" y1="337.4" x2="156.96" y2="176.29"/>
	<line class="st6" x1="285.52" y1="337.4" x2="285.52" y2="176.29"/>
	<line class="st6" x1="269.45" y1="337.4" x2="269.45" y2="176.29"/>
	<line class="st6" x1="253.38" y1="337.4" x2="253.38" y2="176.29"/>
	<line class="st6" x1="237.31" y1="337.4" x2="237.31" y2="176.29"/>
	<line class="st6" x1="221.24" y1="337.4" x2="221.24" y2="176.29"/>
	<line class="st6" x1="205.17" y1="337.4" x2="205.17" y2="176.29"/>
	<line class="st6" x1="189.1" y1="337.4" x2="189.1" y2="176.29"/>
	<line class="st6" x1="173.03" y1="337.4" x2="173.03" y2="176.29"/>
	<line class="st6" x1="301.59" y1="338.67" x2="301.59" y2="177.56"/>
</g>
</svg>
