<?xml version="1.0" encoding="utf-8"?>
<!-- Generator: Adobe Illustrator 23.0.2, SVG Export Plug-In . SVG Version: 6.00 Build 0)  -->
<svg version="1.1" id="图层_1" xmlns="http://www.w3.org/2000/svg" xmlns:xlink="http://www.w3.org/1999/xlink" x="0px" y="0px"
	 viewBox="0 0 2000 2000" style="enable-background:new 0 0 2000 2000;" xml:space="preserve">
<style type="text/css">
	.st0{fill:none;stroke:#37404C;stroke-width:30;stroke-miterlimit:10;}
	.st1{fill:#38414D;}
	.st2{fill:#37404C;}
	.st3{fill:#B2B2B2;}
	.st4{fill:none;stroke:#37404C;stroke-miterlimit:10;}
</style>
<path class="st0" d="M1417.27,1908.37H581.87c-4.42,0-8-3.58-8-8V793.05c0-4.42,3.58-8,8-8h835.41c4.42,0,8,3.58,8,8v1107.32
	C1425.27,1904.78,1421.69,1908.37,1417.27,1908.37z"/>
<path class="st0" d="M1425.3,1918.33H573.84c-5.52,0-10-4.48-10-10v-316.55c0-5.52,4.48-10,10-10h851.47c5.52,0,10,4.48,10,10
	v316.55C1435.3,1913.86,1430.83,1918.33,1425.3,1918.33z"/>
<path class="st0" d="M568.84,1615.93c0-27.7,17.45-30.15,45.15-30.15h771.17c27.7,0,45.15,2.45,45.15,30.15"/>
<path class="st0" d="M1307.42,785.05h-60.18V62.91c0-16.62,13.47-30.09,30.09-30.09h0c16.62,0,30.09,13.47,30.09,30.09V785.05z"/>
<path class="st1" d="M1229.62,1641.88c0,0-8.57,20.83-115.69,20.83v132.08c0,0,2.14,49.33,115.69,70.7
	c113.55-21.37,115.69-70.7,115.69-70.7V1662.7C1238.19,1662.7,1229.62,1641.88,1229.62,1641.88z"/>
<g>
	<path class="st2" d="M990.66,1234.29h-55.45c-15.2,0-27.53,12.32-27.53,27.53v34.85c0,15.2,12.32,27.53,27.53,27.53h55.45
		c15.2,0,27.53-12.32,27.53-27.53v-34.85C1018.19,1246.62,1005.86,1234.29,990.66,1234.29z M999.57,1297.47
		c0,4.92-3.99,8.91-8.91,8.91h-55.45c-4.92,0-8.91-3.99-8.91-8.91v-36.44c0-4.92,3.99-8.91,8.91-8.91h55.45
		c4.92,0,8.91,3.99,8.91,8.91V1297.47z"/>
	<path class="st2" d="M824.85,1323.9c-12.44,0-22.53-10.09-22.53-22.53v-44.26c0-12.44,10.09-22.53,22.53-22.53h67.78v-17.53
		c-59.41,0-64.16-15.05-64.16-15.05s-4.75,15.05-64.16,15.05v95.45c0,0,1.19,35.65,64.16,51.09c40.17-9.85,55.18-27.91,60.8-39.71
		H824.85z"/>
	<path class="st2" d="M892.63,1306.38h-68.38c-1.39,0-2.51-1.12-2.51-2.51v-45.08c0-1.39,1.12-2.51,2.51-2.51h68.38V1306.38z"/>
	<rect x="1025.22" y="1234.29" class="st2" width="104.56" height="21.98"/>
	<rect x="1066.21" y="1252.12" class="st2" width="22.58" height="72.08"/>
	<polygon class="st2" points="1234.84,1324.2 1207.11,1324.2 1134.23,1234.29 1161.96,1234.29 	"/>
	<polygon class="st2" points="1134.23,1324.2 1161.96,1324.2 1234.84,1234.29 1207.11,1234.29 	"/>
</g>
<rect x="1135" y="1695.73" class="st3" width="188.74" height="112.55"/>
<path class="st4" d="M664.4,1593.21"/>
<path class="st4" d="M664.4,785.26"/>
</svg>
