<?xml version="1.0" encoding="utf-8"?>
<!-- Generator: Adobe Illustrator 16.0.0, SVG Export Plug-In . SVG Version: 6.00 Build 0)  -->
<!DOCTYPE svg PUBLIC "-//W3C//DTD SVG 1.1//EN" "http://www.w3.org/Graphics/SVG/1.1/DTD/svg11.dtd">
<svg version="1.1" id="图层_1" xmlns="http://www.w3.org/2000/svg" xmlns:xlink="http://www.w3.org/1999/xlink" x="0px" y="0px"
	 width="595.28px" height="841.89px" viewBox="0 0 595.28 841.89" enable-background="new 0 0 595.28 841.89" xml:space="preserve">
<path fill="none" stroke="#000000" stroke-width="2.5" stroke-linecap="round" stroke-linejoin="round" stroke-miterlimit="10" d="
	M430.667,541.83c0,4.677-3.827,8.504-8.504,8.504H180.837c-4.677,0-8.504-3.827-8.504-8.504V315.171
	c0-4.677,3.827-8.504,8.504-8.504h241.326c4.677,0,8.504,3.827,8.504,8.504V541.83z"/>
<line fill="none" stroke="#000000" stroke-width="2.5" stroke-linecap="round" stroke-linejoin="round" stroke-miterlimit="10" x1="420" y1="550" x2="420" y2="306.667"/>
<line fill="none" stroke="#000000" stroke-width="2.5" stroke-linecap="round" stroke-linejoin="round" stroke-miterlimit="10" x1="410.666" y1="550" x2="410.666" y2="306.667"/>
<line fill="none" stroke="#000000" stroke-width="2.5" stroke-linecap="round" stroke-linejoin="round" stroke-miterlimit="10" x1="401.332" y1="550" x2="401.332" y2="306.667"/>
<line fill="none" stroke="#000000" stroke-width="2.5" stroke-linecap="round" stroke-linejoin="round" stroke-miterlimit="10" x1="391.998" y1="550" x2="391.998" y2="306.667"/>
<line fill="none" stroke="#000000" stroke-width="2.5" stroke-linecap="round" stroke-linejoin="round" stroke-miterlimit="10" x1="382.664" y1="550" x2="382.664" y2="306.667"/>
<line fill="none" stroke="#000000" stroke-width="2.5" stroke-linecap="round" stroke-linejoin="round" stroke-miterlimit="10" x1="373.33" y1="550" x2="373.33" y2="306.667"/>
<line fill="none" stroke="#000000" stroke-width="2.5" stroke-linecap="round" stroke-linejoin="round" stroke-miterlimit="10" x1="363.996" y1="550" x2="363.996" y2="306.667"/>
<line fill="none" stroke="#000000" stroke-width="2.5" stroke-linecap="round" stroke-linejoin="round" stroke-miterlimit="10" x1="354.662" y1="550" x2="354.662" y2="306.667"/>
<line fill="none" stroke="#000000" stroke-width="2.5" stroke-linecap="round" stroke-linejoin="round" stroke-miterlimit="10" x1="345.328" y1="550" x2="345.328" y2="306.667"/>
<line fill="none" stroke="#000000" stroke-width="2.5" stroke-linecap="round" stroke-linejoin="round" stroke-miterlimit="10" x1="335.994" y1="550" x2="335.994" y2="306.667"/>
<line fill="none" stroke="#000000" stroke-width="2.5" stroke-linecap="round" stroke-linejoin="round" stroke-miterlimit="10" x1="326.66" y1="550" x2="326.66" y2="306.667"/>
<line fill="none" stroke="#000000" stroke-width="2.5" stroke-linecap="round" stroke-linejoin="round" stroke-miterlimit="10" x1="317.326" y1="550" x2="317.326" y2="306.667"/>
<line fill="none" stroke="#000000" stroke-width="2.5" stroke-linecap="round" stroke-linejoin="round" stroke-miterlimit="10" x1="307.992" y1="550" x2="307.992" y2="306.667"/>
<line fill="none" stroke="#000000" stroke-width="2.5" stroke-linecap="round" stroke-linejoin="round" stroke-miterlimit="10" x1="298.658" y1="550" x2="298.658" y2="306.667"/>
<line fill="none" stroke="#000000" stroke-width="2.5" stroke-linecap="round" stroke-linejoin="round" stroke-miterlimit="10" x1="289.324" y1="550" x2="289.324" y2="306.667"/>
<line fill="none" stroke="#000000" stroke-width="2.5" stroke-linecap="round" stroke-linejoin="round" stroke-miterlimit="10" x1="279.99" y1="550" x2="279.99" y2="306.667"/>
<line fill="none" stroke="#000000" stroke-width="2.5" stroke-linecap="round" stroke-linejoin="round" stroke-miterlimit="10" x1="270.656" y1="550" x2="270.656" y2="306.667"/>
<line fill="none" stroke="#000000" stroke-width="2.5" stroke-linecap="round" stroke-linejoin="round" stroke-miterlimit="10" x1="261.322" y1="496.209" x2="261.322" y2="306.667"/>
<line fill="none" stroke="#000000" stroke-width="2.5" stroke-linecap="round" stroke-linejoin="round" stroke-miterlimit="10" x1="251.988" y1="496.209" x2="251.988" y2="306.667"/>
<line fill="none" stroke="#000000" stroke-width="2.5" stroke-linecap="round" stroke-linejoin="round" stroke-miterlimit="10" x1="242.654" y1="496.209" x2="242.654" y2="306.667"/>
<line fill="none" stroke="#000000" stroke-width="2.5" stroke-linecap="round" stroke-linejoin="round" stroke-miterlimit="10" x1="233.32" y1="496.209" x2="233.32" y2="306.667"/>
<line fill="none" stroke="#000000" stroke-width="2.5" stroke-linecap="round" stroke-linejoin="round" stroke-miterlimit="10" x1="223.986" y1="496.209" x2="223.986" y2="306.667"/>
<line fill="none" stroke="#000000" stroke-width="2.5" stroke-linecap="round" stroke-linejoin="round" stroke-miterlimit="10" x1="214.652" y1="496.209" x2="214.652" y2="306.667"/>
<line fill="none" stroke="#000000" stroke-width="2.5" stroke-linecap="round" stroke-linejoin="round" stroke-miterlimit="10" x1="205.318" y1="496.209" x2="205.318" y2="306.667"/>
<line fill="none" stroke="#000000" stroke-width="2.5" stroke-linecap="round" stroke-linejoin="round" stroke-miterlimit="10" x1="195.984" y1="496.209" x2="195.984" y2="306.667"/>
<line fill="none" stroke="#000000" stroke-width="2.5" stroke-linecap="round" stroke-linejoin="round" stroke-miterlimit="10" x1="186.65" y1="496.209" x2="186.65" y2="306.667"/>
<line fill="none" stroke="#000000" stroke-width="2.5" stroke-linecap="round" stroke-linejoin="round" stroke-miterlimit="10" x1="261.322" y1="550.333" x2="261.322" y2="536"/>
<line fill="none" stroke="#000000" stroke-width="2.5" stroke-linecap="round" stroke-linejoin="round" stroke-miterlimit="10" x1="251.988" y1="550.333" x2="251.988" y2="536"/>
<line fill="none" stroke="#000000" stroke-width="2.5" stroke-linecap="round" stroke-linejoin="round" stroke-miterlimit="10" x1="242.654" y1="550.333" x2="242.654" y2="536"/>
<line fill="none" stroke="#000000" stroke-width="2.5" stroke-linecap="round" stroke-linejoin="round" stroke-miterlimit="10" x1="233.32" y1="550.333" x2="233.32" y2="536"/>
<line fill="none" stroke="#000000" stroke-width="2.5" stroke-linecap="round" stroke-linejoin="round" stroke-miterlimit="10" x1="223.986" y1="550.333" x2="223.986" y2="536"/>
<line fill="none" stroke="#000000" stroke-width="2.5" stroke-linecap="round" stroke-linejoin="round" stroke-miterlimit="10" x1="214.652" y1="550.333" x2="214.652" y2="536"/>
<line fill="none" stroke="#000000" stroke-width="2.5" stroke-linecap="round" stroke-linejoin="round" stroke-miterlimit="10" x1="205.318" y1="550.333" x2="205.318" y2="536"/>
<line fill="none" stroke="#000000" stroke-width="2.5" stroke-linecap="round" stroke-linejoin="round" stroke-miterlimit="10" x1="195.984" y1="550.333" x2="195.984" y2="536"/>
<line fill="none" stroke="#000000" stroke-width="2.5" stroke-linecap="round" stroke-linejoin="round" stroke-miterlimit="10" x1="186.65" y1="550.333" x2="186.65" y2="536"/>
<line fill="none" stroke="#000000" stroke-width="2.5" stroke-linecap="round" stroke-linejoin="round" stroke-miterlimit="10" x1="177.316" y1="550" x2="177.316" y2="307.943"/>
<rect x="184.24" y="496.437" fill="none" stroke="#000000" stroke-width="2.5" stroke-linecap="round" stroke-linejoin="round" stroke-miterlimit="10" width="77.803" height="38.588"/>
<line fill="none" stroke="#000000" stroke-width="2" stroke-linecap="round" stroke-linejoin="round" stroke-miterlimit="10" x1="163.846" y1="513.484" x2="163.846" y2="344.434"/>
<circle fill="none" stroke="#000000" stroke-width="2.5" stroke-linecap="round" stroke-linejoin="round" stroke-miterlimit="10" cx="454.673" cy="331.672" r="3.182"/>
<circle fill="none" stroke="#000000" stroke-width="2" stroke-linecap="round" stroke-linejoin="round" stroke-miterlimit="10" cx="454.123" cy="332.223" r="6.181"/>
<path fill="none" stroke="#000000" stroke-width="2" stroke-linecap="round" stroke-linejoin="round" stroke-miterlimit="10" d="
	M452.591,325.761c-0.194-0.015-0.391-0.023-0.589-0.023c-4.393,0-7.955,3.562-7.955,7.955s3.563,7.955,7.955,7.955
	c3.09,0,5.763-1.764,7.08-4.337"/>
<polyline fill="none" stroke="#000000" stroke-width="2" stroke-linecap="round" stroke-linejoin="round" stroke-miterlimit="10" points="
	431.934,343.667 456.164,343.667 456.164,340.913 "/>
<line fill="none" stroke="#000000" stroke-width="2" stroke-linecap="round" stroke-linejoin="round" stroke-miterlimit="10" x1="448.76" y1="325.861" x2="432.055" y2="325.861"/>
<circle fill="none" stroke="#000000" stroke-width="2.5" stroke-linecap="round" stroke-linejoin="round" stroke-miterlimit="10" cx="454.673" cy="525.996" r="3.182"/>
<circle fill="none" stroke="#000000" stroke-width="2" stroke-linecap="round" stroke-linejoin="round" stroke-miterlimit="10" cx="454.123" cy="525.445" r="6.181"/>
<path fill="none" stroke="#000000" stroke-width="2" stroke-linecap="round" stroke-linejoin="round" stroke-miterlimit="10" d="
	M452.591,531.906c-0.194,0.016-0.391,0.023-0.589,0.023c-4.393,0-7.955-3.562-7.955-7.955s3.563-7.955,7.955-7.955
	c3.09,0,5.763,1.764,7.08,4.338"/>
<polyline fill="none" stroke="#000000" stroke-width="2" stroke-linecap="round" stroke-linejoin="round" stroke-miterlimit="10" points="
	431.934,514.001 456.164,514.001 456.164,516.755 "/>
<line fill="none" stroke="#000000" stroke-width="2" stroke-linecap="round" stroke-linejoin="round" stroke-miterlimit="10" x1="448.76" y1="531.807" x2="432.055" y2="531.807"/>
<circle fill="none" stroke="#000000" stroke-width="2.5" stroke-linecap="round" stroke-linejoin="round" stroke-miterlimit="10" cx="147.995" cy="331.672" r="3.182"/>
<circle fill="none" stroke="#000000" stroke-width="2" stroke-linecap="round" stroke-linejoin="round" stroke-miterlimit="10" cx="148.545" cy="332.223" r="6.181"/>
<path fill="none" stroke="#000000" stroke-width="2" stroke-linecap="round" stroke-linejoin="round" stroke-miterlimit="10" d="
	M150.077,325.761c0.194-0.015,0.391-0.023,0.589-0.023c4.393,0,7.955,3.562,7.955,7.955s-3.563,7.955-7.955,7.955
	c-3.09,0-5.763-1.764-7.08-4.337"/>
<polyline fill="none" stroke="#000000" stroke-width="2" stroke-linecap="round" stroke-linejoin="round" stroke-miterlimit="10" points="
	170.734,343.667 146.504,343.667 146.504,340.913 "/>
<line fill="none" stroke="#000000" stroke-width="2" stroke-linecap="round" stroke-linejoin="round" stroke-miterlimit="10" x1="153.908" y1="325.861" x2="170.613" y2="325.861"/>
<circle fill="none" stroke="#000000" stroke-width="2.5" stroke-linecap="round" stroke-linejoin="round" stroke-miterlimit="10" cx="147.995" cy="525.996" r="3.182"/>
<circle fill="none" stroke="#000000" stroke-width="2" stroke-linecap="round" stroke-linejoin="round" stroke-miterlimit="10" cx="148.545" cy="525.445" r="6.181"/>
<path fill="none" stroke="#000000" stroke-width="2" stroke-linecap="round" stroke-linejoin="round" stroke-miterlimit="10" d="
	M150.077,531.906c0.194,0.016,0.391,0.023,0.589,0.023c4.393,0,7.955-3.562,7.955-7.955s-3.563-7.955-7.955-7.955
	c-3.09,0-5.763,1.764-7.08,4.338"/>
<polyline fill="none" stroke="#000000" stroke-width="2" stroke-linecap="round" stroke-linejoin="round" stroke-miterlimit="10" points="
	170.734,514.001 146.504,514.001 146.504,516.755 "/>
<line fill="none" stroke="#000000" stroke-width="2" stroke-linecap="round" stroke-linejoin="round" stroke-miterlimit="10" x1="153.908" y1="531.807" x2="170.613" y2="531.807"/>
<path fill="none" stroke="#000000" stroke-width="2" stroke-linecap="round" stroke-linejoin="round" stroke-miterlimit="10" d="
	M440.408,531.929c0,0,0-1.062,0,8.758s-5.175,14.198-15.26,14.198H178.84c-10.085,0-15.26-4.379-15.26-14.198s0-8.758,0-8.758"/>
<line fill="none" stroke="#000000" stroke-width="2" stroke-linecap="round" stroke-linejoin="round" stroke-miterlimit="10" x1="440.143" y1="370.574" x2="440.143" y2="344.434"/>
<line fill="none" stroke="#000000" stroke-width="2" stroke-linecap="round" stroke-linejoin="round" stroke-miterlimit="10" x1="440.143" y1="499.396" x2="440.143" y2="376.861"/>
<line fill="none" stroke="#000000" stroke-width="2" stroke-linecap="round" stroke-linejoin="round" stroke-miterlimit="10" x1="440.143" y1="513.484" x2="440.143" y2="506.719"/>
<path fill="none" stroke="#000000" stroke-width="2" stroke-linecap="round" stroke-linejoin="round" stroke-miterlimit="10" d="
	M440.275,325.857c0,0,0-4.511,0-13.004s-8.758-12.606-18.047-12.606H181.759c-9.289,0-18.046,4.113-18.046,12.606s0,13.004,0,13.004
	"/>
<polyline fill="none" stroke="#000000" stroke-width="2" stroke-linecap="round" stroke-linejoin="round" stroke-miterlimit="10" points="
	431.023,501.371 461.298,498.245 461.298,504.415 430.612,506.883 "/>
<path fill="none" stroke="#000000" stroke-width="2" stroke-linecap="round" stroke-linejoin="round" stroke-miterlimit="10" d="
	M440.648,487.303h4.196c0,0,3.785,1.234,7.075,1.234s8.72,0,8.72,0v7.733h-1.974v-3.702h-9.626v4.031c0,0-1.892,0-3.866,0
	s-1.729-2.386-4.854-2.386"/>
<polyline fill="none" stroke="#000000" stroke-width="2" stroke-linecap="round" stroke-linejoin="round" stroke-miterlimit="10" points="
	448.629,488.043 448.629,485.246 459.488,485.246 459.488,488.619 "/>
<line fill="none" stroke="#000000" stroke-width="2" stroke-linecap="round" stroke-linejoin="round" stroke-miterlimit="10" x1="460.969" y1="496.105" x2="460.969" y2="498.574"/>
<line fill="none" stroke="#000000" stroke-width="2" stroke-linecap="round" stroke-linejoin="round" stroke-miterlimit="10" x1="440.648" y1="497.011" x2="460.394" y2="497.258"/>
<polyline fill="none" stroke="#000000" stroke-width="2" stroke-linecap="round" stroke-linejoin="round" stroke-miterlimit="10" points="
	431.023,370.084 461.298,372.208 461.298,378.378 430.612,375.596 "/>
<path fill="none" stroke="#000000" stroke-width="2" stroke-linecap="round" stroke-linejoin="round" stroke-miterlimit="10" d="
	M440.648,361.266h4.196c0,0,3.785,1.234,7.075,1.234s8.72,0,8.72,0v7.733h-1.974v-3.702h-9.626v4.031c0,0-1.892,0-3.866,0
	s-1.729-2.386-4.854-2.386"/>
<polyline fill="none" stroke="#000000" stroke-width="2" stroke-linecap="round" stroke-linejoin="round" stroke-miterlimit="10" points="
	448.629,362.006 448.629,359.209 459.488,359.209 459.488,362.582 "/>
<line fill="none" stroke="#000000" stroke-width="2" stroke-linecap="round" stroke-linejoin="round" stroke-miterlimit="10" x1="460.969" y1="370.068" x2="460.969" y2="372.537"/>
<line fill="none" stroke="#000000" stroke-width="2" stroke-linecap="round" stroke-linejoin="round" stroke-miterlimit="10" x1="440.648" y1="370.974" x2="460.394" y2="371.221"/>
<rect x="204.105" y="555.2" fill="none" stroke="#000000" stroke-width="2" stroke-linecap="round" stroke-linejoin="round" stroke-miterlimit="10" width="4.387" height="4.935"/>
<rect x="390.255" y="555.2" fill="none" stroke="#000000" stroke-width="2" stroke-linecap="round" stroke-linejoin="round" stroke-miterlimit="10" width="4.387" height="4.935"/>
</svg>
