<?xml version="1.0" encoding="utf-8"?>
<!-- Generator: Adobe Illustrator 23.0.2, SVG Export Plug-In . SVG Version: 6.00 Build 0)  -->
<svg version="1.1" id="图层_1" xmlns="http://www.w3.org/2000/svg" xmlns:xlink="http://www.w3.org/1999/xlink" x="0px" y="0px"
	 viewBox="0 0 355.2 310.8" enable-background="new 0 0 355.2 310.8" xml:space="preserve">
<path fill="none" stroke="#000000" stroke-width="2.5" stroke-linecap="round" stroke-linejoin="round" stroke-miterlimit="10" d="
	M304.067,270.63c0,4.677-3.827,8.504-8.504,8.504H54.237c-4.677,0-8.504-3.827-8.504-8.504V43.971c0-4.677,3.827-8.504,8.504-8.504
	h241.326c4.677,0,8.504,3.827,8.504,8.504V270.63z"/>
<line fill="none" stroke="#000000" stroke-width="2.5" stroke-linecap="round" stroke-linejoin="round" stroke-miterlimit="10" x1="293.4" y1="278.8" x2="293.4" y2="35.467"/>
<line fill="none" stroke="#000000" stroke-width="2.5" stroke-linecap="round" stroke-linejoin="round" stroke-miterlimit="10" x1="284.066" y1="278.8" x2="284.066" y2="35.467"/>
<line fill="none" stroke="#000000" stroke-width="2.5" stroke-linecap="round" stroke-linejoin="round" stroke-miterlimit="10" x1="274.732" y1="278.8" x2="274.732" y2="35.467"/>
<line fill="none" stroke="#000000" stroke-width="2.5" stroke-linecap="round" stroke-linejoin="round" stroke-miterlimit="10" x1="265.398" y1="278.8" x2="265.398" y2="35.467"/>
<line fill="none" stroke="#000000" stroke-width="2.5" stroke-linecap="round" stroke-linejoin="round" stroke-miterlimit="10" x1="256.064" y1="278.8" x2="256.064" y2="35.467"/>
<line fill="none" stroke="#000000" stroke-width="2.5" stroke-linecap="round" stroke-linejoin="round" stroke-miterlimit="10" x1="246.73" y1="278.8" x2="246.73" y2="35.467"/>
<line fill="none" stroke="#000000" stroke-width="2.5" stroke-linecap="round" stroke-linejoin="round" stroke-miterlimit="10" x1="237.396" y1="278.8" x2="237.396" y2="35.467"/>
<line fill="none" stroke="#000000" stroke-width="2.5" stroke-linecap="round" stroke-linejoin="round" stroke-miterlimit="10" x1="228.062" y1="278.8" x2="228.062" y2="35.467"/>
<line fill="none" stroke="#000000" stroke-width="2.5" stroke-linecap="round" stroke-linejoin="round" stroke-miterlimit="10" x1="218.728" y1="278.8" x2="218.728" y2="35.467"/>
<line fill="none" stroke="#000000" stroke-width="2.5" stroke-linecap="round" stroke-linejoin="round" stroke-miterlimit="10" x1="209.394" y1="278.8" x2="209.394" y2="35.467"/>
<line fill="none" stroke="#000000" stroke-width="2.5" stroke-linecap="round" stroke-linejoin="round" stroke-miterlimit="10" x1="200.06" y1="278.8" x2="200.06" y2="35.467"/>
<line fill="none" stroke="#000000" stroke-width="2.5" stroke-linecap="round" stroke-linejoin="round" stroke-miterlimit="10" x1="190.726" y1="278.8" x2="190.726" y2="35.467"/>
<line fill="none" stroke="#000000" stroke-width="2.5" stroke-linecap="round" stroke-linejoin="round" stroke-miterlimit="10" x1="181.392" y1="278.8" x2="181.392" y2="35.467"/>
<line fill="none" stroke="#000000" stroke-width="2.5" stroke-linecap="round" stroke-linejoin="round" stroke-miterlimit="10" x1="172.058" y1="278.8" x2="172.058" y2="35.467"/>
<line fill="none" stroke="#000000" stroke-width="2.5" stroke-linecap="round" stroke-linejoin="round" stroke-miterlimit="10" x1="162.724" y1="278.8" x2="162.724" y2="35.467"/>
<line fill="none" stroke="#000000" stroke-width="2.5" stroke-linecap="round" stroke-linejoin="round" stroke-miterlimit="10" x1="153.39" y1="278.8" x2="153.39" y2="35.467"/>
<line fill="none" stroke="#000000" stroke-width="2.5" stroke-linecap="round" stroke-linejoin="round" stroke-miterlimit="10" x1="144.056" y1="278.8" x2="144.056" y2="35.467"/>
<line fill="none" stroke="#000000" stroke-width="2.5" stroke-linecap="round" stroke-linejoin="round" stroke-miterlimit="10" x1="134.722" y1="225.009" x2="134.722" y2="35.467"/>
<line fill="none" stroke="#000000" stroke-width="2.5" stroke-linecap="round" stroke-linejoin="round" stroke-miterlimit="10" x1="125.388" y1="225.009" x2="125.388" y2="35.467"/>
<line fill="none" stroke="#000000" stroke-width="2.5" stroke-linecap="round" stroke-linejoin="round" stroke-miterlimit="10" x1="116.054" y1="225.009" x2="116.054" y2="35.467"/>
<line fill="none" stroke="#000000" stroke-width="2.5" stroke-linecap="round" stroke-linejoin="round" stroke-miterlimit="10" x1="106.72" y1="225.009" x2="106.72" y2="35.467"/>
<line fill="none" stroke="#000000" stroke-width="2.5" stroke-linecap="round" stroke-linejoin="round" stroke-miterlimit="10" x1="97.386" y1="225.009" x2="97.386" y2="35.467"/>
<line fill="none" stroke="#000000" stroke-width="2.5" stroke-linecap="round" stroke-linejoin="round" stroke-miterlimit="10" x1="88.052" y1="225.009" x2="88.052" y2="35.467"/>
<line fill="none" stroke="#000000" stroke-width="2.5" stroke-linecap="round" stroke-linejoin="round" stroke-miterlimit="10" x1="78.718" y1="225.009" x2="78.718" y2="35.467"/>
<line fill="none" stroke="#000000" stroke-width="2.5" stroke-linecap="round" stroke-linejoin="round" stroke-miterlimit="10" x1="69.384" y1="225.009" x2="69.384" y2="35.467"/>
<line fill="none" stroke="#000000" stroke-width="2.5" stroke-linecap="round" stroke-linejoin="round" stroke-miterlimit="10" x1="60.05" y1="225.009" x2="60.05" y2="35.467"/>
<line fill="none" stroke="#000000" stroke-width="2.5" stroke-linecap="round" stroke-linejoin="round" stroke-miterlimit="10" x1="134.722" y1="279.133" x2="134.722" y2="264.8"/>
<line fill="none" stroke="#000000" stroke-width="2.5" stroke-linecap="round" stroke-linejoin="round" stroke-miterlimit="10" x1="125.388" y1="279.133" x2="125.388" y2="264.8"/>
<line fill="none" stroke="#000000" stroke-width="2.5" stroke-linecap="round" stroke-linejoin="round" stroke-miterlimit="10" x1="116.054" y1="279.133" x2="116.054" y2="264.8"/>
<line fill="none" stroke="#000000" stroke-width="2.5" stroke-linecap="round" stroke-linejoin="round" stroke-miterlimit="10" x1="106.72" y1="279.133" x2="106.72" y2="264.8"/>
<line fill="none" stroke="#000000" stroke-width="2.5" stroke-linecap="round" stroke-linejoin="round" stroke-miterlimit="10" x1="97.386" y1="279.133" x2="97.386" y2="264.8"/>
<line fill="none" stroke="#000000" stroke-width="2.5" stroke-linecap="round" stroke-linejoin="round" stroke-miterlimit="10" x1="88.052" y1="279.133" x2="88.052" y2="264.8"/>
<line fill="none" stroke="#000000" stroke-width="2.5" stroke-linecap="round" stroke-linejoin="round" stroke-miterlimit="10" x1="78.718" y1="279.133" x2="78.718" y2="264.8"/>
<line fill="none" stroke="#000000" stroke-width="2.5" stroke-linecap="round" stroke-linejoin="round" stroke-miterlimit="10" x1="69.384" y1="279.133" x2="69.384" y2="264.8"/>
<line fill="none" stroke="#000000" stroke-width="2.5" stroke-linecap="round" stroke-linejoin="round" stroke-miterlimit="10" x1="60.05" y1="279.133" x2="60.05" y2="264.8"/>
<line fill="none" stroke="#000000" stroke-width="2.5" stroke-linecap="round" stroke-linejoin="round" stroke-miterlimit="10" x1="50.716" y1="278.8" x2="50.716" y2="36.743"/>
<rect x="57.64" y="225.236" fill="none" stroke="#000000" stroke-width="2.5" stroke-linecap="round" stroke-linejoin="round" stroke-miterlimit="10" width="77.803" height="38.588"/>
<line fill="none" stroke="#000000" stroke-width="2" stroke-linecap="round" stroke-linejoin="round" stroke-miterlimit="10" x1="37.246" y1="242.284" x2="37.246" y2="73.234"/>
<path fill="none" stroke="#000000" stroke-width="2.5" stroke-linecap="round" stroke-linejoin="round" stroke-miterlimit="10" d="
	M324.891,60.472c0-1.757,1.424-3.182,3.182-3.182c1.758,0,3.182,1.425,3.182,3.182c0,1.757-1.424,3.182-3.182,3.182
	C326.315,63.653,324.891,62.229,324.891,60.472z"/>
<path fill="none" stroke="#000000" stroke-width="2" stroke-linecap="round" stroke-linejoin="round" stroke-miterlimit="10" d="
	M321.342,61.023c0-3.413,2.767-6.181,6.18-6.181c3.414,0,6.182,2.768,6.182,6.181c0,3.413-2.768,6.181-6.182,6.181
	C324.109,67.203,321.342,64.436,321.342,61.023z"/>
<path fill="none" stroke="#000000" stroke-width="2" stroke-linecap="round" stroke-linejoin="round" stroke-miterlimit="10" d="
	M325.991,54.561c-0.194-0.015-0.391-0.023-0.589-0.023c-4.393,0-7.955,3.562-7.955,7.955c0,4.394,3.563,7.955,7.955,7.955
	c3.09,0,5.763-1.764,7.08-4.337"/>
<polyline fill="none" stroke="#000000" stroke-width="2" stroke-linecap="round" stroke-linejoin="round" stroke-miterlimit="10" points="
	305.334,72.467 329.564,72.467 329.564,69.713 "/>
<line fill="none" stroke="#000000" stroke-width="2" stroke-linecap="round" stroke-linejoin="round" stroke-miterlimit="10" x1="322.16" y1="54.661" x2="305.455" y2="54.661"/>
<path fill="none" stroke="#000000" stroke-width="2.5" stroke-linecap="round" stroke-linejoin="round" stroke-miterlimit="10" d="
	M324.891,254.796c0,1.757,1.424,3.182,3.182,3.182c1.758,0,3.182-1.425,3.182-3.182s-1.424-3.182-3.182-3.182
	C326.315,251.615,324.891,253.039,324.891,254.796z"/>
<path fill="none" stroke="#000000" stroke-width="2" stroke-linecap="round" stroke-linejoin="round" stroke-miterlimit="10" d="
	M321.342,254.245c0,3.413,2.767,6.181,6.18,6.181c3.414,0,6.182-2.768,6.182-6.181c0-3.413-2.768-6.181-6.182-6.181
	C324.109,248.065,321.342,250.832,321.342,254.245z"/>
<path fill="none" stroke="#000000" stroke-width="2" stroke-linecap="round" stroke-linejoin="round" stroke-miterlimit="10" d="
	M325.991,260.706c-0.194,0.016-0.391,0.023-0.589,0.023c-4.393,0-7.955-3.561-7.955-7.955c0-4.393,3.563-7.955,7.955-7.955
	c3.09,0,5.763,1.764,7.08,4.338"/>
<polyline fill="none" stroke="#000000" stroke-width="2" stroke-linecap="round" stroke-linejoin="round" stroke-miterlimit="10" points="
	305.334,242.801 329.564,242.801 329.564,245.555 "/>
<line fill="none" stroke="#000000" stroke-width="2" stroke-linecap="round" stroke-linejoin="round" stroke-miterlimit="10" x1="322.16" y1="260.607" x2="305.455" y2="260.607"/>
<path fill="none" stroke="#000000" stroke-width="2.5" stroke-linecap="round" stroke-linejoin="round" stroke-miterlimit="10" d="
	M24.577,60.472c0-1.757-1.424-3.182-3.182-3.182c-1.758,0-3.182,1.425-3.182,3.182c0,1.757,1.424,3.182,3.182,3.182
	C23.153,63.653,24.577,62.229,24.577,60.472z"/>
<path fill="none" stroke="#000000" stroke-width="2" stroke-linecap="round" stroke-linejoin="round" stroke-miterlimit="10" d="
	M28.126,61.023c0-3.413-2.767-6.181-6.18-6.181c-3.414,0-6.182,2.768-6.182,6.181c0,3.413,2.767,6.181,6.182,6.181
	C25.359,67.203,28.126,64.436,28.126,61.023z"/>
<path fill="none" stroke="#000000" stroke-width="2" stroke-linecap="round" stroke-linejoin="round" stroke-miterlimit="10" d="
	M23.477,54.561c0.194-0.015,0.391-0.023,0.589-0.023c4.393,0,7.955,3.562,7.955,7.955c0,4.394-3.563,7.955-7.955,7.955
	c-3.09,0-5.763-1.764-7.08-4.337"/>
<polyline fill="none" stroke="#000000" stroke-width="2" stroke-linecap="round" stroke-linejoin="round" stroke-miterlimit="10" points="
	44.134,72.467 19.904,72.467 19.904,69.713 "/>
<line fill="none" stroke="#000000" stroke-width="2" stroke-linecap="round" stroke-linejoin="round" stroke-miterlimit="10" x1="27.308" y1="54.661" x2="44.013" y2="54.661"/>
<path fill="none" stroke="#000000" stroke-width="2.5" stroke-linecap="round" stroke-linejoin="round" stroke-miterlimit="10" d="
	M24.577,254.796c0,1.757-1.424,3.182-3.182,3.182c-1.758,0-3.182-1.425-3.182-3.182s1.424-3.182,3.182-3.182
	C23.153,251.615,24.577,253.039,24.577,254.796z"/>
<path fill="none" stroke="#000000" stroke-width="2" stroke-linecap="round" stroke-linejoin="round" stroke-miterlimit="10" d="
	M28.126,254.245c0,3.413-2.767,6.181-6.18,6.181c-3.414,0-6.182-2.768-6.182-6.181c0-3.413,2.767-6.181,6.182-6.181
	C25.359,248.065,28.126,250.832,28.126,254.245z"/>
<path fill="none" stroke="#000000" stroke-width="2" stroke-linecap="round" stroke-linejoin="round" stroke-miterlimit="10" d="
	M23.477,260.706c0.194,0.016,0.391,0.023,0.589,0.023c4.393,0,7.955-3.561,7.955-7.955c0-4.393-3.563-7.955-7.955-7.955
	c-3.09,0-5.763,1.764-7.08,4.338"/>
<polyline fill="none" stroke="#000000" stroke-width="2" stroke-linecap="round" stroke-linejoin="round" stroke-miterlimit="10" points="
	44.134,242.801 19.904,242.801 19.904,245.555 "/>
<line fill="none" stroke="#000000" stroke-width="2" stroke-linecap="round" stroke-linejoin="round" stroke-miterlimit="10" x1="27.308" y1="260.607" x2="44.013" y2="260.607"/>
<path fill="none" stroke="#000000" stroke-width="2" stroke-linecap="round" stroke-linejoin="round" stroke-miterlimit="10" d="
	M313.808,260.729c0,0,0-1.061,0,8.758c0,9.819-5.175,14.198-15.26,14.198H52.24c-10.085,0-15.26-4.379-15.26-14.198
	c0-9.819,0-8.758,0-8.758"/>
<line fill="none" stroke="#000000" stroke-width="2" stroke-linecap="round" stroke-linejoin="round" stroke-miterlimit="10" x1="313.543" y1="99.374" x2="313.543" y2="73.234"/>
<line fill="none" stroke="#000000" stroke-width="2" stroke-linecap="round" stroke-linejoin="round" stroke-miterlimit="10" x1="313.543" y1="228.197" x2="313.543" y2="105.661"/>
<line fill="none" stroke="#000000" stroke-width="2" stroke-linecap="round" stroke-linejoin="round" stroke-miterlimit="10" x1="313.543" y1="242.284" x2="313.543" y2="235.519"/>
<path fill="none" stroke="#000000" stroke-width="2" stroke-linecap="round" stroke-linejoin="round" stroke-miterlimit="10" d="
	M313.675,54.657c0,0,0-4.511,0-13.004c0-8.493-8.758-12.606-18.047-12.606H55.159c-9.289,0-18.046,4.113-18.046,12.606
	c0,8.493,0,13.004,0,13.004"/>
<polyline fill="none" stroke="#000000" stroke-width="2" stroke-linecap="round" stroke-linejoin="round" stroke-miterlimit="10" points="
	304.423,230.171 334.698,227.045 334.698,233.215 304.012,235.683 "/>
<path fill="none" stroke="#000000" stroke-width="2" stroke-linecap="round" stroke-linejoin="round" stroke-miterlimit="10" d="
	M314.048,216.103h4.196c0,0,3.785,1.234,7.075,1.234c3.29,0,8.72,0,8.72,0v7.733h-1.974v-3.702h-9.626v4.031c0,0-1.892,0-3.866,0
	s-1.729-2.386-4.854-2.386"/>
<polyline fill="none" stroke="#000000" stroke-width="2" stroke-linecap="round" stroke-linejoin="round" stroke-miterlimit="10" points="
	322.029,216.843 322.029,214.046 332.888,214.046 332.888,217.419 "/>
<line fill="none" stroke="#000000" stroke-width="2" stroke-linecap="round" stroke-linejoin="round" stroke-miterlimit="10" x1="334.369" y1="224.906" x2="334.369" y2="227.374"/>
<line fill="none" stroke="#000000" stroke-width="2" stroke-linecap="round" stroke-linejoin="round" stroke-miterlimit="10" x1="314.048" y1="225.811" x2="333.794" y2="226.058"/>
<polyline fill="none" stroke="#000000" stroke-width="2" stroke-linecap="round" stroke-linejoin="round" stroke-miterlimit="10" points="
	304.423,98.884 334.698,101.008 334.698,107.178 304.012,104.396 "/>
<path fill="none" stroke="#000000" stroke-width="2" stroke-linecap="round" stroke-linejoin="round" stroke-miterlimit="10" d="
	M314.048,90.066h4.196c0,0,3.785,1.234,7.075,1.234c3.29,0,8.72,0,8.72,0v7.733h-1.974v-3.702h-9.626v4.031c0,0-1.892,0-3.866,0
	s-1.729-2.386-4.854-2.386"/>
<polyline fill="none" stroke="#000000" stroke-width="2" stroke-linecap="round" stroke-linejoin="round" stroke-miterlimit="10" points="
	322.029,90.806 322.029,88.009 332.888,88.009 332.888,91.382 "/>
<line fill="none" stroke="#000000" stroke-width="2" stroke-linecap="round" stroke-linejoin="round" stroke-miterlimit="10" x1="334.369" y1="98.868" x2="334.369" y2="101.337"/>
<line fill="none" stroke="#000000" stroke-width="2" stroke-linecap="round" stroke-linejoin="round" stroke-miterlimit="10" x1="314.048" y1="99.774" x2="333.794" y2="100.021"/>
<rect x="77.505" y="284" fill="none" stroke="#000000" stroke-width="2" stroke-linecap="round" stroke-linejoin="round" stroke-miterlimit="10" width="4.387" height="4.935"/>
<rect x="263.655" y="284" fill="none" stroke="#000000" stroke-width="2" stroke-linecap="round" stroke-linejoin="round" stroke-miterlimit="10" width="4.387" height="4.935"/>
</svg>
