<svg id="Linxdot" xmlns="http://www.w3.org/2000/svg" viewBox="0 0 93 94"><defs><style>.cls-1,.cls-2{fill:none;stroke:#000;}.cls-1{stroke-width:2px;}.cls-3{opacity:0.2;}</style></defs><rect class="cls-1" x="8.69" y="9.19" width="75.63" height="75.63" rx="11.34"/><rect class="cls-2" x="20.86" y="21.36" width="51.27" height="51.27" rx="11.34"/><g id="Layer_2" data-name="Layer 2" class="cls-3"><g id="Dark_BG" data-name="Dark BG"><g id="Logo_icon" data-name="Logo icon"><path d="M57.86,35.19V47.45A1.85,1.85,0,0,1,56,49.3H48.8a.77.77,0,0,0-.77.77v5.67a1.85,1.85,0,0,1-1.85,1.85H40.06a1.85,1.85,0,0,1-1.85-1.85V49.62a1.85,1.85,0,0,1,1.85-1.85H55.55a.77.77,0,0,0,.77-.77V35.64a.76.76,0,0,0-.77-.76H44.21a.76.76,0,0,0-.76.76v7.52H41.89v-8a1.85,1.85,0,0,1,1.85-1.85H56a1.85,1.85,0,0,1,1.85,1.85Z"/><path d="M36.68,47V58.37a.76.76,0,0,0,.77.77H48.81a.76.76,0,0,0,.76-.77V50.86h1.54v8a1.85,1.85,0,0,1-1.85,1.85H37a1.85,1.85,0,0,1-1.85-1.85V46.55A1.85,1.85,0,0,1,37,44.7h7.22a.78.78,0,0,0,.77-.77V38.26a1.85,1.85,0,0,1,1.85-1.85h6.11a1.85,1.85,0,0,1,1.85,1.85v6.12a1.85,1.85,0,0,1-1.85,1.85H37.45A.76.76,0,0,0,36.68,47Z"/></g></g></g></svg>