<svg id="svg" version="1.1" xmlns="http://www.w3.org/2000/svg" xmlns:xlink="http://www.w3.org/1999/xlink" width="400" height="400.287976961843" viewBox="0, 0, 400,400.287976961843"><g id="svgg"><path id="path0" d="M191.217 0.306 C 71.060 5.458,-17.648 115.735,2.899 234.413 C 19.897 332.596,107.520 403.667,207.044 399.995 C 326.944 395.570,415.974 288.054,397.810 169.618 C 384.060 79.968,310.895 10.423,220.590 1.167 C 210.727 0.156,201.217 -0.123,191.217 0.306 M210.223 18.724 C 323.513 25.648,403.114 132.513,376.815 242.375 C 356.479 327.330,277.258 386.466,190.353 381.565 C 76.299 375.133,-3.882 266.614,23.753 156.084 C 44.802 71.890,124.122 13.461,210.223 18.724 M187.185 73.470 C 110.559 79.649,57.588 153.502,76.219 228.180 C 99.060 319.739,211.365 353.669,281.580 290.225 C 292.744 280.138,296.243 273.668,295.177 265.089 C 292.816 246.085,269.256 238.411,256.019 252.334 C 224.228 285.772,171.560 286.314,139.957 253.528 C 101.898 214.044,113.599 149.350,163.075 125.708 C 193.876 110.989,228.947 117.326,254.707 142.265 C 260.134 147.518,261.743 148.566,266.251 149.786 C 280.892 153.746,295.293 143.147,295.259 128.438 C 295.239 119.952,291.490 114.178,278.860 103.182 C 253.981 81.521,220.781 70.761,187.185 73.470 M224.766 175.005 C 202.099 178.208,200.182 212.777,222.323 219.053 C 224.800 219.755,330.924 219.890,333.765 219.195 C 354.632 214.086,355.497 182.709,334.965 175.700 L 332.757 174.946 279.194 174.915 C 249.734 174.897,225.241 174.938,224.766 175.005 " stroke="none" fill="#000000" fill-rule="evenodd"></path></g></svg>