<?xml version="1.0" encoding="utf-8"?>
<!-- Generator: Adobe Illustrator 24.0.1, SVG Export Plug-In . SVG Version: 6.00 Build 0)  -->
<svg version="1.1" id="Layer_1" xmlns="http://www.w3.org/2000/svg" xmlns:xlink="http://www.w3.org/1999/xlink" x="0px" y="0px"
	 viewBox="0 0 388.22 388.22" style="enable-background:new 0 0 388.22 388.22;" xml:space="preserve">
<style type="text/css">
	.st0{fill:#999999;}
	.st1{fill:none;}
	.st2{fill:url(#SVGID_1_);}
</style>
<g>
	<g>
		<path class="st0" d="M369.37,368.86H21.16V20.65h348.21V368.86z M35.16,354.86h320.21V34.65H35.16V354.86z"/>
	</g>
	<g>
		<polygon class="st0" points="265.28,206.07 24.08,33.34 32.23,21.96 260.99,185.78 356.34,24.1 368.39,31.21 		"/>
	</g>
	<g>
		<polygon class="st0" points="32.19,367.58 24.12,356.14 265.27,185.85 368.37,358.27 356.36,365.45 261,206 		"/>
	</g>
</g>
<g>
	<g>
		<polygon class="st0" points="64.64,217.17 60.97,210.9 60.2,210.9 60.19,219.48 61.12,219.48 61.15,212.84 64.41,218.43 
			64.92,218.43 68.13,212.87 68.13,219.47 69.1,219.47 69.1,210.9 68.3,210.9 		"/>
		<rect x="71.59" y="213.03" class="st0" width="0.97" height="6.45"/>
		<path class="st0" d="M93.57,216.16c-1.6-0.45-3.3-0.43-3.01-1.52c0.41-1.59,3.51-0.37,3.51-0.37l0.4-0.69c0,0-1.24-0.75-2.96-0.55
			c-0.74,0.08-1.58,0.46-1.79,1.23c-0.55,2.1,1.31,2.21,2.41,2.48c1.07,0.26,1.89,0.31,1.49,1.39c-0.22,0.59-1.34,0.72-2.19,0.55
			c-0.92-0.18-1.64-0.67-1.64-0.67l-0.47,0.71c0,0,1.28,0.81,2.31,0.87c0.39,0.02,0.98,0.01,1.52-0.12
			c0.59-0.15,1.13-0.48,1.33-1.01C94.88,217.39,94.51,216.43,93.57,216.16z"/>
		<path class="st0" d="M88.04,215.9c0-1.19-0.19-1.44-0.19-1.44s-0.37-1.54-2.54-1.54c-1.38,0-2.56,0.92-2.56,0.92l0.4,0.72
			c0,0,0.57-0.56,1.56-0.75c1-0.19,1.72,0.17,2.06,0.7c0.31,0.48,0.19,1.32,0.19,1.32s-3.59-0.47-4.21,0.97
			c-0.78,1.81,0.62,2.72,2.37,2.72c1.46,0,1.97-0.97,1.97-0.97v0.94h0.97C88.04,219.49,88.04,217.26,88.04,215.9z M85.14,218.8
			c-1.56,0-2.07-0.97-1.44-1.82c0.59-0.8,2.56-0.37,3.38-0.47c0,0,0.01,0.12,0.01,0.84C87.1,218.08,85.94,218.8,85.14,218.8z"/>
		<circle class="st0" cx="72.07" cy="211.05" r="0.66"/>
		<path class="st0" d="M79.8,214.11c0,0-0.61-0.8-1.67-1.05c-1.04-0.25-2.59,0.14-3.23,1.01c-0.67,0.91-0.85,1.74-0.65,2.95
			c0.24,1.48,1.58,2.51,3.18,2.51c1.69,0,2.43-1.32,2.43-1.32l0,1.25l0.86-0.01v-9.04l-0.91,0.01L79.8,214.11z M77.37,218.7
			c-1.3,0-2.35-1.1-2.35-2.45c0-1.35,1.05-2.45,2.35-2.45s2.35,1.1,2.35,2.45C79.71,217.61,78.66,218.7,77.37,218.7z"/>
	</g>
	<polygon class="st0" points="91.3,190.85 85.33,181.99 81.84,192.38 88.56,192.38 76.98,208.75 91.3,190.85 84.11,190.85 
		85.96,185.09 	"/>
	<polygon class="st0" points="70.11,190.7 70.87,190.71 75.18,185.21 78.58,190.73 81.62,190.73 76.32,181.98 74.65,181.98 
		70.78,187.35 68.23,181.98 63.41,190.85 67.82,185.13 	"/>
	<path class="st1" d="M73.15,190.85l0.33,1.53h1.68l2.41,9.6l-0.58,6.77l5.32-17.9H73.15z M76.68,192.38h2.68l-1.27,6.57
		L76.68,192.38z"/>
	<polygon class="st1" points="82.26,190.75 85.33,181.99 82.97,181.98 80.59,188.86 81.7,190.73 	"/>
	<polygon class="st1" points="82.97,181.98 85.33,181.99 82.22,190.73 81.7,190.73 80.59,188.86 	"/>
	<polygon class="st0" points="82.84,181.98 85.21,181.99 82.18,190.73 81.75,190.73 80.57,188.78 	"/>
	<path class="st0" d="M72.98,190.85h-9.58l13.58,17.9L72.98,190.85z M71.1,192.38l4.91,14.29l-9.89-14.29H71.1z"/>
	
		<linearGradient id="SVGID_1_" gradientUnits="userSpaceOnUse" x1="-69318.6953" y1="-21746.8926" x2="-69306.0938" y2="-21746.8926" gradientTransform="matrix(-0.206 -0.192 0.192 -0.206 -10015.3066 -17609.5469)">
		<stop  offset="0" style="stop-color:#FFFFFF;stop-opacity:0"/>
		<stop  offset="0.1031" style="stop-color:#FCFCFC;stop-opacity:0.1977"/>
		<stop  offset="0.5215" style="stop-color:#F6F6F6"/>
		<stop  offset="1" style="stop-color:#F6F6F6;stop-opacity:0"/>
	</linearGradient>
	<polygon class="st2" points="84.28,177.88 84.47,180.15 86.75,180.3 84.47,180.5 84.32,182.77 84.13,180.5 81.85,180.35 
		84.13,180.16 	"/>
	<polygon class="st0" points="84.28,177.88 84.47,180.15 87.25,180.3 84.47,180.5 84.32,182.77 84.13,180.5 75.31,180.35 
		84.13,180.16 	"/>
	<path class="st0" d="M76.68,192.38h2.68l-1.27,6.57L76.68,192.38z M82.18,190.85H73.1l0.34,1.53h1.71l2.41,9.6l-0.58,6.77
		L82.18,190.85z"/>
</g>
</svg>
