<svg width="93" height="94" viewBox="0 0 93 94" fill="none" xmlns="http://www.w3.org/2000/svg">
<path d="M67.3125 9.30579H25.6865C16.2977 9.30579 8.68652 16.9169 8.68652 26.3058V67.9318C8.68652 77.3206 16.2977 84.9318 25.6865 84.9318H67.3125C76.7014 84.9318 84.3125 77.3206 84.3125 67.9318V26.3058C84.3125 16.9169 76.7014 9.30579 67.3125 9.30579Z" stroke="black" stroke-width="2"/>
<path d="M46.5 29H46.5C36.2827 29 28 37.2827 28 47.5V47.5C28 57.7173 36.2827 66 46.5 66H46.5C56.7173 66 65 57.7173 65 47.5V47.5C65 37.2827 56.7173 29 46.5 29Z" stroke="black"/>
<g clip-path="url(#clip0_261:21)">
<path fill-rule="evenodd" clip-rule="evenodd" d="M60.0806 44.8628L60.1891 44.3877L62.0002 45.1169H51.251L60.0806 44.8628Z" fill="black"/>
<path fill-rule="evenodd" clip-rule="evenodd" d="M52.3021 47.9297C52.3021 47.9297 52.2709 48.0542 52.2794 48.1788C52.2936 48.3825 52.4087 48.6292 52.9117 48.6498C53.4695 48.6737 53.6639 48.3809 53.7469 48.1598C53.7847 48.0575 53.8177 47.9289 53.8177 47.9289L54.3953 45.5648H56.2422L55.1814 49.8895H53.4497L53.5459 49.407C53.5459 49.407 53.562 49.3616 53.5261 49.3567C53.5091 49.3542 53.4912 49.3616 53.4676 49.379C53.4412 49.3987 53.4081 49.4301 53.3817 49.4515C53.2902 49.5217 53.1241 49.6363 52.9193 49.7221C52.689 49.8178 52.3785 49.8821 52.0435 49.8978C51.7594 49.911 51.4546 49.8895 51.197 49.8095C50.9506 49.7336 50.7109 49.5588 50.5722 49.3328C50.4948 49.2066 50.4344 49.0432 50.4137 48.9022C50.3636 48.5508 50.4712 48.1928 50.4712 48.1928L51.1092 45.5656H52.8976L52.3021 47.9297Z" fill="black"/>
<path fill-rule="evenodd" clip-rule="evenodd" d="M47.8182 46.5059C47.4397 46.3731 46.9886 46.5356 46.9886 46.5356C46.9886 46.5356 46.7329 46.6222 46.7216 46.8392C46.7178 46.9035 46.7499 46.9662 46.8065 47.005C46.882 47.0561 46.9896 47.0726 46.9896 47.0726C46.9896 47.0726 47.1028 47.0907 47.268 47.1072C47.5332 47.1345 47.8993 47.165 47.8993 47.165C47.8993 47.165 48.2825 47.2013 48.6411 47.3027C48.8044 47.3489 49.1413 47.4314 49.4235 47.631C49.65 47.7919 49.8482 48.0286 49.8302 48.3734C49.8019 48.912 49.2451 49.3352 49.2451 49.3352C49.2451 49.3352 48.6874 49.8177 47.4728 49.9456C47.0755 49.9876 46.6394 50.0157 46.2969 49.9893C45.1974 49.9027 44.7822 49.5298 44.6264 49.3822C44.2886 49.0621 44.2188 48.5846 44.2188 48.5846H46.2346C46.2346 48.5846 46.2393 48.7157 46.3337 48.8444C46.4158 48.9566 46.5753 49.0654 46.747 49.0943C47.5888 49.2362 47.9616 48.9574 47.956 48.6654C47.9512 48.4468 47.5794 48.3816 47.5794 48.3816C47.5794 48.3816 47.4869 48.3569 47.3067 48.3264C46.932 48.2637 46.4771 48.2051 46.1128 48.135C45.7703 48.069 45.5126 47.994 45.2908 47.862C44.8794 47.617 44.7727 47.1633 44.9709 46.689C45.0596 46.4762 45.2569 46.2345 45.5409 46.0423C46.3516 45.4955 47.7984 45.5862 47.7984 45.5862C47.7984 45.5862 48.8261 45.5895 49.347 45.9211C49.6028 46.0844 49.7915 46.2717 49.8972 46.4399C50.0369 46.6618 50.0492 46.8458 50.0492 46.8458H48.1475C48.1457 46.8458 48.1523 46.623 47.8182 46.5059Z" fill="black"/>
<path fill-rule="evenodd" clip-rule="evenodd" d="M41.6665 49.8911L41.7628 49.4086C41.7628 49.4086 41.7788 49.3632 41.7439 49.3583C41.7269 49.3558 41.708 49.3632 41.6854 49.3805C41.6589 49.4003 41.6269 49.4317 41.5995 49.4531C41.5079 49.5232 41.3418 49.6379 41.1371 49.7237C40.9068 49.8194 40.5963 49.8837 40.2613 49.8994C39.9772 49.9126 39.6724 49.8911 39.4147 49.8111C39.1684 49.7352 38.9287 49.5604 38.79 49.3343C38.7126 49.2081 38.6522 49.0448 38.6314 48.9038C38.5814 48.5524 38.689 48.1944 38.689 48.1944L39.327 45.5672H41.1154L40.518 47.9313C40.518 47.9313 40.4868 48.0558 40.4953 48.1804C40.5095 48.3841 40.6246 48.6307 41.1276 48.6514C41.6854 48.6753 41.8798 48.3825 41.9628 48.1614C42.0006 48.0591 42.0336 47.9304 42.0336 47.9304L42.6121 45.5664H44.459L43.3983 49.8911H41.6665Z" fill="black"/>
<path fill-rule="evenodd" clip-rule="evenodd" d="M36.9843 49.1669C36.7417 49.3351 36.1679 49.661 35.5026 49.8012C34.8203 49.9447 34.0502 49.901 34.0502 49.901H31L32.1759 45.5656H34.3069L33.6453 48.2455C33.6453 48.2455 34.0388 48.2975 34.5626 48.2348C34.9345 48.1902 35.3629 48.1111 35.7338 47.8661C35.9641 47.7135 36.201 47.4611 36.3038 47.221C36.553 46.6387 36.5086 46.1966 36.418 45.9169C36.3444 45.6876 36.2387 45.5664 36.2387 45.5664H37.7789H38.1753H38.2498H38.2649C38.2649 45.5664 38.2677 45.5722 38.2687 45.5738C38.5782 46.2716 38.4159 46.9653 38.4159 46.9653C38.4159 46.9653 38.2706 48.2736 36.9843 49.1669Z" fill="black"/>
<path fill-rule="evenodd" clip-rule="evenodd" d="M32.5991 44H34.0128C34.0128 44 34.5828 44.0025 35.2368 44.0586C36.0126 44.1254 36.9365 44.2788 37.5886 44.7457C37.8349 44.9222 38.0133 45.1243 38.1426 45.3338C38.1473 45.342 38.1568 45.3577 38.1568 45.3577L32.1904 45.5037L32.5991 44Z" fill="black"/>
<path fill-rule="evenodd" clip-rule="evenodd" d="M59.3955 49.9018L59.9929 47.5377C59.9929 47.5377 60.024 47.4132 60.0155 47.2886C60.0023 47.0849 59.8862 46.8383 59.3832 46.8176C58.8254 46.7937 58.631 47.0865 58.548 47.3076C58.5102 47.4099 58.4772 47.5386 58.4772 47.5386L57.8996 49.9026H56.0527L57.1135 45.5779H58.8453L58.749 46.0596C58.749 46.0596 58.733 46.105 58.7679 46.1099C58.7849 46.1124 58.8028 46.105 58.8264 46.0876C58.8528 46.0678 58.8849 46.0365 58.9123 46.0151C59.0038 45.9449 59.1699 45.8303 59.3747 45.7445C59.605 45.6488 59.9155 45.5845 60.2505 45.5688C60.5346 45.5556 60.8394 45.5771 61.097 45.6571C61.3433 45.733 61.5831 45.9078 61.7218 46.1338C61.7992 46.26 61.8596 46.4234 61.8803 46.5644C61.9304 46.9158 61.8228 47.2738 61.8228 47.2738L61.1848 49.9009H59.3955V49.9018Z" fill="black"/>
</g>
<defs>
<clipPath id="clip0_261:21">
<rect width="31" height="6" fill="white" transform="translate(31 44)"/>
</clipPath>
</defs>
</svg>
