<svg width="93" height="94" viewBox="0 0 93 94" fill="none" xmlns="http://www.w3.org/2000/svg">
<rect x="20.2566" y="9.75067" width="48.9526" height="74.6631" rx="8" stroke="currentColor" stroke-width="2"/>
<path d="M74.4318 65.6777V74.8789M74.4318 33.2639V58.788M74.4318 15.3816C74.4318 9.18508 69.4086 4.1618 63.212 4.1618H26.297C20.0766 4.1618 15.0339 9.20447 15.0339 15.4249V26.7282M74.4318 26.6014V18.103M74.4318 77.4087V78.3484C74.4318 84.5688 69.3892 89.6115 63.1687 89.6115H26.297C20.0766 89.6115 15.0339 84.5688 15.0339 78.3484V65.4895M15.0339 59.0007V33.217" stroke="currentColor"/>
<path d="M69.2092 26.7397H76.9996C78.823 26.7397 80.3011 28.2178 80.3011 30.0412V30.0412C80.3011 31.8645 78.823 33.3427 76.9996 33.3427H69.2092V26.7397Z" stroke="currentColor" stroke-width="2"/>
<path d="M69.2092 15.5748H80.3011V18.0975H69.2092V15.5748Z" stroke="currentColor"/>
<path d="M69.2092 77.373H80.3011V74.8503H69.2092V77.373Z" stroke="currentColor"/>
<path d="M74.4258 18.0974H80.3011V20.6201H74.4258V18.0974Z" stroke="currentColor"/>
<path d="M74.428 74.8503H80.301V72.3276H74.428V74.8503Z" stroke="currentColor"/>
<path d="M20.2566 26.7397H16.0005C14.1771 26.7397 12.699 28.2178 12.699 30.0412V30.0412C12.699 31.8645 14.1771 33.3427 16.0005 33.3427H20.2566V26.7397Z" stroke="currentColor" stroke-width="2"/>
<path d="M69.2092 58.9594H76.9996C78.823 58.9594 80.3011 60.4375 80.3011 62.2608V62.2608C80.3011 64.0842 78.823 65.5623 76.9996 65.5623H69.2092V58.9594Z" stroke="currentColor" stroke-width="2"/>
<path d="M20.2566 58.9594H16.0005C14.1771 58.9594 12.699 60.4375 12.699 62.2608V62.2608C12.699 64.0842 14.1771 65.5623 16.0005 65.5623H20.2566V58.9594Z" stroke="currentColor" stroke-width="2"/>
<line x1="55.4451" y1="9.39712" x2="68.7222" y2="22.6742" stroke="currentColor"/>
<line x1="44.3785" y1="10.1051" x2="68.7224" y2="34.449" stroke="currentColor"/>
<line x1="31.955" y1="10.0023" x2="68.7222" y2="46.7695" stroke="currentColor"/>
<line x1="21.5801" y1="13.1884" x2="68.7223" y2="60.3306" stroke="currentColor"/>
<line x1="20.3767" y1="26.3211" x2="68.7223" y2="74.6667" stroke="currentColor"/>
<path d="M20.29 40.869L47.0466 67.6256M62.7825 83.3615L52.2182 72.7972" stroke="currentColor"/>
<path d="M20.29 55.2357L32.6137 67.5593M48.7731 83.7187L37.986 72.9316" stroke="currentColor"/>
<line x1="20.3117" y1="69.887" x2="34.5476" y2="84.123" stroke="currentColor"/>
<rect x="29.4067" y="67.6352" width="30.6522" height="5.21088" stroke="currentColor"/>
</svg>
