<svg width="93" height="94" viewBox="0 0 93 94" fill="none" xmlns="http://www.w3.org/2000/svg">
<rect x="10.0603" y="10.4469" width="72.8794" height="72.8794" rx="13" stroke="currentColor" stroke-width="2"/>
<rect x="16.2723" y="16.6589" width="60.4553" height="60.4553" rx="9.5" stroke="currentColor"/>
<g opacity="0.1">
<path d="M29.6023 41.4297H26.4408V47.5253H26.3498L22.2102 41.4297H19.5264V53.075H22.6879V46.9567H22.7561L26.9639 53.075H29.6023V41.4297Z" fill="currentColor"/>
<path d="M31.0977 53.075H39.4678V50.5276H34.2592V48.5261H39.0584V45.9787H34.2592V43.9772H39.4905V41.4297H31.0977V53.075Z" fill="currentColor"/>
<path d="M41.0585 53.075H46.5399C49.0703 53.075 50.634 51.6933 50.634 49.777C50.634 48.1337 49.4228 47.0591 47.9274 47.0022V46.8885C49.275 46.6212 50.1791 45.6261 50.1791 44.3411C50.1791 42.567 48.7689 41.4297 46.1078 41.4297H41.0585V53.075ZM44.22 50.5504V48.0939H45.7439C46.7048 48.0939 47.2905 48.5488 47.2905 49.3676C47.2905 50.1466 46.7617 50.5504 45.6984 50.5504H44.22ZM44.22 46.1379V43.9089H45.5619C46.3466 43.9089 46.9266 44.307 46.9266 45.0234C46.9266 45.7399 46.3466 46.1379 45.5164 46.1379H44.22Z" fill="currentColor"/>
<path d="M51.7542 53.075H54.9157V49.2312H56.0074L58.0544 53.075H61.4889L59.1234 48.7308C60.363 48.1337 61.1022 47.0022 61.1022 45.3873C61.1022 42.9082 59.3679 41.4297 56.7807 41.4297H51.7542V53.075ZM54.9157 46.7747V43.9544H56.0302C57.139 43.9544 57.8042 44.3866 57.8042 45.3873C57.8042 46.3824 57.139 46.7747 56.0302 46.7747H54.9157Z" fill="currentColor"/>
<path d="M65.4749 53.075L66.1459 50.846H69.9897L70.6607 53.075H74.0724L70.2285 41.4297H65.907L62.0632 53.075H65.4749ZM66.8623 48.4806L68.0223 44.6367H68.1133L69.2733 48.4806H66.8623Z" fill="currentColor"/>
</g>
</svg>
