<svg width="93" height="94" viewBox="0 0 93 94" fill="none" xmlns="http://www.w3.org/2000/svg">
<rect x="16.3656" y="16.9843" width="60.2689" height="60.2689" rx="13" stroke="currentColor" stroke-width="2"/>
<rect x="21.4473" y="22.066" width="50.1056" height="50.1056" rx="9.5" stroke="currentColor"/>
<g opacity="0.4" clip-path="url(#clip0)">
<path d="M48.5999 46.9788C48.6502 46.983 48.6769 46.9868 48.7036 46.9868C48.9373 46.9868 49.1709 46.9907 49.4046 46.9868C50.0642 46.9766 50.7162 47.1226 51.3034 47.4119C51.7269 47.6172 52.0759 47.9143 52.3783 48.2635C52.5808 48.5002 52.7595 48.7547 52.9121 49.0238C52.9527 49.0943 52.9962 49.1634 53.0466 49.2468C53.0591 49.2227 53.0698 49.1979 53.0786 49.1724C53.1755 48.7805 53.2702 48.3879 53.3681 47.9962C53.5786 47.1562 53.7992 46.3187 54.0681 45.494C54.1689 45.1871 54.2759 44.8828 54.4068 44.5864C54.4891 44.4005 54.5831 44.2202 54.7112 44.0592C54.738 44.0254 54.7672 43.9934 54.7986 43.9635C54.8124 43.9491 54.8312 43.9399 54.8515 43.9376C54.8718 43.9353 54.8922 43.9402 54.9091 43.9512C54.9517 43.9719 54.988 44.0029 55.0145 44.0411C55.0409 44.0793 55.0567 44.1235 55.0602 44.1693C54.9628 44.24 54.931 44.3501 54.8953 44.4552C54.7785 44.7974 54.6626 45.1401 54.5539 45.4848C54.3252 46.2082 54.1434 46.9432 53.9747 47.6812C53.8257 48.3355 53.6937 48.9942 53.5678 49.6534C53.527 49.867 53.4884 50.0808 53.452 50.2947C53.4252 50.4555 53.4115 50.6182 53.4112 50.7811C53.4143 50.9867 53.3909 51.1919 53.3417 51.3921C53.3254 51.4479 53.305 51.5025 53.2808 51.5556C53.2738 51.5743 53.26 51.5899 53.2419 51.5994C53.2238 51.609 53.2027 51.6117 53.1826 51.6073C53.1313 51.5989 53.0814 51.5839 53.0343 51.5627C52.9225 51.5068 52.8311 51.4194 52.7721 51.3123C52.731 51.2447 52.7133 51.1663 52.7218 51.0884C52.7468 50.8804 52.7727 50.6727 52.7996 50.4651C52.8089 50.3924 52.8248 50.3196 52.8306 50.2469C52.8438 50.1 52.8318 49.952 52.7951 49.8088C52.7262 49.5257 52.6266 49.2503 52.4979 48.9872C52.3603 48.7062 52.1706 48.4516 51.9382 48.2359C51.6144 47.94 51.2289 47.7565 50.7963 47.6603C50.5093 47.5975 50.215 47.5708 49.9208 47.5811C49.5746 47.5915 49.2286 47.6082 48.8824 47.6213C48.7575 47.6282 48.6322 47.6171 48.5107 47.5884C48.2315 47.5181 48.0351 47.353 47.9137 47.1037C47.8442 46.9599 47.8437 46.8172 47.9311 46.6815C47.9926 46.5848 48.0597 46.4915 48.132 46.402C48.2672 46.2428 48.4143 46.0934 48.5722 45.9549C49.0664 45.5094 49.5914 45.0964 50.1434 44.7189C51.6552 43.673 53.2773 42.7831 54.9827 42.064C55.5938 41.8033 56.2209 41.5784 56.8603 41.3907C57.2103 41.2861 57.568 41.2074 57.9305 41.1554C58.2096 41.1137 58.4934 41.1093 58.7737 41.1423C58.8733 41.1556 58.9695 41.1863 59.0575 41.2329C59.0722 41.2393 59.0859 41.2474 59.0983 41.2572C59.2579 41.4026 59.4045 41.557 59.4523 41.7712C59.48 41.9006 59.4869 42.0333 59.473 42.1648C59.4482 42.4044 59.3815 42.6382 59.2758 42.8565C59.1673 43.0869 59.024 43.2975 58.8729 43.5043C58.4806 44.042 58.0292 44.5323 57.5704 45.0168C57.0358 45.5814 56.4811 46.1277 55.9292 46.6766C55.8562 46.7492 55.7837 46.8219 55.7119 46.8947C55.6963 46.9107 55.6844 46.9301 55.6592 46.9631C55.7159 46.9493 55.7547 46.9413 55.7922 46.9304C56.0231 46.862 56.2577 46.8058 56.495 46.7619C56.7601 46.7106 57.0304 46.689 57.3007 46.6975C57.4179 46.704 57.534 46.722 57.6474 46.751C57.769 46.7798 57.8813 46.8367 57.9748 46.9168C58.0807 47.0066 58.177 47.1064 58.2623 47.2147C58.3479 47.3234 58.4033 47.4512 58.4235 47.5862C58.4837 47.9776 58.4358 48.3518 58.2286 48.6993C58.1684 48.7999 58.105 48.899 58.0365 48.9947C57.9179 49.1564 57.7849 49.3078 57.6389 49.4472C57.4034 49.6761 57.1494 49.8868 56.8795 50.0773C56.3929 50.4225 55.8801 50.7319 55.3453 51.0028C55.1362 51.1118 54.9179 51.2035 54.6929 51.2772C54.5277 51.3298 54.36 51.3676 54.1837 51.3603C54.1394 51.3599 54.0957 51.3496 54.0563 51.33C53.8901 51.2425 53.7718 51.118 53.7192 50.9386C53.6917 50.8451 53.703 50.7644 53.7695 50.689C53.8798 50.5654 54.0034 50.4534 54.1381 50.3548C54.3611 50.1885 54.5959 50.0374 54.8407 49.9026C55.1222 49.7438 55.4195 49.6122 55.728 49.5097C55.8682 49.4607 56.0145 49.4295 56.1631 49.4169C56.2272 49.4137 56.2915 49.4167 56.355 49.4259C56.3887 49.4302 56.4197 49.4501 56.461 49.4688C56.4722 49.4644 56.4829 49.4589 56.493 49.4525C56.6871 49.3141 56.8873 49.1833 57.0585 49.0163C57.2096 48.8709 57.3629 48.7281 57.5117 48.5801C57.6976 48.3965 57.855 48.188 57.9788 47.9611C58.048 47.8364 58.0886 47.6989 58.0979 47.5578C57.9468 47.4308 57.7663 47.3627 57.5691 47.3305C57.3236 47.2905 57.0794 47.3063 56.8354 47.3431C56.3638 47.4158 55.9118 47.5547 55.4656 47.7129C55.2805 47.7784 55.0987 47.8523 54.9152 47.9216C54.8553 47.9441 54.7938 47.963 54.7336 47.9853C54.6516 48.0156 54.5826 47.9894 54.5231 47.9369C54.4996 47.9159 54.4791 47.8918 54.4625 47.8654C54.406 47.7755 54.3655 47.6772 54.3423 47.5745C54.3231 47.494 54.3378 47.4094 54.3831 47.3392C54.4135 47.2891 54.4483 47.2415 54.4871 47.1972C54.7112 46.9481 54.9331 46.6967 55.1637 46.4532C55.7766 45.8051 56.4096 45.175 57.0436 44.5461C57.4503 44.1426 57.8549 43.7369 58.2361 43.3101C58.4453 43.0795 58.6395 42.8367 58.8175 42.5831C58.9353 42.4164 59.0391 42.2408 59.1278 42.0582C59.1479 42.0157 59.166 41.9728 59.1859 41.9285C59.1706 41.8966 59.1479 41.8685 59.1195 41.8463C59.0911 41.8242 59.0579 41.8086 59.0223 41.8008C58.9295 41.7754 58.8346 41.7576 58.7387 41.7475C58.3502 41.7094 57.9667 41.7511 57.5865 41.8277C57.1164 41.9224 56.6617 42.0671 56.2102 42.2217C55.1337 42.5904 54.1052 43.0598 53.1088 43.5959C52.2819 44.0408 51.4799 44.5238 50.7167 45.0662C50.2189 45.4161 49.7477 45.7998 49.3067 46.2142C49.0934 46.4149 48.8917 46.6266 48.7023 46.8485C48.6724 46.8853 48.6442 46.9229 48.5999 46.9788ZM54.812 42.6032C54.7971 42.6122 54.7714 42.6097 54.7734 42.6366C54.7231 42.6257 54.6898 42.6592 54.6503 42.6771L54.5826 42.6863L54.545 42.7195L54.5022 42.7481C54.4839 42.7522 54.4615 42.7498 54.4572 42.7753C54.437 42.7753 54.4131 42.7707 54.4108 42.801C54.3907 42.801 54.366 42.7913 54.3605 42.8233C54.3353 42.8276 54.3101 42.832 54.2849 42.8368L54.2212 42.8538C54.2179 42.8631 54.211 42.8708 54.2019 42.8753C54.1928 42.8798 54.1822 42.8808 54.1724 42.878C54.1688 42.8871 54.1619 42.8945 54.153 42.899C54.1441 42.9035 54.1338 42.9046 54.124 42.9023C54.1205 42.9113 54.1135 42.9188 54.1046 42.9233C54.0956 42.9278 54.0852 42.9289 54.0754 42.9265C54.0718 42.9355 54.0648 42.9429 54.0559 42.9474C54.0469 42.9519 54.0366 42.953 54.0268 42.9507C54.0232 42.9597 54.0163 42.9672 54.0074 42.9716C53.9985 42.9761 53.9882 42.9773 53.9785 42.975C53.975 42.9839 53.9682 42.9913 53.9594 42.9958C53.9505 43.0003 53.9403 43.0015 53.9307 42.9992C53.9271 43.0082 53.9202 43.0157 53.9113 43.0202C53.9024 43.0246 53.8921 43.0258 53.8823 43.0234C53.8788 43.0325 53.8719 43.0399 53.8631 43.0444C53.8542 43.0488 53.8439 43.05 53.8342 43.0477C53.8359 43.0504 53.8371 43.0533 53.8377 43.0564C53.8377 43.0588 53.835 43.0612 53.8337 43.0637C53.8337 43.0588 53.8337 43.054 53.8337 43.0489L53.8818 43.0246L53.9299 43.0004L53.978 42.9762L54.0263 42.9519L54.0749 42.9277L54.1235 42.9035C54.1412 42.8989 54.1626 42.9013 54.1719 42.8792L54.2207 42.855C54.2318 42.855 54.2429 42.855 54.2537 42.8565C54.2713 42.8565 54.2809 42.8506 54.2817 42.8322C54.3086 42.8373 54.335 42.8405 54.3572 42.8189L54.4076 42.7968L54.4541 42.7714C54.4723 42.7678 54.4939 42.7692 54.4992 42.745C54.5204 42.745 54.542 42.7464 54.5425 42.7173C54.576 42.7304 54.5768 42.705 54.5826 42.6858C54.6062 42.6912 54.6329 42.7157 54.6473 42.6728C54.6976 42.6846 54.7329 42.6565 54.7702 42.6328C54.7898 42.6291 54.8112 42.6277 54.8099 42.6005C54.8331 42.6073 54.8563 42.6136 54.8673 42.5831C54.8894 42.5848 54.9115 42.5814 54.9319 42.5733C54.9523 42.5652 54.9704 42.5525 54.9847 42.5363C55.0061 42.538 55.0275 42.5397 55.0381 42.5157C55.0601 42.5158 55.0819 42.5116 55.1021 42.5032C55.1223 42.4949 55.1405 42.4826 55.1557 42.4672C55.1763 42.4672 55.198 42.4694 55.206 42.4445L55.3349 42.4069C55.4707 42.355 55.6069 42.3039 55.7416 42.2503C55.7648 42.2411 55.7987 42.2428 55.8066 42.2094C55.8103 42.2108 55.8143 42.2115 55.8184 42.2116C55.8957 42.1994 56.2014 42.0904 56.2694 42.0492C56.3005 42.0445 56.3315 42.0384 56.362 42.0308C56.5076 41.9867 56.6518 41.9387 56.7979 41.8967C57.1588 41.7898 57.5267 41.7063 57.8992 41.6466C58.0783 41.6193 58.2583 41.6062 58.4383 41.5926C58.4688 41.5902 58.4988 41.5841 58.529 41.5798C58.4825 41.5654 58.4338 41.5586 58.385 41.5596C58.2402 41.5606 58.0958 41.573 57.9531 41.5967C57.7072 41.6353 57.4635 41.686 57.2229 41.7487C56.9235 41.8236 56.6297 41.9157 56.3376 42.0128C56.3142 42.0206 56.2792 42.0182 56.2714 42.0531C56.256 42.0504 56.2402 42.0504 56.2248 42.0531C56.0903 42.0998 55.9564 42.1481 55.8219 42.1965C55.8159 42.1987 55.8123 42.2077 55.8076 42.2135C55.7998 42.2121 55.7919 42.2121 55.7841 42.2135C55.6376 42.2689 55.4912 42.3255 55.345 42.3831C55.339 42.3856 55.3387 42.402 55.3352 42.4113C55.2811 42.3894 55.243 42.4154 55.2078 42.4505C55.1861 42.4486 55.163 42.4437 55.1574 42.4748C55.1351 42.472 55.1124 42.475 55.0918 42.4835C55.0711 42.4921 55.0531 42.5058 55.0398 42.5232C55.0177 42.5201 54.9963 42.5186 54.9862 42.5438C54.9642 42.5434 54.9424 42.5475 54.9222 42.5558C54.902 42.5642 54.8839 42.5766 54.8691 42.5923L54.812 42.6032ZM53.4306 43.2515V43.2655H53.421L53.4291 43.2563L53.4437 43.2622L53.4306 43.2515ZM54.505 51.1676C54.5235 51.1667 54.5418 51.1645 54.5599 51.1608C54.7063 51.118 54.8485 51.0627 54.9847 50.9956C55.5245 50.7425 56.0442 50.4513 56.5395 50.1246C56.7919 49.9582 57.0319 49.7752 57.2579 49.5768C57.2889 49.5497 57.3171 49.5199 57.3468 49.4913C56.914 49.8243 56.4609 50.1322 55.9901 50.4134C55.5126 50.6952 55.0165 50.9467 54.505 51.1664V51.1676ZM54.7971 47.8031L54.8102 47.8193C55.0569 47.7272 55.3032 47.6334 55.5507 47.5433C55.7982 47.4531 56.0448 47.3802 56.2968 47.3143C56.5488 47.2483 56.8127 47.21 57.0713 47.1601C57.0558 47.1549 57.0393 47.153 57.023 47.1545C56.8109 47.1717 56.6005 47.2041 56.3935 47.2515C55.872 47.3727 55.3737 47.5578 54.8827 47.759C54.8534 47.7718 54.8248 47.7862 54.7971 47.8019V47.8031ZM54.8845 50.3577C55.026 50.318 55.4221 50.1141 55.8478 49.8657C55.8869 49.8429 55.9309 49.8255 55.9627 49.7824C55.7773 49.8136 55.0814 50.1827 54.8845 50.3565V50.3577ZM48.7658 46.5266L48.7494 46.5147L48.6875 46.5858L48.6988 46.5952L48.7658 46.5266ZM48.5618 46.7256L48.5759 46.7401L48.624 46.6817L48.6117 46.672L48.5618 46.7256ZM49.7158 45.6321L49.7216 45.6413C49.7297 45.6385 49.7375 45.6349 49.7448 45.6304C49.7546 45.6224 49.7737 45.6176 49.7599 45.5955L49.7158 45.6321ZM49.9173 45.4894C49.8921 45.4937 49.8616 45.4942 49.8717 45.5308L49.9173 45.4894ZM50.2824 45.2121C50.2542 45.2155 50.2255 45.2196 50.2217 45.2606L50.2824 45.2121ZM48.5286 46.7944L48.5188 46.7835C48.5103 46.7908 48.5026 46.7989 48.4959 46.8077C48.4934 46.8121 48.4984 46.8206 48.4999 46.8271C48.5032 46.8251 48.5061 46.8227 48.5087 46.8199C48.5158 46.8123 48.5221 46.8034 48.5286 46.7944ZM49.3741 45.9338V45.9239C49.3714 45.9258 49.3663 45.9273 49.3661 45.9295C49.366 45.934 49.3667 45.9385 49.3683 45.9428L49.3741 45.9338ZM49.598 45.7458L49.5952 45.7366C49.5889 45.7401 49.5831 45.7445 49.5781 45.7496C49.5766 45.7516 49.5814 45.7581 49.5834 45.7625L49.598 45.7458ZM49.9898 45.4254C50.0045 45.4183 50.0186 45.4102 50.0321 45.4011C50.0351 45.3985 50.0321 45.3905 50.0333 45.3851C50.0296 45.3851 50.0245 45.3851 50.0223 45.3878C50.0152 45.3951 50.0089 45.4031 49.9898 45.4254V45.4254ZM50.1759 45.28C50.1469 45.2979 50.1378 45.3042 50.1295 45.309C50.127 45.3115 50.125 45.3144 50.1235 45.3175C50.13 45.3175 50.1386 45.3219 50.1424 45.3192C50.1549 45.307 50.1662 45.2935 50.1759 45.279V45.28ZM51 44.6915C50.9924 44.6952 50.9861 44.6978 50.9806 44.7012C50.9777 44.7037 50.975 44.7063 50.9725 44.7092C50.9781 44.7092 50.9851 44.7117 50.9884 44.7092C50.9934 44.7041 50.9973 44.6981 51 44.6915V44.6915ZM50.8325 44.8151L50.8268 44.8054C50.8182 44.812 50.8094 44.8185 50.8016 44.8256C50.8016 44.8256 50.8043 44.8304 50.8059 44.8328L50.8325 44.8151ZM50.3917 45.12C50.3665 45.1346 50.3569 45.1392 50.3486 45.1442C50.3457 45.1467 50.3432 45.1494 50.341 45.1525C50.3471 45.1539 50.3556 45.1585 50.3589 45.1564C50.3709 45.1452 50.3819 45.133 50.3917 45.12V45.12ZM50.6183 44.9586C50.6323 44.9524 50.6457 44.9451 50.6586 44.9368C50.6616 44.9344 50.6608 44.9271 50.6616 44.922C50.6583 44.922 50.6535 44.922 50.6515 44.9237C50.6452 44.9303 50.6389 44.9378 50.6193 44.9586H50.6183ZM50.5823 44.9804C50.5682 44.9877 50.5545 44.9958 50.5415 45.0047C50.539 45.0071 50.5415 45.0146 50.5415 45.0197C50.5447 45.0185 50.5493 45.0185 50.5513 45.0165C50.5586 45.01 50.5641 45.0027 50.5833 44.9804H50.5823ZM50.4219 45.0992C50.4368 45.0922 50.4511 45.0841 50.4647 45.0749C50.4677 45.0725 50.4659 45.0648 50.4662 45.0594C50.4627 45.0594 50.4579 45.0594 50.4554 45.0626C50.4491 45.0691 50.4428 45.0778 50.4229 45.0992H50.4219ZM50.7371 44.8718L50.7263 44.875C50.7263 44.8774 50.7283 44.8825 50.7288 44.8823C50.7325 44.8818 50.7361 44.8809 50.7396 44.8796C50.7399 44.8769 50.7389 44.8752 50.7381 44.8718H50.7371ZM50.9076 44.7587C50.9045 44.7575 50.9011 44.7568 50.8978 44.7567C50.8963 44.7567 50.8955 44.7611 50.8945 44.7633C50.8975 44.7646 50.9008 44.7653 50.9041 44.7652C50.9066 44.765 50.9073 44.7611 50.9086 44.7587H50.9076ZM51.0672 44.6467C51.07 44.6478 51.0728 44.6484 51.0758 44.6486C51.077 44.6486 51.0778 44.6448 51.0788 44.6426C51.076 44.6417 51.0732 44.6411 51.0702 44.6409C51.07 44.6411 51.0692 44.6448 51.0682 44.6467H51.0672ZM51.1516 44.5982C51.1493 44.5965 51.1473 44.5939 51.145 44.5936C51.1421 44.594 51.1393 44.5949 51.1367 44.5963C51.139 44.598 51.141 44.6007 51.1433 44.6009C51.1465 44.6009 51.1497 44.6003 51.1526 44.599L51.1516 44.5982ZM51.2065 44.5498L51.2155 44.5544V44.5469L51.2065 44.5498ZM51.282 44.5001V44.5078L51.2921 44.504L51.282 44.5001ZM51.3575 44.4611V44.454L51.3482 44.4567L51.3575 44.4611ZM51.4308 44.407L51.422 44.4111L51.4311 44.4143L51.4308 44.407ZM51.4996 44.3675L51.5076 44.3644L51.4998 44.3612L51.4996 44.3675ZM51.5774 44.3152L51.5703 44.3181L51.5774 44.3203V44.3152Z" fill="currentColor"/>
<path d="M31.1818 50.015C31.2168 49.9971 31.2453 49.985 31.2712 49.9687C31.3793 49.9011 31.4853 49.8304 31.5945 49.7644C31.7378 49.6782 31.8821 49.5931 32.0286 49.5124C32.0882 49.4798 32.1515 49.454 32.2172 49.4356C32.2775 49.4176 32.3426 49.4221 32.3995 49.4483C32.4564 49.4745 32.5009 49.5204 32.5242 49.5769C32.5288 49.5927 32.5314 49.6089 32.532 49.6253L32.47 49.6607C32.4217 49.6886 32.3721 49.7148 32.3255 49.7451C31.9851 49.9666 31.6527 50.199 31.3332 50.4479C31.2576 50.5063 31.1876 50.5705 31.1171 50.6342C31.0616 50.685 31.0176 50.7464 30.9882 50.8145C30.8147 51.2064 30.5491 51.5348 30.2295 51.8254C30.1575 51.8935 30.0744 51.9498 29.9835 51.9921C29.8206 52.0648 29.6673 52.0362 29.5419 51.9129C29.4744 51.8465 29.4439 51.7697 29.4789 51.68C29.5031 51.6103 29.5346 51.5432 29.5731 51.4798C29.6358 51.3804 29.7064 51.2858 29.7844 51.197C29.9537 51.0102 30.1281 50.8276 30.3074 50.649C30.4132 50.5475 30.4885 50.4203 30.5254 50.2809C30.5758 50.0887 30.6193 49.8956 30.6191 49.6966C30.6172 49.6309 30.6101 49.5654 30.5979 49.5008C30.5931 49.4659 30.5794 49.4327 30.558 49.4041C30.5366 49.3756 30.5082 49.3526 30.4753 49.3372C30.4147 49.3068 30.3519 49.2806 30.2875 49.2589C30.1377 49.2131 29.983 49.1838 29.8264 49.1714C29.6903 49.1577 29.5537 49.149 29.4167 49.1455C29.0542 49.1363 28.6918 49.1324 28.3292 49.1232C28.1278 49.1181 27.9264 49.1149 27.7249 49.096C27.3694 49.0626 27.0554 48.9371 26.8061 48.6802C26.5357 48.4015 26.4498 48.0724 26.5286 47.7028C26.6009 47.3715 26.7323 47.0584 26.8877 46.7552C27.0875 46.37 27.3221 46.0024 27.5887 45.6566C28.5322 44.4206 29.6585 43.3644 30.991 42.5189C31.5109 42.1895 32.0621 41.9186 32.6584 41.7378C32.911 41.6582 33.1735 41.6115 33.439 41.5989C33.5397 41.5953 33.6419 41.5948 33.7386 41.6232C34.144 41.7465 34.4124 41.9913 34.4915 42.4059C34.523 42.5823 34.5101 42.7635 34.4537 42.934C34.4048 43.0859 34.3405 43.2328 34.2618 43.3727C34.146 43.5813 34.0134 43.7808 33.8652 43.9696C33.5419 44.386 33.1965 44.7853 32.845 45.1797C32.3917 45.6886 31.9307 46.1922 31.4777 46.7019C31.1058 47.1199 30.7407 47.5438 30.3723 47.9647C30.3411 48.0004 30.3084 48.0348 30.2739 48.067C30.2595 48.0808 30.2416 48.0907 30.2219 48.0956C30.2022 48.1004 30.1816 48.1001 30.1621 48.0946C30.0631 48.073 29.9733 48.0228 29.9047 47.9507C29.8836 47.9273 29.8663 47.9011 29.8531 47.8729C29.84 47.8509 29.8342 47.8256 29.8364 47.8004C29.8387 47.7751 29.8489 47.7511 29.8657 47.7316C29.9113 47.6773 29.9513 47.6187 29.9989 47.5663C30.333 47.1984 30.6639 46.8279 31.0041 46.4656C31.6253 45.8039 32.2452 45.1414 32.8447 44.4611C33.1184 44.1506 33.3836 43.8336 33.6124 43.4902C33.757 43.28 33.8844 43.0594 33.9937 42.8303C34.061 42.6893 34.1105 42.5411 34.1412 42.3887C34.1531 42.3271 34.1561 42.2643 34.15 42.2019C34.0763 42.1459 33.9901 42.1292 33.9025 42.119C33.7011 42.0948 33.4996 42.1168 33.3025 42.1566C32.9839 42.2249 32.6739 42.3263 32.3779 42.4588C31.8463 42.6885 31.3584 42.9878 30.8893 43.3189C30.4134 43.6545 29.9828 44.0384 29.5681 44.4415C29.0171 44.977 28.5105 45.548 28.0696 46.1723C27.8132 46.5299 27.5869 46.9065 27.3928 47.2988C27.2802 47.5312 27.1838 47.7692 27.1289 48.021C27.1028 48.1306 27.0906 48.2429 27.0924 48.3554C27.0924 48.3797 27.0924 48.4019 27.0957 48.4252C27.11 48.5706 27.1783 48.6407 27.3316 48.6569C27.4436 48.669 27.556 48.6771 27.6688 48.6811C28.1278 48.6981 28.5866 48.7107 29.0453 48.7296C29.3596 48.7384 29.6722 48.7773 29.9785 48.8457C30.1587 48.8871 30.3331 48.9492 30.498 49.0306C30.8062 49.184 31.0899 49.5761 31.1368 49.8161C31.1436 49.8502 31.1484 49.8849 31.1559 49.9188C31.1625 49.9477 31.1715 49.9767 31.1818 50.015ZM27.2125 47.282C27.2377 47.276 27.2377 47.2578 27.2377 47.2377C27.2566 47.2091 27.2782 47.182 27.2941 47.1519C27.4664 46.8229 27.6598 46.5046 27.8732 46.1987C28.5473 45.2359 29.3575 44.3682 30.2804 43.6206C30.8767 43.1359 31.5142 42.7116 32.2192 42.3846C32.2355 42.3749 32.2506 42.3635 32.2643 42.3507C32.2857 42.3531 32.3059 42.3524 32.3182 42.3311C32.361 42.3286 32.4014 42.3112 32.4318 42.2821L32.4864 42.2613L32.5539 42.237L32.6108 42.2169C32.6322 42.2106 32.6564 42.207 32.6599 42.1791C32.6889 42.1852 32.7176 42.1912 32.7377 42.1607L32.7609 42.1541L32.74 42.1612L32.6604 42.1791C32.6448 42.1924 32.6289 42.2058 32.6128 42.2189C32.5909 42.2189 32.5657 42.2099 32.5569 42.2404C32.5317 42.2404 32.5023 42.2302 32.4889 42.2647C32.4673 42.263 32.4444 42.2588 32.4345 42.2855C32.4126 42.283 32.3904 42.2861 32.3701 42.2947C32.3499 42.3032 32.3324 42.3168 32.3195 42.334C32.2968 42.3286 32.2754 42.3267 32.2658 42.3538C32.2177 42.3475 32.1817 42.3761 32.1425 42.3938C31.652 42.6139 31.198 42.8916 30.7661 43.204C30.1085 43.6837 29.5002 44.2229 28.9494 44.8142C28.4894 45.3035 28.0669 45.8204 27.704 46.3795C27.5461 46.622 27.4031 46.8733 27.276 47.132C27.2593 47.166 27.2304 47.1975 27.2415 47.2401C27.2105 47.2435 27.2163 47.266 27.2163 47.2852C27.2104 47.2883 27.2047 47.2919 27.1994 47.2959C27.1994 47.2959 27.2007 47.3014 27.2017 47.3043L27.2125 47.282ZM30.3829 51.4989C30.3869 51.4977 30.392 51.4977 30.3942 51.4953C30.536 51.3427 30.6581 51.1741 30.7578 50.9932C30.7629 50.9837 30.7578 50.9689 30.7578 50.9428C30.7374 50.9711 30.7251 50.9864 30.715 51.0026C30.6196 51.1594 30.5132 51.3099 30.3967 51.4529C30.3885 51.4657 30.3818 51.4794 30.3768 51.4936C30.2922 51.5649 30.2887 51.5695 30.2726 51.6322C30.3174 51.5896 30.3643 51.5552 30.3829 51.4987V51.4989Z" fill="currentColor"/>
<path d="M37.5881 49.3153C37.6286 49.2746 37.652 49.255 37.6707 49.2315C37.7729 49.1018 37.8721 48.9707 37.9758 48.8413C38.1101 48.6721 38.2461 48.5039 38.3838 48.3365C38.4242 48.2882 38.4684 48.2429 38.516 48.201C38.5508 48.169 38.5899 48.1414 38.632 48.1188C38.7871 48.0389 38.9571 48.0793 39.0601 48.2175C39.1064 48.2813 39.1386 48.3535 39.1548 48.4298C39.1747 48.5207 39.1867 48.6132 39.2051 48.7046C39.22 48.7846 39.2361 48.8646 39.2542 48.9441C39.2625 48.9811 39.2708 49.0202 39.3131 49.0492C39.3381 49.0422 39.3623 49.0328 39.3854 49.0214C39.4653 48.9764 39.5425 48.927 39.6166 48.8735C39.783 48.7448 39.9439 48.6096 40.1088 48.4795C40.161 48.4367 40.2 48.3811 40.2216 48.3185C40.2712 48.1911 40.335 48.0693 40.4117 47.955C40.4958 47.8278 40.5985 47.7128 40.7167 47.6138C40.8491 47.505 40.9848 47.5038 41.121 47.6089C41.1999 47.6699 41.2626 47.7481 41.3039 47.837C41.3429 47.9182 41.3684 48.0048 41.3794 48.0936C41.4049 48.3217 41.3941 48.5521 41.3474 48.7771C41.3363 48.8326 41.3295 48.8936 41.2739 48.93C41.1326 48.9019 41.042 48.8125 41.0362 48.6775C41.0362 48.5807 41.042 48.484 41.0536 48.3879C41.0634 48.2604 41.076 48.1331 41.085 48.0057C41.0873 47.9759 41.0911 47.9429 41.0546 47.9141C41.0331 47.9275 41.0131 47.943 40.9949 47.9604C40.9055 48.0655 40.8307 48.1815 40.7723 48.3052C40.6477 48.5699 40.5511 48.8459 40.484 49.1292C40.4404 49.2987 40.4156 49.4721 40.41 49.6466C40.41 49.6738 40.4085 49.7009 40.41 49.7281C40.4135 49.7777 40.4372 49.7969 40.4903 49.7857C40.5494 49.7736 40.6076 49.7574 40.6643 49.7373C40.8527 49.6682 41.0315 49.5771 41.1968 49.4661C41.4155 49.3203 41.6263 49.164 41.8286 48.9979C42.0985 48.7768 42.3649 48.5519 42.6344 48.3285C42.6522 48.3135 42.6696 48.2975 42.6923 48.2773C42.6656 48.2517 42.6444 48.2301 42.622 48.2095C42.5741 48.1678 42.5353 48.1174 42.5078 48.0612C42.4803 48.005 42.4646 47.9441 42.4616 47.8821C42.454 47.6998 42.4741 47.5174 42.5213 47.3407C42.6041 47.0046 42.7337 46.6808 42.9065 46.378C42.9704 46.2704 43.0429 46.1676 43.1233 46.0707C43.2842 45.8708 43.4975 45.8269 43.7397 45.8732C43.9276 45.9091 44.0817 46.0077 44.2111 46.1398C44.2504 46.1794 44.2788 46.2279 44.2937 46.2807C44.3086 46.3336 44.3096 46.3892 44.2965 46.4425C44.2779 46.5299 44.2527 46.6158 44.2209 46.6996C44.1069 47.0022 43.9673 47.2952 43.8034 47.5757C43.7447 47.6729 43.68 47.7666 43.6098 47.8564C43.5474 47.943 43.4618 48.0118 43.362 48.0554C43.3419 48.0666 43.3227 48.0795 43.3049 48.0939C43.3268 48.1089 43.3399 48.1247 43.3552 48.1271C43.4028 48.1348 43.4512 48.1373 43.499 48.1416C43.5978 48.1487 43.694 48.1759 43.7811 48.2213C43.8682 48.2668 43.9443 48.3295 44.0044 48.4053C44.0419 48.4463 44.0643 48.4981 44.0681 48.5527C44.0711 48.6254 44.0784 48.6995 44.0792 48.773C44.0822 49.0521 44.0829 49.3304 44.0847 49.6105C44.0847 49.6374 44.0872 49.6643 44.0887 49.6958C44.1139 49.6958 44.1391 49.7031 44.1577 49.6944C44.1975 49.6757 44.2344 49.6519 44.2675 49.6236C44.3432 49.5598 44.4147 49.4915 44.4818 49.4193C44.6226 49.2595 44.7502 49.0894 44.8633 48.9104C44.9323 48.8011 44.992 48.6865 45.0418 48.5679C45.1417 48.3303 45.2809 48.1097 45.454 47.9148C45.5222 47.8331 45.602 47.761 45.6912 47.7008C45.7241 47.6786 45.7593 47.6596 45.7962 47.6441C45.8213 47.6341 45.8561 47.6247 45.8772 47.6344C45.9528 47.6688 46.0359 47.6935 46.0787 47.7728C46.0993 47.8103 46.1248 47.8455 46.1494 47.8838L46.4264 47.9046C46.6553 47.9223 46.8842 47.9383 47.1128 47.9589C47.2208 47.9686 47.3284 47.9858 47.4354 48.003C47.5034 48.014 47.5675 48.0409 47.6222 48.0813C47.6616 48.1082 47.6943 48.1431 47.7182 48.1835C47.7422 48.2239 47.7566 48.2688 47.7607 48.3152C47.7048 48.3464 47.6479 48.3471 47.5922 48.3486C47.4663 48.352 47.3425 48.3527 47.2176 48.3537C46.9033 48.3559 46.5898 48.3753 46.2768 48.4022C46.2306 48.4039 46.1852 48.4142 46.1431 48.4327C46.1683 48.4659 46.189 48.493 46.2094 48.5209C46.2763 48.613 46.3451 48.7039 46.4093 48.7977C46.5176 48.9557 46.5292 49.1316 46.5012 49.3127C46.4894 49.3824 46.4597 49.4482 46.4148 49.5041C46.3034 49.6521 46.1642 49.7787 46.0044 49.8773C45.9873 49.8878 45.9699 49.8972 45.952 49.9062C45.7169 50.023 45.4945 50.0048 45.2858 49.8468C45.1302 49.7339 45.0157 49.5767 44.9584 49.3975C44.9539 49.383 44.9481 49.3689 44.9438 49.357C44.9134 49.3454 44.904 49.367 44.8935 49.3813C44.8129 49.4782 44.7371 49.5788 44.652 49.6721C44.5669 49.7654 44.4757 49.8534 44.3823 49.9387C44.2403 50.0673 44.0676 50.103 43.8787 50.0785C43.8302 50.0742 43.7834 50.0587 43.7424 50.0334C43.7013 50.0081 43.6672 49.9737 43.6428 49.9331C43.607 49.8726 43.5779 49.8087 43.5562 49.7424C43.5076 49.5933 43.4942 49.4384 43.4862 49.2833C43.4766 49.1016 43.4688 48.9198 43.458 48.7376C43.4539 48.6719 43.4439 48.6065 43.4328 48.5413C43.4272 48.52 43.4192 48.4995 43.4089 48.48L43.0531 48.4283L42.9728 48.5105C42.5821 48.9234 42.1675 49.3147 41.7309 49.6825C41.5914 49.8002 41.4406 49.9051 41.2807 49.9956C41.1595 50.0651 41.0288 50.118 40.8924 50.1529C40.803 50.1775 40.709 50.1826 40.6172 50.1679C40.5255 50.1533 40.4383 50.1192 40.3619 50.0681C40.2613 50.004 40.169 49.9285 40.0869 49.8434C40.0443 49.8018 40.011 49.7523 39.9889 49.6979C39.9668 49.6435 39.9563 49.5853 39.9582 49.5269C39.9638 49.3956 39.9774 49.2642 39.9882 49.1331C39.991 49.0987 39.9968 49.0647 40.0031 49.0158C39.9831 49.026 39.9639 49.0376 39.9457 49.0504C39.8646 49.12 39.7843 49.1908 39.7034 49.2608C39.5775 49.3694 39.4368 49.3779 39.2865 49.3199C39.1846 49.2822 39.0922 49.2239 39.0156 49.1491C38.939 49.0742 38.8798 48.9845 38.842 48.8859C38.8075 48.7907 38.7852 48.6918 38.7758 48.5914C38.7708 48.5539 38.7647 48.5165 38.7597 48.4833C38.755 48.4804 38.7496 48.4785 38.7441 48.4777C38.7385 48.4769 38.7328 48.4773 38.7274 48.4788C38.722 48.4802 38.717 48.4828 38.7127 48.4863C38.7084 48.4898 38.7049 48.4942 38.7025 48.4991C38.6408 48.5706 38.5832 48.6453 38.5298 48.7228C38.419 48.8982 38.3128 49.0764 38.2095 49.256C38.1123 49.4256 38.0224 49.5991 37.9273 49.7697C37.8912 49.8347 37.8517 49.8979 37.8099 49.9595C37.7851 49.9976 37.7502 50.0286 37.7087 50.0493C37.6673 50.0701 37.6209 50.0798 37.5742 50.0775C37.5381 50.0782 37.5019 50.075 37.4665 50.0681C37.3444 50.041 37.2297 49.9892 37.1301 49.9161C37.0713 49.8749 37.0226 49.8217 36.9876 49.7604C36.9525 49.699 36.932 49.631 36.9274 49.5611C36.9062 49.2861 36.9222 49.0096 36.975 48.7385C37.0402 48.3992 37.1207 48.0634 37.2444 47.7386C37.2653 47.6841 37.2869 47.6298 37.3111 47.5765C37.3291 47.5376 37.3493 47.4996 37.3715 47.4628C37.435 47.3552 37.5183 47.3416 37.6379 47.4073C37.7278 47.4558 37.789 47.537 37.78 47.6467C37.7716 47.751 37.7636 47.8554 37.7495 47.9591C37.7165 48.2051 37.6775 48.4504 37.646 48.6964C37.6228 48.8772 37.6077 49.0599 37.5896 49.2402C37.5868 49.2555 37.5881 49.271 37.5881 49.3153ZM37.8399 49.6958C37.8359 49.6938 37.8316 49.6925 37.8272 49.6921C37.8227 49.6916 37.8182 49.6921 37.814 49.6933C37.8097 49.6945 37.8057 49.6966 37.8022 49.6993C37.7988 49.702 37.7959 49.7054 37.7938 49.7092C37.7862 49.7205 37.7742 49.729 37.7653 49.7402C37.7638 49.747 37.7621 49.7537 37.7611 49.7605C37.7614 49.7637 37.7621 49.7668 37.7633 49.7697C37.7666 49.7651 37.7729 49.76 37.7721 49.7562C37.7701 49.7494 37.7667 49.743 37.7623 49.7373C37.8059 49.7518 37.8127 49.7072 37.8356 49.6919C37.8423 49.6807 37.8454 49.6678 37.8445 49.6549C37.8436 49.6419 37.8388 49.6295 37.8306 49.6192C37.8407 49.6238 37.8521 49.6245 37.8628 49.6214C37.8734 49.6183 37.8825 49.6115 37.8882 49.6023C37.8945 49.5938 37.9048 49.588 37.9121 49.5797C37.9129 49.5723 37.9129 49.5649 37.9121 49.5574C37.9121 49.5548 37.9051 49.5528 37.9013 49.5507C37.9006 49.5543 37.9006 49.5581 37.9013 49.5618C37.9046 49.5688 37.9091 49.5751 37.9132 49.5819C37.8953 49.5802 37.8782 49.5761 37.8646 49.595C37.857 49.6057 37.8419 49.6112 37.8311 49.6192L37.8399 49.6958ZM43.8327 47.1778C43.8712 47.1822 43.8782 47.1507 43.8888 47.1279C43.9677 46.9632 44.0337 46.7931 44.0865 46.6189C44.1003 46.5705 44.1096 46.522 44.12 46.4721C44.1225 46.4592 44.1315 46.4406 44.0991 46.4396C44.0872 46.4745 44.0759 46.5109 44.063 46.5467C43.9875 46.758 43.9105 46.9691 43.8352 47.1817C43.8352 47.1882 43.8327 47.1945 43.8316 47.2008C43.8314 47.2038 43.8314 47.2068 43.8316 47.2098C43.8344 47.2054 43.8397 47.2011 43.8395 47.1969C43.8381 47.1901 43.8355 47.1836 43.8319 47.1776L43.8327 47.1778ZM45.7486 48.4531C45.7369 48.4655 45.7262 48.4787 45.7163 48.4926C45.589 48.7116 45.4893 48.9446 45.4192 49.1864C45.4046 49.2421 45.3944 49.2988 45.3888 49.356C45.3893 49.3784 45.3932 49.4005 45.4003 49.4217C45.4185 49.4213 45.4367 49.4192 45.4545 49.4157C45.6607 49.3512 45.8425 49.2487 45.981 49.0853C46.0246 49.0301 46.0642 48.972 46.0996 48.9116C46.1168 48.8898 46.1245 48.8624 46.121 48.8352C46.1175 48.8081 46.1031 48.7833 46.081 48.7662C45.9702 48.6661 45.8634 48.5624 45.7478 48.4531H45.7486ZM43.5252 46.5591C43.5087 46.5759 43.4937 46.5941 43.4804 46.6134C43.3804 46.799 43.2908 46.9897 43.212 47.1846C43.1531 47.3329 43.1093 47.4864 43.0813 47.6429C43.0636 47.7313 43.0668 47.8224 43.0906 47.9095C43.1032 47.8569 43.1158 47.8164 43.1221 47.7754C43.1692 47.5041 43.2486 47.2388 43.3588 46.9849C43.3963 46.8993 43.4363 46.8152 43.4723 46.7285C43.4922 46.6805 43.5202 46.633 43.5245 46.5591H43.5252ZM43.9309 48.6246C43.8986 48.7902 43.9195 49.5514 43.9586 49.6968C43.9457 49.3398 43.9719 48.9821 43.9301 48.6246H43.9309ZM45.8624 49.7768C46.0298 49.7193 46.1645 49.6158 46.2315 49.4981L45.8624 49.7768ZM41.6803 49.586L41.6692 49.5703L41.61 49.6188L41.6199 49.6311L41.6803 49.586ZM41.8062 49.4794L41.7976 49.4695L41.7601 49.4998L41.7687 49.5092L41.8062 49.4794ZM41.5073 49.7065C41.5348 49.6907 41.5436 49.6859 41.5521 49.6806C41.5552 49.6781 41.5582 49.6754 41.5609 49.6726C41.5541 49.6709 41.5451 49.6658 41.5413 49.6682C41.5286 49.6798 41.5172 49.6926 41.5073 49.7065Z" fill="currentColor"/>
<path d="M64.76 42.7523C64.8839 42.7523 64.9814 42.7879 65.0604 42.8703C65.0766 42.8848 65.0886 42.9031 65.0951 42.9234C65.1016 42.9438 65.1024 42.9654 65.0974 42.9861C65.0921 43.0127 65.0852 43.039 65.0768 43.0649C65.0483 43.1456 65.0204 43.2265 64.9887 43.3072C64.7542 43.8935 64.5533 44.4902 64.3771 45.0946C64.3675 45.1278 64.3597 45.1617 64.3519 45.1898C64.3705 45.2216 64.3967 45.2162 64.4191 45.217C64.4997 45.2194 64.5803 45.2196 64.6608 45.2216C64.9104 45.2279 65.1601 45.231 65.4094 45.2422C65.6027 45.2481 65.7951 45.2704 65.9843 45.3088C66.0829 45.3285 66.1787 45.3596 66.2696 45.4016C66.3322 45.4289 66.3878 45.4693 66.4322 45.5199C66.4921 45.5926 66.5203 45.6748 66.4826 45.7656C66.4277 45.7899 66.3819 45.7656 66.3403 45.747C66.2031 45.6906 66.0577 45.6546 65.9092 45.6401C65.7972 45.6273 65.6844 45.6193 65.5718 45.6159C65.1528 45.6047 64.7341 45.6081 64.3159 45.6365C64.2884 45.6384 64.261 45.644 64.2275 45.6488C64.2023 45.756 64.1749 45.8609 64.1519 45.9666C64.0359 46.4738 63.9382 46.9844 63.8679 47.4992C63.8239 47.8218 63.7924 48.146 63.7594 48.47C63.7131 48.9412 63.6977 49.414 63.6987 49.8871C63.6987 50.205 63.71 50.523 63.7438 50.8393C63.7607 50.997 63.7873 51.1543 63.8168 51.3104C63.8421 51.444 63.886 51.5738 63.9472 51.6962C63.9696 51.741 63.988 51.7878 64.0119 51.8416C63.9849 51.8535 63.9565 51.8623 63.9273 51.868C63.8648 51.8722 63.8021 51.8641 63.7429 51.8442C63.6838 51.8243 63.6294 51.7931 63.5831 51.7524C63.5082 51.6873 63.4476 51.6083 63.4049 51.5203C63.3394 51.3912 63.291 51.2549 63.2606 51.1143C63.1856 50.7966 63.1434 50.4726 63.1347 50.1469C63.1266 49.7283 63.1143 49.3098 63.1281 48.891C63.1281 48.8685 63.1281 48.8459 63.1281 48.8258C63.0901 48.8084 63.08 48.8362 63.0657 48.8515C62.8945 49.0316 62.726 49.215 62.5523 49.3922C62.3918 49.5558 62.2188 49.7076 62.0348 49.8464C61.9272 49.9279 61.8128 50.0008 61.6929 50.0645C61.318 50.2642 60.8872 50.1219 60.6605 49.8071C60.5812 49.6975 60.5578 49.5727 60.5515 49.4436C60.5464 49.2768 60.5614 49.11 60.5961 48.9465C60.6363 48.721 60.7015 48.5002 60.7905 48.288C60.8246 48.2055 60.8667 48.1262 60.9164 48.0513C61.0015 47.9274 61.1024 47.9206 61.2203 48.0188C61.2457 48.0373 61.2651 48.0626 61.2759 48.0915C61.2868 48.1204 61.2887 48.1517 61.2815 48.1816C61.2447 48.3915 61.2155 48.6028 61.188 48.8142C61.1586 49.049 61.1428 49.2853 61.1407 49.5218C61.1407 49.564 61.146 49.6062 61.149 49.6467C61.2009 49.6651 61.2326 49.635 61.2659 49.6166C61.4925 49.4908 61.7168 49.3604 61.9228 49.2046C62.2675 48.9426 62.5918 48.6566 62.893 48.3489C62.9758 48.2643 63.0516 48.1734 63.1322 48.0869C63.1503 48.0666 63.1606 48.0409 63.1614 48.0142C63.176 47.8365 63.1891 47.6586 63.2072 47.481C63.2608 46.9524 63.3331 46.4265 63.4615 45.9089C63.4706 45.8713 63.4754 45.8328 63.4807 45.7945C63.4807 45.7882 63.4749 45.7809 63.4691 45.7686C63.4226 45.7635 63.3756 45.768 63.3311 45.7816C62.9657 45.8616 62.6101 45.9785 62.2703 46.1304C62.2559 46.1369 62.2416 46.144 62.2272 46.1512C62.1232 46.205 62.1152 46.2138 62.0761 46.3155C61.9628 46.3248 61.8681 46.1873 61.8621 46.1006C61.8612 46.0773 61.8683 46.0545 61.8825 46.0356C61.9165 45.9879 61.957 45.9447 62.0029 45.9072C62.0929 45.8421 62.1876 45.7833 62.2864 45.7312C62.5714 45.5839 62.8766 45.4845 63.1881 45.4036C63.3278 45.3672 63.4686 45.3352 63.6126 45.3006C63.663 45.1615 63.7153 45.0236 63.7637 44.8842C63.9221 44.4201 64.0978 43.9633 64.3159 43.5208C64.4255 43.2961 64.5482 43.0777 64.6835 42.8664C64.7074 42.8291 64.7318 42.7937 64.76 42.7523ZM64.758 43.5634C64.7653 43.5416 64.7726 43.5198 64.7797 43.4975C64.7812 43.4912 64.7829 43.4846 64.7845 43.4783C64.7845 43.4859 64.7845 43.4934 64.7827 43.5009C64.7512 43.5154 64.7588 43.5416 64.7613 43.5661C64.7235 43.5724 64.7361 43.5978 64.7384 43.6201C64.6983 43.6288 64.7082 43.657 64.7117 43.6824C64.6764 43.6824 64.6865 43.7093 64.6827 43.7287C64.6477 43.7549 64.6576 43.7839 64.6762 43.8138H64.6442C64.6271 43.8414 64.6102 43.8688 64.5938 43.8976C64.5938 43.9294 64.5727 43.9618 64.5959 43.9945C64.5536 43.9904 64.5546 44.0275 64.5455 44.0488C64.4136 44.4056 64.2882 44.7643 64.1804 45.1285C64.1776 45.1429 64.1763 45.1575 64.1764 45.1721L64.19 45.175C64.3243 44.7805 64.4579 44.3856 64.5908 43.9904C64.6062 43.9589 64.616 43.9274 64.5908 43.8964C64.609 43.8964 64.6256 43.8988 64.6349 43.8758C64.6465 43.8544 64.6596 43.8338 64.6742 43.8142C64.6757 43.7854 64.6774 43.7563 64.679 43.727C64.7041 43.7212 64.7009 43.6979 64.7077 43.6807C64.7145 43.6635 64.7263 43.6393 64.7349 43.6179L64.758 43.5634ZM64.053 45.7101L64.0321 45.7077C64.0211 45.7363 64.0117 45.7654 64.0039 45.795C63.948 46.0562 63.8886 46.3172 63.839 46.5797C63.7987 46.7927 63.7695 47.0075 63.7382 47.2217C63.7186 47.3518 63.7017 47.4825 63.6859 47.6131C63.6635 47.8014 63.6405 47.9897 63.6224 48.1785C63.6086 48.321 63.6015 48.4642 63.5912 48.607C63.5819 48.7383 63.5753 48.8699 63.562 49.001C63.5452 49.1864 63.5435 49.3728 63.5569 49.5584C63.5713 49.3403 63.5821 49.1195 63.5947 48.9002C63.5972 48.8498 63.5985 48.7994 63.6023 48.7492C63.6151 48.5871 63.629 48.4252 63.6426 48.2631C63.6524 48.1475 63.6602 48.0314 63.6733 47.916C63.6924 47.7464 63.7143 47.5779 63.7372 47.409C63.7624 47.2212 63.7853 47.0329 63.8181 46.846C63.8755 46.5181 63.9392 46.1917 64.023 45.8682C64.0351 45.8158 64.0432 45.7627 64.0522 45.7101H64.053ZM62.6764 49.0922L62.6938 49.0747C62.6963 49.072 62.6988 49.0689 62.7011 49.066C62.6951 49.0677 62.6895 49.0703 62.6845 49.0737C62.6808 49.0794 62.678 49.0856 62.6764 49.0922V49.0922ZM62.9884 48.7604L62.9813 48.7664C62.9841 48.7669 62.9869 48.7669 62.9897 48.7664C62.9924 48.7648 62.9948 48.7629 62.997 48.7606L62.9884 48.7604Z" fill="currentColor"/>
<path d="M33.2484 47.7023C33.2232 47.8428 33.1998 47.9725 33.1746 48.1017C33.1177 48.3951 33.0656 48.6891 33.052 48.9879C33.047 49.0926 33.046 49.1971 33.0449 49.3018C33.0463 49.3262 33.0495 49.3505 33.0545 49.3745C33.0857 49.389 33.0998 49.3721 33.1129 49.3592C33.1776 49.3009 33.2389 49.2394 33.2967 49.1748C33.4627 48.9751 33.6289 48.7754 33.7857 48.5689C33.9544 48.3469 34.1106 48.1162 34.276 47.8918C34.4462 47.6611 34.619 47.4323 34.7944 47.2054C34.859 47.1261 34.9281 47.0503 35.0017 46.9786C35.0403 46.939 35.083 46.9034 35.1293 46.8724C35.2975 46.76 35.4783 46.7387 35.6677 46.8174C35.8487 46.8881 35.9975 47.0187 36.0872 47.1858C36.1764 47.3475 36.2266 47.5264 36.234 47.7093C36.2455 48.1698 36.2465 48.6317 36.2015 49.0907C36.1392 49.6895 36.0229 50.2819 35.8537 50.8613C35.7452 51.243 35.6211 51.6191 35.4544 51.9812C35.3639 52.1844 35.2531 52.3786 35.1235 52.5612C35.0332 52.6898 34.9248 52.8057 34.8015 52.9058C34.6629 53.02 34.4925 53.0926 34.3115 53.1147C34.2112 53.1232 34.1102 53.1198 34.0108 53.1045C33.983 53.1007 33.9559 53.0925 33.9308 53.0803C33.6389 52.9426 33.4554 52.7284 33.4231 52.4092C33.4078 52.2232 33.4298 52.0361 33.4879 51.8581C33.5921 51.5021 33.7741 51.1716 34.0217 50.8887C34.4301 50.4263 34.8813 50.0073 35.4106 49.6716C35.576 49.5667 35.5753 49.5659 35.6024 49.3808C35.6323 49.1775 35.6625 48.9743 35.6931 48.771C35.7241 48.54 35.7385 48.3072 35.7362 48.0743C35.7374 47.8496 35.7296 47.6249 35.7221 47.4003C35.7183 47.3345 35.7099 47.2691 35.6969 47.2045C35.6891 47.1809 35.6784 47.1583 35.6651 47.1371C35.6421 47.1457 35.6204 47.1573 35.6007 47.1718C35.5501 47.2216 35.5026 47.2743 35.4584 47.3295C35.3504 47.4696 35.2424 47.6099 35.1412 47.7544C34.9223 48.0655 34.7073 48.3794 34.4915 48.6927C34.3212 48.9468 34.1351 49.1907 33.934 49.423C33.8686 49.4957 33.7996 49.5684 33.7291 49.6365C33.6843 49.6806 33.6324 49.7184 33.5856 49.7608C33.2351 50.079 32.6539 49.8412 32.5242 49.4879C32.4865 49.3897 32.465 49.2864 32.4605 49.1818C32.4572 49.0073 32.4729 48.833 32.5076 48.6617C32.5507 48.4251 32.6146 48.1924 32.6987 47.9662C32.7224 47.9044 32.7494 47.8438 32.7796 47.7847C32.7992 47.7465 32.8227 47.7103 32.8498 47.6766C32.9314 47.5748 33.0213 47.5571 33.1348 47.6213C33.1741 47.6464 33.2121 47.6734 33.2484 47.7023V47.7023ZM35.3013 51.9458C35.333 51.9395 35.3285 51.918 35.324 51.8974C35.3431 51.8942 35.3617 51.8903 35.3605 51.8656C35.3659 51.8615 35.3711 51.8571 35.3761 51.8525C35.3761 51.8525 35.3743 51.8474 35.3733 51.8448L35.3637 51.869C35.3504 51.8787 35.3371 51.8881 35.3237 51.8981C35.3262 51.9192 35.3237 51.9381 35.3 51.9466C35.3023 51.9492 35.3058 51.9521 35.3061 51.955C35.3063 51.9579 35.3031 51.9611 35.3016 51.964L35.3013 51.9458ZM35.3967 51.7343L35.4219 51.7265C35.4133 51.7291 35.4049 51.7323 35.3967 51.7359C35.3961 51.7431 35.3961 51.7503 35.3967 51.7575C35.3967 51.7609 35.4013 51.7638 35.4038 51.767C35.404 51.7633 35.404 51.7595 35.4038 51.7558C35.4 51.7486 35.3977 51.7415 35.3955 51.7338L35.3967 51.7343ZM35.4524 51.6276C35.4901 51.6068 35.4776 51.577 35.4677 51.5476C35.5037 51.528 35.5037 51.528 35.4929 51.4778C35.5027 51.4789 35.5126 51.4766 35.5208 51.4713C35.529 51.4659 35.5349 51.4579 35.5375 51.4488C35.5672 51.362 35.5982 51.276 35.6269 51.189C35.6289 51.174 35.6284 51.1589 35.6254 51.1441C35.6631 51.131 35.6591 51.094 35.6674 51.0673C35.746 50.816 35.8185 50.563 35.8706 50.3054C35.8988 50.1694 35.921 50.0322 35.9462 49.8953C35.9645 49.8776 35.9696 49.858 35.9494 49.8248V49.8975C35.9382 49.9124 35.9292 49.9287 35.9225 49.9459C35.8359 50.325 35.7462 50.7035 35.6352 51.0765C35.6308 51.0991 35.6286 51.1219 35.6286 51.1449C35.5846 51.1962 35.5848 51.2638 35.5596 51.3223C35.5375 51.3736 35.5345 51.4323 35.4939 51.4771C35.4866 51.5014 35.4791 51.5256 35.4728 51.5498C35.4665 51.5741 35.4624 51.6024 35.4577 51.6291C35.4536 51.6351 35.4491 51.6409 35.4456 51.6472C35.4456 51.6485 35.4486 51.6516 35.4501 51.654L35.4524 51.6276ZM35.4851 49.9348L35.4625 49.9246C35.4373 49.9426 35.4101 49.9583 35.3869 49.9782C35.2849 50.0662 35.1832 50.1546 35.083 50.2448C34.8913 50.4168 34.7141 50.6032 34.553 50.8022C34.318 51.0911 34.1249 51.4027 33.997 51.7498C33.9179 51.9492 33.8776 52.1609 33.8779 52.3743C33.8818 52.5179 33.9184 52.659 33.9852 52.7875C34.0496 52.915 34.1133 52.9283 34.2317 52.844C34.3179 52.7802 34.3943 52.7049 34.4583 52.6203C34.6056 52.4307 34.7285 52.2246 34.8244 52.0067C35.1023 51.3872 35.3138 50.7422 35.4557 50.0814C35.4682 50.0329 35.4753 49.9838 35.4839 49.9348H35.4851ZM33.7243 49.4203L33.7409 49.4368C33.7699 49.406 33.8011 49.3769 33.8273 49.3439C33.9227 49.2242 34.0214 49.1067 34.1103 48.9824C34.5144 48.4186 34.9172 47.8538 35.3189 47.2878C35.3216 47.2808 35.3228 47.2733 35.3227 47.2658C35.2493 47.3334 35.1832 47.408 35.1255 47.4885C34.9206 47.7757 34.7161 48.0629 34.5159 48.353C34.2752 48.7012 34.0287 49.0451 33.7606 49.3747C33.747 49.3897 33.7351 49.4053 33.723 49.4203H33.7243ZM35.9824 49.7419L35.9791 49.7312C35.9771 49.7341 35.9738 49.737 35.9733 49.7402C35.9736 49.7439 35.9745 49.7475 35.9761 49.7509L35.9824 49.7419Z" fill="currentColor"/>
<path d="M61.5578 46.458C61.5525 46.485 61.5427 46.5043 61.5475 46.5194C61.5567 46.5407 61.5693 46.5605 61.585 46.578C61.6401 46.6476 61.6777 46.7285 61.6948 46.8144C61.7119 46.9003 61.7081 46.9889 61.6837 47.0731C61.643 47.2368 61.54 47.3799 61.3952 47.4742C61.2693 47.5586 61.1406 47.5591 61.0129 47.4759C60.9996 47.4672 60.9862 47.4585 60.9737 47.449C60.8168 47.3278 60.7438 47.2108 60.8087 46.9563C60.8268 46.8931 60.8522 46.832 60.8843 46.7741C60.9505 46.6501 61.0312 46.5337 61.1247 46.4273C61.1748 46.3664 61.2357 46.3147 61.3048 46.2746C61.4307 46.2041 61.5535 46.2225 61.6527 46.3272C61.6883 46.3591 61.7144 46.3996 61.7283 46.4445C61.7307 46.4519 61.731 46.4599 61.7292 46.4675C61.7274 46.4751 61.7235 46.4821 61.7179 46.4878C61.7124 46.4935 61.7054 46.4977 61.6976 46.4999C61.6898 46.5021 61.6815 46.5023 61.6736 46.5005C61.6399 46.4917 61.6077 46.4767 61.5578 46.458ZM61.2348 47.0092C61.3103 46.9277 61.3569 46.832 61.3556 46.753C61.2961 46.8287 61.2548 46.9162 61.2348 47.0092Z" fill="currentColor"/>
<path d="M59.7397 50.5705C59.705 50.5724 59.6705 50.5649 59.6401 50.5487C59.6097 50.5325 59.5847 50.5084 59.5679 50.4791C59.545 50.4426 59.5273 50.4033 59.5153 50.3623C59.4769 50.2152 59.4669 50.0626 59.4856 49.912C59.4977 49.801 59.5546 49.7138 59.6669 49.6697C59.7343 49.6429 59.8078 49.6334 59.8802 49.642C59.9931 49.6571 60.0974 49.7083 60.1763 49.7874C60.2552 49.8666 60.3041 49.9691 60.315 50.0783C60.3203 50.1408 60.3024 50.2031 60.2647 50.2542C60.1571 50.4011 60.0187 50.5089 59.8366 50.5574C59.8046 50.5638 59.7722 50.5681 59.7397 50.5705V50.5705Z" fill="currentColor"/>
</g>
<defs>
<clipPath id="clip0">
<rect width="40" height="12" fill="white" transform="translate(26.5001 41.1188)"/>
</clipPath>
</defs>
</svg>
