<svg width="93" height="94"  xmlns="http://www.w3.org/2000/svg" viewBox="0 0 93 94" fill="currentColor" >
<g>
	<path fill="none" stroke="currentColor" stroke-miterlimit="10" d="M83.7,82.1c0,1.1-0.9,2-2,2H11.4c-1.1,0-2-0.9-2-2V11.8
		c0-1.1,0.9-2,2-2h70.3c1.1,0,2,0.9,2,2V82.1z"/>
</g>
	<g>
	<g id="logoMark">
		<path id="logoMark_PathItem_" d="M25.4,52.9c-2.4,0-4.3-1.9-4.3-4.3h2.4c0,1,0.8,1.8,1.8,1.8s1.8-0.8,1.8-1.8s-0.8-1.8-1.8-1.8
			c0,0,0,0,0,0v-2.4c2.4,0,4.3,1.9,4.3,4.3C29.6,51,27.7,52.9,25.4,52.9L25.4,52.9z"/>
		<path id="logoMark_PathItem_2" d="M21.1,48.6v-2.4c1,0,1.8-0.8,1.8-1.8s-0.8-1.8-1.8-1.8c-1,0-1.8,0.8-1.8,1.8l0,0h-2.4
			c0-2.4,1.9-4.3,4.3-4.3s4.3,1.9,4.3,4.3S23.5,48.6,21.1,48.6L21.1,48.6z"/>
		<path id="logoMark_PathItem_3" d="M18,50c-0.8,0.7-1.9,0.6-2.6-0.1c-0.7-0.8-0.6-1.9,0.1-2.6c0.8-0.7,1.9-0.6,2.6,0.1
			c0.3,0.3,0.5,0.8,0.5,1.2h2.4c0-2.4-1.9-4.3-4.3-4.3s-4.3,1.9-4.3,4.3s1.9,4.3,4.3,4.3c0,0,0,0,0,0c2.4,0,4.3-1.9,4.3-4.3L19.9,49
			C19.2,49.2,18.6,49.5,18,50z"/>
	</g>
		<g id="type">
		<path id="type_CompoundPathItem_" d="M40.5,49.3V51h-6.7V42h1.8v7.4L40.5,49.3z"/>
			<path id="type_CompoundPathItem_2" d="M40.6,47.9c0-1.9,1.5-3.3,3.5-3.3c2,0,3.5,1.4,3.5,3.3c0,1.9-1.5,3.3-3.5,3.3
			C42.1,51.2,40.6,49.8,40.6,47.9z M45.8,47.9c0-1-0.7-1.7-1.7-1.7c-1,0-1.7,0.7-1.7,1.7c0,1,0.7,1.7,1.7,1.7
			C45.1,49.6,45.8,48.9,45.8,47.9L45.8,47.9z"/>
			<path id="type_CompoundPathItem_3" d="M54.4,47v4h-1.7v-3.7c0-0.7-0.5-1.2-1.2-1.2c-0.8,0-1.5,0.5-1.5,1.6V51h-1.7v-6.3H50v0.6
			c0.4-0.5,1.1-0.7,1.9-0.7C53.3,44.5,54.4,45.4,54.4,47z"/>
			<path id="type_CompoundPathItem_4" d="M61.9,44.7v5.9c0,1.7-1.6,3-3.8,3c-0.9,0-1.9-0.2-2.7-0.6v-1.6c1.2,0.7,2,0.8,2.6,0.8
			c1.2,0,2.1-0.7,2.1-1.7v-0.4c-0.5,0.5-1.2,0.8-2,0.8c-1.7,0-3.1-1.3-3.1-3.2c0-1.9,1.4-3.2,3.1-3.2c0.8,0,1.5,0.3,2,0.8v-0.6H61.9
			z M60.4,47.7c0-1-0.7-1.7-1.7-1.7c-1,0-1.8,0.7-1.8,1.7c0,1,0.8,1.6,1.8,1.6C59.6,49.4,60.4,48.7,60.4,47.7z"/>
			<path id="type_CompoundPathItem_5" d="M69.5,49h-4.2l-0.8,2h-1.9l3.7-9.1h2.3l3.7,9.1h-1.9L69.5,49z M68.9,47.3l-1.5-3.7l-1.5,3.7
			L68.9,47.3z"/>
			<path id="type_CompoundPathItem_6" d="M80.5,44.8c0,1.8-1.2,2.9-3.1,2.9h-2.6V51H73V42h4.4C79.3,42,80.5,43,80.5,44.8z M78.6,44.8
			c0-0.9-0.5-1.2-1.5-1.2h-2.3V46h2.3C78.1,46,78.6,45.7,78.6,44.8z"/>
	</g>
</g>
</svg>
