<svg xmlns="http://www.w3.org/2000/svg" id="Layer_1" data-name="Layer 1" viewBox="0 90.06 111.09 70.91"><defs><style>.cls-1{fill:none;}.cls-2{fill:#9fa6ab;}</style></defs><title>CloudGate_S_3.3_final</title><path d="M347.3272,448.78629a.17506.17506,0,0,1-.175.17506H250.09567a.17506.17506,0,0,1-.17506-.17506V444.626a.17506.17506,0,0,1,.17506-.175h6.54308a1.0183,1.0183,0,0,0,1.01829-1.0183V422.82706l.03547-.77773.1098-.77773.179-.75822c.02125-.06733.04963-.13288.07267-.202a8.37526,8.37526,0,0,1,1.84061-3.17642l.55984-.54211.61828-.4872a8.34234,8.34234,0,0,1,3.57505-1.50052l3.73978-.55981,3.75746-.50312,3.777-.43581q2.9391-.31887,5.89224-.55273c.659-.05314,1.31982-.0868,1.97886-.13286,1.31279-.09213,2.62731-.18425,3.94182-.25335.77939-.039,1.56246-.062,2.342-.09388,1.2012-.04785,2.397-.09567,3.59635-.124.829-.01949,1.65988-.02479,2.49085-.03366,1.1161-.01241,2.23036-.023,3.34819-.01773,1.23126.00532,2.46252.03014,3.69551.05847.91066.01949,1.82121.0319,2.73187.06377,1.28261.0443,2.5634.11161,3.846.179.85389.04606,1.71307.08148,2.56707.13641,1.40838.09212,2.81318.21082,4.22166.32952.72457.062,1.4473.108,2.17187.17714q3.18352.30293,6.35471.69978l3.75573.50312,3.74157.55981.7582.163a8.28436,8.28436,0,0,1,5.82142,5.545,8.18163,8.18163,0,0,1,.3738,1.73615l.03719.77773v20.60375a1.02009,1.02009,0,0,0,1.0201,1.0201h6.54317a.175.175,0,0,1,.175.175ZM257.657,407.91747v-5.24031l.03547-.7742.1098-.7795.179-.75822a8.438,8.438,0,0,1,1.91507-3.3784l.56162-.5421.61471-.48717a8.33954,8.33954,0,0,1,3.57683-1.50053l3.74157-.55983,3.75389-.50312,3.777-.43757q2.9417-.32156,5.89754-.55275c.63785-.05136,1.27916-.08326,1.92047-.12933,1.334-.09388,2.66623-.186,4.00194-.2551.76534-.039,1.52883-.062,2.29243-.09212,1.2171-.04961,2.43235-.09921,3.64772-.12578.81485-.01949,1.63338-.023,2.44651-.0319.81842-.01238,1.63512-.03366,2.45538-.03366.31,0,.62012.01241.93012.0142,1.233.00529,2.46425.03011,3.69551.05844.90525.01949,1.81234.0319,2.71759.06377,1.30035.0443,2.59887.1134,3.90095.18249.83627.04428,1.67242.07794,2.50858.13286,1.44557.09213,2.886.21437,4.32622.33661.6891.05844,1.38.1045,2.071.17006q3.18888.30293,6.367.69978l3.75573.50312,3.74157.55983.7582.163a8.31218,8.31218,0,0,1,6.19878,7.28294l.03363.7742v7.18175a.16964.16964,0,0,1-.26305.14346,15.09688,15.09688,0,0,0-4.23314-1.84929l-.1436-.0372-.14522-.03189-.75819-.16474-.21615-.04606-.21972-.0319-3.73973-.55981-.05147-.00886-.05309-.00709-3.75757-.50312a220.093,220.093,0,0,0-27.4151-1.71843,217.83157,217.83157,0,0,0-23.41132,1.26135l-3.81953.44113-.06564.00709-.06022.00886-3.75747.50312-.04958.00709-.05314.00886-3.74157.55981-.04606.00533-.04785.00884a15.12711,15.12711,0,0,0-5.61941,2.15543.17042.17042,0,0,1-.264-.14382Zm-6.60443,12.238-.023.163-.10981.77772-.04606.32242-.01416.326-.03369.776-.00886.15235v14.93793h-7.56143a.175.175,0,0,0-.175.175v17.84045a.17506.17506,0,0,0,.175.17506H353.99214a.17506.17506,0,0,0,.175-.17506V437.7859a.175.175,0,0,0-.175-.175H346.429V422.66229l-.00714-.16653-.03719-.77594-.00887-.15591-.01233-.15589c-.04076-.42341-.10283-.83973-.17722-1.25251l.24275-.00531V402.52478l-.0053-.15236-.03373-.77592-.00887-.17009-.00457-.04935a15.29972,15.29972,0,0,0-11.39813-13.40173l-.02929-.00759-.14522-.0319-.75819-.16473-.21615-.04606-.21972-.03366-3.73973-.55983-.05147-.00708-.05309-.00709-3.75757-.50312a220.27754,220.27754,0,0,0-27.424-1.71843,217.10172,217.10172,0,0,0-23.399,1.26135l-3.82656.44113-.06207.00709-.06022.00886-3.7539.50312-.05315.00709-.05141.00708-3.73978.55983-.04607.00709-.04606.00708a15.1618,15.1618,0,0,0-6.54593,2.75479l-.0904.06733-.08856.07085-.61476.4872-.26037.209-.241.23207-.56156.54211-.12581.12045-.11694.12578a15.29139,15.29139,0,0,0-3.48644,6.13675l-.04785.1683-.04071.17185-.17895.75825-.07439.30646-.04255.31536-.10981.77947-.04606.32244-.01416.32244-.03369.77592-.00886.15236V420.1502m0,0,.23561.00531" transform="translate(-243.08052 -294.83484)"/><path class="cls-1" d="M503.06158,319.79791v-7.18176l-.03363-.77417a8.31221,8.31221,0,0,0-6.19879-7.283l-.75818-.163-3.74157-.55988-3.75574-.50311q-3.17561-.40128-6.36707-.69977c-.69091-.06555-1.38183-.11163-2.071-.17-1.44025-.12226-2.88062-.24451-4.32617-.33661-.83618-.05493-1.67237-.08856-2.50861-.13288-1.30206-.06909-2.60058-.13818-3.90094-.18249-.90527-.03186-1.81238-.04425-2.71759-.06378-1.23126-.02832-2.46252-.0531-3.69549-.05841-.31-.00177-.62012-.01422-.93012-.01422-.82031,0-1.637.0213-2.45538.03369-.81317.00885-1.63165.01239-2.44653.03186-1.2154.02661-2.43061.07617-3.64771.12579-.76361.03009-1.5271.05316-2.29242.0921-1.33575.06909-2.668.16126-4.00195.25513-.6413.04608-1.28266.07794-1.92047.12933q-2.95506.23649-5.89753.55274l-3.777.43756-3.75391.50311-3.74158.55988a8.33923,8.33923,0,0,0-3.57684,1.50049l-.61469.48718-.56164.54211a8.4383,8.4383,0,0,0-1.915,3.37842l-.179.75818-.1098.77954-.03546.77417v7.18994a.17039.17039,0,0,0,.264.1438,15.12754,15.12754,0,0,1,5.61944-2.15546l.04786-.00879.046-.00537,3.74157-.55981.05316-.00885.04956-.00708,3.75745-.50311.06024-.00885.06568-.00708,3.81952-.44117a217.83439,217.83439,0,0,1,23.41131-1.26135,220.08772,220.08772,0,0,1,27.4151,1.71845l3.75757.50311.0531.00708.05145.00885,3.73975.55981.21973.03192.21612.04609.75818.16473.14526.03186.14356.03723a15.09631,15.09631,0,0,1,4.23315,1.84925.16964.16964,0,0,0,.26306-.14344" transform="translate(-243.08052 -294.83484)"/><path class="cls-1" d="M503.06158,319.79791l6.84009,10.29126V312.46381l-.00531-.15241-.03369-.77588-.00891-.1701-.00458-.04938a15.29971,15.29971,0,0,0-11.39813-13.40173l-.02924-.00757-.14526-.03192-.75818-.16474-.21612-.046-.21973-.03369-3.73975-.55981-.05145-.00708-.0531-.00708-3.75757-.50312a220.27159,220.27159,0,0,0-27.424-1.71844,217.103,217.103,0,0,0-23.399,1.26135l-3.82653.4411-.06208.00714-.06024.00885-3.75384.50312-.05317.00708-.05139.00708-3.7398.55981-.04609.00708-.046.00708a15.162,15.162,0,0,0-6.546,2.75482l-.09039.06732-.08856.07087-.61475.48718-.26037.209-.241.23206-.56158.54211-.1258.12049-.11694.12573a15.29149,15.29149,0,0,0-3.48645,6.13678l-.04785.16827-.04071.17188-.179.75824-.0744.30646-.04254.31537-.1098.77948-.046.32244-.01423.32245-.03363.77588-.00891.15241v17.62536l.23566.00531-.02307.163-.1098.77771-.046.32245-.01423.32592-.03363.77594-.00891.15241v14.93793h-7.5614a.175.175,0,0,0-.175.175v17.84046a.175.175,0,0,0,.175.175H517.46484a.175.175,0,0,0,.17505-.175V347.72491a.175.175,0,0,0-.17505-.175h-7.56317V332.60132l-.00714-.16657-.03717-.77594-.00891-.15588-.01233-.15588c-.04071-.42347-6.70013-11.13636-6.77454-11.54914" transform="translate(-243.08052 -294.83484)"/><path class="cls-1" d="M503.06158,353.36981V332.76605l-.03723-.77771a8.17556,8.17556,0,0,0-.37378-1.73614,8.2843,8.2843,0,0,0-5.82141-5.54505l-.75818-.163-3.74157-.55975-3.75574-.50318q-3.16764-.40118-6.35474-.69977c-.72455-.06909-1.44726-.11517-2.17187-.17712-1.40845-.11871-2.81323-.23743-4.22162-.32953-.854-.05493-1.7132-.09033-2.56708-.13641-1.28265-.06733-2.56341-.13465-3.846-.179-.9107-.03186-1.82122-.04425-2.73187-.06378-1.233-.02832-2.46423-.0531-3.69549-.05847-1.11786-.00525-2.23212.00537-3.34821.01776-.831.00885-1.66187.01416-2.49084.03363-1.19941.02838-2.39521.07623-3.59638.124-.77948.03192-1.56256.05493-2.342.09394-1.31451.06909-2.629.16119-3.94177.25329-.65906.04608-1.31983.07971-1.97888.13288q-2.94965.23647-5.89222.55273l-3.777.43579-3.75751.50318-3.73975.55975a8.343,8.343,0,0,0-3.57507,1.50055l-.61829.48718-.55981.54211a8.37561,8.37561,0,0,0-1.84064,3.17646c-.023.06909-.05139.13464-.07263.202l-.179.75818-.1098.77777-.03546.77771v20.60553a1.01829,1.01829,0,0,1-1.01831,1.01831h-6.54309a.175.175,0,0,0-.175.175v4.16034a.175.175,0,0,0,.175.175h97.05646a.1751.1751,0,0,0,.17511-.175v-4.16034a.1751.1751,0,0,0-.17511-.175h-6.54315A1.02011,1.02011,0,0,1,503.06158,353.36981Z" transform="translate(-243.08052 -294.83484)"/><rect x="7.73648" y="120.08424" width="6.84004" height="17.36647"/><rect x="96.50837" y="115.20385" width="6.84" height="17.36647"/><path d="M288.311,402.95375a2.22953,2.22953,0,1,0-2.23047-2.2304,2.22856,2.22856,0,0,0,2.23047,2.2304" transform="translate(-243.08052 -294.83484)"/><path d="M280.89949,402.95375a2.22953,2.22953,0,1,0-2.23042-2.2304,2.22855,2.22855,0,0,0,2.23042,2.2304" transform="translate(-243.08052 -294.83484)"/><path d="M295.72282,402.95375a2.22953,2.22953,0,1,0-2.23048-2.2304,2.22966,2.22966,0,0,0,2.23048,2.2304" transform="translate(-243.08052 -294.83484)"/><rect x="60.74006" y="101.24218" width="7.31165" height="6.47071"/><path class="cls-2" d="M267.337,436.03831a4.58417,4.58417,0,0,0,3.112,7.94643h3.17992v-.74367a1.17369,1.17369,0,0,0-.02693-.18848,1.12547,1.12547,0,0,0-.8651-.86573,2.02989,2.02989,0,0,0-.52185-.06392h-1.76629a2.7252,2.7252,0,0,1-2.72225-2.72237v-.00012a2.72566,2.72566,0,0,1,2.7225-2.72275h1.766a1.26075,1.26075,0,0,0,1.3412-.77249,1.20449,1.20449,0,0,0,.07268-.34577v-.743H270.449A4.56715,4.56715,0,0,0,267.337,436.03831Z" transform="translate(-243.08052 -294.83484)"/><path class="cls-2" d="M276.84522,434.81678c-.07218.00039-.141.00276-.20741.00652-.05475.00313-.10765.00715-.15852.01241l-.034.00313c-1.23592.14024-1.35636.89568-1.36814,1.06812v8.07778h.14036c1.30009,0,1.656-.572,1.75338-.90057.00565-.01906.01078-.0376.01491-.0549l.009-.04436a.79694.79694,0,0,0,.01178-.09073v-8.07777h-.14072Z" transform="translate(-243.08052 -294.83484)"/><path class="cls-2" d="M302.07646,434.82656c-.99693.07306-1.33192.5241-1.44446.82976a.91927.91927,0,0,0-.05577.25064v.58989H298.75v-.00024l-.004.00024H298.72v.00126a3.74289,3.74289,0,0,0,.03382,7.48561v.00026h1.82244v.00076h1.92947v-9.16833h-.14061Q302.21224,434.81641,302.07646,434.82656Zm-1.50023,3.42857v3.97058h-1.82068v-.00025h-.001a1.98764,1.98764,0,0,1-1.78785-1.12514,1.96738,1.96738,0,0,1-.19876-.858A1.9819,1.9819,0,0,1,298.747,438.255h1.8292Z" transform="translate(-243.08052 -294.83484)"/><path class="cls-2" d="M282.03556,436.39008a3.84174,3.84174,0,0,0-.39275,7.66333,3.90927,3.90927,0,0,0,.39275.0198,3.84157,3.84157,0,0,0,0-7.68313Zm0,5.92485a2.08323,2.08323,0,1,1,2.08323-2.08334A2.08565,2.08565,0,0,1,282.03556,442.31493Z" transform="translate(-243.08052 -294.83484)"/><path class="cls-2" d="M292.356,440.33536h-.00012a1.98856,1.98856,0,0,1-1.9836,1.9876h-.00151a1.97692,1.97692,0,0,1-.9285-.22959l-.00539-.00276-.02545-.015a1.98225,1.98225,0,0,1-1.02614-1.73847v-3.84037h-1.75814v3.84037a3.7226,3.7226,0,0,0,.73426,2.22873,3.79833,3.79833,0,0,0,.36419.42133,3.7228,3.7228,0,0,0,2.64543,1.09407h.003a3.73135,3.73135,0,0,0,3.17266-1.76654,3.72073,3.72073,0,0,0,.5672-1.97759h.00025v-3.84037H292.356Z" transform="translate(-243.08052 -294.83484)"/><path class="cls-2" d="M303.42718,439.40057a4.58944,4.58944,0,0,0,4.58391,4.58417h3.18018v-4.815h-.13609c-1.57267,0-1.71291.96436-1.72556,1.16788v1.7851h-1.31853a2.72532,2.72532,0,0,1-2.72224-2.72213v-.00012a2.72534,2.72534,0,0,1,2.72224-2.72225h1.76617c1.28868,0,1.40373-.9235,1.414-1.11837v-.74342h-3.18018A4.58918,4.58918,0,0,0,303.42718,439.40057Z" transform="translate(-243.08052 -294.83484)"/><path class="cls-2" d="M331.38117,440.2579a3.76326,3.76326,0,0,0-.0693-.72223,3.7318,3.7318,0,0,0-3.65753-3.01124h-.00125a3.73016,3.73016,0,0,0,.00438,7.46031H327.66v-.00728h1.69046c.1895-.012,1.08692-.14311,1.08692-1.61766v-.12707h-2.7799a1.98153,1.98153,0,0,1-1.84-1.254h5.56368Zm-5.56693-.72223a1.97375,1.97375,0,0,1,3.67921,0Z" transform="translate(-243.08052 -294.83484)"/><path class="cls-2" d="M318.23626,438.24874a3.69549,3.69549,0,0,0-3.03894-1.748v.00313h-1.30549a1.05369,1.05369,0,0,0-.59289.24251,1.68062,1.68062,0,0,0-.494,1.37516h2.385a1.788,1.788,0,0,1,1.84072,1.41413h-2.22584a2.2347,2.2347,0,1,0-.17695,4.44907h4.1642V440.194h-.00063A3.67388,3.67388,0,0,0,318.23626,438.24874Zm-3.54261,3.97772a.82361.82361,0,0,1-.09612-.00626.64581.64581,0,0,1-.61721-.59.63583.63583,0,0,1,.64754-.63287h2.42849v1.22915h-2.3627Z" transform="translate(-243.08052 -294.83484)"/><path class="cls-2" d="M324.02113,436.50037h-1.97546v-1.684h-.14074l-.02067.00037c-.07219.00039-.141.00276-.20741.00652-.05477.00313-.10765.00715-.15852.01241l-.034.00313c-1.23594.14024-1.35636.89568-1.36814,1.06812v8.07778h.14035c1.3001,0,1.656-.572,1.75339-.90057.00564-.01906.01078-.0376.01491-.0549l.009-.04436a.79694.79694,0,0,0,.01178-.09073v-4.666l.90007-.00188c.18723-.01165,1.07539-.14174,1.07539-1.60012Z" transform="translate(-243.08052 -294.83484)"/><rect x="69.04442" y="101.24218" width="7.31165" height="6.47071"/></svg>