<svg id="katman_1" data-name="katman 1" xmlns="http://www.w3.org/2000/svg" viewBox="0 0 801.49 807.63">
  <defs>
    <style>.cls-1{fill:none;stroke:#000;stroke-miterlimit:10;stroke-width:18.98px;}</style>
  </defs>
  <rect class="cls-1" x="9.49" y="9.49" width="782.51" height="788.65" rx="204.49" />
  <path fill="#000" d="M301.08,293.35H503.21a0,0,0,0,1,0,0v18A36.18,36.18,0,0,1,467,347.53H301.08a0,0,0,0,1,0,0V293.35A0,0,0,0,1,301.08,293.35Z" />
  <path fill="#000" d="M301.08,374H427.74a0,0,0,0,1,0,0v18a36.18,36.18,0,0,1-36.18,36.18H301.08a0,0,0,0,1,0,0V374A0,0,0,0,1,301.08,374Z" />
  <path fill="#000" d="M301.08,454.74h50.68a0,0,0,0,1,0,0v20.34a33.84,33.84,0,0,1-33.84,33.84H301.08a0,0,0,0,1,0,0V454.74A0,0,0,0,1,301.08,454.74Z" />
</svg>