<?xml version="1.0" encoding="iso-8859-1"?>
<!-- Generator: Adobe Illustrator 18.1.1, SVG Export Plug-In . SVG Version: 6.00 Build 0)  -->
<svg version="1.1" id="Capa_1" xmlns="http://www.w3.org/2000/svg" xmlns:xlink="http://www.w3.org/1999/xlink" x="0px" y="0px"
	 viewBox="0 0 34.443 34.443" style="enable-background:new 0 0 34.443 34.443;" xml:space="preserve">
<g>
	<path d="M20.986,20.595v2.621c3.542-1.477,6.033-4.969,6.033-9.047c0-5.41-4.387-9.797-9.797-9.797
		c-5.411,0-9.798,4.387-9.798,9.797c0,4.018,2.42,7.467,5.879,8.979V20.5c-2.118-1.314-3.533-3.652-3.533-6.33
		c0-4.115,3.336-7.451,7.453-7.451c4.116,0,7.452,3.336,7.452,7.451C24.674,16.91,23.19,19.3,20.986,20.595z"/>
	<path d="M17.221,0C9.396,0,3.052,6.346,3.052,14.169c0,6.465,4.333,11.907,10.25,13.609v-1.992
		c-4.85-1.637-8.348-6.215-8.348-11.617c0-6.775,5.492-12.268,12.268-12.268c6.775,0,12.268,5.492,12.268,12.268
		c0,5.463-3.57,10.084-8.503,11.674v1.973c5.995-1.65,10.404-7.126,10.404-13.646C31.39,6.346,25.047,0,17.221,0z"/>
	<path d="M18.969,31.165c0-0.814,0-14.473,0-14.623c0.686-0.526,1.134-1.346,1.134-2.279c0-1.591-1.291-2.881-2.882-2.881
		c-1.593,0-2.883,1.29-2.883,2.881c0,0.929,0.445,1.746,1.125,2.273l0,0c0,0,0,13.753,0,14.629c0,2.486-2.316,3.278-2.316,3.278
		h8.667C21.814,34.443,18.969,33.539,18.969,31.165z"/>
	<g>
	</g>
	<g>
	</g>
	<g>
	</g>
	<g>
	</g>
	<g>
	</g>
	<g>
	</g>
	<g>
	</g>
	<g>
	</g>
	<g>
	</g>
	<g>
	</g>
	<g>
	</g>
	<g>
	</g>
	<g>
	</g>
	<g>
	</g>
	<g>
	</g>
</g>
<g>
</g>
<g>
</g>
<g>
</g>
<g>
</g>
<g>
</g>
<g>
</g>
<g>
</g>
<g>
</g>
<g>
</g>
<g>
</g>
<g>
</g>
<g>
</g>
<g>
</g>
<g>
</g>
<g>
</g>
</svg>
