<svg id="ace5bc22-3b10-4c98-8986-236dfb114e4c" data-name="图层 1" xmlns="http://www.w3.org/2000/svg" viewBox="0 0 74.58 77.13"><defs><style>.b3855788-fe10-485b-bfcc-1274a920b976,.e4b61810-1034-4667-9398-0489a2fe88d6{fill:#1a1a1a;}.e4b61810-1034-4667-9398-0489a2fe88d6{fill-rule:evenodd;}.aab1e658-1cf4-4e65-abf8-0ff1dbf1b9d8,.b561354b-a7b2-4f7f-82b3-707ce19d69b7{fill:none;stroke:#000;stroke-miterlimit:10;}.b561354b-a7b2-4f7f-82b3-707ce19d69b7{stroke-width:1.5px;}.aab1e658-1cf4-4e65-abf8-0ff1dbf1b9d8{stroke-width:0.75px;}</style></defs><path class="e4b61810-1034-4667-9398-0489a2fe88d6" d="M27.34,36.33c.69-2.57-2.18-3.43-3.44-3.73a1.93,1.93,0,0,1,.47,2c-.85,3.18-2.53,9.46-3.39,12.64-.69,2.58,2.18,3.44,3.44,3.74A2,2,0,0,1,24,49C24.81,45.79,26.49,39.52,27.34,36.33Z" transform="translate(-1.71 -0.63)"/><path class="e4b61810-1034-4667-9398-0489a2fe88d6" d="M21.79,36c.54-2-1.71-2.68-2.7-2.92a1.51,1.51,0,0,1,.37,1.57c-.67,2.49-1.33,5-2,7.48-.54,2,1.7,2.69,2.69,2.92a1.49,1.49,0,0,1-.37-1.56Z" transform="translate(-1.71 -0.63)"/><polygon class="e4b61810-1034-4667-9398-0489a2fe88d6" points="37.37 44.31 32.68 44.31 34.88 36.09 37.01 36.09 35.29 42.54 37.85 42.54 37.37 44.31"/><path class="e4b61810-1034-4667-9398-0489a2fe88d6" d="M51.37,44.94H46.7l2-7.42a1.12,1.12,0,0,1,1-.8h3.88l-.48,1.77H50.56l-.37,1.39h2.54l-.48,1.78H49.71l-.4,1.5h2.54Z" transform="translate(-1.71 -0.63)"/><path class="e4b61810-1034-4667-9398-0489a2fe88d6" d="M59.35,44.74a6.08,6.08,0,0,1-2.05.42,3.19,3.19,0,0,1-3.19-4.31,5.38,5.38,0,0,1,5.52-4.3,4.49,4.49,0,0,1,1.81.41l-.75,2.81a1.55,1.55,0,0,0-1.6-1.15,3,3,0,0,0-2.74,2.15,1.6,1.6,0,0,0,1.58,2.16,2.94,2.94,0,0,0,2.22-1.16Z" transform="translate(-1.71 -0.63)"/><path class="e4b61810-1034-4667-9398-0489a2fe88d6" d="M45.81,38.49a1.11,1.11,0,0,0-1,.8l-1.52,5.65H41.15l1.73-6.45H41.14l.48-1.77h5.64l-.48,1.77Z" transform="translate(-1.71 -0.63)"/><path class="e4b61810-1034-4667-9398-0489a2fe88d6" d="M30.06,37.52a1.12,1.12,0,0,1,1-.8H35l-.48,1.77H31.93l-.37,1.39H34.1l-.48,1.78H31.08l-.4,1.5h2.54l-.48,1.78H28.07Q29.07,41.22,30.06,37.52Z" transform="translate(-1.71 -0.63)"/><path class="e4b61810-1034-4667-9398-0489a2fe88d6" d="M29.08,48.78h-.93l-.25.44h-.83l1.71-2.66h.89L30,49.22H29.1l0-.44Zm0-.58,0-1-.55,1Zm3.73-1.64h.82l-.43,1.58a1.49,1.49,0,0,1-.19.45,1.42,1.42,0,0,1-.33.36,1.1,1.1,0,0,1-.39.22,1.78,1.78,0,0,1-.59.09l-.42,0a1,1,0,0,1-.35-.1.69.69,0,0,1-.22-.23.71.71,0,0,1-.1-.31,1.55,1.55,0,0,1,.05-.45l.42-1.58h.82l-.43,1.62a.39.39,0,0,0,0,.34.35.35,0,0,0,.3.12.56.56,0,0,0,.36-.12.62.62,0,0,0,.21-.34l.44-1.62Zm1.3,0h2.5l-.18.66h-.84l-.53,2h-.82l.53-2h-.83l.17-.66Zm2.41,1.33a1.47,1.47,0,0,0,0,.77.8.8,0,0,0,.36.46,1.54,1.54,0,0,0,.71.14,1.79,1.79,0,0,0,.78-.17,1.62,1.62,0,0,0,.58-.46,2.34,2.34,0,0,0,.36-.76,1.18,1.18,0,0,0-.09-1,1.09,1.09,0,0,0-.93-.35,1.76,1.76,0,0,0-1.11.36,1.91,1.91,0,0,0-.63,1Zm.82,0a1.17,1.17,0,0,1,.3-.58.67.67,0,0,1,.45-.17.39.39,0,0,1,.37.17.72.72,0,0,1,0,.55,1.23,1.23,0,0,1-.31.61.64.64,0,0,1-.46.17.38.38,0,0,1-.36-.17.87.87,0,0,1,0-.58Zm2.85-1.33h1.08l0,1.62.85-1.62h1.08l-.72,2.66h-.67l.55-2-1.06,2h-.61l0-2-.54,2h-.67l.71-2.66Zm4.68,2.22v.44h.86l-.28-2.66h-.9l-1.71,2.66h.84l.25-.44Zm0-.58h-.58l.54-1,0,1Zm1.55-1.64h2.5l-.18.66h-.84l-.53,2h-.82l.54-2h-.84l.17-.66Zm3,0-.71,2.66h.82l.71-2.66Zm1.08,1.33a1.91,1.91,0,0,1,.63-1,1.76,1.76,0,0,1,1.11-.36,1.09,1.09,0,0,1,.93.35,1.18,1.18,0,0,1,.09,1,2.34,2.34,0,0,1-.36.76,1.62,1.62,0,0,1-.58.46,1.79,1.79,0,0,1-.78.17,1.54,1.54,0,0,1-.71-.14.75.75,0,0,1-.35-.46,1.36,1.36,0,0,1,0-.77Zm.82,0a.87.87,0,0,0,0,.58.38.38,0,0,0,.36.17.64.64,0,0,0,.46-.17,1.23,1.23,0,0,0,.31-.61.72.72,0,0,0,0-.55.39.39,0,0,0-.37-.17.63.63,0,0,0-.44.17,1.1,1.1,0,0,0-.31.58Zm2.87-1.33h.76L55.55,48l.39-1.47h.77L56,49.22h-.77l-.6-1.46-.39,1.46h-.77Z" transform="translate(-1.71 -0.63)"/><rect class="b3855788-fe10-485b-bfcc-1274a920b976" x="17.94" y="37.48" width="5.6" height="1.97"/><rect class="b561354b-a7b2-4f7f-82b3-707ce19d69b7" x="0.75" y="6.34" width="73.08" height="70.04" rx="8"/><polyline class="aab1e658-1cf4-4e65-abf8-0ff1dbf1b9d8" points="10.24 6.51 10.24 4.5 15.72 4.5 15.72 6.51"/><polyline class="aab1e658-1cf4-4e65-abf8-0ff1dbf1b9d8" points="11.16 4.5 11.16 0.38 14.81 0.38 14.81 4.5"/></svg>