<?xml version="1.0" encoding="UTF-8"?>
<!DOCTYPE svg PUBLIC "-//W3C//DTD SVG 1.1//EN" "http://www.w3.org/Graphics/SVG/1.1/DTD/svg11.dtd">
<!-- Creator: CorelDRAW X7 -->
<svg xmlns="http://www.w3.org/2000/svg" xml:space="preserve" width="30mm" height="25mm" version="1.1" style="shape-rendering:geometricPrecision; text-rendering:geometricPrecision; image-rendering:optimizeQuality; fill-rule:evenodd; clip-rule:evenodd"
viewBox="0 0 3000 2500"
 xmlns:xlink="http://www.w3.org/1999/xlink">
 <defs>
  <style type="text/css">
   <![CDATA[
    .str0 {stroke:black;stroke-width:20;stroke-linejoin:bevel}
    .str2 {stroke:black;stroke-width:10;stroke-linejoin:bevel}
    .str1 {stroke:black;stroke-width:7.62;stroke-linejoin:bevel}
    .fil0 {fill:none}
   ]]>
  </style>
 </defs>
 <g id="Visible">
  <metadata id="CorelCorpID_0Corel-Layer"/>
  <path class="fil0 str0" d="M1801 1195c12,7 23,18 31,32 8,14 12,29 12,42"/>
  <path class="fil0 str0" d="M1835 1297c14,-14 12,-45 -6,-73 -17,-28 -44,-42 -60,-33"/>
  <line class="fil0 str0" x1="1844" y1="1269" x2="1844" y2= "1271" />
  <line class="fil0 str0" x1="1801" y1="1195" x2="1800" y2= "1194" />
  <line class="fil0 str0" x1="1711" y1="1225" x2="1769" y2= "1191" />
  <line class="fil0 str0" x1="1790" y1="1190" x2="1789" y2= "1190" />
  <line class="fil0 str0" x1="1848" y1="1280" x2="1843" y2= "1282" />
  <path class="fil0 str0" d="M1842 1215c0,0 0,0 0,0"/>
  <path class="fil0 str0" d="M1850 303c0,3 -3,6 -7,8 -4,1 -10,1 -14,0 -5,-2 -8,-4 -8,-7"/>
  <path class="fil0 str0" d="M1848 308c-1,3 -6,6 -12,6 -6,0 -12,-3 -13,-6"/>
  <path class="fil0 str0" d="M1850 305c1,3 -1,6 -6,8 -5,2 -11,2 -16,1 -5,-2 -8,-6 -6,-9"/>
  <path class="fil0 str0" d="M1850 310c0,3 -3,5 -7,7 -4,1 -10,1 -14,0 -5,-1 -8,-4 -8,-7"/>
  <path class="fil0 str0" d="M1848 314c-1,3 -6,6 -12,6 -6,0 -11,-2 -13,-6"/>
  <path class="fil0 str0" d="M1850 311c1,3 -1,7 -6,9 -5,2 -11,2 -16,0 -5,-2 -7,-5 -6,-9"/>
  <path class="fil0 str0" d="M1842 1215c-5,0 -11,-1 -16,-2 -2,0 -3,0 -5,-1"/>
  <path class="fil0 str0" d="M1790 1190c-1,-2 -1,-4 -2,-6"/>
  <line class="fil0 str0" x1="1844" y1="1216" x2="1845" y2= "1268" />
  <path class="fil0 str0" d="M1798 701c-2,14 -4,28 -5,43 -1,14 -3,29 -4,43 -1,15 -2,29 -2,44 -1,14 -1,29 -2,44 0,15 0,29 0,44"/>
  <path class="fil0 str0" d="M1900 918c0,-15 0,-30 -1,-44 0,-15 -1,-30 -2,-44 -1,-15 -2,-30 -4,-44 -1,-15 -3,-29 -4,-43 -2,-15 -4,-29 -6,-43"/>
  <path class="fil0 str0" d="M1856 524c-1,-3 -1,-6 -1,-8 -1,-3 -1,-6 -1,-9 -1,-3 -1,-6 -1,-9 0,-3 -1,-6 -1,-9 0,-3 0,-6 0,-9"/>
  <path class="fil0 str0" d="M1823 480c0,3 0,6 0,9 0,3 0,6 0,9 0,3 0,6 0,9 -1,3 -1,6 -1,9 -1,3 -1,6 -1,9"/>
  <path class="fil0 str0" d="M1821 243c-1,-8 6,-14 14,-14 8,-1 14,6 14,14"/>
  <line class="fil0 str0" x1="1849" y1="243" x2="1850" y2= "303" />
  <line class="fil0 str0" x1="1821" y1="243" x2="1821" y2= "304" />
  <line class="fil0 str0" x1="1850" y1="306" x2="1850" y2= "310" />
  <line class="fil0 str0" x1="1821" y1="307" x2="1821" y2= "310" />
  <line class="fil0 str0" x1="1850" y1="313" x2="1852" y2= "480" />
  <line class="fil0 str0" x1="1821" y1="313" x2="1823" y2= "480" />
  <line class="fil0 str0" x1="1856" y1="524" x2="1883" y2= "700" />
  <line class="fil0 str0" x1="1821" y1="525" x2="1798" y2= "701" />
  <line class="fil0 str0" x1="1900" y1="918" x2="1905" y2= "1276" />
  <line class="fil0 str0" x1="1785" y1="919" x2="1788" y2= "1190" />
  <line class="fil0 str0" x1="1866" y1="1296" x2="1858" y2= "1291" />
  <path class="fil0 str0" d="M1853 1287c0,0 0,1 0,1 1,0 1,1 1,1 1,0 1,1 1,1 1,0 1,0 1,1 1,0 1,0 2,0"/>
  <path class="fil0 str0" d="M1845 1269c0,1 0,3 1,4 0,1 0,3 1,4 0,1 1,2 1,4 1,1 2,2 2,3 1,1 2,2 3,3"/>
  <path class="fil0 str0" d="M1788 1184c0,0 0,0 0,0 0,0 0,0 0,0 0,0 0,0 0,0 0,0 0,0 0,0 0,0 0,0 0,0 0,0 0,0 0,0 0,0 0,0 0,0 0,0 0,0 0,0 0,0 0,0 0,0"/>
  <path class="fil0 str0" d="M1844 1216c0,0 0,0 0,0 0,0 0,0 0,0 0,0 0,0 0,0 0,0 0,0 0,0 0,0 0,0 0,0 0,0 0,0 0,0 0,0 0,0 0,0 0,0 0,0 0,0 0,0 0,0 0,0 0,0 0,0 0,0 0,0 0,0 0,0 0,0 0,0 0,0 0,0 0,0 0,0 -1,0 -1,0 -1,-1 0,0 0,0 0,0 0,0 -1,0 -1,0"/>
  <path class="fil0 str0" d="M1844 1216c0,0 0,0 0,0 0,0 0,0 0,0 0,0 0,0 0,0 0,0 0,0 0,0 0,0 0,0 0,0 0,0 0,0 0,0 0,0 0,0 0,0 0,0 0,0 0,0 0,0 0,0 -1,0 0,0 0,-1 0,-1 0,0 0,0 0,0 -1,0 -1,0 -1,0"/>
  <path class="fil0 str0" d="M1845 1269c0,0 0,0 0,-1"/>
  <path class="fil0 str0" d="M1894 1295c-3,2 -5,4 -8,4 -3,1 -6,1 -9,1 -4,-1 -7,-2 -10,-3 0,-1 -1,-1 -1,-1"/>
  <path class="fil0 str0" d="M1905 1276c0,1 -1,2 -1,4 0,1 -1,3 -1,4 -1,1 -1,3 -2,4 -1,1 -2,3 -3,4 -1,1 -3,2 -4,3"/>
  <path class="fil0 str1" d="M1149 1264c1,0 3,1 2,2"/>
  <path class="fil0 str1" d="M1148 1265c0,-1 1,-1 1,-1"/>
  <line class="fil0 str1" x1="1131" y1="1275" x2="1148" y2= "1265" />
  <path class="fil0 str1" d="M1133 1276c-1,1 -4,0 -2,-1"/>
  <line class="fil0 str1" x1="1151" y1="1266" x2="1133" y2= "1276" />
  <line class="fil0 str1" x1="1169" y1="1263" x2="1162" y2= "1259" />
  <line class="fil0 str1" x1="1169" y1="1265" x2="1169" y2= "1263" />
  <line class="fil0 str1" x1="1136" y1="1286" x2="1135" y2= "1287" />
  <line class="fil0 str1" x1="1135" y1="1283" x2="1169" y2= "1263" />
  <line class="fil0 str1" x1="1135" y1="1287" x2="1135" y2= "1283" />
  <line class="fil0 str1" x1="1135" y1="1287" x2="1130" y2= "1284" />
  <line class="fil0 str1" x1="1130" y1="1280" x2="1135" y2= "1283" />
  <path class="fil0 str1" d="M1130 1284c0,0 0,0 0,0"/>
  <path class="fil0 str1" d="M1130 1280c0,0 0,0 0,0"/>
  <path class="fil0 str1" d="M1130 1279c0,0 0,0 0,1"/>
  <path class="fil0 str1" d="M1130 1283c0,0 0,0 -1,0"/>
  <path class="fil0 str1" d="M1129 1279c1,0 1,0 1,0"/>
  <path class="fil0 str1" d="M1129 1283c-4,-1 -7,-3 -7,-5"/>
  <path class="fil0 str1" d="M1122 1274c0,2 3,5 7,5"/>
  <path class="fil0 str1" d="M1122 1278c-1,0 -1,0 -1,-1"/>
  <path class="fil0 str1" d="M1123 1271c-2,1 -2,2 -1,3"/>
  <line class="fil0 str1" x1="1143" y1="1260" x2="1123" y2= "1271" />
  <path class="fil0 str1" d="M1154 1262c-2,-2 -7,-4 -11,-2"/>
  <path class="fil0 str1" d="M1155 1263c0,0 -1,-1 -1,-1"/>
  <path class="fil0 str1" d="M1155 1263c0,0 0,0 0,0"/>
  <line class="fil0 str1" x1="1162" y1="1259" x2="1155" y2= "1263" />
  <path class="fil0 str1" d="M1101 1229c0,0 0,0 0,0"/>
  <path class="fil0 str1" d="M1101 1229c0,1 0,2 -1,3"/>
  <line class="fil0 str1" x1="1100" y1="1232" x2="1074" y2= "1247" />
  <path class="fil0 str1" d="M1074 1247c-3,1 -7,1 -9,0"/>
  <line class="fil0 str1" x1="1065" y1="1247" x2="1027" y2= "1225" />
  <path class="fil0 str1" d="M1027 1225c-1,-1 -1,-1 -1,-2"/>
  <path class="fil0 str1" d="M1121 1274c0,1 -1,1 -2,1"/>
  <path class="fil0 str1" d="M1119 1275c-6,1 -14,-4 -14,-7"/>
  <path class="fil0 str1" d="M1105 1268c0,0 0,0 0,-1"/>
  <line class="fil0 str1" x1="1196" y1="1282" x2="1191" y2= "1285" />
  <line class="fil0 str1" x1="1191" y1="1285" x2="1190" y2= "1285" />
  <line class="fil0 str1" x1="1112" y1="1248" x2="1107" y2= "1245" />
  <line class="fil0 str1" x1="1107" y1="1242" x2="1100" y2= "1247" />
  <path class="fil0 str1" d="M1093 1260c0,0 0,0 0,0"/>
  <path class="fil0 str1" d="M1093 1260c-2,0 -2,0 -4,0"/>
  <path class="fil0 str1" d="M1089 1260c-2,-1 -4,-1 -5,-3"/>
  <path class="fil0 str1" d="M1084 1257c-3,-1 -6,-3 -6,-5"/>
  <line class="fil0 str1" x1="1135" y1="1247" x2="1130" y2= "1249" />
  <line class="fil0 str1" x1="1105" y1="1264" x2="1100" y2= "1267" />
  <path class="fil0 str1" d="M1100 1267c0,0 0,0 0,0"/>
  <line class="fil0 str1" x1="1100" y1="1267" x2="1093" y2= "1263" />
  <path class="fil0 str1" d="M1931 1724c0,0 0,0 0,0"/>
  <line class="fil0 str1" x1="1929" y1="1726" x2="1922" y2= "1730" />
  <path class="fil0 str1" d="M1922 1730c0,0 -1,0 -2,0"/>
  <path class="fil0 str1" d="M1920 1730c-1,0 -2,0 -2,-1"/>
  <path class="fil0 str1" d="M1931 1724c0,0 0,0 0,0"/>
  <line class="fil0 str0" x1="987" y1="1222" x2="2012" y2= "1814" />
  <line class="fil0 str0" x1="2012" y1="1814" x2="2290" y2= "1653" />
  <path class="fil0 str0" d="M2290 1653c21,-12 34,-29 34,-47 0,-17 -13,-34 -34,-47"/>
  <line class="fil0 str0" x1="2290" y1="1559" x2="1428" y2= "1061" />
  <path class="fil0 str0" d="M1428 1061c-22,-12 -51,-19 -82,-19 -30,0 -60,7 -81,19"/>
  <line class="fil0 str0" x1="1265" y1="1061" x2="987" y2= "1222" />
  <path class="fil0 str1" d="M2034 1760c0,2 -2,3 -5,3 -3,0 -5,-1 -5,-3 0,-1 2,-3 5,-3 3,0 5,2 5,3z"/>
  <path class="fil0 str1" d="M1993 1737c0,1 -2,3 -5,3 -2,0 -5,-2 -5,-3 0,-2 3,-3 5,-3 3,0 5,1 5,3z"/>
  <path class="fil0 str1" d="M1953 1713c0,2 -3,3 -5,3 -3,0 -5,-1 -5,-3 0,-1 2,-3 5,-3 2,0 5,2 5,3z"/>
  <path class="fil0 str1" d="M1958 1764c-10,0 -19,-5 -19,-10"/>
  <path class="fil0 str1" d="M1939 1754c0,0 0,-1 0,-1"/>
  <line class="fil0 str1" x1="1977" y1="1753" x2="1976" y2= "1755" />
  <path class="fil0 str1" d="M1976 1755c0,1 0,1 0,2"/>
  <path class="fil0 str1" d="M1976 1757c-2,2 -3,3 -6,5"/>
  <path class="fil0 str1" d="M1970 1762c-3,2 -8,2 -12,2"/>
  <path class="fil0 str1" d="M1918 1724c-1,0 -1,0 -1,0"/>
  <line class="fil0 str1" x1="1917" y1="1724" x2="1915" y2= "1724" />
  <path class="fil0 str1" d="M1915 1724c0,0 0,0 -1,0"/>
  <path class="fil0 str1" d="M1914 1724c-1,0 -2,0 -2,1"/>
  <path class="fil0 str1" d="M1912 1725c-2,0 -3,1 -4,1"/>
  <path class="fil0 str1" d="M1908 1726c-1,1 -2,2 -2,2"/>
  <path class="fil0 str1" d="M1933 1731c0,2 -1,4 -3,5"/>
  <line class="fil0 str1" x1="1930" y1="1736" x2="1929" y2= "1738" />
  <path class="fil0 str1" d="M1929 1738c-1,0 -1,0 -1,0"/>
  <path class="fil0 str1" d="M1928 1738c-1,0 -3,1 -4,1"/>
  <path class="fil0 str1" d="M1924 1739c-2,1 -3,1 -5,1"/>
  <path class="fil0 str1" d="M1919 1740c-5,1 -10,0 -14,-3"/>
  <path class="fil0 str1" d="M1905 1737c-3,-1 -5,-4 -5,-6"/>
  <line class="fil0 str1" x1="1998" y1="1789" x2="1978" y2= "1777" />
  <path class="fil0 str1" d="M1978 1777c-1,0 -1,0 -1,-1"/>
  <path class="fil0 str1" d="M2019 1778c0,1 0,1 0,1"/>
  <line class="fil0 str1" x1="2019" y1="1779" x2="2002" y2= "1789" />
  <path class="fil0 str1" d="M2002 1789c-1,1 -3,1 -4,0"/>
  <path class="fil0 str1" d="M1165 1288c0,0 0,0 0,0"/>
  <path class="fil0 str1" d="M1165 1288c-3,0 -6,-2 -8,-3"/>
  <line class="fil0 str1" x1="1157" y1="1285" x2="1144" y2= "1292" />
  <line class="fil0 str1" x1="1144" y1="1292" x2="1137" y2= "1288" />
  <path class="fil0 str1" d="M1137 1288c0,0 -1,0 -1,0"/>
  <line class="fil0 str1" x1="1190" y1="1286" x2="1162" y2= "1302" />
  <path class="fil0 str1" d="M1162 1302c0,0 0,0 0,0"/>
  <line class="fil0 str1" x1="1162" y1="1302" x2="1155" y2= "1298" />
  <line class="fil0 str1" x1="1190" y1="1282" x2="1183" y2= "1278" />
  <line class="fil0 str1" x1="1190" y1="1286" x2="1190" y2= "1282" />
  <line class="fil0 str1" x1="1162" y1="1298" x2="1190" y2= "1282" />
  <path class="fil0 str1" d="M1162 1298c0,0 0,0 0,0"/>
  <line class="fil0 str1" x1="1155" y1="1294" x2="1162" y2= "1298" />
  <line class="fil0 str1" x1="1155" y1="1298" x2="1155" y2= "1294" />
  <line class="fil0 str1" x1="1183" y1="1278" x2="1155" y2= "1294" />
  <path class="fil0 str1" d="M1079 1227c-5,2 -13,6 -16,9"/>
  <line class="fil0 str1" x1="1079" y1="1227" x2="1079" y2= "1223" />
  <path class="fil0 str1" d="M1063 1233c3,-4 11,-8 16,-10"/>
  <path class="fil0 str1" d="M1065 1238c-3,-2 -3,-3 -2,-5"/>
  <path class="fil0 str1" d="M1068 1238c-1,0 -2,0 -3,0"/>
  <path class="fil0 str1" d="M1070 1238c-1,0 -2,0 -2,0"/>
  <path class="fil0 str1" d="M1073 1236c0,0 -2,2 -3,2"/>
  <line class="fil0 str1" x1="1073" y1="1236" x2="1073" y2= "1236" />
  <path class="fil0 str1" d="M1071 1233c-1,2 2,2 2,3"/>
  <path class="fil0 str1" d="M1081 1227c-2,1 -8,4 -10,6"/>
  <path class="fil0 str1" d="M1084 1225c-1,1 -2,1 -3,2"/>
  <path class="fil0 str1" d="M1087 1227c-1,0 -2,-1 -3,-2"/>
  <path class="fil0 str1" d="M1091 1225c-1,1 -3,2 -4,2"/>
  <path class="fil0 str1" d="M1090 1223c2,1 2,1 1,2"/>
  <path class="fil0 str1" d="M1089 1226c-4,-2 -16,-9 -17,-9"/>
  <path class="fil0 str1" d="M1072 1213c1,0 16,9 18,10"/>
  <line class="fil0 str1" x1="1072" y1="1217" x2="1072" y2= "1213" />
  <line class="fil0 str1" x1="1072" y1="1217" x2="1070" y2= "1218" />
  <line class="fil0 str1" x1="1067" y1="1216" x2="1072" y2= "1213" />
  <line class="fil0 str1" x1="1079" y1="1223" x2="1067" y2= "1216" />
  <path class="fil0 str1" d="M1058 1212c-5,0 -12,4 -12,7"/>
  <path class="fil0 str1" d="M1066 1214c-3,-2 -5,-2 -8,-2"/>
  <line class="fil0 str1" x1="1070" y1="1211" x2="1066" y2= "1214" />
  <path class="fil0 str1" d="M1066 1213c-1,0 -1,0 -2,0"/>
  <path class="fil0 str1" d="M1056 1212c-2,0 -3,1 -4,1"/>
  <path class="fil0 str1" d="M1052 1209c6,-2 12,-1 18,2"/>
  <path class="fil0 str1" d="M1052 1213c-5,1 -11,5 -12,8"/>
  <path class="fil0 str1" d="M1040 1217c1,-3 7,-6 12,-8"/>
  <path class="fil0 str1" d="M1040 1221c0,0 0,0 0,0"/>
  <path class="fil0 str1" d="M1040 1220c-1,0 -1,-2 0,-3"/>
  <path class="fil0 str1" d="M1040 1222c0,0 0,-1 0,-2"/>
  <path class="fil0 str1" d="M1045 1226c-2,-1 -4,-3 -5,-4"/>
  <line class="fil0 str1" x1="1049" y1="1223" x2="1045" y2= "1226" />
  <path class="fil0 str1" d="M1046 1225c0,0 0,-1 0,-1"/>
  <path class="fil0 str1" d="M1046 1219c-1,2 0,3 3,4"/>
  <path class="fil0 str1" d="M1057 1228c-2,0 -3,1 -5,2"/>
  <path class="fil0 str1" d="M1051 1226c2,-1 4,-1 6,-2"/>
  <path class="fil0 str1" d="M1050 1229c-3,-2 -2,-2 1,-3"/>
  <path class="fil0 str1" d="M1056 1229c-3,1 -4,1 -6,0"/>
  <path class="fil0 str1" d="M1061 1227c-1,0 -3,1 -5,2"/>
  <path class="fil0 str1" d="M1073 1220c-1,1 -10,6 -12,7"/>
  <line class="fil0 str1" x1="1070" y1="1222" x2="1068" y2= "1222" />
  <line class="fil0 str1" x1="1068" y1="1218" x2="1073" y2= "1220" />
  <line class="fil0 str1" x1="1068" y1="1222" x2="1068" y2= "1218" />
  <path class="fil0 str1" d="M1068 1222c0,0 -2,1 -2,1"/>
  <path class="fil0 str1" d="M1066 1219c0,0 2,-1 2,-1"/>
  <path class="fil0 str1" d="M1066 1223c-3,2 -6,3 -9,5"/>
  <path class="fil0 str1" d="M1057 1224c3,-2 6,-3 9,-5"/>
  <line class="fil0 str1" x1="1100" y1="1223" x2="1062" y2= "1201" />
  <path class="fil0 str1" d="M1101 1226c1,-2 0,-3 -1,-3"/>
  <path class="fil0 str1" d="M1100 1228c1,-1 1,-2 1,-2"/>
  <line class="fil0 str1" x1="1074" y1="1243" x2="1100" y2= "1228" />
  <path class="fil0 str1" d="M1065 1243c2,1 6,1 9,0"/>
  <line class="fil0 str1" x1="1027" y1="1221" x2="1065" y2= "1243" />
  <path class="fil0 str1" d="M1027 1216c-2,2 -2,4 0,5"/>
  <line class="fil0 str1" x1="1054" y1="1201" x2="1027" y2= "1216" />
  <path class="fil0 str1" d="M1062 1201c-2,-1 -6,-1 -8,0"/>
  <path class="fil0 str1" d="M1173 1271c2,1 2,2 1,3"/>
  <line class="fil0 str1" x1="1173" y1="1274" x2="1173" y2= "1271" />
  <line class="fil0 str1" x1="1161" y1="1278" x2="1173" y2= "1271" />
  <path class="fil0 str1" d="M1166 1278c-1,1 -3,1 -5,0"/>
  <line class="fil0 str1" x1="1174" y1="1274" x2="1166" y2= "1278" />
  <line class="fil0 str1" x1="1180" y1="1269" x2="1171" y2= "1264" />
  <path class="fil0 str1" d="M1185 1273c-1,-1 -3,-3 -5,-4"/>
  <path class="fil0 str1" d="M1183 1277c2,-1 2,-2 2,-4"/>
  <line class="fil0 str1" x1="1172" y1="1283" x2="1183" y2= "1277" />
  <path class="fil0 str1" d="M1165 1284c2,1 5,0 7,-1"/>
  <path class="fil0 str1" d="M1157 1281c2,1 5,3 8,3"/>
  <line class="fil0 str1" x1="1157" y1="1285" x2="1157" y2= "1281" />
  <line class="fil0 str1" x1="1144" y1="1288" x2="1157" y2= "1281" />
  <line class="fil0 str1" x1="1144" y1="1292" x2="1144" y2= "1288" />
  <line class="fil0 str1" x1="1137" y1="1284" x2="1144" y2= "1288" />
  <path class="fil0 str1" d="M1137 1284c-1,0 -1,0 0,0"/>
  <line class="fil0 str1" x1="1171" y1="1264" x2="1137" y2= "1284" />
  <path class="fil0 str1" d="M1131 1254c1,0 4,1 2,2"/>
  <line class="fil0 str1" x1="1113" y1="1265" x2="1131" y2= "1254" />
  <path class="fil0 str1" d="M1116 1266c-2,1 -4,0 -3,-1"/>
  <line class="fil0 str1" x1="1133" y1="1256" x2="1116" y2= "1266" />
  <path class="fil0 str1" d="M1142 1256c-2,-3 -7,-6 -12,-7"/>
  <path class="fil0 str1" d="M1140 1260c2,-1 2,-3 2,-4"/>
  <line class="fil0 str1" x1="1122" y1="1270" x2="1140" y2= "1260" />
  <path class="fil0 str1" d="M1119 1271c1,0 2,0 3,-1"/>
  <path class="fil0 str1" d="M1105 1264c0,3 8,8 14,7"/>
  <path class="fil0 str1" d="M1108 1260c-3,1 -4,2 -3,4"/>
  <line class="fil0 str1" x1="1123" y1="1251" x2="1108" y2= "1260" />
  <path class="fil0 str1" d="M1130 1249c-3,0 -5,1 -7,2"/>
  <line class="fil0 str1" x1="1196" y1="1279" x2="1189" y2= "1275" />
  <line class="fil0 str1" x1="1196" y1="1282" x2="1196" y2= "1279" />
  <line class="fil0 str1" x1="1191" y1="1281" x2="1196" y2= "1279" />
  <line class="fil0 str1" x1="1191" y1="1285" x2="1191" y2= "1281" />
  <line class="fil0 str1" x1="1184" y1="1277" x2="1191" y2= "1281" />
  <line class="fil0 str1" x1="1184" y1="1279" x2="1184" y2= "1277" />
  <line class="fil0 str1" x1="1189" y1="1275" x2="1184" y2= "1277" />
  <line class="fil0 str1" x1="1121" y1="1243" x2="1121" y2= "1241" />
  <path class="fil0 str1" d="M1114 1245c1,-1 6,-3 7,-4"/>
  <line class="fil0 str1" x1="1114" y1="1247" x2="1114" y2= "1245" />
  <line class="fil0 str1" x1="1107" y1="1241" x2="1114" y2= "1245" />
  <line class="fil0 str1" x1="1107" y1="1245" x2="1107" y2= "1241" />
  <path class="fil0 str1" d="M1114 1237c0,0 -6,4 -7,4"/>
  <path class="fil0 str1" d="M1114 1236c0,1 0,1 0,1"/>
  <path class="fil0 str1" d="M1110 1237c2,-1 3,-2 4,-1"/>
  <line class="fil0 str1" x1="1091" y1="1248" x2="1110" y2= "1237" />
  <path class="fil0 str1" d="M1088 1250c1,-1 2,-1 3,-2"/>
  <path class="fil0 str1" d="M1089 1251c-1,0 -2,-1 -1,-1"/>
  <path class="fil0 str1" d="M1091 1250c-1,1 -1,1 -2,1"/>
  <line class="fil0 str1" x1="1099" y1="1246" x2="1091" y2= "1250" />
  <line class="fil0 str1" x1="1106" y1="1250" x2="1099" y2= "1246" />
  <line class="fil0 str1" x1="1106" y1="1252" x2="1106" y2= "1250" />
  <line class="fil0 str1" x1="1097" y1="1255" x2="1106" y2= "1250" />
  <path class="fil0 str1" d="M1093 1256c2,0 3,-1 4,-1"/>
  <path class="fil0 str1" d="M1089 1256c2,0 2,0 4,0"/>
  <path class="fil0 str1" d="M1084 1254c1,1 3,1 5,2"/>
  <path class="fil0 str1" d="M1080 1246c-4,3 0,5 4,8"/>
  <path class="fil0 str1" d="M1099 1235c-2,1 -18,10 -19,11"/>
  <path class="fil0 str1" d="M1104 1231c-1,1 -4,3 -5,4"/>
  <path class="fil0 str1" d="M1110 1230c-2,0 -4,1 -6,1"/>
  <path class="fil0 str1" d="M1121 1235c-4,-3 -8,-4 -11,-5"/>
  <path class="fil0 str1" d="M1122 1236c0,0 -1,-1 -1,-1"/>
  <path class="fil0 str1" d="M1123 1239c0,-1 0,-2 -1,-3"/>
  <path class="fil0 str1" d="M1121 1241c1,0 1,-1 2,-2"/>
  <line class="fil0 str1" x1="1135" y1="1243" x2="1128" y2= "1239" />
  <line class="fil0 str1" x1="1135" y1="1247" x2="1135" y2= "1243" />
  <line class="fil0 str1" x1="1100" y1="1263" x2="1135" y2= "1243" />
  <path class="fil0 str1" d="M1100 1263c0,0 0,0 0,0"/>
  <line class="fil0 str1" x1="1093" y1="1259" x2="1100" y2= "1263" />
  <line class="fil0 str1" x1="1093" y1="1263" x2="1093" y2= "1259" />
  <line class="fil0 str1" x1="1128" y1="1239" x2="1093" y2= "1259" />
  <path class="fil0 str1" d="M1998 1777c-1,0 -3,1 -5,1"/>
  <path class="fil0 str1" d="M1992 1774c2,0 4,-1 6,-2"/>
  <path class="fil0 str1" d="M1990 1774c0,1 2,0 2,0"/>
  <path class="fil0 str1" d="M1989 1773c0,1 0,1 1,1"/>
  <line class="fil0 str1" x1="1992" y1="1770" x2="1989" y2= "1773" />
  <path class="fil0 str1" d="M1990 1769c1,0 2,0 2,1"/>
  <path class="fil0 str1" d="M1990 1768c0,0 0,0 0,1"/>
  <path class="fil0 str1" d="M1992 1767c-1,0 -2,0 -2,1"/>
  <line class="fil0 str1" x1="1995" y1="1769" x2="1992" y2= "1767" />
  <path class="fil0 str1" d="M1995 1770c0,0 1,0 0,-1"/>
  <line class="fil0 str1" x1="1993" y1="1772" x2="1995" y2= "1770" />
  <path class="fil0 str1" d="M1993 1772c0,0 0,0 0,0"/>
  <path class="fil0 str1" d="M1993 1772c0,0 0,0 0,0"/>
  <line class="fil0 str1" x1="1993" y1="1772" x2="1993" y2= "1772" />
  <path class="fil0 str1" d="M2002 1770c-3,0 -6,1 -9,2"/>
  <path class="fil0 str1" d="M2003 1769c0,1 -1,1 -1,1"/>
  <path class="fil0 str1" d="M2005 1770c-1,-1 -1,-1 -2,-1"/>
  <path class="fil0 str1" d="M2005 1775c0,0 0,0 0,0"/>
  <path class="fil0 str1" d="M2004 1771c1,-1 1,-1 1,-1"/>
  <path class="fil0 str1" d="M2002 1774c1,-1 2,-2 2,-3"/>
  <path class="fil0 str1" d="M2001 1775c1,0 1,-1 1,-1"/>
  <path class="fil0 str1" d="M2005 1775c-1,-1 -3,0 -4,0"/>
  <line class="fil0 str1" x1="2007" y1="1776" x2="2005" y2= "1775" />
  <path class="fil0 str1" d="M2006 1777c1,1 2,0 1,-1"/>
  <path class="fil0 str1" d="M2005 1777c1,0 1,0 1,0"/>
  <path class="fil0 str1" d="M2003 1776c1,0 1,1 2,1"/>
  <line class="fil0 str1" x1="2003" y1="1781" x2="2003" y2= "1776" />
  <line class="fil0 str1" x1="2003" y1="1781" x2="2000" y2= "1781" />
  <line class="fil0 str1" x1="2000" y1="1776" x2="2003" y2= "1776" />
  <line class="fil0 str1" x1="2000" y1="1781" x2="2000" y2= "1776" />
  <path class="fil0 str1" d="M2000 1781c-1,0 -2,0 -2,-1"/>
  <path class="fil0 str1" d="M1998 1776c0,0 0,1 2,0"/>
  <path class="fil0 str1" d="M2000 1773c0,0 -2,2 -2,3"/>
  <path class="fil0 str1" d="M2001 1772c0,0 -1,1 -1,1"/>
  <line class="fil0 str1" x1="2001" y1="1772" x2="2001" y2= "1772" />
  <path class="fil0 str1" d="M1998 1772c1,0 3,0 3,0"/>
  <line class="fil0 str1" x1="1931" y1="1724" x2="1931" y2= "1719" />
  <path class="fil0 str1" d="M1930 1720c1,0 1,0 1,-1"/>
  <line class="fil0 str1" x1="1922" y1="1725" x2="1930" y2= "1720" />
  <path class="fil0 str1" d="M1920 1726c1,0 2,-1 2,-1"/>
  <path class="fil0 str1" d="M1918 1723c-1,1 0,3 2,3"/>
  <line class="fil0 str1" x1="1927" y1="1718" x2="1918" y2= "1723" />
  <path class="fil0 str1" d="M1931 1719c0,-1 -3,-1 -4,-1"/>
  <path class="fil0 str1" d="M1997 1768c0,0 -1,0 -1,0"/>
  <path class="fil0 str1" d="M1996 1763c0,0 1,0 1,0"/>
  <line class="fil0 str1" x1="1996" y1="1768" x2="1994" y2= "1769" />
  <line class="fil0 str1" x1="1990" y1="1771" x2="1985" y2= "1774" />
  <line class="fil0 str1" x1="1982" y1="1771" x2="1996" y2= "1763" />
  <path class="fil0 str1" d="M1982 1772c0,0 0,-1 0,-1"/>
  <line class="fil0 str1" x1="1999" y1="1782" x2="1982" y2= "1772" />
  <path class="fil0 str1" d="M2001 1782c-1,0 -1,0 -2,0"/>
  <line class="fil0 str1" x1="2015" y1="1774" x2="2001" y2= "1782" />
  <path class="fil0 str1" d="M2015 1773c0,1 0,1 0,1"/>
  <line class="fil0 str1" x1="2011" y1="1776" x2="2005" y2= "1772" />
  <line class="fil0 str1" x1="2001" y1="1770" x2="1997" y2= "1768" />
  <line class="fil0 str1" x1="1997" y1="1763" x2="2015" y2= "1773" />
  <line class="fil0 str1" x1="1978" y1="1773" x2="1998" y2= "1784" />
  <path class="fil0 str1" d="M1978 1771c-1,0 -1,1 0,2"/>
  <line class="fil0 str1" x1="1995" y1="1761" x2="1978" y2= "1771" />
  <path class="fil0 str1" d="M1998 1761c-1,-1 -2,-1 -3,0"/>
  <line class="fil0 str1" x1="2019" y1="1773" x2="1998" y2= "1761" />
  <path class="fil0 str1" d="M2019 1775c0,-1 0,-2 0,-2"/>
  <line class="fil0 str1" x1="2002" y1="1784" x2="2019" y2= "1775" />
  <path class="fil0 str1" d="M1998 1784c1,1 3,1 4,0"/>
  <path class="fil0 str1" d="M1918 1717c-3,0 -3,0 -6,0"/>
  <path class="fil0 str1" d="M1920 1717c-1,0 -1,0 -2,0"/>
  <path class="fil0 str1" d="M1919 1719c1,-1 1,-1 1,-2"/>
  <path class="fil0 str1" d="M1917 1719c1,0 1,0 2,0"/>
  <line class="fil0 str1" x1="1917" y1="1724" x2="1917" y2= "1719" />
  <line class="fil0 str1" x1="1915" y1="1719" x2="1917" y2= "1719" />
  <path class="fil0 str1" d="M1914 1719c1,0 1,0 1,0"/>
  <line class="fil0 str1" x1="1914" y1="1724" x2="1914" y2= "1719" />
  <path class="fil0 str1" d="M1912 1720c0,0 1,0 2,-1"/>
  <path class="fil0 str1" d="M1908 1722c1,-1 2,-1 4,-2"/>
  <path class="fil0 str1" d="M1905 1726c0,-2 1,-4 3,-4"/>
  <path class="fil0 str1" d="M1905 1726c0,0 0,0 0,0"/>
  <path class="fil0 str1" d="M1906 1728c-1,-1 -1,-1 -1,-2"/>
  <path class="fil0 str1" d="M1906 1728c0,0 0,0 0,0"/>
  <path class="fil0 str1" d="M1916 1733c-5,0 -9,-2 -10,-5"/>
  <path class="fil0 str1" d="M1920 1733c-1,0 -3,0 -4,0"/>
  <path class="fil0 str1" d="M1922 1732c0,0 -1,1 -2,1"/>
  <path class="fil0 str1" d="M1924 1731c-1,1 -1,1 -2,1"/>
  <path class="fil0 str1" d="M1926 1731c-1,0 -1,0 -2,0"/>
  <path class="fil0 str1" d="M1929 1726c0,2 -2,3 -3,5"/>
  <line class="fil0 str1" x1="1929" y1="1726" x2="1929" y2= "1726" />
  <line class="fil0 str1" x1="1929" y1="1727" x2="1929" y2= "1726" />
  <path class="fil0 str1" d="M1932 1725c-1,-1 -3,-1 -3,1"/>
  <path class="fil0 str1" d="M1933 1726c0,-1 0,-1 -1,-1"/>
  <line class="fil0 str1" x1="1933" y1="1731" x2="1933" y2= "1726" />
  <path class="fil0 str1" d="M1930 1731c2,-1 3,-3 3,-5"/>
  <line class="fil0 str1" x1="1930" y1="1736" x2="1930" y2= "1731" />
  <line class="fil0 str1" x1="1929" y1="1733" x2="1930" y2= "1731" />
  <line class="fil0 str1" x1="1929" y1="1738" x2="1929" y2= "1733" />
  <path class="fil0 str1" d="M1928 1733c0,0 0,0 1,0"/>
  <line class="fil0 str1" x1="1928" y1="1738" x2="1928" y2= "1733" />
  <path class="fil0 str1" d="M1924 1735c1,-1 3,-1 4,-2"/>
  <path class="fil0 str1" d="M1919 1736c2,-1 3,-1 5,-1"/>
  <path class="fil0 str1" d="M1905 1733c4,2 9,3 14,3"/>
  <path class="fil0 str1" d="M1901 1724c-2,3 0,6 4,9"/>
  <path class="fil0 str1" d="M1906 1719c-3,2 -4,3 -5,5"/>
  <path class="fil0 str1" d="M1912 1717c-1,0 -4,1 -6,2"/>
  <line class="fil0 str1" x1="1964" y1="1751" x2="1964" y2= "1751" />
  <line class="fil0 str1" x1="1964" y1="1746" x2="1964" y2= "1747" />
  <line class="fil0 str1" x1="1964" y1="1751" x2="1964" y2= "1746" />
  <line class="fil0 str1" x1="1964" y1="1751" x2="1963" y2= "1751" />
  <line class="fil0 str1" x1="1959" y1="1749" x2="1964" y2= "1746" />
  <line class="fil0 str1" x1="1964" y1="1752" x2="1959" y2= "1749" />
  <path class="fil0 str1" d="M1968 1749c-1,1 -2,2 -4,3"/>
  <path class="fil0 str1" d="M1964 1752c0,-1 0,-1 0,-1"/>
  <path class="fil0 str1" d="M1964 1747c1,0 4,1 4,2"/>
  <path class="fil0 str1" d="M1947 1742c1,-1 1,-1 4,-2"/>
  <line class="fil0 str1" x1="1952" y1="1745" x2="1947" y2= "1742" />
  <line class="fil0 str1" x1="1953" y1="1744" x2="1952" y2= "1745" />
  <path class="fil0 str1" d="M1955 1743c-1,0 -1,1 -2,1"/>
  <line class="fil0 str1" x1="1958" y1="1742" x2="1955" y2= "1743" />
  <path class="fil0 str1" d="M1955 1739c1,1 2,3 3,3"/>
  <line class="fil0 str1" x1="1955" y1="1743" x2="1955" y2= "1739" />
  <path class="fil0 str1" d="M1954 1739c1,0 1,0 1,0"/>
  <path class="fil0 str1" d="M1952 1744c0,0 0,1 0,1"/>
  <path class="fil0 str1" d="M1951 1740c1,0 2,0 3,-1"/>
  <path class="fil0 str1" d="M1974 1752c0,0 0,0 -1,1"/>
  <path class="fil0 str1" d="M1974 1751c0,0 0,0 0,1"/>
  <path class="fil0 str1" d="M1975 1750c0,1 0,1 -1,1"/>
  <line class="fil0 str1" x1="1972" y1="1750" x2="1975" y2= "1750" />
  <line class="fil0 str1" x1="1972" y1="1754" x2="1972" y2= "1750" />
  <path class="fil0 str1" d="M1972 1754c-1,0 -2,0 -2,0"/>
  <path class="fil0 str1" d="M1970 1749c0,0 2,1 2,1"/>
  <line class="fil0 str1" x1="1970" y1="1754" x2="1970" y2= "1749" />
  <line class="fil0 str1" x1="1970" y1="1754" x2="1969" y2= "1755" />
  <line class="fil0 str1" x1="1967" y1="1752" x2="1970" y2= "1749" />
  <line class="fil0 str1" x1="1967" y1="1753" x2="1967" y2= "1752" />
  <path class="fil0 str1" d="M1965 1752c1,0 1,0 2,0"/>
  <line class="fil0 str1" x1="1971" y1="1755" x2="1965" y2= "1752" />
  <path class="fil0 str1" d="M1971 1755c0,0 0,0 0,0"/>
  <path class="fil0 str1" d="M1973 1753c0,1 -1,1 -2,2"/>
  <path class="fil0 str1" d="M1952 1751c0,0 0,0 0,0"/>
  <line class="fil0 str1" x1="1952" y1="1751" x2="1952" y2= "1746" />
  <path class="fil0 str1" d="M1948 1749c1,-1 2,-2 4,-3"/>
  <path class="fil0 str1" d="M1952 1751c-1,0 -4,-2 -4,-2"/>
  <line class="fil0 str1" x1="1952" y1="1751" x2="1952" y2= "1751" />
  <line class="fil0 str1" x1="1957" y1="1749" x2="1952" y2= "1751" />
  <line class="fil0 str1" x1="1953" y1="1751" x2="1952" y2= "1751" />
  <line class="fil0 str1" x1="1952" y1="1746" x2="1957" y2= "1749" />
  <line class="fil0 str1" x1="1958" y1="1754" x2="1957" y2= "1755" />
  <line class="fil0 str1" x1="1958" y1="1754" x2="1958" y2= "1750" />
  <line class="fil0 str1" x1="1954" y1="1752" x2="1958" y2= "1750" />
  <line class="fil0 str1" x1="1954" y1="1752" x2="1954" y2= "1752" />
  <path class="fil0 str1" d="M1957 1755c0,-1 -2,-2 -3,-3"/>
  <path class="fil0 str1" d="M1963 1752c-2,1 -4,2 -6,3"/>
  <line class="fil0 str1" x1="1958" y1="1755" x2="1958" y2= "1754" />
  <line class="fil0 str1" x1="1958" y1="1750" x2="1963" y2= "1752" />
  <path class="fil0 str1" d="M1945 1747c0,0 0,1 0,1"/>
  <line class="fil0 str1" x1="1945" y1="1747" x2="1945" y2= "1742" />
  <path class="fil0 str1" d="M1945 1743c0,0 0,0 0,-1"/>
  <path class="fil0 str1" d="M1945 1748c-1,0 -1,0 -1,0"/>
  <path class="fil0 str1" d="M1941 1747c1,-1 2,-2 4,-4"/>
  <path class="fil0 str1" d="M1942 1748c0,0 0,-1 -1,-1"/>
  <path class="fil0 str1" d="M1946 1749c0,-1 -3,-1 -4,-1"/>
  <path class="fil0 str1" d="M1951 1745c-2,1 -5,4 -5,4"/>
  <line class="fil0 str1" x1="1947" y1="1748" x2="1945" y2= "1747" />
  <line class="fil0 str1" x1="1945" y1="1742" x2="1951" y2= "1745" />
  <path class="fil0 str1" d="M1961 1755c1,-1 1,-1 2,-1"/>
  <path class="fil0 str1" d="M1960 1755c0,0 1,0 1,0"/>
  <path class="fil0 str1" d="M1958 1756c1,0 1,-1 2,-1"/>
  <path class="fil0 str1" d="M1960 1757c-1,0 -1,-1 -2,-1"/>
  <line class="fil0 str1" x1="1961" y1="1759" x2="1960" y2= "1757" />
  <path class="fil0 str1" d="M1963 1758c-1,0 -2,0 -2,1"/>
  <path class="fil0 str1" d="M1967 1757c-1,1 -3,1 -4,1"/>
  <line class="fil0 str1" x1="1969" y1="1756" x2="1967" y2= "1757" />
  <line class="fil0 str1" x1="1964" y1="1758" x2="1964" y2= "1758" />
  <line class="fil0 str1" x1="1964" y1="1753" x2="1969" y2= "1756" />
  <line class="fil0 str1" x1="1964" y1="1758" x2="1964" y2= "1753" />
  <path class="fil0 str1" d="M1964 1758c0,0 0,0 0,0"/>
  <path class="fil0 str1" d="M1963 1754c1,-1 1,-1 1,-1"/>
  <path class="fil0 str1" d="M1963 1754c0,0 0,0 0,0"/>
  <line class="fil0 str1" x1="1947" y1="1755" x2="1947" y2= "1750" />
  <path class="fil0 str1" d="M1947 1750c0,0 0,0 0,0"/>
  <path class="fil0 str1" d="M1945 1753c0,0 1,-2 2,-3"/>
  <path class="fil0 str1" d="M1946 1755c-1,-1 -1,0 -1,-2"/>
  <line class="fil0 str1" x1="1951" y1="1752" x2="1946" y2= "1755" />
  <path class="fil0 str1" d="M1950 1751c0,0 1,1 1,1"/>
  <line class="fil0 str1" x1="1947" y1="1750" x2="1950" y2= "1751" />
  <path class="fil0 str1" d="M1955 1756c0,0 -1,0 -1,0"/>
  <path class="fil0 str1" d="M1956 1755c0,0 0,0 -1,1"/>
  <line class="fil0 str1" x1="1956" y1="1755" x2="1956" y2= "1755" />
  <path class="fil0 str1" d="M1952 1753c1,0 4,2 4,2"/>
  <line class="fil0 str1" x1="1952" y1="1756" x2="1952" y2= "1753" />
  <line class="fil0 str1" x1="1947" y1="1756" x2="1952" y2= "1753" />
  <path class="fil0 str1" d="M1950 1756c-2,0 -2,0 -3,0"/>
  <path class="fil0 str1" d="M1954 1756c-1,0 -3,0 -4,0"/>
  <path class="fil0 str1" d="M1944 1752c0,0 0,0 0,0"/>
  <line class="fil0 str1" x1="1945" y1="1751" x2="1944" y2= "1752" />
  <path class="fil0 str1" d="M1945 1750c0,0 0,0 0,1"/>
  <path class="fil0 str1" d="M1944 1749c1,0 1,0 1,1"/>
  <line class="fil0 str1" x1="1944" y1="1751" x2="1944" y2= "1749" />
  <path class="fil0 str1" d="M1941 1748c1,1 2,1 3,1"/>
  <line class="fil0 str1" x1="1941" y1="1750" x2="1941" y2= "1748" />
  <path class="fil0 str1" d="M1943 1754c-1,-1 -2,-4 -2,-6"/>
  <line class="fil0 str1" x1="1943" y1="1752" x2="1943" y2= "1754" />
  <path class="fil0 str1" d="M1944 1752c0,0 0,0 -1,0"/>
  <line class="fil0 str1" x1="1957" y1="1759" x2="1957" y2= "1756" />
  <path class="fil0 str1" d="M1955 1757c1,0 1,-1 2,-1"/>
  <line class="fil0 str1" x1="1955" y1="1759" x2="1955" y2= "1757" />
  <path class="fil0 str1" d="M1950 1757c2,0 3,0 5,0"/>
  <path class="fil0 str1" d="M1959 1759c-2,0 -7,-1 -9,-2"/>
  <path class="fil0 str1" d="M1957 1756c0,1 1,1 2,3"/>
  <line class="fil0 str1" x1="1962" y1="1746" x2="1958" y2= "1748" />
  <line class="fil0 str1" x1="1962" y1="1746" x2="1962" y2= "1746" />
  <path class="fil0 str1" d="M1959 1748c0,0 0,0 0,0"/>
  <path class="fil0 str1" d="M1959 1743c0,0 2,2 3,3"/>
  <line class="fil0 str1" x1="1959" y1="1748" x2="1959" y2= "1743" />
  <path class="fil0 str1" d="M1959 1748c-1,0 -1,0 -1,0"/>
  <path class="fil0 str1" d="M1953 1745c2,-1 4,-1 6,-2"/>
  <line class="fil0 str1" x1="1958" y1="1748" x2="1953" y2= "1745" />
  <path class="fil0 str1" d="M1971 1745c0,1 -1,2 -1,2"/>
  <path class="fil0 str1" d="M1971 1743c0,1 0,2 0,2"/>
  <line class="fil0 str1" x1="1971" y1="1745" x2="1971" y2= "1743" />
  <path class="fil0 str1" d="M1970 1742c1,1 1,1 1,1"/>
  <line class="fil0 str1" x1="1970" y1="1746" x2="1970" y2= "1742" />
  <line class="fil0 str1" x1="1965" y1="1746" x2="1970" y2= "1742" />
  <path class="fil0 str1" d="M1967 1747c-1,0 -2,-1 -2,-1"/>
  <path class="fil0 str1" d="M1969 1748c0,0 -2,-1 -2,-1"/>
  <line class="fil0 str1" x1="1969" y1="1747" x2="1969" y2= "1748" />
  <path class="fil0 str1" d="M1970 1747c0,0 0,0 -1,0"/>
  <path class="fil0 str1" d="M1961 1742c1,0 3,-1 5,-1"/>
  <path class="fil0 str1" d="M1961 1743c-1,-1 -1,0 0,-1"/>
  <path class="fil0 str1" d="M1962 1744c0,0 -1,-1 -1,-1"/>
  <path class="fil0 str1" d="M1964 1745c-1,0 -2,-1 -2,-1"/>
  <line class="fil0 str1" x1="1969" y1="1742" x2="1964" y2= "1745" />
  <path class="fil0 str1" d="M1968 1741c0,0 1,1 1,1"/>
  <path class="fil0 str1" d="M1966 1741c0,0 1,0 2,0"/>
  <path class="fil0 str1" d="M1975 1749c-2,0 -4,-1 -4,-1"/>
  <path class="fil0 str1" d="M1973 1744c1,1 2,4 2,5"/>
  <line class="fil0 str1" x1="1973" y1="1749" x2="1973" y2= "1744" />
  <path class="fil0 str1" d="M1973 1745c0,0 0,-1 0,-1"/>
  <path class="fil0 str1" d="M1971 1748c0,0 1,-2 2,-3"/>
  <path class="fil0 str1" d="M1959 1741c-1,0 -1,0 -1,-1"/>
  <path class="fil0 str1" d="M1959 1742c0,-1 0,-1 0,-1"/>
  <path class="fil0 str1" d="M1964 1741c-1,0 -4,0 -5,1"/>
  <line class="fil0 str1" x1="1966" y1="1740" x2="1964" y2= "1741" />
  <path class="fil0 str1" d="M1957 1739c2,0 7,1 9,1"/>
  <path class="fil0 str1" d="M1958 1740c0,0 -1,0 -1,-1"/>
  <path class="fil0 str1" d="M1939 1749c0,6 9,11 19,11"/>
  <path class="fil0 str1" d="M1939 1748c0,1 0,1 0,1"/>
  <path class="fil0 str1" d="M1940 1748c0,0 0,0 -1,0"/>
  <path class="fil0 str1" d="M1940 1745c0,1 0,2 0,3"/>
  <path class="fil0 str1" d="M1946 1741c-3,1 -4,2 -6,4"/>
  <path class="fil0 str1" d="M1958 1738c-4,0 -9,1 -12,3"/>
  <path class="fil0 str1" d="M1977 1749c0,-6 -9,-11 -19,-11"/>
  <line class="fil0 str1" x1="1977" y1="1753" x2="1977" y2= "1749" />
  <line class="fil0 str1" x1="1976" y1="1750" x2="1977" y2= "1749" />
  <line class="fil0 str1" x1="1976" y1="1755" x2="1976" y2= "1750" />
  <path class="fil0 str1" d="M1976 1752c0,0 0,-1 0,-2"/>
  <path class="fil0 str1" d="M1970 1757c3,-2 4,-3 6,-5"/>
  <path class="fil0 str1" d="M1958 1760c4,0 9,-1 12,-3"/>
  <line class="fil0 str2" x1="2012" y1="2017" x2="2012" y2= "1814" />
  <path class="fil0 str0" d="M2324 1810c0,18 -13,35 -34,47"/>
  <line class="fil0 str0" x1="2290" y1="1857" x2="2012" y2= "2017" />
  <line class="fil0 str1" x1="1130" y1="1284" x2="1130" y2= "1280" />
  <line class="fil0 str1" x1="1121" y1="1277" x2="1121" y2= "1274" />
  <line class="fil0 str1" x1="1071" y1="1238" x2="1071" y2= "1234" />
  <line class="fil0 str1" x1="1046" y1="1224" x2="1046" y2= "1220" />
  <line class="fil0 str1" x1="1101" y1="1229" x2="1101" y2= "1225" />
  <line class="fil0 str1" x1="1026" y1="1223" x2="1026" y2= "1219" />
  <line class="fil0 str1" x1="1185" y1="1277" x2="1185" y2= "1274" />
  <line class="fil0 str1" x1="1136" y1="1288" x2="1136" y2= "1284" />
  <line class="fil0 str1" x1="1142" y1="1260" x2="1142" y2= "1257" />
  <line class="fil0 str1" x1="1105" y1="1267" x2="1105" y2= "1264" />
  <line class="fil0 str1" x1="1078" y1="1252" x2="1078" y2= "1248" />
  <line class="fil0 str1" x1="1123" y1="1242" x2="1123" y2= "1238" />
  <line class="fil0 str1" x1="1989" y1="1776" x2="1989" y2= "1774" />
  <line class="fil0 str1" x1="1990" y1="1773" x2="1990" y2= "1768" />
  <line class="fil0 str1" x1="1995" y1="1772" x2="1995" y2= "1770" />
  <line class="fil0 str1" x1="2005" y1="1775" x2="2005" y2= "1770" />
  <line class="fil0 str1" x1="2008" y1="1778" x2="2008" y2= "1777" />
  <line class="fil0 str1" x1="1998" y1="1780" x2="1998" y2= "1776" />
  <line class="fil0 str1" x1="1918" y1="1729" x2="1918" y2= "1724" />
  <line class="fil0 str1" x1="1931" y1="1724" x2="1931" y2= "1719" />
  <line class="fil0 str1" x1="1977" y1="1776" x2="1977" y2= "1772" />
  <line class="fil0 str1" x1="2019" y1="1778" x2="2019" y2= "1774" />
  <line class="fil0 str1" x1="1920" y1="1722" x2="1920" y2= "1718" />
  <line class="fil0 str1" x1="1900" y1="1731" x2="1900" y2= "1726" />
  <line class="fil0 str1" x1="1939" y1="1754" x2="1939" y2= "1749" />
  <line class="fil0 str1" x1="1939" y1="1753" x2="1939" y2= "1749" />
  <line class="fil0 str1" x1="1977" y1="1753" x2="1977" y2= "1749" />
  <line class="fil0 str0" x1="2324" y1="1810" x2="2324" y2= "1606" />
  <path class="fil0 str2" d="M1811 1930c-2,1 -2,2 -2,3"/>
  <path class="fil0 str0" d="M783 1342c0,-2 1,-3 2,-4"/>
  <line class="fil0 str2" x1="1809" y1="1933" x2="1808" y2= "1976" />
  <line class="fil0 str0" x1="783" y1="1356" x2="783" y2= "1342" />
  <path class="fil0 str2" d="M1808 1976c0,2 -1,3 -2,4"/>
  <line class="fil0 str2" x1="1806" y1="1980" x2="1798" y2= "1984" />
  <path class="fil0 str2" d="M1798 1984c-1,1 -2,1 -2,-1"/>
  <line class="fil0 str2" x1="1796" y1="1983" x2="1795" y2= "1941" />
  <path class="fil0 str2" d="M1795 1941c0,-1 -1,-2 -2,-1"/>
  <path class="fil0 str0" d="M768 1348c0,0 1,0 1,0"/>
  <path class="fil0 str2" d="M1892 1883c-1,1 -2,2 -2,3"/>
  <path class="fil0 str0" d="M865 1295c0,-2 1,-3 2,-4"/>
  <line class="fil0 str2" x1="1890" y1="1886" x2="1889" y2= "1929" />
  <line class="fil0 str0" x1="865" y1="1309" x2="865" y2= "1295" />
  <path class="fil0 str2" d="M1889 1929c0,1 -1,3 -2,4"/>
  <line class="fil0 str2" x1="1887" y1="1933" x2="1879" y2= "1937" />
  <path class="fil0 str2" d="M1879 1937c-1,1 -2,1 -2,-1"/>
  <line class="fil0 str2" x1="1877" y1="1936" x2="1876" y2= "1894" />
  <path class="fil0 str2" d="M1876 1894c0,-1 0,-2 -2,-1"/>
  <path class="fil0 str0" d="M849 1301c1,0 1,0 2,0"/>
  <path class="fil0 str2" d="M1985 1832c0,-2 -1,-2 -2,-2"/>
  <path class="fil0 str0" d="M958 1239c1,-1 1,-1 1,-1"/>
  <path class="fil0 str2" d="M2001 1820c-1,1 -2,2 -2,4"/>
  <path class="fil0 str0" d="M974 1232c0,-1 0,-3 2,-4"/>
  <line class="fil0 str2" x1="1999" y1="1824" x2="1998" y2= "1866" />
  <line class="fil0 str0" x1="973" y1="1246" x2="974" y2= "1232" />
  <path class="fil0 str2" d="M1998 1866c0,2 -1,3 -2,4"/>
  <line class="fil0 str2" x1="1996" y1="1870" x2="1988" y2= "1875" />
  <path class="fil0 str2" d="M1988 1875c-1,0 -2,0 -2,-1"/>
  <line class="fil0 str2" x1="1986" y1="1874" x2="1985" y2= "1832" />
  <path class="fil0 str2" d="M1865 1899c-1,0 -2,2 -2,3"/>
  <path class="fil0 str0" d="M838 1310c0,-1 1,-3 2,-3"/>
  <line class="fil0 str2" x1="1863" y1="1902" x2="1862" y2= "1945" />
  <line class="fil0 str0" x1="838" y1="1325" x2="838" y2= "1310" />
  <path class="fil0 str2" d="M1862 1945c0,1 -1,3 -2,3"/>
  <line class="fil0 str2" x1="1860" y1="1948" x2="1852" y2= "1953" />
  <path class="fil0 str2" d="M1852 1953c-1,1 -2,0 -2,-1"/>
  <line class="fil0 str2" x1="1850" y1="1952" x2="1849" y2= "1910" />
  <path class="fil0 str2" d="M1849 1910c0,-1 -1,-2 -2,-1"/>
  <path class="fil0 str0" d="M822 1317c1,0 1,0 2,0"/>
  <path class="fil0 str2" d="M1783 1946c-1,0 -2,2 -2,3"/>
  <path class="fil0 str0" d="M756 1357c0,-1 1,-3 2,-3"/>
  <line class="fil0 str2" x1="1781" y1="1949" x2="1781" y2= "1992" />
  <line class="fil0 str0" x1="756" y1="1372" x2="756" y2= "1357" />
  <path class="fil0 str2" d="M1781 1992c0,1 -1,3 -2,3"/>
  <line class="fil0 str2" x1="1779" y1="1995" x2="1771" y2= "2000" />
  <path class="fil0 str2" d="M1771 2000c-2,1 -2,0 -2,-1"/>
  <line class="fil0 str2" x1="1769" y1="1999" x2="1768" y2= "1957" />
  <path class="fil0 str2" d="M1768 1957c0,-1 -1,-2 -2,-1"/>
  <path class="fil0 str0" d="M741 1364c0,0 1,0 1,0"/>
  <path class="fil0 str2" d="M1838 1914c-1,1 -2,2 -2,4"/>
  <path class="fil0 str0" d="M811 1326c0,-1 1,-3 2,-4"/>
  <line class="fil0 str2" x1="1836" y1="1918" x2="1835" y2= "1961" />
  <line class="fil0 str0" x1="810" y1="1340" x2="811" y2= "1326" />
  <path class="fil0 str2" d="M1835 1961c0,1 -1,2 -2,3"/>
  <line class="fil0 str2" x1="1833" y1="1964" x2="1825" y2= "1969" />
  <path class="fil0 str2" d="M1825 1969c-1,0 -2,0 -2,-1"/>
  <line class="fil0 str2" x1="1823" y1="1968" x2="1822" y2= "1926" />
  <path class="fil0 str2" d="M1822 1926c0,-2 -1,-2 -2,-2"/>
  <path class="fil0 str0" d="M795 1333c1,-1 1,-1 1,-1"/>
  <path class="fil0 str2" d="M1946 1852c-1,0 -2,2 -2,3"/>
  <path class="fil0 str0" d="M919 1263c0,-1 1,-3 2,-3"/>
  <line class="fil0 str2" x1="1944" y1="1855" x2="1944" y2= "1898" />
  <line class="fil0 str0" x1="919" y1="1278" x2="919" y2= "1263" />
  <path class="fil0 str2" d="M1944 1898c0,1 -1,3 -2,3"/>
  <line class="fil0 str2" x1="1942" y1="1901" x2="1933" y2= "1906" />
  <path class="fil0 str2" d="M1933 1906c-1,1 -2,0 -2,-1"/>
  <line class="fil0 str2" x1="1931" y1="1905" x2="1931" y2= "1863" />
  <path class="fil0 str2" d="M1931 1863c0,-1 -1,-2 -2,-1"/>
  <path class="fil0 str0" d="M904 1270c0,0 1,0 1,0"/>
  <path class="fil0 str2" d="M1973 1836c-1,1 -2,2 -2,3"/>
  <path class="fil0 str0" d="M946 1248c0,-2 1,-3 2,-4"/>
  <line class="fil0 str2" x1="1971" y1="1839" x2="1971" y2= "1883" />
  <line class="fil0 str0" x1="946" y1="1262" x2="946" y2= "1248" />
  <line class="fil0 str2" x1="1958" y1="1875" x2="1971" y2= "1883" />
  <path class="fil0 str2" d="M1971 1883c0,1 -1,2 -2,3"/>
  <line class="fil0 str2" x1="1969" y1="1886" x2="1961" y2= "1890" />
  <path class="fil0 str2" d="M1961 1890c-1,1 -2,1 -2,-1"/>
  <line class="fil0 str2" x1="1959" y1="1889" x2="1958" y2= "1847" />
  <path class="fil0 str2" d="M1958 1847c0,-1 -1,-2 -2,-1"/>
  <path class="fil0 str0" d="M931 1254c0,0 1,0 1,0"/>
  <path class="fil0 str2" d="M1919 1867c-1,1 -2,2 -2,4"/>
  <path class="fil0 str0" d="M892 1279c0,-1 1,-3 2,-4"/>
  <line class="fil0 str2" x1="1917" y1="1871" x2="1917" y2= "1914" />
  <line class="fil0 str0" x1="892" y1="1293" x2="892" y2= "1279" />
  <path class="fil0 str2" d="M1917 1914c0,1 -1,2 -2,3"/>
  <line class="fil0 str2" x1="1915" y1="1917" x2="1906" y2= "1922" />
  <path class="fil0 str2" d="M1906 1922c-1,0 -2,0 -2,-1"/>
  <line class="fil0 str2" x1="1904" y1="1921" x2="1904" y2= "1879" />
  <path class="fil0 str2" d="M1904 1879c0,-2 -1,-2 -2,-2"/>
  <path class="fil0 str0" d="M876 1286c1,-1 2,-1 2,-1"/>
  <path class="fil0 str2" d="M1756 1961c-1,1 -2,3 -2,4"/>
  <path class="fil0 str0" d="M729 1373c0,-1 1,-3 2,-4"/>
  <line class="fil0 str2" x1="1754" y1="1965" x2="1754" y2= "2008" />
  <line class="fil0 str0" x1="729" y1="1388" x2="729" y2= "1373" />
  <path class="fil0 str2" d="M1754 2008c0,1 -1,2 -2,3"/>
  <line class="fil0 str2" x1="1752" y1="2011" x2="1743" y2= "2016" />
  <path class="fil0 str2" d="M1743 2016c-1,0 -2,0 -2,-1"/>
  <line class="fil0 str2" x1="1741" y1="2015" x2="1741" y2= "1973" />
  <path class="fil0 str2" d="M1741 1973c0,-2 -1,-2 -2,-2"/>
  <path class="fil0 str0" d="M714 1380c0,-1 1,-1 1,-1"/>
  <line class="fil0 str0" x1="714" y1="1380" x2="702" y2= "1386" />
  <path class="fil0 str0" d="M702 1386c-45,26 -45,68 0,94"/>
  <line class="fil0 str0" x1="702" y1="1480" x2="1564" y2= "1978" />
  <path class="fil0 str0" d="M1564 1978c22,13 51,20 82,20 30,0 59,-7 81,-20"/>
  <line class="fil0 str2" x1="1727" y1="1978" x2="1739" y2= "1971" />
  <line class="fil0 str0" x1="958" y1="1239" x2="948" y2= "1244" />
  <line class="fil0 str2" x1="1973" y1="1836" x2="1983" y2= "1830" />
  <line class="fil0 str2" x1="1946" y1="1852" x2="1956" y2= "1846" />
  <line class="fil0 str0" x1="931" y1="1254" x2="921" y2= "1260" />
  <line class="fil0 str0" x1="904" y1="1270" x2="894" y2= "1275" />
  <line class="fil0 str2" x1="1919" y1="1867" x2="1929" y2= "1862" />
  <line class="fil0 str0" x1="741" y1="1364" x2="731" y2= "1369" />
  <line class="fil0 str2" x1="1756" y1="1961" x2="1766" y2= "1956" />
  <line class="fil0 str0" x1="822" y1="1317" x2="813" y2= "1322" />
  <line class="fil0 str2" x1="1838" y1="1914" x2="1847" y2= "1909" />
  <line class="fil0 str2" x1="2001" y1="1820" x2="2012" y2= "1814" />
  <line class="fil0 str0" x1="2012" y1="1814" x2="987" y2= "1222" />
  <line class="fil0 str0" x1="987" y1="1222" x2="976" y2= "1228" />
  <line class="fil0 str2" x1="1892" y1="1883" x2="1902" y2= "1877" />
  <line class="fil0 str0" x1="876" y1="1286" x2="867" y2= "1291" />
  <line class="fil0 str0" x1="849" y1="1301" x2="840" y2= "1307" />
  <line class="fil0 str2" x1="1865" y1="1899" x2="1874" y2= "1893" />
  <line class="fil0 str2" x1="1811" y1="1930" x2="1820" y2= "1924" />
  <line class="fil0 str0" x1="795" y1="1333" x2="785" y2= "1338" />
  <line class="fil0 str0" x1="768" y1="1348" x2="758" y2= "1354" />
  <line class="fil0 str2" x1="1783" y1="1946" x2="1793" y2= "1940" />
  <line class="fil0 str2" x1="2012" y1="2017" x2="2012" y2= "1814" />
  <line class="fil0 str0" x1="1727" y1="2182" x2="2012" y2= "2017" />
  <path class="fil0 str0" d="M1727 2182c-22,12 -51,19 -81,19 -31,0 -60,-7 -82,-19"/>
  <line class="fil0 str0" x1="702" y1="1684" x2="1564" y2= "2182" />
  <path class="fil0 str0" d="M702 1684c-22,-12 -34,-29 -34,-47"/>
  <line class="fil0 str0" x1="769" y1="1348" x2="1794" y2= "1940" />
  <line class="fil0 str0" x1="851" y1="1301" x2="1876" y2= "1893" />
  <line class="fil0 str0" x1="959" y1="1238" x2="1985" y2= "1830" />
  <line class="fil0 str0" x1="824" y1="1317" x2="1849" y2= "1909" />
  <line class="fil0 str0" x1="742" y1="1364" x2="1767" y2= "1956" />
  <line class="fil0 str0" x1="796" y1="1332" x2="1822" y2= "1924" />
  <line class="fil0 str0" x1="905" y1="1270" x2="1930" y2= "1862" />
  <line class="fil0 str0" x1="932" y1="1254" x2="1957" y2= "1846" />
  <line class="fil0 str0" x1="878" y1="1285" x2="1903" y2= "1877" />
  <line class="fil0 str0" x1="715" y1="1379" x2="1740" y2= "1971" />
  <line class="fil0 str0" x1="668" y1="1637" x2="668" y2= "1433" />
 </g>
</svg>
