<?xml version="1.0" encoding="UTF-8"?>
<!DOCTYPE svg PUBLIC "-//W3C//DTD SVG 1.1//EN" "http://www.w3.org/Graphics/SVG/1.1/DTD/svg11.dtd">
<!-- Creator: CorelDRAW X7 -->
<svg xmlns="http://www.w3.org/2000/svg" xml:space="preserve" width="120mm" height="90mm" version="1.1" style="shape-rendering:geometricPrecision; text-rendering:geometricPrecision; image-rendering:optimizeQuality; fill-rule:evenodd; clip-rule:evenodd"
viewBox="0 0 12000 9000"
 xmlns:xlink="http://www.w3.org/1999/xlink">
 <defs>
  <style type="text/css">
   <![CDATA[
    .str0 {stroke:black;stroke-width:25;stroke-linejoin:bevel}
    .str1 {stroke:black;stroke-width:7.62;stroke-linejoin:bevel}
    .fil0 {fill:none}
   ]]>
  </style>
 </defs>
 <g id="Layer_x0020_1">
  <metadata id="CorelCorpID_0Corel-Layer"/>
  <path class="fil0 str0" d="M7249 4462c48,27 94,76 128,135 34,59 53,123 53,178"/>
  <path class="fil0 str0" d="M7392 4891c60,-56 49,-190 -25,-308 -75,-118 -186,-178 -256,-138"/>
  <line class="fil0 str0" x1="7430" y1="4775" x2="7430" y2= "4782" />
  <line class="fil0 str0" x1="7249" y1="4462" x2="7243" y2= "4458" />
  <line class="fil0 str0" x1="6866" y1="4587" x2="7111" y2= "4445" />
  <line class="fil0 str0" x1="7199" y1="4438" x2="7198" y2= "4439" />
  <line class="fil0 str0" x1="7446" y1="4819" x2="7425" y2= "4831" />
  <path class="fil0 str0" d="M7422 4547c0,0 0,0 0,0"/>
  <path class="fil0 str0" d="M7455 684c0,13 -11,24 -30,31 -19,6 -42,6 -61,0 -19,-6 -31,-17 -31,-30"/>
  <path class="fil0 str0" d="M7447 702c-4,15 -26,26 -52,26 -26,1 -49,-10 -53,-25"/>
  <path class="fil0 str0" d="M7454 691c5,14 -5,28 -26,36 -20,8 -47,8 -67,1 -21,-8 -31,-22 -27,-36"/>
  <path class="fil0 str0" d="M7455 711c1,12 -11,24 -30,30 -19,7 -42,7 -61,1 -19,-6 -30,-17 -31,-30"/>
  <path class="fil0 str0" d="M7447 729c-5,15 -26,25 -52,26 -26,0 -48,-10 -52,-25"/>
  <path class="fil0 str0" d="M7454 717c5,14 -5,28 -25,36 -21,9 -47,9 -68,1 -20,-7 -31,-21 -26,-35"/>
  <path class="fil0 str0" d="M7422 4547c-23,-1 -46,-4 -68,-8 -7,-2 -14,-3 -21,-5"/>
  <path class="fil0 str0" d="M7200 4439c-3,-7 -5,-15 -6,-23"/>
  <line class="fil0 str0" x1="7429" y1="4549" x2="7432" y2= "4772" />
  <path class="fil0 str0" d="M7234 2367c-7,61 -14,121 -21,182 -6,61 -11,123 -16,184 -4,62 -8,124 -10,185 -3,62 -5,124 -6,187 -1,62 -1,124 -1,186"/>
  <path class="fil0 str0" d="M7668 3286c0,-63 -2,-125 -5,-187 -2,-62 -5,-124 -10,-186 -4,-62 -9,-124 -15,-185 -6,-61 -12,-123 -20,-183 -8,-61 -16,-122 -25,-182"/>
  <path class="fil0 str0" d="M7479 1620c-2,-13 -3,-25 -5,-37 -2,-12 -3,-25 -4,-37 -1,-13 -2,-25 -3,-38 -1,-12 -2,-25 -2,-38 -1,-12 -1,-25 -1,-37"/>
  <path class="fil0 str0" d="M7342 1434c0,13 0,25 0,38 -1,12 -1,25 -1,38 -1,12 -2,25 -3,37 -1,13 -2,25 -3,37 -1,13 -3,25 -4,37"/>
  <path class="fil0 str0" d="M7330 429c0,-33 27,-61 60,-61 34,-1 62,26 62,60"/>
  <line class="fil0 str0" x1="7452" y1="428" x2="7455" y2= "684" />
  <line class="fil0 str0" x1="7330" y1="429" x2="7333" y2= "685" />
  <line class="fil0 str0" x1="7455" y1="697" x2="7455" y2= "711" />
  <line class="fil0 str0" x1="7333" y1="699" x2="7333" y2= "712" />
  <line class="fil0 str0" x1="7456" y1="724" x2="7464" y2= "1433" />
  <line class="fil0 str0" x1="7334" y1="725" x2="7342" y2= "1434" />
  <line class="fil0 str0" x1="7479" y1="1620" x2="7593" y2= "2363" />
  <line class="fil0 str0" x1="7331" y1="1621" x2="7234" y2= "2367" />
  <line class="fil0 str0" x1="7668" y1="3286" x2="7686" y2= "4802" />
  <line class="fil0 str0" x1="7180" y1="3291" x2="7194" y2= "4437" />
  <line class="fil0 str0" x1="7523" y1="4889" x2="7487" y2= "4868" />
  <path class="fil0 str0" d="M7466 4850c1,2 2,3 4,5 1,1 2,2 3,4 2,1 3,2 5,3 1,1 3,2 4,3 2,1 3,2 5,3"/>
  <path class="fil0 str0" d="M7432 4772c1,7 2,13 4,18 2,6 3,12 5,17 3,6 5,11 7,16 3,5 5,10 8,15 3,4 6,8 10,12"/>
  <path class="fil0 str0" d="M7194 4416c0,0 0,0 0,0 0,0 0,0 0,0 0,0 0,0 0,-1 0,0 0,0 0,0 0,0 0,0 0,0 0,0 0,0 0,0 0,0 0,-1 0,-1 0,0 0,0 0,0 0,0 0,0 0,0"/>
  <path class="fil0 str0" d="M7429 4549c0,0 0,0 0,0 0,0 0,0 0,0 0,0 0,0 0,0 0,0 0,0 0,0 0,0 -1,-1 -1,-1 0,0 0,0 0,0 0,0 0,0 0,0 0,0 0,0 0,0 0,0 0,0 0,0 0,0 0,0 0,0 0,0 0,0 0,0 0,0 0,0 0,0 0,0 0,0 -1,0 0,0 0,0 0,-1 -1,0 -2,0 -2,0 -1,0 -2,0 -3,0"/>
  <path class="fil0 str0" d="M7429 4549c0,0 0,0 0,0 0,0 -1,-1 -1,-1 0,0 0,0 0,0 0,0 0,0 0,0 0,0 0,0 0,0 0,0 0,0 0,0 0,0 0,0 0,0 0,0 0,0 0,0 0,0 -1,0 -1,0 0,-1 -1,-1 -1,-1 -1,0 -2,0 -3,0 0,0 -1,0 -1,0"/>
  <path class="fil0 str0" d="M7432 4772c0,0 0,0 0,0"/>
  <path class="fil0 str0" d="M7641 4885c-11,9 -22,15 -35,18 -12,3 -25,3 -38,2 -14,-2 -28,-7 -41,-14 -2,-1 -3,-2 -4,-2"/>
  <path class="fil0 str0" d="M7686 4802c0,6 -1,12 -2,18 -1,6 -3,12 -5,17 -3,6 -6,12 -10,17 -3,6 -8,11 -12,16 -5,6 -11,11 -16,15"/>
  <path class="fil0 str1" d="M4487 4754c5,0 12,4 6,7"/>
  <path class="fil0 str1" d="M4482 4756c2,-1 4,-2 5,-2"/>
  <line class="fil0 str1" x1="4410" y1="4797" x2="4482" y2= "4756" />
  <path class="fil0 str1" d="M4418 4804c-5,3 -17,-2 -8,-7"/>
  <line class="fil0 str1" x1="4493" y1="4761" x2="4418" y2= "4804" />
  <line class="fil0 str1" x1="4572" y1="4749" x2="4543" y2= "4732" />
  <line class="fil0 str1" x1="4572" y1="4756" x2="4572" y2= "4749" />
  <line class="fil0 str1" x1="4433" y1="4846" x2="4426" y2= "4850" />
  <line class="fil0 str1" x1="4426" y1="4833" x2="4572" y2= "4749" />
  <line class="fil0 str1" x1="4426" y1="4850" x2="4426" y2= "4833" />
  <line class="fil0 str1" x1="4426" y1="4850" x2="4405" y2= "4837" />
  <line class="fil0 str1" x1="4405" y1="4821" x2="4426" y2= "4833" />
  <path class="fil0 str1" d="M4405 4837c0,0 -1,0 -1,0"/>
  <path class="fil0 str1" d="M4405 4819c0,1 -1,1 0,2"/>
  <path class="fil0 str1" d="M4406 4817c-1,0 -1,1 -1,2"/>
  <path class="fil0 str1" d="M4404 4833c0,0 0,0 -1,0"/>
  <path class="fil0 str1" d="M4403 4816c1,1 2,1 3,1"/>
  <path class="fil0 str1" d="M4403 4833c-17,-2 -30,-11 -33,-20"/>
  <path class="fil0 str1" d="M4370 4796c3,10 16,18 33,20"/>
  <path class="fil0 str1" d="M4370 4813c-1,-1 -1,-2 -1,-3"/>
  <path class="fil0 str1" d="M4377 4783c-8,4 -9,9 -7,13"/>
  <line class="fil0 str1" x1="4460" y1="4735" x2="4377" y2= "4783" />
  <path class="fil0 str1" d="M4508 4744c-11,-10 -32,-18 -48,-9"/>
  <path class="fil0 str1" d="M4511 4748c0,-1 -2,-3 -3,-4"/>
  <path class="fil0 str1" d="M4512 4750c-1,-1 0,-1 -1,-2"/>
  <line class="fil0 str1" x1="4543" y1="4732" x2="4512" y2= "4750" />
  <path class="fil0 str1" d="M4285 4605c0,0 0,1 0,2"/>
  <path class="fil0 str1" d="M4285 4607c-1,3 -4,6 -9,9"/>
  <line class="fil0 str1" x1="4276" y1="4616" x2="4167" y2= "4679" />
  <path class="fil0 str1" d="M4167 4679c-11,6 -27,7 -36,2"/>
  <line class="fil0 str1" x1="4131" y1="4681" x2="3970" y2= "4588" />
  <path class="fil0 str1" d="M3970 4588c-4,-3 -6,-6 -6,-10"/>
  <path class="fil0 str1" d="M4369 4797c-3,1 -7,2 -10,3"/>
  <path class="fil0 str1" d="M4359 4800c-24,3 -58,-18 -61,-30"/>
  <path class="fil0 str1" d="M4298 4770c0,-1 0,-2 0,-3"/>
  <line class="fil0 str1" x1="4686" y1="4831" x2="4664" y2= "4843" />
  <line class="fil0 str1" x1="4664" y1="4843" x2="4658" y2= "4840" />
  <line class="fil0 str1" x1="4330" y1="4685" x2="4309" y2= "4672" />
  <line class="fil0 str1" x1="4309" y1="4661" x2="4278" y2= "4679" />
  <path class="fil0 str1" d="M4250 4736c-1,0 -1,0 -1,0"/>
  <path class="fil0 str1" d="M4249 4736c-7,0 -10,-1 -17,-2"/>
  <path class="fil0 str1" d="M4232 4734c-8,-2 -16,-4 -23,-9"/>
  <path class="fil0 str1" d="M4209 4725c-12,-6 -22,-14 -22,-23"/>
  <line class="fil0 str1" x1="4425" y1="4680" x2="4406" y2= "4691" />
  <line class="fil0 str1" x1="4298" y1="4754" x2="4279" y2= "4764" />
  <path class="fil0 str1" d="M4279 4764c0,1 -1,1 -1,0"/>
  <line class="fil0 str1" x1="4278" y1="4764" x2="4250" y2= "4748" />
  <path class="fil0 str1" d="M7797 6702c0,0 0,0 0,0"/>
  <line class="fil0 str1" x1="7788" y1="6709" x2="7760" y2= "6725" />
  <path class="fil0 str1" d="M7760 6725c-2,2 -5,2 -7,3"/>
  <path class="fil0 str1" d="M7753 6728c-7,0 -11,-4 -11,-7"/>
  <path class="fil0 str1" d="M7797 6701c0,0 0,1 0,1"/>
  <line class="fil0 str0" x1="3800" y1="4574" x2="8142" y2= "7080" />
  <line class="fil0 str0" x1="8142" y1="7080" x2="9318" y2= "6401" />
  <path class="fil0 str0" d="M9318 6401c91,-52 143,-124 143,-199 0,-75 -52,-146 -143,-199"/>
  <line class="fil0 str0" x1="9318" y1="6003" x2="5666" y2= "3895" />
  <path class="fil0 str0" d="M5666 3895c-91,-53 -215,-83 -345,-83 -129,0 -253,30 -345,83"/>
  <line class="fil0 str0" x1="4976" y1="3895" x2="3800" y2= "4574" />
  <path class="fil0 str1" d="M8234 6855c0,6 -9,12 -21,12 -11,0 -20,-6 -20,-12 0,-7 9,-12 20,-12 12,0 21,5 21,12z"/>
  <path class="fil0 str1" d="M8062 6755c0,7 -10,12 -21,12 -12,0 -21,-5 -21,-12 0,-6 9,-12 21,-12 11,0 21,6 21,12z"/>
  <path class="fil0 str1" d="M7889 6656c0,6 -9,12 -21,12 -11,0 -20,-6 -20,-12 0,-7 9,-12 20,-12 12,0 21,5 21,12z"/>
  <path class="fil0 str1" d="M7911 6872c-41,0 -78,-21 -77,-45"/>
  <path class="fil0 str1" d="M7834 6827c0,0 0,-1 0,-2"/>
  <line class="fil0 str1" x1="7991" y1="6826" x2="7990" y2= "6832" />
  <path class="fil0 str1" d="M7990 6832c0,3 -2,6 -3,9"/>
  <path class="fil0 str1" d="M7987 6841c-5,9 -11,13 -22,19"/>
  <path class="fil0 str1" d="M7965 6860c-15,9 -35,12 -54,12"/>
  <path class="fil0 str1" d="M7742 6701c-2,0 -3,0 -5,0"/>
  <line class="fil0 str1" x1="7737" y1="6701" x2="7732" y2= "6701" />
  <path class="fil0 str1" d="M7732 6701c-2,0 -4,1 -5,1"/>
  <path class="fil0 str1" d="M7727 6702c-4,0 -8,1 -11,2"/>
  <path class="fil0 str1" d="M7716 6704c-8,2 -10,4 -15,7"/>
  <path class="fil0 str1" d="M7701 6711c-4,2 -7,5 -10,9"/>
  <path class="fil0 str1" d="M7808 6730c0,8 -4,16 -12,23"/>
  <line class="fil0 str1" x1="7796" y1="6753" x2="7788" y2= "6758" />
  <path class="fil0 str1" d="M7788 6758c-2,1 -2,1 -3,2"/>
  <path class="fil0 str1" d="M7785 6760c-5,2 -11,5 -17,6"/>
  <path class="fil0 str1" d="M7768 6766c-7,2 -12,3 -20,4"/>
  <path class="fil0 str1" d="M7748 6770c-21,1 -43,-2 -60,-12"/>
  <path class="fil0 str1" d="M7688 6758c-13,-7 -20,-18 -20,-29"/>
  <line class="fil0 str1" x1="8082" y1="6977" x2="7997" y2= "6927" />
  <path class="fil0 str1" d="M7997 6927c-2,-1 -3,-3 -3,-4"/>
  <path class="fil0 str1" d="M8172 6931c0,2 -1,4 -3,5"/>
  <line class="fil0 str1" x1="8169" y1="6936" x2="8098" y2= "6977" />
  <path class="fil0 str1" d="M8098 6977c-4,2 -12,2 -16,0"/>
  <path class="fil0 str1" d="M4555 4857c-1,-1 -2,-1 -3,-1"/>
  <path class="fil0 str1" d="M4552 4856c-11,-2 -24,-10 -34,-15"/>
  <line class="fil0 str1" x1="4518" y1="4841" x2="4464" y2= "4872" />
  <line class="fil0 str1" x1="4464" y1="4872" x2="4433" y2= "4854" />
  <path class="fil0 str1" d="M4433 4854c0,0 0,0 0,-1"/>
  <line class="fil0 str1" x1="4658" y1="4847" x2="4541" y2= "4915" />
  <path class="fil0 str1" d="M4541 4915c-1,0 -1,0 -2,0"/>
  <line class="fil0 str1" x1="4539" y1="4915" x2="4511" y2= "4899" />
  <line class="fil0 str1" x1="4658" y1="4830" x2="4629" y2= "4814" />
  <line class="fil0 str1" x1="4658" y1="4847" x2="4658" y2= "4830" />
  <line class="fil0 str1" x1="4541" y1="4898" x2="4658" y2= "4830" />
  <path class="fil0 str1" d="M4539 4898c1,1 1,1 2,0"/>
  <line class="fil0 str1" x1="4511" y1="4882" x2="4539" y2= "4898" />
  <line class="fil0 str1" x1="4511" y1="4899" x2="4511" y2= "4882" />
  <line class="fil0 str1" x1="4629" y1="4814" x2="4511" y2= "4882" />
  <path class="fil0 str1" d="M4189 4594c-20,11 -54,28 -66,42"/>
  <line class="fil0 str1" x1="4189" y1="4594" x2="4189" y2= "4578" />
  <path class="fil0 str1" d="M4123 4620c11,-14 46,-31 66,-42"/>
  <path class="fil0 str1" d="M4132 4641c-13,-6 -16,-13 -9,-21"/>
  <path class="fil0 str1" d="M4141 4644c-3,-1 -6,-2 -9,-3"/>
  <path class="fil0 str1" d="M4150 4643c-4,1 -5,1 -9,1"/>
  <path class="fil0 str1" d="M4166 4632c0,3 -12,9 -16,11"/>
  <line class="fil0 str1" x1="4166" y1="4633" x2="4166" y2= "4632" />
  <path class="fil0 str1" d="M4156 4623c-7,7 9,8 10,9"/>
  <path class="fil0 str1" d="M4200 4595c-13,6 -38,20 -44,28"/>
  <path class="fil0 str1" d="M4209 4589c-3,2 -7,4 -9,6"/>
  <path class="fil0 str1" d="M4224 4596c-5,1 -7,-3 -15,-7"/>
  <path class="fil0 str1" d="M4240 4588c-4,3 -11,7 -16,8"/>
  <path class="fil0 str1" d="M4236 4579c7,4 10,5 4,9"/>
  <path class="fil0 str1" d="M4231 4593c-17,-10 -68,-40 -71,-41"/>
  <path class="fil0 str1" d="M4160 4536c3,1 69,39 76,43"/>
  <line class="fil0 str1" x1="4160" y1="4552" x2="4160" y2= "4536" />
  <line class="fil0 str1" x1="4160" y1="4552" x2="4152" y2= "4557" />
  <line class="fil0 str1" x1="4138" y1="4548" x2="4160" y2= "4536" />
  <line class="fil0 str1" x1="4189" y1="4578" x2="4138" y2= "4548" />
  <path class="fil0 str1" d="M4100 4532c-22,2 -48,18 -51,30"/>
  <path class="fil0 str1" d="M4133 4540c-10,-6 -19,-9 -33,-8"/>
  <line class="fil0 str1" x1="4150" y1="4530" x2="4133" y2= "4540" />
  <path class="fil0 str1" d="M4134 4539c-2,-1 -5,-2 -7,-2"/>
  <path class="fil0 str1" d="M4092 4534c-6,0 -13,1 -19,3"/>
  <path class="fil0 str1" d="M4073 4521c27,-8 53,-5 77,9"/>
  <path class="fil0 str1" d="M4073 4537c-19,6 -44,21 -49,33"/>
  <path class="fil0 str1" d="M4024 4554c5,-13 30,-28 49,-33"/>
  <path class="fil0 str1" d="M4024 4570c0,0 0,1 0,1"/>
  <path class="fil0 str1" d="M4023 4568c-2,-4 -1,-10 1,-14"/>
  <path class="fil0 str1" d="M4026 4576c-1,-2 -2,-5 -3,-8"/>
  <path class="fil0 str1" d="M4044 4591c-8,-4 -14,-10 -18,-15"/>
  <line class="fil0 str1" x1="4061" y1="4581" x2="4044" y2= "4591" />
  <path class="fil0 str1" d="M4050 4588c-1,-2 -2,-4 -2,-6"/>
  <path class="fil0 str1" d="M4049 4562c-2,8 2,13 12,19"/>
  <path class="fil0 str1" d="M4096 4599c-7,3 -14,6 -21,8"/>
  <path class="fil0 str1" d="M4071 4592c9,-3 17,-6 25,-10"/>
  <path class="fil0 str1" d="M4066 4603c-13,-7 -7,-7 5,-11"/>
  <path class="fil0 str1" d="M4091 4604c-13,5 -14,5 -25,-1"/>
  <path class="fil0 str1" d="M4115 4594c-8,4 -16,7 -24,10"/>
  <path class="fil0 str1" d="M4164 4568c-4,4 -41,23 -49,26"/>
  <line class="fil0 str1" x1="4149" y1="4577" x2="4144" y2= "4574" />
  <line class="fil0 str1" x1="4144" y1="4557" x2="4164" y2= "4568" />
  <line class="fil0 str1" x1="4144" y1="4574" x2="4144" y2= "4557" />
  <path class="fil0 str1" d="M4144 4574c-2,1 -9,5 -12,7"/>
  <path class="fil0 str1" d="M4132 4564c3,-2 10,-6 12,-7"/>
  <path class="fil0 str1" d="M4132 4581c-12,6 -23,12 -36,18"/>
  <path class="fil0 str1" d="M4096 4582c13,-5 24,-11 36,-18"/>
  <line class="fil0 str1" x1="4277" y1="4578" x2="4119" y2= "4486" />
  <path class="fil0 str1" d="M4285 4590c0,-5 -2,-9 -8,-12"/>
  <path class="fil0 str1" d="M4276 4599c5,-2 8,-5 9,-9"/>
  <line class="fil0 str1" x1="4167" y1="4663" x2="4276" y2= "4599" />
  <path class="fil0 str1" d="M4131 4664c9,5 25,5 36,-1"/>
  <line class="fil0 str1" x1="3970" y1="4571" x2="4131" y2= "4664" />
  <path class="fil0 str1" d="M3971 4551c-9,5 -10,15 -1,20"/>
  <line class="fil0 str1" x1="4084" y1="4486" x2="3971" y2= "4551" />
  <path class="fil0 str1" d="M4119 4486c-10,-5 -27,-5 -35,0"/>
  <path class="fil0 str1" d="M4589 4783c7,4 9,7 1,12"/>
  <line class="fil0 str1" x1="4589" y1="4795" x2="4589" y2= "4783" />
  <line class="fil0 str1" x1="4539" y1="4812" x2="4589" y2= "4783" />
  <path class="fil0 str1" d="M4559 4812c-7,4 -12,4 -20,0"/>
  <line class="fil0 str1" x1="4590" y1="4795" x2="4559" y2= "4812" />
  <line class="fil0 str1" x1="4616" y1="4774" x2="4579" y2= "4753" />
  <path class="fil0 str1" d="M4637 4791c-3,-5 -12,-12 -21,-17"/>
  <path class="fil0 str1" d="M4628 4809c9,-5 12,-11 9,-18"/>
  <line class="fil0 str1" x1="4583" y1="4835" x2="4628" y2= "4809" />
  <path class="fil0 str1" d="M4552 4839c11,3 22,1 31,-4"/>
  <path class="fil0 str1" d="M4518 4824c10,6 23,13 34,15"/>
  <line class="fil0 str1" x1="4518" y1="4841" x2="4518" y2= "4824" />
  <line class="fil0 str1" x1="4464" y1="4855" x2="4518" y2= "4824" />
  <line class="fil0 str1" x1="4464" y1="4872" x2="4464" y2= "4855" />
  <line class="fil0 str1" x1="4433" y1="4837" x2="4464" y2= "4855" />
  <path class="fil0 str1" d="M4433 4836c0,1 0,1 0,1"/>
  <line class="fil0 str1" x1="4579" y1="4753" x2="4433" y2= "4836" />
  <path class="fil0 str1" d="M4410 4713c6,-4 16,1 9,5"/>
  <line class="fil0 str1" x1="4335" y1="4756" x2="4410" y2= "4713" />
  <path class="fil0 str1" d="M4345 4761c-6,4 -16,-2 -10,-5"/>
  <line class="fil0 str1" x1="4419" y1="4718" x2="4345" y2= "4761" />
  <path class="fil0 str1" d="M4455 4718c-6,-11 -29,-25 -48,-27"/>
  <path class="fil0 str1" d="M4450 4734c7,-4 8,-10 5,-16"/>
  <line class="fil0 str1" x1="4373" y1="4779" x2="4450" y2= "4734" />
  <path class="fil0 str1" d="M4359 4783c4,0 10,-2 14,-4"/>
  <path class="fil0 str1" d="M4298 4754c3,11 37,32 61,29"/>
  <path class="fil0 str1" d="M4311 4736c-10,6 -15,10 -13,18"/>
  <line class="fil0 str1" x1="4376" y1="4699" x2="4311" y2= "4736" />
  <path class="fil0 str1" d="M4407 4691c-13,-1 -22,2 -31,8"/>
  <line class="fil0 str1" x1="4686" y1="4815" x2="4657" y2= "4798" />
  <line class="fil0 str1" x1="4686" y1="4831" x2="4686" y2= "4815" />
  <line class="fil0 str1" x1="4664" y1="4827" x2="4686" y2= "4815" />
  <line class="fil0 str1" x1="4664" y1="4843" x2="4664" y2= "4827" />
  <line class="fil0 str1" x1="4635" y1="4810" x2="4664" y2= "4827" />
  <line class="fil0 str1" x1="4635" y1="4817" x2="4635" y2= "4810" />
  <line class="fil0 str1" x1="4657" y1="4798" x2="4635" y2= "4810" />
  <line class="fil0 str1" x1="4366" y1="4664" x2="4366" y2= "4655" />
  <path class="fil0 str1" d="M4338 4672c5,-3 25,-14 28,-17"/>
  <line class="fil0 str1" x1="4338" y1="4680" x2="4338" y2= "4672" />
  <line class="fil0 str1" x1="4309" y1="4656" x2="4338" y2= "4672" />
  <line class="fil0 str1" x1="4309" y1="4672" x2="4309" y2= "4656" />
  <path class="fil0 str1" d="M4338 4639c-1,1 -26,15 -29,17"/>
  <path class="fil0 str1" d="M4338 4636c1,1 1,2 0,3"/>
  <path class="fil0 str1" d="M4323 4637c4,-3 9,-7 15,-1"/>
  <line class="fil0 str1" x1="4238" y1="4686" x2="4323" y2= "4637" />
  <path class="fil0 str1" d="M4228 4692c3,-2 7,-5 10,-6"/>
  <path class="fil0 str1" d="M4230 4698c-3,-2 -6,-4 -2,-6"/>
  <path class="fil0 str1" d="M4241 4695c-4,2 -6,4 -11,3"/>
  <line class="fil0 str1" x1="4272" y1="4676" x2="4241" y2= "4695" />
  <line class="fil0 str1" x1="4302" y1="4693" x2="4272" y2= "4676" />
  <line class="fil0 str1" x1="4302" y1="4701" x2="4302" y2= "4693" />
  <line class="fil0 str1" x1="4267" y1="4714" x2="4302" y2= "4693" />
  <path class="fil0 str1" d="M4249 4719c7,0 12,-2 18,-5"/>
  <path class="fil0 str1" d="M4232 4717c7,2 10,2 17,2"/>
  <path class="fil0 str1" d="M4209 4709c7,4 15,7 23,8"/>
  <path class="fil0 str1" d="M4193 4675c-15,12 -1,24 16,34"/>
  <path class="fil0 str1" d="M4273 4628c-7,4 -76,43 -80,47"/>
  <path class="fil0 str1" d="M4297 4615c-7,3 -17,9 -24,13"/>
  <path class="fil0 str1" d="M4320 4611c-8,0 -15,1 -23,4"/>
  <path class="fil0 str1" d="M4365 4629c-13,-10 -30,-17 -45,-18"/>
  <path class="fil0 str1" d="M4372 4635c-1,-2 -4,-4 -7,-6"/>
  <path class="fil0 str1" d="M4374 4649c3,-5 2,-9 -2,-14"/>
  <path class="fil0 str1" d="M4366 4655c4,0 7,-5 8,-6"/>
  <line class="fil0 str1" x1="4425" y1="4664" x2="4396" y2= "4647" />
  <line class="fil0 str1" x1="4425" y1="4680" x2="4425" y2= "4664" />
  <line class="fil0 str1" x1="4279" y1="4748" x2="4425" y2= "4664" />
  <path class="fil0 str1" d="M4278 4748c0,0 1,0 1,0"/>
  <line class="fil0 str1" x1="4250" y1="4731" x2="4278" y2= "4748" />
  <line class="fil0 str1" x1="4250" y1="4748" x2="4250" y2= "4731" />
  <line class="fil0 str1" x1="4396" y1="4647" x2="4250" y2= "4731" />
  <path class="fil0 str1" d="M8081 6926c-6,2 -13,4 -20,6"/>
  <path class="fil0 str1" d="M8058 6913c7,-2 17,-5 24,-7"/>
  <path class="fil0 str1" d="M8046 6914c3,2 9,-1 12,-1"/>
  <path class="fil0 str1" d="M8045 6909c-1,2 -3,3 1,5"/>
  <line class="fil0 str1" x1="8058" y1="6895" x2="8045" y2= "6909" />
  <path class="fil0 str1" d="M8050 6890c2,2 5,3 8,5"/>
  <path class="fil0 str1" d="M8047 6888c0,1 1,1 3,2"/>
  <path class="fil0 str1" d="M8056 6885c-3,-2 -9,0 -9,3"/>
  <line class="fil0 str1" x1="8068" y1="6892" x2="8056" y2= "6885" />
  <path class="fil0 str1" d="M8067 6897c2,-1 4,-3 1,-5"/>
  <line class="fil0 str1" x1="8062" y1="6904" x2="8067" y2= "6897" />
  <path class="fil0 str1" d="M8060 6905c1,0 1,-1 2,-1"/>
  <path class="fil0 str1" d="M8060 6905c0,0 0,0 0,0"/>
  <line class="fil0 str1" x1="8062" y1="6905" x2="8060" y2= "6905" />
  <path class="fil0 str1" d="M8097 6895c-11,3 -24,7 -35,10"/>
  <path class="fil0 str1" d="M8103 6894c-2,0 -4,1 -6,1"/>
  <path class="fil0 str1" d="M8109 6894c-2,-1 -4,-1 -6,0"/>
  <path class="fil0 str1" d="M8111 6916c0,0 0,1 0,1"/>
  <path class="fil0 str1" d="M8109 6900c2,-3 3,-4 0,-6"/>
  <path class="fil0 str1" d="M8098 6913c3,-4 7,-9 11,-13"/>
  <path class="fil0 str1" d="M8096 6916c1,-1 1,-2 2,-3"/>
  <path class="fil0 str1" d="M8109 6916c-4,-2 -10,0 -13,0"/>
  <line class="fil0 str1" x1="8121" y1="6922" x2="8109" y2= "6916" />
  <path class="fil0 str1" d="M8116 6927c5,1 7,-3 5,-5"/>
  <path class="fil0 str1" d="M8112 6926c1,1 2,1 4,1"/>
  <path class="fil0 str1" d="M8104 6921c2,2 5,3 8,5"/>
  <line class="fil0 str1" x1="8104" y1="6940" x2="8104" y2= "6921" />
  <line class="fil0 str1" x1="8102" y1="6942" x2="8088" y2= "6943" />
  <line class="fil0 str1" x1="8088" y1="6923" x2="8104" y2= "6921" />
  <line class="fil0 str1" x1="8088" y1="6943" x2="8088" y2= "6923" />
  <path class="fil0 str1" d="M8088 6943c-4,1 -7,-1 -7,-3"/>
  <path class="fil0 str1" d="M8081 6920c0,1 2,4 7,3"/>
  <path class="fil0 str1" d="M8091 6907c-1,2 -9,12 -10,13"/>
  <path class="fil0 str1" d="M8095 6902c0,1 -3,5 -4,5"/>
  <line class="fil0 str1" x1="8095" y1="6903" x2="8095" y2= "6902" />
  <path class="fil0 str1" d="M8082 6906c2,-1 11,-3 13,-4"/>
  <line class="fil0 str1" x1="7797" y1="6702" x2="7797" y2= "6682" />
  <path class="fil0 str1" d="M7794 6686c2,-1 3,-3 3,-4"/>
  <line class="fil0 str1" x1="7760" y1="6705" x2="7794" y2= "6686" />
  <path class="fil0 str1" d="M7753 6708c2,-1 5,-1 7,-3"/>
  <path class="fil0 str1" d="M7744 6698c-5,3 -1,10 9,10"/>
  <line class="fil0 str1" x1="7781" y1="6677" x2="7744" y2= "6698" />
  <path class="fil0 str1" d="M7797 6682c1,-6 -11,-8 -16,-5"/>
  <path class="fil0 str1" d="M8078 6887c-2,-1 -4,-1 -6,0"/>
  <path class="fil0 str1" d="M8072 6867c2,-1 4,-1 6,0"/>
  <line class="fil0 str1" x1="8072" y1="6887" x2="8066" y2= "6891" />
  <line class="fil0 str1" x1="8047" y1="6902" x2="8028" y2= "6913" />
  <line class="fil0 str1" x1="8014" y1="6901" x2="8072" y2= "6867" />
  <path class="fil0 str1" d="M8014 6904c-2,-1 -2,-2 0,-3"/>
  <line class="fil0 str1" x1="8088" y1="6947" x2="8014" y2= "6904" />
  <path class="fil0 str1" d="M8093 6947c-2,1 -4,1 -5,0"/>
  <line class="fil0 str1" x1="8151" y1="6913" x2="8093" y2= "6947" />
  <path class="fil0 str1" d="M8151 6910c2,1 2,2 0,3"/>
  <line class="fil0 str1" x1="8137" y1="6921" x2="8111" y2= "6906" />
  <line class="fil0 str1" x1="8093" y1="6896" x2="8078" y2= "6887" />
  <line class="fil0 str1" x1="8078" y1="6867" x2="8151" y2= "6910" />
  <line class="fil0 str1" x1="7997" y1="6907" x2="8082" y2= "6957" />
  <path class="fil0 str1" d="M7997 6898c-4,2 -4,7 0,9"/>
  <line class="fil0 str1" x1="8067" y1="6857" x2="7997" y2= "6898" />
  <path class="fil0 str1" d="M8083 6857c-4,-2 -12,-2 -16,0"/>
  <line class="fil0 str1" x1="8169" y1="6907" x2="8083" y2= "6857" />
  <path class="fil0 str1" d="M8169 6916c4,-2 4,-7 0,-9"/>
  <line class="fil0 str1" x1="8098" y1="6957" x2="8169" y2= "6916" />
  <path class="fil0 str1" d="M8082 6957c4,2 12,2 16,0"/>
  <path class="fil0 str1" d="M7741 6670c-10,0 -12,0 -22,1"/>
  <path class="fil0 str1" d="M7749 6672c-2,-2 -4,-2 -8,-2"/>
  <path class="fil0 str1" d="M7749 6679c3,-2 3,-5 0,-7"/>
  <path class="fil0 str1" d="M7737 6681c4,0 8,1 12,-2"/>
  <line class="fil0 str1" x1="7737" y1="6701" x2="7737" y2= "6681" />
  <line class="fil0 str1" x1="7732" y1="6681" x2="7737" y2= "6681" />
  <path class="fil0 str1" d="M7727 6682c1,0 3,-1 5,-1"/>
  <line class="fil0 str1" x1="7727" y1="6702" x2="7727" y2= "6682" />
  <path class="fil0 str1" d="M7716 6684c3,-1 7,-2 11,-2"/>
  <path class="fil0 str1" d="M7701 6691c5,-3 7,-5 15,-7"/>
  <path class="fil0 str1" d="M7688 6708c0,-5 6,-13 13,-17"/>
  <path class="fil0 str1" d="M7688 6710c0,0 0,-1 0,-2"/>
  <path class="fil0 str1" d="M7690 6718c-2,-4 -1,-5 -2,-8"/>
  <path class="fil0 str1" d="M7691 6719c-1,0 -1,-1 -1,-1"/>
  <path class="fil0 str1" d="M7733 6738c-20,-1 -36,-8 -42,-19"/>
  <path class="fil0 str1" d="M7751 6738c-6,1 -13,1 -18,0"/>
  <path class="fil0 str1" d="M7761 6735c-2,1 -7,2 -10,3"/>
  <path class="fil0 str1" d="M7769 6732c-3,2 -5,2 -8,3"/>
  <path class="fil0 str1" d="M7775 6729c-2,1 -2,1 -6,3"/>
  <path class="fil0 str1" d="M7788 6711c-1,6 -5,13 -13,18"/>
  <line class="fil0 str1" x1="7788" y1="6708" x2="7788" y2= "6711" />
  <line class="fil0 str1" x1="7788" y1="6712" x2="7788" y2= "6708" />
  <path class="fil0 str1" d="M7804 6703c-5,-2 -16,-1 -16,5"/>
  <path class="fil0 str1" d="M7808 6710c0,-4 0,-4 -4,-7"/>
  <line class="fil0 str1" x1="7808" y1="6730" x2="7808" y2= "6710" />
  <path class="fil0 str1" d="M7796 6733c8,-7 12,-15 12,-23"/>
  <line class="fil0 str1" x1="7796" y1="6753" x2="7796" y2= "6733" />
  <line class="fil0 str1" x1="7788" y1="6738" x2="7796" y2= "6733" />
  <line class="fil0 str1" x1="7788" y1="6758" x2="7788" y2= "6738" />
  <path class="fil0 str1" d="M7785 6740c1,-1 1,-1 3,-2"/>
  <line class="fil0 str1" x1="7785" y1="6760" x2="7785" y2= "6740" />
  <path class="fil0 str1" d="M7768 6746c6,-1 12,-4 17,-6"/>
  <path class="fil0 str1" d="M7748 6750c8,-1 13,-2 20,-4"/>
  <path class="fil0 str1" d="M7688 6738c17,10 39,14 60,12"/>
  <path class="fil0 str1" d="M7670 6700c-6,12 1,28 18,38"/>
  <path class="fil0 str1" d="M7691 6680c-12,7 -17,11 -21,20"/>
  <path class="fil0 str1" d="M7719 6671c-8,1 -21,5 -28,9"/>
  <line class="fil0 str1" x1="7937" y1="6817" x2="7936" y2= "6816" />
  <line class="fil0 str1" x1="7936" y1="6796" x2="7937" y2= "6797" />
  <line class="fil0 str1" x1="7936" y1="6816" x2="7936" y2= "6796" />
  <line class="fil0 str1" x1="7936" y1="6816" x2="7935" y2= "6817" />
  <line class="fil0 str1" x1="7917" y1="6807" x2="7936" y2= "6796" />
  <line class="fil0 str1" x1="7938" y1="6819" x2="7917" y2= "6807" />
  <path class="fil0 str1" d="M7956 6805c-5,5 -11,9 -18,14"/>
  <path class="fil0 str1" d="M7939 6818c-1,-1 -1,-1 -2,-1"/>
  <path class="fil0 str1" d="M7937 6797c4,2 16,8 19,8"/>
  <path class="fil0 str1" d="M7864 6776c6,-2 6,-4 19,-7"/>
  <line class="fil0 str1" x1="7886" y1="6789" x2="7864" y2= "6776" />
  <line class="fil0 str1" x1="7892" y1="6785" x2="7886" y2= "6789" />
  <path class="fil0 str1" d="M7898 6783c-1,1 -4,2 -6,2"/>
  <line class="fil0 str1" x1="7911" y1="6778" x2="7898" y2= "6783" />
  <path class="fil0 str1" d="M7901 6766c1,2 7,10 10,12"/>
  <line class="fil0 str1" x1="7901" y1="6781" x2="7901" y2= "6766" />
  <path class="fil0 str1" d="M7896 6766c2,0 4,0 5,0"/>
  <path class="fil0 str1" d="M7888 6788c-1,0 -2,0 -2,0"/>
  <path class="fil0 str1" d="M7883 6769c4,-1 9,-2 13,-3"/>
  <path class="fil0 str1" d="M7981 6818c-1,2 -2,4 -4,5"/>
  <path class="fil0 str1" d="M7982 6816c0,0 -1,1 -1,2"/>
  <path class="fil0 str1" d="M7983 6813c-1,1 -1,2 -1,3"/>
  <line class="fil0 str1" x1="7973" y1="6811" x2="7983" y2= "6813" />
  <line class="fil0 str1" x1="7973" y1="6829" x2="7973" y2= "6811" />
  <path class="fil0 str1" d="M7971 6830c-3,-1 -7,-2 -9,-2"/>
  <path class="fil0 str1" d="M7962 6808c3,1 8,2 11,3"/>
  <line class="fil0 str1" x1="7962" y1="6828" x2="7962" y2= "6808" />
  <line class="fil0 str1" x1="7962" y1="6828" x2="7959" y2= "6830" />
  <line class="fil0 str1" x1="7949" y1="6818" x2="7962" y2= "6808" />
  <line class="fil0 str1" x1="7949" y1="6825" x2="7949" y2= "6818" />
  <path class="fil0 str1" d="M7943 6822c2,-1 3,-3 6,-4"/>
  <line class="fil0 str1" x1="7965" y1="6834" x2="7943" y2= "6822" />
  <path class="fil0 str1" d="M7969 6831c-1,1 -3,2 -4,3"/>
  <path class="fil0 str1" d="M7977 6823c-2,4 -4,6 -8,8"/>
  <path class="fil0 str1" d="M7886 6815c0,0 0,0 -1,0"/>
  <line class="fil0 str1" x1="7886" y1="6815" x2="7886" y2= "6795" />
  <path class="fil0 str1" d="M7869 6808c4,-4 10,-9 17,-13"/>
  <path class="fil0 str1" d="M7887 6816c-3,-2 -15,-7 -18,-8"/>
  <line class="fil0 str1" x1="7889" y1="6817" x2="7887" y2= "6816" />
  <line class="fil0 str1" x1="7907" y1="6807" x2="7889" y2= "6817" />
  <line class="fil0 str1" x1="7890" y1="6817" x2="7886" y2= "6815" />
  <line class="fil0 str1" x1="7886" y1="6795" x2="7907" y2= "6807" />
  <line class="fil0 str1" x1="7912" y1="6830" x2="7909" y2= "6831" />
  <line class="fil0 str1" x1="7912" y1="6830" x2="7912" y2= "6810" />
  <line class="fil0 str1" x1="7894" y1="6820" x2="7912" y2= "6810" />
  <line class="fil0 str1" x1="7895" y1="6821" x2="7894" y2= "6820" />
  <path class="fil0 str1" d="M7910 6832c-1,-2 -11,-9 -15,-11"/>
  <path class="fil0 str1" d="M7933 6822c-7,4 -16,7 -23,10"/>
  <line class="fil0 str1" x1="7914" y1="6830" x2="7912" y2= "6830" />
  <line class="fil0 str1" x1="7912" y1="6810" x2="7933" y2= "6822" />
  <path class="fil0 str1" d="M7859 6799c-1,1 -3,2 -4,3"/>
  <line class="fil0 str1" x1="7859" y1="6799" x2="7859" y2= "6779" />
  <path class="fil0 str1" d="M7855 6782c1,-1 3,-2 4,-3"/>
  <path class="fil0 str1" d="M7855 6802c0,0 -1,1 -1,1"/>
  <path class="fil0 str1" d="M7842 6800c2,-7 5,-11 13,-18"/>
  <path class="fil0 str1" d="M7844 6801c-1,0 -1,0 -2,-1"/>
  <path class="fil0 str1" d="M7862 6806c-2,-2 -14,-5 -18,-5"/>
  <path class="fil0 str1" d="M7881 6792c-8,4 -18,13 -19,14"/>
  <line class="fil0 str1" x1="7866" y1="6803" x2="7859" y2= "6799" />
  <line class="fil0 str1" x1="7859" y1="6779" x2="7881" y2= "6792" />
  <path class="fil0 str1" d="M7926 6831c2,-1 4,-2 6,-3"/>
  <path class="fil0 str1" d="M7920 6833c2,-1 4,-1 6,-2"/>
  <path class="fil0 str1" d="M7914 6836c1,-1 4,-2 6,-3"/>
  <path class="fil0 str1" d="M7919 6841c-1,-1 -3,-4 -5,-5"/>
  <line class="fil0 str1" x1="7923" y1="6847" x2="7919" y2= "6841" />
  <path class="fil0 str1" d="M7933 6846c-5,1 -6,1 -10,1"/>
  <path class="fil0 str1" d="M7951 6841c-6,3 -12,4 -18,5"/>
  <line class="fil0 str1" x1="7960" y1="6837" x2="7951" y2= "6841" />
  <line class="fil0 str1" x1="7939" y1="6845" x2="7938" y2= "6845" />
  <line class="fil0 str1" x1="7938" y1="6825" x2="7960" y2= "6837" />
  <line class="fil0 str1" x1="7938" y1="6845" x2="7938" y2= "6825" />
  <path class="fil0 str1" d="M7938 6845c-1,0 -1,0 -2,0"/>
  <path class="fil0 str1" d="M7935 6826c1,-1 2,0 3,-1"/>
  <path class="fil0 str1" d="M7932 6828c1,-1 2,-1 3,-2"/>
  <line class="fil0 str1" x1="7866" y1="6831" x2="7866" y2= "6812" />
  <path class="fil0 str1" d="M7864 6812c1,-1 0,0 2,0"/>
  <path class="fil0 str1" d="M7857 6826c0,-4 4,-11 7,-14"/>
  <path class="fil0 str1" d="M7859 6834c-2,-4 -2,-3 -2,-8"/>
  <line class="fil0 str1" x1="7884" y1="6820" x2="7859" y2= "6834" />
  <path class="fil0 str1" d="M7876 6817c3,1 5,2 8,3"/>
  <line class="fil0 str1" x1="7866" y1="6812" x2="7876" y2= "6817" />
  <path class="fil0 str1" d="M7901 6835c-3,0 -5,1 -7,1"/>
  <path class="fil0 str1" d="M7903 6834c1,0 1,0 -2,1"/>
  <line class="fil0 str1" x1="7903" y1="6834" x2="7903" y2= "6834" />
  <path class="fil0 str1" d="M7889 6823c1,1 14,9 14,11"/>
  <line class="fil0 str1" x1="7889" y1="6837" x2="7889" y2= "6823" />
  <line class="fil0 str1" x1="7865" y1="6837" x2="7889" y2= "6823" />
  <path class="fil0 str1" d="M7879 6839c-9,0 -7,0 -14,-2"/>
  <path class="fil0 str1" d="M7894 6836c-5,1 -10,2 -15,3"/>
  <path class="fil0 str1" d="M7852 6818c0,0 0,1 -1,2"/>
  <line class="fil0 str1" x1="7855" y1="6813" x2="7852" y2= "6818" />
  <path class="fil0 str1" d="M7859 6809c-1,1 -3,3 -4,4"/>
  <path class="fil0 str1" d="M7854 6808c2,0 4,1 5,1"/>
  <line class="fil0 str1" x1="7854" y1="6815" x2="7854" y2= "6808" />
  <path class="fil0 str1" d="M7841 6805c5,0 9,2 13,3"/>
  <line class="fil0 str1" x1="7841" y1="6810" x2="7841" y2= "6805" />
  <path class="fil0 str1" d="M7850 6826c-6,-4 -11,-17 -9,-21"/>
  <line class="fil0 str1" x1="7851" y1="6822" x2="7850" y2= "6826" />
  <path class="fil0 str1" d="M7851 6820c0,0 0,1 0,2"/>
  <line class="fil0 str1" x1="7908" y1="6848" x2="7908" y2= "6837" />
  <path class="fil0 str1" d="M7900 6840c2,-1 6,-2 8,-3"/>
  <line class="fil0 str1" x1="7900" y1="6847" x2="7900" y2= "6840" />
  <path class="fil0 str1" d="M7878 6843c7,-1 13,-1 22,-3"/>
  <path class="fil0 str1" d="M7916 6848c-9,1 -31,-2 -38,-5"/>
  <path class="fil0 str1" d="M7908 6837c1,2 5,6 8,11"/>
  <line class="fil0 str1" x1="7931" y1="6793" x2="7912" y2= "6804" />
  <line class="fil0 str1" x1="7929" y1="6792" x2="7931" y2= "6793" />
  <path class="fil0 str1" d="M7915 6802c0,0 0,0 0,-1"/>
  <path class="fil0 str1" d="M7915 6781c1,2 11,9 14,11"/>
  <line class="fil0 str1" x1="7915" y1="6801" x2="7915" y2= "6781" />
  <path class="fil0 str1" d="M7915 6801c-2,1 -3,1 -4,2"/>
  <path class="fil0 str1" d="M7892 6792c7,-5 15,-8 23,-11"/>
  <line class="fil0 str1" x1="7912" y1="6804" x2="7892" y2= "6792" />
  <path class="fil0 str1" d="M7967 6791c-1,2 -4,6 -5,8"/>
  <path class="fil0 str1" d="M7967 6782c1,2 0,6 0,9"/>
  <line class="fil0 str1" x1="7967" y1="6790" x2="7967" y2= "6782" />
  <path class="fil0 str1" d="M7965 6779c1,1 1,2 2,3"/>
  <line class="fil0 str1" x1="7965" y1="6794" x2="7965" y2= "6779" />
  <line class="fil0 str1" x1="7941" y1="6793" x2="7965" y2= "6779" />
  <path class="fil0 str1" d="M7950 6798c-3,-2 -7,-4 -9,-5"/>
  <path class="fil0 str1" d="M7959 6802c-1,-1 -7,-4 -9,-4"/>
  <line class="fil0 str1" x1="7960" y1="6800" x2="7959" y2= "6802" />
  <path class="fil0 str1" d="M7962 6799c-1,1 -1,1 -2,1"/>
  <path class="fil0 str1" d="M7924 6779c5,-2 15,-4 21,-4"/>
  <path class="fil0 str1" d="M7924 6782c-4,-3 -4,-2 0,-3"/>
  <path class="fil0 str1" d="M7929 6786c-2,-2 -4,-3 -5,-4"/>
  <path class="fil0 str1" d="M7936 6790c-2,-1 -5,-3 -7,-4"/>
  <line class="fil0 str1" x1="7960" y1="6776" x2="7936" y2= "6790" />
  <path class="fil0 str1" d="M7953 6775c2,0 4,1 7,1"/>
  <path class="fil0 str1" d="M7945 6775c2,0 6,0 8,0"/>
  <path class="fil0 str1" d="M7983 6809c-8,-2 -15,-4 -18,-5"/>
  <path class="fil0 str1" d="M7975 6787c5,4 10,17 8,22"/>
  <line class="fil0 str1" x1="7975" y1="6807" x2="7975" y2= "6787" />
  <path class="fil0 str1" d="M7974 6789c1,0 1,-1 1,-2"/>
  <path class="fil0 str1" d="M7965 6804c4,-3 8,-11 9,-15"/>
  <path class="fil0 str1" d="M7915 6773c-1,0 -2,-1 -3,-2"/>
  <path class="fil0 str1" d="M7917 6776c-1,-1 -2,-2 -2,-3"/>
  <path class="fil0 str1" d="M7939 6771c-5,1 -19,3 -22,5"/>
  <line class="fil0 str1" x1="7946" y1="6770" x2="7939" y2= "6771" />
  <path class="fil0 str1" d="M7909 6766c8,-1 31,1 37,4"/>
  <path class="fil0 str1" d="M7912 6771c-1,-2 -3,-4 -3,-5"/>
  <path class="fil0 str1" d="M7834 6808c-1,23 36,44 77,44"/>
  <path class="fil0 str1" d="M7834 6804c-1,1 0,2 0,4"/>
  <path class="fil0 str1" d="M7834 6802c0,0 0,1 0,2"/>
  <path class="fil0 str1" d="M7838 6792c-2,3 -3,6 -4,10"/>
  <path class="fil0 str1" d="M7860 6773c-11,6 -17,10 -22,19"/>
  <path class="fil0 str1" d="M7914 6761c-19,0 -40,4 -54,12"/>
  <path class="fil0 str1" d="M7991 6806c0,-24 -36,-45 -77,-45"/>
  <line class="fil0 str1" x1="7991" y1="6826" x2="7991" y2= "6806" />
  <line class="fil0 str1" x1="7990" y1="6812" x2="7991" y2= "6806" />
  <line class="fil0 str1" x1="7990" y1="6832" x2="7990" y2= "6812" />
  <path class="fil0 str1" d="M7987 6821c1,-3 3,-6 3,-9"/>
  <path class="fil0 str1" d="M7965 6840c11,-6 17,-10 22,-19"/>
  <path class="fil0 str1" d="M7911 6852c19,0 39,-3 54,-12"/>
  <line class="fil0 str0" x1="8142" y1="7944" x2="8142" y2= "7080" />
  <path class="fil0 str0" d="M9461 7065c0,75 -52,147 -143,200"/>
  <line class="fil0 str0" x1="9318" y1="7265" x2="8142" y2= "7944" />
  <line class="fil0 str1" x1="4404" y1="4837" x2="4404" y2= "4820" />
  <line class="fil0 str1" x1="4369" y1="4810" x2="4369" y2= "4793" />
  <line class="fil0 str1" x1="4154" y1="4641" x2="4154" y2= "4626" />
  <line class="fil0 str1" x1="4048" y1="4582" x2="4048" y2= "4566" />
  <line class="fil0 str1" x1="4285" y1="4605" x2="4285" y2= "4588" />
  <line class="fil0 str1" x1="3964" y1="4578" x2="3964" y2= "4561" />
  <line class="fil0 str1" x1="4638" y1="4809" x2="4638" y2= "4796" />
  <line class="fil0 str1" x1="4433" y1="4853" x2="4433" y2= "4837" />
  <line class="fil0 str1" x1="4457" y1="4737" x2="4457" y2= "4724" />
  <line class="fil0 str1" x1="4298" y1="4767" x2="4298" y2= "4751" />
  <line class="fil0 str1" x1="4187" y1="4702" x2="4187" y2= "4686" />
  <line class="fil0 str1" x1="4375" y1="4659" x2="4375" y2= "4643" />
  <line class="fil0 str1" x1="8044" y1="6921" x2="8044" y2= "6912" />
  <line class="fil0 str1" x1="8047" y1="6907" x2="8047" y2= "6887" />
  <line class="fil0 str1" x1="8070" y1="6903" x2="8070" y2= "6894" />
  <line class="fil0 str1" x1="8111" y1="6916" x2="8111" y2= "6896" />
  <line class="fil0 str1" x1="8122" y1="6930" x2="8122" y2= "6924" />
  <line class="fil0 str1" x1="8081" y1="6940" x2="8081" y2= "6920" />
  <line class="fil0 str1" x1="7742" y1="6721" x2="7742" y2= "6702" />
  <line class="fil0 str1" x1="7797" y1="6701" x2="7797" y2= "6681" />
  <line class="fil0 str1" x1="7994" y1="6923" x2="7994" y2= "6903" />
  <line class="fil0 str1" x1="8172" y1="6931" x2="8172" y2= "6911" />
  <line class="fil0 str1" x1="7752" y1="6694" x2="7752" y2= "6675" />
  <line class="fil0 str1" x1="7668" y1="6729" x2="7668" y2= "6709" />
  <line class="fil0 str1" x1="7834" y1="6828" x2="7834" y2= "6808" />
  <line class="fil0 str1" x1="7834" y1="6825" x2="7834" y2= "6805" />
  <line class="fil0 str1" x1="7991" y1="6825" x2="7991" y2= "6806" />
  <line class="fil0 str0" x1="9461" y1="7065" x2="9461" y2= "6202" />
  <path class="fil0 str0" d="M7288 7573c-5,3 -9,10 -9,15"/>
  <path class="fil0 str0" d="M2938 5082c0,-6 4,-12 8,-15"/>
  <line class="fil0 str0" x1="7279" y1="7588" x2="7277" y2= "7769" />
  <line class="fil0 str0" x1="2937" y1="5143" x2="2938" y2= "5082" />
  <path class="fil0 str0" d="M7277 7769c0,6 -4,12 -9,15"/>
  <line class="fil0 str0" x1="7268" y1="7784" x2="7233" y2= "7804" />
  <path class="fil0 str0" d="M7233 7804c-4,3 -8,1 -8,-5"/>
  <line class="fil0 str0" x1="7225" y1="7799" x2="7222" y2= "7621" />
  <path class="fil0 str0" d="M7222 7621c0,-5 -4,-7 -9,-5"/>
  <path class="fil0 str0" d="M2872 5110c2,-1 4,-2 6,-1"/>
  <path class="fil0 str0" d="M7633 7374c-5,3 -9,10 -9,15"/>
  <path class="fil0 str0" d="M3283 4882c0,-5 4,-12 8,-14"/>
  <line class="fil0 str0" x1="7624" y1="7389" x2="7622" y2= "7570" />
  <line class="fil0 str0" x1="3282" y1="4944" x2="3283" y2= "4882" />
  <path class="fil0 str0" d="M7622 7570c0,6 -4,12 -9,15"/>
  <line class="fil0 str0" x1="7613" y1="7585" x2="7578" y2= "7605" />
  <path class="fil0 str0" d="M7578 7605c-4,3 -8,0 -8,-5"/>
  <line class="fil0 str0" x1="7570" y1="7600" x2="7567" y2= "7422" />
  <path class="fil0 str0" d="M7567 7422c0,-5 -4,-7 -9,-5"/>
  <path class="fil0 str0" d="M3217 4911c2,-2 4,-2 6,-1"/>
  <path class="fil0 str0" d="M8027 7156c0,-5 -4,-7 -9,-4"/>
  <path class="fil0 str0" d="M3677 4645c2,-1 4,-2 6,-1"/>
  <path class="fil0 str0" d="M8093 7109c-5,2 -9,9 -9,14"/>
  <path class="fil0 str0" d="M3743 4617c0,-6 4,-12 8,-15"/>
  <line class="fil0 str0" x1="8084" y1="7123" x2="8082" y2= "7305" />
  <line class="fil0 str0" x1="3742" y1="4678" x2="3743" y2= "4617" />
  <path class="fil0 str0" d="M8082 7305c0,5 -4,12 -9,14"/>
  <line class="fil0 str0" x1="8073" y1="7319" x2="8038" y2= "7339" />
  <path class="fil0 str0" d="M8038 7339c-4,3 -8,1 -8,-5"/>
  <line class="fil0 str0" x1="8030" y1="7334" x2="8027" y2= "7156" />
  <path class="fil0 str0" d="M7518 7441c-5,2 -9,9 -9,14"/>
  <path class="fil0 str0" d="M3168 4949c0,-6 4,-12 8,-15"/>
  <line class="fil0 str0" x1="7509" y1="7455" x2="7507" y2= "7637" />
  <line class="fil0 str0" x1="3167" y1="5010" x2="3168" y2= "4949" />
  <path class="fil0 str0" d="M7507 7637c0,5 -4,12 -9,14"/>
  <line class="fil0 str0" x1="7498" y1="7651" x2="7463" y2= "7671" />
  <path class="fil0 str0" d="M7463 7671c-4,3 -8,1 -8,-5"/>
  <line class="fil0 str0" x1="7455" y1="7666" x2="7452" y2= "7488" />
  <path class="fil0 str0" d="M7452 7488c0,-5 -4,-7 -9,-4"/>
  <path class="fil0 str0" d="M3102 4977c2,-1 4,-2 6,-1"/>
  <path class="fil0 str0" d="M7173 7640c-5,3 -9,9 -9,15"/>
  <path class="fil0 str0" d="M2823 5148c0,-5 4,-12 8,-15"/>
  <line class="fil0 str0" x1="7164" y1="7655" x2="7162" y2= "7836" />
  <line class="fil0 str0" x1="2822" y1="5210" x2="2823" y2= "5148" />
  <path class="fil0 str0" d="M7162 7836c-1,5 -4,12 -9,14"/>
  <line class="fil0 str0" x1="7153" y1="7850" x2="7118" y2= "7870" />
  <path class="fil0 str0" d="M7118 7870c-4,3 -8,1 -8,-4"/>
  <line class="fil0 str0" x1="7110" y1="7866" x2="7107" y2= "7688" />
  <path class="fil0 str0" d="M7107 7688c0,-6 -4,-8 -9,-5"/>
  <path class="fil0 str0" d="M2757 5176c2,-1 4,-1 6,0"/>
  <path class="fil0 str0" d="M7403 7507c-5,3 -9,9 -9,15"/>
  <path class="fil0 str0" d="M3053 5015c0,-5 4,-12 8,-15"/>
  <line class="fil0 str0" x1="7394" y1="7522" x2="7392" y2= "7703" />
  <line class="fil0 str0" x1="3052" y1="5077" x2="3053" y2= "5015" />
  <path class="fil0 str0" d="M7392 7703c0,5 -4,12 -9,15"/>
  <line class="fil0 str0" x1="7383" y1="7718" x2="7348" y2= "7738" />
  <path class="fil0 str0" d="M7348 7738c-4,2 -8,0 -8,-5"/>
  <line class="fil0 str0" x1="7340" y1="7733" x2="7337" y2= "7555" />
  <path class="fil0 str0" d="M7337 7555c0,-6 -4,-8 -9,-5"/>
  <path class="fil0 str0" d="M2987 5043c2,-1 4,-1 6,0"/>
  <path class="fil0 str0" d="M7863 7241c-5,3 -9,10 -9,15"/>
  <path class="fil0 str0" d="M3513 4750c0,-6 4,-12 8,-15"/>
  <line class="fil0 str0" x1="7854" y1="7256" x2="7852" y2= "7437" />
  <line class="fil0 str0" x1="3512" y1="4811" x2="3513" y2= "4750" />
  <path class="fil0 str0" d="M7852 7437c0,6 -4,12 -9,15"/>
  <line class="fil0 str0" x1="7843" y1="7452" x2="7808" y2= "7472" />
  <path class="fil0 str0" d="M7808 7472c-4,3 -8,1 -8,-5"/>
  <line class="fil0 str0" x1="7800" y1="7467" x2="7797" y2= "7289" />
  <path class="fil0 str0" d="M7797 7289c0,-5 -4,-7 -9,-5"/>
  <path class="fil0 str0" d="M3447 4778c2,-1 4,-2 6,-1"/>
  <path class="fil0 str0" d="M7978 7175c-5,3 -9,9 -9,15"/>
  <path class="fil0 str0" d="M3628 4683c0,-5 4,-12 8,-15"/>
  <line class="fil0 str0" x1="7969" y1="7190" x2="7966" y2= "7373" />
  <line class="fil0 str0" x1="3627" y1="4745" x2="3628" y2= "4683" />
  <line class="fil0 str0" x1="7914" y1="7342" x2="7966" y2= "7373" />
  <path class="fil0 str0" d="M7966 7373c0,5 -4,10 -8,13"/>
  <line class="fil0 str0" x1="7958" y1="7386" x2="7923" y2= "7406" />
  <path class="fil0 str0" d="M7923 7406c-4,2 -8,0 -8,-5"/>
  <line class="fil0 str0" x1="7915" y1="7401" x2="7912" y2= "7223" />
  <path class="fil0 str0" d="M7912 7223c0,-6 -4,-8 -9,-5"/>
  <path class="fil0 str0" d="M3562 4711c2,-1 4,-1 6,0"/>
  <path class="fil0 str0" d="M7748 7308c-5,3 -9,9 -9,15"/>
  <path class="fil0 str0" d="M3398 4816c0,-5 4,-12 8,-15"/>
  <line class="fil0 str0" x1="7739" y1="7323" x2="7737" y2= "7504" />
  <line class="fil0 str0" x1="3397" y1="4878" x2="3398" y2= "4816" />
  <path class="fil0 str0" d="M7737 7504c0,5 -4,12 -9,14"/>
  <line class="fil0 str0" x1="7728" y1="7518" x2="7693" y2= "7538" />
  <path class="fil0 str0" d="M7693 7538c-4,3 -8,1 -8,-4"/>
  <line class="fil0 str0" x1="7685" y1="7534" x2="7682" y2= "7356" />
  <path class="fil0 str0" d="M7682 7356c0,-6 -4,-8 -9,-5"/>
  <path class="fil0 str0" d="M3332 4844c2,-1 4,-1 6,0"/>
  <path class="fil0 str0" d="M7058 7706c-5,3 -9,10 -9,15"/>
  <path class="fil0 str0" d="M2708 5214c0,-5 4,-12 8,-14"/>
  <line class="fil0 str0" x1="7049" y1="7721" x2="7047" y2= "7902" />
  <line class="fil0 str0" x1="2707" y1="5276" x2="2708" y2= "5214" />
  <path class="fil0 str0" d="M7047 7902c-1,6 -4,12 -9,15"/>
  <line class="fil0 str0" x1="7038" y1="7917" x2="7003" y2= "7937" />
  <path class="fil0 str0" d="M7003 7937c-4,3 -8,0 -8,-5"/>
  <line class="fil0 str0" x1="6995" y1="7932" x2="6992" y2= "7754" />
  <path class="fil0 str0" d="M6992 7754c0,-5 -4,-7 -9,-5"/>
  <path class="fil0 str0" d="M2642 5243c2,-2 4,-2 6,-1"/>
  <line class="fil0 str0" x1="2642" y1="5243" x2="2593" y2= "5271" />
  <path class="fil0 str0" d="M2593 5271c-191,110 -191,288 0,398"/>
  <line class="fil0 str0" x1="2593" y1="5669" x2="6244" y2= "7778" />
  <path class="fil0 str0" d="M6244 7778c92,52 216,82 345,82 130,0 254,-30 345,-82"/>
  <line class="fil0 str0" x1="6934" y1="7778" x2="6983" y2= "7749" />
  <line class="fil0 str0" x1="3677" y1="4645" x2="3636" y2= "4668" />
  <line class="fil0 str0" x1="7978" y1="7175" x2="8018" y2= "7152" />
  <line class="fil0 str0" x1="7863" y1="7241" x2="7903" y2= "7218" />
  <line class="fil0 str0" x1="3562" y1="4711" x2="3521" y2= "4735" />
  <line class="fil0 str0" x1="3447" y1="4778" x2="3406" y2= "4801" />
  <line class="fil0 str0" x1="7748" y1="7308" x2="7788" y2= "7284" />
  <line class="fil0 str0" x1="2757" y1="5176" x2="2716" y2= "5200" />
  <line class="fil0 str0" x1="7058" y1="7706" x2="7098" y2= "7683" />
  <line class="fil0 str0" x1="3102" y1="4977" x2="3061" y2= "5000" />
  <line class="fil0 str0" x1="7403" y1="7507" x2="7443" y2= "7484" />
  <line class="fil0 str0" x1="8093" y1="7109" x2="8142" y2= "7080" />
  <line class="fil0 str0" x1="8142" y1="7080" x2="3800" y2= "4574" />
  <line class="fil0 str0" x1="3800" y1="4574" x2="3751" y2= "4602" />
  <line class="fil0 str0" x1="7633" y1="7374" x2="7673" y2= "7351" />
  <line class="fil0 str0" x1="3332" y1="4844" x2="3291" y2= "4868" />
  <line class="fil0 str0" x1="3217" y1="4911" x2="3176" y2= "4934" />
  <line class="fil0 str0" x1="7518" y1="7441" x2="7558" y2= "7417" />
  <line class="fil0 str0" x1="7288" y1="7573" x2="7328" y2= "7550" />
  <line class="fil0 str0" x1="2987" y1="5043" x2="2946" y2= "5067" />
  <line class="fil0 str0" x1="2872" y1="5110" x2="2831" y2= "5133" />
  <line class="fil0 str0" x1="7173" y1="7640" x2="7213" y2= "7616" />
  <line class="fil0 str0" x1="8142" y1="7944" x2="8142" y2= "7080" />
  <line class="fil0 str0" x1="6934" y1="8641" x2="8142" y2= "7944" />
  <path class="fil0 str0" d="M6934 8641c-91,53 -215,82 -345,82 -129,0 -253,-29 -345,-82"/>
  <line class="fil0 str0" x1="2593" y1="6533" x2="6244" y2= "8641" />
  <path class="fil0 str0" d="M2593 6533c-92,-53 -143,-125 -143,-200"/>
  <line class="fil0 str0" x1="2878" y1="5109" x2="7219" y2= "7616" />
  <line class="fil0 str0" x1="3223" y1="4910" x2="7564" y2= "7417" />
  <line class="fil0 str0" x1="3683" y1="4644" x2="8024" y2= "7151" />
  <line class="fil0 str0" x1="3108" y1="4976" x2="7449" y2= "7483" />
  <line class="fil0 str0" x1="2763" y1="5176" x2="7104" y2= "7682" />
  <line class="fil0 str0" x1="2993" y1="5043" x2="7334" y2= "7549" />
  <line class="fil0 str0" x1="3453" y1="4777" x2="7794" y2= "7284" />
  <line class="fil0 str0" x1="3568" y1="4711" x2="7909" y2= "7217" />
  <line class="fil0 str0" x1="3338" y1="4844" x2="7679" y2= "7350" />
  <line class="fil0 str0" x1="2648" y1="5242" x2="6989" y2= "7749" />
  <line class="fil0 str0" x1="2450" y1="6333" x2="2450" y2= "5470" />
 </g>
</svg>
