<svg width="93" height="94" viewBox="0 0 93 94" fill="none" xmlns="http://www.w3.org/2000/svg">
<path fill-rule="evenodd" clip-rule="evenodd" d="M13.4319 13.0507H79.5681C80.1204 13.0507 80.5681 13.4984 80.5681 14.0507V79.7108L47.8771 77.5728V81.4071H45.123V77.5728L12.4319 79.7108V14.0507C12.4319 13.4984 12.8796 13.0507 13.4319 13.0507ZM10.4319 14.0507C10.4319 12.3938 11.775 11.0507 13.4319 11.0507H79.5681C81.225 11.0507 82.5681 12.3938 82.5681 14.0507V80.1869C82.5681 81.8437 81.225 83.1869 79.5681 83.1869H13.4319C11.775 83.1869 10.4319 81.8437 10.4319 80.1869V14.0507Z" fill="currentColor"/>
<g opacity="0.4">
<path class="cls-1" d="M111.58.13a111.94,111.94,0,0,1,14.74,1,101.73,101.73,0,1,0,86.13,158.67A111.68,111.68,0,1,1,111.58.13Z" transform="translate(0.09 -0.13)"/>
<path class="cls-1" d="M126.72,9.59A94.15,94.15,0,0,0,44.23,58.32a89,89,0,1,1,77.83,139.49c1.54.08,3.1.12,4.66.12a94.17,94.17,0,0,0,0-188.34Z" transform="translate(0.09 -0.13)"/>
<path class="cls-1" d="M110.4,42.19a69.62,69.62,0,0,0-69.62,69.62C49.19,80,82.41,54.87,118.53,54.87s51.56,34.74,51.56,34.74c-11.71,13.37-33.22,11.93-33.22,11.93-14.82-15.72,2.69-33.92,2.69-33.92-22.47,13.1-8.27,33.77-8.27,33.77a255.19,255.19,0,0,0-33.92-3c-19.16-.41-22,10.14-22,10.14s5.1-7.18,22.2-7.18,22.61,7.18,43.42,7.18,36.69-14.29,36.77-14.36A69.64,69.64,0,0,0,110.4,42.19Z" transform="translate(0.09 -0.13)"/>
<path class="cls-1" d="M146.52,75.34a5.76,5.76,0,1,0,5.76,5.76A5.75,5.75,0,0,0,146.52,75.34Z" transform="translate(0.09 -0.13)"/>
<path class="cls-1" d="M110.4,181.43A69.62,69.62,0,0,0,180,111.81c-8.41,31.84-41.64,56.93-77.76,56.93S50.7,134,50.7,134c11.72-13.37,33.23-11.92,33.23-11.92C98.75,137.79,81.24,156,81.24,156c22.47-13.1,8.27-33.77,8.27-33.77a255,255,0,0,0,33.92,3c19.16.41,22-10.14,22-10.14s-5.11,7.18-22.2,7.18S100.61,115,79.79,115,43.11,129.33,43,129.4A69.66,69.66,0,0,0,110.4,181.43Z" transform="translate(0.09 -0.13)"/>
<path class="cls-1" d="M74.28,148.27a5.76,5.76,0,1,0-5.76-5.76A5.75,5.75,0,0,0,74.28,148.27Z" transform="translate(0.09 -0.13)"/>
</g>
</svg>