<?xml version="1.0" encoding="utf-8"?>
<!-- Generator: Adobe Illustrator 25.0.1, SVG Export Plug-In . SVG Version: 6.00 Build 0)  -->
<svg version="1.1" id="图层_1" xmlns="http://www.w3.org/2000/svg" xmlns:xlink="http://www.w3.org/1999/xlink" x="0px" y="0px"
	 viewBox="0 0 91.23 108.07" style="enable-background:new 0 0 91.23 108.07;" xml:space="preserve">
<style type="text/css">
	.st0{fill:none;stroke:#181818;stroke-width:0.5;stroke-miterlimit:10;}
	.st1{fill:none;stroke:#181818;stroke-width:0.7076;stroke-miterlimit:10;}
	.st2{fill:#181818;}
	.st3{fill:none;stroke:#181818;stroke-width:0.5147;stroke-miterlimit:10;}
	.st4{fill:none;stroke:#181818;stroke-width:0.8041;stroke-miterlimit:10;}
	.st5{fill:none;stroke:#181818;stroke-width:0.4503;stroke-miterlimit:10;}
	.st6{fill:none;stroke:#181818;stroke-width:0.1608;stroke-miterlimit:10;}
	.st7{fill:#4B7E90;}
	.st8{fill:url(#SVGID_1_);}
	.st9{fill:url(#SVGID_2_);}
	.st10{fill:url(#SVGID_3_);}
	.st11{fill:url(#SVGID_4_);}
	.st12{fill:url(#SVGID_5_);}
	.st13{fill:url(#SVGID_6_);}
	.st14{fill:#FFFFFF;}
</style>
<line class="st0" x1="45.47" y1="7.68" x2="37.39" y2="7.68"/>
<path class="st0" d="M45.47,9.69h-8.08V4.11c0-0.53,0.43-0.96,0.96-0.96h6.15c0.53,0,0.96,0.43,0.96,0.96V9.69z"/>
<path class="st0" d="M52.69,101.97h8.08v4.43c0,0.53-0.43,0.96-0.96,0.96h-6.15c-0.53,0-0.96-0.43-0.96-0.96V101.97z"/>
<line class="st0" x1="30.98" y1="7.68" x2="22.9" y2="7.68"/>
<path class="st0" d="M30.98,9.69H22.9V4.11c0-0.53,0.43-0.96,0.96-0.96h6.15c0.53,0,0.96,0.43,0.96,0.96V9.69z"/>
<path class="st0" d="M71.66,100.84H14.02c-2.12,0-3.86-1.74-3.86-3.86v-83.4c0-2.12,1.74-3.86,3.86-3.86h57.64
	c2.12,0,3.86,1.74,3.86,3.86v83.4C75.52,99.1,73.78,100.84,71.66,100.84z"/>
<path class="st0" d="M75.52,85.09h3.77c1.1,0,2.16,0.34,2.94,0.96c1.09,0.85,2.09,1.78,2.46,3.38c0.48,2.04,0,3.76-2.9,4.19
	c-1.92,0.29-2.85-0.54-3.24-1.09c-0.2-0.28-0.58-0.45-0.98-0.45l-2.06,0.03V85.09z"/>
<path class="st0" d="M10.16,84.39c0,0-2.61,0-2.61,0c-1.84,0-3.12,1.35-4.08,2.78c-1.12,1.67-2.28,3.52-2.53,5.54
	c-0.18,1.46,0.56,2.81,1.97,3.31c1.39,0.49,3.27,0.12,4.12-1.16c0.14-0.21,0.26-0.45,0.46-0.6c0.21-0.15,2.67-0.23,2.67-0.13
	C10.16,94.12,10.16,84.39,10.16,84.39z"/>
<rect x="72.17" y="29.97" class="st0" width="15.86" height="2.83"/>
<rect x="75.49" y="32.82" class="st0" width="12.53" height="3.42"/>
<rect x="81.34" y="36.25" class="st0" width="3.54" height="2.83"/>
<rect x="75.49" y="72.55" class="st0" width="13.07" height="2.83"/>
<rect x="72.7" y="75.39" class="st0" width="15.86" height="3.42"/>
<rect x="81.88" y="78.83" class="st0" width="3.54" height="2.83"/>
<path class="st0" d="M7.77,72.78c-0.29-1.23-0.12-2.52,0.45-3.64c0.4-0.78,0.64-1.61-0.02-1.74c-1.31-0.27-3.1,3.39-3.12,3.81
	c-0.02,0.43-0.82,5.79-0.77,8.29c0.05,2.5,1.24,2.57,2.15,2.91s3.7,0,3.7,0v-7.82H8.19C8.19,74.59,7.99,73.71,7.77,72.78z"/>
<path class="st0" d="M8.34,35.58c0.02,0-0.56,0.95-0.64,1.04c-1.28,1.33-3.6-0.03-3.98-1.53c-0.37-1.47,0.09-3.09,0.56-4.48
	c0.46-1.38,1.17-2.78,1.43-4.21c0-0.02,0.01-0.03,0.01-0.05c0.09-0.72-1.19-1.17-1.69-1.37c-0.9-0.36-1.66-0.76-2.2-1.61
	c-1.74-2.73,0.62-6.22,3.7-6.17c1.48,0.02,2.95,0,4.43,0c0.07,0,0.15,0,0.22,0v18.26C10.16,35.46,8.34,35.58,8.34,35.58z"/>
<rect x="15.77" y="100.87" class="st0" width="51.2" height="1.13"/>
<path class="st0" d="M75.51,24.78v-8.08h6.07c1.34,0,2.42,1.08,2.42,2.42v3.24c0,1.34-1.08,2.42-2.42,2.42H75.51z"/>
<circle class="st1" cx="80.49" cy="20.73" r="1.71"/>
<g>
	<path class="st2" d="M79.58,20.72c0.3-0.13,0.61-0.14,0.91-0.16c0.3,0.02,0.61,0.03,0.91,0.16c-0.3,0.13-0.61,0.14-0.91,0.16
		C80.18,20.86,79.88,20.85,79.58,20.72z"/>
</g>
<g>
	<path class="st2" d="M80.5,19.8c0.13,0.31,0.14,0.61,0.16,0.92c-0.02,0.31-0.03,0.61-0.16,0.92c-0.13-0.31-0.14-0.61-0.16-0.92
		C80.36,20.41,80.37,20.11,80.5,19.8z"/>
</g>
<circle class="st3" cx="81.43" cy="89.98" r="2.17"/>
<g>
	<path class="st2" d="M80.27,89.97c0.38-0.13,0.77-0.14,1.15-0.16c0.38,0.02,0.77,0.03,1.15,0.16c-0.38,0.13-0.77,0.14-1.15,0.16
		C81.04,90.11,80.66,90.1,80.27,89.97z"/>
</g>
<g>
	<path class="st2" d="M81.44,88.81c0.13,0.39,0.14,0.78,0.16,1.16c-0.02,0.39-0.03,0.78-0.16,1.16c-0.13-0.39-0.14-0.78-0.16-1.16
		C81.3,89.58,81.31,89.2,81.44,88.81z"/>
</g>
<circle class="st3" cx="4.31" cy="92.72" r="2.17"/>
<g>
	<path class="st2" d="M3.16,92.71c0.38-0.13,0.77-0.14,1.15-0.16c0.38,0.02,0.77,0.03,1.15,0.16c-0.38,0.13-0.77,0.14-1.15,0.16
		C3.92,92.85,3.54,92.84,3.16,92.71z"/>
</g>
<g>
	<path class="st2" d="M4.32,91.54c0.13,0.39,0.14,0.78,0.16,1.16c-0.02,0.39-0.03,0.78-0.16,1.16c-0.13-0.39-0.14-0.78-0.16-1.16
		C4.18,92.32,4.19,91.93,4.32,91.54z"/>
</g>
<g>
	<circle class="st4" cx="4.31" cy="21.29" r="1.9"/>
</g>
<path class="st5" d="M4.83,19.98H3.79c-0.14,0-0.27,0.08-0.34,0.2l-0.52,0.9c-0.07,0.12-0.07,0.27,0,0.4l0.52,0.9
	c0.07,0.12,0.2,0.2,0.34,0.2h1.04c0.14,0,0.27-0.08,0.34-0.2l0.52-0.9c0.07-0.12,0.07-0.27,0-0.4l-0.52-0.9
	C5.1,20.05,4.97,19.98,4.83,19.98z"/>
<g>
	<rect x="22.9" y="5.02" class="st2" width="8.1" height="0.86"/>
	<rect x="37.39" y="5.02" class="st2" width="8.1" height="0.86"/>
	<rect x="52.69" y="104.25" class="st2" width="8.1" height="0.86"/>
</g>
<line class="st0" x1="13.27" y1="88.63" x2="73.62" y2="88.63"/>
<path class="st0" d="M73.59,17.39v0.43H13.22v-0.43c0-0.15,0.12-0.27,0.27-0.27h59.84c0.02,0,0.05,0,0.07,0.01
	C73.5,17.16,73.59,17.26,73.59,17.39z"/>
<path class="st0" d="M73.59,25.6v0.43H13.22V25.6c0-0.15,0.12-0.27,0.27-0.27h59.84c0.04,0,0.08,0.01,0.11,0.02
	C73.52,25.4,73.59,25.49,73.59,25.6z"/>
<path class="st0" d="M73.59,34.45v0.43H13.22v-0.43c0-0.15,0.12-0.27,0.27-0.27h59.84C73.47,34.19,73.59,34.31,73.59,34.45z"/>
<path class="st0" d="M73.64,80.02v0.43H13.27v-0.43c0-0.15,0.12-0.27,0.27-0.27h59.84C73.52,79.75,73.64,79.87,73.64,80.02z"/>
<path class="st0" d="M30.98,71.11v0.43H13.27v-0.43c0-0.09,0.04-0.16,0.1-0.21c0.05-0.04,0.1-0.06,0.17-0.06h17.17
	c0.09,0,0.17,0.04,0.21,0.11C30.96,70.99,30.98,71.05,30.98,71.11z"/>
<path class="st0" d="M30.98,61.39v0.43H13.27v-0.43c0-0.08,0.04-0.16,0.1-0.21c0.05-0.04,0.11-0.06,0.17-0.06h17.17
	c0.09,0,0.16,0.04,0.21,0.1C30.96,61.28,30.98,61.33,30.98,61.39z"/>
<path class="st0" d="M30.98,52.59v0.43H13.27v-0.43c0-0.15,0.12-0.27,0.27-0.27h17.17C30.86,52.33,30.98,52.45,30.98,52.59z"/>
<path class="st0" d="M30.98,43.47v0.43H13.27v-0.43c0-0.15,0.12-0.27,0.27-0.27h17.17c0.07,0,0.13,0.02,0.18,0.07
	C30.94,43.32,30.98,43.39,30.98,43.47z"/>
<path class="st0" d="M73.59,71.11v0.43h-8.24v-0.43c0-0.13,0.1-0.24,0.23-0.26c0.01,0,0.03,0,0.04,0h7.7c0.08,0,0.16,0.04,0.21,0.1
	C73.57,70.98,73.59,71.04,73.59,71.11z"/>
<path class="st0" d="M73.59,61.39v0.43h-8.24v-0.43c0-0.13,0.1-0.24,0.22-0.26c0.02,0,0.03,0,0.05,0h7.7c0.08,0,0.16,0.04,0.2,0.09
	C73.57,61.27,73.59,61.33,73.59,61.39z"/>
<path class="st0" d="M73.59,52.59v0.43h-8.24v-0.43c0-0.15,0.12-0.27,0.27-0.27h7.7C73.47,52.33,73.59,52.45,73.59,52.59z"/>
<path class="st0" d="M73.59,43.47v0.43h-8.24v-0.43c0-0.11,0.07-0.21,0.16-0.25c0.03-0.01,0.07-0.02,0.1-0.02h7.7
	c0.06,0,0.12,0.02,0.17,0.06C73.55,43.31,73.59,43.39,73.59,43.47z"/>
<path class="st0" d="M73.64,88.23v0.43H13.27v-0.43c0-0.15,0.12-0.27,0.27-0.27h59.84c0.01,0,0.01,0,0.02,0
	C73.53,87.97,73.64,88.09,73.64,88.23z"/>
<path class="st0" d="M73.64,97.08v0.43H13.27v-0.43c0-0.15,0.12-0.27,0.27-0.27h59.84c0.13,0,0.25,0.1,0.26,0.23
	C73.64,97.05,73.64,97.07,73.64,97.08z"/>
<path class="st6" d="M63.49,76.2H32.9c-0.36,0-0.64-0.29-0.64-0.64V38.15c0-0.36,0.29-0.64,0.64-0.64h30.59
	c0.36,0,0.64,0.29,0.64,0.64v37.41C64.13,75.91,63.84,76.2,63.49,76.2z"/>
<path class="st7" d="M62.31,47.09H34.08c-0.36,0-0.64-0.29-0.64-0.64v-6.71c0-0.36,0.29-0.64,0.64-0.64h28.23
	c0.36,0,0.64,0.29,0.64,0.64v6.71C62.95,46.8,62.66,47.09,62.31,47.09z"/>
<g>
	<g>
		<g>
			<linearGradient id="SVGID_1_" gradientUnits="userSpaceOnUse" x1="36.4004" y1="43.0928" x2="41.6181" y2="43.0928">
				<stop  offset="0" style="stop-color:#2DFF8C"/>
				<stop  offset="1" style="stop-color:#00FFC9"/>
			</linearGradient>
			<path class="st8" d="M40.07,45.38c-0.63,0.11-1.22,0-1.77-0.32c-0.92-0.54-1.4-1.62-1.19-2.71c0.19-0.98,1.02-1.93,2.34-2.04
				c-1.46-0.13-2.76,0.85-3.01,2.29c-0.27,1.56,0.74,2.92,2.16,3.23c1.45,0.31,2.63-0.55,3.02-1.36
				C41.21,44.95,40.7,45.27,40.07,45.38z"/>
			<linearGradient id="SVGID_2_" gradientUnits="userSpaceOnUse" x1="37.6563" y1="42.8795" x2="41.9389" y2="42.8795">
				<stop  offset="0" style="stop-color:#2DFF8C"/>
				<stop  offset="1" style="stop-color:#00FFC9"/>
			</linearGradient>
			<path class="st9" d="M40.07,40.58c-0.47-0.1-0.92-0.06-1.37,0.12c-0.44,0.17-0.99,0.62-1.05,0.85c0.77-0.84,1.84-0.93,2.63-0.56
				c0.87,0.4,1.37,1.28,1.28,2.26c-0.07,0.82-0.7,1.77-1.87,1.99c0.89,0,2-0.69,2.21-1.96C42.11,42.02,41.31,40.85,40.07,40.58z"/>
			<linearGradient id="SVGID_3_" gradientUnits="userSpaceOnUse" x1="37.4915" y1="44.0004" x2="40.9121" y2="44.0004">
				<stop  offset="0" style="stop-color:#2DFF8C"/>
				<stop  offset="1" style="stop-color:#00FFC9"/>
			</linearGradient>
			<path class="st10" d="M39.68,43.41c0.13,0,0.24-0.06,0.32-0.17c-0.18,0.1-0.38,0.14-0.58,0.12c-0.15-0.02-0.31-0.05-0.46-0.09
				c-0.51-0.15-0.99-0.1-1.43,0.23c-0.05,0.04-0.06,0.07-0.04,0.12c0.09,0.18,0.16,0.37,0.27,0.53c0.73,0.97,2.19,0.92,2.86-0.1
				c0.17-0.26,0.26-0.55,0.28-0.87c-0.01,0.01-0.02,0.01-0.02,0.02c-0.15,0.45-0.45,0.79-0.86,1.03c-0.38,0.23-0.8,0.34-1.24,0.29
				c-0.49-0.06-0.83-0.36-1.08-0.78c-0.04-0.07-0.03-0.11,0.03-0.16c0.17-0.14,0.38-0.2,0.6-0.22c0.18-0.02,0.25,0.03,0.29,0.21
				c0.01,0.05,0.02,0.1,0.02,0.15c0.01,0.17-0.08,0.3-0.16,0.44c0.3-0.21,0.31-0.48,0.16-0.79c0.14,0.02,0.27,0.03,0.39,0.04
				C39.26,43.4,39.47,43.41,39.68,43.41z"/>
			<linearGradient id="SVGID_4_" gradientUnits="userSpaceOnUse" x1="37.447" y1="42.1765" x2="40.8483" y2="42.1765">
				<stop  offset="0" style="stop-color:#2DFF8C"/>
				<stop  offset="1" style="stop-color:#00FFC9"/>
			</linearGradient>
			<path class="st11" d="M40.75,42.36c-0.3-0.59-0.77-0.95-1.43-1c-0.69-0.06-1.24,0.22-1.62,0.8c-0.17,0.25-0.26,0.54-0.25,0.84
				c0.02-0.05,0.04-0.09,0.06-0.14c0.26-0.56,0.69-0.92,1.27-1.1c0.78-0.25,1.47,0.01,1.85,0.7c0.04,0.07,0.03,0.11-0.03,0.16
				c-0.16,0.13-0.35,0.19-0.56,0.22c-0.21,0.03-0.29-0.02-0.34-0.23c-0.02-0.07-0.02-0.15,0-0.22c0.03-0.12,0.09-0.23,0.13-0.35
				c-0.07,0.07-0.15,0.14-0.19,0.23c-0.1,0.19-0.04,0.37,0.05,0.56c-0.2-0.02-0.39-0.04-0.58-0.05c-0.16-0.01-0.32-0.01-0.48,0.01
				c-0.14,0.01-0.24,0.09-0.29,0.18c0.14-0.09,0.29-0.12,0.45-0.13c0.23-0.02,0.44,0.05,0.65,0.11c0.47,0.14,0.91,0.08,1.32-0.2
				c0.11-0.08,0.12-0.08,0.07-0.22C40.8,42.46,40.78,42.41,40.75,42.36z"/>
			<linearGradient id="SVGID_5_" gradientUnits="userSpaceOnUse" x1="38.124" y1="43.8597" x2="38.4039" y2="43.8597">
				<stop  offset="0" style="stop-color:#2DFF8C"/>
				<stop  offset="1" style="stop-color:#00FFC9"/>
			</linearGradient>
			<path class="st12" d="M38.27,43.72c-0.08,0-0.14,0.07-0.14,0.15c0,0.08,0.07,0.13,0.14,0.13c0.08,0,0.14-0.06,0.14-0.14
				C38.4,43.78,38.35,43.72,38.27,43.72z"/>
			<linearGradient id="SVGID_6_" gradientUnits="userSpaceOnUse" x1="39.9358" y1="42.3191" x2="40.217" y2="42.3191">
				<stop  offset="0" style="stop-color:#2DFF8C"/>
				<stop  offset="1" style="stop-color:#00FFC9"/>
			</linearGradient>
			<path class="st13" d="M40.22,42.33c0-0.08-0.06-0.14-0.13-0.15c-0.08,0-0.15,0.06-0.15,0.14c0,0.08,0.06,0.14,0.14,0.14
				C40.15,42.46,40.21,42.4,40.22,42.33z"/>
		</g>
	</g>
	<g>
		<path class="st14" d="M49.68,42.83c-0.24-0.01-0.48-0.01-0.72-0.01c-0.1,0-0.21-0.01-0.31-0.04c-0.13-0.03-0.19-0.12-0.2-0.25
			c-0.01-0.22,0.08-0.33,0.3-0.33c0.46-0.01,0.92-0.01,1.38-0.01c0.05,0,0.11,0,0.17,0c0-0.18,0-0.34,0-0.51
			c-0.01-0.01-0.02-0.01-0.03-0.01c-0.6,0-1.19,0-1.79,0.02c-0.33,0.01-0.56,0.2-0.67,0.52c-0.19,0.54,0.1,1.04,0.67,1.11
			c0.24,0.03,0.49,0.01,0.73,0.02c0.1,0,0.2,0,0.3,0.02c0.14,0.03,0.23,0.12,0.26,0.26c0.04,0.22-0.09,0.38-0.34,0.39
			c-0.46,0.02-0.92,0.01-1.38,0.02c-0.05,0-0.09,0-0.15,0c0,0.18,0,0.34,0,0.51c0.02,0,0.03,0.01,0.04,0.01c0.57,0,1.14,0,1.7-0.01
			c0.49-0.01,0.79-0.31,0.8-0.8C50.48,43.18,50.23,42.86,49.68,42.83z"/>
		<path class="st14" d="M59.96,43.44c-0.08-0.37-0.27-0.55-0.64-0.6c-0.26-0.03-0.53-0.02-0.79-0.03c-0.1,0-0.21-0.01-0.31-0.03
			c-0.19-0.04-0.26-0.14-0.25-0.34c0.01-0.17,0.09-0.24,0.29-0.26c0.03,0,0.07-0.01,0.1-0.01c0.45,0,0.9,0,1.35-0.01
			c0.04,0,0.07,0,0.12,0c0-0.17,0-0.34,0-0.51c-0.02-0.01-0.03-0.01-0.04-0.01c-0.59,0-1.18,0-1.77,0.02c-0.14,0-0.29,0.06-0.4,0.14
			c-0.27,0.17-0.39,0.56-0.31,0.9c0.08,0.33,0.3,0.54,0.65,0.58c0.25,0.03,0.51,0.02,0.76,0.03c0.1,0,0.2,0,0.3,0.02
			c0.11,0.02,0.2,0.08,0.25,0.19c0.09,0.24-0.04,0.45-0.3,0.46c-0.46,0.02-0.93,0.01-1.39,0.02c-0.05,0-0.09,0-0.14,0
			c0,0.18,0,0.34,0,0.5c0.02,0,0.03,0.01,0.04,0.01c0.59,0,1.18,0,1.78-0.01c0.16,0,0.31-0.05,0.43-0.15
			C59.96,44.12,60.03,43.8,59.96,43.44z"/>
		<path class="st14" d="M56.45,41.65c-0.37,0-0.74,0-1.12,0.01c-0.41,0.01-0.71,0.2-0.9,0.55c-0.32,0.59-0.3,1.2,0,1.79
			c0.15,0.3,0.42,0.47,0.75,0.49c0.44,0.03,0.87,0.02,1.31,0.03c0.01,0,0.01-0.01,0.02-0.01c0-0.16,0-0.32,0-0.49
			c-0.02,0-0.03-0.01-0.04-0.01c-0.2,0-0.39,0-0.59,0c-0.17-0.01-0.35-0.01-0.51-0.04c-0.3-0.06-0.47-0.29-0.45-0.61
			c0.53,0,1.06,0,1.59,0c0-0.18,0-0.34,0-0.52c-0.54,0-1.06,0-1.59,0c-0.01-0.38,0.16-0.66,0.58-0.66c0.15,0,0.3-0.01,0.45-0.01
			c0.19,0,0.37,0,0.57,0c0-0.16,0-0.32,0-0.47C56.52,41.69,56.47,41.65,56.45,41.65z"/>
		<path class="st14" d="M52.24,41.68c-0.56,0.05-0.87,0.34-0.99,0.9c-0.05,0.25-0.05,0.51-0.05,0.76c0,0.12,0.03,0.25,0.06,0.37
			c0.13,0.5,0.47,0.79,0.99,0.82c0.41,0.02,0.82,0.01,1.23,0.01c0.01,0,0.03,0,0.04-0.01c0-0.17,0-0.33,0-0.5c-0.05,0-0.09,0-0.13,0
			c-0.31,0-0.62,0-0.93-0.02c-0.31-0.02-0.49-0.18-0.54-0.49c-0.04-0.23-0.05-0.46-0.04-0.69c0.04-0.47,0.24-0.64,0.72-0.65
			c0.27,0,0.53,0,0.8,0c0.04,0,0.08,0,0.12-0.01c0-0.17,0-0.34,0-0.5C53.08,41.67,52.66,41.64,52.24,41.68z"/>
		<path class="st14" d="M46.31,44.53c0.2,0,0.4,0,0.6,0c0-0.96,0-1.91,0-2.86c-0.2,0-0.4,0-0.6,0
			C46.31,42.62,46.31,43.57,46.31,44.53z"/>
		<path class="st14" d="M44.6,41.66c-0.54,0-1.07-0.01-1.61-0.01c-0.02,0-0.03,0.01-0.05,0.01c0,0.95,0,1.9,0,2.86
			c0.21,0,0.4,0,0.61,0c0-0.33,0-0.66,0-1c0.05,0,0.09,0,0.13,0c0.37-0.01,0.74-0.01,1.11-0.02c0.17-0.01,0.31-0.08,0.43-0.2
			c0.29-0.31,0.35-0.68,0.21-1.07C45.29,41.85,45,41.67,44.6,41.66z M44.81,42.6c0,0.06-0.01,0.12-0.03,0.17
			c-0.04,0.15-0.13,0.23-0.3,0.23c-0.31,0.01-0.62,0-0.94,0c0-0.28,0-0.54,0-0.82c0.03,0,0.06-0.01,0.1-0.01c0.26,0,0.52,0,0.77,0
			C44.71,42.18,44.82,42.31,44.81,42.6z"/>
	</g>
</g>
<g>
	<path d="M33.81,50.6h2.21c1.3,0,1.48,0.6,1.48,1.58c0,0.89-0.14,1.58-1.48,1.58h-1.03v1.51h-1.17V50.6z M35.54,52.84
		c0.71,0,0.77-0.1,0.77-0.66c0-0.56-0.07-0.65-0.77-0.65h-0.55v1.31H35.54z"/>
	<path d="M38.7,51.78l-0.87,0.37v-0.92l1.24-0.62h0.81v4.67H38.7V51.78z"/>
	<path d="M40.75,52.94c0-2,0.12-2.39,1.86-2.39s1.86,0.39,1.86,2.39c0,2-0.12,2.39-1.86,2.39S40.75,54.94,40.75,52.94z M43.29,52.94
		c0-1.45-0.02-1.49-0.69-1.49s-0.69,0.03-0.69,1.49s0.02,1.49,0.69,1.49S43.29,54.39,43.29,52.94z"/>
	<path d="M45.21,52.94c0-2,0.12-2.39,1.86-2.39s1.86,0.39,1.86,2.39c0,2-0.12,2.39-1.86,2.39S45.21,54.94,45.21,52.94z M47.76,52.94
		c0-1.45-0.02-1.49-0.69-1.49s-0.69,0.03-0.69,1.49s0.02,1.49,0.69,1.49S47.76,54.39,47.76,52.94z"/>
</g>
<g>
	<path d="M33.93,57.63h0.77v1.98h2.17v-1.98h0.76v4.67h-0.76v-2.02H34.7v2.02h-0.77V57.63z"/>
	<path d="M38.66,60.57c0-1.41,0.09-1.78,1.56-1.78s1.56,0.37,1.56,1.78c0,1.41-0.09,1.79-1.56,1.79S38.66,61.98,38.66,60.57z
		 M41.04,60.57c0-1.04,0-1.17-0.83-1.17s-0.83,0.14-0.83,1.17c0,1.05,0,1.19,0.83,1.19S41.04,61.61,41.04,60.57z"/>
	<path d="M42.98,59.45h-0.69v-0.6h0.69v-1h0.72v1h0.81v0.6H43.7v2.86h-0.72V59.45z"/>
	<path d="M45.13,62.26v-0.57c0.31,0.03,0.81,0.06,1.2,0.06c0.65,0,0.71-0.12,0.71-0.43c0-0.35-0.06-0.37-0.4-0.41l-0.84-0.1
		c-0.65-0.07-0.77-0.39-0.77-0.98c0-0.92,0.56-1.03,1.38-1.03c0.38,0,0.86,0.05,1.13,0.1v0.57c-0.33-0.04-0.75-0.07-1.08-0.07
		c-0.52,0-0.74,0.03-0.74,0.42c0,0.31,0.05,0.36,0.37,0.39l0.92,0.11c0.5,0.06,0.73,0.19,0.73,0.99c0,0.91-0.47,1.05-1.3,1.05
		C46.02,62.36,45.48,62.32,45.13,62.26z"/>
	<path d="M48.6,58.84h0.67l0.02,0.46h0.05c0.21-0.43,0.65-0.52,1.08-0.52c0.92,0,1.24,0.39,1.24,1.78s-0.3,1.79-1.21,1.79
		c-0.5,0-0.87-0.09-1.07-0.46h-0.05v1.76H48.6V58.84z M50.93,60.57c0-1.03-0.09-1.15-0.81-1.15c-0.39,0-0.6,0.1-0.7,0.33
		c-0.09,0.19-0.1,0.47-0.1,0.82c0,0.37,0.01,0.62,0.09,0.81c0.1,0.24,0.32,0.33,0.71,0.33C50.84,61.71,50.93,61.6,50.93,60.57z"/>
	<path d="M52.46,60.57c0-1.41,0.09-1.78,1.56-1.78s1.56,0.37,1.56,1.78c0,1.41-0.09,1.79-1.56,1.79S52.46,61.98,52.46,60.57z
		 M54.84,60.57c0-1.04,0-1.17-0.83-1.17s-0.83,0.14-0.83,1.17c0,1.05,0,1.19,0.83,1.19S54.84,61.61,54.84,60.57z"/>
	<path d="M56.78,59.45h-0.69v-0.6h0.69v-1h0.72v1h0.81v0.6H57.5v2.86h-0.72V59.45z"/>
</g>
<g>
</g>
<g>
</g>
<g>
</g>
<g>
</g>
<g>
</g>
<g>
</g>
<g>
</g>
<g>
</g>
<g>
</g>
<g>
</g>
<g>
</g>
<g>
</g>
<g>
</g>
<g>
</g>
<g>
</g>
</svg>
